<?xml version="1.0" ?>
<svg xmlns="http://www.w3.org/2000/svg" version="1.1" width="600" height="600">
  <defs/>
  <g>
    <path d="M 566.0228881835938 191.4012451171875 C 559.9229736328125 167.71128845214844 542.2824096679688 157.1043243408203 542.3452758789062 166.6555938720703 C 562.688720703125 182.3256378173828 584.8304443359375 168.08151245117188 558.7130737304688 165.98231506347656 C 585.4862670898438 166.70716857910156 570.1984252929688 169.92724609375 545.9993896484375 156.99664306640625 C 543.59423828125 178.10614013671875 570.60009765625 186.97476196289062 595.9619140625 158.34999084472656" stroke-width="12.199999809265137" fill="none" stroke="rgb(0, 0, 0)" stroke-opacity="0.7827657" stroke-linecap="round" stroke-linejoin="round"/>
    <path d="M 167.5684051513672 19.438552856445312 C 151.6488037109375 -2.106287717819214 173.76806640625 -11.618795394897461 162.55343627929688 -2.749504566192627 C 161.9223175048828 25.465757369995117 167.52931213378906 46.733245849609375 187.4064178466797 59.207393646240234 C 157.85574340820312 78.59207916259766 152.4619903564453 52.81278610229492 140.6985626220703 27.1881103515625 C 159.150390625 5.527008533477783 153.00889587402344 -12.022398948669434 154.4612579345703 -11.10228157043457" stroke-width="11.800000190734863" fill="none" stroke="rgb(0, 0, 0)" stroke-opacity="0.5777915" stroke-linecap="round" stroke-linejoin="round"/>
    <path d="M 269.2801513671875 78.82392883300781 C 270.7269287109375 87.92973327636719 283.8706359863281 106.69355773925781 280.59979248046875 77.5445327758789 C 274.6094970703125 101.5964584350586 261.5812683105469 95.32484436035156 273.4108581542969 120.57518768310547 C 270.6393127441406 135.98756408691406 280.8621520996094 149.06629943847656 289.0032043457031 146.99093627929688 C 306.028076171875 132.628662109375 326.6761474609375 109.75802612304688 326.09979248046875 96.62290954589844" stroke-width="12.19999885559082" fill="none" stroke="rgb(0, 0, 0)" stroke-opacity="0.36538988" stroke-linecap="round" stroke-linejoin="round"/>
    <path d="M 573.2373046875 346.52606201171875 C 601.2474975585938 365.1968078613281 626.4761352539062 351.73504638671875 613.0399169921875 347.1898498535156 C 598.5789794921875 321.26324462890625 628.3171997070312 307.7125549316406 598.5525512695312 295.0728759765625 C 612.4210815429688 294.7874450683594 610.263671875 274.86572265625 638.7984008789062 256.0374755859375 C 622.0060424804688 252.80726623535156 646.4564208984375 244.71835327148438 659.4630126953125 217.37469482421875" stroke-width="12.199999809265137" fill="none" stroke="rgb(0, 0, 0)" stroke-opacity="0.7509734" stroke-linecap="round" stroke-linejoin="round"/>
    <path d="M 67.81571960449219 347.63128662109375 C 48.34748458862305 358.5487060546875 57.287635803222656 368.8898620605469 79.54717254638672 353.14630126953125 C 53.611515045166016 380.46380615234375 58.883544921875 395.7910461425781 68.64762115478516 373.20947265625 C 50.423362731933594 359.7701416015625 26.146068572998047 385.3367004394531 26.30087661743164 385.7700500488281 C 31.088993072509766 404.8674011230469 45.45429992675781 398.01446533203125 51.875953674316406 383.2876892089844" stroke-width="12.199996948242188" fill="none" stroke="rgb(0, 0, 0)" stroke-opacity="0.37960008" stroke-linecap="round" stroke-linejoin="round"/>
    <path d="M 404.2771301269531 68.7768325805664 C 421.9669189453125 94.27047729492188 437.8649597167969 120.19157409667969 454.4789123535156 145.7866668701172 C 452.9000549316406 152.7705078125 432.8307800292969 138.3566131591797 406.9089660644531 136.11416625976562 C 413.2646179199219 116.97807312011719 395.89166259765625 145.5337371826172 402.174560546875 136.86553955078125 C 377.4873046875 119.39083099365234 366.7749328613281 108.11312866210938 366.2697448730469 136.64999389648438" stroke-width="12.19999885559082" fill="none" stroke="rgb(0, 0, 0)" stroke-opacity="0.08542902" stroke-linecap="round" stroke-linejoin="round"/>
    <path d="M 378.8912048339844 527.14990234375 C 352.3342590332031 509.909423828125 362.5562438964844 498.25518798828125 353.77325439453125 505.1989440917969 C 348.52447509765625 519.488037109375 341.0533142089844 497.6174621582031 370.3747863769531 524.39111328125 C 374.1310119628906 502.1647033691406 384.2953186035156 477.6607971191406 378.1474609375 485.86346435546875 C 407.791748046875 485.8395690917969 437.61773681640625 468.372314453125 425.5684509277344 459.12774658203125" stroke-width="12.19999885559082" fill="none" stroke="rgb(0, 0, 0)" stroke-opacity="0.4248547" stroke-linecap="round" stroke-linejoin="round"/>
    <path d="M 374.94140625 464.28387451171875 C 402.9708251953125 448.93670654296875 404.0118408203125 448.7913513183594 429.18377685546875 422.42279052734375 C 419.7421569824219 412.3932189941406 399.32745361328125 441.1813049316406 412.8882141113281 462.4848937988281 C 394.8069152832031 472.5746154785156 386.66400146484375 449.7794494628906 357.5687561035156 437.0378723144531 C 359.9833679199219 430.5602722167969 330.46954345703125 424.1392822265625 351.824951171875 424.2721252441406" stroke-width="12.19999885559082" fill="none" stroke="rgb(0, 0, 0)" stroke-opacity="0.9587614" stroke-linecap="round" stroke-linejoin="round"/>
    <path d="M 556.7401733398438 397.0902099609375 C 583.2523803710938 417.5328369140625 609.8310546875 393.18011474609375 628.2169189453125 387.04754638671875 C 635.000244140625 398.99267578125 619.9996948242188 385.9701843261719 616.6531982421875 376.6827087402344 C 599.2296752929688 392.392578125 593.154052734375 377.58905029296875 595.44677734375 371.5021057128906 C 612.05859375 383.170654296875 599.578369140625 394.95135498046875 626.0945434570312 388.3774719238281" stroke-width="11.800000190734863" fill="none" stroke="rgb(0, 0, 0)" stroke-opacity="0.24056828" stroke-linecap="round" stroke-linejoin="round"/>
    <path d="M 148.08010864257812 185.54092407226562 C 134.25070190429688 176.6668243408203 139.93521118164062 188.56881713867188 145.39755249023438 160.5967559814453 C 172.49319458007812 175.8781280517578 144.42132568359375 197.90798950195312 144.13873291015625 219.3406982421875 C 162.40301513671875 226.5733184814453 137.6802520751953 214.6044921875 111.9525375366211 241.7315216064453 C 105.12030792236328 252.5498809814453 109.2802505493164 280.4442443847656 131.44337463378906 310.4341125488281" stroke-width="11.800000190734863" fill="none" stroke="rgb(0, 0, 0)" stroke-opacity="0.42432153" stroke-linecap="round" stroke-linejoin="round"/>
    <path d="M 74.03072357177734 381.61041259765625 C 86.59956359863281 357.88104248046875 64.8745346069336 363.6129150390625 75.11779022216797 358.65673828125 C 74.2185287475586 340.8963928222656 57.7611198425293 361.0162048339844 69.26215362548828 363.77178955078125 C 94.98532104492188 357.7619934082031 107.84330749511719 329.106201171875 91.37901306152344 310.9540710449219 C 97.0483627319336 317.9379577636719 93.79169464111328 331.4123840332031 104.20618438720703 336.39605712890625" stroke-width="12.199999809265137" fill="none" stroke="rgb(0, 0, 0)" stroke-opacity="0.80988693" stroke-linecap="round" stroke-linejoin="round"/>
    <path d="M 453.41064453125 550.92822265625 C 468.26806640625 549.6370849609375 484.6716003417969 550.0502319335938 461.233642578125 565.0492553710938 C 470.5665588378906 577.6004638671875 491.8089294433594 606.907470703125 499.8163146972656 601.9403686523438 C 495.95257568359375 630.2569580078125 477.778564453125 657.008056640625 503.5228271484375 632.480712890625 C 475.1641540527344 624.0736694335938 458.1383972167969 646.7012939453125 460.8724365234375 646.23388671875" stroke-width="12.199996948242188" fill="none" stroke="rgb(0, 0, 0)" stroke-opacity="0.082717925" stroke-linecap="round" stroke-linejoin="round"/>
    <path d="M 250.1734619140625 63.28744888305664 C 220.2342529296875 61.27409362792969 242.49502563476562 73.91603088378906 219.5704345703125 67.18551635742188 C 244.44131469726562 80.88496398925781 244.3295440673828 101.1595687866211 258.6441345214844 123.10201263427734 C 287.9713134765625 148.04283142089844 316.162109375 130.95188903808594 339.0061950683594 127.4271011352539 C 356.7924499511719 156.09783935546875 340.2926025390625 136.90371704101562 346.5909729003906 126.60999298095703" stroke-width="12.199995994567871" fill="none" stroke="rgb(0, 0, 0)" stroke-opacity="0.2478706" stroke-linecap="round" stroke-linejoin="round"/>
    <path d="M 288.747802734375 336.4082946777344 C 278.592041015625 357.5216064453125 284.6712951660156 373.3798828125 280.56634521484375 351.3150939941406 C 292.91778564453125 362.4483947753906 290.7553405761719 336.7173156738281 287.9194641113281 338.25494384765625 C 303.93658447265625 309.63397216796875 314.92938232421875 308.8719482421875 310.3440856933594 331.4961853027344 C 302.7598571777344 303.6146545410156 282.1363220214844 288.37347412109375 269.0770568847656 260.5470275878906" stroke-width="11.800009727478027" fill="none" stroke="rgb(0, 0, 0)" stroke-opacity="0.58306277" stroke-linecap="round" stroke-linejoin="round"/>
    <path d="M 443.2095031738281 413.1470642089844 C 436.3842468261719 395.7306213378906 448.4201965332031 406.906494140625 472.8056335449219 377.2095947265625 C 487.19232177734375 356.6805419921875 495.82861328125 342.6025695800781 486.2189025878906 327.36358642578125 C 461.3585205078125 306.7292785644531 452.18231201171875 278.9607238769531 434.9150695800781 289.29931640625 C 456.8800354003906 263.51666259765625 460.714111328125 266.95660400390625 468.34991455078125 260.7149658203125" stroke-width="12.19998836517334" fill="none" stroke="rgb(0, 0, 0)" stroke-opacity="0.13923869" stroke-linecap="round" stroke-linejoin="round"/>
    <path d="M 482.484375 135.37713623046875 C 488.17041015625 151.30027770996094 491.53173828125 142.96975708007812 515.6432495117188 161.00399780273438 C 499.5989074707031 137.05784606933594 502.365234375 161.29055786132812 481.6753845214844 180.83204650878906 C 483.13043212890625 170.105712890625 462.1563415527344 150.93226623535156 450.7650451660156 163.76556396484375 C 462.13531494140625 139.69540405273438 448.404541015625 166.44223022460938 445.89434814453125 156.6979217529297" stroke-width="12.19999885559082" fill="none" stroke="rgb(0, 0, 0)" stroke-opacity="0.011357621" stroke-linecap="round" stroke-linejoin="round"/>
    <path d="M 433.3173522949219 596.669921875 C 450.4102478027344 620.7081298828125 441.3872985839844 642.17236328125 424.9764709472656 633.7271728515625 C 433.60150146484375 632.0974731445312 437.316650390625 651.219970703125 408.6711120605469 636.000244140625 C 415.4231872558594 618.2182006835938 434.7359619140625 592.4802856445312 448.89495849609375 580.4374389648438 C 446.6194763183594 600.2247924804688 423.1785888671875 579.804931640625 406.8638916015625 576.9767456054688" stroke-width="11.800002098083496" fill="none" stroke="rgb(0, 0, 0)" stroke-opacity="0.17903624" stroke-linecap="round" stroke-linejoin="round"/>
    <path d="M 396.3066711425781 236.61451721191406 C 398.2461853027344 253.0821075439453 370.2865295410156 244.23886108398438 379.7578125 263.9124450683594 C 352.67877197265625 274.52593994140625 348.9028625488281 295.2196960449219 354.50732421875 297.4178771972656 C 325.7668762207031 281.9653625488281 330.5406799316406 304.61181640625 354.6971740722656 325.1305847167969 C 362.1842346191406 297.3166198730469 350.0078125 307.6815490722656 340.7326965332031 320.0515441894531" stroke-width="11.80000114440918" fill="none" stroke="rgb(0, 0, 0)" stroke-opacity="0.5357188" stroke-linecap="round" stroke-linejoin="round"/>
    <path d="M 410.09283447265625 487.5990905761719 C 416.4354553222656 488.2898864746094 402.50469970703125 506.29827880859375 395.5555419921875 530.2050170898438 C 396.7024230957031 551.6203002929688 416.16595458984375 553.45068359375 389.53839111328125 560.0372314453125 C 369.46820068359375 551.7555541992188 354.15106201171875 523.8697509765625 376.4916687011719 495.3887634277344 C 364.88140869140625 516.6446533203125 377.20538330078125 545.863525390625 386.9244689941406 553.7870483398438" stroke-width="12.199999809265137" fill="none" stroke="rgb(0, 0, 0)" stroke-opacity="0.2695996" stroke-linecap="round" stroke-linejoin="round"/>
    <path d="M 95.24568176269531 367.9507751464844 C 71.16099548339844 373.45684814453125 78.81310272216797 356.25421142578125 77.86577606201172 333.7254638671875 C 103.95683288574219 320.4976501464844 74.81109619140625 302.4895324707031 60.96180725097656 278.5700378417969 C 82.35940551757812 266.84307861328125 105.52664947509766 269.9648132324219 77.31780242919922 272.71502685546875 C 102.12554168701172 246.7429962158203 115.08118438720703 244.12313842773438 114.01221466064453 230.84059143066406" stroke-width="11.80000114440918" fill="none" stroke="rgb(0, 0, 0)" stroke-opacity="0.49827117" stroke-linecap="round" stroke-linejoin="round"/>
    <path d="M 213.04356384277344 107.42232513427734 C 239.51748657226562 98.85873413085938 210.82469177246094 95.84646606445312 221.61532592773438 107.04715728759766 C 241.3102569580078 95.09803771972656 239.33132934570312 117.03377532958984 254.14419555664062 141.3343963623047 C 224.31869506835938 171.17710876464844 236.98208618164062 190.12371826171875 226.02085876464844 218.7261505126953 C 232.01791381835938 199.3741912841797 260.87835693359375 224.093017578125 233.85348510742188 215.46092224121094" stroke-width="12.199999809265137" fill="none" stroke="rgb(0, 0, 0)" stroke-opacity="0.36440444" stroke-linecap="round" stroke-linejoin="round"/>
    <path d="M 125.53242492675781 456.36376953125 C 153.14170837402344 461.6536865234375 125.35616302490234 458.1644287109375 107.87623596191406 440.840087890625 C 117.30230712890625 455.7452087402344 132.34652709960938 427.8336486816406 151.38162231445312 415.6414794921875 C 131.11444091796875 424.22589111328125 160.12852478027344 414.2051696777344 178.66094970703125 403.2144775390625 C 163.6338653564453 400.6835021972656 151.3610076904297 382.36077880859375 156.38677978515625 354.2087707519531" stroke-width="11.80000114440918" fill="none" stroke="rgb(0, 0, 0)" stroke-opacity="0.3990337" stroke-linecap="round" stroke-linejoin="round"/>
    <path d="M 117.18865966796875 102.41590881347656 C 126.41854095458984 75.83798217773438 145.0448760986328 70.25963592529297 150.573486328125 95.10765075683594 C 129.08489990234375 71.22109985351562 113.33063507080078 57.33527374267578 95.1068115234375 67.79905700683594 C 114.49047088623047 72.91961669921875 98.30799102783203 44.07893371582031 105.8078384399414 43.214046478271484 C 127.25247192382812 14.133285522460938 118.16561889648438 26.88959503173828 90.63536071777344 41.87343215942383" stroke-width="11.800000190734863" fill="none" stroke="rgb(0, 0, 0)" stroke-opacity="0.07524829" stroke-linecap="round" stroke-linejoin="round"/>
    <path d="M 443.55804443359375 41.373756408691406 C 422.78802490234375 41.61964797973633 445.24005126953125 36.10053253173828 429.61126708984375 32.895774841308594 C 457.76165771484375 23.81046485900879 438.09979248046875 7.808094501495361 462.6539611816406 -18.580549240112305 C 439.847900390625 -3.175841808319092 469.235595703125 -29.594682693481445 480.22906494140625 -20.153268814086914 C 459.32757568359375 -36.2030029296875 478.104736328125 -56.958072662353516 488.723388671875 -45.04558563232422" stroke-width="11.800003051757812" fill="none" stroke="rgb(0, 0, 0)" stroke-opacity="0.7201685" stroke-linecap="round" stroke-linejoin="round"/>
    <path d="M 573.6942749023438 242.9495086669922 C 552.9442749023438 237.2467041015625 541.291748046875 222.26589965820312 562.462890625 216.4962921142578 C 553.1881103515625 205.29844665527344 547.7777099609375 215.5786895751953 537.1844482421875 222.28076171875 C 509.30072021484375 205.11497497558594 535.9968872070312 185.48947143554688 559.7144165039062 162.90760803222656 C 558.5473022460938 159.36080932617188 577.852294921875 152.42530822753906 602.2269897460938 138.86195373535156" stroke-width="11.800028800964355" fill="none" stroke="rgb(0, 0, 0)" stroke-opacity="0.0011010773" stroke-linecap="round" stroke-linejoin="round"/>
    <path d="M 322.7691650390625 185.30807495117188 C 329.59417724609375 202.02919006347656 333.7396240234375 192.54478454589844 320.7115173339844 179.8415069580078 C 323.5453186035156 159.37889099121094 335.3990783691406 169.84332275390625 342.8839111328125 140.04324340820312 C 339.8914489746094 153.28736877441406 354.3787536621094 172.2677764892578 327.12872314453125 142.6324005126953 C 309.134033203125 122.70816040039062 316.469482421875 130.70703125 295.5960388183594 103.89579010009766" stroke-width="12.199973106384277" fill="none" stroke="rgb(0, 0, 0)" stroke-opacity="0.75095725" stroke-linecap="round" stroke-linejoin="round"/>
    <path d="M 62.22222137451172 210.38363647460938 C 59.85825729370117 223.22573852539062 86.0857925415039 199.69644165039062 85.46395874023438 211.14776611328125 C 98.68418884277344 239.23599243164062 116.65015411376953 220.21392822265625 135.647705078125 243.50918579101562 C 156.09671020507812 249.5257568359375 129.07443237304688 236.52035522460938 130.13331604003906 258.67950439453125 C 142.67141723632812 234.42874145507812 138.15771484375 232.7001953125 157.25350952148438 232.41806030273438" stroke-width="12.199999809265137" fill="none" stroke="rgb(0, 0, 0)" stroke-opacity="0.494706" stroke-linecap="round" stroke-linejoin="round"/>
    <path d="M 96.7995376586914 512.425537109375 C 113.89791870117188 539.904052734375 104.04586029052734 553.8587646484375 94.7461929321289 531.151611328125 C 112.61665344238281 550.6284790039062 121.26641845703125 557.3898315429688 104.99113464355469 584.8238525390625 C 76.68170928955078 586.9108276367188 46.87345504760742 595.0751953125 48.11117172241211 587.252197265625 C 51.81488800048828 597.0076904296875 42.24644470214844 595.2775268554688 58.90299987792969 599.0654907226562" stroke-width="11.800000190734863" fill="none" stroke="rgb(0, 0, 0)" stroke-opacity="0.44801596" stroke-linecap="round" stroke-linejoin="round"/>
    <path d="M 11.379213333129883 338.9823303222656 C -15.702380180358887 310.0611267089844 0.8535968661308289 304.3118896484375 11.222372055053711 289.93804931640625 C 28.61732292175293 280.01123046875 15.347820281982422 266.6708068847656 7.666379451751709 280.46636962890625 C 5.142196178436279 265.469970703125 -14.084037780761719 278.29278564453125 -10.78863525390625 253.64859008789062 C -32.05302047729492 274.3106994628906 -49.33362579345703 256.0705871582031 -30.759408950805664 281.0398864746094" stroke-width="12.19997501373291" fill="none" stroke="rgb(0, 0, 0)" stroke-opacity="0.05387961" stroke-linecap="round" stroke-linejoin="round"/>
    <path d="M 18.853946685791016 535.3969116210938 C 15.537358283996582 545.0001220703125 37.724300384521484 532.5936279296875 18.914432525634766 535.3287963867188 C 13.267990112304688 540.9522705078125 -11.216663360595703 544.8330078125 -0.1195686087012291 521.5150756835938 C -12.65768814086914 540.9993286132812 -17.827972412109375 540.50927734375 -13.251195907592773 561.0714111328125 C 11.343117713928223 571.4376220703125 -18.08685874938965 573.172607421875 -4.070920467376709 584.1696166992188" stroke-width="11.80000114440918" fill="none" stroke="rgb(0, 0, 0)" stroke-opacity="0.7551095" stroke-linecap="round" stroke-linejoin="round"/>
    <path d="M 547.345947265625 345.9994201660156 C 545.6187744140625 368.08837890625 571.8739013671875 340.3358154296875 589.9246215820312 340.06683349609375 C 608.0503540039062 311.2850646972656 582.34033203125 319.3344421386719 572.5423583984375 298.18646240234375 C 562.4295654296875 313.4039611816406 554.9116821289062 323.6992492675781 563.600341796875 352.4901123046875 C 592.2469482421875 381.8862609863281 604.5300903320312 356.3245849609375 595.5364379882812 348.614501953125" stroke-width="12.199999809265137" fill="none" stroke="rgb(0, 0, 0)" stroke-opacity="0.89306426" stroke-linecap="round" stroke-linejoin="round"/>
    <path d="M 250.71871948242188 48.865352630615234 C 256.8143310546875 29.526344299316406 263.03857421875 27.848520278930664 242.27630615234375 54.6046257019043 C 270.6173095703125 64.99427032470703 300.4565124511719 67.33557891845703 302.08441162109375 71.68225860595703 C 320.42901611328125 69.76900482177734 326.1601257324219 43.86473083496094 340.187744140625 26.2958927154541 C 363.236083984375 13.899670600891113 350.00726318359375 9.503190040588379 365.67822265625 -18.95314598083496" stroke-width="12.199999809265137" fill="none" stroke="rgb(0, 0, 0)" stroke-opacity="0.8171748" stroke-linecap="round" stroke-linejoin="round"/>
    <path d="M 108.9604263305664 341.93994140625 C 121.20679473876953 334.41717529296875 135.0754852294922 337.0615539550781 143.83993530273438 354.3898620605469 C 143.23733520507812 366.5975036621094 147.07321166992188 395.006591796875 145.77992248535156 376.2732238769531 C 146.52200317382812 367.2429504394531 128.3511962890625 371.4080810546875 131.49978637695312 390.0348205566406 C 112.95069122314453 391.62091064453125 138.67498779296875 397.9251708984375 165.4933319091797 380.31317138671875" stroke-width="12.199995040893555" fill="none" stroke="rgb(0, 0, 0)" stroke-opacity="0.4004694" stroke-linecap="round" stroke-linejoin="round"/>
    <path d="M 428.4773864746094 352.9024353027344 C 404.63336181640625 371.07598876953125 409.4441833496094 391.8387451171875 404.12371826171875 390.17193603515625 C 427.023681640625 402.4458312988281 399.6661682128906 392.4613342285156 415.4844970703125 414.3389587402344 C 396.45306396484375 426.9396667480469 395.8931579589844 412.6468811035156 380.0321960449219 430.13580322265625 C 364.6807861328125 454.532470703125 369.2998352050781 469.9065246582031 371.8116760253906 446.68414306640625" stroke-width="12.19999885559082" fill="none" stroke="rgb(0, 0, 0)" stroke-opacity="0.45916122" stroke-linecap="round" stroke-linejoin="round"/>
    <path d="M 305.7812805175781 583.7223510742188 C 295.7337951660156 595.2510986328125 324.62969970703125 600.874267578125 338.2633972167969 574.9557495117188 C 311.2147216796875 598.329833984375 334.4244079589844 615.0536499023438 306.0503845214844 595.2101440429688 C 288.74639892578125 594.3496704101562 303.42822265625 601.7072143554688 333.3421936035156 628.1376953125 C 345.25872802734375 619.1288452148438 366.00054931640625 616.1632080078125 385.7547912597656 640.650634765625" stroke-width="12.199997901916504" fill="none" stroke="rgb(0, 0, 0)" stroke-opacity="0.77615947" stroke-linecap="round" stroke-linejoin="round"/>
    <path d="M 12.508808135986328 166.42417907714844 C 16.37903594970703 190.98739624023438 14.381424903869629 178.612060546875 -12.065725326538086 149.01828002929688 C 9.038626670837402 128.00340270996094 11.695585250854492 101.16719055175781 34.518917083740234 113.16793060302734 C 37.44026565551758 101.56431579589844 51.81159591674805 98.45556640625 64.42742156982422 126.7808837890625 C 47.04166793823242 154.97674560546875 41.016944885253906 180.69631958007812 15.025586128234863 161.54183959960938" stroke-width="12.19999885559082" fill="none" stroke="rgb(0, 0, 0)" stroke-opacity="0.9304" stroke-linecap="round" stroke-linejoin="round"/>
    <path d="M 544.0526123046875 459.7345886230469 C 549.5309448242188 442.0139465332031 558.750732421875 454.7706604003906 554.4312133789062 484.73712158203125 C 529.9349365234375 501.4353332519531 501.06787109375 488.3973693847656 526.0545654296875 468.8523254394531 C 539.8439331054688 490.4196472167969 544.1473999023438 496.53515625 516.9405517578125 493.80389404296875 C 533.5297241210938 479.9985656738281 545.9295043945312 504.3602294921875 527.4963989257812 510.7777099609375" stroke-width="11.800000190734863" fill="none" stroke="rgb(0, 0, 0)" stroke-opacity="0.42862675" stroke-linecap="round" stroke-linejoin="round"/>
    <path d="M 282.36376953125 168.03807067871094 C 305.41314697265625 157.0933074951172 294.187744140625 152.1839599609375 293.5152893066406 152.32406616210938 C 280.1252746582031 156.02224731445312 275.58233642578125 151.5949249267578 273.0762939453125 158.504150390625 C 278.9050598144531 138.93299865722656 274.458251953125 154.7509765625 266.338623046875 140.57696533203125 C 291.6371765136719 117.25996398925781 278.556396484375 89.53462219238281 267.5935974121094 68.28608703613281" stroke-width="12.199989318847656" fill="none" stroke="rgb(0, 0, 0)" stroke-opacity="0.01079864" stroke-linecap="round" stroke-linejoin="round"/>
    <path d="M 473.7078857421875 258.4891357421875 C 445.7451477050781 268.57855224609375 458.00982666015625 297.9021301269531 436.76812744140625 277.8437194824219 C 448.6516418457031 258.8681945800781 435.6451416015625 263.70111083984375 421.40692138671875 265.2250671386719 C 427.88800048828125 235.61785888671875 455.4339599609375 254.21780395507812 446.12261962890625 253.40354919433594 C 474.9591064453125 261.3124694824219 476.6059875488281 258.3159484863281 452.67474365234375 229.970703125" stroke-width="11.800000190734863" fill="none" stroke="rgb(0, 0, 0)" stroke-opacity="0.6696582" stroke-linecap="round" stroke-linejoin="round"/>
    <path d="M 172.34317016601562 203.71310424804688 C 173.10784912109375 212.85104370117188 198.75738525390625 196.01710510253906 221.9957275390625 197.13072204589844 C 236.32118225097656 209.53616333007812 230.23098754882812 233.60885620117188 258.7489013671875 245.414306640625 C 239.89874267578125 275.2861022949219 227.12423706054688 284.6532897949219 200.29495239257812 293.6133117675781 C 226.30101013183594 306.9510192871094 232.08737182617188 293.1717834472656 216.63565063476562 310.33123779296875" stroke-width="11.800000190734863" fill="none" stroke="rgb(0, 0, 0)" stroke-opacity="0.25065687" stroke-linecap="round" stroke-linejoin="round"/>
    <path d="M 338.1806640625 129.74594116210938 C 354.1922912597656 145.70248413085938 379.03558349609375 131.84066772460938 400.44525146484375 120.69073486328125 C 415.7683410644531 93.28202819824219 421.07037353515625 74.01459503173828 407.4379577636719 47.86069107055664 C 383.8021240234375 64.88278198242188 400.4468078613281 74.99451446533203 378.0088195800781 62.24638366699219 C 401.2555847167969 52.330902099609375 407.9264831542969 37.75210189819336 423.0433044433594 13.866467475891113" stroke-width="12.19999885559082" fill="none" stroke="rgb(0, 0, 0)" stroke-opacity="0.7849048" stroke-linecap="round" stroke-linejoin="round"/>
    <path d="M 0.9400317668914795 217.5987548828125 C -7.085201740264893 222.0446319580078 -28.445476531982422 214.67434692382812 -8.425932884216309 239.1837921142578 C 15.002399444580078 216.07012939453125 13.792790412902832 215.64370727539062 3.38489031791687 223.93272399902344 C 12.520352363586426 244.1206817626953 -6.28399133682251 234.63003540039062 -34.76866912841797 232.86024475097656 C -12.172619819641113 207.74668884277344 -9.821136474609375 229.3983917236328 13.428587913513184 251.46865844726562" stroke-width="11.80000114440918" fill="none" stroke="rgb(0, 0, 0)" stroke-opacity="0.20493779" stroke-linecap="round" stroke-linejoin="round"/>
    <path d="M 434.1949157714844 338.3659362792969 C 426.1191101074219 323.71978759765625 441.4031982421875 331.8434143066406 418.4259948730469 347.2002258300781 C 399.5802917480469 372.57696533203125 401.35284423828125 350.47998046875 399.85064697265625 373.407958984375 C 426.5355224609375 389.0573425292969 448.48394775390625 372.92730712890625 451.83599853515625 364.8231201171875 C 443.2947998046875 355.95538330078125 424.3194885253906 368.1580505371094 402.7988586425781 374.8742980957031" stroke-width="12.199999809265137" fill="none" stroke="rgb(0, 0, 0)" stroke-opacity="0.8825922" stroke-linecap="round" stroke-linejoin="round"/>
    <path d="M 460.17022705078125 500.1339416503906 C 470.2868957519531 501.73712158203125 476.14996337890625 512.9649658203125 473.40692138671875 522.5023803710938 C 482.8883361816406 532.0900268554688 499.662109375 507.4499816894531 491.0487976074219 486.9893493652344 C 482.8213806152344 470.1644287109375 454.2680969238281 473.03515625 459.4107360839844 449.244873046875 C 459.8833923339844 445.45989990234375 431.1850891113281 422.20098876953125 443.2314147949219 420.0288391113281" stroke-width="12.19999885559082" fill="none" stroke="rgb(0, 0, 0)" stroke-opacity="0.32935053" stroke-linecap="round" stroke-linejoin="round"/>
    <path d="M 538.5529174804688 173.7863311767578 C 534.7236328125 179.34925842285156 552.9296264648438 164.78488159179688 541.3286743164062 143.755615234375 C 567.47705078125 171.77374267578125 587.8078002929688 175.5946502685547 578.9618530273438 188.38717651367188 C 605.506103515625 186.63841247558594 583.3207397460938 210.4755859375 587.28271484375 225.8682403564453 C 558.9511108398438 223.12986755371094 533.6558837890625 214.3420867919922 538.122802734375 235.1466522216797" stroke-width="12.199999809265137" fill="none" stroke="rgb(0, 0, 0)" stroke-opacity="0.9611713" stroke-linecap="round" stroke-linejoin="round"/>
    <path d="M 39.15737533569336 469.17340087890625 C 41.00008010864258 462.07000732421875 29.683902740478516 483.8360290527344 45.75646209716797 510.7434387207031 C 38.239891052246094 519.0406494140625 23.325687408447266 543.8151245117188 -0.6746728420257568 519.0443115234375 C -8.129510879516602 512.8209838867188 8.712237358093262 515.3826904296875 29.068878173828125 539.3759155273438 C 57.810272216796875 529.17822265625 49.1586799621582 546.4205322265625 25.344270706176758 544.3424682617188" stroke-width="11.800000190734863" fill="none" stroke="rgb(0, 0, 0)" stroke-opacity="0.61456025" stroke-linecap="round" stroke-linejoin="round"/>
    <path d="M 194.8638458251953 259.88775634765625 C 189.9296417236328 286.2417907714844 181.06515502929688 308.33477783203125 179.3005828857422 312.7138977050781 C 200.242919921875 333.8426208496094 224.08474731445312 360.1947937011719 211.90289306640625 343.7785339355469 C 195.9381561279297 356.36328125 192.7524871826172 374.0173034667969 183.04473876953125 347.7978210449219 C 191.2895050048828 343.9480895996094 219.58511352539062 352.9007873535156 242.06065368652344 367.8631896972656" stroke-width="12.199997901916504" fill="none" stroke="rgb(0, 0, 0)" stroke-opacity="0.48797035" stroke-linecap="round" stroke-linejoin="round"/>
    <path d="M 583.03076171875 232.3861541748047 C 581.8934936523438 249.65866088867188 597.1688842773438 243.51597595214844 583.2844848632812 243.894287109375 C 606.9205932617188 249.2845001220703 624.2151489257812 230.6523895263672 601.9934692382812 249.37721252441406 C 631.7713623046875 231.46722412109375 603.2383422851562 227.742431640625 606.1404418945312 247.2181396484375 C 600.8103637695312 245.6594696044922 603.7056884765625 242.76771545410156 613.706787109375 257.6934509277344" stroke-width="11.800005912780762" fill="none" stroke="rgb(0, 0, 0)" stroke-opacity="0.35596994" stroke-linecap="round" stroke-linejoin="round"/>
    <path d="M 321.0653381347656 438.8603820800781 C 340.0615539550781 421.9062805175781 331.8905944824219 394.2114562988281 316.5998229980469 379.1049499511719 C 303.3121643066406 373.0304870605469 323.50225830078125 353.332763671875 295.4231262207031 362.9378662109375 C 274.6141357421875 335.4266357421875 294.13555908203125 340.1678161621094 320.6172790527344 348.8724670410156 C 322.87518310546875 361.167724609375 352.2591247558594 369.0297546386719 344.0829162597656 342.0431823730469" stroke-width="11.800000190734863" fill="none" stroke="rgb(0, 0, 0)" stroke-opacity="0.8568011" stroke-linecap="round" stroke-linejoin="round"/>
    <path d="M 271.2374267578125 270.7662353515625 C 270.5849609375 266.1853332519531 244.28309631347656 281.5386962890625 216.22706604003906 274.11822509765625 C 230.40599060058594 280.1947021484375 253.0928192138672 250.71231079101562 230.744140625 244.25991821289062 C 220.96197509765625 273.8303527832031 200.056396484375 302.624267578125 190.50042724609375 282.7333679199219 C 189.16615295410156 292.541259765625 172.23583984375 306.2318420410156 199.57391357421875 282.1029052734375" stroke-width="12.199999809265137" fill="none" stroke="rgb(0, 0, 0)" stroke-opacity="0.5585962" stroke-linecap="round" stroke-linejoin="round"/>
    <path d="M 594.9744262695312 248.72470092773438 C 606.9105224609375 235.06802368164062 622.8726806640625 242.57693481445312 636.6546020507812 241.39907836914062 C 652.5108032226562 247.17242431640625 672.4197998046875 226.1277313232422 653.6461791992188 252.4291229248047 C 656.1495971679688 272.3599853515625 659.1060791015625 255.13636779785156 640.6227416992188 282.6858215332031 C 670.4949340820312 306.5621032714844 672.151611328125 314.1238708496094 688.3179931640625 340.6760559082031" stroke-width="11.800004959106445" fill="none" stroke="rgb(0, 0, 0)" stroke-opacity="0.059446678" stroke-linecap="round" stroke-linejoin="round"/>
    <path d="M 549.930908203125 424.8612060546875 C 541.5575561523438 453.595947265625 549.8632202148438 426.8704528808594 547.4519653320312 442.7420959472656 C 521.3240966796875 464.1053161621094 535.5250244140625 488.466552734375 548.0938110351562 515.9927368164062 C 524.0928955078125 531.1513671875 540.9850463867188 550.8526000976562 568.6887817382812 570.6982421875 C 545.9567260742188 567.6414184570312 569.6293334960938 595.7144775390625 596.3469848632812 565.8368530273438" stroke-width="12.199999809265137" fill="none" stroke="rgb(0, 0, 0)" stroke-opacity="0.9091554" stroke-linecap="round" stroke-linejoin="round"/>
    <path d="M 393.0704650878906 85.00017547607422 C 363.5642395019531 57.89783477783203 373.36187744140625 86.85877990722656 377.0148010253906 101.74449157714844 C 381.9990234375 79.31314086914062 397.3927001953125 64.30719757080078 380.8702087402344 86.02912902832031 C 402.2646484375 82.76776885986328 406.2422790527344 92.96879577636719 422.11322021484375 92.17764282226562 C 407.56622314453125 70.47762298583984 385.7976989746094 45.268714904785156 404.05511474609375 42.769039154052734" stroke-width="11.800002098083496" fill="none" stroke="rgb(0, 0, 0)" stroke-opacity="0.069464594" stroke-linecap="round" stroke-linejoin="round"/>
    <path d="M 50.52614974975586 14.805610656738281 C 50.456180572509766 41.35007095336914 44.94488525390625 21.47913932800293 42.7894401550293 28.48532485961914 C 43.115787506103516 37.833431243896484 18.97390365600586 47.034080505371094 29.908035278320312 45.462310791015625 C 3.559087038040161 26.7772274017334 -23.784820556640625 33.66885757446289 -49.737579345703125 36.595237731933594 C -27.896406173706055 35.510868072509766 -31.452468872070312 54.81388854980469 -56.600460052490234 61.84964370727539" stroke-width="11.800000190734863" fill="none" stroke="rgb(0, 0, 0)" stroke-opacity="0.32843062" stroke-linecap="round" stroke-linejoin="round"/>
    <path d="M 438.1006774902344 377.6624450683594 C 418.234375 378.2149658203125 425.0699768066406 366.8394470214844 421.39044189453125 385.7027282714844 C 442.5671081542969 380.3289794921875 443.2663269042969 361.00140380859375 426.2668762207031 373.6208190917969 C 430.8600158691406 349.8941345214844 437.54425048828125 376.729736328125 422.29693603515625 369.9731140136719 C 398.2261657714844 390.1947021484375 390.0028076171875 382.3567199707031 384.5937194824219 394.3912353515625" stroke-width="11.800006866455078" fill="none" stroke="rgb(0, 0, 0)" stroke-opacity="0.66764903" stroke-linecap="round" stroke-linejoin="round"/>
    <path d="M 417.2467956542969 599.967529296875 C 420.6079406738281 619.670166015625 404.4342956542969 617.636474609375 417.7004699707031 608.0838012695312 C 389.71209716796875 579.6195068359375 396.0313415527344 568.2800903320312 419.5003662109375 597.0338134765625 C 439.7010803222656 603.8406982421875 418.82427978515625 596.6752319335938 394.4773254394531 613.5882568359375 C 368.0568542480469 636.983642578125 375.65643310546875 613.0901489257812 355.0527038574219 602.968505859375" stroke-width="11.800000190734863" fill="none" stroke="rgb(0, 0, 0)" stroke-opacity="0.5323222" stroke-linecap="round" stroke-linejoin="round"/>
    <path d="M 584.7957153320312 93.19120025634766 C 564.4248657226562 116.50868225097656 549.1539916992188 145.733154296875 574.424560546875 170.6438446044922 C 597.633544921875 182.340576171875 622.0957641601562 162.603515625 632.212890625 176.60653686523438 C 604.1149291992188 171.51869201660156 584.0484008789062 145.95233154296875 566.9010620117188 144.36805725097656 C 550.7886352539062 147.16989135742188 558.3839111328125 135.19253540039062 547.7273559570312 137.84002685546875" stroke-width="12.199999809265137" fill="none" stroke="rgb(0, 0, 0)" stroke-opacity="0.95479095" stroke-linecap="round" stroke-linejoin="round"/>
    <path d="M 331.07244873046875 487.1925048828125 C 331.4909973144531 487.80633544921875 302.0390319824219 462.747314453125 314.68072509765625 439.2998352050781 C 335.557373046875 427.95361328125 322.3752746582031 456.34088134765625 309.7752685546875 485.4752502441406 C 322.6801452636719 460.63739013671875 295.4299621582031 437.1912536621094 297.22265625 423.8456115722656 C 288.91778564453125 420.82470703125 301.2306213378906 440.5470275878906 306.559326171875 462.4666442871094" stroke-width="12.199999809265137" fill="none" stroke="rgb(0, 0, 0)" stroke-opacity="0.89867514" stroke-linecap="round" stroke-linejoin="round"/>
    <path d="M 231.36643981933594 120.86602020263672 C 258.4509582519531 110.67913055419922 261.6773986816406 95.03583526611328 273.56390380859375 93.23303985595703 C 271.6180725097656 85.45197296142578 291.86138916015625 68.01428985595703 291.3080749511719 71.99339294433594 C 300.11309814453125 51.91807174682617 303.1283264160156 39.47077560424805 273.24407958984375 60.857139587402344 C 245.79739379882812 63.71666717529297 245.5745086669922 36.82177734375 242.51736450195312 22.093769073486328" stroke-width="11.80000114440918" fill="none" stroke="rgb(0, 0, 0)" stroke-opacity="0.7589715" stroke-linecap="round" stroke-linejoin="round"/>
    <path d="M 502.0495910644531 60.66585159301758 C 528.8450927734375 47.85830307006836 504.9864196777344 19.594091415405273 517.05810546875 28.6436767578125 C 543.6732177734375 24.366966247558594 554.8300170898438 47.56124496459961 579.906982421875 44.06292724609375 C 595.4728393554688 68.69989013671875 598.6397705078125 85.73307037353516 626.2223510742188 92.55921936035156 C 611.5822143554688 117.48885345458984 594.2247924804688 93.80284881591797 586.4156494140625 84.86268615722656" stroke-width="11.800000190734863" fill="none" stroke="rgb(0, 0, 0)" stroke-opacity="0.9809695" stroke-linecap="round" stroke-linejoin="round"/>
    <path d="M 336.8384094238281 213.07818603515625 C 329.7481994628906 222.62869262695312 357.2749938964844 235.95916748046875 357.89508056640625 212.84518432617188 C 349.9258728027344 225.7864227294922 341.27435302734375 202.23516845703125 315.8954162597656 191.90133666992188 C 343.07513427734375 175.5847625732422 340.14666748046875 156.4867706298828 325.5888671875 131.649658203125 C 353.07550048828125 115.2347412109375 333.7563171386719 131.21670532226562 361.86309814453125 126.73365783691406" stroke-width="12.19999885559082" fill="none" stroke="rgb(0, 0, 0)" stroke-opacity="0.90473914" stroke-linecap="round" stroke-linejoin="round"/>
    <path d="M 547.2169189453125 439.63812255859375 C 517.8372192382812 428.4819030761719 507.2972412109375 429.9386901855469 498.9109802246094 423.3687438964844 C 517.4780883789062 417.094970703125 531.278564453125 419.2278137207031 541.8292846679688 432.2356872558594 C 532.5408935546875 402.6193542480469 521.7520751953125 415.0255126953125 537.143798828125 408.03558349609375 C 530.3565673828125 433.9443664550781 547.0100708007812 427.501953125 542.3104858398438 436.9773864746094" stroke-width="11.80000114440918" fill="none" stroke="rgb(0, 0, 0)" stroke-opacity="0.37732342" stroke-linecap="round" stroke-linejoin="round"/>
    <path d="M 495.0220947265625 288.7450256347656 C 507.6507568359375 305.8186950683594 528.7142944335938 296.01361083984375 552.0984497070312 318.67218017578125 C 549.6461181640625 291.87774658203125 557.700439453125 303.0589294433594 541.0828857421875 310.1164245605469 C 563.393798828125 296.2591857910156 568.193115234375 286.4329528808594 563.614501953125 278.39349365234375 C 555.5475463867188 294.06231689453125 545.2755126953125 312.04339599609375 559.5667114257812 295.5953369140625" stroke-width="11.800000190734863" fill="none" stroke="rgb(0, 0, 0)" stroke-opacity="0.3579032" stroke-linecap="round" stroke-linejoin="round"/>
    <path d="M 569.1455078125 16.08984375 C 546.353515625 30.94502830505371 555.5321655273438 31.567642211914062 569.5164184570312 39.40952682495117 C 552.9758911132812 18.868799209594727 571.8416748046875 -6.1468658447265625 579.1535034179688 -11.054213523864746 C 587.3331298828125 3.1408071517944336 604.0761108398438 18.606077194213867 616.3771362304688 17.443025588989258 C 622.7591552734375 -3.0057179927825928 604.3488159179688 0.2948680818080902 610.9735717773438 -1.8511347770690918" stroke-width="11.80000114440918" fill="none" stroke="rgb(0, 0, 0)" stroke-opacity="0.82405174" stroke-linecap="round" stroke-linejoin="round"/>
    <path d="M 365.6180114746094 493.72247314453125 C 348.00616455078125 486.2886047363281 340.4498291015625 469.6523132324219 344.9508361816406 479.4548034667969 C 339.96856689453125 489.3758544921875 341.095703125 477.69268798828125 330.599365234375 491.0824279785156 C 306.13787841796875 481.24957275390625 276.3090515136719 458.4527282714844 278.65960693359375 466.4374084472656 C 288.8539123535156 477.6080017089844 304.5086364746094 450.5464172363281 322.2686462402344 420.5884094238281" stroke-width="11.800004959106445" fill="none" stroke="rgb(0, 0, 0)" stroke-opacity="0.087910034" stroke-linecap="round" stroke-linejoin="round"/>
    <path d="M 226.46615600585938 313.94989013671875 C 223.10931396484375 299.5777893066406 193.88929748535156 283.6665954589844 192.2934112548828 260.49212646484375 C 187.30816650390625 232.0446319580078 157.35459899902344 203.0609588623047 162.11724853515625 189.64459228515625 C 165.68443298339844 216.93040466308594 180.80966186523438 229.9098358154297 179.57537841796875 249.12896728515625 C 186.3526153564453 277.1601867675781 200.1604461669922 251.26097106933594 198.43800354003906 247.88343811035156" stroke-width="11.800000190734863" fill="none" stroke="rgb(0, 0, 0)" stroke-opacity="0.987847" stroke-linecap="round" stroke-linejoin="round"/>
    <path d="M 63.63651657104492 568.6478881835938 C 80.12273406982422 585.0338134765625 78.06302642822266 564.1926879882812 101.13488006591797 540.4427490234375 C 98.33689880371094 530.141357421875 79.15751647949219 515.3226318359375 108.00640869140625 490.2513122558594 C 131.0328369140625 485.56097412109375 114.42536163330078 461.1319274902344 126.57552337646484 463.9675598144531 C 120.50428009033203 487.33538818359375 145.47157287597656 502.4641418457031 143.6463623046875 529.4459838867188" stroke-width="12.19999885559082" fill="none" stroke="rgb(0, 0, 0)" stroke-opacity="0.6040722" stroke-linecap="round" stroke-linejoin="round"/>
    <path d="M 454.5821838378906 417.17156982421875 C 457.4811706542969 418.539306640625 450.65887451171875 439.3717346191406 456.33477783203125 459.3846130371094 C 480.8794860839844 447.1104431152344 497.938232421875 467.47735595703125 485.3528747558594 474.8723449707031 C 507.2639465332031 460.62298583984375 488.7750244140625 476.6571960449219 488.8067932128906 495.0269470214844 C 514.3268432617188 472.16192626953125 520.11083984375 482.0956726074219 539.32373046875 454.0246887207031" stroke-width="11.800000190734863" fill="none" stroke="rgb(0, 0, 0)" stroke-opacity="0.7962448" stroke-linecap="round" stroke-linejoin="round"/>
    <path d="M 142.2546844482422 432.34783935546875 C 169.5968017578125 457.24139404296875 173.04620361328125 479.1077575683594 146.78207397460938 458.2906799316406 C 117.03102111816406 471.8906555175781 113.48570251464844 470.0279541015625 120.05321502685547 466.0854187011719 C 100.20648193359375 480.1059265136719 100.19302368164062 504.06646728515625 98.388427734375 519.2088012695312 C 72.41974639892578 529.88671875 70.65497589111328 505.7552795410156 90.5274658203125 495.9004821777344" stroke-width="12.199997901916504" fill="none" stroke="rgb(0, 0, 0)" stroke-opacity="0.10351739" stroke-linecap="round" stroke-linejoin="round"/>
    <path d="M 351.8561096191406 595.4247436523438 C 346.92999267578125 606.67724609375 321.5984191894531 628.7172241210938 323.6550598144531 642.370361328125 C 300.5910949707031 644.1468505859375 286.86749267578125 672.91455078125 277.7366027832031 652.2496337890625 C 300.8003234863281 675.6836547851562 274.13092041015625 676.2040405273438 250.37269592285156 675.5777587890625 C 228.09365844726562 689.8233642578125 244.8885955810547 663.8427734375 270.0878601074219 650.4451293945312" stroke-width="11.80000114440918" fill="none" stroke="rgb(0, 0, 0)" stroke-opacity="0.47299218" stroke-linecap="round" stroke-linejoin="round"/>
    <path d="M 101.42686462402344 424.69293212890625 C 124.86079406738281 423.2716369628906 113.62215423583984 434.8916320800781 107.69672393798828 448.7792663574219 C 115.96917724609375 430.1416015625 97.03378295898438 451.38287353515625 71.96090698242188 462.5285339355469 C 96.61404418945312 461.9295349121094 67.67253875732422 447.73724365234375 69.28923034667969 447.5969543457031 C 80.64300537109375 464.1240234375 53.8720703125 453.3451843261719 72.8082504272461 464.60980224609375" stroke-width="12.199991226196289" fill="none" stroke="rgb(0, 0, 0)" stroke-opacity="0.6316841" stroke-linecap="round" stroke-linejoin="round"/>
    <path d="M 11.819777488708496 465.78765869140625 C 23.262556076049805 465.356689453125 29.381866455078125 488.19970703125 50.05479431152344 488.1219787597656 C 31.526931762695312 496.6330261230469 7.881689548492432 524.7401733398438 -20.46295738220215 528.6378784179688 C 5.955820560455322 556.312255859375 10.697148323059082 557.4560546875 36.651580810546875 551.5943603515625 C 46.75496292114258 551.1900024414062 49.17356491088867 581.1621704101562 48.847862243652344 555.5032958984375" stroke-width="11.800004005432129" fill="none" stroke="rgb(0, 0, 0)" stroke-opacity="0.19287053" stroke-linecap="round" stroke-linejoin="round"/>
    <path d="M 117.2959213256836 135.4284210205078 C 144.22314453125 127.09664916992188 135.04837036132812 137.59910583496094 131.2327423095703 128.29786682128906 C 133.49505615234375 127.6221923828125 117.24333190917969 101.36066436767578 120.4222412109375 118.49881744384766 C 147.53208923339844 121.28157043457031 142.34231567382812 150.13192749023438 161.92901611328125 123.35572814941406 C 140.11386108398438 146.49301147460938 138.88282775878906 162.20498657226562 113.48261260986328 183.33111572265625" stroke-width="11.800000190734863" fill="none" stroke="rgb(0, 0, 0)" stroke-opacity="0.92293644" stroke-linecap="round" stroke-linejoin="round"/>
    <path d="M 335.4876403808594 573.1688232421875 C 349.33843994140625 543.6798706054688 354.80499267578125 527.6259765625 372.4097900390625 523.55224609375 C 400.8611145019531 535.2059936523438 414.6778259277344 516.7051391601562 421.2225036621094 500.5805358886719 C 395.03509521484375 480.4816589355469 386.9298095703125 496.3240661621094 412.2332763671875 510.4298400878906 C 389.57537841796875 516.9481201171875 396.71875 514.9500122070312 398.9129638671875 490.7156066894531" stroke-width="11.800002098083496" fill="none" stroke="rgb(0, 0, 0)" stroke-opacity="0.040896237" stroke-linecap="round" stroke-linejoin="round"/>
    <path d="M 98.98606872558594 542.4251098632812 C 97.14392852783203 538.9889526367188 109.17894744873047 536.027587890625 94.3738784790039 551.86767578125 C 80.64022064208984 577.97412109375 73.81169891357422 552.0625610351562 57.26777267456055 565.3768310546875 C 75.32194519042969 546.232177734375 90.4760971069336 560.1643676757812 96.21038818359375 565.3322143554688 C 85.53217315673828 584.65673828125 96.2774429321289 564.2149047851562 81.16873168945312 569.4334106445312" stroke-width="12.19999885559082" fill="none" stroke="rgb(0, 0, 0)" stroke-opacity="0.62181145" stroke-linecap="round" stroke-linejoin="round"/>
    <path d="M 468.41058349609375 196.7816925048828 C 446.7981262207031 202.5323486328125 470.6067199707031 198.14651489257812 453.9476318359375 214.69639587402344 C 454.4259338378906 221.9842529296875 428.8214111328125 215.25039672851562 426.8065185546875 237.40301513671875 C 400.9085998535156 250.0433349609375 371.40740966796875 259.781005859375 345.5127868652344 268.5105285644531 C 319.8935241699219 266.9256896972656 328.1004638671875 255.8146514892578 322.19580078125 241.8532257080078" stroke-width="11.800000190734863" fill="none" stroke="rgb(0, 0, 0)" stroke-opacity="0.77718866" stroke-linecap="round" stroke-linejoin="round"/>
    <path d="M 367.6139831542969 476.13604736328125 C 378.8630676269531 485.4210510253906 362.32769775390625 509.0868835449219 372.804931640625 479.44537353515625 C 374.2800598144531 456.4855041503906 398.3180236816406 444.3819885253906 379.658935546875 464.5282287597656 C 397.0664978027344 440.2795715332031 402.51116943359375 457.3468933105469 386.80450439453125 453.1458740234375 C 415.2010803222656 449.3087463378906 419.3280334472656 459.2068786621094 444.4501037597656 444.685791015625" stroke-width="11.800000190734863" fill="none" stroke="rgb(0, 0, 0)" stroke-opacity="0.5462293" stroke-linecap="round" stroke-linejoin="round"/>
    <path d="M 419.6120300292969 486.1656799316406 C 428.46636962890625 462.696044921875 426.8471374511719 462.92425537109375 414.3692932128906 477.3028564453125 C 420.6609191894531 506.8638000488281 407.18170166015625 514.05078125 417.1478576660156 534.3812255859375 C 389.0597229003906 541.68310546875 383.24639892578125 528.8136596679688 380.9283447265625 519.1259155273438 C 372.1131896972656 541.855224609375 379.7830505371094 546.976806640625 381.7552185058594 521.28125" stroke-width="12.19999885559082" fill="none" stroke="rgb(0, 0, 0)" stroke-opacity="0.3990048" stroke-linecap="round" stroke-linejoin="round"/>
    <path d="M 282.2420349121094 137.00711059570312 C 264.99554443359375 135.56173706054688 246.6197509765625 125.01206970214844 269.70751953125 133.51577758789062 C 258.4632263183594 128.64459228515625 255.7984161376953 131.55081176757812 238.78736877441406 145.44088745117188 C 257.8011779785156 171.8089141845703 256.9932556152344 182.15965270996094 240.7476806640625 207.74172973632812 C 244.58480834960938 214.19146728515625 221.38414001464844 201.4280242919922 201.8380889892578 229.18983459472656" stroke-width="11.800000190734863" fill="none" stroke="rgb(0, 0, 0)" stroke-opacity="0.75181025" stroke-linecap="round" stroke-linejoin="round"/>
    <path d="M 581.4446411132812 310.69659423828125 C 575.830810546875 280.8569030761719 561.3976440429688 260.7327880859375 589.370361328125 276.1619873046875 C 584.7432861328125 266.8461608886719 581.2232666015625 285.7325744628906 583.47705078125 310.30450439453125 C 601.40673828125 306.0622863769531 578.1243896484375 335.4479675292969 595.1360473632812 348.1433410644531 C 616.5407104492188 368.9061279296875 636.105712890625 358.9054870605469 648.2888793945312 383.2889709472656" stroke-width="11.800003051757812" fill="none" stroke="rgb(0, 0, 0)" stroke-opacity="0.5338847" stroke-linecap="round" stroke-linejoin="round"/>
    <path d="M 307.0392150878906 233.3680877685547 C 281.78680419921875 248.3903045654297 294.74554443359375 271.7825622558594 296.9646911621094 257.7585754394531 C 326.8780822753906 279.675537109375 354.20635986328125 279.23486328125 364.1692810058594 253.1636962890625 C 335.7061462402344 256.7652282714844 335.9180908203125 228.51869201660156 361.6205749511719 220.9070281982422 C 346.375 244.17205810546875 322.95703125 226.89749145507812 312.8531799316406 241.36984252929688" stroke-width="11.80000114440918" fill="none" stroke="rgb(0, 0, 0)" stroke-opacity="0.70962626" stroke-linecap="round" stroke-linejoin="round"/>
    <path d="M 386.374267578125 447.46539306640625 C 372.0613708496094 449.92437744140625 382.0832214355469 466.63330078125 356.97601318359375 443.9005432128906 C 344.1921081542969 417.1847229003906 321.5451354980469 442.2101745605469 315.8451232910156 444.9680480957031 C 318.6242980957031 423.98089599609375 330.47930908203125 417.18182373046875 359.6643981933594 395.4646301269531 C 347.3247985839844 376.8375244140625 340.43536376953125 406.40008544921875 313.17279052734375 424.6645202636719" stroke-width="12.199996948242188" fill="none" stroke="rgb(0, 0, 0)" stroke-opacity="0.034315586" stroke-linecap="round" stroke-linejoin="round"/>
    <path d="M 119.35640716552734 322.7462158203125 C 129.1805419921875 316.996826171875 125.22972869873047 326.17877197265625 129.6973419189453 342.7853698730469 C 157.25608825683594 341.24896240234375 180.86720275878906 363.5451354980469 175.7947235107422 382.8121032714844 C 176.7450408935547 406.5299072265625 204.2637176513672 377.826904296875 203.8248748779297 355.12237548828125 C 185.411865234375 337.4942932128906 200.5191650390625 327.5211486816406 173.54022216796875 346.29571533203125" stroke-width="12.199992179870605" fill="none" stroke="rgb(0, 0, 0)" stroke-opacity="0.22403212" stroke-linecap="round" stroke-linejoin="round"/>
    <path d="M 22.06462860107422 569.1162109375 C -7.13450813293457 552.93701171875 -13.80539608001709 558.1827392578125 -17.361522674560547 583.11181640625 C 7.067181587219238 554.3944091796875 29.760133743286133 531.0623168945312 33.38008499145508 552.3805541992188 C 52.648929595947266 546.3076782226562 76.7954330444336 523.823974609375 54.41881561279297 527.55078125 C 55.01374816894531 503.6846618652344 58.74360656738281 511.1734924316406 50.6253662109375 507.9327087402344" stroke-width="11.80000114440918" fill="none" stroke="rgb(0, 0, 0)" stroke-opacity="0.2951526" stroke-linecap="round" stroke-linejoin="round"/>
  </g>
</svg>
