<?xml version="1.0" ?>
<svg xmlns="http://www.w3.org/2000/svg" version="1.1" width="600" height="600">
  <defs/>
  <g>
    <path d="M 16.807401657104492 544.5006713867188 C -4.7721991539001465 556.8510131835938 -12.187267303466797 570.668701171875 -38.09160614013672 563.879150390625 C -28.115596771240234 565.9193725585938 -8.96338176727295 550.8565063476562 -17.49954605102539 558.6535034179688 C -30.16204071044922 581.94921875 -9.4020414352417 552.2144775390625 -11.482616424560547 557.3218383789062 C 9.625974655151367 540.005615234375 -19.94732093811035 558.2728881835938 -31.010618209838867 545.7960815429688" stroke-width="12.0" fill="none" stroke="rgb(0, 0, 0)" stroke-opacity="0.6070756" stroke-linecap="round" stroke-linejoin="round"/>
    <path d="M 208.1058807373047 326.3019104003906 C 212.03173828125 340.053466796875 195.29844665527344 349.01837158203125 215.9097442626953 327.601318359375 C 191.2848358154297 350.6632080078125 208.9429931640625 345.268310546875 221.82550048828125 341.6951904296875 C 228.074951171875 348.4320068359375 226.7517547607422 340.6337585449219 224.8262481689453 351.70538330078125 C 252.53976440429688 335.39215087890625 277.88104248046875 347.6370544433594 284.4613342285156 352.4629821777344" stroke-width="12.0" fill="none" stroke="rgb(0, 0, 0)" stroke-opacity="0.20418307" stroke-linecap="round" stroke-linejoin="round"/>
    <path d="M 131.6516876220703 504.3975524902344 C 111.08375549316406 505.7513732910156 131.05006408691406 484.1408386230469 116.93306732177734 498.06597900390625 C 117.3436508178711 474.0694274902344 90.69242858886719 445.0037536621094 94.00810241699219 450.4911193847656 C 69.18504333496094 421.1850280761719 44.323150634765625 437.917724609375 16.209884643554688 466.966552734375 C 41.74403762817383 452.8432922363281 14.364472389221191 459.1097106933594 -13.14982795715332 465.37677001953125" stroke-width="12.0" fill="none" stroke="rgb(0, 0, 0)" stroke-opacity="0.6031064" stroke-linecap="round" stroke-linejoin="round"/>
    <path d="M 120.55165100097656 238.2569580078125 C 128.2217254638672 232.01919555664062 133.04306030273438 228.1585693359375 127.61080932617188 221.13096618652344 C 131.13414001464844 217.35043334960938 157.42822265625 225.9920654296875 186.5209197998047 251.7702178955078 C 188.63345336914062 278.2236022949219 168.76910400390625 293.38482666015625 160.16221618652344 274.2441101074219 C 165.6934814453125 275.7036437988281 148.57627868652344 286.7128601074219 141.05966186523438 277.50286865234375" stroke-width="12.0" fill="none" stroke="rgb(0, 0, 0)" stroke-opacity="0.36731052" stroke-linecap="round" stroke-linejoin="round"/>
    <path d="M 447.07781982421875 349.0435485839844 C 461.817626953125 363.86798095703125 473.2864074707031 382.97686767578125 459.3183898925781 362.0038757324219 C 469.1405334472656 343.4212951660156 478.0163879394531 318.7890625 505.4292297363281 315.2908020019531 C 499.7816467285156 307.09112548828125 490.7987365722656 328.08795166015625 520.1070556640625 349.8348083496094 C 502.90313720703125 360.9657897949219 512.5734252929688 356.1509094238281 484.74725341796875 376.53228759765625" stroke-width="12.0" fill="none" stroke="rgb(0, 0, 0)" stroke-opacity="0.8108543" stroke-linecap="round" stroke-linejoin="round"/>
    <path d="M 181.25071716308594 368.78558349609375 C 206.92909240722656 396.0821533203125 182.10646057128906 399.2790222167969 163.07415771484375 403.2298889160156 C 137.80938720703125 424.8902282714844 151.01922607421875 417.37322998046875 147.90589904785156 443.4032897949219 C 163.22592163085938 470.6407775878906 138.2572479248047 497.34039306640625 161.89793395996094 496.1394958496094 C 184.9061279296875 505.4229736328125 207.3057403564453 503.2125244140625 190.6216583251953 513.4913330078125" stroke-width="12.0" fill="none" stroke="rgb(0, 0, 0)" stroke-opacity="0.53641844" stroke-linecap="round" stroke-linejoin="round"/>
    <path d="M 202.8329315185547 580.6034545898438 C 209.61325073242188 552.49072265625 204.77310180664062 582.077392578125 223.4976348876953 594.2957153320312 C 229.04010009765625 605.8292846679688 249.016845703125 608.9915771484375 271.7091064453125 610.7073364257812 C 251.20614624023438 583.2035522460938 266.74310302734375 608.738037109375 241.75706481933594 583.5479125976562 C 219.66326904296875 593.4264526367188 206.5977783203125 590.991455078125 233.26113891601562 619.4989624023438" stroke-width="12.0" fill="none" stroke="rgb(0, 0, 0)" stroke-opacity="0.48838192" stroke-linecap="round" stroke-linejoin="round"/>
    <path d="M 408.7155456542969 511.56072998046875 C 414.92535400390625 513.2162475585938 433.2148742675781 531.1480712890625 407.7161865234375 510.2188720703125 C 383.2497863769531 491.8002624511719 389.1893005371094 514.4683837890625 367.440185546875 516.3074951171875 C 381.3125 490.37109375 380.6441955566406 502.4801330566406 398.7970275878906 497.8729248046875 C 377.49688720703125 502.81463623046875 355.2243957519531 485.02203369140625 355.35089111328125 462.79827880859375" stroke-width="12.0" fill="none" stroke="rgb(0, 0, 0)" stroke-opacity="0.40581328" stroke-linecap="round" stroke-linejoin="round"/>
    <path d="M 285.081298828125 63.169715881347656 C 257.7398376464844 76.3883056640625 259.4883117675781 58.236934661865234 231.96792602539062 46.20482635498047 C 250.3810577392578 68.89599609375 245.0080108642578 59.30866241455078 225.49383544921875 69.23291778564453 C 233.14431762695312 45.55360412597656 218.43515014648438 33.19285583496094 246.2464141845703 60.38059997558594 C 254.83311462402344 77.52747344970703 251.40321350097656 96.50189208984375 250.2261962890625 125.185546875" stroke-width="12.0" fill="none" stroke="rgb(0, 0, 0)" stroke-opacity="0.0999875" stroke-linecap="round" stroke-linejoin="round"/>
    <path d="M 144.6329803466797 220.5224609375 C 122.65351104736328 216.81581115722656 103.54144287109375 208.85031127929688 115.60100555419922 220.1763916015625 C 102.18892669677734 233.2757110595703 94.01795959472656 230.84603881835938 104.14717102050781 250.71092224121094 C 121.32096099853516 230.61692810058594 109.89444732666016 244.56402587890625 92.80989837646484 245.21641540527344 C 102.19847869873047 251.57582092285156 122.5372314453125 261.5937805175781 139.8172607421875 281.93170166015625" stroke-width="12.0" fill="none" stroke="rgb(0, 0, 0)" stroke-opacity="0.020919817" stroke-linecap="round" stroke-linejoin="round"/>
    <path d="M 388.06646728515625 252.73068237304688 C 389.01153564453125 244.72396850585938 379.45758056640625 266.1460266113281 363.102783203125 245.4877471923828 C 389.4804992675781 260.4700012207031 391.2763977050781 284.3514404296875 417.1387939453125 295.1528625488281 C 442.20654296875 320.0397033691406 434.0172424316406 348.54705810546875 428.8999328613281 371.0438537597656 C 434.54083251953125 351.77044677734375 458.5523376464844 359.79364013671875 473.1932067871094 336.7032165527344" stroke-width="12.0" fill="none" stroke="rgb(0, 0, 0)" stroke-opacity="0.6476714" stroke-linecap="round" stroke-linejoin="round"/>
    <path d="M 216.78347778320312 476.21044921875 C 233.07164001464844 488.03680419921875 210.74969482421875 464.752197265625 202.46170043945312 437.5345458984375 C 216.38507080078125 430.5650634765625 197.53591918945312 455.3105163574219 167.69764709472656 484.4106750488281 C 161.35401916503906 513.2446899414062 183.29432678222656 535.1270141601562 174.0279998779297 550.3682250976562 C 182.29124450683594 547.4048461914062 186.9829559326172 519.2321166992188 180.0968017578125 501.37939453125" stroke-width="12.0" fill="none" stroke="rgb(0, 0, 0)" stroke-opacity="0.6792862" stroke-linecap="round" stroke-linejoin="round"/>
    <path d="M 101.06343841552734 43.968536376953125 C 120.92718505859375 63.873661041259766 114.74832916259766 36.19246292114258 100.40484619140625 35.32413101196289 C 73.45862579345703 38.95901870727539 62.10830307006836 41.599021911621094 37.788055419921875 71.18158721923828 C 43.88801574707031 46.26901626586914 73.20856475830078 31.645122528076172 47.368778228759766 47.24480056762695 C 60.64438247680664 70.8927993774414 48.543540954589844 69.59269714355469 39.87965393066406 87.26811981201172" stroke-width="12.0" fill="none" stroke="rgb(0, 0, 0)" stroke-opacity="0.46085218" stroke-linecap="round" stroke-linejoin="round"/>
    <path d="M 304.58013916015625 528.5113525390625 C 278.9046630859375 515.4737548828125 267.3266296386719 538.772705078125 247.92697143554688 554.1776733398438 C 258.6660461425781 559.3320922851562 286.580810546875 574.4304809570312 285.86260986328125 565.0025634765625 C 305.79425048828125 538.8040161132812 316.7458801269531 516.0147094726562 315.5361022949219 521.0962524414062 C 301.0739440917969 529.577880859375 308.5400085449219 500.64678955078125 280.66265869140625 520.81640625" stroke-width="12.0" fill="none" stroke="rgb(0, 0, 0)" stroke-opacity="0.61085325" stroke-linecap="round" stroke-linejoin="round"/>
    <path d="M 512.0994873046875 316.6383972167969 C 493.27642822265625 320.0146789550781 514.5820922851562 322.0628967285156 499.7967224121094 300.7693786621094 C 478.4737854003906 287.47467041015625 483.17041015625 282.7325439453125 482.441650390625 279.6507873535156 C 481.3263854980469 269.9994201660156 497.2832946777344 254.0125274658203 511.4312438964844 251.48590087890625 C 507.1113586425781 246.4505157470703 506.378173828125 218.63674926757812 522.2017822265625 192.90196228027344" stroke-width="12.0" fill="none" stroke="rgb(0, 0, 0)" stroke-opacity="0.17800839" stroke-linecap="round" stroke-linejoin="round"/>
    <path d="M 183.1382598876953 225.1610107421875 C 199.28399658203125 249.55442810058594 185.11119079589844 265.3382568359375 167.669921875 282.24029541015625 C 160.45245361328125 285.5848388671875 166.8465118408203 263.4266357421875 169.50985717773438 272.23638916015625 C 140.97386169433594 284.13299560546875 149.22860717773438 273.47076416015625 165.17791748046875 255.6848602294922 C 169.16650390625 247.15542602539062 198.51480102539062 237.74789428710938 213.1705780029297 223.82736206054688" stroke-width="12.0" fill="none" stroke="rgb(0, 0, 0)" stroke-opacity="0.88007015" stroke-linecap="round" stroke-linejoin="round"/>
    <path d="M 383.1519470214844 257.77484130859375 C 383.8418884277344 282.6112976074219 363.1343994140625 270.8205261230469 348.7396240234375 250.18618774414062 C 342.3072814941406 242.32420349121094 365.58270263671875 225.484619140625 393.644287109375 197.03167724609375 C 394.8942565917969 177.21072387695312 394.7580871582031 166.44227600097656 390.6981201171875 164.47227478027344 C 399.1944274902344 158.99688720703125 418.7393798828125 140.05328369140625 394.4411926269531 123.47671508789062" stroke-width="12.0" fill="none" stroke="rgb(0, 0, 0)" stroke-opacity="0.84112215" stroke-linecap="round" stroke-linejoin="round"/>
    <path d="M 197.5410614013672 106.52314758300781 C 177.45907592773438 122.28837585449219 165.34739685058594 97.55789947509766 162.41468811035156 77.71795654296875 C 161.5216064453125 55.89196014404297 151.66819763183594 44.79070281982422 138.29673767089844 34.67344284057617 C 147.13809204101562 28.69478416442871 133.14068603515625 15.633407592773438 118.18965148925781 36.874446868896484 C 112.07879638671875 12.006322860717773 141.6639862060547 -13.650612831115723 158.12124633789062 -19.32173728942871" stroke-width="12.0" fill="none" stroke="rgb(0, 0, 0)" stroke-opacity="0.5554576" stroke-linecap="round" stroke-linejoin="round"/>
    <path d="M 70.78437042236328 465.3074645996094 C 69.6763687133789 458.29827880859375 46.19344711303711 455.4288024902344 49.6962776184082 454.3485107421875 C 79.26979064941406 461.263916015625 87.31803894042969 462.6305847167969 78.15827178955078 457.0329284667969 C 58.99995803833008 443.0150146484375 50.017059326171875 449.2718811035156 52.0236930847168 473.8828430175781 C 29.45096206665039 492.6011657714844 1.0669423341751099 517.2520751953125 -9.31285572052002 529.8056640625" stroke-width="12.0" fill="none" stroke="rgb(0, 0, 0)" stroke-opacity="0.9165614" stroke-linecap="round" stroke-linejoin="round"/>
    <path d="M 14.76425838470459 591.7348022460938 C -13.832368850708008 588.1898193359375 4.983974456787109 600.7805786132812 6.752377986907959 625.5136108398438 C -1.5881261825561523 649.9041748046875 -18.125568389892578 636.961181640625 8.031023979187012 625.4773559570312 C 13.141180038452148 616.8768310546875 -3.372469425201416 641.3223876953125 -2.2221357822418213 617.551025390625 C -27.96575355529785 626.0904541015625 -51.403141021728516 615.6674194335938 -71.75810241699219 621.4166259765625" stroke-width="12.0" fill="none" stroke="rgb(0, 0, 0)" stroke-opacity="0.44808662" stroke-linecap="round" stroke-linejoin="round"/>
    <path d="M 511.9488830566406 371.9720764160156 C 487.86309814453125 358.0057678222656 509.81451416015625 336.8786926269531 487.3703308105469 328.6408386230469 C 495.7425842285156 301.51953125 523.89111328125 299.1472473144531 516.3053588867188 283.53607177734375 C 541.459228515625 297.9646911621094 518.6123657226562 321.2591247558594 501.5557861328125 345.1850280761719 C 491.06292724609375 369.57568359375 479.66253662109375 379.3815612792969 478.3655090332031 354.96136474609375" stroke-width="12.0" fill="none" stroke="rgb(0, 0, 0)" stroke-opacity="0.465154" stroke-linecap="round" stroke-linejoin="round"/>
    <path d="M 98.728271484375 592.3397216796875 C 83.4457015991211 599.9710693359375 75.11582946777344 570.0244140625 77.92511749267578 549.181884765625 C 90.85015106201172 565.7091064453125 102.42088317871094 588.3045654296875 131.61746215820312 562.624267578125 C 122.88941955566406 571.5059204101562 118.57677459716797 559.5079956054688 113.61729431152344 562.9268798828125 C 118.58110046386719 544.0658569335938 142.1056365966797 524.5728759765625 164.16380310058594 505.9634704589844" stroke-width="12.0" fill="none" stroke="rgb(0, 0, 0)" stroke-opacity="0.2572822" stroke-linecap="round" stroke-linejoin="round"/>
    <path d="M 387.1734313964844 214.77317810058594 C 415.6116943359375 228.88406372070312 440.88287353515625 209.48573303222656 434.04254150390625 182.84426879882812 C 447.905517578125 183.73558044433594 439.78228759765625 173.34481811523438 460.0500793457031 152.9654998779297 C 441.326171875 160.3043975830078 414.5140380859375 145.88092041015625 441.5007629394531 133.0377655029297 C 440.0921630859375 123.08804321289062 424.1236267089844 141.12954711914062 441.505615234375 163.64295959472656" stroke-width="12.0" fill="none" stroke="rgb(0, 0, 0)" stroke-opacity="0.4816657" stroke-linecap="round" stroke-linejoin="round"/>
    <path d="M 59.50190734863281 584.0196533203125 C 59.59953308105469 609.2116088867188 63.4556884765625 596.00390625 74.03597259521484 568.4090576171875 C 103.6747817993164 554.2979736328125 83.69767761230469 573.212158203125 59.04576873779297 546.5068359375 C 58.370059967041016 549.2744140625 60.27978515625 562.8008422851562 82.59060668945312 548.3466796875 C 81.43964385986328 548.0369262695312 67.39615631103516 554.8999633789062 55.161659240722656 555.7464599609375" stroke-width="12.0" fill="none" stroke="rgb(0, 0, 0)" stroke-opacity="0.9255634" stroke-linecap="round" stroke-linejoin="round"/>
    <path d="M 415.93194580078125 428.72930908203125 C 399.20263671875 406.3349609375 382.3439025878906 430.2059631347656 404.7068176269531 402.2486267089844 C 380.3417663574219 419.73828125 354.032470703125 400.21783447265625 380.8533020019531 411.368408203125 C 410.01702880859375 397.6225280761719 429.5323486328125 389.4491882324219 456.7295837402344 408.016845703125 C 475.2297058105469 392.0237731933594 496.5277404785156 376.2278747558594 508.7162780761719 404.8771667480469" stroke-width="12.0" fill="none" stroke="rgb(0, 0, 0)" stroke-opacity="0.53336036" stroke-linecap="round" stroke-linejoin="round"/>
    <path d="M 279.19281005859375 522.798828125 C 259.56231689453125 512.3369140625 257.8699035644531 526.322021484375 266.4294128417969 512.5247802734375 C 284.5552978515625 484.6284484863281 274.649658203125 462.3161926269531 294.955810546875 437.77752685546875 C 311.65545654296875 462.52935791015625 286.6213073730469 447.8162536621094 283.4333190917969 447.0467224121094 C 301.4486083984375 417.556396484375 287.8728332519531 394.5412902832031 270.2358703613281 396.8346862792969" stroke-width="12.0" fill="none" stroke="rgb(0, 0, 0)" stroke-opacity="0.40038964" stroke-linecap="round" stroke-linejoin="round"/>
    <path d="M 32.97051239013672 111.71177673339844 C 16.584796905517578 109.7498779296875 18.70448875427246 102.17557525634766 47.11688232421875 83.4769287109375 C 48.357975006103516 110.18660736083984 73.66314697265625 100.54212951660156 97.17496490478516 76.77571105957031 C 91.98751831054688 63.01744079589844 68.57260131835938 85.89060974121094 61.93614196777344 112.78511047363281 C 69.14891052246094 135.6446990966797 53.3923225402832 162.12606811523438 47.92588424682617 150.46377563476562" stroke-width="12.0" fill="none" stroke="rgb(0, 0, 0)" stroke-opacity="0.52668333" stroke-linecap="round" stroke-linejoin="round"/>
    <path d="M 193.6048126220703 492.53448486328125 C 167.1955108642578 499.36773681640625 174.49169921875 488.1015930175781 195.9512481689453 458.181396484375 C 185.27342224121094 458.3570861816406 199.5325469970703 459.05767822265625 181.77740478515625 447.8562316894531 C 186.93458557128906 450.79766845703125 171.07339477539062 434.7322998046875 165.00039672851562 464.29559326171875 C 167.675537109375 458.65472412109375 161.18284606933594 471.8199462890625 152.321044921875 444.6047058105469" stroke-width="12.0" fill="none" stroke="rgb(0, 0, 0)" stroke-opacity="0.51018226" stroke-linecap="round" stroke-linejoin="round"/>
    <path d="M 170.28172302246094 28.449060440063477 C 179.61138916015625 43.63190841674805 153.55935668945312 19.078067779541016 181.62042236328125 -1.6631525754928589 C 175.70640563964844 -16.341276168823242 150.00552368164062 -37.211029052734375 176.14578247070312 -65.55718231201172 C 170.04725646972656 -76.90330505371094 195.07533264160156 -54.94234848022461 185.33041381835938 -53.14402770996094 C 189.4412078857422 -26.979183197021484 170.83413696289062 -46.75728988647461 153.5150909423828 -20.450477600097656" stroke-width="12.0" fill="none" stroke="rgb(0, 0, 0)" stroke-opacity="0.6731918" stroke-linecap="round" stroke-linejoin="round"/>
    <path d="M 436.5099182128906 59.47237014770508 C 450.4696044921875 41.22711181640625 463.4411315917969 68.57173156738281 482.42230224609375 42.52658462524414 C 461.2168884277344 33.31162643432617 455.8365173339844 11.653605461120605 463.0968933105469 1.2100285291671753 C 466.03106689453125 -19.97133445739746 448.5491638183594 -36.95815658569336 452.25238037109375 -57.7629280090332 C 431.1419677734375 -66.86453247070312 424.45562744140625 -48.001834869384766 437.0294189453125 -54.206600189208984" stroke-width="12.0" fill="none" stroke="rgb(0, 0, 0)" stroke-opacity="0.5648079" stroke-linecap="round" stroke-linejoin="round"/>
    <path d="M 163.76792907714844 225.34735107421875 C 151.81948852539062 221.36126708984375 170.18310546875 197.96533203125 152.71824645996094 225.92831420898438 C 152.45359802246094 208.1299591064453 124.53500366210938 211.9147491455078 114.0684814453125 189.43508911132812 C 130.440185546875 188.8665313720703 110.06063842773438 194.85760498046875 115.84225463867188 192.4689483642578 C 118.82456970214844 179.03952026367188 95.71543884277344 185.57423400878906 94.59857177734375 192.78079223632812" stroke-width="12.0" fill="none" stroke="rgb(0, 0, 0)" stroke-opacity="0.48534253" stroke-linecap="round" stroke-linejoin="round"/>
    <path d="M 265.05133056640625 335.1410827636719 C 263.3628845214844 312.0479431152344 291.8636169433594 322.71905517578125 319.7076416015625 328.9302673339844 C 321.1954345703125 308.6734619140625 296.49609375 279.27294921875 274.7975769042969 308.6741638183594 C 266.3329772949219 318.38751220703125 274.2132263183594 330.452392578125 283.91217041015625 347.9930419921875 C 272.4380187988281 336.029052734375 266.3184509277344 365.28106689453125 276.4764709472656 356.3157043457031" stroke-width="12.0" fill="none" stroke="rgb(0, 0, 0)" stroke-opacity="0.98804426" stroke-linecap="round" stroke-linejoin="round"/>
    <path d="M 588.775146484375 520.8411865234375 C 575.743408203125 523.1920166015625 554.9091796875 505.20941162109375 560.2472534179688 482.906982421875 C 558.656982421875 487.8932189941406 532.1287231445312 514.4983520507812 524.4420166015625 509.9960021972656 C 505.9903259277344 486.1474609375 481.31414794921875 511.06964111328125 453.2339172363281 536.7828369140625 C 442.3839111328125 554.3579711914062 457.7001953125 584.0579223632812 473.8565673828125 557.1035766601562" stroke-width="12.0" fill="none" stroke="rgb(0, 0, 0)" stroke-opacity="0.80492026" stroke-linecap="round" stroke-linejoin="round"/>
    <path d="M 53.06696319580078 444.5402526855469 C 72.08020782470703 462.18511962890625 76.47430419921875 436.87078857421875 72.65919494628906 438.88116455078125 C 76.86670684814453 428.24456787109375 94.14118194580078 410.7030334472656 123.47342681884766 406.7563171386719 C 149.50741577148438 433.8304138183594 126.85604858398438 440.927490234375 124.6424789428711 462.70623779296875 C 142.7498321533203 468.9311828613281 154.9720458984375 445.4406433105469 141.4316864013672 436.216552734375" stroke-width="12.0" fill="none" stroke="rgb(0, 0, 0)" stroke-opacity="0.42095694" stroke-linecap="round" stroke-linejoin="round"/>
    <path d="M 290.1292724609375 9.747771263122559 C 306.3647155761719 1.5057604312896729 323.0785217285156 -9.162362098693848 316.04974365234375 -15.1431303024292 C 290.5207214355469 4.682304382324219 311.37744140625 29.390974044799805 304.0017395019531 35.007015228271484 C 331.7242431640625 30.93150520324707 335.4792175292969 50.928897857666016 319.4328918457031 61.8449592590332 C 317.77130126953125 62.966278076171875 319.3610534667969 71.20709991455078 314.16339111328125 88.59677124023438" stroke-width="12.0" fill="none" stroke="rgb(0, 0, 0)" stroke-opacity="0.6754399" stroke-linecap="round" stroke-linejoin="round"/>
    <path d="M 125.93736267089844 62.631282806396484 C 142.9889678955078 64.26576232910156 150.886474609375 58.08916091918945 150.0323486328125 50.18828201293945 C 170.1452178955078 50.96805191040039 157.38153076171875 78.24067687988281 164.2331085205078 75.47138977050781 C 184.5332794189453 100.22710418701172 162.58346557617188 84.80030059814453 181.14474487304688 98.98812103271484 C 194.74940490722656 102.31680297851562 165.31394958496094 114.50792694091797 152.74600219726562 120.23224639892578" stroke-width="12.0" fill="none" stroke="rgb(0, 0, 0)" stroke-opacity="0.35844103" stroke-linecap="round" stroke-linejoin="round"/>
    <path d="M 23.657487869262695 22.369407653808594 C -0.009138502180576324 4.650533676147461 2.5742952823638916 -21.24178695678711 -2.3853304386138916 -28.31724739074707 C -2.6392855644226074 -16.398345947265625 27.321550369262695 -7.152215480804443 9.544936180114746 -8.035632133483887 C 19.98178482055664 4.344832897186279 19.690231323242188 3.2112720012664795 13.093688011169434 -23.605478286743164 C -3.4709770679473877 -4.937067985534668 -32.24992752075195 18.980100631713867 -54.84534454345703 9.101228713989258" stroke-width="12.0" fill="none" stroke="rgb(0, 0, 0)" stroke-opacity="0.83416176" stroke-linecap="round" stroke-linejoin="round"/>
    <path d="M 520.676025390625 517.6301879882812 C 510.3376770019531 498.79071044921875 504.814453125 481.47100830078125 487.87176513671875 482.8206787109375 C 479.14141845703125 471.632080078125 464.5733947753906 452.256103515625 468.9521179199219 451.9891052246094 C 475.5748291015625 448.6559143066406 496.76971435546875 457.8760070800781 493.7786560058594 471.6759338378906 C 484.2704772949219 474.63055419921875 476.8087463378906 449.1407165527344 482.3861083984375 459.7281188964844" stroke-width="12.0" fill="none" stroke="rgb(0, 0, 0)" stroke-opacity="0.12329466" stroke-linecap="round" stroke-linejoin="round"/>
    <path d="M 228.91151428222656 288.6421203613281 C 207.69198608398438 300.42742919921875 226.37779235839844 282.0608825683594 241.5105743408203 289.1217346191406 C 255.34735107421875 284.5444030761719 276.3387756347656 300.40972900390625 271.32476806640625 303.4735107421875 C 252.1510009765625 308.0033264160156 231.96768188476562 292.2973327636719 259.14422607421875 300.3030090332031 C 265.7041931152344 317.3746643066406 259.9353332519531 314.61724853515625 283.7653503417969 309.96246337890625" stroke-width="12.0" fill="none" stroke="rgb(0, 0, 0)" stroke-opacity="0.19570737" stroke-linecap="round" stroke-linejoin="round"/>
    <path d="M 399.74871826171875 582.0261840820312 C 422.49322509765625 597.39404296875 432.4718017578125 579.2730102539062 417.5389099121094 605.7435302734375 C 422.1746520996094 632.7997436523438 401.65008544921875 622.0076293945312 391.41546630859375 619.9360961914062 C 374.2757263183594 620.7376708984375 362.00701904296875 606.4963989257812 388.03851318359375 621.0973510742188 C 405.27581787109375 603.7325439453125 401.81170654296875 616.6220703125 378.57867431640625 620.587158203125" stroke-width="12.0" fill="none" stroke="rgb(0, 0, 0)" stroke-opacity="0.75202084" stroke-linecap="round" stroke-linejoin="round"/>
    <path d="M 3.255491018295288 393.714599609375 C -22.591386795043945 367.6108093261719 -49.96542739868164 349.1561584472656 -67.41980743408203 340.9327392578125 C -62.827781677246094 323.98675537109375 -43.642635345458984 344.3141784667969 -14.00140380859375 364.7587585449219 C 8.423591613769531 343.7459716796875 -1.4259783029556274 332.8725891113281 -16.289480209350586 331.45343017578125 C -15.994172096252441 331.3334655761719 -32.16349411010742 337.50360107421875 -17.63820457458496 355.80938720703125" stroke-width="12.0" fill="none" stroke="rgb(0, 0, 0)" stroke-opacity="0.24983555" stroke-linecap="round" stroke-linejoin="round"/>
    <path d="M 546.8883056640625 205.07875061035156 C 519.9576416015625 199.3479766845703 507.6795349121094 210.8565673828125 525.5590209960938 226.4898223876953 C 511.33349609375 255.0374298095703 481.77362060546875 275.5204162597656 459.1448974609375 247.21420288085938 C 466.2145690917969 226.16127014160156 467.5375061035156 221.29159545898438 462.60418701171875 226.52789306640625 C 433.10137939453125 233.00672912597656 424.0132141113281 215.065185546875 429.64141845703125 240.73431396484375" stroke-width="12.0" fill="none" stroke="rgb(0, 0, 0)" stroke-opacity="0.52900404" stroke-linecap="round" stroke-linejoin="round"/>
    <path d="M 23.259578704833984 376.8546447753906 C 45.63295364379883 369.8926086425781 53.73466491699219 385.10931396484375 77.21398162841797 412.1930847167969 C 88.86346435546875 437.855712890625 63.74294662475586 440.3388977050781 50.685279846191406 427.8565368652344 C 35.63650894165039 398.3675842285156 41.73286819458008 379.342041015625 56.79570388793945 398.9445495605469 C 66.65270233154297 379.2210388183594 62.29116439819336 351.5731506347656 48.02019119262695 356.176513671875" stroke-width="12.0" fill="none" stroke="rgb(0, 0, 0)" stroke-opacity="0.2571465" stroke-linecap="round" stroke-linejoin="round"/>
    <path d="M 75.93806457519531 380.0977783203125 C 63.20165252685547 370.6748352050781 63.17639923095703 355.32275390625 64.231201171875 379.6957702636719 C 91.61217498779297 397.3598327636719 90.26080322265625 382.7667236328125 61.03876495361328 387.55584716796875 C 56.47682189941406 370.44720458984375 32.1996955871582 384.25482177734375 54.325958251953125 391.74078369140625 C 53.433902740478516 375.0589294433594 76.1970443725586 383.42974853515625 94.50130462646484 372.36187744140625" stroke-width="12.0" fill="none" stroke="rgb(0, 0, 0)" stroke-opacity="0.16033547" stroke-linecap="round" stroke-linejoin="round"/>
    <path d="M 78.9742202758789 176.26234436035156 C 107.03306579589844 155.75189208984375 118.37504577636719 135.45545959472656 101.63519287109375 152.61924743652344 C 106.63236236572266 157.68846130371094 121.75054931640625 155.44065856933594 135.21856689453125 135.16355895996094 C 159.12127685546875 159.30062866210938 131.60385131835938 174.99563598632812 151.9212646484375 199.0927276611328 C 167.7156982421875 199.71067810058594 144.42926025390625 203.5740966796875 172.79473876953125 219.75839233398438" stroke-width="12.0" fill="none" stroke="rgb(0, 0, 0)" stroke-opacity="0.49718374" stroke-linecap="round" stroke-linejoin="round"/>
    <path d="M 223.980712890625 141.0370330810547 C 227.42343139648438 125.4127197265625 217.0380401611328 128.77481079101562 223.26995849609375 100.46233367919922 C 194.34295654296875 87.27778625488281 183.84945678710938 75.44912719726562 164.9215087890625 94.13558197021484 C 147.97206115722656 116.27535247802734 177.38043212890625 90.63672637939453 185.677978515625 110.89885711669922 C 203.32579040527344 86.82917022705078 177.17999267578125 89.71903228759766 200.17196655273438 109.28302764892578" stroke-width="12.0" fill="none" stroke="rgb(0, 0, 0)" stroke-opacity="0.7036329" stroke-linecap="round" stroke-linejoin="round"/>
    <path d="M 71.3941650390625 527.781005859375 C 93.57230377197266 544.5493774414062 88.47135925292969 532.0206909179688 69.75376892089844 514.2920532226562 C 40.9456672668457 510.9455871582031 68.64888763427734 529.8170166015625 61.602638244628906 545.2501220703125 C 86.1697769165039 522.3563842773438 80.8964614868164 538.313232421875 64.9436264038086 528.0608520507812 C 88.7630615234375 557.6078491210938 63.16533279418945 587.5833129882812 43.47477340698242 607.0106201171875" stroke-width="12.0" fill="none" stroke="rgb(0, 0, 0)" stroke-opacity="0.6971275" stroke-linecap="round" stroke-linejoin="round"/>
    <path d="M 13.124191284179688 567.1569213867188 C 42.2952995300293 544.88330078125 62.096961975097656 569.1373291015625 64.15059661865234 545.5736694335938 C 54.51805877685547 531.092041015625 56.12455368041992 517.1357421875 78.91940307617188 500.8777770996094 C 79.56832122802734 526.8062133789062 66.65299987792969 552.285888671875 83.23234558105469 526.4506225585938 C 83.17107391357422 505.6197204589844 95.64366912841797 488.8289794921875 117.14028930664062 500.5826416015625" stroke-width="12.0" fill="none" stroke="rgb(0, 0, 0)" stroke-opacity="0.41177568" stroke-linecap="round" stroke-linejoin="round"/>
    <path d="M 157.91847229003906 190.62362670898438 C 168.41802978515625 180.65992736816406 161.27667236328125 198.9923553466797 177.8886260986328 212.99261474609375 C 163.11212158203125 217.91680908203125 159.37274169921875 229.8179931640625 147.3642578125 236.7200927734375 C 172.32992553710938 245.9894256591797 178.97412109375 259.68450927734375 191.32745361328125 250.0717010498047 C 216.4224395751953 257.0957336425781 190.03973388671875 286.4118347167969 179.2797088623047 301.33038330078125" stroke-width="12.0" fill="none" stroke="rgb(0, 0, 0)" stroke-opacity="0.3646241" stroke-linecap="round" stroke-linejoin="round"/>
    <path d="M 418.80511474609375 364.72137451171875 C 417.0530700683594 392.5203552246094 425.63623046875 414.7689208984375 443.95843505859375 406.1537170410156 C 435.3840026855469 435.13934326171875 438.2745056152344 429.14825439453125 437.5173645019531 441.6922302246094 C 442.40679931640625 467.1201171875 442.0993957519531 461.1589050292969 413.2038879394531 486.83367919921875 C 421.70098876953125 505.3568115234375 412.15777587890625 509.15875244140625 391.39654541015625 526.2583618164062" stroke-width="12.0" fill="none" stroke="rgb(0, 0, 0)" stroke-opacity="0.30717522" stroke-linecap="round" stroke-linejoin="round"/>
    <path d="M 431.7730407714844 536.451904296875 C 453.1165771484375 535.4054565429688 446.48956298828125 538.5760498046875 448.39129638671875 538.4732666015625 C 421.712890625 562.5167236328125 412.6874694824219 547.6879272460938 416.2430725097656 576.4573364257812 C 405.7817687988281 554.2694702148438 389.65704345703125 576.921630859375 364.569580078125 557.7015380859375 C 353.5172119140625 562.955322265625 325.47198486328125 583.2388916015625 355.0433349609375 603.9088745117188" stroke-width="12.0" fill="none" stroke="rgb(0, 0, 0)" stroke-opacity="0.78081715" stroke-linecap="round" stroke-linejoin="round"/>
    <path d="M 251.75418090820312 113.14397430419922 C 260.0849304199219 116.89614868164062 277.5730895996094 114.76185607910156 279.235595703125 119.4178695678711 C 258.05908203125 103.21981811523438 238.83787536621094 131.66636657714844 236.12362670898438 161.4479522705078 C 220.25216674804688 148.684326171875 247.78012084960938 146.10986328125 267.82196044921875 118.54275512695312 C 293.0086364746094 119.57398986816406 300.4579162597656 131.21548461914062 278.8616943359375 145.03675842285156" stroke-width="12.0" fill="none" stroke="rgb(0, 0, 0)" stroke-opacity="0.1738725" stroke-linecap="round" stroke-linejoin="round"/>
    <path d="M 221.46505737304688 338.78692626953125 C 225.8650665283203 332.1190490722656 200.7432861328125 346.3697509765625 177.21224975585938 363.5835266113281 C 169.53338623046875 353.7224426269531 177.94461059570312 379.09466552734375 177.9275360107422 378.1831970214844 C 191.65333557128906 390.0821533203125 186.76084899902344 396.5871276855469 169.56277465820312 375.35845947265625 C 191.26605224609375 381.5402526855469 219.9296112060547 403.7713317871094 213.5008087158203 379.2100524902344" stroke-width="12.0" fill="none" stroke="rgb(0, 0, 0)" stroke-opacity="0.7282811" stroke-linecap="round" stroke-linejoin="round"/>
    <path d="M 308.4625549316406 50.05501937866211 C 282.7843933105469 76.71746826171875 262.3809509277344 51.89801788330078 234.3551025390625 75.03009796142578 C 239.92298889160156 80.43798828125 218.95362854003906 92.44952392578125 202.0428009033203 94.13233947753906 C 224.84523010253906 113.6779556274414 246.04364013671875 121.72134399414062 235.01080322265625 113.23949432373047 C 212.25689697265625 111.79109191894531 205.57322692871094 122.56716918945312 213.2589874267578 95.14286041259766" stroke-width="12.0" fill="none" stroke="rgb(0, 0, 0)" stroke-opacity="0.5947549" stroke-linecap="round" stroke-linejoin="round"/>
    <path d="M 490.4716796875 571.62060546875 C 479.2994384765625 546.1270751953125 475.4183654785156 555.4932250976562 476.6239929199219 540.3798828125 C 472.36865234375 568.8372192382812 444.2720031738281 568.7633056640625 438.93084716796875 554.66943359375 C 450.1302795410156 556.2376708984375 441.6460266113281 561.4735107421875 435.79022216796875 586.8058471679688 C 463.9305419921875 579.7894287109375 492.001220703125 552.1008911132812 473.78961181640625 546.4129028320312" stroke-width="12.0" fill="none" stroke="rgb(0, 0, 0)" stroke-opacity="0.20487556" stroke-linecap="round" stroke-linejoin="round"/>
    <path d="M 293.2797546386719 265.21917724609375 C 298.8171081542969 266.72357177734375 303.4194641113281 252.89930725097656 317.75323486328125 237.0473175048828 C 292.7124328613281 266.0879821777344 313.7939147949219 284.0601806640625 306.49517822265625 282.3377990722656 C 300.1330261230469 286.8041076660156 305.4110107421875 308.228271484375 305.6498107910156 320.43853759765625 C 330.0975646972656 300.2703552246094 335.0965881347656 328.2886962890625 351.26458740234375 344.31256103515625" stroke-width="12.0" fill="none" stroke="rgb(0, 0, 0)" stroke-opacity="0.009696863" stroke-linecap="round" stroke-linejoin="round"/>
    <path d="M 339.7349853515625 346.2899169921875 C 350.16790771484375 372.5659484863281 332.30859375 392.2228088378906 354.95196533203125 379.2959899902344 C 372.0935363769531 404.33563232421875 364.0502624511719 432.375244140625 378.0374450683594 431.0180358886719 C 379.360595703125 439.44329833984375 361.093994140625 457.2103576660156 372.67242431640625 434.5104675292969 C 357.2413330078125 421.84210205078125 327.31085205078125 413.6172790527344 348.5536193847656 394.1711120605469" stroke-width="12.0" fill="none" stroke="rgb(0, 0, 0)" stroke-opacity="0.018125584" stroke-linecap="round" stroke-linejoin="round"/>
    <path d="M 357.1084899902344 383.26776123046875 C 363.92095947265625 391.2525329589844 375.0512390136719 414.6069030761719 353.510498046875 440.0349426269531 C 352.536865234375 413.30511474609375 379.2950439453125 389.57733154296875 400.7310485839844 418.158935546875 C 372.08502197265625 435.5361633300781 393.463134765625 448.2235412597656 413.3908386230469 473.514404296875 C 405.9615478515625 486.4225769042969 401.1467590332031 481.717041015625 404.0912170410156 501.9418640136719" stroke-width="12.0" fill="none" stroke="rgb(0, 0, 0)" stroke-opacity="0.59357405" stroke-linecap="round" stroke-linejoin="round"/>
    <path d="M 454.2232971191406 514.094482421875 C 482.57891845703125 510.9838562011719 466.0997009277344 481.1758728027344 492.6964416503906 504.030517578125 C 522.092041015625 516.4235229492188 531.2867431640625 511.5298156738281 504.4984436035156 488.5374755859375 C 532.3759155273438 498.1117858886719 541.1558227539062 515.7876586914062 567.40380859375 506.6064758300781 C 571.2874755859375 521.3812866210938 576.0363159179688 504.97662353515625 595.8538208007812 516.1329345703125" stroke-width="12.0" fill="none" stroke="rgb(0, 0, 0)" stroke-opacity="0.89728904" stroke-linecap="round" stroke-linejoin="round"/>
    <path d="M 216.49554443359375 121.3623046875 C 244.17913818359375 122.65760040283203 222.11721801757812 134.45030212402344 211.7307586669922 131.409423828125 C 235.02578735351562 148.3279266357422 256.7075500488281 118.45674133300781 279.9554748535156 96.38343811035156 C 307.6654968261719 71.2986831665039 286.5396423339844 54.768070220947266 291.0073547363281 49.1485481262207 C 287.3478088378906 24.51942253112793 292.0536193847656 3.7533504962921143 307.819580078125 -18.38884735107422" stroke-width="12.0" fill="none" stroke="rgb(0, 0, 0)" stroke-opacity="0.3541687" stroke-linecap="round" stroke-linejoin="round"/>
    <path d="M 424.1893615722656 176.92575073242188 C 431.3571472167969 171.2972869873047 436.72967529296875 191.889404296875 445.03472900390625 186.56431579589844 C 472.2858581542969 209.50904846191406 459.64300537109375 181.40509033203125 481.1436767578125 210.97747802734375 C 452.96124267578125 238.92825317382812 480.75799560546875 217.5909881591797 502.66180419921875 212.90557861328125 C 509.4952697753906 210.11839294433594 509.0934143066406 207.8191680908203 527.7379150390625 212.7238311767578" stroke-width="12.0" fill="none" stroke="rgb(0, 0, 0)" stroke-opacity="0.3607875" stroke-linecap="round" stroke-linejoin="round"/>
    <path d="M 58.47484588623047 15.16573429107666 C 72.79231262207031 17.105295181274414 54.334232330322266 6.742668151855469 57.2663459777832 -3.1145195960998535 C 66.3450927734375 11.683331489562988 71.07896423339844 6.748401641845703 42.71320343017578 27.444297790527344 C 41.52590560913086 47.141334533691406 69.5774154663086 18.86038589477539 69.45272064208984 44.00143051147461 C 48.68779754638672 29.90813636779785 54.580894470214844 16.078353881835938 79.6115493774414 3.1418747901916504" stroke-width="12.0" fill="none" stroke="rgb(0, 0, 0)" stroke-opacity="0.75384766" stroke-linecap="round" stroke-linejoin="round"/>
    <path d="M 461.3653564453125 242.3318634033203 C 462.8780517578125 255.43106079101562 436.7794494628906 266.9007873535156 458.6835632324219 251.37355041503906 C 444.8266906738281 260.0328674316406 474.4300537109375 245.7630157470703 486.0179138183594 231.7153778076172 C 513.527587890625 202.12098693847656 495.87579345703125 188.74623107910156 467.5904846191406 199.8142852783203 C 484.9219055175781 222.722900390625 481.8382263183594 195.450439453125 484.7597351074219 224.67727661132812" stroke-width="12.0" fill="none" stroke="rgb(0, 0, 0)" stroke-opacity="0.397236" stroke-linecap="round" stroke-linejoin="round"/>
    <path d="M 298.2677307128906 23.5682373046875 C 298.2608947753906 46.44901657104492 278.9706115722656 37.58353805541992 298.0750427246094 10.871635437011719 C 278.312744140625 -0.09998341649770737 268.6427307128906 0.9872594475746155 282.25909423828125 16.172103881835938 C 312.2080078125 -5.086334228515625 314.981201171875 -8.153655052185059 308.7528991699219 6.317811965942383 C 326.9242248535156 -5.659102439880371 350.35028076171875 -22.852331161499023 362.3717956542969 -47.4660530090332" stroke-width="12.0" fill="none" stroke="rgb(0, 0, 0)" stroke-opacity="0.9870173" stroke-linecap="round" stroke-linejoin="round"/>
    <path d="M 255.64395141601562 132.41270446777344 C 260.5575256347656 115.87076568603516 260.99200439453125 88.94872283935547 265.20697021484375 90.9820785522461 C 250.25881958007812 61.20503616333008 237.17547607421875 85.14805603027344 240.8343505859375 99.03883361816406 C 226.91452026367188 115.45085144042969 233.98854064941406 95.1353988647461 245.36769104003906 77.50059509277344 C 223.12379455566406 78.84386444091797 242.78285217285156 56.06465148925781 222.59556579589844 68.88270568847656" stroke-width="12.0" fill="none" stroke="rgb(0, 0, 0)" stroke-opacity="0.19725463" stroke-linecap="round" stroke-linejoin="round"/>
    <path d="M 19.335723876953125 522.9881591796875 C 23.68339729309082 514.9509887695312 20.801780700683594 497.22332763671875 3.5060598850250244 507.7716369628906 C 24.980337142944336 509.10284423828125 28.7841796875 510.9645690917969 40.540164947509766 492.17083740234375 C 42.40386962890625 482.5426330566406 26.36234474182129 480.255126953125 7.43349552154541 488.8951416015625 C -1.7084749937057495 518.6187133789062 -16.588361740112305 492.2259521484375 10.186150550842285 499.2538757324219" stroke-width="12.0" fill="none" stroke="rgb(0, 0, 0)" stroke-opacity="0.3697304" stroke-linecap="round" stroke-linejoin="round"/>
    <path d="M 354.561767578125 325.9617004394531 C 381.974365234375 302.5767517089844 408.7658996582031 282.8141784667969 413.6180114746094 256.8352966308594 C 433.3478698730469 263.38037109375 409.1171569824219 280.9774169921875 438.03558349609375 254.25482177734375 C 434.89935302734375 233.9191436767578 415.78668212890625 260.3791198730469 432.49017333984375 249.61001586914062 C 411.3399353027344 239.87982177734375 424.65411376953125 228.1067657470703 422.2950439453125 208.36009216308594" stroke-width="12.0" fill="none" stroke="rgb(0, 0, 0)" stroke-opacity="0.08259611" stroke-linecap="round" stroke-linejoin="round"/>
    <path d="M 62.121826171875 165.59405517578125 C 53.3974723815918 193.89175415039062 62.01361083984375 196.99705505371094 47.52777862548828 225.00729370117188 C 50.34501266479492 210.1894989013672 62.231483459472656 184.0005645751953 73.95381927490234 213.647216796875 C 66.94158172607422 207.29364013671875 85.3977279663086 230.1441192626953 108.8989486694336 200.61863708496094 C 122.55226135253906 190.05615234375 123.99329376220703 172.76246643066406 95.33927154541016 146.43133544921875" stroke-width="12.0" fill="none" stroke="rgb(0, 0, 0)" stroke-opacity="0.25302124" stroke-linecap="round" stroke-linejoin="round"/>
    <path d="M 122.62811279296875 241.59056091308594 C 148.2583465576172 262.68316650390625 147.6676788330078 277.3073425292969 126.32940673828125 276.5604248046875 C 115.82563781738281 284.7939758300781 127.21257781982422 295.02471923828125 99.72257232666016 320.91180419921875 C 75.69188690185547 335.4009704589844 91.23200988769531 341.1102294921875 109.99256896972656 355.1017150878906 C 118.56427764892578 372.04559326171875 110.26861572265625 364.0080261230469 82.23721313476562 375.6454772949219" stroke-width="12.0" fill="none" stroke="rgb(0, 0, 0)" stroke-opacity="0.47531682" stroke-linecap="round" stroke-linejoin="round"/>
    <path d="M 298.34173583984375 185.6077423095703 C 273.0660400390625 181.17538452148438 266.7601318359375 162.5673065185547 276.8581237792969 174.2434844970703 C 276.9802551269531 197.43569946289062 271.0418395996094 173.88943481445312 293.878662109375 190.10159301757812 C 311.6496276855469 218.5618438720703 312.7513732910156 188.8790740966797 337.6421813964844 171.90658569335938 C 323.99285888671875 163.267822265625 340.24945068359375 177.70855712890625 331.0933532714844 183.0136260986328" stroke-width="12.0" fill="none" stroke="rgb(0, 0, 0)" stroke-opacity="0.8256047" stroke-linecap="round" stroke-linejoin="round"/>
    <path d="M 314.6966552734375 477.1703796386719 C 315.1703186035156 474.5159912109375 337.8355407714844 483.6309814453125 328.8197021484375 484.19207763671875 C 314.8673095703125 481.49603271484375 323.2428283691406 504.107666015625 336.68743896484375 485.1861267089844 C 306.94415283203125 481.7730407714844 316.71832275390625 506.3255615234375 312.27099609375 493.3870544433594 C 317.21966552734375 512.22021484375 329.56256103515625 532.959716796875 312.31256103515625 513.4952392578125" stroke-width="12.0" fill="none" stroke="rgb(0, 0, 0)" stroke-opacity="0.36869153" stroke-linecap="round" stroke-linejoin="round"/>
    <path d="M 4.62445068359375 12.004064559936523 C 10.399085998535156 33.181907653808594 0.02651916816830635 27.016082763671875 -4.056125164031982 22.577442169189453 C 7.03447151184082 12.610208511352539 26.742778778076172 -11.733243942260742 -1.0616079568862915 -36.20249557495117 C -5.324326992034912 -56.594093322753906 -21.73324203491211 -83.07073211669922 -41.35835647583008 -67.8222885131836 C -68.11434936523438 -67.50896453857422 -70.31830596923828 -81.39378356933594 -45.89099884033203 -70.29605102539062" stroke-width="12.0" fill="none" stroke="rgb(0, 0, 0)" stroke-opacity="0.2800113" stroke-linecap="round" stroke-linejoin="round"/>
    <path d="M 447.18133544921875 551.8619384765625 C 455.4297790527344 533.71044921875 484.5981750488281 530.9274291992188 457.9358215332031 558.33056640625 C 443.4466857910156 579.1961059570312 418.5408020019531 607.329345703125 434.3652648925781 637.055419921875 C 435.2824401855469 608.8843383789062 406.0728759765625 625.1737060546875 399.66864013671875 602.4847412109375 C 411.0623474121094 578.1316528320312 399.5246887207031 592.7659912109375 383.7442932128906 577.335693359375" stroke-width="12.0" fill="none" stroke="rgb(0, 0, 0)" stroke-opacity="0.012648709" stroke-linecap="round" stroke-linejoin="round"/>
    <path d="M 399.97540283203125 302.9385681152344 C 426.7141418457031 311.77777099609375 451.7124938964844 335.1603698730469 444.61981201171875 363.10662841796875 C 453.2044677734375 382.9788818359375 474.6627197265625 390.3744812011719 451.1222839355469 404.39459228515625 C 441.22515869140625 428.0692138671875 413.98382568359375 428.3475036621094 395.13916015625 434.71856689453125 C 423.49530029296875 414.8149719238281 407.73980712890625 391.1906433105469 437.55291748046875 397.16986083984375" stroke-width="12.0" fill="none" stroke="rgb(0, 0, 0)" stroke-opacity="0.61926967" stroke-linecap="round" stroke-linejoin="round"/>
    <path d="M 22.901905059814453 99.4478530883789 C 9.365592956542969 116.46931457519531 17.526365280151367 146.0279083251953 41.94826889038086 171.66064453125 C 22.32547378540039 180.13356018066406 23.98025894165039 169.78732299804688 -5.436081409454346 189.39730834960938 C 10.554638862609863 163.0991973876953 13.294196128845215 157.60198974609375 -14.800240516662598 136.21139526367188 C 9.155394554138184 154.96633911132812 34.267696380615234 180.57382202148438 21.31608772277832 209.83766174316406" stroke-width="12.0" fill="none" stroke="rgb(0, 0, 0)" stroke-opacity="0.7797085" stroke-linecap="round" stroke-linejoin="round"/>
    <path d="M 37.3249397277832 424.7902526855469 C 10.661349296569824 445.814208984375 11.10175895690918 449.34564208984375 31.82790184020996 431.27740478515625 C 3.002668619155884 410.166015625 30.317232131958008 402.4706115722656 31.193145751953125 375.5341796875 C 58.6097297668457 388.90618896484375 44.56360626220703 368.7205810546875 51.39914321899414 348.6531677246094 C 77.5934829711914 343.95574951171875 102.13622283935547 339.7022399902344 94.8034896850586 343.6515197753906" stroke-width="12.0" fill="none" stroke="rgb(0, 0, 0)" stroke-opacity="0.8721164" stroke-linecap="round" stroke-linejoin="round"/>
    <path d="M 440.0228576660156 108.09458923339844 C 455.729248046875 131.77264404296875 445.1758117675781 137.30213928222656 429.6201171875 118.14460754394531 C 427.8629150390625 102.5855712890625 417.21075439453125 87.47332763671875 418.0433654785156 102.66417694091797 C 412.23602294921875 73.84591674804688 424.8689880371094 44.0367546081543 440.10394287109375 20.3792667388916 C 414.0943298339844 46.310874938964844 436.7081298828125 74.19674682617188 441.76611328125 80.58735656738281" stroke-width="12.0" fill="none" stroke="rgb(0, 0, 0)" stroke-opacity="0.11430452" stroke-linecap="round" stroke-linejoin="round"/>
    <path d="M 371.42840576171875 321.88421630859375 C 370.6273193359375 332.2889099121094 395.2681884765625 316.2727355957031 408.181640625 319.5369873046875 C 432.8623962402344 307.5562438964844 457.1634216308594 281.4342041015625 439.21148681640625 279.85394287109375 C 450.3475341796875 254.21253967285156 471.51947021484375 249.5110321044922 487.97821044921875 237.66790771484375 C 482.4301452636719 228.3648681640625 510.535888671875 228.44677734375 482.6549377441406 253.95413208007812" stroke-width="12.0" fill="none" stroke="rgb(0, 0, 0)" stroke-opacity="0.68631244" stroke-linecap="round" stroke-linejoin="round"/>
    <path d="M 95.66194915771484 213.78126525878906 C 121.56956481933594 215.87818908691406 107.0131607055664 193.6020050048828 119.65479278564453 178.50872802734375 C 142.15380859375 155.5443115234375 128.34954833984375 150.34124755859375 111.21354675292969 134.50718688964844 C 101.77526092529297 140.3238067626953 120.32830047607422 144.5344696044922 119.87620544433594 144.7840576171875 C 134.4190673828125 133.03565979003906 116.38595581054688 138.59535217285156 130.3043212890625 148.9915008544922" stroke-width="12.0" fill="none" stroke="rgb(0, 0, 0)" stroke-opacity="0.79844403" stroke-linecap="round" stroke-linejoin="round"/>
    <path d="M 71.6622085571289 125.88146209716797 C 86.86495971679688 146.78343200683594 58.25495910644531 161.36724853515625 44.569820404052734 144.25909423828125 C 59.4537239074707 129.97486877441406 86.37541961669922 101.4234390258789 74.95820617675781 80.966796875 C 94.84815979003906 56.72716522216797 97.04829406738281 49.548160552978516 68.3483657836914 30.586687088012695 C 80.66152954101562 33.14080047607422 100.39099884033203 60.27834701538086 80.80438995361328 50.21847152709961" stroke-width="12.0" fill="none" stroke="rgb(0, 0, 0)" stroke-opacity="0.4979975" stroke-linecap="round" stroke-linejoin="round"/>
    <path d="M 188.24378967285156 407.55120849609375 C 159.29049682617188 409.0893859863281 153.6444854736328 399.6307373046875 131.71461486816406 404.9796447753906 C 125.88289642333984 409.2546081542969 121.35465240478516 399.7020263671875 146.7981414794922 404.5931396484375 C 172.8978271484375 399.21612548828125 151.75558471679688 411.70770263671875 137.40611267089844 411.39080810546875 C 116.53317260742188 438.1147766113281 134.1937713623047 459.5652160644531 118.20543670654297 478.53704833984375" stroke-width="12.0" fill="none" stroke="rgb(0, 0, 0)" stroke-opacity="0.6318409" stroke-linecap="round" stroke-linejoin="round"/>
    <path d="M 222.36732482910156 146.3676300048828 C 204.2076873779297 172.94183349609375 222.72293090820312 198.0240936279297 250.98353576660156 217.10598754882812 C 225.53073120117188 190.17999267578125 239.32241821289062 186.5194091796875 245.47860717773438 179.84986877441406 C 247.34194946289062 175.22352600097656 272.3125 153.3981475830078 255.45774841308594 166.17730712890625 C 267.3775939941406 168.38101196289062 253.30496215820312 187.74960327148438 243.8157196044922 161.41378784179688" stroke-width="12.0" fill="none" stroke="rgb(0, 0, 0)" stroke-opacity="0.54525405" stroke-linecap="round" stroke-linejoin="round"/>
    <path d="M 196.6538848876953 121.78324890136719 C 175.3109130859375 131.11053466796875 164.010986328125 105.71941375732422 135.1082000732422 90.20145416259766 C 120.26810455322266 62.677730560302734 141.09075927734375 66.2953872680664 151.14137268066406 61.299137115478516 C 166.4923553466797 42.275245666503906 186.411865234375 32.55805969238281 177.30630493164062 19.37967300415039 C 190.0823211669922 18.794824600219727 197.87962341308594 -2.923513650894165 189.0218505859375 -3.688965320587158" stroke-width="12.0" fill="none" stroke="rgb(0, 0, 0)" stroke-opacity="0.89301586" stroke-linecap="round" stroke-linejoin="round"/>
    <path d="M 39.521785736083984 282.173828125 C 10.261530876159668 278.5380859375 27.846038818359375 254.07110595703125 1.7663040161132812 267.460693359375 C -23.556364059448242 282.545654296875 6.116662502288818 293.5268859863281 18.739343643188477 267.51385498046875 C 21.928430557250977 239.15206909179688 15.95341968536377 242.3981475830078 32.40443420410156 218.24139404296875 C 23.435680389404297 224.0204620361328 27.683496475219727 216.58860778808594 52.589988708496094 220.09793090820312" stroke-width="12.0" fill="none" stroke="rgb(0, 0, 0)" stroke-opacity="0.77519184" stroke-linecap="round" stroke-linejoin="round"/>
  </g>
</svg>
