<?xml version="1.0" ?>
<svg xmlns="http://www.w3.org/2000/svg" version="1.1" width="600" height="600">
  <defs/>
  <g>
    <path d="M 463.9443359375 570.5289306640625 C 445.2508850097656 577.9550170898438 426.3677978515625 553.9288940429688 443.3988037109375 526.2979736328125 C 432.8697814941406 534.7017211914062 403.0749816894531 520.0867919921875 407.0149841308594 495.71063232421875 C 404.3528747558594 505.40850830078125 393.614990234375 484.74505615234375 376.13818359375 484.689697265625 C 368.6468200683594 465.806884765625 379.1302185058594 467.2235107421875 365.87786865234375 468.9111328125" stroke-width="11.800006866455078" fill="none" stroke="rgb(0, 0, 0)" stroke-opacity="0.09081833" stroke-linecap="round" stroke-linejoin="round"/>
    <path d="M 143.16490173339844 468.644287109375 C 129.31272888183594 442.0560607910156 104.50981140136719 468.8094482421875 113.06368255615234 460.4184265136719 C 131.1192169189453 481.5967712402344 103.61805725097656 510.0374450683594 123.41537475585938 514.9666748046875 C 152.1443634033203 520.75341796875 156.51976013183594 549.9378051757812 145.11314392089844 567.3943481445312 C 144.71511840820312 543.0150756835938 152.41009521484375 559.498046875 150.67019653320312 534.7996826171875" stroke-width="12.199995040893555" fill="none" stroke="rgb(0, 0, 0)" stroke-opacity="0.105197154" stroke-linecap="round" stroke-linejoin="round"/>
    <path d="M 191.25543212890625 188.94174194335938 C 221.07456970214844 212.60008239746094 196.3053436279297 210.3941650390625 202.9751739501953 228.18955993652344 C 229.80416870117188 243.56492614746094 215.14320373535156 232.2841033935547 239.8588104248047 213.41998291015625 C 250.05413818359375 241.8870391845703 267.68841552734375 255.99539184570312 262.0103454589844 267.94439697265625 C 256.1221618652344 277.69091796875 244.84483337402344 275.6571350097656 256.1105041503906 280.2390441894531" stroke-width="12.199995040893555" fill="none" stroke="rgb(0, 0, 0)" stroke-opacity="0.33736095" stroke-linecap="round" stroke-linejoin="round"/>
    <path d="M 91.93097686767578 280.1547546386719 C 85.20862579345703 307.31561279296875 110.56033325195312 287.6044921875 83.7944564819336 281.39141845703125 C 84.96876525878906 290.1299133300781 102.90849304199219 280.8034362792969 85.90087890625 283.96673583984375 C 86.39049530029297 279.4353332519531 108.878662109375 249.89825439453125 129.4257049560547 256.4002380371094 C 127.82540893554688 232.57167053222656 118.30167388916016 237.2029266357422 124.7652816772461 213.29405212402344" stroke-width="12.199999809265137" fill="none" stroke="rgb(0, 0, 0)" stroke-opacity="0.7296178" stroke-linecap="round" stroke-linejoin="round"/>
    <path d="M 407.739501953125 365.3423156738281 C 411.24053955078125 362.5010681152344 388.1669006347656 377.5286560058594 400.1405944824219 385.01318359375 C 429.199462890625 360.5050354003906 430.4118957519531 353.6773986816406 447.6343688964844 378.85498046875 C 429.1503601074219 350.9816589355469 419.8222961425781 356.0541687011719 431.7510986328125 382.5688171386719 C 452.173583984375 402.7643127441406 446.7047119140625 392.2355041503906 421.51409912109375 391.9118957519531" stroke-width="11.80001163482666" fill="none" stroke="rgb(0, 0, 0)" stroke-opacity="0.08314314" stroke-linecap="round" stroke-linejoin="round"/>
    <path d="M 146.69822692871094 175.7195281982422 C 140.82003784179688 147.53211975097656 136.1323699951172 137.96371459960938 143.91177368164062 158.40245056152344 C 162.09426879882812 152.70965576171875 182.2239990234375 154.68051147460938 160.17767333984375 178.29478454589844 C 143.6687774658203 205.3862762451172 138.50125122070312 188.1275177001953 143.73550415039062 171.7533416748047 C 161.96197509765625 153.0125732421875 159.37855529785156 141.6892852783203 165.70956420898438 121.76659393310547" stroke-width="11.800000190734863" fill="none" stroke="rgb(0, 0, 0)" stroke-opacity="0.60485756" stroke-linecap="round" stroke-linejoin="round"/>
    <path d="M 156.4651641845703 223.53790283203125 C 135.72393798828125 205.42715454101562 135.67308044433594 185.5574951171875 153.59661865234375 182.42567443847656 C 133.2521209716797 166.3992919921875 138.96707153320312 178.50083923339844 127.25933074951172 173.07264709472656 C 103.68426513671875 147.74295043945312 100.7419662475586 168.2716522216797 95.14887237548828 192.9155731201172 C 115.11071014404297 215.85934448242188 130.52743530273438 195.4404754638672 145.81886291503906 177.39894104003906" stroke-width="12.199999809265137" fill="none" stroke="rgb(0, 0, 0)" stroke-opacity="0.6571601" stroke-linecap="round" stroke-linejoin="round"/>
    <path d="M 89.26290130615234 493.4720153808594 C 68.34725189208984 522.9541015625 75.74111938476562 538.7984619140625 66.12165069580078 535.1271362304688 C 53.3635368347168 517.6644287109375 74.07974243164062 514.3256225585938 67.22954559326172 506.53594970703125 C 61.66764831542969 535.3533935546875 89.786865234375 511.5534973144531 81.3582534790039 514.2227783203125 C 66.9041976928711 506.2947692871094 49.05296325683594 498.9931640625 66.471923828125 527.1343383789062" stroke-width="12.19999885559082" fill="none" stroke="rgb(0, 0, 0)" stroke-opacity="0.20063515" stroke-linecap="round" stroke-linejoin="round"/>
    <path d="M 59.781341552734375 190.97743225097656 C 58.8492546081543 204.4585723876953 32.69023513793945 217.5283660888672 23.765905380249023 243.52757263183594 C 9.042736053466797 238.00204467773438 32.799922943115234 234.5511474609375 45.24592590332031 256.2521667480469 C 24.872037887573242 267.68865966796875 12.848601341247559 257.1085205078125 33.01142883300781 279.20977783203125 C 22.389070510864258 280.7802429199219 10.848342895507812 302.1626892089844 26.919795989990234 282.9660949707031" stroke-width="12.199994087219238" fill="none" stroke="rgb(0, 0, 0)" stroke-opacity="0.36790928" stroke-linecap="round" stroke-linejoin="round"/>
    <path d="M 9.681516647338867 88.03067779541016 C 18.266483306884766 68.15084838867188 16.209346771240234 78.77937316894531 1.122554898262024 108.60636138916016 C -19.927017211914062 128.75003051757812 -1.5775268077850342 137.23814392089844 -15.21550178527832 150.70323181152344 C -8.230180740356445 156.0393524169922 -17.85956382751465 139.0031280517578 -33.260318756103516 135.6773681640625 C -27.675426483154297 128.82077026367188 -9.596991539001465 108.90209197998047 -23.28594207763672 108.07793426513672" stroke-width="11.800222396850586" fill="none" stroke="rgb(0, 0, 0)" stroke-opacity="0.025079481" stroke-linecap="round" stroke-linejoin="round"/>
    <path d="M 512.7514038085938 32.03329086303711 C 506.3469543457031 39.971771240234375 477.0768127441406 30.300050735473633 464.6650695800781 38.24001693725586 C 457.131103515625 55.340911865234375 474.9407958984375 75.37867736816406 459.3788146972656 78.26506042480469 C 478.2921142578125 76.0886001586914 493.57635498046875 51.39210891723633 474.2077941894531 25.783708572387695 C 495.225830078125 51.48207092285156 467.2450256347656 79.7770004272461 487.7724914550781 76.10865020751953" stroke-width="11.800000190734863" fill="none" stroke="rgb(0, 0, 0)" stroke-opacity="0.057757113" stroke-linecap="round" stroke-linejoin="round"/>
    <path d="M 165.36778259277344 261.77606201171875 C 176.85057067871094 250.0518341064453 180.1260223388672 265.1971435546875 158.8995819091797 257.89569091796875 C 167.74639892578125 271.335205078125 182.98052978515625 294.52899169921875 193.04403686523438 284.88555908203125 C 215.60406494140625 261.7326354980469 226.1944580078125 279.7982482910156 251.62509155273438 302.4052734375 C 244.9042510986328 302.1715087890625 271.3780212402344 303.1277770996094 271.07928466796875 305.23040771484375" stroke-width="12.199983596801758" fill="none" stroke="rgb(0, 0, 0)" stroke-opacity="0.012727787" stroke-linecap="round" stroke-linejoin="round"/>
    <path d="M 165.11936950683594 445.6123962402344 C 157.70086669921875 454.51983642578125 181.0517120361328 431.0657653808594 194.83775329589844 428.7231750488281 C 166.83885192871094 406.8145446777344 170.96514892578125 435.0209655761719 177.5852813720703 421.27496337890625 C 158.28662109375 447.1997985839844 161.27806091308594 457.2145080566406 170.14431762695312 439.828857421875 C 153.52784729003906 430.05194091796875 176.06385803222656 404.8358459472656 165.9386749267578 385.75189208984375" stroke-width="12.199999809265137" fill="none" stroke="rgb(0, 0, 0)" stroke-opacity="0.51865834" stroke-linecap="round" stroke-linejoin="round"/>
    <path d="M 180.15586853027344 181.83543395996094 C 160.96356201171875 171.7725372314453 176.95370483398438 185.9402313232422 173.82762145996094 161.3306121826172 C 202.6790771484375 187.68948364257812 226.80926513671875 214.69534301757812 253.10369873046875 187.66624450683594 C 268.979736328125 214.39205932617188 280.6936950683594 242.10751342773438 307.77178955078125 266.08642578125 C 323.1885070800781 251.8367156982422 341.8916931152344 252.46270751953125 326.6932067871094 230.0225067138672" stroke-width="11.800000190734863" fill="none" stroke="rgb(0, 0, 0)" stroke-opacity="0.3356258" stroke-linecap="round" stroke-linejoin="round"/>
    <path d="M 240.77011108398438 143.0703582763672 C 235.91343688964844 150.99002075195312 228.80075073242188 121.6736068725586 243.10862731933594 115.7500228881836 C 247.80612182617188 123.1082763671875 232.0428924560547 127.67654418945312 211.94537353515625 152.80343627929688 C 239.41065979003906 131.0426025390625 241.62254333496094 155.2062225341797 212.60870361328125 133.26976013183594 C 229.52978515625 116.518798828125 229.0118865966797 118.03993225097656 213.6396484375 89.04395294189453" stroke-width="12.19999885559082" fill="none" stroke="rgb(0, 0, 0)" stroke-opacity="0.3860444" stroke-linecap="round" stroke-linejoin="round"/>
    <path d="M 104.30241394042969 366.84686279296875 C 115.37701416015625 348.50018310546875 141.2283172607422 347.4886474609375 116.62714385986328 328.4173278808594 C 121.02037811279297 323.770751953125 150.8166961669922 331.97998046875 147.62680053710938 316.1668701171875 C 163.7446746826172 298.7735595703125 174.71778869628906 315.159912109375 185.44976806640625 324.4661865234375 C 157.56246948242188 345.33843994140625 162.1646270751953 365.30657958984375 147.9729461669922 341.2265625" stroke-width="12.199999809265137" fill="none" stroke="rgb(0, 0, 0)" stroke-opacity="0.30151826" stroke-linecap="round" stroke-linejoin="round"/>
    <path d="M 156.37669372558594 232.3961639404297 C 136.31617736816406 222.0348358154297 108.88796997070312 223.07154846191406 107.54702758789062 243.2310791015625 C 131.27081298828125 215.07752990722656 127.22156524658203 223.98348999023438 149.2211151123047 231.90798950195312 C 143.13998413085938 214.5134735107422 143.98802185058594 202.79129028320312 129.04312133789062 175.01071166992188 C 99.1058120727539 189.62255859375 89.51835632324219 216.805419921875 67.89971160888672 226.391357421875" stroke-width="12.19999885559082" fill="none" stroke="rgb(0, 0, 0)" stroke-opacity="0.76973355" stroke-linecap="round" stroke-linejoin="round"/>
    <path d="M 135.39401245117188 331.0829772949219 C 148.05850219726562 357.3911437988281 162.8925323486328 341.47125244140625 191.93447875976562 343.47564697265625 C 212.61378479003906 352.3284606933594 242.15286254882812 333.0184326171875 238.16481018066406 330.953369140625 C 249.65869140625 314.6900634765625 266.1168518066406 313.2420654296875 271.92633056640625 316.75823974609375 C 250.9922637939453 327.0883483886719 244.05320739746094 342.5071716308594 244.49972534179688 367.9775390625" stroke-width="12.199999809265137" fill="none" stroke="rgb(0, 0, 0)" stroke-opacity="0.32724535" stroke-linecap="round" stroke-linejoin="round"/>
    <path d="M 137.5227813720703 403.6564025878906 C 121.11026763916016 387.13531494140625 116.40040588378906 411.4549865722656 138.41192626953125 418.00433349609375 C 154.10972595214844 445.4164733886719 126.87642669677734 460.2213134765625 100.82563018798828 439.3678283691406 C 110.46564483642578 464.4619445800781 84.99925231933594 453.7477722167969 61.74610900878906 456.36474609375 C 58.50333023071289 460.1827392578125 60.027503967285156 477.36395263671875 68.00434112548828 489.1852722167969" stroke-width="11.800000190734863" fill="none" stroke="rgb(0, 0, 0)" stroke-opacity="0.5733119" stroke-linecap="round" stroke-linejoin="round"/>
    <path d="M 393.40362548828125 238.97975158691406 C 375.7696533203125 212.00184631347656 405.0107727050781 205.8555908203125 422.03607177734375 181.21788024902344 C 419.9454650878906 152.92495727539062 418.9681091308594 129.3151397705078 409.3670959472656 153.955322265625 C 392.64569091796875 166.54879760742188 419.6087341308594 145.03114318847656 405.2015075683594 128.2679443359375 C 408.3087158203125 139.96417236328125 434.5470275878906 121.65055084228516 436.0533752441406 133.35064697265625" stroke-width="12.199999809265137" fill="none" stroke="rgb(0, 0, 0)" stroke-opacity="0.56914735" stroke-linecap="round" stroke-linejoin="round"/>
    <path d="M 313.1224060058594 483.98638916015625 C 311.0400085449219 466.86944580078125 327.7440185546875 448.1855773925781 336.7743835449219 455.0303955078125 C 359.2185363769531 449.1759948730469 336.12628173828125 424.73870849609375 318.1494445800781 447.41455078125 C 330.1115417480469 431.771728515625 342.2867431640625 414.4765625 317.6037902832031 426.35186767578125 C 335.8672790527344 443.2671813964844 356.765625 470.3670349121094 361.6617431640625 468.4449768066406" stroke-width="11.80000114440918" fill="none" stroke="rgb(0, 0, 0)" stroke-opacity="0.2887679" stroke-linecap="round" stroke-linejoin="round"/>
    <path d="M 518.89404296875 478.3235168457031 C 488.9873962402344 490.09112548828125 464.3735656738281 474.32073974609375 466.8309020996094 490.9922180175781 C 445.16180419921875 512.471923828125 459.39990234375 509.7306823730469 482.4557189941406 503.9992980957031 C 474.8619689941406 519.4434814453125 445.986083984375 519.4306030273438 427.5050354003906 506.01318359375 C 445.8780517578125 503.5099182128906 428.888427734375 477.1748352050781 442.9936828613281 450.5416259765625" stroke-width="11.800003051757812" fill="none" stroke="rgb(0, 0, 0)" stroke-opacity="0.17665397" stroke-linecap="round" stroke-linejoin="round"/>
    <path d="M 64.85186004638672 300.37841796875 C 62.630615234375 293.2554016113281 87.37627410888672 299.4892578125 69.25553131103516 316.7923583984375 C 62.010372161865234 333.1549377441406 69.90853118896484 311.61199951171875 61.05669021606445 311.114013671875 C 45.63674545288086 333.2214050292969 42.622745513916016 351.94830322265625 12.949344635009766 336.551025390625 C 19.892642974853516 347.38006591796875 20.271211624145508 363.77362060546875 22.700557708740234 383.65020751953125" stroke-width="12.199997901916504" fill="none" stroke="rgb(0, 0, 0)" stroke-opacity="0.6552802" stroke-linecap="round" stroke-linejoin="round"/>
    <path d="M 98.45062255859375 465.8088073730469 C 86.25770568847656 493.8272705078125 77.9784927368164 481.5609130859375 106.32402038574219 499.1989440917969 C 121.8148422241211 499.3522644042969 147.28688049316406 480.8827819824219 167.18533325195312 466.9476013183594 C 158.85433959960938 474.8443298339844 144.4200897216797 446.6876220703125 158.2135467529297 421.4111328125 C 174.76327514648438 422.87908935546875 145.9224395751953 410.3226318359375 137.73631286621094 417.3369140625" stroke-width="11.800000190734863" fill="none" stroke="rgb(0, 0, 0)" stroke-opacity="0.4898498" stroke-linecap="round" stroke-linejoin="round"/>
    <path d="M 259.7723083496094 226.1822967529297 C 238.5870361328125 254.426025390625 239.57330322265625 247.00717163085938 251.83489990234375 275.8289489746094 C 270.5334167480469 289.6932373046875 276.4703063964844 286.1466369628906 261.67828369140625 266.3832702636719 C 238.2416534423828 290.55609130859375 265.0559387207031 263.65374755859375 263.94805908203125 274.96380615234375 C 235.9672393798828 272.8641052246094 239.59335327148438 271.1581726074219 256.6968688964844 242.02029418945312" stroke-width="12.199999809265137" fill="none" stroke="rgb(0, 0, 0)" stroke-opacity="0.5974173" stroke-linecap="round" stroke-linejoin="round"/>
    <path d="M 204.16241455078125 116.93995666503906 C 176.8567657470703 111.9153823852539 166.76895141601562 105.32471466064453 149.8920135498047 124.61116027832031 C 174.1206512451172 96.77140045166016 181.9357147216797 87.54637145996094 174.84097290039062 115.35409545898438 C 174.93765258789062 114.52558898925781 154.42257690429688 85.62394714355469 183.60662841796875 85.33134460449219 C 168.73931884765625 81.61093139648438 143.44561767578125 88.60478210449219 149.50189208984375 105.98725891113281" stroke-width="11.800002098083496" fill="none" stroke="rgb(0, 0, 0)" stroke-opacity="0.5490662" stroke-linecap="round" stroke-linejoin="round"/>
    <path d="M 145.31240844726562 198.27622985839844 C 133.4740447998047 198.5746612548828 120.34618377685547 190.35946655273438 120.32269287109375 215.8273162841797 C 141.55174255371094 234.7904052734375 154.93008422851562 207.09205627441406 138.83665466308594 182.34646606445312 C 155.70384216308594 159.2734832763672 148.41986083984375 148.28736877441406 175.35104370117188 175.34429931640625 C 187.8995361328125 159.08901977539062 213.99964904785156 160.69869995117188 189.46957397460938 189.6232452392578" stroke-width="12.199999809265137" fill="none" stroke="rgb(0, 0, 0)" stroke-opacity="0.34085733" stroke-linecap="round" stroke-linejoin="round"/>
    <path d="M 415.0320739746094 537.8596801757812 C 403.1520690917969 536.0897216796875 417.1258850097656 511.02154541015625 428.5828857421875 531.3431396484375 C 452.1625671386719 539.5475463867188 436.7525634765625 543.277099609375 417.73187255859375 531.9765014648438 C 407.75341796875 527.6058349609375 407.51397705078125 506.41827392578125 423.3000793457031 515.4683227539062 C 420.4346008300781 494.2726135253906 397.3330078125 495.0603332519531 370.3659362792969 482.2698974609375" stroke-width="11.800031661987305" fill="none" stroke="rgb(0, 0, 0)" stroke-opacity="0.23292796" stroke-linecap="round" stroke-linejoin="round"/>
    <path d="M 586.3250732421875 547.9620361328125 C 587.4898071289062 522.3311157226562 598.5691528320312 550.0513916015625 606.7762451171875 566.84521484375 C 580.3355102539062 544.0177612304688 594.3832397460938 540.46337890625 572.8792114257812 565.093505859375 C 585.4418334960938 590.2242431640625 576.2265625 613.5545043945312 579.527587890625 613.909423828125 C 582.3866577148438 628.5266723632812 606.9493408203125 648.6536254882812 578.4302368164062 678.1737060546875" stroke-width="12.199997901916504" fill="none" stroke="rgb(0, 0, 0)" stroke-opacity="0.76936275" stroke-linecap="round" stroke-linejoin="round"/>
    <path d="M 515.7576293945312 425.2523193359375 C 500.621337890625 454.36151123046875 476.7685241699219 476.4682922363281 465.0938720703125 480.499755859375 C 476.6022644042969 485.9802551269531 502.3819274902344 489.99871826171875 498.3005676269531 485.8369445800781 C 507.01702880859375 477.98382568359375 487.8087158203125 467.4130554199219 464.5005798339844 477.4911804199219 C 473.0518493652344 490.3766174316406 445.3829650878906 463.10601806640625 457.3190002441406 452.4678649902344" stroke-width="12.19999885559082" fill="none" stroke="rgb(0, 0, 0)" stroke-opacity="0.8004267" stroke-linecap="round" stroke-linejoin="round"/>
    <path d="M 85.43168640136719 399.22857666015625 C 90.39126586914062 390.547119140625 101.84512329101562 373.52587890625 74.96665954589844 366.4229431152344 C 53.297176361083984 380.0263366699219 29.20180892944336 395.649169921875 58.7009391784668 373.4833984375 C 37.08415222167969 354.8740539550781 47.232940673828125 358.7693176269531 30.39581871032715 372.9894104003906 C 12.31607723236084 373.7114562988281 -2.925846815109253 378.0276184082031 23.298025131225586 356.7427673339844" stroke-width="11.800000190734863" fill="none" stroke="rgb(0, 0, 0)" stroke-opacity="0.22735988" stroke-linecap="round" stroke-linejoin="round"/>
    <path d="M 224.19236755371094 538.598876953125 C 211.87332153320312 541.2941284179688 212.0119171142578 512.8564453125 223.1192169189453 505.3915100097656 C 209.57992553710938 534.9464111328125 229.95309448242188 538.0160522460938 208.38059997558594 519.1419677734375 C 202.3513641357422 534.1890258789062 195.76870727539062 531.643310546875 177.8784942626953 530.9127807617188 C 173.53208923339844 551.1144409179688 191.11424255371094 544.3056640625 171.97401428222656 571.99365234375" stroke-width="11.800000190734863" fill="none" stroke="rgb(0, 0, 0)" stroke-opacity="0.503683" stroke-linecap="round" stroke-linejoin="round"/>
    <path d="M 523.0510864257812 283.9783935546875 C 547.1405639648438 266.4216613769531 558.4151611328125 262.2174377441406 552.6394653320312 235.067626953125 C 559.0332641601562 258.39031982421875 575.3660278320312 260.2860412597656 546.5715942382812 249.49949645996094 C 521.8216552734375 261.6573791503906 533.7431640625 247.91815185546875 563.607177734375 259.1985168457031 C 551.430908203125 232.4351348876953 550.7623901367188 212.8463134765625 543.5211791992188 198.35482788085938" stroke-width="12.199997901916504" fill="none" stroke="rgb(0, 0, 0)" stroke-opacity="0.80996203" stroke-linecap="round" stroke-linejoin="round"/>
    <path d="M 158.00592041015625 411.8193054199219 C 164.691162109375 420.2702941894531 151.95559692382812 411.60845947265625 125.39018249511719 398.4709777832031 C 109.1351318359375 369.0213623046875 126.23637390136719 385.3324890136719 127.74016571044922 375.1449890136719 C 144.20799255371094 354.9516296386719 163.8905487060547 353.8542175292969 186.3765411376953 367.3375244140625 C 168.64080810546875 386.8714294433594 141.55223083496094 409.93133544921875 150.47491455078125 396.6509704589844" stroke-width="12.19998550415039" fill="none" stroke="rgb(0, 0, 0)" stroke-opacity="0.02900772" stroke-linecap="round" stroke-linejoin="round"/>
    <path d="M 597.10009765625 537.0279541015625 C 620.917724609375 533.6077270507812 622.737548828125 512.3417358398438 611.8307495117188 505.2856140136719 C 608.4503784179688 486.9565124511719 594.072265625 505.6490478515625 581.9337768554688 501.87774658203125 C 556.9657592773438 497.57330322265625 565.1942749023438 517.1722412109375 542.9215698242188 522.8461303710938 C 559.8088989257812 549.4081420898438 563.0969848632812 549.8060913085938 564.0300903320312 534.6583862304688" stroke-width="12.199999809265137" fill="none" stroke="rgb(0, 0, 0)" stroke-opacity="0.57000095" stroke-linecap="round" stroke-linejoin="round"/>
    <path d="M 124.71427917480469 282.6481628417969 C 107.58090209960938 252.94570922851562 80.78227233886719 249.43136596679688 73.33504486083984 225.93759155273438 C 53.405155181884766 218.52891540527344 58.62053680419922 216.7517547607422 77.5733871459961 194.24642944335938 C 47.9680290222168 181.45962524414062 50.52060317993164 181.85894775390625 29.416296005249023 175.3364715576172 C 55.70709991455078 203.23387145996094 65.10987091064453 204.84359741210938 45.0406608581543 224.36647033691406" stroke-width="11.80000114440918" fill="none" stroke="rgb(0, 0, 0)" stroke-opacity="0.2676683" stroke-linecap="round" stroke-linejoin="round"/>
    <path d="M 181.65150451660156 270.3102722167969 C 201.28158569335938 279.74713134765625 196.2162322998047 261.0447082519531 172.38104248046875 284.4365234375 C 147.79525756835938 309.8138732910156 125.53278350830078 280.5179138183594 124.22898864746094 306.0223388671875 C 131.56118774414062 290.86346435546875 107.13182067871094 297.1556091308594 83.77220153808594 312.7574157714844 C 112.01549530029297 294.1372375488281 129.17361450195312 311.07073974609375 103.79008483886719 324.9601135253906" stroke-width="12.199999809265137" fill="none" stroke="rgb(0, 0, 0)" stroke-opacity="0.43348813" stroke-linecap="round" stroke-linejoin="round"/>
    <path d="M 108.36589050292969 6.856585502624512 C 134.68113708496094 18.503387451171875 118.4913101196289 45.7139892578125 116.89933013916016 38.31918716430664 C 128.48243713378906 62.14375305175781 142.5775146484375 71.44354248046875 135.08938598632812 69.65010070800781 C 112.79059600830078 55.317893981933594 85.086181640625 56.30044174194336 60.25086212158203 84.60375213623047 C 82.49703979492188 90.57540893554688 110.78695678710938 64.70199584960938 131.08709716796875 73.84879302978516" stroke-width="12.199999809265137" fill="none" stroke="rgb(0, 0, 0)" stroke-opacity="0.89912534" stroke-linecap="round" stroke-linejoin="round"/>
    <path d="M 592.1964721679688 580.5800170898438 C 608.6730346679688 558.1034545898438 610.7190551757812 584.8761596679688 622.0146484375 564.7174072265625 C 596.8900756835938 544.4981689453125 624.5037841796875 520.3500366210938 621.6834716796875 491.9777526855469 C 613.3110961914062 511.85797119140625 592.2476196289062 511.56707763671875 622.1389770507812 520.7855224609375 C 597.6895141601562 530.6063842773438 572.9381103515625 511.6167907714844 592.8704833984375 497.97576904296875" stroke-width="11.800000190734863" fill="none" stroke="rgb(0, 0, 0)" stroke-opacity="0.84264714" stroke-linecap="round" stroke-linejoin="round"/>
    <path d="M 503.8763427734375 582.7236938476562 C 475.765625 583.37060546875 462.6170349121094 555.7040405273438 492.13134765625 555.5487670898438 C 469.5386047363281 545.4942016601562 444.4821472167969 564.8468627929688 436.0180358886719 587.2996215820312 C 456.6334533691406 611.0669555664062 445.76898193359375 609.6205444335938 456.4606628417969 579.7033081054688 C 485.8385314941406 565.5274658203125 475.189208984375 563.3213500976562 490.0268249511719 543.4728393554688" stroke-width="12.199996948242188" fill="none" stroke="rgb(0, 0, 0)" stroke-opacity="0.11160129" stroke-linecap="round" stroke-linejoin="round"/>
    <path d="M 342.63568115234375 487.9704895019531 C 348.37933349609375 501.5159606933594 337.4422912597656 477.68914794921875 323.8907470703125 471.90301513671875 C 312.3841857910156 458.1748046875 340.59197998046875 435.2337341308594 365.11077880859375 443.5282897949219 C 366.9496154785156 464.6580505371094 373.2148742675781 479.0220642089844 363.9560546875 464.6603698730469 C 364.6943359375 491.4812927246094 363.71942138671875 495.3856506347656 345.2337341308594 509.345458984375" stroke-width="12.199999809265137" fill="none" stroke="rgb(0, 0, 0)" stroke-opacity="0.9778848" stroke-linecap="round" stroke-linejoin="round"/>
    <path d="M 162.40684509277344 219.0938720703125 C 154.27532958984375 237.6522216796875 139.39443969726562 232.728515625 127.5459213256836 223.15359497070312 C 120.27366638183594 202.3265380859375 104.82857513427734 172.75990295410156 88.71045684814453 185.5275115966797 C 92.6694564819336 167.91571044921875 98.90834045410156 165.21385192871094 84.68144989013672 181.57310485839844 C 69.24520111083984 157.34169006347656 70.54350280761719 145.96649169921875 78.02947998046875 139.08587646484375" stroke-width="11.800002098083496" fill="none" stroke="rgb(0, 0, 0)" stroke-opacity="0.23296642" stroke-linecap="round" stroke-linejoin="round"/>
    <path d="M 207.18328857421875 530.26513671875 C 234.80332946777344 516.6107788085938 228.02279663085938 491.7594909667969 249.41383361816406 504.7939758300781 C 259.56488037109375 518.2735595703125 248.51422119140625 532.92431640625 238.63002014160156 552.609375 C 259.7258605957031 564.4425659179688 274.3568115234375 544.2239379882812 277.0850830078125 516.4562377929688 C 268.6175842285156 509.7596435546875 243.64752197265625 488.3438720703125 261.3039855957031 468.79351806640625" stroke-width="11.800000190734863" fill="none" stroke="rgb(0, 0, 0)" stroke-opacity="0.97134936" stroke-linecap="round" stroke-linejoin="round"/>
    <path d="M 220.7932891845703 185.87747192382812 C 250.1476287841797 187.80438232421875 263.55535888671875 192.6138916015625 289.105712890625 180.1161346435547 C 264.67095947265625 166.123779296875 258.76678466796875 179.7063446044922 264.2884826660156 172.12588500976562 C 275.2225341796875 178.43553161621094 246.09616088867188 164.35617065429688 218.3043212890625 141.73191833496094 C 233.4912109375 160.88865661621094 219.0799102783203 167.19833374023438 227.37203979492188 185.75355529785156" stroke-width="12.199926376342773" fill="none" stroke="rgb(0, 0, 0)" stroke-opacity="0.015310828" stroke-linecap="round" stroke-linejoin="round"/>
    <path d="M 146.9739227294922 515.9407958984375 C 156.49986267089844 503.4547424316406 133.43789672851562 502.3506774902344 128.50306701660156 479.7322692871094 C 128.64471435546875 509.7001647949219 124.59845733642578 504.8979187011719 144.0644073486328 529.8953247070312 C 158.68226623535156 519.4962768554688 160.03746032714844 501.02581787109375 182.5966339111328 478.9096984863281 C 190.96029663085938 466.7508544921875 188.130615234375 460.99810791015625 201.7041473388672 468.9443664550781" stroke-width="11.800002098083496" fill="none" stroke="rgb(0, 0, 0)" stroke-opacity="0.84587055" stroke-linecap="round" stroke-linejoin="round"/>
    <path d="M 502.2767639160156 288.7271423339844 C 510.337646484375 276.6142578125 537.5972900390625 298.4819030761719 566.463623046875 273.3643493652344 C 541.3048706054688 267.6078796386719 551.393798828125 276.8752746582031 569.6188354492188 264.2629089355469 C 558.645751953125 292.2799072265625 562.1735229492188 273.63134765625 555.381591796875 278.0682067871094 C 546.498046875 284.4425964355469 567.1800537109375 265.27099609375 550.9287109375 280.40496826171875" stroke-width="12.19999885559082" fill="none" stroke="rgb(0, 0, 0)" stroke-opacity="0.7084588" stroke-linecap="round" stroke-linejoin="round"/>
    <path d="M 508.0699768066406 455.3074035644531 C 508.2550354003906 439.5232849121094 513.176513671875 444.82733154296875 483.746826171875 417.179931640625 C 456.8917541503906 403.6060485839844 456.6611022949219 431.2872619628906 471.06243896484375 423.6466064453125 C 490.6476135253906 398.1899719238281 470.1473388671875 384.0991516113281 446.2211608886719 358.78558349609375 C 441.2469177246094 380.0351257324219 447.83270263671875 389.5670166015625 467.2609558105469 406.41326904296875" stroke-width="12.199995040893555" fill="none" stroke="rgb(0, 0, 0)" stroke-opacity="0.3890478" stroke-linecap="round" stroke-linejoin="round"/>
    <path d="M 229.1495361328125 324.2090759277344 C 238.49598693847656 308.38665771484375 245.7664337158203 307.8451843261719 249.1058807373047 301.9403076171875 C 266.08697509765625 309.12908935546875 277.9072570800781 324.4849853515625 290.41815185546875 306.1576843261719 C 314.6832580566406 276.9146423339844 302.2003479003906 287.0082092285156 330.5896911621094 302.3033447265625 C 351.8264465332031 319.7586669921875 347.09197998046875 299.7641296386719 367.80596923828125 290.9475402832031" stroke-width="12.19999885559082" fill="none" stroke="rgb(0, 0, 0)" stroke-opacity="0.20312597" stroke-linecap="round" stroke-linejoin="round"/>
    <path d="M 45.41497802734375 341.3764953613281 C 25.45684242248535 323.9949951171875 12.735289573669434 324.1035461425781 14.123566627502441 322.1041564941406 C 32.36117172241211 344.5334777832031 22.38694190979004 331.3665466308594 33.81645584106445 316.81378173828125 C 7.393268585205078 331.3458251953125 26.08135414123535 360.9324645996094 32.813026428222656 371.6107482910156 C 57.80834197998047 398.94305419921875 66.31739044189453 380.13922119140625 81.9439697265625 350.66558837890625" stroke-width="11.800000190734863" fill="none" stroke="rgb(0, 0, 0)" stroke-opacity="0.74344087" stroke-linecap="round" stroke-linejoin="round"/>
    <path d="M 230.0614013671875 254.07174682617188 C 214.62548828125 244.81631469726562 231.01426696777344 263.8871765136719 257.67230224609375 241.32791137695312 C 277.7442321777344 230.9169464111328 284.58868408203125 220.66964721679688 310.89691162109375 196.71372985839844 C 295.17095947265625 189.3024444580078 280.0190124511719 159.52133178710938 259.845947265625 169.64480590820312 C 239.0598602294922 190.68890380859375 220.15322875976562 216.24368286132812 231.43922424316406 202.27256774902344" stroke-width="11.80000114440918" fill="none" stroke="rgb(0, 0, 0)" stroke-opacity="0.3243234" stroke-linecap="round" stroke-linejoin="round"/>
    <path d="M 520.9267578125 284.4937438964844 C 513.5726928710938 280.9999084472656 530.5498657226562 302.5339660644531 523.101806640625 292.0848083496094 C 497.7093505859375 281.6131286621094 482.26751708984375 282.064453125 486.73406982421875 292.9395751953125 C 502.22607421875 274.43585205078125 487.8670654296875 275.38958740234375 497.3056335449219 302.2740173339844 C 494.962890625 294.6244812011719 513.8026733398438 313.43560791015625 542.3108520507812 305.07745361328125" stroke-width="12.199995994567871" fill="none" stroke="rgb(0, 0, 0)" stroke-opacity="0.2881134" stroke-linecap="round" stroke-linejoin="round"/>
    <path d="M 452.1886901855469 470.36944580078125 C 423.1462097167969 494.0845031738281 395.5976867675781 478.1133728027344 395.0852355957031 475.71044921875 C 387.8941955566406 451.1739807128906 382.7417297363281 434.382568359375 394.4312744140625 405.49346923828125 C 389.22247314453125 377.4434814453125 405.3742980957031 359.4671325683594 408.0567932128906 364.068603515625 C 419.5245361328125 354.246826171875 435.17279052734375 374.1650695800781 438.1590881347656 355.913330078125" stroke-width="12.199999809265137" fill="none" stroke="rgb(0, 0, 0)" stroke-opacity="0.5711761" stroke-linecap="round" stroke-linejoin="round"/>
    <path d="M 577.53369140625 74.61933135986328 C 587.5489501953125 57.68263626098633 568.5877075195312 65.44954681396484 541.1920776367188 59.13692092895508 C 563.206787109375 60.23441696166992 548.5867919921875 83.32621765136719 561.9247436523438 98.19137573242188 C 579.9501342773438 69.77364349365234 577.0597534179688 49.407012939453125 599.9887084960938 37.53654098510742 C 623.1000366210938 66.24124908447266 629.9248657226562 40.54248046875 642.6456909179688 69.14756774902344" stroke-width="12.199999809265137" fill="none" stroke="rgb(0, 0, 0)" stroke-opacity="0.68516105" stroke-linecap="round" stroke-linejoin="round"/>
    <path d="M 438.9416198730469 220.69850158691406 C 443.99896240234375 196.9495086669922 446.6044006347656 216.40440368652344 463.0864562988281 243.16558837890625 C 474.4815673828125 252.40924072265625 466.4736022949219 240.29464721679688 450.7449035644531 257.6321716308594 C 469.279541015625 269.69537353515625 476.7190246582031 269.6990051269531 458.41302490234375 265.1100158691406 C 488.320556640625 235.21502685546875 460.2038879394531 222.12550354003906 432.8445739746094 199.00567626953125" stroke-width="11.800004005432129" fill="none" stroke="rgb(0, 0, 0)" stroke-opacity="0.07549551" stroke-linecap="round" stroke-linejoin="round"/>
    <path d="M 451.33544921875 504.4166564941406 C 438.7306823730469 483.7539978027344 409.1315612792969 481.6827087402344 415.6453857421875 462.0132751464844 C 426.72003173828125 480.4838562011719 404.5639343261719 463.5040283203125 384.9258728027344 451.9026184082031 C 406.6827697753906 475.604736328125 429.8457336425781 464.8351135253906 414.75823974609375 476.7483825683594 C 437.738525390625 480.98516845703125 438.5390930175781 460.29290771484375 421.2048645019531 441.88494873046875" stroke-width="12.199992179870605" fill="none" stroke="rgb(0, 0, 0)" stroke-opacity="0.7715512" stroke-linecap="round" stroke-linejoin="round"/>
    <path d="M 516.31787109375 9.161197662353516 C 537.8630981445312 21.07142448425293 508.4272766113281 46.5233268737793 513.4303588867188 47.60822677612305 C 533.3721923828125 48.784584045410156 558.9016723632812 20.207870483398438 541.3916625976562 20.379701614379883 C 545.6089477539062 -6.3607611656188965 523.3861694335938 0.5837445259094238 518.74853515625 8.708345413208008 C 508.59100341796875 33.920074462890625 525.6919555664062 23.659711837768555 550.6900024414062 5.210052013397217" stroke-width="12.199999809265137" fill="none" stroke="rgb(0, 0, 0)" stroke-opacity="0.97540176" stroke-linecap="round" stroke-linejoin="round"/>
    <path d="M 74.59707641601562 215.05284118652344 C 82.31653594970703 230.74888610839844 67.60845184326172 208.10800170898438 55.35421371459961 190.24020385742188 C 36.23335266113281 164.87420654296875 15.309915542602539 149.75645446777344 20.35942268371582 133.46417236328125 C 6.450061798095703 133.2080535888672 29.183374404907227 144.9249725341797 23.110937118530273 128.14244079589844 C 4.484331130981445 132.2223358154297 -3.9239935874938965 105.20663452148438 20.02033042907715 93.49430084228516" stroke-width="12.199997901916504" fill="none" stroke="rgb(0, 0, 0)" stroke-opacity="0.5632379" stroke-linecap="round" stroke-linejoin="round"/>
    <path d="M 198.73611450195312 467.3311462402344 C 176.45970153808594 471.4715576171875 154.31346130371094 454.3556823730469 168.3083953857422 467.6231994628906 C 144.509033203125 441.2259826660156 166.37042236328125 462.4390869140625 183.02206420898438 488.2442626953125 C 174.7601776123047 464.8422546386719 193.9290008544922 480.15997314453125 221.26547241210938 457.17901611328125 C 224.52059936523438 479.969970703125 246.57992553710938 457.43243408203125 221.48033142089844 439.1923522949219" stroke-width="11.800019264221191" fill="none" stroke="rgb(0, 0, 0)" stroke-opacity="0.17025054" stroke-linecap="round" stroke-linejoin="round"/>
    <path d="M 416.7865295410156 585.58935546875 C 390.3493347167969 580.4049072265625 379.40521240234375 575.4071655273438 403.3541259765625 557.4157104492188 C 413.404541015625 585.6785278320312 440.94183349609375 603.771240234375 469.2065734863281 577.8842163085938 C 496.1030578613281 582.3421630859375 477.0379333496094 560.1292114257812 475.91156005859375 581.00537109375 C 472.9179382324219 570.2400512695312 455.3271179199219 546.9883422851562 471.590576171875 544.6163330078125" stroke-width="11.800000190734863" fill="none" stroke="rgb(0, 0, 0)" stroke-opacity="0.9443083" stroke-linecap="round" stroke-linejoin="round"/>
    <path d="M 20.262676239013672 123.88971710205078 C 29.504806518554688 133.0780792236328 13.894998550415039 132.65040588378906 -2.1206395626068115 149.70774841308594 C -15.49394416809082 138.9888916015625 -16.27472496032715 136.47911071777344 13.568227767944336 145.1320037841797 C 40.653961181640625 137.86212158203125 55.343109130859375 160.68338012695312 59.548274993896484 160.9117431640625 C 85.40446472167969 190.2677459716797 114.46990966796875 216.3692169189453 123.45728302001953 206.43585205078125" stroke-width="11.800000190734863" fill="none" stroke="rgb(0, 0, 0)" stroke-opacity="0.76897794" stroke-linecap="round" stroke-linejoin="round"/>
    <path d="M 158.05955505371094 272.9920349121094 C 153.55673217773438 251.65673828125 132.1603546142578 275.7343444824219 155.43202209472656 282.9203796386719 C 155.92340087890625 274.0519104003906 135.10093688964844 270.21490478515625 105.7125473022461 261.8402099609375 C 98.71405792236328 234.11569213867188 92.40367126464844 256.5215148925781 86.99771118164062 234.0147247314453 C 65.26461791992188 218.91436767578125 52.77099609375 218.79420471191406 31.074325561523438 232.08665466308594" stroke-width="11.800004005432129" fill="none" stroke="rgb(0, 0, 0)" stroke-opacity="0.21100041" stroke-linecap="round" stroke-linejoin="round"/>
    <path d="M 383.43975830078125 97.06158447265625 C 373.75531005859375 70.77139282226562 376.29986572265625 45.26349639892578 375.9288024902344 20.492610931396484 C 399.19903564453125 38.100250244140625 377.9765625 40.117408752441406 403.3631591796875 20.99448585510254 C 395.1257629394531 1.9472581148147583 374.0406188964844 -28.00405502319336 345.181640625 -28.080219268798828 C 317.2880554199219 -11.734793663024902 343.1986389160156 4.410904884338379 359.0011901855469 30.14358139038086" stroke-width="11.800004959106445" fill="none" stroke="rgb(0, 0, 0)" stroke-opacity="0.29752606" stroke-linecap="round" stroke-linejoin="round"/>
    <path d="M 279.5045166015625 234.0794219970703 C 286.1618347167969 263.701904296875 301.7289123535156 234.8510284423828 329.69921875 249.6237335205078 C 337.94049072265625 279.1217956542969 344.5679931640625 262.0019836425781 325.3830261230469 282.57855224609375 C 348.9364318847656 261.7441101074219 372.5823974609375 265.5748291015625 395.7263488769531 259.6305236816406 C 425.33984375 270.4323425292969 433.7477722167969 251.05606079101562 431.1455993652344 264.1881408691406" stroke-width="11.80000114440918" fill="none" stroke="rgb(0, 0, 0)" stroke-opacity="0.9558475" stroke-linecap="round" stroke-linejoin="round"/>
    <path d="M 397.2138671875 187.41961669921875 C 367.2814636230469 179.86305236816406 370.4372253417969 150.48580932617188 365.2124328613281 169.84451293945312 C 389.5975341796875 177.3419647216797 382.7211608886719 189.3569793701172 356.693359375 201.3516387939453 C 358.82122802734375 176.68209838867188 364.7832336425781 153.84999084472656 385.5718688964844 131.40301513671875 C 393.9486999511719 122.56578826904297 365.0793762207031 97.210205078125 376.7774353027344 104.83831024169922" stroke-width="11.800002098083496" fill="none" stroke="rgb(0, 0, 0)" stroke-opacity="0.05007593" stroke-linecap="round" stroke-linejoin="round"/>
    <path d="M 492.3791809082031 391.1835021972656 C 476.49102783203125 404.3926086425781 468.69134521484375 378.529296875 488.3215026855469 352.690673828125 C 514.7750244140625 359.38092041015625 531.40625 330.6089782714844 538.9625854492188 313.5184326171875 C 521.535400390625 336.41241455078125 513.09814453125 353.36077880859375 500.0718078613281 375.5435485839844 C 472.6163024902344 385.7593078613281 481.77655029296875 364.5242614746094 486.5045471191406 384.06512451171875" stroke-width="12.199991226196289" fill="none" stroke="rgb(0, 0, 0)" stroke-opacity="0.7339124" stroke-linecap="round" stroke-linejoin="round"/>
    <path d="M 469.4705505371094 266.6644287109375 C 478.6318664550781 257.2540588378906 485.7571716308594 243.7561798095703 499.8278503417969 248.27037048339844 C 477.2521057128906 259.5903625488281 463.07476806640625 277.1816101074219 443.1454772949219 261.9537658691406 C 465.3868408203125 246.3936309814453 457.232177734375 259.647216796875 471.05450439453125 232.22555541992188 C 442.26947021484375 215.70816040039062 445.7869567871094 203.17800903320312 429.2934265136719 184.2906494140625" stroke-width="11.800000190734863" fill="none" stroke="rgb(0, 0, 0)" stroke-opacity="0.14009456" stroke-linecap="round" stroke-linejoin="round"/>
    <path d="M 170.919677734375 322.9146423339844 C 174.0272979736328 341.01708984375 154.650146484375 368.5694580078125 180.73130798339844 342.6771240234375 C 186.21139526367188 331.01556396484375 186.32867431640625 352.7767333984375 176.98536682128906 356.911865234375 C 184.74176025390625 347.13763427734375 203.1891632080078 320.85150146484375 192.08120727539062 316.6227111816406 C 208.67327880859375 311.752685546875 181.33306884765625 289.53631591796875 202.63121032714844 302.951171875" stroke-width="11.800002098083496" fill="none" stroke="rgb(0, 0, 0)" stroke-opacity="0.3876975" stroke-linecap="round" stroke-linejoin="round"/>
    <path d="M 531.6465454101562 296.581298828125 C 533.3679809570312 284.3299255371094 506.60791015625 256.3622741699219 490.4703063964844 228.39422607421875 C 513.493408203125 224.3853302001953 515.1307373046875 208.87380981445312 529.306396484375 179.5085906982422 C 510.9693298339844 186.35733032226562 504.7025451660156 165.82977294921875 511.59112548828125 166.51715087890625 C 510.28070068359375 176.88079833984375 509.24017333984375 186.83827209472656 516.1551513671875 200.04067993164062" stroke-width="11.800002098083496" fill="none" stroke="rgb(0, 0, 0)" stroke-opacity="0.72488207" stroke-linecap="round" stroke-linejoin="round"/>
    <path d="M 216.4215087890625 596.3017578125 C 228.1019287109375 619.18701171875 235.8015899658203 644.4775390625 223.52072143554688 617.0982666015625 C 248.4894561767578 629.2933959960938 260.43463134765625 643.4197998046875 277.50335693359375 648.2949829101562 C 280.8121032714844 661.2952270507812 264.6215515136719 672.2454223632812 256.3227844238281 676.6275634765625 C 278.0927429199219 696.0578002929688 259.7094421386719 672.0393676757812 265.1020202636719 645.2103881835938" stroke-width="11.80000114440918" fill="none" stroke="rgb(0, 0, 0)" stroke-opacity="0.53926784" stroke-linecap="round" stroke-linejoin="round"/>
    <path d="M 518.0869750976562 297.0952453613281 C 502.44537353515625 288.532958984375 487.5494384765625 314.5622253417969 513.0564575195312 303.134765625 C 499.3869934082031 301.8290100097656 476.08447265625 325.08404541015625 470.4824523925781 348.20123291015625 C 458.9817810058594 367.3138122558594 465.73040771484375 371.8245544433594 489.3081359863281 377.2548828125 C 517.0850219726562 368.689697265625 527.3170776367188 358.3913879394531 553.2345581054688 367.3708190917969" stroke-width="12.199999809265137" fill="none" stroke="rgb(0, 0, 0)" stroke-opacity="0.4892266" stroke-linecap="round" stroke-linejoin="round"/>
    <path d="M 40.299591064453125 514.1386108398438 C 43.74368667602539 521.7196655273438 70.17472839355469 526.0979614257812 50.580142974853516 546.7588500976562 C 50.381412506103516 565.8059692382812 38.82314682006836 570.739990234375 65.62816619873047 574.2810668945312 C 90.58416748046875 569.3442993164062 83.79747772216797 589.8676147460938 58.855106353759766 591.4281005859375 C 57.91550064086914 608.19091796875 60.33843231201172 594.6842041015625 66.15171813964844 583.6552734375" stroke-width="12.19999885559082" fill="none" stroke="rgb(0, 0, 0)" stroke-opacity="0.59773725" stroke-linecap="round" stroke-linejoin="round"/>
    <path d="M 95.46659088134766 257.23577880859375 C 92.6139907836914 239.48098754882812 109.8917236328125 226.66793823242188 113.9821548461914 223.7813262939453 C 100.94075012207031 248.71214294433594 95.40998077392578 247.39022827148438 106.89696502685547 227.11558532714844 C 81.44949340820312 241.99649047851562 57.248626708984375 242.07737731933594 35.101829528808594 255.15481567382812 C 50.93307113647461 281.7673645019531 45.430274963378906 309.60235595703125 22.434667587280273 293.006591796875" stroke-width="12.199997901916504" fill="none" stroke="rgb(0, 0, 0)" stroke-opacity="0.24220783" stroke-linecap="round" stroke-linejoin="round"/>
    <path d="M 521.9661254882812 525.4031372070312 C 538.2825317382812 524.4546508789062 559.4657592773438 534.9419555664062 588.3346557617188 548.1038818359375 C 591.7262573242188 540.7877807617188 612.6932983398438 519.3923950195312 635.6376342773438 513.1561889648438 C 641.7928466796875 530.36962890625 661.3881225585938 553.7380981445312 635.255126953125 569.8448486328125 C 617.3623046875 545.18359375 632.896484375 517.2196044921875 629.1882934570312 520.6784057617188" stroke-width="11.800004959106445" fill="none" stroke="rgb(0, 0, 0)" stroke-opacity="0.33191872" stroke-linecap="round" stroke-linejoin="round"/>
    <path d="M 267.0301513671875 83.52172088623047 C 268.3501892089844 96.62238311767578 270.50128173828125 116.46778869628906 270.1632080078125 102.99449920654297 C 275.5460510253906 109.90201568603516 273.5984191894531 118.08126068115234 267.76593017578125 131.99095153808594 C 270.30108642578125 119.0402603149414 283.8284606933594 92.57930755615234 288.6227111816406 101.24512481689453 C 267.9520263671875 108.77912902832031 254.40150451660156 104.22745513916016 272.581787109375 114.73667907714844" stroke-width="12.199997901916504" fill="none" stroke="rgb(0, 0, 0)" stroke-opacity="0.17431895" stroke-linecap="round" stroke-linejoin="round"/>
    <path d="M 554.0092163085938 384.09515380859375 C 532.2992553710938 354.1414489746094 503.43109130859375 356.2156677246094 505.7178955078125 373.3040771484375 C 496.414306640625 386.6164855957031 489.7736511230469 393.2153015136719 480.1100158691406 392.4041442871094 C 484.2253112792969 378.5489807128906 482.387451171875 381.3443603515625 467.71514892578125 355.1181640625 C 497.69183349609375 334.0364685058594 522.2710571289062 316.4187316894531 496.35784912109375 336.122314453125" stroke-width="12.199999809265137" fill="none" stroke="rgb(0, 0, 0)" stroke-opacity="0.80851865" stroke-linecap="round" stroke-linejoin="round"/>
    <path d="M 225.85699462890625 224.36695861816406 C 202.06956481933594 195.78921508789062 229.69357299804688 172.7500457763672 233.09725952148438 195.50648498535156 C 240.11807250976562 165.68028259277344 245.23849487304688 146.8849639892578 255.52960205078125 175.21392822265625 C 268.24395751953125 187.247802734375 272.6651306152344 163.002685546875 259.5608215332031 143.3018035888672 C 253.28611755371094 135.820556640625 281.863525390625 129.19300842285156 289.1516418457031 124.8489761352539" stroke-width="12.199999809265137" fill="none" stroke="rgb(0, 0, 0)" stroke-opacity="0.84157556" stroke-linecap="round" stroke-linejoin="round"/>
    <path d="M 245.8407440185547 260.69708251953125 C 254.4491729736328 259.19134521484375 279.4388122558594 236.85064697265625 268.7801208496094 207.6332244873047 C 260.6107482910156 225.62841796875 264.87957763671875 231.40464782714844 256.28704833984375 235.77093505859375 C 267.0111389160156 219.52383422851562 295.9910888671875 215.8791046142578 305.1792297363281 204.38821411132812 C 305.7983703613281 203.7885284423828 303.9047546386719 188.87796020507812 329.1754455566406 166.93812561035156" stroke-width="12.19999885559082" fill="none" stroke="rgb(0, 0, 0)" stroke-opacity="0.7519199" stroke-linecap="round" stroke-linejoin="round"/>
    <path d="M 563.3375244140625 357.9013366699219 C 533.810302734375 364.7652893066406 533.185546875 374.4353332519531 555.6052856445312 374.05157470703125 C 537.4257202148438 363.1859436035156 541.1695556640625 370.97705078125 518.6194458007812 368.64373779296875 C 518.8478393554688 369.63800048828125 534.4822998046875 361.1158752441406 541.4657592773438 368.0267639160156 C 519.9317016601562 391.8357849121094 529.7141723632812 408.7655334472656 533.26220703125 432.92205810546875" stroke-width="11.800010681152344" fill="none" stroke="rgb(0, 0, 0)" stroke-opacity="0.031813435" stroke-linecap="round" stroke-linejoin="round"/>
    <path d="M 100.0590591430664 54.503562927246094 C 118.51673126220703 25.538612365722656 116.61067962646484 14.040916442871094 108.3147964477539 8.264737129211426 C 90.02349853515625 -16.699419021606445 118.30911254882812 1.2942728996276855 117.13134002685547 30.170148849487305 C 117.34944152832031 57.72071838378906 117.17988586425781 57.16021728515625 143.29762268066406 77.01766967773438 C 156.31214904785156 87.90670013427734 179.6564178466797 107.30992889404297 189.6676788330078 77.57552337646484" stroke-width="12.199999809265137" fill="none" stroke="rgb(0, 0, 0)" stroke-opacity="0.93495744" stroke-linecap="round" stroke-linejoin="round"/>
    <path d="M 63.810184478759766 35.9630012512207 C 55.971134185791016 44.022727966308594 52.69404602050781 46.00551223754883 63.20021057128906 22.580869674682617 C 92.79054260253906 37.890743255615234 89.07762145996094 8.289306640625 59.449432373046875 10.503289222717285 C 71.17268371582031 3.0256776809692383 75.10320281982422 7.013003826141357 55.791259765625 -1.3594073057174683 C 74.27989959716797 -27.755348205566406 52.85222625732422 -19.71820068359375 67.81114196777344 -30.201353073120117" stroke-width="12.199999809265137" fill="none" stroke="rgb(0, 0, 0)" stroke-opacity="0.7858553" stroke-linecap="round" stroke-linejoin="round"/>
    <path d="M 2.4184837341308594 446.6012878417969 C -2.8647284507751465 456.40667724609375 15.127226829528809 432.09442138671875 -10.135618209838867 439.0486145019531 C 7.327079772949219 450.36614990234375 -17.044527053833008 472.9668273925781 -7.2761077880859375 444.7664489746094 C 3.5578980445861816 423.63043212890625 16.29570198059082 397.55419921875 18.477527618408203 393.1441955566406 C 44.5338020324707 418.7132568359375 67.53089141845703 397.6714782714844 66.39521789550781 374.4776306152344" stroke-width="12.199991226196289" fill="none" stroke="rgb(0, 0, 0)" stroke-opacity="0.011455203" stroke-linecap="round" stroke-linejoin="round"/>
    <path d="M 20.442033767700195 222.9087371826172 C 33.09406280517578 237.1428680419922 44.356170654296875 214.20657348632812 57.93539810180664 201.3039093017578 C 45.188865661621094 173.4227752685547 50.8911247253418 160.0989227294922 79.7492904663086 171.56849670410156 C 58.962921142578125 171.16954040527344 81.72605895996094 183.5567169189453 78.89643859863281 205.44342041015625 C 72.84588623046875 227.76817321777344 48.9735107421875 216.40786743164062 38.49073791503906 213.2552947998047" stroke-width="11.800004959106445" fill="none" stroke="rgb(0, 0, 0)" stroke-opacity="0.54618186" stroke-linecap="round" stroke-linejoin="round"/>
    <path d="M 567.0889892578125 303.1081848144531 C 541.848388671875 299.0179138183594 536.88916015625 324.7494201660156 522.1807250976562 344.7530822753906 C 505.8187255859375 357.7323913574219 513.2240600585938 349.8548889160156 531.6986694335938 323.75518798828125 C 533.3577880859375 352.81524658203125 562.2583618164062 360.9989013671875 556.6041870117188 344.8097839355469 C 528.1637573242188 314.98681640625 532.9466552734375 288.71923828125 551.0311279296875 271.578125" stroke-width="12.199999809265137" fill="none" stroke="rgb(0, 0, 0)" stroke-opacity="0.26587063" stroke-linecap="round" stroke-linejoin="round"/>
    <path d="M 231.67214965820312 562.75732421875 C 213.19126892089844 563.3273315429688 200.79991149902344 585.4774780273438 178.36488342285156 582.8938598632812 C 173.0494842529297 588.9591674804688 185.4773712158203 592.7652587890625 156.79266357421875 605.1658935546875 C 153.2330780029297 631.9622802734375 141.8993682861328 615.020751953125 157.76437377929688 642.2473754882812 C 141.44332885742188 629.40771484375 112.47254180908203 611.0151977539062 108.2408218383789 634.4363403320312" stroke-width="12.199999809265137" fill="none" stroke="rgb(0, 0, 0)" stroke-opacity="0.5298191" stroke-linecap="round" stroke-linejoin="round"/>
  </g>
</svg>
