<?xml version="1.0" ?>
<svg xmlns="http://www.w3.org/2000/svg" version="1.1" width="600" height="600">
  <defs/>
  <g>
    <path d="M 573.640380859375 171.16099548339844 C 599.3341064453125 144.35540771484375 584.3399658203125 124.387451171875 564.8667602539062 101.27078247070312 C 574.5717163085938 124.76365661621094 595.4913330078125 95.768310546875 587.608642578125 84.08746337890625 C 604.45703125 88.70098114013672 578.4117431640625 106.10773468017578 608.3463134765625 90.72976684570312 C 621.5924682617188 80.9793701171875 615.8364868164062 84.30555725097656 626.4237060546875 59.31057357788086" stroke-width="12.0" fill="none" stroke="rgb(0, 0, 0)" stroke-opacity="0.7551999" stroke-linecap="round" stroke-linejoin="round"/>
    <path d="M 456.88482666015625 223.45657348632812 C 454.7001647949219 211.06747436523438 474.46453857421875 218.17921447753906 466.01947021484375 211.29965209960938 C 483.5898132324219 211.917236328125 491.81396484375 208.11241149902344 496.02484130859375 236.88758850097656 C 512.3878173828125 241.81874084472656 533.8680419921875 226.5689697265625 524.0867309570312 239.5106658935547 C 526.796875 234.8031768798828 518.3152465820312 205.2219696044922 491.1714782714844 217.27783203125" stroke-width="12.0" fill="none" stroke="rgb(0, 0, 0)" stroke-opacity="0.52421516" stroke-linecap="round" stroke-linejoin="round"/>
    <path d="M 328.35308837890625 442.3795471191406 C 349.4366760253906 454.22869873046875 360.36614990234375 470.8046875 346.2337951660156 492.3075256347656 C 373.8062438964844 516.3264770507812 366.96380615234375 528.5540161132812 389.9474182128906 543.3214721679688 C 395.33404541015625 540.4588623046875 376.67034912109375 520.586669921875 391.314453125 493.70098876953125 C 419.3457336425781 506.6726379394531 402.2847900390625 479.7850036621094 377.67803955078125 480.9171142578125" stroke-width="12.0" fill="none" stroke="rgb(0, 0, 0)" stroke-opacity="0.41910174" stroke-linecap="round" stroke-linejoin="round"/>
    <path d="M 397.9240417480469 439.0690612792969 C 389.7699279785156 440.9665832519531 398.6819763183594 467.12884521484375 419.0881042480469 462.5747375488281 C 400.7777099609375 436.7807922363281 417.2695617675781 443.1470947265625 403.3301696777344 431.30950927734375 C 418.06939697265625 445.46539306640625 426.4881591796875 422.14544677734375 399.8929138183594 394.2209167480469 C 424.92864990234375 404.0790100097656 436.6883850097656 406.5988464355469 423.2713317871094 423.1028747558594" stroke-width="12.0" fill="none" stroke="rgb(0, 0, 0)" stroke-opacity="0.6560968" stroke-linecap="round" stroke-linejoin="round"/>
    <path d="M 315.5348205566406 57.56456756591797 C 312.5079345703125 46.011749267578125 342.0870056152344 21.565275192260742 329.75732421875 -8.042730331420898 C 311.8384704589844 -29.070039749145508 298.47119140625 -32.4496955871582 278.7947998046875 -18.716880798339844 C 286.7352294921875 0.6541815400123596 257.32379150390625 14.25969123840332 285.8695983886719 37.086299896240234 C 275.8991394042969 46.01125717163086 259.31268310546875 46.30580520629883 277.8077087402344 57.3679084777832" stroke-width="12.0" fill="none" stroke="rgb(0, 0, 0)" stroke-opacity="0.7280357" stroke-linecap="round" stroke-linejoin="round"/>
    <path d="M 201.75213623046875 24.942848205566406 C 213.4134063720703 42.14046859741211 229.2660675048828 58.070796966552734 205.51254272460938 48.02436065673828 C 194.9503173828125 61.08572006225586 185.60260009765625 83.11770629882812 165.45887756347656 113.04662322998047 C 179.8916473388672 131.04933166503906 185.70001220703125 148.79637145996094 162.6103515625 171.5668487548828 C 145.2490234375 191.83155822753906 127.83332824707031 207.4982452392578 151.11053466796875 202.79446411132812" stroke-width="12.0" fill="none" stroke="rgb(0, 0, 0)" stroke-opacity="0.31750083" stroke-linecap="round" stroke-linejoin="round"/>
    <path d="M 591.0066528320312 394.6134338378906 C 590.0101928710938 379.46063232421875 575.8328857421875 366.40728759765625 547.8050537109375 377.9407958984375 C 560.7693481445312 364.2977294921875 584.8529052734375 381.39886474609375 590.1056518554688 378.2838134765625 C 593.8106689453125 367.17596435546875 601.5225830078125 340.84674072265625 599.0189819335938 332.7098388671875 C 590.6400146484375 342.3150329589844 609.8055419921875 350.2657470703125 629.9652709960938 350.10455322265625" stroke-width="12.0" fill="none" stroke="rgb(0, 0, 0)" stroke-opacity="0.00994296" stroke-linecap="round" stroke-linejoin="round"/>
    <path d="M 345.0846862792969 8.040260314941406 C 341.6674499511719 23.39111328125 337.0018005371094 32.58967208862305 312.0347595214844 26.718793869018555 C 302.2091064453125 11.719265937805176 325.1729736328125 20.847660064697266 316.4023742675781 37.39698028564453 C 324.42169189453125 66.89111328125 317.16650390625 38.683753967285156 303.107666015625 29.88608741760254 C 308.1679382324219 20.008195877075195 315.7812194824219 6.39927864074707 311.9198913574219 18.271520614624023" stroke-width="12.0" fill="none" stroke="rgb(0, 0, 0)" stroke-opacity="0.7936564" stroke-linecap="round" stroke-linejoin="round"/>
    <path d="M 344.29156494140625 526.5694580078125 C 324.7105712890625 531.572509765625 348.6889953613281 538.9736938476562 330.7325439453125 535.5073852539062 C 350.0969543457031 525.0921020507812 371.81646728515625 501.0499572753906 377.5643005371094 492.18505859375 C 400.50177001953125 490.1468811035156 390.75872802734375 461.645751953125 368.4479064941406 434.7514343261719 C 361.6292724609375 424.71661376953125 360.954833984375 403.0003967285156 349.425537109375 386.0948791503906" stroke-width="12.0" fill="none" stroke="rgb(0, 0, 0)" stroke-opacity="0.58884335" stroke-linecap="round" stroke-linejoin="round"/>
    <path d="M 456.6963195800781 281.3204040527344 C 469.9176330566406 306.5001220703125 446.731201171875 334.94268798828125 444.2202453613281 327.74407958984375 C 422.2824401855469 301.00262451171875 425.39215087890625 280.5171203613281 431.6236572265625 302.40618896484375 C 434.44610595703125 289.8340759277344 417.509521484375 303.9505615234375 407.1830749511719 306.712890625 C 384.4953918457031 293.34564208984375 368.66705322265625 285.06658935546875 372.4753112792969 262.8065185546875" stroke-width="12.0" fill="none" stroke="rgb(0, 0, 0)" stroke-opacity="0.82628715" stroke-linecap="round" stroke-linejoin="round"/>
    <path d="M 407.3437805175781 202.64280700683594 C 391.4016418457031 222.6425323486328 374.20916748046875 242.13926696777344 374.2557678222656 249.40638732910156 C 394.62274169921875 227.57467651367188 406.7867126464844 229.23939514160156 408.06317138671875 241.04994201660156 C 399.9365539550781 214.97125244140625 407.1551513671875 208.4622802734375 388.1015625 216.672119140625 C 396.0333557128906 195.9451904296875 416.9217834472656 181.7480926513672 424.8465576171875 208.2432403564453" stroke-width="12.0" fill="none" stroke="rgb(0, 0, 0)" stroke-opacity="0.2951357" stroke-linecap="round" stroke-linejoin="round"/>
    <path d="M 342.95965576171875 177.52120971679688 C 315.6950988769531 163.26377868652344 332.80535888671875 186.3922882080078 340.0966796875 185.78607177734375 C 352.232421875 163.0511474609375 359.349853515625 184.3592071533203 369.51904296875 186.05064392089844 C 375.1113586425781 159.28604125976562 356.3954772949219 137.02821350097656 378.86602783203125 128.49635314941406 C 350.10308837890625 134.45303344726562 371.7320556640625 158.12904357910156 355.4701843261719 167.5772247314453" stroke-width="12.0" fill="none" stroke="rgb(0, 0, 0)" stroke-opacity="0.9504125" stroke-linecap="round" stroke-linejoin="round"/>
    <path d="M 121.7254638671875 425.880615234375 C 117.20955657958984 407.72967529296875 138.56346130371094 428.28326416015625 145.9630126953125 420.1531982421875 C 163.88316345214844 431.58721923828125 135.74032592773438 456.1798095703125 155.59103393554688 467.8629150390625 C 184.7158660888672 490.2466125488281 160.54966735839844 460.63006591796875 154.3374786376953 446.7132263183594 C 171.74114990234375 423.3626708984375 144.2041473388672 421.4239807128906 156.14892578125 392.778564453125" stroke-width="12.0" fill="none" stroke="rgb(0, 0, 0)" stroke-opacity="0.36517724" stroke-linecap="round" stroke-linejoin="round"/>
    <path d="M 63.33196258544922 226.73907470703125 C 37.50448226928711 218.37451171875 59.718772888183594 232.13931274414062 36.73114776611328 214.18246459960938 C 11.132345199584961 226.17955017089844 26.1026611328125 201.12469482421875 10.878376007080078 219.37911987304688 C -11.884681701660156 233.38735961914062 8.9230375289917 224.61221313476562 20.233903884887695 224.4504852294922 C 2.09645938873291 199.18023681640625 8.734265327453613 194.52503967285156 3.2032039165496826 196.9544219970703" stroke-width="12.0" fill="none" stroke="rgb(0, 0, 0)" stroke-opacity="0.70304555" stroke-linecap="round" stroke-linejoin="round"/>
    <path d="M 458.5489501953125 76.28662109375 C 472.30279541015625 93.7894515991211 477.3675842285156 97.21188354492188 451.2294616699219 100.82598876953125 C 436.259765625 87.9454574584961 408.2528076171875 93.08068084716797 380.2883605957031 85.0394287109375 C 400.4452209472656 81.063232421875 424.13629150390625 64.51507568359375 412.47650146484375 51.74776840209961 C 419.3870544433594 23.14617156982422 416.12103271484375 36.63194274902344 416.9895935058594 23.8837947845459" stroke-width="12.0" fill="none" stroke="rgb(0, 0, 0)" stroke-opacity="0.4359417" stroke-linecap="round" stroke-linejoin="round"/>
    <path d="M 47.38951110839844 19.270055770874023 C 31.649518966674805 35.72470474243164 51.73037338256836 29.344074249267578 42.10146713256836 25.37173843383789 C 16.522668838500977 55.223628997802734 7.135883331298828 35.238304138183594 22.703956604003906 37.01384353637695 C 30.743867874145508 27.21126937866211 48.74573516845703 43.44778060913086 51.59274673461914 17.233457565307617 C 60.07339096069336 11.576409339904785 46.588890075683594 -8.547567367553711 29.319538116455078 3.964813232421875" stroke-width="12.0" fill="none" stroke="rgb(0, 0, 0)" stroke-opacity="0.938271" stroke-linecap="round" stroke-linejoin="round"/>
    <path d="M 357.2793273925781 390.1539001464844 C 359.6746520996094 388.2173767089844 382.57830810546875 389.8899841308594 384.00030517578125 386.3717041015625 C 413.3350524902344 395.2566833496094 402.7159118652344 415.50396728515625 432.315185546875 421.3656921386719 C 439.1684875488281 416.1130065917969 455.4375915527344 412.7491149902344 450.8085632324219 426.153076171875 C 454.1373291015625 434.4864196777344 462.0414123535156 422.40350341796875 439.7891540527344 405.8746643066406" stroke-width="12.0" fill="none" stroke="rgb(0, 0, 0)" stroke-opacity="0.78571075" stroke-linecap="round" stroke-linejoin="round"/>
    <path d="M 329.9186096191406 298.95556640625 C 345.9786376953125 275.7659606933594 355.1800537109375 300.1864013671875 327.3614501953125 297.6182861328125 C 342.2297668457031 315.4732666015625 343.007080078125 297.8382568359375 346.4376220703125 275.514404296875 C 372.5914611816406 268.75091552734375 370.7623596191406 288.3056640625 390.5826721191406 306.252197265625 C 401.83038330078125 322.7565002441406 426.363525390625 293.4798278808594 448.50823974609375 298.69097900390625" stroke-width="12.0" fill="none" stroke="rgb(0, 0, 0)" stroke-opacity="0.5720735" stroke-linecap="round" stroke-linejoin="round"/>
    <path d="M 463.76556396484375 301.2411193847656 C 490.8758239746094 278.3922119140625 502.4801330566406 289.24853515625 492.8235778808594 312.25146484375 C 475.51373291015625 293.5037536621094 453.12255859375 295.42022705078125 429.9508056640625 306.4717102050781 C 440.1748962402344 282.0645446777344 445.4540710449219 264.26849365234375 468.3251953125 252.41429138183594 C 444.25482177734375 274.7904052734375 448.36572265625 296.4176025390625 436.4382629394531 272.5757751464844" stroke-width="12.0" fill="none" stroke="rgb(0, 0, 0)" stroke-opacity="0.8963109" stroke-linecap="round" stroke-linejoin="round"/>
    <path d="M 242.51515197753906 436.5001220703125 C 258.0780334472656 418.8248291015625 266.8277587890625 428.75469970703125 263.97894287109375 440.78057861328125 C 263.2441711425781 455.9748840332031 256.2474365234375 465.3810119628906 262.35284423828125 489.5968017578125 C 242.27005004882812 462.4368896484375 223.22047424316406 486.6172180175781 227.33224487304688 485.4952392578125 C 232.3169403076172 489.16278076171875 258.5556335449219 518.0623168945312 270.0650939941406 518.6984252929688" stroke-width="12.0" fill="none" stroke="rgb(0, 0, 0)" stroke-opacity="0.31893608" stroke-linecap="round" stroke-linejoin="round"/>
    <path d="M 440.56134033203125 388.9311828613281 C 440.3905334472656 399.90570068359375 459.2579345703125 377.0401916503906 446.20245361328125 402.7599792480469 C 458.6199035644531 397.375244140625 487.756103515625 405.1443176269531 496.75390625 403.05615234375 C 509.26434326171875 414.9681091308594 524.9287109375 420.10595703125 513.6914672851562 412.38250732421875 C 503.9460754394531 420.7249450683594 525.0437622070312 422.69024658203125 536.3527221679688 423.5651550292969" stroke-width="12.0" fill="none" stroke="rgb(0, 0, 0)" stroke-opacity="0.44814217" stroke-linecap="round" stroke-linejoin="round"/>
    <path d="M 6.571828842163086 110.46319580078125 C 20.364797592163086 93.08235931396484 -3.5417544841766357 93.93846893310547 -29.919618606567383 99.70819854736328 C -25.14029884338379 107.16790771484375 -51.18115997314453 106.71185302734375 -63.15951919555664 91.01386260986328 C -41.07588577270508 101.1073226928711 -57.43347930908203 92.65760040283203 -46.62800979614258 96.58943939208984 C -28.265893936157227 119.40736389160156 -9.726570129394531 141.46914672851562 -0.43179455399513245 159.15086364746094" stroke-width="12.0" fill="none" stroke="rgb(0, 0, 0)" stroke-opacity="0.06401326" stroke-linecap="round" stroke-linejoin="round"/>
    <path d="M 599.4461059570312 109.18260192871094 C 570.910888671875 136.70677185058594 554.9459228515625 136.0333251953125 536.0349731445312 132.12416076660156 C 520.8964233398438 121.1204833984375 522.2607421875 110.12773132324219 496.8586120605469 98.5261001586914 C 503.66717529296875 77.89334106445312 487.44610595703125 49.192291259765625 475.0948486328125 59.21238327026367 C 459.24749755859375 39.14375686645508 487.43109130859375 42.517093658447266 489.32830810546875 55.23270797729492" stroke-width="12.0" fill="none" stroke="rgb(0, 0, 0)" stroke-opacity="0.9745805" stroke-linecap="round" stroke-linejoin="round"/>
    <path d="M 549.0359497070312 225.52093505859375 C 523.7664794921875 244.93435668945312 521.041259765625 231.24697875976562 529.6771850585938 213.02593994140625 C 514.74853515625 225.10145568847656 494.0639953613281 205.02915954589844 521.4694213867188 209.60025024414062 C 542.9808349609375 229.5879669189453 526.026611328125 258.5835266113281 520.408935546875 256.1799011230469 C 521.021484375 244.3432159423828 539.9722900390625 226.2100372314453 552.7197875976562 229.960693359375" stroke-width="12.0" fill="none" stroke="rgb(0, 0, 0)" stroke-opacity="0.6866193" stroke-linecap="round" stroke-linejoin="round"/>
    <path d="M 204.63877868652344 54.307369232177734 C 193.06980895996094 49.2041130065918 176.40988159179688 50.92954635620117 188.06077575683594 27.327932357788086 C 217.0090789794922 7.036930084228516 202.43511962890625 0.4597504734992981 223.6639404296875 -2.502927541732788 C 199.55264282226562 26.430648803710938 194.49911499023438 33.32704162597656 187.90708923339844 11.062277793884277 C 217.8070831298828 12.798917770385742 230.32545471191406 -5.411465167999268 204.35975646972656 -23.73885726928711" stroke-width="12.0" fill="none" stroke="rgb(0, 0, 0)" stroke-opacity="0.9057949" stroke-linecap="round" stroke-linejoin="round"/>
    <path d="M 427.0952453613281 41.899131774902344 C 414.1949768066406 44.072669982910156 422.353759765625 66.29153442382812 417.7997131347656 58.163169860839844 C 412.51385498046875 77.97977447509766 407.6197814941406 103.7550048828125 400.6297302246094 87.47329711914062 C 387.0108337402344 99.65084838867188 379.62823486328125 97.46658325195312 383.29547119140625 109.90921020507812 C 376.7641296386719 103.04344940185547 353.2102966308594 119.69366455078125 362.31396484375 130.0504608154297" stroke-width="12.0" fill="none" stroke="rgb(0, 0, 0)" stroke-opacity="0.45426664" stroke-linecap="round" stroke-linejoin="round"/>
    <path d="M 469.5208740234375 42.98020553588867 C 452.83868408203125 60.97438049316406 473.00579833984375 65.87779998779297 501.68438720703125 42.842742919921875 C 488.8456115722656 72.7464370727539 478.9239196777344 102.08551788330078 483.4097595214844 119.33428955078125 C 492.9105224609375 114.02104187011719 502.8130187988281 86.75968933105469 476.483154296875 100.83972930908203 C 506.4730529785156 87.98236846923828 507.3242492675781 114.3520736694336 482.6087951660156 94.6923599243164" stroke-width="12.0" fill="none" stroke="rgb(0, 0, 0)" stroke-opacity="0.2446906" stroke-linecap="round" stroke-linejoin="round"/>
    <path d="M 135.23065185546875 188.18052673339844 C 153.05328369140625 190.08578491210938 137.07740783691406 179.5156707763672 119.7884292602539 192.6343536376953 C 132.15219116210938 204.6648712158203 134.6129150390625 206.6218719482422 162.0743408203125 229.58831787109375 C 162.23367309570312 248.29608154296875 165.0302276611328 235.0774688720703 149.23228454589844 223.9989471435547 C 136.9225616455078 224.13604736328125 113.90198516845703 203.49412536621094 120.13426208496094 174.20030212402344" stroke-width="12.0" fill="none" stroke="rgb(0, 0, 0)" stroke-opacity="0.4203705" stroke-linecap="round" stroke-linejoin="round"/>
    <path d="M 425.8356628417969 82.4785385131836 C 451.98590087890625 110.1690902709961 433.7581787109375 131.71279907226562 454.9084167480469 149.09373474121094 C 463.86248779296875 132.06932067871094 451.22735595703125 154.19696044921875 459.516845703125 125.1837158203125 C 445.6531982421875 127.19050598144531 460.01385498046875 156.02272033691406 469.1051025390625 153.26649475097656 C 495.13385009765625 170.46775817871094 476.9048156738281 185.13931274414062 471.7771301269531 195.15745544433594" stroke-width="12.0" fill="none" stroke="rgb(0, 0, 0)" stroke-opacity="0.07973878" stroke-linecap="round" stroke-linejoin="round"/>
    <path d="M 184.42396545410156 5.645602226257324 C 173.7574462890625 16.01129722595215 178.4345703125 15.239792823791504 188.46180725097656 -2.2023470401763916 C 214.2704315185547 23.069358825683594 226.4410858154297 3.8438165187835693 203.1429443359375 1.0899875164031982 C 198.78057861328125 3.5934383869171143 206.96902465820312 9.44501781463623 198.00503540039062 -1.0323647260665894 C 212.33551025390625 -15.404831886291504 225.9700469970703 -18.119909286499023 210.57382202148438 -4.374212741851807" stroke-width="12.0" fill="none" stroke="rgb(0, 0, 0)" stroke-opacity="0.25553182" stroke-linecap="round" stroke-linejoin="round"/>
    <path d="M 393.0309143066406 209.4459991455078 C 381.30596923828125 206.29147338867188 356.8046569824219 187.65794372558594 327.3236389160156 164.6813201904297 C 351.98016357421875 160.4473114013672 330.3412780761719 174.3715057373047 313.8529357910156 175.34536743164062 C 287.6979675292969 187.08197021484375 285.0098876953125 214.0221710205078 261.808349609375 222.42691040039062 C 245.396240234375 205.22364807128906 238.11724853515625 225.25457763671875 258.39019775390625 215.14134216308594" stroke-width="12.0" fill="none" stroke="rgb(0, 0, 0)" stroke-opacity="0.6422329" stroke-linecap="round" stroke-linejoin="round"/>
    <path d="M 145.27548217773438 559.8172607421875 C 157.16143798828125 559.6597290039062 131.1519775390625 576.0490112304688 156.44789123535156 581.76513671875 C 136.9683074951172 571.204345703125 163.90158081054688 588.7638549804688 183.13772583007812 591.7377319335938 C 191.29811096191406 594.0546875 217.964111328125 597.0398559570312 228.3841552734375 586.8173828125 C 232.83116149902344 592.2305297851562 236.41046142578125 585.5618286132812 213.8046417236328 569.7625732421875" stroke-width="12.0" fill="none" stroke="rgb(0, 0, 0)" stroke-opacity="0.3902548" stroke-linecap="round" stroke-linejoin="round"/>
    <path d="M 290.74896240234375 568.1809692382812 C 304.4132080078125 557.5812377929688 286.42535400390625 537.0778198242188 264.68585205078125 531.1832885742188 C 246.44935607910156 511.17706298828125 241.71807861328125 540.04150390625 239.9224395751953 511.0111389160156 C 238.9743194580078 527.6400146484375 268.7235412597656 503.7958068847656 246.2268829345703 528.2552490234375 C 233.4884033203125 546.8438110351562 233.86935424804688 523.457275390625 260.5027770996094 523.0560913085938" stroke-width="12.0" fill="none" stroke="rgb(0, 0, 0)" stroke-opacity="0.6413385" stroke-linecap="round" stroke-linejoin="round"/>
    <path d="M 274.1398010253906 526.6182250976562 C 300.9296569824219 513.1753540039062 312.3785400390625 492.771484375 315.17425537109375 469.76153564453125 C 321.5440368652344 490.3685607910156 313.3668518066406 487.4115905761719 319.35772705078125 502.2558288574219 C 326.33953857421875 472.9202575683594 319.980224609375 460.936767578125 291.30731201171875 462.2416687011719 C 318.0777893066406 460.8662414550781 291.38970947265625 448.89276123046875 298.6594543457031 424.8678894042969" stroke-width="12.0" fill="none" stroke="rgb(0, 0, 0)" stroke-opacity="0.3986227" stroke-linecap="round" stroke-linejoin="round"/>
    <path d="M 504.3847961425781 512.6798095703125 C 526.5137939453125 538.697265625 555.95361328125 508.86004638671875 538.8895263671875 538.2164916992188 C 517.8173828125 515.6026000976562 533.2254028320312 507.77484130859375 556.0125732421875 507.5309143066406 C 579.836181640625 508.2448425292969 573.8106079101562 535.827392578125 578.1116943359375 511.33074951171875 C 574.5977172851562 519.4844970703125 579.1863403320312 513.5770263671875 555.0375366210938 511.806640625" stroke-width="12.0" fill="none" stroke="rgb(0, 0, 0)" stroke-opacity="0.50425816" stroke-linecap="round" stroke-linejoin="round"/>
    <path d="M 219.12591552734375 125.9906005859375 C 224.11648559570312 113.95525360107422 213.29501342773438 121.09854888916016 201.8301544189453 107.39852905273438 C 218.24607849121094 129.6241912841797 201.24562072753906 119.50247955322266 230.39283752441406 111.0910873413086 C 220.71041870117188 98.501953125 210.88302612304688 102.02720642089844 212.65672302246094 116.0573501586914 C 186.07284545898438 145.01966857910156 211.96292114257812 155.1550750732422 197.5132598876953 162.8883514404297" stroke-width="12.0" fill="none" stroke="rgb(0, 0, 0)" stroke-opacity="0.8564622" stroke-linecap="round" stroke-linejoin="round"/>
    <path d="M 494.5165100097656 214.21311950683594 C 472.311767578125 210.2729034423828 469.5299072265625 187.40524291992188 461.5362548828125 206.3468780517578 C 446.20977783203125 203.9311065673828 416.22052001953125 231.2420196533203 438.21356201171875 243.81668090820312 C 419.859619140625 231.8426055908203 394.633544921875 239.7681121826172 415.25579833984375 237.53826904296875 C 413.5195007324219 221.8658447265625 442.8333435058594 211.77755737304688 438.2383728027344 200.3961639404297" stroke-width="12.0" fill="none" stroke="rgb(0, 0, 0)" stroke-opacity="0.11458795" stroke-linecap="round" stroke-linejoin="round"/>
    <path d="M 589.5410766601562 237.06655883789062 C 605.2210083007812 222.6015167236328 606.6636962890625 237.262451171875 593.8135375976562 262.27313232421875 C 602.262939453125 282.8185729980469 580.8787841796875 269.9844970703125 601.3883666992188 281.8979187011719 C 623.642822265625 302.53240966796875 632.442138671875 312.577880859375 636.701171875 294.3720397949219 C 625.444580078125 307.927490234375 618.831298828125 327.267822265625 601.4478759765625 310.1318054199219" stroke-width="12.0" fill="none" stroke="rgb(0, 0, 0)" stroke-opacity="0.20359385" stroke-linecap="round" stroke-linejoin="round"/>
    <path d="M 110.01332092285156 81.6053695678711 C 110.54004669189453 67.02935791015625 84.8227767944336 64.7273178100586 69.65028381347656 64.89749908447266 C 61.83406448364258 76.11105346679688 74.09130096435547 49.08769989013672 96.0799331665039 58.33500289916992 C 110.15760803222656 78.74335479736328 130.53054809570312 67.80418395996094 148.45106506347656 59.2701416015625 C 165.9530792236328 47.92830276489258 136.86473083496094 33.017982482910156 154.48838806152344 37.438743591308594" stroke-width="12.0" fill="none" stroke="rgb(0, 0, 0)" stroke-opacity="0.62197745" stroke-linecap="round" stroke-linejoin="round"/>
    <path d="M 79.59194946289062 571.3270263671875 C 85.09687805175781 556.7113037109375 91.97430419921875 530.670166015625 73.28290557861328 510.2816162109375 C 95.94742584228516 483.70147705078125 81.79186248779297 491.6988525390625 68.58607482910156 498.2058410644531 C 90.71837615966797 482.90838623046875 120.56278991699219 458.51605224609375 101.86931610107422 440.83209228515625 C 85.04461669921875 436.18267822265625 106.63709259033203 445.6098327636719 125.4359130859375 433.6898193359375" stroke-width="12.0" fill="none" stroke="rgb(0, 0, 0)" stroke-opacity="0.8287621" stroke-linecap="round" stroke-linejoin="round"/>
    <path d="M 42.47671890258789 189.9777069091797 C 71.5367431640625 179.7210235595703 87.72735595703125 152.36048889160156 77.10052490234375 175.85494995117188 C 70.99765014648438 171.11160278320312 56.66271209716797 169.1666717529297 78.36506652832031 171.451416015625 C 98.50308227539062 167.23989868164062 93.7221908569336 149.95997619628906 101.54573059082031 170.04742431640625 C 127.3564224243164 162.64622497558594 115.62439727783203 163.64944458007812 139.64764404296875 189.43031311035156" stroke-width="12.0" fill="none" stroke="rgb(0, 0, 0)" stroke-opacity="0.5505349" stroke-linecap="round" stroke-linejoin="round"/>
    <path d="M 553.5621337890625 129.68478393554688 C 554.1600341796875 132.55548095703125 534.203125 138.83416748046875 532.1515502929688 131.62576293945312 C 556.269775390625 128.55557250976562 585.3154907226562 121.30364990234375 578.556640625 115.03741455078125 C 601.7023315429688 92.57634735107422 606.4718627929688 92.9806137084961 625.161865234375 101.95345306396484 C 615.7196655273438 118.80205535888672 614.2130737304688 124.55728912353516 631.4099731445312 99.9666976928711" stroke-width="12.0" fill="none" stroke="rgb(0, 0, 0)" stroke-opacity="0.81070817" stroke-linecap="round" stroke-linejoin="round"/>
    <path d="M 554.8951416015625 377.49951171875 C 546.7318115234375 360.653076171875 545.15234375 374.6816711425781 551.2024536132812 402.4969787597656 C 545.4075317382812 418.66229248046875 565.3739013671875 407.7807312011719 538.112548828125 418.8540344238281 C 526.26123046875 410.66204833984375 536.5305786132812 398.416259765625 555.0330810546875 382.32818603515625 C 554.30712890625 362.9202880859375 543.4454345703125 372.4258728027344 521.6986694335938 348.7071228027344" stroke-width="12.0" fill="none" stroke="rgb(0, 0, 0)" stroke-opacity="0.60758334" stroke-linecap="round" stroke-linejoin="round"/>
    <path d="M 57.58274841308594 422.5767822265625 C 33.18700408935547 428.5208435058594 59.634944915771484 450.6171569824219 88.11865997314453 439.9304504394531 C 101.41033172607422 456.3564453125 128.69223022460938 444.5875244140625 108.1048812866211 463.59857177734375 C 114.19824981689453 446.8399353027344 113.64884948730469 468.2625427246094 110.23468780517578 450.77630615234375 C 81.643310546875 480.4952087402344 53.33280563354492 453.60223388671875 37.97783660888672 454.0015563964844" stroke-width="12.0" fill="none" stroke="rgb(0, 0, 0)" stroke-opacity="0.28986403" stroke-linecap="round" stroke-linejoin="round"/>
    <path d="M 478.1735534667969 54.02006530761719 C 494.57537841796875 34.10662078857422 507.5166320800781 31.58359146118164 521.36572265625 49.012271881103516 C 505.1376037597656 67.90633392333984 486.6690368652344 62.81391906738281 492.56134033203125 70.81017303466797 C 515.6825561523438 43.074344635009766 543.845458984375 55.24249267578125 536.2852172851562 45.52015686035156 C 561.469970703125 68.35448455810547 544.2740478515625 71.67813110351562 546.4074096679688 72.40956115722656" stroke-width="12.0" fill="none" stroke="rgb(0, 0, 0)" stroke-opacity="0.9375523" stroke-linecap="round" stroke-linejoin="round"/>
    <path d="M 503.5593566894531 320.6504211425781 C 495.26715087890625 338.07763671875 474.4793701171875 337.36688232421875 462.0089416503906 318.13433837890625 C 469.69195556640625 310.3804626464844 498.2322998046875 328.60772705078125 521.7705688476562 316.21343994140625 C 503.3758544921875 296.9613952636719 532.1574096679688 284.1878356933594 516.280029296875 284.57415771484375 C 541.2286376953125 306.79180908203125 523.377685546875 311.971435546875 531.4657592773438 323.95452880859375" stroke-width="12.0" fill="none" stroke="rgb(0, 0, 0)" stroke-opacity="0.91716516" stroke-linecap="round" stroke-linejoin="round"/>
    <path d="M 7.022276878356934 364.79205322265625 C -5.832427024841309 383.6313171386719 -24.082477569580078 410.0086975097656 -45.47532653808594 436.757568359375 C -27.66748046875 429.6352844238281 -27.355224609375 457.3146057128906 -14.919493675231934 466.4654846191406 C -1.3146369457244873 473.2492370605469 -29.605323791503906 475.28204345703125 -7.841682434082031 489.47894287109375 C -23.22206687927246 490.34893798828125 -22.944705963134766 513.214599609375 -20.33123207092285 487.3897399902344" stroke-width="12.0" fill="none" stroke="rgb(0, 0, 0)" stroke-opacity="0.68190354" stroke-linecap="round" stroke-linejoin="round"/>
    <path d="M 196.368408203125 134.97898864746094 C 225.21568298339844 160.7211151123047 208.75390625 182.16976928710938 194.39111328125 180.67408752441406 C 219.85308837890625 180.6001434326172 223.64837646484375 165.89926147460938 206.33810424804688 172.3912353515625 C 227.71932983398438 173.32334899902344 208.55484008789062 190.32138061523438 202.17684936523438 181.56387329101562 C 223.2783660888672 163.991455078125 211.75115966796875 156.30694580078125 191.81716918945312 130.38803100585938" stroke-width="12.0" fill="none" stroke="rgb(0, 0, 0)" stroke-opacity="0.33568156" stroke-linecap="round" stroke-linejoin="round"/>
    <path d="M 442.1143493652344 288.6938171386719 C 445.41192626953125 314.6990661621094 424.1230773925781 327.5787353515625 430.2071838378906 357.0722351074219 C 408.802490234375 342.7076721191406 401.5240173339844 363.2666931152344 394.5475769042969 353.1807556152344 C 421.0364990234375 332.755615234375 446.21240234375 344.93511962890625 454.3412780761719 374.2278137207031 C 428.9637451171875 384.64349365234375 422.4306335449219 414.29742431640625 417.3314514160156 409.6622619628906" stroke-width="12.0" fill="none" stroke="rgb(0, 0, 0)" stroke-opacity="0.58110636" stroke-linecap="round" stroke-linejoin="round"/>
    <path d="M 425.0862121582031 520.9990844726562 C 434.567626953125 535.0070190429688 437.369873046875 544.2371826171875 445.9075622558594 533.7864990234375 C 417.5224304199219 518.4514770507812 404.7196960449219 501.3473205566406 424.1396484375 506.0914306640625 C 451.9219970703125 492.5655517578125 479.8128967285156 479.0408630371094 452.5945129394531 481.2004089355469 C 443.16888427734375 453.76904296875 424.9675598144531 438.1490783691406 407.92034912109375 423.4692077636719" stroke-width="12.0" fill="none" stroke="rgb(0, 0, 0)" stroke-opacity="0.70459276" stroke-linecap="round" stroke-linejoin="round"/>
    <path d="M 241.4120635986328 399.5760192871094 C 260.3623962402344 374.7637023925781 278.2738342285156 377.3587646484375 277.7787780761719 395.057373046875 C 305.0771789550781 414.2530212402344 320.296630859375 438.5130310058594 309.4132080078125 430.51971435546875 C 304.8775329589844 449.02294921875 285.0115966796875 465.3515625 309.7288818359375 464.9099426269531 C 312.0357971191406 467.3518981933594 338.7208251953125 455.7628479003906 312.225830078125 463.76177978515625" stroke-width="12.0" fill="none" stroke="rgb(0, 0, 0)" stroke-opacity="0.21928656" stroke-linecap="round" stroke-linejoin="round"/>
    <path d="M 595.886962890625 412.50823974609375 C 568.3895263671875 411.61004638671875 591.4019165039062 382.76885986328125 562.3876953125 410.12713623046875 C 574.1036376953125 430.686767578125 580.3912963867188 420.7789306640625 572.5604248046875 429.7572021484375 C 557.12890625 432.6645202636719 559.831787109375 445.5841064453125 552.7691040039062 475.5003967285156 C 539.1533203125 446.6898193359375 545.0675048828125 471.6043701171875 559.49951171875 490.1026611328125" stroke-width="12.0" fill="none" stroke="rgb(0, 0, 0)" stroke-opacity="0.12536395" stroke-linecap="round" stroke-linejoin="round"/>
    <path d="M 435.25592041015625 84.57144165039062 C 461.2879638671875 55.890689849853516 447.5841979980469 52.56377029418945 436.9696960449219 67.80917358398438 C 407.10205078125 43.92919158935547 415.1763916015625 41.773033142089844 400.3739013671875 63.857173919677734 C 377.58636474609375 66.24887084960938 362.9232177734375 74.482421875 348.8237609863281 103.02694702148438 C 366.3507995605469 102.64684295654297 351.5559997558594 96.7763442993164 349.9920959472656 73.9253921508789" stroke-width="12.0" fill="none" stroke="rgb(0, 0, 0)" stroke-opacity="0.035424512" stroke-linecap="round" stroke-linejoin="round"/>
    <path d="M 408.8436279296875 446.4704284667969 C 420.4097900390625 424.67938232421875 415.2795104980469 401.5358581542969 423.05023193359375 427.66253662109375 C 394.9988708496094 433.96221923828125 387.211181640625 406.12945556640625 415.4400329589844 409.51019287109375 C 434.878662109375 401.5916442871094 446.8628234863281 398.3513488769531 421.8926086425781 385.9397277832031 C 434.51544189453125 376.9687805175781 411.21002197265625 383.1211242675781 434.05499267578125 389.9449157714844" stroke-width="12.0" fill="none" stroke="rgb(0, 0, 0)" stroke-opacity="0.9626118" stroke-linecap="round" stroke-linejoin="round"/>
    <path d="M 153.20750427246094 215.69900512695312 C 123.26644897460938 235.35430908203125 126.35100555419922 241.61441040039062 111.46395874023438 237.9407501220703 C 85.15589141845703 261.64703369140625 88.62928771972656 254.9304656982422 68.13785552978516 264.9939270019531 C 71.97718048095703 281.926513671875 90.17223358154297 263.7028503417969 108.08013153076172 250.08755493164062 C 102.70919799804688 276.1355285644531 75.17092895507812 251.39170837402344 78.00224304199219 256.8821716308594" stroke-width="12.0" fill="none" stroke="rgb(0, 0, 0)" stroke-opacity="0.28744626" stroke-linecap="round" stroke-linejoin="round"/>
    <path d="M 74.1814956665039 379.9935607910156 C 91.7381362915039 385.5522155761719 82.40725708007812 393.07830810546875 74.73888397216797 384.06036376953125 C 84.9625473022461 406.83624267578125 74.40665435791016 417.33917236328125 64.05343627929688 436.2548828125 C 61.79377746582031 432.2557678222656 81.08479309082031 439.9602355957031 74.21591186523438 454.7672424316406 C 72.88543701171875 438.5347595214844 73.27913665771484 428.22265625 93.71018981933594 457.214111328125" stroke-width="12.0" fill="none" stroke="rgb(0, 0, 0)" stroke-opacity="0.19975783" stroke-linecap="round" stroke-linejoin="round"/>
    <path d="M 16.334505081176758 478.6683654785156 C 45.19965744018555 488.17657470703125 69.68661499023438 512.4107666015625 63.267784118652344 489.98968505859375 C 64.00686645507812 517.513427734375 83.64462280273438 506.0317077636719 65.58977508544922 504.579833984375 C 86.06903839111328 480.828857421875 116.05042266845703 471.2212829589844 99.67898559570312 489.5794677734375 C 126.15129089355469 489.6264343261719 144.47836303710938 512.603515625 143.69786071777344 529.1034545898438" stroke-width="12.0" fill="none" stroke="rgb(0, 0, 0)" stroke-opacity="0.95918" stroke-linecap="round" stroke-linejoin="round"/>
    <path d="M 148.05877685546875 381.2695007324219 C 162.84078979492188 352.8316650390625 173.83079528808594 347.0807189941406 176.15301513671875 318.09893798828125 C 174.03781127929688 296.1456604003906 158.2906494140625 282.9527893066406 175.50189208984375 269.6349182128906 C 187.4601287841797 241.90231323242188 200.77362060546875 214.1511993408203 176.93081665039062 233.62156677246094 C 204.70562744140625 214.62232971191406 207.52447509765625 227.67344665527344 197.25765991210938 236.94651794433594" stroke-width="12.0" fill="none" stroke="rgb(0, 0, 0)" stroke-opacity="0.0021379567" stroke-linecap="round" stroke-linejoin="round"/>
    <path d="M 162.8562774658203 311.71942138671875 C 156.2368927001953 310.8167419433594 161.9134063720703 334.8756408691406 190.65728759765625 350.2604064941406 C 175.8050994873047 344.7251892089844 153.48294067382812 363.5653991699219 150.9561309814453 367.36651611328125 C 143.6227569580078 360.971435546875 138.89805603027344 366.29400634765625 157.88156127929688 364.02410888671875 C 147.9609832763672 369.7725830078125 122.54525756835938 393.7962646484375 100.01190185546875 373.3399963378906" stroke-width="12.0" fill="none" stroke="rgb(0, 0, 0)" stroke-opacity="0.5806424" stroke-linecap="round" stroke-linejoin="round"/>
    <path d="M 460.4602966308594 157.329833984375 C 434.8904724121094 138.45205688476562 423.7183532714844 120.88760375976562 424.3477783203125 121.406982421875 C 407.3092956542969 104.04769897460938 436.36566162109375 108.4374008178711 434.8669128417969 106.02027130126953 C 450.11712646484375 86.9030532836914 425.22711181640625 95.36001586914062 433.4493408203125 82.40940856933594 C 410.77935791015625 106.77989959716797 386.7522888183594 81.0450668334961 384.7593994140625 88.43743133544922" stroke-width="12.0" fill="none" stroke="rgb(0, 0, 0)" stroke-opacity="0.6790014" stroke-linecap="round" stroke-linejoin="round"/>
    <path d="M 137.24395751953125 355.91851806640625 C 121.33329772949219 348.5951843261719 108.818603515625 351.6741638183594 136.6585693359375 343.1460876464844 C 153.12484741210938 372.0521240234375 171.75389099121094 364.0445556640625 183.4274444580078 337.8936767578125 C 174.8140411376953 314.45721435546875 181.0536346435547 303.25238037109375 173.69276428222656 286.5751953125 C 158.18280029296875 280.68902587890625 141.28248596191406 278.50457763671875 139.99533081054688 304.6670837402344" stroke-width="12.0" fill="none" stroke="rgb(0, 0, 0)" stroke-opacity="0.6120138" stroke-linecap="round" stroke-linejoin="round"/>
    <path d="M 561.6485595703125 172.88758850097656 C 582.2258911132812 145.11306762695312 553.30126953125 153.98606872558594 567.3033447265625 132.64076232910156 C 575.4467163085938 140.02581787109375 546.12548828125 133.6955108642578 537.2630004882812 124.3541030883789 C 518.8676147460938 153.62196350097656 511.4357604980469 129.59243774414062 519.3286743164062 135.01638793945312 C 491.49957275390625 163.87716674804688 462.3004455566406 178.25167846679688 471.7392578125 185.8668975830078" stroke-width="12.0" fill="none" stroke="rgb(0, 0, 0)" stroke-opacity="0.32667854" stroke-linecap="round" stroke-linejoin="round"/>
    <path d="M 584.1596069335938 310.6361389160156 C 564.6078491210938 334.40191650390625 580.977783203125 356.4515380859375 563.7516479492188 330.2302551269531 C 589.607177734375 339.0082702636719 615.7183227539062 367.4884338378906 587.1525268554688 380.712890625 C 585.4368286132812 408.2196350097656 563.9378662109375 430.99114990234375 548.518310546875 407.4445495605469 C 537.50244140625 423.440185546875 534.19287109375 430.88262939453125 510.1114501953125 407.59539794921875" stroke-width="12.0" fill="none" stroke="rgb(0, 0, 0)" stroke-opacity="0.7856054" stroke-linecap="round" stroke-linejoin="round"/>
    <path d="M 138.37464904785156 188.640869140625 C 137.68087768554688 192.25938415527344 145.5584716796875 200.04273986816406 138.78768920898438 208.46470642089844 C 153.36325073242188 181.84182739257812 166.32818603515625 181.68475341796875 176.80860900878906 166.32664489746094 C 200.15374755859375 141.60293579101562 223.29335021972656 132.42953491210938 233.44970703125 114.72936248779297 C 240.54002380371094 137.6067352294922 244.43893432617188 137.45376586914062 253.13783264160156 143.34934997558594" stroke-width="12.0" fill="none" stroke="rgb(0, 0, 0)" stroke-opacity="0.29686353" stroke-linecap="round" stroke-linejoin="round"/>
    <path d="M 216.93826293945312 171.7238006591797 C 189.0430450439453 175.68634033203125 167.72848510742188 148.6381378173828 154.82003784179688 156.73324584960938 C 165.20413208007812 152.0786895751953 178.54364013671875 169.00697326660156 172.55335998535156 198.9999237060547 C 168.28192138671875 210.796630859375 164.04722595214844 186.0230255126953 189.1289520263672 160.48646545410156 C 198.10784912109375 134.1785430908203 205.4089813232422 144.4115753173828 194.36839294433594 160.67828369140625" stroke-width="12.0" fill="none" stroke="rgb(0, 0, 0)" stroke-opacity="0.80323577" stroke-linecap="round" stroke-linejoin="round"/>
    <path d="M 211.2529296875 63.838134765625 C 184.11512756347656 90.96597290039062 161.09201049804688 93.48241424560547 160.74166870117188 65.15113067626953 C 188.62387084960938 36.982421875 198.58624267578125 45.621482849121094 181.50694274902344 55.049705505371094 C 162.044677734375 51.79891586303711 142.5953826904297 54.05558776855469 125.60489654541016 65.91925048828125 C 119.5091781616211 62.24188232421875 124.05545043945312 67.92277526855469 121.13908386230469 40.88341522216797" stroke-width="12.0" fill="none" stroke="rgb(0, 0, 0)" stroke-opacity="0.085119285" stroke-linecap="round" stroke-linejoin="round"/>
    <path d="M 522.7667846679688 325.4443664550781 C 551.5731201171875 325.9524841308594 556.0394287109375 327.0550537109375 527.4188842773438 318.84735107421875 C 534.1516723632812 324.00360107421875 550.6921997070312 335.1130065917969 543.353759765625 325.42315673828125 C 532.0658569335938 305.66766357421875 514.7333984375 292.8874206542969 539.4075927734375 308.2784118652344 C 528.727294921875 293.32525634765625 500.4320068359375 303.2503356933594 502.18756103515625 309.8565673828125" stroke-width="12.0" fill="none" stroke="rgb(0, 0, 0)" stroke-opacity="0.47161216" stroke-linecap="round" stroke-linejoin="round"/>
    <path d="M 532.3875122070312 356.914794921875 C 521.8579711914062 344.6764221191406 500.04583740234375 322.2944641113281 521.504150390625 327.244384765625 C 495.539306640625 307.32086181640625 511.0078125 333.5138854980469 516.51220703125 326.47967529296875 C 536.0545043945312 301.9918518066406 533.7284545898438 316.5691223144531 521.589599609375 346.5433654785156 C 531.3985595703125 344.6483154296875 546.8970336914062 363.5938415527344 556.1536865234375 353.27191162109375" stroke-width="12.0" fill="none" stroke="rgb(0, 0, 0)" stroke-opacity="0.42736796" stroke-linecap="round" stroke-linejoin="round"/>
    <path d="M 314.4635314941406 177.79661560058594 C 288.5867919921875 186.52752685546875 261.0849304199219 159.93484497070312 290.040283203125 132.56776428222656 C 297.2563781738281 103.74078369140625 272.2820129394531 111.40923309326172 286.56988525390625 118.99981689453125 C 290.09112548828125 112.85301208496094 271.00897216796875 105.55509948730469 263.9167175292969 116.09365844726562 C 268.51025390625 90.1120834350586 276.8512878417969 109.37210083007812 295.46746826171875 79.44385528564453" stroke-width="12.0" fill="none" stroke="rgb(0, 0, 0)" stroke-opacity="0.6274768" stroke-linecap="round" stroke-linejoin="round"/>
    <path d="M 21.132946014404297 59.10293197631836 C 29.416969299316406 83.94139099121094 4.2921037673950195 93.17411041259766 23.567522048950195 65.04229736328125 C 34.75243377685547 69.7717514038086 24.19660758972168 63.62295913696289 52.25096130371094 51.470558166503906 C 55.22432327270508 75.61907958984375 47.68087387084961 103.59937286376953 27.958770751953125 123.18804931640625 C 25.548076629638672 121.34991455078125 52.246055603027344 107.86698150634766 77.1552505493164 99.76209259033203" stroke-width="12.0" fill="none" stroke="rgb(0, 0, 0)" stroke-opacity="0.70792603" stroke-linecap="round" stroke-linejoin="round"/>
    <path d="M 314.7632141113281 330.7705078125 C 317.44647216796875 332.8294372558594 297.6025390625 359.32080078125 286.4008483886719 360.7967834472656 C 307.3592529296875 376.1552734375 327.7705993652344 399.0910949707031 332.253662109375 414.1228942871094 C 334.1664123535156 404.01434326171875 342.314697265625 414.1691589355469 336.2281799316406 444.1377868652344 C 344.34405517578125 460.384765625 362.5469665527344 459.967529296875 347.860595703125 441.1624755859375" stroke-width="12.0" fill="none" stroke="rgb(0, 0, 0)" stroke-opacity="0.7115879" stroke-linecap="round" stroke-linejoin="round"/>
    <path d="M 527.3896484375 594.4071044921875 C 546.6068115234375 623.4269409179688 535.6068725585938 612.9696655273438 534.654296875 630.59814453125 C 537.5056762695312 656.161376953125 516.000244140625 667.6640625 514.2907104492188 696.2117919921875 C 544.0360107421875 715.0729370117188 540.498779296875 725.7611694335938 524.536865234375 742.3031616210938 C 536.1401977539062 750.2177734375 548.8051147460938 776.4440307617188 528.1366577148438 748.483154296875" stroke-width="12.0" fill="none" stroke="rgb(0, 0, 0)" stroke-opacity="0.9830088" stroke-linecap="round" stroke-linejoin="round"/>
    <path d="M 59.062808990478516 149.3061065673828 C 54.38572692871094 155.50115966796875 70.27086639404297 141.00157165527344 91.20970916748047 152.68519592285156 C 85.60919189453125 176.7295684814453 68.00222778320312 152.16021728515625 96.63706970214844 131.3828125 C 102.935302734375 145.93380737304688 101.15599060058594 125.067138671875 84.69384002685547 152.15773010253906 C 109.31725311279297 178.3859100341797 84.32813262939453 186.76010131835938 102.14228057861328 212.5063018798828" stroke-width="12.0" fill="none" stroke="rgb(0, 0, 0)" stroke-opacity="0.94825405" stroke-linecap="round" stroke-linejoin="round"/>
    <path d="M 65.75735473632812 549.648193359375 C 49.66966247558594 547.037109375 43.38504409790039 532.0864868164062 28.736106872558594 524.2093505859375 C 28.629629135131836 523.9088745117188 8.202349662780762 511.1492919921875 13.659871101379395 506.2876281738281 C 22.241146087646484 523.1593017578125 2.5571177005767822 542.2272338867188 -3.3844971656799316 543.6248168945312 C 23.932819366455078 527.5392456054688 36.82078552246094 517.2574462890625 10.710182189941406 501.1654357910156" stroke-width="12.0" fill="none" stroke="rgb(0, 0, 0)" stroke-opacity="0.34840134" stroke-linecap="round" stroke-linejoin="round"/>
    <path d="M 315.2585144042969 163.29624938964844 C 299.9723815917969 158.51266479492188 282.7402038574219 167.1413116455078 268.1392822265625 161.25314331054688 C 276.638427734375 183.03948974609375 279.3686828613281 202.66053771972656 280.465576171875 228.6241455078125 C 279.8402099609375 201.76922607421875 277.4427185058594 225.6253662109375 272.6633605957031 242.8829345703125 C 254.03717041015625 213.08885192871094 231.7037811279297 200.44357299804688 250.32772827148438 186.14495849609375" stroke-width="12.0" fill="none" stroke="rgb(0, 0, 0)" stroke-opacity="0.81923985" stroke-linecap="round" stroke-linejoin="round"/>
    <path d="M 112.53730010986328 337.7002258300781 C 121.8355484008789 355.1030578613281 132.85499572753906 341.9385681152344 118.97875213623047 343.0099792480469 C 106.00677490234375 370.2724914550781 95.61819458007812 387.7549743652344 108.4518814086914 364.1885070800781 C 129.37942504882812 352.9762878417969 103.74993133544922 352.0779724121094 100.0442123413086 377.61328125 C 94.5344467163086 391.86944580078125 87.43831634521484 372.5588073730469 105.87220764160156 397.875732421875" stroke-width="12.0" fill="none" stroke="rgb(0, 0, 0)" stroke-opacity="0.3792864" stroke-linecap="round" stroke-linejoin="round"/>
    <path d="M 443.8624267578125 509.6423645019531 C 422.5313415527344 486.291259765625 428.5440368652344 476.34552001953125 427.90167236328125 479.72027587890625 C 430.20281982421875 500.2359924316406 405.8153991699219 481.96319580078125 418.8943786621094 502.91119384765625 C 443.5421447753906 517.6526489257812 465.3807373046875 523.2694702148438 474.7922058105469 542.5896606445312 C 444.96868896484375 558.2539672851562 472.311767578125 545.941162109375 455.0699462890625 555.5007934570312" stroke-width="12.0" fill="none" stroke="rgb(0, 0, 0)" stroke-opacity="0.18873903" stroke-linecap="round" stroke-linejoin="round"/>
    <path d="M 230.92237854003906 15.662845611572266 C 203.92489624023438 22.986513137817383 207.65013122558594 36.2247428894043 217.70553588867188 66.12257385253906 C 212.26248168945312 56.358642578125 203.9044952392578 72.65824890136719 225.69229125976562 95.16053771972656 C 228.1027069091797 108.55101776123047 253.90817260742188 82.07662200927734 235.55914306640625 100.68913269042969 C 258.4126281738281 109.32259368896484 278.1211242675781 93.46190643310547 252.71470642089844 65.43396759033203" stroke-width="12.0" fill="none" stroke="rgb(0, 0, 0)" stroke-opacity="0.02403185" stroke-linecap="round" stroke-linejoin="round"/>
    <path d="M 360.0231628417969 561.81982421875 C 350.8215026855469 544.60009765625 376.8970031738281 540.8970947265625 363.11004638671875 566.1982421875 C 357.0683288574219 560.906005859375 344.281982421875 574.768798828125 358.0526123046875 587.98876953125 C 380.5345458984375 617.1302490234375 386.3088073730469 636.8878784179688 403.8233642578125 621.6771850585938 C 421.44171142578125 646.8624267578125 392.36322021484375 661.1942749023438 411.4978942871094 662.0328369140625" stroke-width="12.0" fill="none" stroke="rgb(0, 0, 0)" stroke-opacity="0.6468924" stroke-linecap="round" stroke-linejoin="round"/>
    <path d="M 187.73802185058594 185.84718322753906 C 179.64398193359375 201.0303192138672 191.05702209472656 227.043701171875 181.3929901123047 198.03826904296875 C 194.29006958007812 171.5992431640625 223.9335174560547 160.8964080810547 195.049560546875 158.5491180419922 C 220.01919555664062 153.8189239501953 232.45387268066406 132.537109375 237.2859649658203 132.90834045410156 C 239.69837951660156 111.895263671875 251.42648315429688 118.03433227539062 236.32359313964844 118.48751831054688" stroke-width="12.0" fill="none" stroke="rgb(0, 0, 0)" stroke-opacity="0.40452296" stroke-linecap="round" stroke-linejoin="round"/>
    <path d="M 47.204345703125 56.32209777832031 C 74.1037368774414 57.7641487121582 97.79032135009766 31.846317291259766 84.21502685546875 7.367618560791016 C 57.01247787475586 -2.5255515575408936 29.814369201660156 -25.463712692260742 46.0667610168457 -1.5576987266540527 C 28.504905700683594 3.407227039337158 41.24333190917969 -17.90959358215332 18.711963653564453 -6.451239585876465 C 21.5051212310791 -3.879239797592163 48.50949478149414 -15.4014253616333 56.85251235961914 -42.14837646484375" stroke-width="12.0" fill="none" stroke="rgb(0, 0, 0)" stroke-opacity="0.49343175" stroke-linecap="round" stroke-linejoin="round"/>
    <path d="M 25.455272674560547 364.51611328125 C -0.9888765811920166 383.8782653808594 -11.820440292358398 384.142578125 -20.260971069335938 371.06341552734375 C -25.360607147216797 363.63323974609375 3.8053762912750244 361.7315979003906 22.104225158691406 339.05517578125 C -4.686161518096924 348.9214172363281 -24.936687469482422 325.26861572265625 -53.57502746582031 311.7532043457031 C -36.90129089355469 326.2026672363281 -57.079261779785156 316.35986328125 -49.443580627441406 333.89801025390625" stroke-width="12.0" fill="none" stroke="rgb(0, 0, 0)" stroke-opacity="0.24467684" stroke-linecap="round" stroke-linejoin="round"/>
    <path d="M 591.4691772460938 557.2476196289062 C 601.7433471679688 536.29150390625 592.1743774414062 533.9142456054688 564.6077270507812 531.6524047851562 C 557.2128295898438 550.6992797851562 585.99462890625 551.2802734375 594.8319091796875 522.6165771484375 C 610.7265014648438 514.93408203125 602.6754760742188 494.14154052734375 594.050048828125 473.82049560546875 C 579.6859741210938 500.1250915527344 573.0523071289062 489.043701171875 554.0999755859375 468.08026123046875" stroke-width="12.0" fill="none" stroke="rgb(0, 0, 0)" stroke-opacity="0.08218039" stroke-linecap="round" stroke-linejoin="round"/>
    <path d="M 389.4671936035156 402.86260986328125 C 389.8180236816406 430.01318359375 395.7493591308594 457.01806640625 394.169189453125 465.8511047363281 C 398.1784362792969 481.39642333984375 409.3713073730469 470.124267578125 399.96636962890625 457.80712890625 C 377.9761657714844 432.51348876953125 373.3607482910156 414.188232421875 376.20281982421875 432.031494140625 C 377.9440002441406 445.4332580566406 348.2358703613281 462.149658203125 377.8400573730469 450.8930358886719" stroke-width="12.0" fill="none" stroke="rgb(0, 0, 0)" stroke-opacity="0.76539004" stroke-linecap="round" stroke-linejoin="round"/>
  </g>
</svg>
