<?xml version="1.0" ?>
<svg xmlns="http://www.w3.org/2000/svg" version="1.1" width="600" height="600">
  <defs/>
  <g>
    <path d="M 267.63995361328125 187.728759765625 C 271.0390930175781 177.66322326660156 264.7521057128906 190.705322265625 284.6676940917969 164.56166076660156 C 267.9971008300781 160.29933166503906 253.5345001220703 159.33572387695312 230.02447509765625 166.6751251220703 C 244.0879364013672 193.82650756835938 242.7982177734375 181.74766540527344 240.8721160888672 175.95318603515625 C 250.17601013183594 183.0765380859375 270.01885986328125 186.19033813476562 271.9209289550781 185.66189575195312" stroke-width="12.19999885559082" fill="none" stroke="rgb(0, 0, 0)" stroke-opacity="0.6179637" stroke-linecap="round" stroke-linejoin="round"/>
    <path d="M 562.1633911132812 503.58538818359375 C 591.0763549804688 495.14495849609375 573.3707885742188 497.61700439453125 590.3194580078125 516.713623046875 C 607.5008544921875 492.9948425292969 623.9492797851562 474.96337890625 640.4352416992188 488.2559814453125 C 631.2940673828125 493.4046630859375 652.5736694335938 468.12164306640625 670.8609008789062 488.6344299316406 C 654.9674072265625 472.8621826171875 636.4064331054688 471.9219665527344 638.8469848632812 442.50665283203125" stroke-width="11.800004005432129" fill="none" stroke="rgb(0, 0, 0)" stroke-opacity="0.49917418" stroke-linecap="round" stroke-linejoin="round"/>
    <path d="M 527.3828735351562 570.5999755859375 C 546.141357421875 573.1508178710938 519.6416015625 560.8568725585938 510.79302978515625 565.1837768554688 C 514.00732421875 536.167724609375 503.7117614746094 551.7611083984375 490.3721618652344 529.128173828125 C 509.19097900390625 500.8606872558594 515.010009765625 526.1008911132812 500.8420715332031 504.1952209472656 C 483.0590515136719 502.8904113769531 507.2476806640625 497.18988037109375 511.31695556640625 519.746337890625" stroke-width="11.80000114440918" fill="none" stroke="rgb(0, 0, 0)" stroke-opacity="0.17437245" stroke-linecap="round" stroke-linejoin="round"/>
    <path d="M 579.656982421875 150.3834228515625 C 609.4188232421875 177.16128540039062 605.3482666015625 186.736572265625 589.1909790039062 200.73275756835938 C 575.468994140625 224.59115600585938 550.0139770507812 201.9366912841797 538.4867553710938 219.4546661376953 C 543.1016235351562 197.9222869873047 536.0853271484375 219.87359619140625 529.2694091796875 209.15350341796875 C 555.0889282226562 205.5229034423828 575.6918334960938 223.20985412597656 554.8212890625 252.7870330810547" stroke-width="12.19999885559082" fill="none" stroke="rgb(0, 0, 0)" stroke-opacity="0.5851273" stroke-linecap="round" stroke-linejoin="round"/>
    <path d="M 168.92994689941406 93.07575988769531 C 189.08131408691406 106.68238067626953 208.67169189453125 90.5741195678711 234.53897094726562 103.18928527832031 C 231.31980895996094 128.04995727539062 213.96734619140625 98.2018814086914 225.28111267089844 92.50752258300781 C 244.52723693847656 87.22673034667969 257.4224853515625 93.28327941894531 247.4199981689453 64.03987884521484 C 258.6310119628906 66.05459594726562 243.92864990234375 62.486412048339844 252.42433166503906 74.16690826416016" stroke-width="12.19999885559082" fill="none" stroke="rgb(0, 0, 0)" stroke-opacity="0.64341676" stroke-linecap="round" stroke-linejoin="round"/>
    <path d="M 292.94879150390625 12.394966125488281 C 267.13958740234375 4.936320781707764 249.047119140625 -8.046751022338867 219.91322326660156 -32.438961029052734 C 193.13101196289062 -3.888838291168213 218.589599609375 -33.82147979736328 233.80577087402344 -17.712656021118164 C 233.7456817626953 -6.366113662719727 214.46595764160156 16.20781135559082 188.0426025390625 4.1820855140686035 C 209.1990966796875 19.090322494506836 226.6268310546875 20.820884704589844 223.96115112304688 16.75519561767578" stroke-width="12.199999809265137" fill="none" stroke="rgb(0, 0, 0)" stroke-opacity="0.638778" stroke-linecap="round" stroke-linejoin="round"/>
    <path d="M 418.166748046875 497.9895324707031 C 425.52020263671875 516.2191772460938 452.766357421875 512.7279052734375 430.3542785644531 541.3128662109375 C 419.5762023925781 553.5490112304688 427.0247802734375 555.5731201171875 454.8643493652344 536.356201171875 C 471.9386291503906 508.7227478027344 492.799072265625 523.8176879882812 480.0196533203125 517.0591430664062 C 474.3406066894531 513.1323852539062 444.46270751953125 518.8816528320312 443.7041320800781 527.2169189453125" stroke-width="12.199999809265137" fill="none" stroke="rgb(0, 0, 0)" stroke-opacity="0.2833453" stroke-linecap="round" stroke-linejoin="round"/>
    <path d="M 183.84226989746094 166.53932189941406 C 202.48814392089844 169.89434814453125 231.4126434326172 156.14739990234375 218.53614807128906 161.41961669921875 C 225.85035705566406 158.47970581054688 212.49441528320312 168.3688507080078 226.9186553955078 176.0552215576172 C 214.50439453125 164.3024444580078 207.20545959472656 186.9254913330078 214.3127899169922 165.02276611328125 C 197.139404296875 160.04884338378906 187.597900390625 153.51516723632812 199.58938598632812 127.76734924316406" stroke-width="12.199999809265137" fill="none" stroke="rgb(0, 0, 0)" stroke-opacity="0.7689685" stroke-linecap="round" stroke-linejoin="round"/>
    <path d="M 313.9616394042969 561.7400512695312 C 297.00677490234375 538.1809692382812 274.53125 552.2139282226562 302.9593505859375 579.6582641601562 C 323.3680419921875 581.3301391601562 304.1690368652344 572.5810546875 287.38946533203125 587.8131103515625 C 313.3010559082031 581.9866943359375 336.80792236328125 583.270751953125 335.15411376953125 605.7262573242188 C 364.5531005859375 600.0840454101562 340.2628173828125 595.739013671875 360.7350158691406 600.1697387695312" stroke-width="12.199999809265137" fill="none" stroke="rgb(0, 0, 0)" stroke-opacity="0.9817703" stroke-linecap="round" stroke-linejoin="round"/>
    <path d="M 167.6460418701172 432.2176208496094 C 174.4098663330078 433.0065612792969 201.22145080566406 418.2380676269531 184.72189331054688 406.37005615234375 C 210.1654052734375 433.93939208984375 215.47962951660156 436.5888977050781 188.36012268066406 440.9237976074219 C 168.46449279785156 439.2281799316406 181.87742614746094 415.7837219238281 193.9842071533203 411.7780456542969 C 175.23052978515625 396.1977233886719 146.5554962158203 416.0386962890625 136.85227966308594 424.29656982421875" stroke-width="11.800000190734863" fill="none" stroke="rgb(0, 0, 0)" stroke-opacity="0.55990905" stroke-linecap="round" stroke-linejoin="round"/>
    <path d="M 57.36686706542969 180.2759552001953 C 85.2205810546875 158.85264587402344 69.75902557373047 148.8579864501953 93.35235595703125 175.48025512695312 C 106.61162567138672 156.9279327392578 129.93052673339844 152.6830291748047 116.22345733642578 133.22091674804688 C 92.3781509399414 129.2537841796875 64.44573211669922 126.5917739868164 66.08805084228516 106.32937622070312 C 61.08632278442383 127.75167083740234 64.61017608642578 130.08203125 62.80980682373047 155.93971252441406" stroke-width="12.199999809265137" fill="none" stroke="rgb(0, 0, 0)" stroke-opacity="0.6908218" stroke-linecap="round" stroke-linejoin="round"/>
    <path d="M 535.0237426757812 440.4472351074219 C 534.914794921875 430.81390380859375 506.1905212402344 416.3027648925781 482.4075622558594 390.87921142578125 C 492.9254455566406 392.41015625 505.07733154296875 400.032470703125 486.3482666015625 413.8843688964844 C 470.2314453125 420.43621826171875 457.08575439453125 421.1368713378906 454.7270812988281 437.8028869628906 C 436.698486328125 439.57470703125 442.92108154296875 469.2369079589844 468.218994140625 482.8825988769531" stroke-width="12.19999885559082" fill="none" stroke="rgb(0, 0, 0)" stroke-opacity="0.8951297" stroke-linecap="round" stroke-linejoin="round"/>
    <path d="M 37.86500549316406 563.095947265625 C 16.074718475341797 585.0516357421875 20.157411575317383 600.063720703125 45.65774154663086 577.03369140625 C 34.26164245605469 586.8078002929688 8.743925094604492 581.4823608398438 12.770344734191895 600.552734375 C 33.034034729003906 582.4375 52.5920295715332 567.5910034179688 42.47135543823242 559.95947265625 C 20.26113510131836 574.3936157226562 13.6643705368042 548.226318359375 33.215538024902344 567.7950439453125" stroke-width="12.199997901916504" fill="none" stroke="rgb(0, 0, 0)" stroke-opacity="0.57201785" stroke-linecap="round" stroke-linejoin="round"/>
    <path d="M 358.7545166015625 594.9625854492188 C 351.0146179199219 613.5863037109375 359.81268310546875 586.2208862304688 375.6402587890625 577.0857543945312 C 373.7294616699219 594.761474609375 399.18450927734375 580.5792236328125 418.5591125488281 576.3480224609375 C 424.34735107421875 551.1246948242188 422.0268249511719 577.6676025390625 409.8512268066406 554.6378173828125 C 393.52947998046875 571.6256103515625 397.36529541015625 542.5316162109375 377.2384948730469 540.9451904296875" stroke-width="11.800000190734863" fill="none" stroke="rgb(0, 0, 0)" stroke-opacity="0.18407588" stroke-linecap="round" stroke-linejoin="round"/>
    <path d="M 455.95361328125 101.96942901611328 C 475.4967346191406 107.19111633300781 496.4906921386719 95.37239074707031 517.5267944335938 75.88329315185547 C 493.228271484375 68.67888641357422 496.41583251953125 96.00172424316406 477.9510803222656 104.83049774169922 C 470.8127136230469 94.43375396728516 461.7999267578125 102.61001586914062 446.0403747558594 93.2615737915039 C 461.73406982421875 110.86653137207031 433.87176513671875 95.30406951904297 420.4844055175781 93.05110168457031" stroke-width="12.199997901916504" fill="none" stroke="rgb(0, 0, 0)" stroke-opacity="0.1670854" stroke-linecap="round" stroke-linejoin="round"/>
    <path d="M 116.3341293334961 174.8269805908203 C 101.39071655273438 190.0442352294922 84.44686126708984 179.0598602294922 77.3170166015625 202.22015380859375 C 104.26783752441406 191.4872283935547 75.2334213256836 195.21974182128906 68.61930084228516 218.77838134765625 C 75.7033462524414 230.57879638671875 68.58002471923828 255.32791137695312 43.640743255615234 276.1436462402344 C 29.64455795288086 305.1849365234375 10.363907814025879 296.6634521484375 5.683077335357666 324.5124816894531" stroke-width="12.199999809265137" fill="none" stroke="rgb(0, 0, 0)" stroke-opacity="0.2704471" stroke-linecap="round" stroke-linejoin="round"/>
    <path d="M 175.45486450195312 462.7254333496094 C 172.34873962402344 483.0581359863281 149.54837036132812 472.5729064941406 176.7229461669922 468.9407653808594 C 169.84759521484375 476.60369873046875 176.3502655029297 482.3033142089844 174.20069885253906 458.9564514160156 C 190.4695281982422 452.340576171875 180.51193237304688 440.4458312988281 194.859130859375 469.85943603515625 C 168.50045776367188 442.1194763183594 192.02952575683594 432.66656494140625 215.53550720214844 417.59320068359375" stroke-width="11.800000190734863" fill="none" stroke="rgb(0, 0, 0)" stroke-opacity="0.49600503" stroke-linecap="round" stroke-linejoin="round"/>
    <path d="M 33.28240203857422 572.5228881835938 C 19.821205139160156 567.488525390625 2.9049549102783203 550.2908935546875 19.13283920288086 576.574951171875 C 23.705509185791016 564.59326171875 7.073633670806885 593.2869262695312 -14.230000495910645 616.927490234375 C -15.64199161529541 604.7125854492188 -17.361339569091797 585.2162475585938 -32.513729095458984 586.2369995117188 C -50.173099517822266 614.7160034179688 -68.03997039794922 639.6469116210938 -41.33585739135742 611.1902465820312" stroke-width="11.80063247680664" fill="none" stroke="rgb(0, 0, 0)" stroke-opacity="0.017020661" stroke-linecap="round" stroke-linejoin="round"/>
    <path d="M 110.31097412109375 159.8460235595703 C 110.21729278564453 132.20420837402344 133.84046936035156 148.43052673339844 149.12753295898438 135.8050994873047 C 126.23157501220703 159.25640869140625 120.6387939453125 170.0427703857422 150.15869140625 151.56077575683594 C 131.45008850097656 153.4425048828125 124.65341186523438 171.48509216308594 153.4450225830078 144.91664123535156 C 179.730224609375 164.53268432617188 154.4980010986328 188.60281372070312 146.75897216796875 178.94784545898438" stroke-width="12.199996948242188" fill="none" stroke="rgb(0, 0, 0)" stroke-opacity="0.48400033" stroke-linecap="round" stroke-linejoin="round"/>
    <path d="M 96.81315612792969 524.8292846679688 C 87.03925323486328 554.5136108398438 95.10360717773438 540.420166015625 83.02276611328125 554.465087890625 C 96.25841522216797 527.716796875 107.76762390136719 509.5456848144531 89.09353637695312 499.591552734375 C 82.88350677490234 506.9193115234375 103.56561279296875 501.41876220703125 80.89122772216797 477.0624084472656 C 60.17330551147461 497.0042724609375 42.4196662902832 493.353271484375 68.82282257080078 469.0216369628906" stroke-width="12.199999809265137" fill="none" stroke="rgb(0, 0, 0)" stroke-opacity="0.57596517" stroke-linecap="round" stroke-linejoin="round"/>
    <path d="M 570.7733154296875 111.77731323242188 C 566.9920654296875 83.00713348388672 589.4104614257812 96.33526611328125 568.7395629882812 68.43230438232422 C 573.0256958007812 73.28663635253906 581.6937255859375 76.28008270263672 600.8816528320312 47.47602081298828 C 572.3256225585938 48.48666763305664 573.1079711914062 62.575138092041016 593.5941772460938 48.961490631103516 C 618.8191528320312 28.426240921020508 615.2114868164062 10.043302536010742 585.891845703125 -19.55181884765625" stroke-width="12.199991226196289" fill="none" stroke="rgb(0, 0, 0)" stroke-opacity="0.97961026" stroke-linecap="round" stroke-linejoin="round"/>
    <path d="M 222.38613891601562 380.4733581542969 C 207.39671325683594 364.6283874511719 191.4153289794922 365.7724914550781 213.83192443847656 370.2027587890625 C 204.71951293945312 382.2308654785156 199.80929565429688 385.3046569824219 214.39102172851562 374.42132568359375 C 210.7412567138672 373.7435607910156 215.11634826660156 400.45062255859375 185.7273712158203 381.4698181152344 C 184.27859497070312 356.85101318359375 167.36483764648438 374.6635437011719 189.78977966308594 376.78924560546875" stroke-width="11.800004959106445" fill="none" stroke="rgb(0, 0, 0)" stroke-opacity="0.06320162" stroke-linecap="round" stroke-linejoin="round"/>
    <path d="M 154.22396850585938 101.48810577392578 C 161.7677764892578 126.5688705444336 147.9156036376953 104.4450454711914 118.4106216430664 94.75064086914062 C 124.66278839111328 100.82657623291016 96.12227630615234 110.63529968261719 110.29008483886719 84.72816467285156 C 82.5652084350586 70.76397705078125 99.13655853271484 59.48958206176758 101.10073852539062 50.362796783447266 C 88.88851165771484 70.67887878417969 99.29625701904297 81.16043853759766 112.56332397460938 58.16228485107422" stroke-width="11.800004005432129" fill="none" stroke="rgb(0, 0, 0)" stroke-opacity="0.4012928" stroke-linecap="round" stroke-linejoin="round"/>
    <path d="M 215.72555541992188 422.0025634765625 C 211.3545684814453 410.2532653808594 235.60105895996094 402.65203857421875 224.73583984375 416.7541809082031 C 233.0628204345703 415.4356689453125 225.02841186523438 435.96685791015625 216.34573364257812 446.0946044921875 C 187.55374145507812 416.8491516113281 183.03797912597656 415.5745544433594 172.1038055419922 424.753662109375 C 190.76336669921875 443.1470031738281 211.18447875976562 422.96337890625 191.5948944091797 423.7264099121094" stroke-width="11.800000190734863" fill="none" stroke="rgb(0, 0, 0)" stroke-opacity="0.21772909" stroke-linecap="round" stroke-linejoin="round"/>
    <path d="M 255.68788146972656 226.47222900390625 C 231.17588806152344 201.95831298828125 208.11056518554688 216.5773162841797 211.65939331054688 229.54928588867188 C 207.32553100585938 250.8749237060547 223.19302368164062 268.62200927734375 231.75059509277344 251.555419921875 C 249.98428344726562 248.40664672851562 238.7714080810547 219.6532745361328 261.4544982910156 208.67848205566406 C 282.87554931640625 237.30616760253906 256.21551513671875 247.8990478515625 272.7111511230469 276.9737243652344" stroke-width="11.80000114440918" fill="none" stroke="rgb(0, 0, 0)" stroke-opacity="0.49509442" stroke-linecap="round" stroke-linejoin="round"/>
    <path d="M 102.99227142333984 574.0555419921875 C 73.38811492919922 564.3914184570312 47.01475143432617 558.9893798828125 38.19586181640625 547.8799438476562 C 58.44393539428711 557.588623046875 55.611778259277344 552.6901245117188 64.02976989746094 569.1767578125 C 84.45326232910156 544.2025756835938 108.98101806640625 557.596435546875 99.69010162353516 549.1005859375 C 87.65044403076172 568.8995361328125 113.36515045166016 578.8799438476562 86.95980072021484 600.849365234375" stroke-width="11.800006866455078" fill="none" stroke="rgb(0, 0, 0)" stroke-opacity="0.092471704" stroke-linecap="round" stroke-linejoin="round"/>
    <path d="M 77.9326400756836 179.95616149902344 C 95.9867935180664 158.42222595214844 68.0714111328125 176.5718231201172 51.87607192993164 204.54327392578125 C 74.74201965332031 180.33859252929688 63.45296096801758 199.40310668945312 34.45417022705078 181.96522521972656 C 61.33352279663086 171.51925659179688 47.962589263916016 183.61903381347656 39.9765625 159.92477416992188 C 19.942373275756836 180.0094451904297 42.394561767578125 164.69874572753906 64.38619232177734 153.04315185546875" stroke-width="12.199999809265137" fill="none" stroke="rgb(0, 0, 0)" stroke-opacity="0.42425472" stroke-linecap="round" stroke-linejoin="round"/>
    <path d="M 467.8382568359375 300.4502258300781 C 487.3489990234375 273.1047058105469 484.4970397949219 275.4450988769531 486.735107421875 293.76971435546875 C 497.9238586425781 314.4565124511719 482.7359619140625 324.2743225097656 461.61492919921875 349.7525939941406 C 447.875732421875 379.13983154296875 431.0507507324219 397.2911071777344 408.98651123046875 394.1509094238281 C 401.72314453125 388.7718505859375 428.2319030761719 382.61578369140625 406.9512634277344 366.5060119628906" stroke-width="11.800002098083496" fill="none" stroke="rgb(0, 0, 0)" stroke-opacity="0.7451822" stroke-linecap="round" stroke-linejoin="round"/>
    <path d="M 435.4749755859375 417.9052429199219 C 413.8365783691406 394.8448486328125 415.9876708984375 383.6293640136719 422.3179626464844 373.9377136230469 C 445.22747802734375 393.5979309082031 442.6260681152344 376.6596374511719 448.5316162109375 392.9877014160156 C 469.7223205566406 373.9686279296875 480.462158203125 348.6925354003906 505.4490966796875 331.8870544433594 C 499.6585998535156 359.5521240234375 528.8809204101562 387.703857421875 514.9879150390625 360.6363525390625" stroke-width="11.800085067749023" fill="none" stroke="rgb(0, 0, 0)" stroke-opacity="0.70490515" stroke-linecap="round" stroke-linejoin="round"/>
    <path d="M 112.80838775634766 141.62510681152344 C 142.6301727294922 140.66188049316406 124.20648956298828 169.82334899902344 123.82029724121094 182.46263122558594 C 117.34461975097656 185.704833984375 136.29635620117188 165.79873657226562 158.7289581298828 144.5697479248047 C 169.29786682128906 129.30764770507812 185.0621337890625 130.02902221679688 171.06031799316406 101.6661148071289 C 190.6080322265625 93.87879943847656 210.51895141601562 78.60728454589844 189.60946655273438 104.22844696044922" stroke-width="12.199996948242188" fill="none" stroke="rgb(0, 0, 0)" stroke-opacity="0.53480005" stroke-linecap="round" stroke-linejoin="round"/>
    <path d="M 593.6309204101562 519.467041015625 C 574.8966674804688 500.2388916015625 557.0557250976562 523.4867553710938 555.500732421875 510.0958557128906 C 532.1798095703125 487.7699890136719 557.9606323242188 494.5714416503906 531.6429443359375 481.26812744140625 C 502.02685546875 472.138671875 479.43963623046875 500.4172058105469 507.6456604003906 473.96221923828125 C 478.4343566894531 461.7456359863281 457.4834289550781 447.25909423828125 431.5960388183594 429.7599182128906" stroke-width="12.19999885559082" fill="none" stroke="rgb(0, 0, 0)" stroke-opacity="0.027243776" stroke-linecap="round" stroke-linejoin="round"/>
    <path d="M 483.41241455078125 378.998291015625 C 483.88031005859375 364.22344970703125 465.30810546875 360.6799621582031 440.0069580078125 367.8492126464844 C 417.54248046875 384.3228454589844 411.9037170410156 356.04852294921875 392.0378112792969 345.6591491699219 C 419.4242858886719 371.1894836425781 405.1903076171875 400.97314453125 430.668701171875 419.2742614746094 C 447.0586242675781 443.3213806152344 449.7167663574219 455.701416015625 440.3597412109375 435.2820129394531" stroke-width="12.199999809265137" fill="none" stroke="rgb(0, 0, 0)" stroke-opacity="0.7508975" stroke-linecap="round" stroke-linejoin="round"/>
    <path d="M 113.94649505615234 583.5327758789062 C 92.09667205810547 594.8950805664062 95.54207611083984 609.2994384765625 66.11825561523438 595.4649047851562 C 68.07847595214844 581.3409423828125 66.54931640625 582.3052368164062 41.23734664916992 571.7413940429688 C 61.96501159667969 551.099853515625 85.50387573242188 576.1416625976562 108.63077545166016 548.74609375 C 84.21793365478516 546.768310546875 84.07772827148438 541.0364379882812 108.09156799316406 570.5743408203125" stroke-width="12.199970245361328" fill="none" stroke="rgb(0, 0, 0)" stroke-opacity="0.4273636" stroke-linecap="round" stroke-linejoin="round"/>
    <path d="M 283.9005126953125 89.4966049194336 C 259.8532409667969 116.18144989013672 242.42630004882812 97.4100112915039 249.44126892089844 90.13182067871094 C 220.38705444335938 104.14875030517578 217.8033905029297 120.17387390136719 246.07928466796875 136.4420166015625 C 227.40106201171875 109.91453552246094 216.4796905517578 107.72297668457031 227.6580810546875 134.79559326171875 C 250.4556884765625 122.0308837890625 238.57192993164062 126.25699615478516 244.55667114257812 156.10902404785156" stroke-width="12.199999809265137" fill="none" stroke="rgb(0, 0, 0)" stroke-opacity="0.60644" stroke-linecap="round" stroke-linejoin="round"/>
    <path d="M 494.322021484375 110.34750366210938 C 511.8337097167969 112.9572982788086 535.2181396484375 115.64450073242188 524.9185180664062 140.40028381347656 C 538.6864013671875 142.0426483154297 508.7319641113281 153.32273864746094 506.861083984375 148.4158935546875 C 517.3770141601562 168.91859436035156 495.7830810546875 145.14344787597656 474.2397766113281 128.09561157226562 C 490.0643005371094 134.7449188232422 506.1802673339844 131.09156799316406 498.2161865234375 144.1570587158203" stroke-width="12.199999809265137" fill="none" stroke="rgb(0, 0, 0)" stroke-opacity="0.9412422" stroke-linecap="round" stroke-linejoin="round"/>
    <path d="M 332.79254150390625 219.87942504882812 C 335.7066955566406 214.34556579589844 347.3072204589844 239.2864532470703 323.0301208496094 232.6571502685547 C 311.9509582519531 257.5426330566406 298.4285583496094 237.9007568359375 307.0668029785156 212.45982360839844 C 284.8731689453125 194.2725067138672 270.47064208984375 167.87461853027344 280.065185546875 195.65386962890625 C 289.310546875 172.13388061523438 264.9094543457031 148.5023651123047 287.1925354003906 168.700439453125" stroke-width="12.19999885559082" fill="none" stroke="rgb(0, 0, 0)" stroke-opacity="0.5082614" stroke-linecap="round" stroke-linejoin="round"/>
    <path d="M 227.6077880859375 26.77878761291504 C 229.80795288085938 -1.3590097427368164 208.4262237548828 -25.537580490112305 187.05758666992188 -28.20730209350586 C 195.85214233398438 -24.482126235961914 206.7418670654297 -2.8212921619415283 213.4591522216797 -6.6643829345703125 C 237.71827697753906 -32.76583480834961 213.891357421875 -36.281532287597656 222.97500610351562 -25.82012939453125 C 218.7938232421875 1.7645260095596313 243.69593811035156 30.669679641723633 226.73910522460938 14.323570251464844" stroke-width="12.199995994567871" fill="none" stroke="rgb(0, 0, 0)" stroke-opacity="0.14867015" stroke-linecap="round" stroke-linejoin="round"/>
    <path d="M 236.68519592285156 135.2105255126953 C 256.7269287109375 107.9429931640625 227.26612854003906 114.39073944091797 212.51629638671875 105.99967193603516 C 241.38075256347656 122.56658172607422 216.4741668701172 137.7592315673828 240.883056640625 123.3235092163086 C 224.29800415039062 111.92029571533203 209.36277770996094 88.38856506347656 219.60968017578125 79.42729187011719 C 226.39984130859375 80.26787567138672 254.13494873046875 86.36387634277344 238.06436157226562 63.693138122558594" stroke-width="12.199997901916504" fill="none" stroke="rgb(0, 0, 0)" stroke-opacity="0.36866295" stroke-linecap="round" stroke-linejoin="round"/>
    <path d="M 571.8839111328125 439.7151794433594 C 588.6168823242188 426.5130920410156 566.7321166992188 397.4151916503906 580.818359375 377.4565734863281 C 585.603759765625 388.2622375488281 574.3185424804688 377.818359375 582.4321899414062 360.4629821777344 C 609.579833984375 345.7178649902344 592.2264404296875 349.4112243652344 599.311767578125 351.89630126953125 C 573.4993286132812 379.53387451171875 587.5040283203125 409.1875305175781 579.6771240234375 394.8332824707031" stroke-width="12.199999809265137" fill="none" stroke="rgb(0, 0, 0)" stroke-opacity="0.75883466" stroke-linecap="round" stroke-linejoin="round"/>
    <path d="M 429.7687683105469 585.6646118164062 C 437.576904296875 609.9400024414062 426.5387268066406 615.7708740234375 410.7823791503906 618.7166137695312 C 391.53717041015625 618.2528076171875 408.09429931640625 609.4003295898438 415.4216003417969 631.9581298828125 C 427.3604431152344 642.08154296875 449.8486633300781 621.990234375 443.69537353515625 615.3474731445312 C 415.3688659667969 640.8809204101562 428.9364318847656 664.6375122070312 401.5267333984375 677.9221801757812" stroke-width="12.19999885559082" fill="none" stroke="rgb(0, 0, 0)" stroke-opacity="0.9616089" stroke-linecap="round" stroke-linejoin="round"/>
    <path d="M 536.2120361328125 387.5633850097656 C 538.6649169921875 374.0559997558594 541.07080078125 393.2119445800781 528.1544189453125 368.1368408203125 C 505.2641296386719 344.65814208984375 510.82635498046875 345.1332092285156 503.6689758300781 364.8586730957031 C 507.81439208984375 370.3577880859375 483.33502197265625 349.63861083984375 511.1518249511719 325.6174011230469 C 498.12261962890625 300.1473083496094 512.6198120117188 329.6095886230469 490.0643615722656 301.9089050292969" stroke-width="11.800000190734863" fill="none" stroke="rgb(0, 0, 0)" stroke-opacity="0.86433446" stroke-linecap="round" stroke-linejoin="round"/>
    <path d="M 135.37200927734375 65.55912780761719 C 109.26010131835938 54.358882904052734 82.37063598632812 47.8043098449707 105.1773681640625 67.58358764648438 C 113.73501586914062 92.07425689697266 142.21249389648438 97.53553771972656 114.36804962158203 76.07125854492188 C 106.52130889892578 84.59432983398438 128.0218505859375 67.09174346923828 122.22664642333984 49.38640213012695 C 149.07550048828125 69.47630310058594 169.3793182373047 97.0528793334961 192.5098876953125 88.12091064453125" stroke-width="11.80000114440918" fill="none" stroke="rgb(0, 0, 0)" stroke-opacity="0.62957245" stroke-linecap="round" stroke-linejoin="round"/>
    <path d="M 28.722900390625 290.2124938964844 C 16.069534301757812 294.67193603515625 21.237058639526367 302.4755554199219 7.617258071899414 316.99774169921875 C 8.753715515136719 316.7678527832031 -7.265331745147705 317.0705261230469 15.77677059173584 299.259521484375 C 34.93796920776367 297.34014892578125 34.67862319946289 323.2930603027344 6.152501106262207 349.1705017089844 C 25.910282135009766 345.4752197265625 54.23963928222656 330.1974182128906 29.784423828125 340.9125061035156" stroke-width="12.19999885559082" fill="none" stroke="rgb(0, 0, 0)" stroke-opacity="0.6264122" stroke-linecap="round" stroke-linejoin="round"/>
    <path d="M 591.5578002929688 281.95684814453125 C 607.2356567382812 269.17474365234375 614.764892578125 262.4550476074219 587.6734619140625 267.3321533203125 C 584.522705078125 284.33123779296875 611.63916015625 276.0978088378906 620.1675415039062 297.60650634765625 C 640.5358276367188 297.4266662597656 619.4578857421875 294.0723571777344 622.87646484375 289.170654296875 C 605.2044677734375 294.7741394042969 621.0202026367188 291.4642333984375 621.6800537109375 309.31341552734375" stroke-width="11.800000190734863" fill="none" stroke="rgb(0, 0, 0)" stroke-opacity="0.25512728" stroke-linecap="round" stroke-linejoin="round"/>
    <path d="M 425.46038818359375 216.52383422851562 C 399.2066955566406 188.8863983154297 378.1195068359375 171.18975830078125 364.7001037597656 156.51121520996094 C 346.86431884765625 166.46148681640625 336.43634033203125 165.8566131591797 327.1759948730469 175.90841674804688 C 307.3279724121094 147.86424255371094 294.3307800292969 129.31700134277344 294.01739501953125 158.7191925048828 C 301.06201171875 187.3260955810547 301.1350402832031 163.47677612304688 315.0861511230469 186.16635131835938" stroke-width="11.800000190734863" fill="none" stroke="rgb(0, 0, 0)" stroke-opacity="0.9433668" stroke-linecap="round" stroke-linejoin="round"/>
    <path d="M 90.26824188232422 48.84695816040039 C 82.365478515625 40.521583557128906 69.61554718017578 41.13495635986328 98.82087707519531 16.133710861206055 C 72.60740661621094 22.9714412689209 78.95794677734375 39.30619812011719 93.27185821533203 19.781747817993164 C 64.52214813232422 36.8568000793457 41.630889892578125 45.40922546386719 29.59406089782715 31.87179946899414 C 47.11866760253906 14.77721881866455 29.73207664489746 -3.85603928565979 17.709346771240234 7.9657487869262695" stroke-width="11.80000114440918" fill="none" stroke="rgb(0, 0, 0)" stroke-opacity="0.7307834" stroke-linecap="round" stroke-linejoin="round"/>
    <path d="M 108.29634094238281 259.32257080078125 C 124.17535400390625 271.55621337890625 102.15857696533203 301.12115478515625 99.6436767578125 287.9881896972656 C 100.34724426269531 279.72015380859375 104.67109680175781 263.3087158203125 108.90444946289062 287.7259826660156 C 80.39557647705078 293.678466796875 78.14712524414062 268.83624267578125 84.0460433959961 252.6857452392578 C 68.37723541259766 238.85012817382812 63.25263977050781 221.4411163330078 60.8736686706543 191.61495971679688" stroke-width="12.199999809265137" fill="none" stroke="rgb(0, 0, 0)" stroke-opacity="0.6500833" stroke-linecap="round" stroke-linejoin="round"/>
    <path d="M 257.5546875 397.48590087890625 C 236.4069366455078 414.71514892578125 232.1748809814453 387.1449279785156 206.93919372558594 398.8053283691406 C 231.24624633789062 396.6160583496094 233.44488525390625 395.52978515625 224.21070861816406 394.25018310546875 C 215.82293701171875 405.6534729003906 223.58274841308594 379.0379638671875 230.151611328125 349.9425354003906 C 230.7415771484375 332.50787353515625 228.37098693847656 334.09320068359375 198.73846435546875 346.7276306152344" stroke-width="11.800000190734863" fill="none" stroke="rgb(0, 0, 0)" stroke-opacity="0.44543085" stroke-linecap="round" stroke-linejoin="round"/>
    <path d="M 468.0299072265625 488.46099853515625 C 491.9369812011719 459.8853454589844 520.6983032226562 477.13623046875 529.7485961914062 470.4136962890625 C 556.8176879882812 474.7386474609375 547.2490844726562 455.9013366699219 572.4427490234375 435.4588623046875 C 572.5671997070312 455.24322509765625 573.054443359375 478.31640625 570.9637451171875 452.86175537109375 C 542.664306640625 466.5574645996094 520.6329956054688 458.0923767089844 516.2295532226562 482.3575744628906" stroke-width="12.199994087219238" fill="none" stroke="rgb(0, 0, 0)" stroke-opacity="0.36387035" stroke-linecap="round" stroke-linejoin="round"/>
    <path d="M 184.00775146484375 280.5431213378906 C 170.3744354248047 263.76776123046875 174.6750946044922 280.63299560546875 186.37863159179688 257.87249755859375 C 176.01431274414062 261.3263854980469 172.70950317382812 266.3282775878906 181.901611328125 257.9582214355469 C 210.1456298828125 235.08724975585938 190.37388610839844 215.2781982421875 186.45132446289062 207.6063995361328 C 177.2139892578125 235.2035369873047 177.67042541503906 243.38870239257812 175.0335235595703 268.21832275390625" stroke-width="11.80000114440918" fill="none" stroke="rgb(0, 0, 0)" stroke-opacity="0.80538327" stroke-linecap="round" stroke-linejoin="round"/>
    <path d="M 295.48419189453125 103.05158233642578 C 279.1951904296875 90.56334686279297 295.5733947753906 93.59188842773438 300.7563171386719 64.0918197631836 C 274.3845520019531 79.01134490966797 302.09759521484375 74.24009704589844 319.85638427734375 63.754173278808594 C 306.4836120605469 76.21489715576172 282.99554443359375 82.44502258300781 304.0954895019531 75.98524475097656 C 299.7835998535156 58.82460403442383 277.75006103515625 33.87443923950195 275.46282958984375 25.706972122192383" stroke-width="12.199999809265137" fill="none" stroke="rgb(0, 0, 0)" stroke-opacity="0.905567" stroke-linecap="round" stroke-linejoin="round"/>
    <path d="M 312.0933837890625 552.9818115234375 C 341.425537109375 555.229736328125 366.8584899902344 526.7711791992188 380.0151062011719 501.6728210449219 C 405.1590270996094 481.16644287109375 430.58673095703125 488.80145263671875 454.75311279296875 477.3858642578125 C 484.6473388671875 489.7356262207031 473.0345153808594 514.7855834960938 473.01776123046875 523.1072387695312 C 473.1065979003906 544.8973388671875 455.72845458984375 526.8993530273438 443.5901184082031 544.03955078125" stroke-width="12.199999809265137" fill="none" stroke="rgb(0, 0, 0)" stroke-opacity="0.72510993" stroke-linecap="round" stroke-linejoin="round"/>
    <path d="M 371.2640380859375 171.06532287597656 C 374.3067626953125 142.3240966796875 350.3016357421875 119.19368743896484 325.82177734375 115.8723373413086 C 333.8116149902344 105.90888214111328 327.07562255859375 108.8658676147461 324.2004699707031 82.59046173095703 C 330.65594482421875 79.74784088134766 300.9029846191406 103.30841827392578 306.0270080566406 109.17340850830078 C 308.2220153808594 126.0409927368164 320.0327453613281 103.30170440673828 345.2957763671875 97.71417236328125" stroke-width="12.199996948242188" fill="none" stroke="rgb(0, 0, 0)" stroke-opacity="0.21665016" stroke-linecap="round" stroke-linejoin="round"/>
    <path d="M 548.8395385742188 522.5126342773438 C 537.983154296875 525.9320678710938 548.28466796875 549.3812866210938 549.0403442382812 529.0363159179688 C 525.2975463867188 503.3044738769531 541.593017578125 475.39801025390625 554.081787109375 497.481689453125 C 556.3898315429688 515.484130859375 581.0861206054688 531.3804321289062 603.174560546875 520.7665405273438 C 622.9197998046875 546.259765625 650.9793090820312 527.455078125 673.522216796875 508.51141357421875" stroke-width="11.800031661987305" fill="none" stroke="rgb(0, 0, 0)" stroke-opacity="0.003947648" stroke-linecap="round" stroke-linejoin="round"/>
    <path d="M 294.6058044433594 276.4613952636719 C 288.45367431640625 270.7852783203125 297.9636535644531 258.5344543457031 305.46160888671875 236.07669067382812 C 297.766845703125 234.73370361328125 305.7519226074219 214.9200439453125 322.2765197753906 225.0836944580078 C 298.42120361328125 202.67593383789062 327.05108642578125 220.90753173828125 306.2071533203125 208.0464324951172 C 287.6020812988281 218.35792541503906 284.7615966796875 243.789794921875 278.9537353515625 244.10447692871094" stroke-width="12.199995994567871" fill="none" stroke="rgb(0, 0, 0)" stroke-opacity="0.1154212" stroke-linecap="round" stroke-linejoin="round"/>
    <path d="M 111.4860610961914 188.3748321533203 C 138.95677185058594 163.82861328125 159.3013153076172 188.15757751464844 170.1833953857422 197.8327178955078 C 186.85086059570312 196.65869140625 213.98251342773438 225.8857421875 206.17958068847656 228.1451873779297 C 216.28977966308594 226.46090698242188 193.51780700683594 236.21392822265625 183.71340942382812 238.0874786376953 C 162.73793029785156 243.63656616210938 159.14663696289062 260.13446044921875 161.8013153076172 265.1009216308594" stroke-width="11.800000190734863" fill="none" stroke="rgb(0, 0, 0)" stroke-opacity="0.1476839" stroke-linecap="round" stroke-linejoin="round"/>
    <path d="M 558.0256958007812 118.8866195678711 C 575.8434448242188 101.20416259765625 585.3787231445312 128.58570861816406 603.80859375 106.39942932128906 C 579.431884765625 83.176513671875 577.4456176757812 76.44573211669922 599.6357421875 102.6044692993164 C 611.3094482421875 125.77055358886719 583.2529296875 132.02130126953125 610.1087646484375 104.88269805908203 C 602.5194702148438 119.32752227783203 581.053466796875 101.3753433227539 563.3926391601562 109.42459869384766" stroke-width="12.19999885559082" fill="none" stroke="rgb(0, 0, 0)" stroke-opacity="0.80144244" stroke-linecap="round" stroke-linejoin="round"/>
    <path d="M 538.825439453125 349.9530334472656 C 544.0294799804688 321.3815612792969 573.287109375 292.9597473144531 575.7086791992188 293.2698974609375 C 579.05126953125 297.34228515625 572.7796020507812 276.38671875 599.3714599609375 278.69256591796875 C 573.6549072265625 286.4023742675781 577.4969482421875 263.71734619140625 557.76123046875 280.5134582519531 C 534.0528564453125 285.8556823730469 540.1675415039062 262.8621826171875 556.29931640625 281.6177978515625" stroke-width="11.800000190734863" fill="none" stroke="rgb(0, 0, 0)" stroke-opacity="0.64535826" stroke-linecap="round" stroke-linejoin="round"/>
    <path d="M 186.25848388671875 246.12794494628906 C 172.1522216796875 237.50860595703125 178.5308380126953 261.53692626953125 165.86505126953125 286.3636169433594 C 162.5423126220703 311.0137939453125 145.6877899169922 281.9970703125 149.86822509765625 307.0711364746094 C 127.32756805419922 311.7404479980469 150.86705017089844 283.1216735839844 140.81565856933594 283.32318115234375 C 157.29884338378906 311.58203125 128.2020721435547 294.3458557128906 150.31040954589844 276.1431579589844" stroke-width="11.800000190734863" fill="none" stroke="rgb(0, 0, 0)" stroke-opacity="0.8056687" stroke-linecap="round" stroke-linejoin="round"/>
    <path d="M 106.95110321044922 528.80859375 C 100.47421264648438 549.0032958984375 124.9399185180664 523.6340942382812 122.07673645019531 499.70269775390625 C 121.42526245117188 487.0638122558594 124.49411010742188 468.34381103515625 141.02915954589844 448.04840087890625 C 154.3224334716797 425.6551513671875 138.84652709960938 395.99798583984375 162.3216552734375 419.0292053222656 C 146.5403289794922 409.3490905761719 163.19317626953125 398.1790771484375 181.1209716796875 380.74237060546875" stroke-width="11.800000190734863" fill="none" stroke="rgb(0, 0, 0)" stroke-opacity="0.42046452" stroke-linecap="round" stroke-linejoin="round"/>
    <path d="M 362.0879211425781 576.1218872070312 C 386.86187744140625 602.4227905273438 403.80291748046875 575.8099365234375 410.3422546386719 576.5635375976562 C 400.1814270019531 571.67529296875 427.16046142578125 542.9625244140625 423.4640197753906 548.0272827148438 C 450.1058654785156 540.3698120117188 424.8625183105469 521.6534423828125 446.684814453125 492.4146423339844 C 422.9503479003906 471.2500305175781 446.2254943847656 483.9491271972656 423.4222412109375 506.4815979003906" stroke-width="12.199799537658691" fill="none" stroke="rgb(0, 0, 0)" stroke-opacity="0.10297483" stroke-linecap="round" stroke-linejoin="round"/>
    <path d="M 248.13229370117188 106.22318267822266 C 237.23779296875 105.89839935302734 260.8821105957031 103.1718521118164 255.40370178222656 96.18296813964844 C 268.9635925292969 106.24601745605469 269.65960693359375 91.9047622680664 241.96810913085938 82.20006561279297 C 260.4059143066406 90.91824340820312 263.1134338378906 116.03038787841797 279.6694641113281 124.70208740234375 C 275.3837890625 144.52951049804688 272.88336181640625 169.52696228027344 277.9076843261719 143.88525390625" stroke-width="11.80000114440918" fill="none" stroke="rgb(0, 0, 0)" stroke-opacity="0.1451849" stroke-linecap="round" stroke-linejoin="round"/>
    <path d="M 311.4530334472656 427.8916015625 C 329.1698913574219 451.13330078125 302.8623046875 438.9492492675781 319.7452392578125 424.1719665527344 C 315.814453125 425.088134765625 291.1942138671875 416.91314697265625 283.3918151855469 435.38482666015625 C 263.817626953125 459.6130676269531 257.9957275390625 440.4639587402344 285.1543884277344 429.13226318359375 C 283.9127502441406 414.7982177734375 254.57644653320312 399.693603515625 257.89495849609375 423.9349670410156" stroke-width="11.80002212524414" fill="none" stroke="rgb(0, 0, 0)" stroke-opacity="0.00017296457" stroke-linecap="round" stroke-linejoin="round"/>
    <path d="M 332.9013977050781 320.51025390625 C 320.8017883300781 293.49676513671875 319.69610595703125 284.3214416503906 291.25347900390625 294.62005615234375 C 312.3260498046875 297.0251159667969 332.589599609375 291.5212707519531 352.8735656738281 283.4515380859375 C 326.63580322265625 280.8787841796875 322.6122741699219 301.20257568359375 339.94281005859375 273.3021240234375 C 354.18597412109375 257.2043151855469 349.7437744140625 261.3088073730469 330.5469665527344 285.8585205078125" stroke-width="12.19999885559082" fill="none" stroke="rgb(0, 0, 0)" stroke-opacity="0.14906728" stroke-linecap="round" stroke-linejoin="round"/>
    <path d="M 0.6070250272750854 79.1517333984375 C 26.566143035888672 74.64933013916016 5.418538570404053 91.53099822998047 -3.0974230766296387 97.2453842163086 C 0.9663804769515991 68.25801849365234 25.86899185180664 48.90294647216797 40.53424835205078 45.0851936340332 C 57.425106048583984 30.593957901000977 66.17401885986328 35.05400466918945 56.470706939697266 50.240596771240234 C 56.73606491088867 78.1736831665039 86.07325744628906 88.45915985107422 100.37735748291016 105.32759857177734" stroke-width="11.800000190734863" fill="none" stroke="rgb(0, 0, 0)" stroke-opacity="0.61343706" stroke-linecap="round" stroke-linejoin="round"/>
    <path d="M 213.90162658691406 23.436132431030273 C 189.51187133789062 6.977084159851074 191.27841186523438 35.22587203979492 167.00123596191406 37.338260650634766 C 164.13421630859375 43.100223541259766 189.10430908203125 32.30768966674805 172.8900146484375 38.73039245605469 C 168.12486267089844 21.865142822265625 141.7225341796875 36.34897232055664 127.27362060546875 47.00316619873047 C 114.69136810302734 46.03640365600586 91.07839965820312 61.99319076538086 83.52442169189453 88.16654205322266" stroke-width="12.19999885559082" fill="none" stroke="rgb(0, 0, 0)" stroke-opacity="0.9074763" stroke-linecap="round" stroke-linejoin="round"/>
    <path d="M 330.87432861328125 139.53640747070312 C 355.8282470703125 112.48800659179688 335.192626953125 106.44318389892578 357.9689025878906 105.14761352539062 C 375.26544189453125 96.27676391601562 356.5885314941406 98.1738052368164 360.130126953125 86.5418930053711 C 349.22015380859375 112.81819152832031 376.5878601074219 96.36039733886719 372.1180114746094 118.97883605957031 C 385.4272155761719 89.80715942382812 374.53076171875 87.00153350830078 401.3427429199219 64.43417358398438" stroke-width="11.800000190734863" fill="none" stroke="rgb(0, 0, 0)" stroke-opacity="0.39217368" stroke-linecap="round" stroke-linejoin="round"/>
    <path d="M 43.3663330078125 47.28676223754883 C 42.873291015625 55.28284454345703 44.380428314208984 39.07754898071289 61.06425476074219 56.37091827392578 C 81.58600616455078 85.44619750976562 100.84051513671875 107.14030456542969 121.39323425292969 119.9006576538086 C 130.48272705078125 101.5271224975586 122.21871185302734 103.14010620117188 103.73287200927734 79.50070190429688 C 77.40899658203125 108.95030975341797 105.15535736083984 114.30276489257812 112.29450225830078 90.24683380126953" stroke-width="11.800000190734863" fill="none" stroke="rgb(0, 0, 0)" stroke-opacity="0.7776728" stroke-linecap="round" stroke-linejoin="round"/>
    <path d="M 196.48907470703125 382.9483947753906 C 199.60693359375 401.2597961425781 228.96859741210938 416.9232482910156 257.0090637207031 425.78863525390625 C 252.96975708007812 453.867919921875 242.11752319335938 441.6445617675781 232.0556182861328 438.8455810546875 C 251.97161865234375 439.0167541503906 237.6544647216797 435.0648498535156 267.2554016113281 426.4029235839844 C 265.67181396484375 403.3929748535156 274.9251708984375 397.85888671875 273.2521057128906 387.1638488769531" stroke-width="11.80000114440918" fill="none" stroke="rgb(0, 0, 0)" stroke-opacity="0.8418705" stroke-linecap="round" stroke-linejoin="round"/>
    <path d="M 8.163939476013184 408.998046875 C 33.705684661865234 438.9747009277344 30.236347198486328 412.9284362792969 34.30852508544922 440.8623962402344 C 63.158416748046875 442.2944030761719 61.44077682495117 451.47723388671875 66.37884521484375 428.6553039550781 C 61.99787521362305 418.53973388671875 44.44275665283203 395.8446960449219 73.3005599975586 396.0001525878906 C 99.85281372070312 392.09539794921875 110.03153991699219 420.36016845703125 127.06759643554688 404.3398742675781" stroke-width="11.800000190734863" fill="none" stroke="rgb(0, 0, 0)" stroke-opacity="0.76714164" stroke-linecap="round" stroke-linejoin="round"/>
    <path d="M 367.4497375488281 148.5242919921875 C 384.75335693359375 127.1595458984375 375.21783447265625 142.71693420410156 381.70001220703125 116.4817123413086 C 371.8594970703125 116.36725616455078 354.3559875488281 97.0886459350586 354.6012268066406 77.6503677368164 C 357.3999938964844 80.87089538574219 374.8959045410156 95.06620788574219 360.7174072265625 91.18018341064453 C 347.94537353515625 68.84754180908203 352.89984130859375 44.56465148925781 372.4302978515625 66.20307159423828" stroke-width="11.800000190734863" fill="none" stroke="rgb(0, 0, 0)" stroke-opacity="0.4708641" stroke-linecap="round" stroke-linejoin="round"/>
    <path d="M 503.33441162109375 152.66934204101562 C 502.6461181640625 170.69505310058594 526.5714721679688 150.26979064941406 501.8106689453125 179.7508544921875 C 503.2864074707031 157.1798858642578 503.30780029296875 169.24908447265625 519.8330688476562 154.1540069580078 C 536.6175537109375 145.3538360595703 548.02734375 139.83920288085938 545.4135131835938 145.92227172851562 C 558.2528076171875 122.31063079833984 583.8876342773438 152.11260986328125 584.2197875976562 150.25009155273438" stroke-width="11.800003051757812" fill="none" stroke="rgb(0, 0, 0)" stroke-opacity="0.15278704" stroke-linecap="round" stroke-linejoin="round"/>
    <path d="M 509.3081359863281 550.1947021484375 C 488.67144775390625 566.6193237304688 486.4336853027344 583.6873168945312 466.96612548828125 561.8465576171875 C 439.37030029296875 588.8038940429688 450.3844299316406 584.5413208007812 463.5749206542969 606.3421630859375 C 467.7264709472656 610.0386962890625 477.598876953125 600.283935546875 457.1426696777344 594.9408569335938 C 483.7819519042969 621.34228515625 483.1317138671875 591.7650756835938 468.0970153808594 596.2947387695312" stroke-width="11.800002098083496" fill="none" stroke="rgb(0, 0, 0)" stroke-opacity="0.17745842" stroke-linecap="round" stroke-linejoin="round"/>
    <path d="M 69.90885925292969 75.62345886230469 C 55.4686279296875 89.03186798095703 47.453800201416016 67.07381439208984 74.53971862792969 39.280357360839844 C 72.49392700195312 60.270442962646484 73.27589416503906 69.30338287353516 43.82881164550781 61.33052062988281 C 55.98488998413086 85.86932373046875 39.5429573059082 85.1399154663086 53.70249557495117 92.43867492675781 C 43.741024017333984 90.4811019897461 69.99543762207031 98.47761535644531 47.674564361572266 69.36712646484375" stroke-width="12.199996948242188" fill="none" stroke="rgb(0, 0, 0)" stroke-opacity="0.32325825" stroke-linecap="round" stroke-linejoin="round"/>
    <path d="M 279.3568115234375 414.7093811035156 C 307.29888916015625 444.2153625488281 315.90106201171875 455.4872741699219 289.7627868652344 436.9840393066406 C 283.84564208984375 410.47467041015625 299.4294738769531 383.24920654296875 277.1355895996094 365.2416687011719 C 254.7960968017578 355.536865234375 249.00982666015625 337.64093017578125 276.6217041015625 360.0521240234375 C 295.37677001953125 338.04656982421875 301.11334228515625 367.6583251953125 312.4115905761719 377.4254455566406" stroke-width="11.800000190734863" fill="none" stroke="rgb(0, 0, 0)" stroke-opacity="0.5637062" stroke-linecap="round" stroke-linejoin="round"/>
    <path d="M 297.2583312988281 19.212472915649414 C 289.0387878417969 24.693889617919922 302.1281433105469 6.132466793060303 303.7503967285156 -13.269721031188965 C 285.811767578125 -38.49088668823242 303.49066162109375 -34.955623626708984 274.8252258300781 -59.54003143310547 C 285.81011962890625 -30.068998336791992 266.4302978515625 -24.825162887573242 242.10704040527344 -30.890520095825195 C 213.44613647460938 -50.20817947387695 189.08221435546875 -70.26483154296875 168.67884826660156 -77.1265640258789" stroke-width="11.800037384033203" fill="none" stroke="rgb(0, 0, 0)" stroke-opacity="0.022191755" stroke-linecap="round" stroke-linejoin="round"/>
    <path d="M 139.61451721191406 582.7400512695312 C 151.32933044433594 595.5597534179688 135.6658935546875 581.9600219726562 114.65860748291016 561.1408081054688 C 113.44483184814453 563.670166015625 84.22264862060547 567.8653564453125 56.81734085083008 581.548583984375 C 84.25576782226562 571.1044921875 101.75101470947266 582.653564453125 112.6686019897461 565.3819580078125 C 141.3491668701172 544.6768188476562 113.73709869384766 556.6189575195312 97.4800796508789 549.759521484375" stroke-width="11.800003051757812" fill="none" stroke="rgb(0, 0, 0)" stroke-opacity="0.8045506" stroke-linecap="round" stroke-linejoin="round"/>
    <path d="M 300.58734130859375 480.7730712890625 C 280.6229553222656 462.0542297363281 269.6943664550781 455.5191345214844 261.4200439453125 430.6424255371094 C 236.64349365234375 409.3910827636719 258.67333984375 383.1039733886719 248.0125732421875 392.33367919921875 C 231.56187438964844 374.7223815917969 206.70877075195312 365.7137145996094 221.9233856201172 366.5662841796875 C 228.2894287109375 389.5779724121094 255.2297821044922 360.3591003417969 279.1897277832031 376.7255859375" stroke-width="11.800000190734863" fill="none" stroke="rgb(0, 0, 0)" stroke-opacity="0.7017399" stroke-linecap="round" stroke-linejoin="round"/>
    <path d="M 21.479095458984375 67.82357025146484 C 1.2643730640411377 89.44074249267578 -19.037776947021484 63.455379486083984 -21.363649368286133 74.97703552246094 C -8.017148971557617 92.09735870361328 18.23038673400879 94.25122833251953 14.524369239807129 106.18144226074219 C -6.725398063659668 121.9669418334961 -8.271349906921387 96.24191284179688 14.377549171447754 69.68013000488281 C 1.1578660011291504 98.30841827392578 -28.253936767578125 116.05789947509766 -25.599824905395508 87.37899780273438" stroke-width="11.800003051757812" fill="none" stroke="rgb(0, 0, 0)" stroke-opacity="0.14699425" stroke-linecap="round" stroke-linejoin="round"/>
    <path d="M 149.18907165527344 163.33595275878906 C 168.72361755371094 148.16738891601562 196.39479064941406 157.8922882080078 173.131103515625 128.04563903808594 C 158.14108276367188 120.02283477783203 165.5563201904297 133.30447387695312 160.3437042236328 148.53787231445312 C 146.63023376464844 145.4768829345703 120.11333465576172 122.1749496459961 117.30998992919922 135.5709991455078 C 135.37835693359375 146.42474365234375 124.23273468017578 122.78012084960938 129.68406677246094 96.00008392333984" stroke-width="11.800000190734863" fill="none" stroke="rgb(0, 0, 0)" stroke-opacity="0.54516447" stroke-linecap="round" stroke-linejoin="round"/>
    <path d="M 299.18218994140625 211.8007354736328 C 305.25299072265625 223.6978759765625 294.7388610839844 223.6444549560547 276.6794128417969 225.91165161132812 C 250.51068115234375 211.0807647705078 263.10284423828125 209.70875549316406 279.90936279296875 183.14442443847656 C 284.7763671875 203.78041076660156 255.595947265625 202.45660400390625 239.53170776367188 197.48171997070312 C 244.14915466308594 204.63992309570312 256.8644714355469 203.3303985595703 272.7684020996094 189.2707061767578" stroke-width="11.80000114440918" fill="none" stroke="rgb(0, 0, 0)" stroke-opacity="0.51231545" stroke-linecap="round" stroke-linejoin="round"/>
    <path d="M 116.37022399902344 16.300630569458008 C 146.21142578125 -10.87519645690918 168.9896240234375 -32.38520431518555 191.326171875 -20.303810119628906 C 216.45669555664062 2.8231723308563232 226.49937438964844 -22.931636810302734 200.93966674804688 -3.535151720046997 C 174.86056518554688 -33.267059326171875 160.25189208984375 -3.419572591781616 131.61978149414062 -27.31833839416504 C 105.97472381591797 -7.348367691040039 133.75921630859375 8.104187965393066 138.11495971679688 -12.571856498718262" stroke-width="12.199999809265137" fill="none" stroke="rgb(0, 0, 0)" stroke-opacity="0.998512" stroke-linecap="round" stroke-linejoin="round"/>
    <path d="M 121.318115234375 59.03599166870117 C 128.42364501953125 41.89239501953125 152.61322021484375 52.0543098449707 177.48654174804688 62.93191909790039 C 178.86044311523438 56.92484664916992 199.4075469970703 58.86869812011719 224.96444702148438 58.094871520996094 C 223.91087341308594 47.959407806396484 203.54673767089844 25.660921096801758 202.8740234375 38.988563537597656 C 217.36813354492188 10.27253246307373 202.02696228027344 -10.69505500793457 208.37477111816406 -29.986730575561523" stroke-width="12.199912071228027" fill="none" stroke="rgb(0, 0, 0)" stroke-opacity="0.0063068" stroke-linecap="round" stroke-linejoin="round"/>
    <path d="M 574.817138671875 459.6625061035156 C 555.596923828125 431.6580505371094 582.6861572265625 419.81170654296875 579.9622192382812 418.7548828125 C 581.835205078125 429.36834716796875 611.2155151367188 409.1618347167969 590.99462890625 417.1664733886719 C 575.5911865234375 431.5063781738281 546.33349609375 458.04315185546875 567.1536865234375 451.9162902832031 C 560.4666748046875 454.0103759765625 559.3139038085938 445.4790954589844 577.85205078125 462.4049377441406" stroke-width="12.199999809265137" fill="none" stroke="rgb(0, 0, 0)" stroke-opacity="0.35789" stroke-linecap="round" stroke-linejoin="round"/>
  </g>
</svg>
