<?xml version="1.0" ?>
<svg xmlns="http://www.w3.org/2000/svg" version="1.1" width="600" height="600">
  <defs/>
  <g>
    <path d="M 380.1895751953125 577.1749267578125 C 408.4034423828125 588.165283203125 423.6240234375 600.3068237304688 404.8597717285156 586.7137451171875 C 419.40594482421875 579.0484619140625 445.46417236328125 589.6224365234375 433.5477600097656 561.479248046875 C 440.01287841796875 558.8641967773438 437.5748291015625 585.6847534179688 448.3756103515625 593.4378051757812 C 440.774658203125 611.5654907226562 448.8845520019531 637.5347900390625 474.3162841796875 616.3908081054688" stroke-width="12.199999809265137" fill="none" stroke="rgb(0, 0, 0)" stroke-opacity="0.9479351" stroke-linecap="round" stroke-linejoin="round"/>
    <path d="M 269.3409729003906 510.51409912109375 C 244.575439453125 506.8173828125 235.65611267089844 485.9834899902344 252.67803955078125 496.4017639160156 C 249.56764221191406 480.6150817871094 244.05360412597656 485.8006896972656 268.53265380859375 459.5628967285156 C 253.2364501953125 479.4120788574219 246.9922332763672 497.0967102050781 246.2677459716797 471.3641662597656 C 222.3245086669922 445.657958984375 232.00877380371094 435.776611328125 259.0351867675781 413.0010070800781" stroke-width="11.800002098083496" fill="none" stroke="rgb(0, 0, 0)" stroke-opacity="0.6224228" stroke-linecap="round" stroke-linejoin="round"/>
    <path d="M 196.311767578125 473.0020446777344 C 221.07614135742188 477.7911071777344 207.3939666748047 475.27996826171875 229.06744384765625 453.4784240722656 C 231.19544982910156 445.5242614746094 235.6669464111328 464.7497253417969 262.60150146484375 483.2594299316406 C 237.01922607421875 468.9242248535156 255.67520141601562 440.0424499511719 258.9234924316406 422.1209716796875 C 265.9723815917969 402.4429931640625 258.68603515625 400.9297180175781 235.35768127441406 372.0491638183594" stroke-width="11.800004959106445" fill="none" stroke="rgb(0, 0, 0)" stroke-opacity="0.099115096" stroke-linecap="round" stroke-linejoin="round"/>
    <path d="M 546.921630859375 488.49884033203125 C 572.1524658203125 514.6331176757812 594.7595825195312 515.099365234375 592.2388305664062 488.5509338378906 C 595.8328857421875 475.9697570800781 620.3247680664062 458.2122497558594 627.8716430664062 452.8238220214844 C 616.8566284179688 455.9654846191406 605.9439086914062 444.6239318847656 598.655029296875 468.3124084472656 C 610.352294921875 479.9691162109375 591.5689086914062 486.628173828125 577.6853637695312 472.7851867675781" stroke-width="12.199997901916504" fill="none" stroke="rgb(0, 0, 0)" stroke-opacity="0.88361686" stroke-linecap="round" stroke-linejoin="round"/>
    <path d="M 84.84166717529297 120.28787994384766 C 81.55039978027344 100.04229736328125 97.3522720336914 121.93672180175781 117.41902160644531 96.02345275878906 C 118.44628143310547 111.93780517578125 97.80418395996094 82.40196990966797 124.4817123413086 56.98270797729492 C 96.2957763671875 34.860687255859375 73.79986572265625 42.727943420410156 43.88166427612305 25.961074829101562 C 23.908117294311523 11.535778045654297 22.730819702148438 28.497438430786133 22.295473098754883 44.742103576660156" stroke-width="11.800000190734863" fill="none" stroke="rgb(0, 0, 0)" stroke-opacity="0.3040366" stroke-linecap="round" stroke-linejoin="round"/>
    <path d="M 315.4037170410156 461.7159729003906 C 343.7993469238281 472.3680419921875 324.28680419921875 497.6368103027344 340.4149169921875 487.7298278808594 C 348.06365966796875 471.49261474609375 373.6563720703125 479.16107177734375 394.82623291015625 476.6483154296875 C 412.35198974609375 458.521240234375 415.0461730957031 485.7540588378906 397.1769714355469 497.8767395019531 C 409.9834289550781 509.2475280761719 385.00341796875 499.54644775390625 413.5254821777344 472.6878356933594" stroke-width="12.199999809265137" fill="none" stroke="rgb(0, 0, 0)" stroke-opacity="0.9945604" stroke-linecap="round" stroke-linejoin="round"/>
    <path d="M 208.08111572265625 160.48956298828125 C 213.8180389404297 186.5724334716797 222.901611328125 202.35911560058594 206.00135803222656 212.4375762939453 C 181.04856872558594 208.09498596191406 197.01661682128906 230.48480224609375 174.9073486328125 219.6468048095703 C 183.7028350830078 232.88307189941406 168.66571044921875 207.51290893554688 151.5022735595703 235.5756072998047 C 125.79094696044922 238.0794219970703 128.6770477294922 230.4691162109375 133.61050415039062 250.91529846191406" stroke-width="12.199999809265137" fill="none" stroke="rgb(0, 0, 0)" stroke-opacity="0.50387245" stroke-linecap="round" stroke-linejoin="round"/>
    <path d="M 104.65098571777344 132.89663696289062 C 111.94265747070312 105.76821899414062 86.30615997314453 78.77848815917969 77.54275512695312 77.75357818603516 C 48.47171401977539 88.23092651367188 75.43734741210938 92.04291534423828 97.45917510986328 107.76058959960938 C 88.45291137695312 77.90744018554688 81.20653533935547 98.39794921875 76.86141204833984 86.22811126708984 C 87.237548828125 85.96926879882812 74.57766723632812 84.32807922363281 92.78245544433594 54.941280364990234" stroke-width="12.199996948242188" fill="none" stroke="rgb(0, 0, 0)" stroke-opacity="0.54018784" stroke-linecap="round" stroke-linejoin="round"/>
    <path d="M 76.78791809082031 583.6236572265625 C 56.05025863647461 568.2779541015625 39.586971282958984 545.29638671875 45.78065490722656 554.5867309570312 C 34.458595275878906 524.9419555664062 42.530723571777344 552.1207275390625 33.6033821105957 527.6968994140625 C 19.17032241821289 541.3189086914062 -9.899852752685547 555.8845825195312 -32.10540008544922 540.66943359375 C -55.78057861328125 555.8193969726562 -59.632503509521484 571.3363647460938 -58.92643737792969 571.2705688476562" stroke-width="11.800004005432129" fill="none" stroke="rgb(0, 0, 0)" stroke-opacity="0.24706574" stroke-linecap="round" stroke-linejoin="round"/>
    <path d="M 572.6744995117188 568.2506713867188 C 553.3466186523438 541.4072265625 578.984619140625 516.1550903320312 578.3816528320312 534.06884765625 C 568.797607421875 547.3272705078125 589.8364868164062 572.5013427734375 570.0496215820312 564.3443603515625 C 592.441162109375 580.6591796875 586.5556030273438 605.05126953125 564.04833984375 627.4956665039062 C 540.9930419921875 615.471923828125 560.9144897460938 626.2235107421875 583.6163940429688 619.9055786132812" stroke-width="11.800004005432129" fill="none" stroke="rgb(0, 0, 0)" stroke-opacity="0.2145626" stroke-linecap="round" stroke-linejoin="round"/>
    <path d="M 551.6570434570312 534.8779907226562 C 566.2386474609375 538.698486328125 566.960205078125 521.6544799804688 568.8260498046875 518.8244018554688 C 592.632080078125 492.8395690917969 607.5802612304688 510.53863525390625 592.0157470703125 482.37384033203125 C 565.7239379882812 491.1027526855469 589.024658203125 475.3915100097656 579.4454956054688 467.8932189941406 C 599.1112670898438 471.2200622558594 582.3002319335938 461.77313232421875 559.9199829101562 481.438720703125" stroke-width="12.199999809265137" fill="none" stroke="rgb(0, 0, 0)" stroke-opacity="0.6521592" stroke-linecap="round" stroke-linejoin="round"/>
    <path d="M 262.5245361328125 386.1150817871094 C 241.73684692382812 396.955322265625 234.5804901123047 423.57916259765625 216.22911071777344 441.24151611328125 C 232.1873779296875 416.6668395996094 257.7018737792969 402.1551513671875 230.2814483642578 427.15087890625 C 226.73248291015625 425.2275085449219 243.35691833496094 429.1473083496094 271.48394775390625 399.3412780761719 C 266.8268737792969 392.0587158203125 265.08709716796875 391.15704345703125 274.3877258300781 401.14215087890625" stroke-width="11.800004959106445" fill="none" stroke="rgb(0, 0, 0)" stroke-opacity="0.20310667" stroke-linecap="round" stroke-linejoin="round"/>
    <path d="M 459.3324279785156 444.48736572265625 C 449.8659362792969 450.92669677734375 439.6015319824219 449.90631103515625 444.9734191894531 438.517578125 C 427.1732482910156 416.00225830078125 414.303955078125 399.4129638671875 415.4024353027344 380.5152587890625 C 409.7176818847656 376.80419921875 398.41943359375 379.1365966796875 404.55908203125 379.9832458496094 C 429.29248046875 372.78448486328125 455.37005615234375 377.0798034667969 485.1252746582031 354.75689697265625" stroke-width="11.80000114440918" fill="none" stroke="rgb(0, 0, 0)" stroke-opacity="0.081546396" stroke-linecap="round" stroke-linejoin="round"/>
    <path d="M 553.3883056640625 561.9052124023438 C 576.08447265625 559.9609375 584.5836181640625 575.225341796875 565.4525146484375 558.6205444335938 C 561.8804931640625 547.9193725585938 560.188232421875 535.2689208984375 565.0878295898438 550.4028930664062 C 557.938232421875 522.659912109375 529.8882446289062 493.5166320800781 537.91455078125 486.4748229980469 C 508.9964904785156 503.8682556152344 481.3218994140625 486.59100341796875 458.8066711425781 484.0203857421875" stroke-width="12.199995994567871" fill="none" stroke="rgb(0, 0, 0)" stroke-opacity="0.1840189" stroke-linecap="round" stroke-linejoin="round"/>
    <path d="M 335.9902038574219 369.4831237792969 C 337.88653564453125 349.2339782714844 367.8645324707031 348.8888244628906 356.5693664550781 333.8594970703125 C 374.74664306640625 340.6340026855469 346.2530822753906 323.5536804199219 363.05596923828125 312.66217041015625 C 352.30841064453125 283.1334533691406 329.80462646484375 265.50531005859375 304.7249755859375 247.20867919921875 C 304.1475830078125 223.6304931640625 315.4023742675781 240.65313720703125 322.0925598144531 238.9388427734375" stroke-width="11.800000190734863" fill="none" stroke="rgb(0, 0, 0)" stroke-opacity="0.5220519" stroke-linecap="round" stroke-linejoin="round"/>
    <path d="M 392.5810546875 478.3881530761719 C 374.5766296386719 462.0738830566406 396.1158447265625 458.0595703125 382.8593444824219 443.7319641113281 C 379.2049255371094 461.11761474609375 394.840087890625 463.1724548339844 376.0055847167969 471.18450927734375 C 376.4700622558594 448.7926330566406 389.4589538574219 448.1289978027344 397.5904541015625 464.7462158203125 C 380.8333435058594 447.4859619140625 363.18695068359375 461.77117919921875 387.2496032714844 479.7893371582031" stroke-width="11.80000114440918" fill="none" stroke="rgb(0, 0, 0)" stroke-opacity="0.3093751" stroke-linecap="round" stroke-linejoin="round"/>
    <path d="M 278.8260192871094 71.1423568725586 C 253.02056884765625 71.40180206298828 235.88729858398438 65.32406616210938 258.9245300292969 69.95622253417969 C 237.6449432373047 63.99232482910156 236.74021911621094 92.7957534790039 260.6839599609375 114.84095764160156 C 254.9604949951172 124.63933563232422 240.8236541748047 104.22396850585938 269.19622802734375 133.74266052246094 C 285.7981262207031 136.535888671875 267.89306640625 114.64547729492188 274.6126708984375 120.93358612060547" stroke-width="11.800003051757812" fill="none" stroke="rgb(0, 0, 0)" stroke-opacity="0.67762953" stroke-linecap="round" stroke-linejoin="round"/>
    <path d="M 599.2001342773438 564.6124267578125 C 582.455078125 539.371337890625 603.8402709960938 564.3396606445312 613.5697021484375 572.2731323242188 C 643.1791381835938 569.4189453125 614.9762573242188 563.384765625 601.431640625 578.5961303710938 C 617.328369140625 554.56591796875 610.7673950195312 540.134033203125 612.8505249023438 532.4993286132812 C 589.9397583007812 512.8098754882812 608.5288696289062 500.6484069824219 624.0114135742188 472.4557800292969" stroke-width="12.199995994567871" fill="none" stroke="rgb(0, 0, 0)" stroke-opacity="0.6112172" stroke-linecap="round" stroke-linejoin="round"/>
    <path d="M 476.48553466796875 124.6357421875 C 482.9606018066406 110.81421661376953 461.1372985839844 118.84798431396484 452.8819885253906 126.21404266357422 C 423.35260009765625 144.6735076904297 413.4673767089844 121.17740631103516 418.22650146484375 142.4508056640625 C 409.0851745605469 128.12615966796875 423.5166931152344 135.04153442382812 413.67144775390625 147.5601043701172 C 423.70025634765625 144.36245727539062 438.9215087890625 151.84043884277344 417.767822265625 138.6491241455078" stroke-width="12.199999809265137" fill="none" stroke="rgb(0, 0, 0)" stroke-opacity="0.8872343" stroke-linecap="round" stroke-linejoin="round"/>
    <path d="M 345.3941955566406 325.0645446777344 C 370.7336120605469 309.596435546875 341.213134765625 292.8727722167969 340.89935302734375 279.4389953613281 C 334.25421142578125 270.1448974609375 320.9325866699219 262.3734130859375 327.5918273925781 273.7149353027344 C 350.0033264160156 276.2084045410156 340.8350524902344 294.10906982421875 312.98760986328125 287.237060546875 C 293.3824462890625 268.94049072265625 273.1362609863281 243.8121795654297 283.6678466796875 270.1744384765625" stroke-width="11.800000190734863" fill="none" stroke="rgb(0, 0, 0)" stroke-opacity="0.9376503" stroke-linecap="round" stroke-linejoin="round"/>
    <path d="M 428.1758728027344 46.368045806884766 C 447.00421142578125 32.25395584106445 454.7705078125 9.081650733947754 482.1559753417969 -17.349002838134766 C 475.026611328125 -24.328222274780273 496.2423095703125 -3.2230753898620605 490.6055908203125 -31.726102828979492 C 482.14324951171875 -14.632149696350098 490.9904479980469 -43.845252990722656 467.2688903808594 -35.85415267944336 C 481.4179382324219 -64.72181701660156 465.4437561035156 -66.35908508300781 450.3637390136719 -90.88521575927734" stroke-width="12.199996948242188" fill="none" stroke="rgb(0, 0, 0)" stroke-opacity="0.5119537" stroke-linecap="round" stroke-linejoin="round"/>
    <path d="M 159.55300903320312 434.937744140625 C 177.40931701660156 411.905029296875 166.08306884765625 393.24493408203125 140.51324462890625 405.76812744140625 C 138.82948303222656 409.3980712890625 127.9812240600586 395.0692443847656 117.32559204101562 422.0031433105469 C 121.9328384399414 397.2081604003906 94.8881607055664 378.33795166015625 122.78133392333984 375.3543395996094 C 148.32177734375 347.0965881347656 130.5428924560547 331.4786071777344 109.96275329589844 310.5233154296875" stroke-width="11.80000114440918" fill="none" stroke="rgb(0, 0, 0)" stroke-opacity="0.26396137" stroke-linecap="round" stroke-linejoin="round"/>
    <path d="M 562.4830322265625 193.8324432373047 C 571.2601318359375 193.3509521484375 573.5921020507812 190.83189392089844 561.3968505859375 168.98065185546875 C 589.7210083007812 178.1105499267578 583.6944580078125 185.40432739257812 605.0121459960938 173.6506805419922 C 613.9835815429688 150.64854431152344 624.52880859375 126.97579956054688 637.2368774414062 144.4247283935547 C 621.8967895507812 166.04454040527344 635.6183471679688 175.7803192138672 651.027587890625 167.9063720703125" stroke-width="12.199999809265137" fill="none" stroke="rgb(0, 0, 0)" stroke-opacity="0.91924685" stroke-linecap="round" stroke-linejoin="round"/>
    <path d="M 200.4023895263672 117.06330871582031 C 221.37123107910156 97.31806945800781 197.28819274902344 74.02655792236328 226.91708374023438 87.63180541992188 C 246.09149169921875 74.80013275146484 243.3575897216797 49.28963088989258 228.7030487060547 33.13005447387695 C 225.8123016357422 30.045114517211914 239.65626525878906 23.204404830932617 251.85055541992188 25.06166648864746 C 259.96832275390625 45.69911575317383 235.95150756835938 60.98883819580078 255.66714477539062 53.81156921386719" stroke-width="11.800000190734863" fill="none" stroke="rgb(0, 0, 0)" stroke-opacity="0.70030516" stroke-linecap="round" stroke-linejoin="round"/>
    <path d="M 159.0611114501953 406.91943359375 C 171.2808074951172 436.00714111328125 157.14117431640625 442.0357666015625 139.6766815185547 437.0549011230469 C 115.06307220458984 426.3172607421875 131.55572509765625 397.9773254394531 128.88372802734375 368.53887939453125 C 109.15076446533203 351.32684326171875 121.7361831665039 373.49969482421875 133.52264404296875 370.48797607421875 C 139.20758056640625 366.6937255859375 142.48439025878906 381.46722412109375 161.81556701660156 353.9933166503906" stroke-width="11.800000190734863" fill="none" stroke="rgb(0, 0, 0)" stroke-opacity="0.85691833" stroke-linecap="round" stroke-linejoin="round"/>
    <path d="M 116.43661499023438 229.55075073242188 C 120.88579559326172 213.1785125732422 117.55042266845703 213.7022247314453 103.97406768798828 227.4605712890625 C 114.07574462890625 226.27015686035156 120.19032287597656 226.44351196289062 142.06398010253906 253.49996948242188 C 164.60507202148438 283.1560974121094 181.54029846191406 310.04412841796875 198.17218017578125 320.27783203125 C 217.74659729003906 314.395263671875 225.14585876464844 336.2999572753906 251.1247100830078 326.85797119140625" stroke-width="11.800000190734863" fill="none" stroke="rgb(0, 0, 0)" stroke-opacity="0.5531528" stroke-linecap="round" stroke-linejoin="round"/>
    <path d="M 85.3290023803711 400.10052490234375 C 76.0987548828125 386.4056396484375 64.00055694580078 406.59478759765625 87.71005249023438 377.7391357421875 C 107.88806915283203 372.3737487792969 89.4350814819336 377.9463195800781 106.88607788085938 396.7243347167969 C 136.5320281982422 402.8045654296875 166.32444763183594 426.72369384765625 188.46705627441406 403.51470947265625 C 178.12342834472656 423.63690185546875 179.78892517089844 449.74737548828125 171.7764434814453 470.62689208984375" stroke-width="12.19999885559082" fill="none" stroke="rgb(0, 0, 0)" stroke-opacity="0.5290363" stroke-linecap="round" stroke-linejoin="round"/>
    <path d="M 157.11676025390625 319.9352111816406 C 187.08340454101562 317.9922180175781 178.16001892089844 308.9831237792969 178.6177215576172 306.7904357910156 C 153.7142333984375 336.6629333496094 173.26963806152344 317.1339111328125 181.45509338378906 292.0328369140625 C 173.95394897460938 301.6011962890625 190.85755920410156 295.32177734375 183.18667602539062 320.1424255371094 C 172.23390197753906 320.6907653808594 185.40553283691406 316.1495361328125 176.63662719726562 292.769287109375" stroke-width="11.800004005432129" fill="none" stroke="rgb(0, 0, 0)" stroke-opacity="0.57031995" stroke-linecap="round" stroke-linejoin="round"/>
    <path d="M 591.824462890625 417.6604309082031 C 571.438232421875 402.2670593261719 552.537841796875 418.16778564453125 526.14501953125 399.07073974609375 C 533.2387084960938 379.3236083984375 535.9624633789062 385.1424255371094 528.54296875 384.9796447753906 C 540.2725830078125 393.6304016113281 527.2830810546875 417.86376953125 543.5487060546875 412.5646667480469 C 522.91748046875 442.48431396484375 546.93115234375 469.0592041015625 532.1798095703125 460.7794494628906" stroke-width="12.199999809265137" fill="none" stroke="rgb(0, 0, 0)" stroke-opacity="0.6668326" stroke-linecap="round" stroke-linejoin="round"/>
    <path d="M 98.52605438232422 572.8411865234375 C 113.65735626220703 570.6123046875 127.59841918945312 548.2106323242188 108.4565658569336 561.8525390625 C 126.52880096435547 561.9830932617188 97.8085708618164 580.3027954101562 74.4283676147461 606.0552368164062 C 99.24787139892578 619.7125244140625 96.27500915527344 606.7516479492188 72.83887481689453 603.916748046875 C 89.43030548095703 631.5240478515625 91.43539428710938 639.2686767578125 110.4554672241211 662.884521484375" stroke-width="12.199976921081543" fill="none" stroke="rgb(0, 0, 0)" stroke-opacity="0.4366972" stroke-linecap="round" stroke-linejoin="round"/>
    <path d="M 496.89892578125 482.5364074707031 C 508.4648132324219 483.9963684082031 498.8238220214844 473.0422058105469 513.7459106445312 497.02581787109375 C 527.0928955078125 477.2134094238281 508.1109313964844 451.9752502441406 525.1624755859375 466.6250915527344 C 501.9985046386719 456.8936462402344 479.14910888671875 463.4537353515625 471.2976379394531 446.8534851074219 C 454.65594482421875 423.4541931152344 433.5487365722656 412.06243896484375 422.351318359375 386.7712097167969" stroke-width="11.800002098083496" fill="none" stroke="rgb(0, 0, 0)" stroke-opacity="0.3444236" stroke-linecap="round" stroke-linejoin="round"/>
    <path d="M 114.07880401611328 559.8636474609375 C 109.67822265625 585.8762817382812 135.6824951171875 589.0238647460938 126.33265686035156 578.0953979492188 C 115.94287109375 553.3557739257812 108.70780944824219 572.5357666015625 103.09762573242188 571.6685180664062 C 113.92235565185547 575.5715942382812 137.6036834716797 602.5709228515625 131.46066284179688 609.2902221679688 C 102.81188201904297 625.9493408203125 99.02396392822266 618.68212890625 81.41795349121094 642.4364624023438" stroke-width="12.199999809265137" fill="none" stroke="rgb(0, 0, 0)" stroke-opacity="0.66126" stroke-linecap="round" stroke-linejoin="round"/>
    <path d="M 216.64212036132812 430.8804931640625 C 210.50779724121094 441.97509765625 228.8833770751953 457.9914245605469 218.010009765625 441.49847412109375 C 218.86117553710938 471.27557373046875 234.45738220214844 447.6263732910156 264.2069396972656 424.3202209472656 C 288.2469482421875 437.8904113769531 311.9968566894531 411.5425109863281 321.9687194824219 407.111083984375 C 304.8648986816406 398.8919677734375 296.2695007324219 395.1943359375 296.2676086425781 375.0220031738281" stroke-width="12.199996948242188" fill="none" stroke="rgb(0, 0, 0)" stroke-opacity="0.09827568" stroke-linecap="round" stroke-linejoin="round"/>
    <path d="M 436.6277160644531 336.2611083984375 C 456.5506896972656 341.8324890136719 481.27325439453125 368.30419921875 459.1211853027344 374.53106689453125 C 461.2027282714844 356.8494567871094 459.3939514160156 366.4641418457031 473.9197692871094 368.81011962890625 C 472.4278564453125 398.6976318359375 478.9356994628906 381.688232421875 483.5955505371094 400.4249572753906 C 486.4100341796875 430.3917236328125 459.8437194824219 405.5239562988281 461.4532775878906 409.2740783691406" stroke-width="12.199999809265137" fill="none" stroke="rgb(0, 0, 0)" stroke-opacity="0.7437541" stroke-linecap="round" stroke-linejoin="round"/>
    <path d="M 469.1307678222656 429.18170166015625 C 465.8018798828125 451.74151611328125 482.2501525878906 478.7902526855469 507.28271484375 453.19232177734375 C 521.5874633789062 448.2945556640625 547.8766479492188 446.69921875 567.7321166992188 462.366455078125 C 595.6653442382812 459.5967712402344 605.011962890625 475.3221740722656 609.8478393554688 490.7275390625 C 586.8200073242188 513.7759399414062 592.2987670898438 529.2821655273438 594.8518676757812 512.2780151367188" stroke-width="12.199999809265137" fill="none" stroke="rgb(0, 0, 0)" stroke-opacity="0.9994597" stroke-linecap="round" stroke-linejoin="round"/>
    <path d="M 484.05609130859375 28.947237014770508 C 464.81903076171875 1.185059666633606 459.7323303222656 -2.896170139312744 449.8996276855469 5.640506267547607 C 446.1820983886719 -16.36686134338379 452.4271545410156 -45.16297912597656 444.3590393066406 -60.99806594848633 C 446.4598388671875 -71.28651428222656 467.5168762207031 -53.663143157958984 473.9952697753906 -36.19342803955078 C 479.595458984375 -63.706634521484375 497.612548828125 -75.25859069824219 526.96484375 -52.432334899902344" stroke-width="11.800005912780762" fill="none" stroke="rgb(0, 0, 0)" stroke-opacity="0.44229054" stroke-linecap="round" stroke-linejoin="round"/>
    <path d="M 482.785888671875 333.6922912597656 C 487.5638732910156 314.613525390625 476.6871643066406 316.949462890625 468.0902099609375 305.31695556640625 C 453.6251220703125 296.04364013671875 481.42633056640625 306.2102355957031 493.8903503417969 305.5143737792969 C 519.65380859375 325.70172119140625 492.2370300292969 321.26129150390625 494.35394287109375 314.07574462890625 C 488.3985595703125 304.56427001953125 462.6580505371094 298.08001708984375 492.2421569824219 322.7345886230469" stroke-width="11.800000190734863" fill="none" stroke="rgb(0, 0, 0)" stroke-opacity="0.9347543" stroke-linecap="round" stroke-linejoin="round"/>
    <path d="M 295.4752502441406 40.28902053833008 C 272.5786437988281 52.55048370361328 257.9452209472656 47.044368743896484 247.38449096679688 53.60888671875 C 233.64903259277344 79.1514663696289 216.96505737304688 83.56250762939453 228.3733367919922 66.70240783691406 C 220.70323181152344 37.06707763671875 235.636962890625 65.87651062011719 234.31805419921875 72.86095428466797 C 210.25494384765625 69.7793197631836 203.8042755126953 49.663230895996094 219.3719940185547 46.04928970336914" stroke-width="12.199999809265137" fill="none" stroke="rgb(0, 0, 0)" stroke-opacity="0.74044955" stroke-linecap="round" stroke-linejoin="round"/>
    <path d="M 436.7433166503906 539.2758178710938 C 450.7921447753906 556.7645263671875 461.90972900390625 527.7216796875 479.02783203125 516.5839233398438 C 478.12457275390625 508.1957702636719 479.76751708984375 510.3609619140625 496.4165954589844 534.0814819335938 C 476.3178405761719 529.2366943359375 484.0655822753906 529.7958374023438 469.206787109375 535.0950927734375 C 447.6016845703125 563.7288208007812 422.7327575683594 576.2315063476562 429.5550842285156 579.1463012695312" stroke-width="11.80000114440918" fill="none" stroke="rgb(0, 0, 0)" stroke-opacity="0.050309986" stroke-linecap="round" stroke-linejoin="round"/>
    <path d="M 494.3177185058594 442.31396484375 C 464.5344543457031 451.0461120605469 477.2038269042969 449.729248046875 451.1072082519531 458.96405029296875 C 458.04046630859375 457.0357971191406 457.14947509765625 451.3791198730469 455.05908203125 459.4053039550781 C 445.6664123535156 455.86138916015625 472.9446105957031 446.3855895996094 495.0250549316406 464.09613037109375 C 497.75872802734375 473.440673828125 478.1604309082031 473.0228576660156 454.8377380371094 492.8462829589844" stroke-width="11.800000190734863" fill="none" stroke="rgb(0, 0, 0)" stroke-opacity="0.813512" stroke-linecap="round" stroke-linejoin="round"/>
    <path d="M 540.2217407226562 112.39187622070312 C 520.0445556640625 125.1787109375 515.4478149414062 152.43563842773438 541.8160400390625 154.74603271484375 C 516.0646362304688 141.2700958251953 513.0875244140625 125.03584289550781 501.7207336425781 105.83827209472656 C 483.9049377441406 112.82955932617188 474.7009582519531 87.1957778930664 502.5941162109375 93.85395812988281 C 498.3896179199219 84.52822875976562 474.5409851074219 102.9341812133789 489.1049499511719 131.84237670898438" stroke-width="12.199999809265137" fill="none" stroke="rgb(0, 0, 0)" stroke-opacity="0.8609955" stroke-linecap="round" stroke-linejoin="round"/>
    <path d="M 406.2388610839844 401.76068115234375 C 425.712646484375 418.5793151855469 435.6421813964844 439.67999267578125 413.75469970703125 415.2532043457031 C 414.0796813964844 434.642333984375 443.8841857910156 443.6874084472656 457.21044921875 472.45245361328125 C 462.8244934082031 457.49444580078125 450.7603759765625 463.2755126953125 479.5047607421875 439.3131103515625 C 462.60693359375 428.1636962890625 444.7060852050781 422.20306396484375 426.718994140625 451.1405944824219" stroke-width="12.199995994567871" fill="none" stroke="rgb(0, 0, 0)" stroke-opacity="0.2797393" stroke-linecap="round" stroke-linejoin="round"/>
    <path d="M 270.0184326171875 369.7540283203125 C 240.8365478515625 355.87188720703125 264.825927734375 333.4771423339844 276.6600341796875 355.9237365722656 C 284.11090087890625 361.9964294433594 278.9461669921875 366.5933532714844 251.3399658203125 372.53143310546875 C 259.1949768066406 350.171142578125 264.1723327636719 361.34454345703125 244.60125732421875 351.484619140625 C 227.13308715820312 343.5354919433594 217.015869140625 319.4388732910156 193.1284637451172 302.9750671386719" stroke-width="11.800025939941406" fill="none" stroke="rgb(0, 0, 0)" stroke-opacity="0.10453818" stroke-linecap="round" stroke-linejoin="round"/>
    <path d="M 426.47796630859375 319.83599853515625 C 435.8863525390625 310.65655517578125 431.4563903808594 330.7965393066406 450.5497741699219 359.79302978515625 C 466.63763427734375 367.5424499511719 474.6060791015625 356.4557189941406 467.7325134277344 379.3624267578125 C 466.8109436035156 386.5411682128906 457.6694641113281 369.538818359375 480.2584228515625 351.8912353515625 C 464.6999816894531 328.57049560546875 493.5616149902344 312.22015380859375 486.0500793457031 341.3809509277344" stroke-width="11.800000190734863" fill="none" stroke="rgb(0, 0, 0)" stroke-opacity="0.8087753" stroke-linecap="round" stroke-linejoin="round"/>
    <path d="M 76.8838882446289 582.1297607421875 C 68.7313003540039 566.23779296875 60.87811279296875 542.8942260742188 38.8005485534668 557.281005859375 C 25.996925354003906 580.72412109375 39.685142517089844 588.4612426757812 37.601200103759766 564.1078491210938 C 12.845391273498535 559.9096069335938 4.569962501525879 550.5520629882812 -3.676509380340576 529.28857421875 C -9.541192054748535 539.25390625 -38.71925354003906 513.1301879882812 -29.658706665039062 498.0406494140625" stroke-width="12.199999809265137" fill="none" stroke="rgb(0, 0, 0)" stroke-opacity="0.8599179" stroke-linecap="round" stroke-linejoin="round"/>
    <path d="M 318.7786865234375 164.569580078125 C 325.85943603515625 160.58697509765625 311.486572265625 137.5618133544922 311.84210205078125 117.25019073486328 C 302.84259033203125 99.18219757080078 310.0945129394531 94.81452178955078 281.0679626464844 95.55744934082031 C 286.7767333984375 71.67024230957031 273.4563293457031 94.2212905883789 275.2361755371094 69.5277099609375 C 299.6152038574219 77.26701354980469 298.9320068359375 85.76359558105469 313.0078125 70.12828063964844" stroke-width="12.199999809265137" fill="none" stroke="rgb(0, 0, 0)" stroke-opacity="0.99751675" stroke-linecap="round" stroke-linejoin="round"/>
    <path d="M 520.5526733398438 361.4202880859375 C 495.7312316894531 386.6421813964844 478.604248046875 408.203857421875 487.9721374511719 399.08953857421875 C 472.79656982421875 394.58441162109375 468.04107666015625 389.1285705566406 483.3949890136719 397.8714294433594 C 459.77734375 425.5072021484375 466.54473876953125 415.2671203613281 481.22174072265625 394.61004638671875 C 479.46942138671875 393.7509765625 464.73309326171875 373.24896240234375 448.7110595703125 402.43927001953125" stroke-width="11.80000114440918" fill="none" stroke="rgb(0, 0, 0)" stroke-opacity="0.16969533" stroke-linecap="round" stroke-linejoin="round"/>
    <path d="M 591.9060668945312 363.12030029296875 C 617.6920166015625 366.0101013183594 631.9548950195312 344.6595764160156 620.1712036132812 372.64862060546875 C 597.0892333984375 387.95355224609375 612.252685546875 402.4612121582031 598.3975219726562 385.5662841796875 C 607.2212524414062 372.8431396484375 608.5191040039062 389.1849060058594 601.3352661132812 380.7430114746094 C 601.9862670898438 370.7485656738281 609.9752197265625 351.8764953613281 639.4000244140625 339.0462951660156" stroke-width="12.199981689453125" fill="none" stroke="rgb(0, 0, 0)" stroke-opacity="0.07636841" stroke-linecap="round" stroke-linejoin="round"/>
    <path d="M 316.216552734375 263.39044189453125 C 334.4230651855469 247.56369018554688 321.0313415527344 240.69349670410156 336.80548095703125 251.17420959472656 C 315.20489501953125 256.4261474609375 316.75506591796875 265.10943603515625 344.3561706542969 258.19476318359375 C 351.22998046875 271.039306640625 325.497802734375 286.789794921875 345.89703369140625 286.2239074707031 C 364.78765869140625 268.2622375488281 359.47833251953125 245.17323303222656 334.1725158691406 251.05569458007812" stroke-width="12.199997901916504" fill="none" stroke="rgb(0, 0, 0)" stroke-opacity="0.35729533" stroke-linecap="round" stroke-linejoin="round"/>
    <path d="M 234.4193115234375 277.2325134277344 C 236.88551330566406 248.0482940673828 252.61599731445312 235.40953063964844 240.07469177246094 225.88800048828125 C 270.0332946777344 252.84461975097656 282.21966552734375 244.52606201171875 282.00164794921875 237.5785675048828 C 304.883056640625 213.64913940429688 290.0334167480469 217.24786376953125 284.3708190917969 231.40176391601562 C 298.9670715332031 206.7032928466797 279.3743591308594 219.10801696777344 292.9197692871094 195.32882690429688" stroke-width="11.800000190734863" fill="none" stroke="rgb(0, 0, 0)" stroke-opacity="0.5619709" stroke-linecap="round" stroke-linejoin="round"/>
    <path d="M 410.2921142578125 229.00511169433594 C 416.3755798339844 246.36642456054688 421.48382568359375 256.88006591796875 401.9792175292969 230.5441436767578 C 378.8595275878906 231.57659912109375 377.0492858886719 253.95706176757812 374.7371520996094 247.4449462890625 C 371.9993591308594 223.05526733398438 371.12664794921875 245.8204345703125 362.3049011230469 242.35426330566406 C 389.43389892578125 233.51052856445312 381.71282958984375 253.78530883789062 405.9412841796875 226.92837524414062" stroke-width="11.80000114440918" fill="none" stroke="rgb(0, 0, 0)" stroke-opacity="0.2969193" stroke-linecap="round" stroke-linejoin="round"/>
    <path d="M 242.9652557373047 505.5528564453125 C 232.3863525390625 481.1335144042969 241.47677612304688 454.45916748046875 261.7255554199219 474.3150939941406 C 233.6642303466797 477.9127197265625 243.50843811035156 457.62579345703125 230.66331481933594 459.7466735839844 C 242.8633270263672 454.8554382324219 240.92965698242188 433.03240966796875 211.66354370117188 461.9224853515625 C 216.9630584716797 478.2685546875 226.47618103027344 457.9775695800781 212.59283447265625 469.47698974609375" stroke-width="12.199997901916504" fill="none" stroke="rgb(0, 0, 0)" stroke-opacity="0.4371685" stroke-linecap="round" stroke-linejoin="round"/>
    <path d="M 491.0556335449219 299.6514892578125 C 478.8267517089844 307.5218505859375 490.9311218261719 279.4012451171875 462.432373046875 299.7824401855469 C 458.2453918457031 313.3554992675781 480.5403747558594 289.8138427734375 451.3451232910156 313.5810241699219 C 468.53692626953125 325.056884765625 460.9260559082031 338.3575134277344 444.1483459472656 326.2194519042969 C 456.3885192871094 298.1391906738281 471.6644287109375 286.5282897949219 477.0157775878906 296.7291564941406" stroke-width="11.80000114440918" fill="none" stroke="rgb(0, 0, 0)" stroke-opacity="0.708169" stroke-linecap="round" stroke-linejoin="round"/>
    <path d="M 213.41049194335938 450.1778564453125 C 228.73892211914062 478.5908508300781 220.2938232421875 486.1261291503906 206.96841430664062 462.6744384765625 C 224.481201171875 458.6742248535156 245.2104034423828 444.5248107910156 227.59646606445312 418.26580810546875 C 255.7852020263672 423.7139587402344 265.5765380859375 443.10986328125 287.4844970703125 437.0405578613281 C 271.524658203125 461.9837646484375 242.81210327148438 473.44647216796875 229.59559631347656 493.0077819824219" stroke-width="12.199946403503418" fill="none" stroke="rgb(0, 0, 0)" stroke-opacity="0.50708324" stroke-linecap="round" stroke-linejoin="round"/>
    <path d="M 312.29669189453125 516.3279418945312 C 310.7823791503906 498.6598815917969 286.2903137207031 498.9494323730469 276.9552001953125 495.0417175292969 C 276.9329528808594 485.9078674316406 262.43829345703125 498.49053955078125 268.0329895019531 520.194580078125 C 238.13893127441406 530.7755737304688 238.8991241455078 517.5328369140625 260.6519470214844 496.8622741699219 C 241.41622924804688 504.83154296875 234.1273956298828 508.6513671875 237.18167114257812 538.1138916015625" stroke-width="11.800002098083496" fill="none" stroke="rgb(0, 0, 0)" stroke-opacity="0.5197398" stroke-linecap="round" stroke-linejoin="round"/>
    <path d="M 559.6810913085938 544.9962768554688 C 570.8667602539062 537.4840087890625 563.4060668945312 552.5528564453125 591.574462890625 550.6019287109375 C 588.874755859375 573.7141723632812 615.2573852539062 563.6876831054688 599.0355224609375 547.5179443359375 C 588.1591796875 528.6422729492188 561.7769775390625 558.5481567382812 548.1651611328125 579.9473876953125 C 572.7171630859375 585.5266723632812 555.4013061523438 565.7752685546875 578.9996948242188 550.4119262695312" stroke-width="11.80000114440918" fill="none" stroke="rgb(0, 0, 0)" stroke-opacity="0.74178624" stroke-linecap="round" stroke-linejoin="round"/>
    <path d="M 185.84349060058594 544.469482421875 C 172.47630310058594 557.8917236328125 180.9416961669922 569.9132690429688 169.36297607421875 562.792236328125 C 197.0304718017578 575.6743774414062 209.29574584960938 565.4058837890625 237.44004821777344 574.3436279296875 C 231.49981689453125 602.6163330078125 242.1607208251953 620.323974609375 231.8288116455078 626.2164306640625 C 204.17041015625 619.9252319335938 202.91937255859375 635.5634155273438 203.4673309326172 635.2701416015625" stroke-width="11.80000114440918" fill="none" stroke="rgb(0, 0, 0)" stroke-opacity="0.9163782" stroke-linecap="round" stroke-linejoin="round"/>
    <path d="M 324.4749755859375 137.6241455078125 C 329.3983459472656 123.80455780029297 341.89654541015625 124.07960510253906 348.0841064453125 145.727294921875 C 376.5572814941406 140.39700317382812 357.7212829589844 167.51617431640625 371.3855895996094 196.29286193847656 C 374.5867614746094 199.33120727539062 354.843017578125 222.5884246826172 358.5921630859375 231.75958251953125 C 343.1737060546875 224.3935089111328 324.650634765625 213.88487243652344 312.4463806152344 235.43197631835938" stroke-width="11.800000190734863" fill="none" stroke="rgb(0, 0, 0)" stroke-opacity="0.94254494" stroke-linecap="round" stroke-linejoin="round"/>
    <path d="M 11.417027473449707 331.2660217285156 C 26.930030822753906 348.0080871582031 43.31043243408203 340.5601806640625 28.133262634277344 361.47198486328125 C 15.476583480834961 336.0248718261719 33.469390869140625 318.246826171875 17.095157623291016 296.16265869140625 C 0.8267950415611267 312.4681091308594 11.527045249938965 316.7433776855469 17.02133560180664 293.5205993652344 C -12.350054740905762 316.1584167480469 -14.868467330932617 327.14605712890625 -41.159358978271484 314.5497131347656" stroke-width="12.19997787475586" fill="none" stroke="rgb(0, 0, 0)" stroke-opacity="0.22562826" stroke-linecap="round" stroke-linejoin="round"/>
    <path d="M 450.1329345703125 21.413230895996094 C 478.939697265625 -2.0062854290008545 500.2227478027344 23.93213653564453 492.3537292480469 40.115577697753906 C 496.8920593261719 67.88806915283203 503.2872009277344 89.18519592285156 474.81243896484375 102.19444274902344 C 471.0683288574219 114.8895263671875 464.8473205566406 88.25440216064453 489.7518005371094 94.13578796386719 C 509.0609130859375 115.5289306640625 501.12744140625 138.79376220703125 472.765625 110.66825866699219" stroke-width="12.199999809265137" fill="none" stroke="rgb(0, 0, 0)" stroke-opacity="0.9343296" stroke-linecap="round" stroke-linejoin="round"/>
    <path d="M 209.03236389160156 365.3614501953125 C 222.1205596923828 391.1058044433594 226.22299194335938 382.3216247558594 254.59234619140625 398.7089538574219 C 256.2540283203125 391.3818359375 251.89244079589844 387.1663513183594 257.933349609375 410.2280578613281 C 279.7585754394531 421.86492919921875 251.02578735351562 449.2424621582031 227.89678955078125 464.42437744140625 C 203.80836486816406 446.2545471191406 182.67913818359375 451.83746337890625 190.62612915039062 439.46954345703125" stroke-width="12.19999885559082" fill="none" stroke="rgb(0, 0, 0)" stroke-opacity="0.76992995" stroke-linecap="round" stroke-linejoin="round"/>
    <path d="M 170.4525909423828 253.64675903320312 C 151.65216064453125 225.5222625732422 164.80213928222656 201.7071075439453 187.7017822265625 190.3199005126953 C 186.1443634033203 218.1697540283203 197.2222137451172 247.80010986328125 195.49057006835938 241.97024536132812 C 170.30572509765625 262.1689758300781 177.19432067871094 240.91732788085938 150.1762237548828 235.7647247314453 C 168.41241455078125 222.2268524169922 196.3844757080078 242.17630004882812 224.006591796875 240.56735229492188" stroke-width="11.800000190734863" fill="none" stroke="rgb(0, 0, 0)" stroke-opacity="0.73982537" stroke-linecap="round" stroke-linejoin="round"/>
    <path d="M 417.07659912109375 300.0132141113281 C 429.3875732421875 329.4132080078125 444.6026611328125 314.74273681640625 449.7106018066406 315.7016906738281 C 439.75164794921875 319.1371154785156 416.16912841796875 329.1280822753906 388.9842224121094 346.81915283203125 C 416.0283508300781 343.5774841308594 419.7023010253906 363.74505615234375 424.4129638671875 341.0709533691406 C 404.94451904296875 367.36358642578125 381.71063232421875 383.33642578125 378.6163330078125 355.7990417480469" stroke-width="11.800000190734863" fill="none" stroke="rgb(0, 0, 0)" stroke-opacity="0.80178267" stroke-linecap="round" stroke-linejoin="round"/>
    <path d="M 591.7857055664062 406.6990661621094 C 592.061279296875 426.2913818359375 600.3914184570312 428.6852722167969 628.1637573242188 432.81396484375 C 641.287841796875 407.4463195800781 622.2386474609375 410.095947265625 644.314697265625 433.14093017578125 C 674.15966796875 441.4001159667969 659.7552490234375 457.4482116699219 654.969970703125 457.3376770019531 C 631.2056884765625 429.10931396484375 618.0717163085938 440.6114196777344 607.0465087890625 433.12689208984375" stroke-width="11.80000114440918" fill="none" stroke="rgb(0, 0, 0)" stroke-opacity="0.46712667" stroke-linecap="round" stroke-linejoin="round"/>
    <path d="M 161.85098266601562 291.9125671386719 C 171.0474090576172 307.00811767578125 149.9794158935547 327.3800354003906 151.35830688476562 297.4294128417969 C 159.5354461669922 323.6455078125 155.2676239013672 347.4599609375 154.9326171875 333.92364501953125 C 159.86219787597656 356.5501708984375 166.836181640625 380.236083984375 173.11961364746094 350.8936767578125 C 190.2206268310547 321.9036560058594 172.9341278076172 303.2157897949219 188.699951171875 323.7019958496094" stroke-width="11.800000190734863" fill="none" stroke="rgb(0, 0, 0)" stroke-opacity="0.8616093" stroke-linecap="round" stroke-linejoin="round"/>
    <path d="M 570.0990600585938 13.153505325317383 C 548.531005859375 12.575896263122559 525.1611938476562 12.780928611755371 547.1021118164062 16.61399269104004 C 553.2223510742188 34.15391540527344 523.578857421875 61.98448181152344 547.609619140625 40.0728874206543 C 575.3994140625 50.68985366821289 547.7533569335938 25.574472427368164 527.8059692382812 49.030723571777344 C 557.2088623046875 23.893146514892578 536.481201171875 20.86414909362793 513.981201171875 18.7430362701416" stroke-width="12.199999809265137" fill="none" stroke="rgb(0, 0, 0)" stroke-opacity="0.54107445" stroke-linecap="round" stroke-linejoin="round"/>
    <path d="M 321.8927001953125 555.5625610351562 C 347.6982727050781 558.5406494140625 329.5534973144531 572.6010131835938 317.5415344238281 590.297607421875 C 305.455078125 606.692626953125 310.0777893066406 597.491943359375 324.74072265625 601.0484008789062 C 317.4971008300781 616.181884765625 332.3767395019531 608.685546875 340.25103759765625 609.876953125 C 362.3237609863281 635.67724609375 369.013671875 663.8401489257812 363.2769470214844 681.9094848632812" stroke-width="11.800002098083496" fill="none" stroke="rgb(0, 0, 0)" stroke-opacity="0.8271316" stroke-linecap="round" stroke-linejoin="round"/>
    <path d="M 302.15899658203125 266.5980224609375 C 299.21319580078125 245.0023193359375 326.70611572265625 248.7868194580078 351.99932861328125 259.9740295410156 C 357.4720153808594 278.8651428222656 351.39862060546875 299.69854736328125 337.3635559082031 275.44281005859375 C 333.939697265625 259.41162109375 363.11297607421875 267.55316162109375 342.82550048828125 239.50762939453125 C 361.5597839355469 248.27479553222656 368.8056335449219 262.729248046875 382.42822265625 276.5063781738281" stroke-width="11.800002098083496" fill="none" stroke="rgb(0, 0, 0)" stroke-opacity="0.096355386" stroke-linecap="round" stroke-linejoin="round"/>
    <path d="M 486.6316833496094 382.3164978027344 C 473.38623046875 353.2479553222656 456.4363098144531 336.6219482421875 437.5873718261719 363.78338623046875 C 443.60546875 356.413330078125 416.6787414550781 338.6504211425781 415.63592529296875 345.3861999511719 C 407.2036437988281 363.55047607421875 436.0962219238281 372.3932189941406 427.78448486328125 389.43731689453125 C 410.39971923828125 379.7077331542969 434.029052734375 349.9324951171875 444.4080810546875 376.73907470703125" stroke-width="11.80000114440918" fill="none" stroke="rgb(0, 0, 0)" stroke-opacity="0.16919246" stroke-linecap="round" stroke-linejoin="round"/>
    <path d="M 409.838134765625 215.39186096191406 C 382.3367614746094 188.3809356689453 380.3710632324219 202.18353271484375 351.50836181640625 187.79017639160156 C 329.7716369628906 166.5098419189453 334.0403137207031 137.2064971923828 310.46307373046875 158.6693878173828 C 288.4561462402344 140.53594970703125 275.0254821777344 112.05754852294922 304.5730895996094 94.837158203125 C 325.54388427734375 122.94422149658203 343.0616149902344 135.04417419433594 354.35821533203125 135.2972412109375" stroke-width="11.800000190734863" fill="none" stroke="rgb(0, 0, 0)" stroke-opacity="0.57760704" stroke-linecap="round" stroke-linejoin="round"/>
    <path d="M 420.2152099609375 518.4619140625 C 403.8875732421875 536.8908081054688 397.8738098144531 523.010009765625 380.2093505859375 493.8319091796875 C 380.3408203125 507.79779052734375 397.206787109375 501.1625671386719 403.2629089355469 481.9810791015625 C 418.0794372558594 454.7447204589844 398.04644775390625 433.1058044433594 416.8437194824219 433.4154357910156 C 413.25921630859375 454.5810241699219 434.9215393066406 478.7115478515625 425.36627197265625 496.73419189453125" stroke-width="12.199999809265137" fill="none" stroke="rgb(0, 0, 0)" stroke-opacity="0.8105076" stroke-linecap="round" stroke-linejoin="round"/>
    <path d="M 521.8865356445312 489.901123046875 C 527.8688354492188 488.1182556152344 518.5159912109375 467.6798400878906 518.4268798828125 482.8208312988281 C 542.4343872070312 480.3540344238281 522.76171875 486.2743225097656 544.9490356445312 459.0348815917969 C 561.86083984375 431.3285217285156 563.6555786132812 408.69903564453125 538.7459106445312 422.519287109375 C 545.5734252929688 417.15972900390625 570.1314697265625 410.5935974121094 554.5671997070312 395.9684143066406" stroke-width="12.19999885559082" fill="none" stroke="rgb(0, 0, 0)" stroke-opacity="0.09880335" stroke-linecap="round" stroke-linejoin="round"/>
    <path d="M 587.6030883789062 127.39282989501953 C 575.134521484375 136.68948364257812 570.287109375 128.70550537109375 545.9049072265625 108.35795593261719 C 528.8690795898438 129.33648681640625 526.706298828125 123.46682739257812 539.6363525390625 117.14403533935547 C 563.1827392578125 126.89289093017578 585.656494140625 114.58377075195312 569.7775268554688 115.59274291992188 C 555.1790771484375 108.08911895751953 547.1096801757812 93.74662780761719 555.0679321289062 100.17802429199219" stroke-width="11.800002098083496" fill="none" stroke="rgb(0, 0, 0)" stroke-opacity="0.07108258" stroke-linecap="round" stroke-linejoin="round"/>
    <path d="M 124.6508560180664 198.73434448242188 C 110.18206024169922 170.2335662841797 100.16746520996094 140.2764129638672 76.17066955566406 146.4064178466797 C 70.51626586914062 175.37557983398438 71.36936950683594 190.8221893310547 98.27163696289062 183.3728485107422 C 99.49298858642578 211.64730834960938 124.40227508544922 225.9076690673828 120.87401580810547 208.4949188232422 C 141.69537353515625 200.26821899414062 151.97047424316406 174.5982208251953 169.03704833984375 172.5341033935547" stroke-width="12.199999809265137" fill="none" stroke="rgb(0, 0, 0)" stroke-opacity="0.25459728" stroke-linecap="round" stroke-linejoin="round"/>
    <path d="M 135.69041442871094 129.49969482421875 C 122.44932556152344 125.02448272705078 131.18470764160156 115.0583267211914 159.1303253173828 96.51895904541016 C 186.35183715820312 72.94247436523438 172.5784912109375 87.37523651123047 176.3390655517578 114.52787017822266 C 178.26187133789062 86.4848861694336 164.26564025878906 95.18301391601562 167.31497192382812 98.88980865478516 C 179.69688415527344 73.39498138427734 207.15069580078125 75.92173767089844 211.35037231445312 87.76264953613281" stroke-width="11.800000190734863" fill="none" stroke="rgb(0, 0, 0)" stroke-opacity="0.59718144" stroke-linecap="round" stroke-linejoin="round"/>
    <path d="M 284.79669189453125 298.881103515625 C 268.66845703125 281.7720642089844 242.4701690673828 266.8457946777344 236.36085510253906 255.9293670654297 C 234.38218688964844 266.855224609375 259.5396423339844 253.06634521484375 280.9658508300781 236.26211547851562 C 252.49871826171875 211.6089324951172 223.32046508789062 202.46124267578125 197.4261474609375 227.03564453125 C 193.65777587890625 240.0865020751953 199.8865966796875 265.08404541015625 222.53749084472656 291.37872314453125" stroke-width="11.800000190734863" fill="none" stroke="rgb(0, 0, 0)" stroke-opacity="0.20580794" stroke-linecap="round" stroke-linejoin="round"/>
    <path d="M 582.4454956054688 70.93179321289062 C 556.3739013671875 62.2831916809082 545.1790771484375 86.93024444580078 539.041015625 95.8214340209961 C 523.624267578125 80.56683349609375 540.3132934570312 94.10480499267578 569.9767456054688 101.53682708740234 C 570.5227661132812 130.89694213867188 544.987548828125 158.18838500976562 521.171142578125 158.38873291015625 C 543.0328369140625 156.96041870117188 520.4957275390625 156.8821563720703 533.8492431640625 128.6610107421875" stroke-width="12.199999809265137" fill="none" stroke="rgb(0, 0, 0)" stroke-opacity="0.7364679" stroke-linecap="round" stroke-linejoin="round"/>
    <path d="M 324.6692199707031 398.8181457519531 C 330.2676086425781 425.3196716308594 347.57659912109375 423.9904479980469 321.5904846191406 415.1369323730469 C 339.3277587890625 421.49249267578125 321.298828125 421.1927185058594 334.1273193359375 440.6604309082031 C 307.3515319824219 412.76025390625 319.6280212402344 438.1192932128906 305.9989929199219 434.7470397949219 C 276.8961486816406 418.47650146484375 289.7373046875 429.1109924316406 303.98046875 452.9515380859375" stroke-width="12.19999885559082" fill="none" stroke="rgb(0, 0, 0)" stroke-opacity="0.1308315" stroke-linecap="round" stroke-linejoin="round"/>
    <path d="M 16.463285446166992 192.75897216796875 C 5.000833988189697 168.95643615722656 33.547306060791016 183.86080932617188 60.49576950073242 204.8015899658203 C 61.11223602294922 198.7389678955078 83.2854232788086 178.8490447998047 106.42097473144531 198.85940551757812 C 91.53857421875 202.11978149414062 69.7805404663086 205.3142852783203 92.36978149414062 214.1486053466797 C 89.33071899414062 228.99644470214844 70.98416137695312 218.67616271972656 66.16626739501953 206.81961059570312" stroke-width="11.80000114440918" fill="none" stroke="rgb(0, 0, 0)" stroke-opacity="0.540814" stroke-linecap="round" stroke-linejoin="round"/>
    <path d="M 449.8823547363281 31.05000877380371 C 437.5428466796875 39.72759246826172 438.6211853027344 52.81435775756836 432.5944519042969 69.18658447265625 C 410.9082336425781 72.16062927246094 382.9677734375 81.60954284667969 409.6048889160156 109.5851058959961 C 409.8778381347656 81.8743896484375 416.99334716796875 59.47793197631836 438.9918212890625 66.96784973144531 C 433.3313293457031 89.42486572265625 404.06353759765625 67.0452651977539 389.311767578125 40.63463592529297" stroke-width="11.800002098083496" fill="none" stroke="rgb(0, 0, 0)" stroke-opacity="0.23588479" stroke-linecap="round" stroke-linejoin="round"/>
    <path d="M 325.82928466796875 149.21221923828125 C 316.9607849121094 163.26541137695312 313.7908020019531 178.29177856445312 334.1850891113281 187.46099853515625 C 334.02447509765625 173.22096252441406 343.28729248046875 161.4850616455078 318.3688659667969 156.2616424560547 C 324.44061279296875 145.44822692871094 348.8937072753906 149.93756103515625 335.75531005859375 149.0291748046875 C 316.1279602050781 155.06875610351562 322.8267822265625 131.58099365234375 348.455078125 104.23785400390625" stroke-width="12.199995040893555" fill="none" stroke="rgb(0, 0, 0)" stroke-opacity="0.2498633" stroke-linecap="round" stroke-linejoin="round"/>
    <path d="M 409.7105712890625 330.8892517089844 C 400.69287109375 313.04351806640625 401.064697265625 316.4292297363281 398.6802062988281 335.43011474609375 C 370.3396301269531 311.91265869140625 352.696533203125 308.83837890625 323.83343505859375 303.64910888671875 C 344.09210205078125 293.3527526855469 371.9280090332031 320.1139831542969 358.8794860839844 302.58197021484375 C 358.8604431152344 278.91412353515625 354.7000732421875 264.5133972167969 326.44647216796875 290.58306884765625" stroke-width="12.199999809265137" fill="none" stroke="rgb(0, 0, 0)" stroke-opacity="0.9513257" stroke-linecap="round" stroke-linejoin="round"/>
    <path d="M 396.6012878417969 456.69970703125 C 381.04803466796875 442.19134521484375 410.7663269042969 469.0770263671875 410.4277648925781 446.066162109375 C 412.4752502441406 419.12347412109375 384.4851379394531 416.5813903808594 363.40716552734375 400.6694030761719 C 366.9384765625 399.18695068359375 356.60064697265625 387.57769775390625 337.28424072265625 368.5606689453125 C 350.5251159667969 368.8289489746094 379.4814147949219 381.4317626953125 359.0032958984375 356.198974609375" stroke-width="12.199999809265137" fill="none" stroke="rgb(0, 0, 0)" stroke-opacity="0.37585506" stroke-linecap="round" stroke-linejoin="round"/>
    <path d="M 246.3015594482422 76.52069854736328 C 222.2135467529297 100.0259780883789 197.7250518798828 84.11212921142578 204.06800842285156 87.02408599853516 C 224.6624298095703 114.37579345703125 247.54148864746094 140.5198516845703 270.0281982421875 156.28306579589844 C 284.5211181640625 163.99610900878906 284.54901123046875 158.5318145751953 261.767822265625 187.0404815673828 C 233.67181396484375 207.02342224121094 254.88632202148438 209.25643920898438 251.83876037597656 200.8169708251953" stroke-width="11.800000190734863" fill="none" stroke="rgb(0, 0, 0)" stroke-opacity="0.7725533" stroke-linecap="round" stroke-linejoin="round"/>
  </g>
</svg>
