<?xml version="1.0" ?>
<svg xmlns="http://www.w3.org/2000/svg" version="1.1" width="600" height="600">
  <defs/>
  <g>
    <path d="M 561.3161010742188 526.9102172851562 C 461.37310791015625 540.3258666992188 457.3768310546875 545.10546875 451.81494140625 534.0156860351562 C 482.97625732421875 472.197509765625 500.0328369140625 510.49896240234375 514.7694091796875 491.1465148925781 C 499.4478759765625 539.545654296875 521.9925537109375 528.5630493164062 576.1295776367188 521.207275390625 C 500.3271179199219 563.0354614257812 549.4318237304688 552.1320190429688 608.02294921875 544.53857421875" stroke-width="23.88616943359375" fill="none" stroke="rgb(0, 0, 0)" stroke-opacity="0.34737116" stroke-linecap="round" stroke-linejoin="round"/>
    <path d="M 411.15960693359375 151.99859619140625 C 337.3541259765625 164.23081970214844 346.4560241699219 165.53170776367188 372.0188293457031 119.3076400756836 C 343.4706115722656 130.80140686035156 333.4154052734375 171.935791015625 295.3485107421875 150.3540802001953 C 341.79071044921875 97.35832977294922 331.6486511230469 118.29434204101562 396.01275634765625 149.4372100830078 C 392.1499328613281 106.36312866210938 312.97119140625 101.93415832519531 354.4158020019531 97.47095489501953" stroke-width="18.847623825073242" fill="none" stroke="rgb(0, 0, 0)" stroke-opacity="0.1307737" stroke-linecap="round" stroke-linejoin="round"/>
    <path d="M 234.71421813964844 446.900390625 C 218.3210906982422 441.5940856933594 221.5408477783203 410.0498046875 319.6105041503906 439.866455078125 C 268.895263671875 473.1269226074219 193.6864776611328 443.1654357910156 188.98611450195312 426.5845642089844 C 212.8577117919922 432.6807861328125 197.5377655029297 436.9701232910156 200.34519958496094 419.5782165527344 C 181.90460205078125 413.76416015625 193.2760467529297 426.1407470703125 200.4604034423828 428.41015625" stroke-width="21.922405242919922" fill="none" stroke="rgb(0, 0, 0)" stroke-opacity="0.36109072" stroke-linecap="round" stroke-linejoin="round"/>
    <path d="M 480.2687683105469 8.587345123291016 C 468.0175476074219 38.182090759277344 499.365966796875 27.553945541381836 504.9085388183594 -22.108097076416016 C 522.0861206054688 -66.57164001464844 515.3967895507812 -95.90423583984375 518.3776245117188 -116.57376861572266 C 527.7070922851562 -140.7877655029297 518.4779663085938 -121.21075439453125 506.08270263671875 -136.0615997314453 C 477.0638427734375 -113.8351058959961 493.78466796875 -105.96463775634766 513.683349609375 -135.94944763183594" stroke-width="25.308130264282227" fill="none" stroke="rgb(0, 0, 0)" stroke-opacity="0.4923661" stroke-linecap="round" stroke-linejoin="round"/>
    <path d="M 544.7857666015625 137.4132537841797 C 552.2845458984375 165.81869506835938 614.5133666992188 148.153076171875 610.5014038085938 -20.815689086914062 C 419.9261474609375 -4.282356262207031 414.6630554199219 36.30367660522461 437.37823486328125 94.47975158691406 C 505.748046875 117.25669860839844 473.5727233886719 170.6507110595703 444.8238220214844 174.1858367919922 C 398.1702880859375 125.4134292602539 387.1051025390625 161.74623107910156 375.017578125 141.32371520996094" stroke-width="-51.23545455932617" fill="none" stroke="rgb(0, 0, 0)" stroke-opacity="0.09300676" stroke-linecap="round" stroke-linejoin="round"/>
    <path d="M 260.2794189453125 542.2026977539062 C 428.82073974609375 536.261474609375 454.9235534667969 553.244873046875 411.2210693359375 572.0010986328125 C 400.3268737792969 489.7032470703125 394.10919189453125 486.16033935546875 459.8380432128906 505.5176086425781 C 456.5640869140625 425.07525634765625 454.3812255859375 469.0791931152344 538.99365234375 418.91339111328125 C 478.26031494140625 414.9920654296875 476.0107421875 425.2857666015625 363.1900939941406 417.8385009765625" stroke-width="15.355231285095215" fill="none" stroke="rgb(0, 0, 0)" stroke-opacity="0.62567055" stroke-linecap="round" stroke-linejoin="round"/>
    <path d="M 478.6820068359375 296.0140075683594 C 464.61358642578125 307.6612243652344 342.96258544921875 286.8231201171875 378.3381042480469 304.0399169921875 C 336.34063720703125 293.897705078125 301.3732604980469 289.47845458984375 330.2949523925781 280.19781494140625 C 308.3223571777344 324.2607116699219 285.1497497558594 311.7779235839844 325.9353332519531 332.67822265625 C 319.65777587890625 255.42845153808594 351.1459655761719 270.8464050292969 276.3534240722656 260.9645690917969" stroke-width="19.193458557128906" fill="none" stroke="rgb(0, 0, 0)" stroke-opacity="0.33381838" stroke-linecap="round" stroke-linejoin="round"/>
    <path d="M 330.1197509765625 574.0384521484375 C 336.60498046875 551.3966064453125 337.2680358886719 565.170166015625 386.8634338378906 563.5811157226562 C 381.6004333496094 546.0618286132812 370.39990234375 533.7787475585938 308.303466796875 539.9724731445312 C 303.2945861816406 522.1282958984375 335.084228515625 531.1625366210938 371.0958251953125 536.12841796875 C 358.53607177734375 516.0828857421875 268.9657287597656 539.522216796875 281.8611145019531 495.62567138671875" stroke-width="9.825971603393555" fill="none" stroke="rgb(0, 0, 0)" stroke-opacity="0.45021948" stroke-linecap="round" stroke-linejoin="round"/>
    <path d="M 135.2029571533203 375.363525390625 C 120.33810424804688 388.98065185546875 77.95917510986328 364.6352844238281 75.49327850341797 353.94720458984375 C 109.44779205322266 378.47650146484375 121.32827758789062 382.6628112792969 143.50172424316406 389.7275695800781 C 126.61175537109375 369.5496826171875 99.31558227539062 368.214599609375 77.86543273925781 368.1037902832031 C 35.322959899902344 412.1153564453125 1.008326530456543 433.62847900390625 2.3059756755828857 412.7166748046875" stroke-width="-11.756906509399414" fill="none" stroke="rgb(0, 0, 0)" stroke-opacity="0.7113362" stroke-linecap="round" stroke-linejoin="round"/>
    <path d="M 41.666259765625 262.17291259765625 C 55.168800354003906 267.9434509277344 65.98274230957031 276.98992919921875 67.34148406982422 247.1217498779297 C 106.57430267333984 263.49755859375 114.45509338378906 227.7636260986328 152.3470458984375 215.6821746826172 C 152.42095947265625 211.24594116210938 116.6412353515625 197.89935302734375 101.3647232055664 188.95245361328125 C 132.28977966308594 220.19630432128906 102.93085479736328 190.4245147705078 73.77135467529297 162.63706970214844" stroke-width="-36.007415771484375" fill="none" stroke="rgb(0, 0, 0)" stroke-opacity="0.451514" stroke-linecap="round" stroke-linejoin="round"/>
    <path d="M 420.77496337890625 420.5408020019531 C 417.5098571777344 400.9866027832031 387.7832336425781 411.4335021972656 401.2814636230469 429.4114074707031 C 444.1600341796875 423.80517578125 442.69183349609375 438.6180419921875 493.8299560546875 424.27056884765625 C 424.7039489746094 415.8880310058594 468.5479431152344 392.9783020019531 435.6434326171875 426.9701843261719 C 413.4150085449219 415.2710266113281 363.3838195800781 416.93408203125 329.5003967285156 412.6422424316406" stroke-width="32.29348373413086" fill="none" stroke="rgb(0, 0, 0)" stroke-opacity="0.91941565" stroke-linecap="round" stroke-linejoin="round"/>
    <path d="M 430.4378967285156 187.41311645507812 C 436.6481018066406 177.58253479003906 429.0174560546875 199.61004638671875 376.9638366699219 207.0303955078125 C 324.2998962402344 215.17674255371094 335.66888427734375 145.88189697265625 315.1613464355469 125.8606948852539 C 295.9288635253906 253.5320587158203 298.6754150390625 180.51214599609375 338.7708435058594 195.2271728515625 C 427.4573669433594 209.0585174560547 382.2987976074219 184.95382690429688 412.1390686035156 135.33721923828125" stroke-width="3.671072244644165" fill="none" stroke="rgb(0, 0, 0)" stroke-opacity="0.6547447" stroke-linecap="round" stroke-linejoin="round"/>
    <path d="M 506.2264099121094 142.95614624023438 C 509.0492248535156 143.52342224121094 501.8133239746094 144.6644744873047 693.5406494140625 123.51956176757812 C 757.294921875 123.07861328125 783.503662109375 172.51422119140625 544.708251953125 288.5316162109375 C 355.52789306640625 271.3790283203125 327.16217041015625 172.8029022216797 355.3302307128906 163.9247283935547 C 573.4136352539062 127.7714614868164 525.1668090820312 90.9149169921875 514.1439819335938 77.25972747802734" stroke-width="-96.11006927490234" fill="none" stroke="rgb(0, 0, 0)" stroke-opacity="0.23719746" stroke-linecap="round" stroke-linejoin="round"/>
    <path d="M 543.3612060546875 325.4405822753906 C 563.5881958007812 334.3735656738281 534.9876708984375 360.6346130371094 502.9313049316406 361.54461669921875 C 528.4761352539062 350.4786682128906 552.5729370117188 320.2841491699219 577.533203125 299.9089660644531 C 577.9467163085938 327.08966064453125 562.7333984375 337.4711608886719 497.7553405761719 354.91290283203125 C 556.3740844726562 327.65386962890625 526.7904052734375 344.1951599121094 479.4295959472656 385.64849853515625" stroke-width="-9.827986717224121" fill="none" stroke="rgb(0, 0, 0)" stroke-opacity="0.70755655" stroke-linecap="round" stroke-linejoin="round"/>
    <path d="M -2.9500350952148438 459.35992431640625 C 13.933330535888672 453.65093994140625 39.96758270263672 438.020263671875 52.42230224609375 423.76715087890625 C 34.3781852722168 440.9555969238281 15.65191650390625 446.7863464355469 6.184906482696533 438.68402099609375 C 30.193361282348633 440.3100891113281 44.51980209350586 413.9471130371094 55.215782165527344 429.8545227050781 C 53.073570251464844 411.102294921875 37.01912307739258 438.57781982421875 10.965869903564453 443.6622009277344" stroke-width="-1.7204865217208862" fill="none" stroke="rgb(0, 0, 0)" stroke-opacity="0.45735136" stroke-linecap="round" stroke-linejoin="round"/>
    <path d="M 318.7406311035156 447.1805725097656 C 303.2158508300781 512.7351684570312 233.99050903320312 511.4580993652344 195.14437866210938 488.8264465332031 C 312.5430603027344 496.0182800292969 324.6588134765625 440.9664001464844 248.50210571289062 442.343017578125 C 197.1725616455078 404.673828125 198.32020568847656 443.2729187011719 174.57650756835938 453.765869140625 C 155.43479919433594 445.20391845703125 103.16097259521484 482.432373046875 108.59912109375 475.97735595703125" stroke-width="-0.042544905096292496" fill="none" stroke="rgb(0, 0, 0)" stroke-opacity="0.194795" stroke-linecap="round" stroke-linejoin="round"/>
    <path d="M 674.2955932617188 370.7898254394531 C 675.1744384765625 373.80548095703125 677.6056518554688 387.6441955566406 599.7413330078125 376.7178039550781 C 554.7539672851562 409.8626708984375 562.2601318359375 438.3714294433594 559.5965576171875 453.6481018066406 C 555.3700561523438 494.9315490722656 509.5408020019531 518.5115966796875 509.3534851074219 473.2811279296875 C 532.9843139648438 415.1087646484375 536.3667602539062 402.67034912109375 554.886474609375 410.77984619140625" stroke-width="-33.34467315673828" fill="none" stroke="rgb(0, 0, 0)" stroke-opacity="0.25893438" stroke-linecap="round" stroke-linejoin="round"/>
    <path d="M 102.53999328613281 262.1724853515625 C 96.28802490234375 289.8594970703125 106.939208984375 297.2315673828125 139.77896118164062 299.18402099609375 C 134.559326171875 299.3620910644531 85.35716247558594 279.0203857421875 82.09013366699219 272.8571472167969 C 83.47576904296875 285.4852600097656 123.70382690429688 278.0634460449219 149.0883026123047 319.0343017578125 C 126.344970703125 301.8731384277344 123.84538269042969 298.3093566894531 93.96054077148438 291.4465026855469" stroke-width="-8.025664329528809" fill="none" stroke="rgb(0, 0, 0)" stroke-opacity="0.7395662" stroke-linecap="round" stroke-linejoin="round"/>
    <path d="M 466.29241943359375 127.54014587402344 C 465.6810302734375 100.07719421386719 463.219482421875 102.78653717041016 480.9773254394531 136.65232849121094 C 489.72540283203125 131.29855346679688 491.90655517578125 130.12960815429688 430.1889953613281 117.58763885498047 C 406.1662292480469 107.59771728515625 409.3269958496094 118.54830932617188 387.2491149902344 149.3948974609375 C 422.1105041503906 156.5372314453125 422.5619812011719 107.67528533935547 422.8470764160156 101.90724182128906" stroke-width="-34.15135955810547" fill="none" stroke="rgb(0, 0, 0)" stroke-opacity="0.38398108" stroke-linecap="round" stroke-linejoin="round"/>
    <path d="M 295.3747253417969 450.08978271484375 C 305.82861328125 328.2424011230469 228.07540893554688 385.5345764160156 286.8226318359375 364.70330810546875 C 334.6628112792969 334.92706298828125 297.5625 387.9766845703125 264.92315673828125 438.9832763671875 C 291.43304443359375 435.10345458984375 304.3052978515625 401.87396240234375 249.6296844482422 427.30426025390625 C 241.64222717285156 428.1803283691406 266.00946044921875 397.1493835449219 278.5074157714844 549.967041015625" stroke-width="27.80127716064453" fill="none" stroke="rgb(0, 0, 0)" stroke-opacity="0.7774421" stroke-linecap="round" stroke-linejoin="round"/>
    <path d="M 446.6806640625 206.5096435546875 C 478.7903137207031 195.88368225097656 485.73779296875 168.19837951660156 479.1172180175781 169.88772583007812 C 466.0840759277344 194.5962371826172 437.3112487792969 208.47132873535156 374.18603515625 186.21102905273438 C 446.38519287109375 213.3413543701172 465.8603820800781 205.78900146484375 485.14312744140625 169.3027801513672 C 485.1395568847656 165.8613739013672 504.5983581542969 180.3240966796875 480.12420654296875 191.8729248046875" stroke-width="-34.69034957885742" fill="none" stroke="rgb(0, 0, 0)" stroke-opacity="0.5621453" stroke-linecap="round" stroke-linejoin="round"/>
    <path d="M 460.0645446777344 307.5725402832031 C 383.9447021484375 333.2247009277344 321.37835693359375 267.75933837890625 289.9742431640625 320.95965576171875 C 278.19525146484375 358.6890869140625 384.05572509765625 355.3580017089844 432.2504577636719 366.3101501464844 C 392.43145751953125 370.6617126464844 463.183837890625 368.2451171875 426.79754638671875 366.72454833984375 C 367.5641174316406 350.2730712890625 365.56512451171875 368.8531494140625 381.3649597167969 361.85504150390625" stroke-width="30.11716651916504" fill="none" stroke="rgb(0, 0, 0)" stroke-opacity="0.6667724" stroke-linecap="round" stroke-linejoin="round"/>
    <path d="M 268.9993591308594 156.76513671875 C 305.42425537109375 144.19813537597656 300.1639404296875 197.2349090576172 310.94329833984375 142.85353088378906 C 338.7093811035156 116.9130630493164 330.05755615234375 126.54037475585938 381.9648742675781 136.92515563964844 C 395.3309631347656 132.03321838378906 346.3598327636719 102.11781311035156 358.1340637207031 112.76830291748047 C 334.6865539550781 150.03549194335938 365.19134521484375 163.75967407226562 444.160400390625 141.4464569091797" stroke-width="32.06648635864258" fill="none" stroke="rgb(0, 0, 0)" stroke-opacity="0.25241193" stroke-linecap="round" stroke-linejoin="round"/>
    <path d="M 176.61219787597656 530.8667602539062 C 171.5941619873047 514.1492919921875 154.1811065673828 533.9511108398438 97.39926147460938 527.3043823242188 C 87.75023651123047 553.169189453125 108.49542999267578 546.2388916015625 130.96322631835938 523.763671875 C 61.433223724365234 509.04461669921875 53.09685134887695 509.16448974609375 64.05166625976562 488.5390319824219 C 108.78710174560547 429.3429260253906 95.39417266845703 446.8443908691406 93.57112121582031 468.3641357421875" stroke-width="-16.66654396057129" fill="none" stroke="rgb(0, 0, 0)" stroke-opacity="0.1327963" stroke-linecap="round" stroke-linejoin="round"/>
    <path d="M 528.2175903320312 228.45181274414062 C 525.3336791992188 230.6826171875 537.9407958984375 229.99041748046875 545.4705200195312 207.4405059814453 C 531.9683837890625 231.5235595703125 521.77294921875 227.51316833496094 539.5560913085938 212.10279846191406 C 539.0734252929688 194.7890167236328 491.4189758300781 188.93478393554688 490.7138366699219 223.69386291503906 C 428.0670471191406 226.3253936767578 436.9635314941406 201.45408630371094 405.8831787109375 248.3213653564453" stroke-width="-19.622703552246094" fill="none" stroke="rgb(0, 0, 0)" stroke-opacity="0.2517973" stroke-linecap="round" stroke-linejoin="round"/>
    <path d="M 176.70785522460938 121.95925903320312 C 153.07290649414062 125.20178985595703 124.54335021972656 108.01317596435547 141.1837615966797 129.14352416992188 C 168.40682983398438 96.92242431640625 143.70297241210938 46.30768585205078 134.7372283935547 23.921567916870117 C 136.08291625976562 38.445556640625 148.8663787841797 68.98400115966797 160.8558349609375 85.90113830566406 C 148.96551513671875 111.8998794555664 157.46774291992188 120.31173706054688 168.17462158203125 127.36283874511719" stroke-width="-11.392977714538574" fill="none" stroke="rgb(0, 0, 0)" stroke-opacity="0.34441695" stroke-linecap="round" stroke-linejoin="round"/>
    <path d="M 439.226318359375 253.00112915039062 C 412.3443908691406 268.8722839355469 327.59521484375 245.86264038085938 342.30792236328125 249.2222137451172 C 282.3242492675781 231.473876953125 355.1055908203125 236.7661590576172 318.31500244140625 252.41964721679688 C 306.3288879394531 282.40325927734375 271.6576232910156 256.4454650878906 297.65679931640625 277.0423583984375 C 277.84619140625 309.28240966796875 383.3765869140625 315.3377990722656 256.1014709472656 319.012939453125" stroke-width="19.21950340270996" fill="none" stroke="rgb(0, 0, 0)" stroke-opacity="0.9272576" stroke-linecap="round" stroke-linejoin="round"/>
    <path d="M 471.12969970703125 349.3635559082031 C 403.21734619140625 378.25970458984375 434.2806091308594 398.133544921875 433.9172058105469 411.58233642578125 C 414.3092956542969 429.7565002441406 356.67742919921875 455.7032165527344 313.551513671875 416.2618408203125 C 397.4429931640625 384.6142883300781 447.89666748046875 418.1305236816406 350.4883117675781 416.51702880859375 C 328.546630859375 429.01788330078125 354.8943786621094 381.01806640625 317.5461730957031 404.6724548339844" stroke-width="13.070337295532227" fill="none" stroke="rgb(0, 0, 0)" stroke-opacity="0.78729063" stroke-linecap="round" stroke-linejoin="round"/>
    <path d="M 71.98167419433594 264.8206481933594 C 92.85355377197266 269.09332275390625 91.22882843017578 293.2383728027344 81.0078353881836 267.1589660644531 C 132.039794921875 247.79331970214844 133.54295349121094 239.32168579101562 143.9929962158203 226.65272521972656 C 147.81979370117188 246.07371520996094 90.3812255859375 251.75656127929688 65.1407241821289 262.08795166015625 C 87.58130645751953 259.0196838378906 98.45149993896484 301.1322326660156 103.40300750732422 293.0072937011719" stroke-width="2.9123423099517822" fill="none" stroke="rgb(0, 0, 0)" stroke-opacity="0.7147814" stroke-linecap="round" stroke-linejoin="round"/>
    <path d="M 372.162109375 201.22300720214844 C 424.3847351074219 193.6012725830078 387.4693603515625 251.59368896484375 385.03759765625 214.43153381347656 C 407.33819580078125 178.72158813476562 418.20526123046875 208.6052703857422 415.59002685546875 226.974365234375 C 396.6087646484375 171.47232055664062 416.772705078125 140.9722442626953 405.8287353515625 189.5641326904297 C 431.710693359375 231.2475128173828 388.6986083984375 274.703369140625 471.2420959472656 240.3821258544922" stroke-width="6.483391761779785" fill="none" stroke="rgb(0, 0, 0)" stroke-opacity="0.48477885" stroke-linecap="round" stroke-linejoin="round"/>
    <path d="M 59.43189239501953 490.2578125 C 43.86284637451172 514.4837646484375 92.15771484375 505.8973083496094 119.9860610961914 520.5349731445312 C 108.26588439941406 516.4117431640625 103.24390411376953 490.6773681640625 135.5646209716797 493.05133056640625 C 122.79865264892578 534.8416748046875 158.5715789794922 518.1943969726562 110.87267303466797 555.833251953125 C 80.96350860595703 501.2815246582031 97.99016571044922 517.896728515625 159.5625457763672 518.7305908203125" stroke-width="-22.241867065429688" fill="none" stroke="rgb(0, 0, 0)" stroke-opacity="0.17909129" stroke-linecap="round" stroke-linejoin="round"/>
    <path d="M 421.88775634765625 567.2162475585938 C 423.8446960449219 547.2135009765625 456.3851013183594 539.0035400390625 538.6929931640625 548.6342163085938 C 546.417724609375 612.5071411132812 525.2030029296875 591.8321533203125 486.6674499511719 581.323486328125 C 488.19244384765625 581.2794189453125 531.60205078125 600.8051147460938 565.4060668945312 620.267578125 C 479.0900573730469 672.0707397460938 485.3926696777344 652.8184204101562 478.50335693359375 641.19677734375" stroke-width="-7.246523857116699" fill="none" stroke="rgb(0, 0, 0)" stroke-opacity="0.71384823" stroke-linecap="round" stroke-linejoin="round"/>
    <path d="M 435.0876770019531 142.2532501220703 C 366.2053527832031 133.27760314941406 349.43603515625 117.23839569091797 349.4755554199219 47.19866943359375 C 357.8333740234375 100.99153900146484 354.94775390625 129.8614959716797 352.62274169921875 93.66291046142578 C 348.6990661621094 68.55722045898438 357.4571533203125 17.349946975708008 348.75421142578125 -1.015705943107605 C 373.4322814941406 -10.234065055847168 333.14068603515625 -9.587860107421875 353.0063171386719 2.2284622192382812" stroke-width="17.117055892944336" fill="none" stroke="rgb(0, 0, 0)" stroke-opacity="0.77719337" stroke-linecap="round" stroke-linejoin="round"/>
    <path d="M 509.2088623046875 232.75119018554688 C 525.5177612304688 222.9801788330078 496.1723327636719 218.17318725585938 531.228271484375 218.7561798095703 C 487.9849853515625 248.7560577392578 477.2874755859375 250.175048828125 495.0361328125 275.0299072265625 C 560.82177734375 238.24449157714844 581.4813232421875 196.55789184570312 537.0517578125 169.2689208984375 C 423.5456237792969 192.02471923828125 436.1494140625 128.50328063964844 420.5872802734375 123.58277130126953" stroke-width="-49.65626525878906" fill="none" stroke="rgb(0, 0, 0)" stroke-opacity="0.12974007" stroke-linecap="round" stroke-linejoin="round"/>
    <path d="M 139.24070739746094 121.97673797607422 C 144.05430603027344 140.3484649658203 166.26185607910156 179.96205139160156 113.83647155761719 169.79917907714844 C 123.46688842773438 187.99755859375 178.94476318359375 182.9286346435547 186.7313232421875 186.97525024414062 C 157.71658325195312 186.73924255371094 159.94613647460938 214.8302764892578 132.3217010498047 236.3133544921875 C 167.1977081298828 270.90435791015625 208.1686248779297 288.3119201660156 226.17727661132812 273.4002685546875" stroke-width="-43.24250793457031" fill="none" stroke="rgb(0, 0, 0)" stroke-opacity="0.06999053" stroke-linecap="round" stroke-linejoin="round"/>
    <path d="M 253.95155334472656 516.0211791992188 C 322.5718078613281 535.0294189453125 329.7554931640625 552.0213012695312 406.7975158691406 557.1311645507812 C 416.0037841796875 579.0978393554688 409.0354309082031 467.4202880859375 393.8448486328125 492.49481201171875 C 407.1200866699219 490.3507080078125 481.1864013671875 511.5928649902344 457.75543212890625 459.52813720703125 C 376.8141174316406 453.0776672363281 337.3329772949219 451.6315612792969 321.5949401855469 448.60516357421875" stroke-width="5.242750644683838" fill="none" stroke="rgb(0, 0, 0)" stroke-opacity="0.66877985" stroke-linecap="round" stroke-linejoin="round"/>
    <path d="M 262.865966796875 498.8487854003906 C 257.0029296875 541.8671875 239.0595245361328 552.5879516601562 280.8917541503906 516.224853515625 C 364.4053039550781 531.25 411.9869079589844 580.4896850585938 384.5704345703125 617.9807739257812 C 256.23638916015625 638.1025390625 244.57835388183594 666.9442749023438 228.09121704101562 696.1461181640625 C 219.56552124023438 707.9923706054688 223.60861206054688 724.7960815429688 232.56495666503906 721.4907836914062" stroke-width="-35.63618469238281" fill="none" stroke="rgb(0, 0, 0)" stroke-opacity="0.7985232" stroke-linecap="round" stroke-linejoin="round"/>
    <path d="M 442.49359130859375 58.25374221801758 C 444.8464660644531 47.560447692871094 434.6875 24.43204116821289 395.52655029296875 16.237686157226562 C 403.7008361816406 28.507478713989258 406.285888671875 -0.7743732333183289 450.7169494628906 68.67652893066406 C 492.1802062988281 76.6028060913086 500.510498046875 46.236083984375 502.21527099609375 32.57081604003906 C 507.0138854980469 -2.4974191188812256 488.34820556640625 -17.543781280517578 487.4810791015625 -20.595741271972656" stroke-width="-27.67604637145996" fill="none" stroke="rgb(0, 0, 0)" stroke-opacity="0.5403389" stroke-linecap="round" stroke-linejoin="round"/>
    <path d="M 414.91851806640625 27.081151962280273 C 414.110595703125 60.63032531738281 417.0030822753906 48.35092544555664 479.6953125 26.61743927001953 C 527.4912109375 3.534776210784912 529.5629272460938 -21.5770320892334 508.78814697265625 -8.718812942504883 C 398.5581359863281 -1.0541568994522095 413.72314453125 -21.96039390563965 399.8662109375 -22.703113555908203 C 418.9840087890625 -23.863866806030273 422.9626159667969 -33.607017517089844 425.0271301269531 -57.91776657104492" stroke-width="-18.93146514892578" fill="none" stroke="rgb(0, 0, 0)" stroke-opacity="0.26376683" stroke-linecap="round" stroke-linejoin="round"/>
    <path d="M 200.5328369140625 54.29014205932617 C 200.16737365722656 83.36719512939453 179.3404541015625 38.95667266845703 149.02195739746094 51.32440185546875 C 167.5570526123047 92.18685913085938 158.6025390625 88.10325622558594 136.25299072265625 33.54509735107422 C 148.26544189453125 -39.25441360473633 153.1706085205078 -51.425174713134766 164.31942749023438 -51.32167434692383 C 155.5467529296875 -43.92087173461914 130.49258422851562 -20.19113540649414 140.13601684570312 -16.070512771606445" stroke-width="-9.76111888885498" fill="none" stroke="rgb(0, 0, 0)" stroke-opacity="0.27802584" stroke-linecap="round" stroke-linejoin="round"/>
    <path d="M 325.02630615234375 541.3914794921875 C 263.5118713378906 552.8997802734375 201.28121948242188 571.390380859375 270.4421081542969 561.6830444335938 C 267.1490173339844 550.0302124023438 288.9059143066406 492.2234191894531 294.6437072753906 504.1549072265625 C 168.37416076660156 505.75872802734375 212.693359375 497.9621887207031 255.76231384277344 512.3087158203125 C 252.52352905273438 546.1630249023438 245.38693237304688 540.55615234375 145.9215850830078 549.1624755859375" stroke-width="25.956928253173828" fill="none" stroke="rgb(0, 0, 0)" stroke-opacity="0.5484098" stroke-linecap="round" stroke-linejoin="round"/>
    <path d="M 396.114990234375 499.1438293457031 C 284.7215576171875 500.0423583984375 285.4708557128906 465.9269714355469 248.22137451171875 512.927490234375 C 339.0469665527344 507.4506530761719 315.88470458984375 465.0942077636719 303.05938720703125 418.1492004394531 C 320.2714538574219 393.2047424316406 310.69805908203125 410.21533203125 295.3401794433594 411.7081604003906 C 328.7814025878906 401.0033264160156 315.5765686035156 399.37457275390625 248.66256713867188 426.67913818359375" stroke-width="21.039188385009766" fill="none" stroke="rgb(0, 0, 0)" stroke-opacity="0.7317884" stroke-linecap="round" stroke-linejoin="round"/>
    <path d="M 248.69593811035156 500.19061279296875 C 240.0029296875 475.0262451171875 275.7770080566406 441.1261901855469 299.5202941894531 465.225830078125 C 276.519775390625 491.689697265625 250.97964477539062 457.7371520996094 278.7940368652344 443.98529052734375 C 263.4984436035156 475.64080810546875 236.43106079101562 482.88720703125 225.29681396484375 509.2479553222656 C 267.4473571777344 481.2518615722656 210.79981994628906 489.9956970214844 234.2315216064453 499.9967346191406" stroke-width="1.386939287185669" fill="none" stroke="rgb(0, 0, 0)" stroke-opacity="0.36605155" stroke-linecap="round" stroke-linejoin="round"/>
    <path d="M 506.2264099121094 142.95614624023438 C 509.0492248535156 143.52342224121094 501.8133239746094 144.6644744873047 693.5406494140625 123.51956176757812 C 757.294921875 123.07861328125 783.503662109375 172.51422119140625 544.708251953125 288.5316162109375 C 355.52789306640625 271.3790283203125 327.16217041015625 172.8029022216797 355.3302307128906 163.9247283935547 C 573.4136352539062 127.7714614868164 525.1668090820312 90.9149169921875 514.1439819335938 77.25972747802734" stroke-width="-96.11006927490234" fill="none" stroke="rgb(0, 0, 0)" stroke-opacity="0.033797715" stroke-linecap="round" stroke-linejoin="round"/>
    <path d="M 272.679443359375 430.71142578125 C 289.0268859863281 463.92071533203125 311.33349609375 411.9827575683594 287.37823486328125 410.5772705078125 C 326.6405029296875 405.79925537109375 303.1596984863281 411.9866027832031 210.11422729492188 439.72027587890625 C 261.64495849609375 449.6788330078125 310.9976501464844 445.9571533203125 310.1800842285156 469.6959228515625 C 303.4326477050781 471.107177734375 341.2958068847656 453.0078430175781 307.014892578125 450.7430419921875" stroke-width="23.5018367767334" fill="none" stroke="rgb(0, 0, 0)" stroke-opacity="0.46671683" stroke-linecap="round" stroke-linejoin="round"/>
    <path d="M 229.29469299316406 102.0245590209961 C 244.8329620361328 110.23936462402344 245.0209197998047 108.27362823486328 233.08946228027344 105.71627807617188 C 231.38723754882812 116.20825958251953 262.4943542480469 125.00958251953125 337.8449401855469 188.72080993652344 C 309.6224365234375 231.7733154296875 258.5261535644531 230.2584991455078 251.43016052246094 238.33831787109375 C 248.9273223876953 195.77960205078125 220.65162658691406 205.8644256591797 224.18612670898438 225.21022033691406" stroke-width="-43.00473403930664" fill="none" stroke="rgb(0, 0, 0)" stroke-opacity="0.35818553" stroke-linecap="round" stroke-linejoin="round"/>
    <path d="M 459.7170715332031 514.3837890625 C 468.47796630859375 543.201171875 502.16265869140625 530.1344604492188 510.52264404296875 549.4447021484375 C 482.905029296875 565.922119140625 478.6906433105469 522.160400390625 452.2734069824219 539.0414428710938 C 522.0302734375 552.6942749023438 518.7783203125 530.8003540039062 459.8630065917969 535.0466918945312 C 416.8079833984375 543.5874633789062 456.2259826660156 542.7553100585938 508.93133544921875 514.2835083007812" stroke-width="-0.926711916923523" fill="none" stroke="rgb(0, 0, 0)" stroke-opacity="0.77429795" stroke-linecap="round" stroke-linejoin="round"/>
    <path d="M 423.0234680175781 12.297350883483887 C 399.4500427246094 12.95308780670166 410.0627746582031 26.86243438720703 384.0554504394531 70.66787719726562 C 392.65277099609375 96.6445541381836 436.515869140625 98.94557189941406 440.47283935546875 -5.858098983764648 C 336.490966796875 -55.423824310302734 300.2872009277344 -58.5665397644043 323.2545166015625 245.93663024902344 C 489.1181335449219 306.6360168457031 559.4801635742188 277.8550720214844 546.3656616210938 211.46847534179688" stroke-width="-83.97345733642578" fill="none" stroke="rgb(0, 0, 0)" stroke-opacity="0.3544152" stroke-linecap="round" stroke-linejoin="round"/>
    <path d="M 332.017333984375 117.3510971069336 C 326.2009582519531 174.75624084472656 336.2952880859375 213.86697387695312 310.71795654296875 170.64500427246094 C 242.62213134765625 159.5626678466797 304.1078796386719 158.72845458984375 348.2998046875 122.70384216308594 C 312.8966064453125 143.6357879638672 303.8242492675781 133.39361572265625 324.44671630859375 197.71365356445312 C 262.67303466796875 244.77386474609375 254.45648193359375 260.0381774902344 373.00726318359375 204.88717651367188" stroke-width="23.476482391357422" fill="none" stroke="rgb(0, 0, 0)" stroke-opacity="0.60076284" stroke-linecap="round" stroke-linejoin="round"/>
    <path d="M 305.53070068359375 546.150390625 C 303.4787292480469 485.2452697753906 275.356201171875 452.73931884765625 217.5652618408203 432.242431640625 C 297.7516174316406 430.7032470703125 309.2831115722656 446.9505615234375 297.2825927734375 421.02374267578125 C 265.560302734375 354.7170104980469 328.9957275390625 353.12298583984375 319.0411376953125 376.3804931640625 C 335.3909912109375 413.41033935546875 280.22552490234375 406.67095947265625 308.8296203613281 401.16802978515625" stroke-width="27.674400329589844" fill="none" stroke="rgb(0, 0, 0)" stroke-opacity="0.93259466" stroke-linecap="round" stroke-linejoin="round"/>
    <path d="M 549.156005859375 539.3968505859375 C 345.82958984375 530.9175415039062 330.9902038574219 534.2169799804688 389.6698303222656 550.9839477539062 C 392.50836181640625 575.1337890625 426.6568908691406 487.3485107421875 394.11895751953125 500.5853576660156 C 319.4555358886719 488.51910400390625 334.6376647949219 501.2552185058594 500.9869079589844 499.2710876464844 C 443.6184387207031 521.6845092773438 339.9300842285156 486.55828857421875 300.006591796875 485.5599365234375" stroke-width="17.682147979736328" fill="none" stroke="rgb(0, 0, 0)" stroke-opacity="0.8656204" stroke-linecap="round" stroke-linejoin="round"/>
    <path d="M 306.4460144042969 94.9631118774414 C 297.7408752441406 94.19476318359375 277.79833984375 126.14115142822266 258.0083923339844 122.69759368896484 C 287.10565185546875 79.4360580444336 307.78631591796875 118.33289337158203 270.9730224609375 113.77581787109375 C 253.61712646484375 88.58329772949219 281.20123291015625 50.26841354370117 265.6816101074219 92.84247589111328 C 293.62713623046875 134.7222137451172 274.7923278808594 104.39461517333984 258.9520263671875 108.53975677490234" stroke-width="-35.70033264160156" fill="none" stroke="rgb(0, 0, 0)" stroke-opacity="0.5045393" stroke-linecap="round" stroke-linejoin="round"/>
    <path d="M 329.9471435546875 266.2132873535156 C 268.4337158203125 355.9140625 223.30686950683594 302.3428955078125 277.5089416503906 313.5244140625 C 280.3179931640625 327.59808349609375 259.2041320800781 307.2655334472656 309.80108642578125 302.9176940917969 C 347.210205078125 324.73272705078125 325.5898132324219 379.40240478515625 307.49896240234375 359.0760192871094 C 333.3701477050781 332.41156005859375 301.73785400390625 354.3763427734375 328.3866271972656 329.4544677734375" stroke-width="14.433719635009766" fill="none" stroke="rgb(0, 0, 0)" stroke-opacity="0.3365826" stroke-linecap="round" stroke-linejoin="round"/>
    <path d="M 154.8712615966797 438.739990234375 C 142.37913513183594 435.19927978515625 110.62211608886719 458.8285217285156 200.9156494140625 442.6390686035156 C 252.81480407714844 390.87591552734375 258.41204833984375 407.43878173828125 177.88316345214844 359.5738830566406 C 107.96114349365234 410.61724853515625 108.74674987792969 393.41485595703125 114.18008422851562 406.2445373535156 C 129.49008178710938 387.0401916503906 157.2606964111328 365.10675048828125 165.37728881835938 356.7422790527344" stroke-width="-41.50692367553711" fill="none" stroke="rgb(0, 0, 0)" stroke-opacity="0.16175614" stroke-linecap="round" stroke-linejoin="round"/>
    <path d="M 170.14987182617188 565.6040649414062 C 139.13522338867188 522.485107421875 127.62509155273438 509.5412292480469 116.12802124023438 551.69140625 C 158.98130798339844 541.7548217773438 207.5924072265625 546.751953125 157.15679931640625 538.1268310546875 C 215.91357421875 541.7575073242188 250.29147338867188 539.1803588867188 210.128173828125 547.9257202148438 C 269.7287902832031 558.9882202148438 251.16307067871094 536.2344970703125 234.20907592773438 504.7222900390625" stroke-width="27.03608512878418" fill="none" stroke="rgb(0, 0, 0)" stroke-opacity="0.6679465" stroke-linecap="round" stroke-linejoin="round"/>
    <path d="M -21.55417823791504 540.9401245117188 C 105.44877624511719 536.902099609375 178.76748657226562 540.9563598632812 216.83924865722656 552.5050048828125 C 147.89414978027344 535.59716796875 139.83584594726562 522.9869384765625 145.802001953125 553.6812744140625 C 119.92021179199219 524.9796142578125 130.38162231445312 526.0296020507812 104.43082427978516 566.4228515625 C 74.02259826660156 542.3500366210938 92.72206115722656 544.0531005859375 244.0748291015625 538.440185546875" stroke-width="32.440494537353516" fill="none" stroke="rgb(0, 0, 0)" stroke-opacity="0.88569385" stroke-linecap="round" stroke-linejoin="round"/>
    <path d="M 44.488006591796875 547.8845825195312 C 43.432106018066406 549.1414794921875 27.987302780151367 498.9039001464844 67.68338775634766 531.5242309570312 C 105.30474090576172 550.606689453125 80.56046295166016 528.2904052734375 25.546327590942383 503.0924987792969 C -0.6547335386276245 537.1489868164062 13.956061363220215 557.7025756835938 36.39158630371094 548.4352416992188 C 35.191749572753906 549.8614501953125 77.9264144897461 554.3114624023438 30.55369758605957 553.9298095703125" stroke-width="30.130273818969727" fill="none" stroke="rgb(0, 0, 0)" stroke-opacity="0.09885983" stroke-linecap="round" stroke-linejoin="round"/>
    <path d="M 432.0198059082031 611.279296875 C 449.3565673828125 619.029541015625 443.1583251953125 625.6796264648438 416.18017578125 643.4363403320312 C 444.5873107910156 662.8084716796875 428.4744567871094 680.5669555664062 433.5625915527344 677.0046997070312 C 457.1569519042969 704.6297607421875 478.5190734863281 702.7484130859375 472.2286071777344 703.0968627929688 C 496.0069885253906 703.8554077148438 470.7086181640625 720.2421264648438 497.9147644042969 746.9879760742188" stroke-width="9.10058879852295" fill="none" stroke="rgb(0, 0, 0)" stroke-opacity="0.6680989" stroke-linecap="round" stroke-linejoin="round"/>
    <path d="M 88.20590209960938 523.9180297851562 C 37.012271881103516 540.4822387695312 16.54306411743164 527.3267822265625 -10.138808250427246 519.4990234375 C -49.46916961669922 496.40362548828125 -66.11591339111328 462.8762512207031 -72.1950912475586 460.51507568359375 C -17.172941207885742 436.4953308105469 -6.8878703117370605 425.21722412109375 -36.109676361083984 396.3152770996094 C -33.534568786621094 383.8189697265625 -3.158034086227417 389.8802490234375 -25.189905166625977 357.6686706542969" stroke-width="25.359073638916016" fill="none" stroke="rgb(0, 0, 0)" stroke-opacity="0.64491624" stroke-linecap="round" stroke-linejoin="round"/>
    <path d="M 506.2264099121094 142.95614624023438 C 509.0492248535156 143.52342224121094 501.8133239746094 144.6644744873047 693.5406494140625 123.51956176757812 C 757.294921875 123.07861328125 783.503662109375 172.51422119140625 544.708251953125 288.5316162109375 C 355.52789306640625 271.3790283203125 327.16217041015625 172.8029022216797 355.3302307128906 163.9247283935547 C 573.4136352539062 127.7714614868164 525.1668090820312 90.9149169921875 514.1439819335938 77.25972747802734" stroke-width="-96.11006927490234" fill="none" stroke="rgb(0, 0, 0)" stroke-opacity="0.8251986" stroke-linecap="round" stroke-linejoin="round"/>
    <path d="M 349.84649658203125 101.88499450683594 C 369.8832702636719 128.31536865234375 360.8385925292969 114.83011627197266 341.4765319824219 138.02694702148438 C 328.9359130859375 107.81310272216797 322.2483215332031 175.92344665527344 303.36712646484375 151.3474578857422 C 336.83660888671875 120.53790283203125 360.7132873535156 112.65191650390625 331.8014221191406 139.9259033203125 C 384.8154602050781 156.1072235107422 429.3466796875 149.733154296875 370.0885009765625 118.35542297363281" stroke-width="29.37672233581543" fill="none" stroke="rgb(0, 0, 0)" stroke-opacity="0.71206474" stroke-linecap="round" stroke-linejoin="round"/>
    <path d="M 307.08074951171875 118.99607849121094 C 280.0049743652344 104.0815658569336 270.7580871582031 81.7234878540039 252.52342224121094 67.7868423461914 C 264.828369140625 72.51518249511719 270.66009521484375 106.47013092041016 274.2439270019531 64.81084442138672 C 281.5044860839844 69.66690063476562 280.6795959472656 67.07254791259766 280.6551513671875 125.12748718261719 C 295.8877258300781 148.88534545898438 277.8743896484375 134.33583068847656 255.03749084472656 126.67483520507812" stroke-width="-34.769432067871094" fill="none" stroke="rgb(0, 0, 0)" stroke-opacity="0.3042875" stroke-linecap="round" stroke-linejoin="round"/>
    <path d="M 36.97663879394531 151.1448516845703 C 22.654502868652344 183.71287536621094 18.737850189208984 214.62493896484375 28.694063186645508 183.53854370117188 C 30.94435691833496 137.1964569091797 62.54768753051758 117.00115966796875 79.2176284790039 91.41715240478516 C 83.88430786132812 107.75479125976562 90.06781768798828 73.79902648925781 49.73954772949219 75.1728515625 C 62.406349182128906 90.27910614013672 84.54692840576172 70.58753967285156 49.485591888427734 70.53597259521484" stroke-width="-22.556964874267578" fill="none" stroke="rgb(0, 0, 0)" stroke-opacity="0.14368474" stroke-linecap="round" stroke-linejoin="round"/>
    <path d="M 432.0127868652344 598.8833618164062 C 432.9949035644531 584.4588623046875 447.17120361328125 558.2291870117188 434.3915710449219 566.3486328125 C 420.2306823730469 557.6333618164062 408.597412109375 567.5419311523438 482.2266845703125 553.9688720703125 C 445.7125549316406 517.7755126953125 460.8938903808594 535.6029052734375 410.5910339355469 527.892822265625 C 426.1979675292969 547.3594360351562 473.4046630859375 537.8331298828125 501.56951904296875 528.831298828125" stroke-width="-1.5130934715270996" fill="none" stroke="rgb(0, 0, 0)" stroke-opacity="0.9583406" stroke-linecap="round" stroke-linejoin="round"/>
    <path d="M 219.1737060546875 95.2637939453125 C 215.1705780029297 111.7469711303711 209.9438018798828 88.1233901977539 145.93325805664062 16.09345054626465 C 157.30569458007812 -112.17344665527344 190.2055206298828 -126.43418884277344 218.16360473632812 -94.80650329589844 C 301.9560852050781 -14.811800956726074 306.5462951660156 -15.28009033203125 307.8138732910156 -14.440362930297852 C 328.32635498046875 -35.858642578125 312.06378173828125 -24.450756072998047 313.83758544921875 -53.93955993652344" stroke-width="-7.272015571594238" fill="none" stroke="rgb(0, 0, 0)" stroke-opacity="0.47017792" stroke-linecap="round" stroke-linejoin="round"/>
    <path d="M 521.8348999023438 92.60274505615234 C 511.43023681640625 68.57893371582031 542.6136474609375 62.139469146728516 600.67919921875 200.46218872070312 C 592.4591064453125 256.92791748046875 528.791259765625 219.9597625732422 491.3694763183594 156.08937072753906 C 508.27880859375 131.91534423828125 519.445068359375 125.68042755126953 557.2295532226562 89.58715057373047 C 517.6847534179688 51.30582809448242 513.3482055664062 53.83880615234375 503.123046875 58.695735931396484" stroke-width="-69.2164306640625" fill="none" stroke="rgb(0, 0, 0)" stroke-opacity="0.73687077" stroke-linecap="round" stroke-linejoin="round"/>
    <path d="M 506.2264099121094 142.95614624023438 C 509.0492248535156 143.52342224121094 501.8133239746094 144.6644744873047 693.5406494140625 123.51956176757812 C 757.294921875 123.07861328125 783.503662109375 172.51422119140625 544.708251953125 288.5316162109375 C 355.52789306640625 271.3790283203125 327.16217041015625 172.8029022216797 355.3302307128906 163.9247283935547 C 573.4136352539062 127.7714614868164 525.1668090820312 90.9149169921875 514.1439819335938 77.25972747802734" stroke-width="-96.11006927490234" fill="none" stroke="rgb(0, 0, 0)" stroke-opacity="0.9504672" stroke-linecap="round" stroke-linejoin="round"/>
    <path d="M 425.9268798828125 273.7083740234375 C 422.7527770996094 237.9442901611328 349.3075256347656 257.7751159667969 247.95091247558594 250.16746520996094 C 240.615234375 246.32223510742188 330.34637451171875 217.63851928710938 371.3245544433594 203.0954132080078 C 327.7755126953125 209.4187774658203 339.8872985839844 243.14634704589844 414.655517578125 215.8345184326172 C 270.87017822265625 199.66783142089844 289.2230529785156 190.10707092285156 356.7850341796875 81.34528350830078" stroke-width="16.639724731445312" fill="none" stroke="rgb(0, 0, 0)" stroke-opacity="0.8766044" stroke-linecap="round" stroke-linejoin="round"/>
    <path d="M 65.38690185546875 516.5781860351562 C 56.861026763916016 517.1940307617188 117.03919219970703 506.94244384765625 105.36052703857422 554.1416015625 C 123.30854797363281 554.5406494140625 124.52726745605469 541.3517456054688 145.49853515625 525.4239501953125 C 148.75054931640625 529.91748046875 75.47211456298828 519.6341552734375 133.287353515625 528.80712890625 C 192.06640625 542.7047119140625 179.72515869140625 542.5911865234375 83.30529022216797 532.6366577148438" stroke-width="9.386974334716797" fill="none" stroke="rgb(0, 0, 0)" stroke-opacity="0.28230375" stroke-linecap="round" stroke-linejoin="round"/>
    <path d="M 555.9841918945312 580.4075317382812 C 558.0972900390625 463.9196472167969 566.5999145507812 454.97320556640625 527.8681030273438 479.8095703125 C 533.4547729492188 455.59893798828125 545.3768920898438 456.1292724609375 534.6052856445312 479.1802062988281 C 543.8546752929688 456.7135925292969 559.2710571289062 473.15814208984375 495.56134033203125 496.1692199707031 C 435.8726501464844 511.6462097167969 480.8357238769531 509.01629638671875 532.8465576171875 475.60552978515625" stroke-width="-13.664518356323242" fill="none" stroke="rgb(0, 0, 0)" stroke-opacity="0.32566515" stroke-linecap="round" stroke-linejoin="round"/>
    <path d="M 506.2264099121094 142.95614624023438 C 509.0492248535156 143.52342224121094 501.8133239746094 144.6644744873047 693.5406494140625 123.51956176757812 C 757.294921875 123.07861328125 783.503662109375 172.51422119140625 544.708251953125 288.5316162109375 C 355.52789306640625 271.3790283203125 327.16217041015625 172.8029022216797 355.3302307128906 163.9247283935547 C 573.4136352539062 127.7714614868164 525.1668090820312 90.9149169921875 514.1439819335938 77.25972747802734" stroke-width="-96.11006927490234" fill="none" stroke="rgb(0, 0, 0)" stroke-opacity="0.17084727" stroke-linecap="round" stroke-linejoin="round"/>
    <path d="M 506.2264099121094 142.95614624023438 C 509.0492248535156 143.52342224121094 501.8133239746094 144.6644744873047 693.5406494140625 123.51956176757812 C 757.294921875 123.07861328125 783.503662109375 172.51422119140625 544.708251953125 288.5316162109375 C 355.52789306640625 271.3790283203125 327.16217041015625 172.8029022216797 355.3302307128906 163.9247283935547 C 573.4136352539062 127.7714614868164 525.1668090820312 90.9149169921875 514.1439819335938 77.25972747802734" stroke-width="-96.11006927490234" fill="none" stroke="rgb(0, 0, 0)" stroke-opacity="0.015421256" stroke-linecap="round" stroke-linejoin="round"/>
    <path d="M 562.3886108398438 256.48406982421875 C 561.7211303710938 214.71583557128906 537.8919067382812 210.0012664794922 535.8040771484375 224.214599609375 C 484.3036193847656 272.8174743652344 492.6158752441406 263.4410400390625 587.5844116210938 327.75518798828125 C 680.8098754882812 348.7972717285156 693.9458618164062 306.8804626464844 684.0270385742188 315.9698181152344 C 630.74365234375 206.22142028808594 651.7871704101562 178.77880859375 660.9463500976562 162.63343811035156" stroke-width="-36.439544677734375" fill="none" stroke="rgb(0, 0, 0)" stroke-opacity="0.07524722" stroke-linecap="round" stroke-linejoin="round"/>
    <path d="M 237.6689453125 314.11309814453125 C 300.64093017578125 324.86181640625 384.5285339355469 325.7836608886719 290.2777099609375 330.4898376464844 C 210.59158325195312 311.0896911621094 224.47720336914062 284.3591003417969 288.1515808105469 308.1567687988281 C 212.8728485107422 303.40966796875 239.92123413085938 311.8398132324219 244.61875915527344 309.10650634765625 C 224.16287231445312 291.53228759765625 226.1334991455078 280.54644775390625 223.2857666015625 285.2035827636719" stroke-width="4.675924301147461" fill="none" stroke="rgb(0, 0, 0)" stroke-opacity="0.70246416" stroke-linecap="round" stroke-linejoin="round"/>
    <path d="M 36.66892623901367 42.779273986816406 C 50.944061279296875 9.10128402709961 81.17756652832031 -6.524678707122803 106.73509979248047 -17.6959285736084 C 62.7056999206543 -64.11426544189453 44.83855438232422 -91.20816802978516 18.236600875854492 -62.96326446533203 C 34.23127746582031 -66.6982192993164 35.18833541870117 -81.92549133300781 64.23790740966797 -97.9919662475586 C 72.82221984863281 -120.0387954711914 93.38215637207031 -146.11251831054688 73.34972381591797 -164.49530029296875" stroke-width="2.965193748474121" fill="none" stroke="rgb(0, 0, 0)" stroke-opacity="0.66393733" stroke-linecap="round" stroke-linejoin="round"/>
    <path d="M 484.971435546875 608.8297729492188 C 480.3540344238281 615.2819213867188 508.2541198730469 638.2906494140625 510.44189453125 635.87255859375 C 497.2025451660156 632.548095703125 500.349853515625 633.3291625976562 517.9423217773438 606.4583740234375 C 495.540771484375 624.3766479492188 475.3219909667969 617.6636962890625 466.5350341796875 622.2977294921875 C 467.0792541503906 592.89501953125 446.6124572753906 621.1954345703125 433.77911376953125 613.8748168945312" stroke-width="9.057329177856445" fill="none" stroke="rgb(0, 0, 0)" stroke-opacity="0.17607662" stroke-linecap="round" stroke-linejoin="round"/>
    <path d="M 506.2264099121094 142.95614624023438 C 509.0492248535156 143.52342224121094 501.8133239746094 144.6644744873047 693.5406494140625 123.51956176757812 C 757.294921875 123.07861328125 783.503662109375 172.51422119140625 544.708251953125 288.5316162109375 C 355.52789306640625 271.3790283203125 327.16217041015625 172.8029022216797 355.3302307128906 163.9247283935547 C 573.4136352539062 127.7714614868164 525.1668090820312 90.9149169921875 514.1439819335938 77.25972747802734" stroke-width="-96.11006927490234" fill="none" stroke="rgb(0, 0, 0)" stroke-opacity="0.33870322" stroke-linecap="round" stroke-linejoin="round"/>
    <path d="M 433.1112976074219 564.20947265625 C 438.10968017578125 559.839599609375 425.9043273925781 546.40234375 445.7389831542969 554.9408569335938 C 414.01239013671875 529.3211669921875 392.15753173828125 513.9542846679688 419.5570068359375 558.6102294921875 C 433.2723083496094 665.8222045898438 420.1597595214844 682.3848876953125 432.3348083496094 657.1597290039062 C 411.7874450683594 625.639892578125 438.1163635253906 651.5662841796875 458.8626708984375 640.1097412109375" stroke-width="-6.558764457702637" fill="none" stroke="rgb(0, 0, 0)" stroke-opacity="0.37820637" stroke-linecap="round" stroke-linejoin="round"/>
    <path d="M 433.4124450683594 472.8936462402344 C 408.7909851074219 486.94171142578125 316.6436767578125 476.3089904785156 295.7233581542969 508.81463623046875 C 330.8502197265625 527.8318481445312 290.58758544921875 482.35382080078125 293.4376220703125 502.3023376464844 C 248.71298217773438 470.0480041503906 253.7493438720703 471.4956970214844 278.31341552734375 506.7503356933594 C 306.87493896484375 496.2099914550781 296.0982360839844 479.5372314453125 320.60992431640625 470.7275695800781" stroke-width="-19.925352096557617" fill="none" stroke="rgb(0, 0, 0)" stroke-opacity="0.44708675" stroke-linecap="round" stroke-linejoin="round"/>
    <path d="M 427.07989501953125 152.71200561523438 C 392.2808837890625 175.0347137451172 405.92999267578125 145.81558227539062 424.8238830566406 140.57786560058594 C 460.0472717285156 137.70419311523438 434.12957763671875 139.85972595214844 384.3536376953125 136.29469299316406 C 407.9019470214844 149.87826538085938 385.50537109375 173.5819854736328 337.3923645019531 121.32380676269531 C 332.7804260253906 88.27246856689453 334.3505554199219 136.01979064941406 307.543701171875 210.17697143554688" stroke-width="25.37255859375" fill="none" stroke="rgb(0, 0, 0)" stroke-opacity="0.6931683" stroke-linecap="round" stroke-linejoin="round"/>
    <path d="M 162.25999450683594 159.20999145507812 C 158.82847595214844 148.11231994628906 150.44723510742188 100.97974395751953 122.27222442626953 98.50363159179688 C 183.32571411132812 130.78521728515625 179.15663146972656 109.5142822265625 122.04483032226562 105.62026977539062 C 118.93961334228516 77.61370849609375 162.53868103027344 16.713294982910156 26.20059585571289 -6.681571960449219 C 104.16085815429688 152.1803436279297 178.74073791503906 132.71681213378906 187.9516143798828 167.34228515625" stroke-width="-32.94009017944336" fill="none" stroke="rgb(0, 0, 0)" stroke-opacity="0.7297852" stroke-linecap="round" stroke-linejoin="round"/>
    <path d="M 477.977294921875 494.19805908203125 C 449.88446044921875 498.7546691894531 483.9714660644531 486.5221862792969 486.0036315917969 506.6435852050781 C 468.8941345214844 479.9342041015625 491.5919189453125 490.1920471191406 462.6812438964844 498.8229064941406 C 477.8021240234375 493.1734924316406 477.7373352050781 479.8152160644531 472.545654296875 551.6150512695312 C 408.7207946777344 539.3465576171875 443.5019836425781 546.5785522460938 609.116455078125 542.2391357421875" stroke-width="25.298301696777344" fill="none" stroke="rgb(0, 0, 0)" stroke-opacity="0.3143547" stroke-linecap="round" stroke-linejoin="round"/>
    <path d="M 481.5036315917969 345.4130859375 C 413.1751403808594 384.7151184082031 406.9700622558594 350.1398010253906 428.0641174316406 340.1918640136719 C 362.2882080078125 390.6774597167969 410.923095703125 379.0209045410156 460.74859619140625 352.90234375 C 399.61163330078125 348.79425048828125 388.6413879394531 388.37945556640625 407.47344970703125 355.0809326171875 C 338.9778747558594 355.0367736816406 273.941650390625 345.2308349609375 350.30218505859375 352.09881591796875" stroke-width="6.593727111816406" fill="none" stroke="rgb(0, 0, 0)" stroke-opacity="0.3417148" stroke-linecap="round" stroke-linejoin="round"/>
    <path d="M 506.2264099121094 142.95614624023438 C 509.0492248535156 143.52342224121094 501.8133239746094 144.6644744873047 693.5406494140625 123.51956176757812 C 757.294921875 123.07861328125 783.503662109375 172.51422119140625 544.708251953125 288.5316162109375 C 355.52789306640625 271.3790283203125 327.16217041015625 172.8029022216797 355.3302307128906 163.9247283935547 C 573.4136352539062 127.7714614868164 525.1668090820312 90.9149169921875 514.1439819335938 77.25972747802734" stroke-width="-96.11006927490234" fill="none" stroke="rgb(0, 0, 0)" stroke-opacity="0.52400917" stroke-linecap="round" stroke-linejoin="round"/>
  </g>
</svg>
