<?xml version="1.0" ?>
<svg xmlns="http://www.w3.org/2000/svg" version="1.1" width="600" height="600">
  <defs/>
  <g>
    <path d="M 273.7055358886719 79.31404113769531 C 273.20721435546875 62.489253997802734 261.2214660644531 -2.552802801132202 294.2034606933594 -19.74338150024414 C 286.2290344238281 -33.34718704223633 275.21588134765625 3.3468446731567383 266.3711242675781 60.345943450927734 C 316.5565185546875 49.13044738769531 285.63128662109375 86.99861145019531 263.4298400878906 84.56364440917969 C 258.6280517578125 -43.669342041015625 260.4935607910156 -68.61771392822266 273.2556457519531 -36.1117057800293" stroke-width="13.763687133789062" fill="none" stroke="rgb(0, 0, 0)" stroke-opacity="0.693554" stroke-linecap="round" stroke-linejoin="round"/>
    <path d="M 237.47886657714844 -10.139973640441895 C 234.41604614257812 -14.491937637329102 256.96728515625 -7.684898376464844 232.09671020507812 -33.09844970703125 C 232.16639709472656 -38.01700210571289 249.52005004882812 -42.27181625366211 231.94285583496094 -25.588003158569336 C 222.4499053955078 -33.8443489074707 237.6805419921875 -37.24835968017578 256.4287414550781 -43.193904876708984 C 262.5545349121094 -22.546113967895508 292.55096435546875 -36.50862503051758 291.3880615234375 -27.094457626342773" stroke-width="9.401609420776367" fill="none" stroke="rgb(0, 0, 0)" stroke-opacity="0.3772443" stroke-linecap="round" stroke-linejoin="round"/>
    <path d="M 374.7789001464844 344.8143005371094 C 309.82183837890625 347.27130126953125 246.1156463623047 308.1209411621094 113.92271423339844 327.1266784667969 C 212.9719696044922 349.93353271484375 381.7548828125 335.1160583496094 408.1368408203125 325.8383483886719 C 403.51800537109375 310.8094177246094 407.2265625 320.1184387207031 426.3788146972656 306.52117919921875 C 372.9481201171875 323.9444580078125 336.5420227050781 290.14892578125 358.2479248046875 257.1895751953125" stroke-width="22.189552307128906" fill="none" stroke="rgb(0, 0, 0)" stroke-opacity="0.40232286" stroke-linecap="round" stroke-linejoin="round"/>
    <path d="M 460.7982482910156 539.5676879882812 C 406.0134582519531 544.0919189453125 363.6073303222656 519.8020629882812 367.34588623046875 560.2246704101562 C 360.1983642578125 564.7567138671875 378.9987487792969 530.04833984375 417.4175720214844 548.6156616210938 C 433.02471923828125 545.3678588867188 415.7848815917969 526.9634399414062 391.2010498046875 545.8516845703125 C 376.70953369140625 552.3912353515625 455.8982238769531 529.3128051757812 505.6295166015625 537.2244262695312" stroke-width="8.871842384338379" fill="none" stroke="rgb(0, 0, 0)" stroke-opacity="0.7847085" stroke-linecap="round" stroke-linejoin="round"/>
    <path d="M 460.57293701171875 573.0836181640625 C 437.96038818359375 573.8368530273438 461.6934509277344 563.2279663085938 452.6915588378906 579.6360473632812 C 447.23504638671875 547.6344604492188 474.015625 523.6730346679688 373.3846740722656 540.2728881835938 C 382.1244201660156 644.6495361328125 397.11981201171875 675.4544067382812 419.8928527832031 710.7755126953125 C 485.6014404296875 637.598876953125 482.6003112792969 653.533935546875 474.9572448730469 682.4995727539062" stroke-width="-19.756793975830078" fill="none" stroke="rgb(0, 0, 0)" stroke-opacity="0.1348319" stroke-linecap="round" stroke-linejoin="round"/>
    <path d="M 460.57293701171875 573.0836181640625 C 437.96038818359375 573.8368530273438 461.6934509277344 563.2279663085938 452.6915588378906 579.6360473632812 C 447.23504638671875 547.6344604492188 474.015625 523.6730346679688 373.3846740722656 540.2728881835938 C 382.1244201660156 644.6495361328125 397.11981201171875 675.4544067382812 419.8928527832031 710.7755126953125 C 485.6014404296875 637.598876953125 482.6003112792969 653.533935546875 474.9572448730469 682.4995727539062" stroke-width="-19.756793975830078" fill="none" stroke="rgb(0, 0, 0)" stroke-opacity="0.85804796" stroke-linecap="round" stroke-linejoin="round"/>
    <path d="M 145.975830078125 432.0576477050781 C 102.71109771728516 452.66046142578125 97.98979949951172 406.4815368652344 92.83129119873047 431.637939453125 C 194.00137329101562 443.9891662597656 206.46665954589844 435.1092834472656 156.4832000732422 449.25201416015625 C 140.90586853027344 470.2840576171875 172.93670654296875 476.76690673828125 150.45947265625 443.0854797363281 C 177.51182556152344 437.1795959472656 162.2240447998047 482.61163330078125 115.26067352294922 497.8823547363281" stroke-width="12.171006202697754" fill="none" stroke="rgb(0, 0, 0)" stroke-opacity="0.16081955" stroke-linecap="round" stroke-linejoin="round"/>
    <path d="M -9.242165565490723 303.3520812988281 C -18.13096809387207 287.2151184082031 -24.323936462402344 287.18353271484375 -36.42961502075195 294.6532287597656 C -64.98140716552734 321.545654296875 -80.17184448242188 342.6284484863281 -75.63609313964844 316.9446716308594 C -46.22087097167969 287.0748596191406 -67.77140045166016 277.550537109375 -40.78310012817383 297.63421630859375 C -41.913509368896484 320.08746337890625 -27.046701431274414 349.6733703613281 -54.16429901123047 366.3229675292969" stroke-width="7.687118053436279" fill="none" stroke="rgb(0, 0, 0)" stroke-opacity="0.80041313" stroke-linecap="round" stroke-linejoin="round"/>
    <path d="M 595.3038940429688 70.12972259521484 C 576.0787353515625 78.04157257080078 566.8037109375 79.83972930908203 504.9552001953125 53.70841598510742 C 511.65826416015625 50.438533782958984 554.8457641601562 82.75390625 589.76806640625 69.78056335449219 C 562.2816162109375 64.25031280517578 511.5950927734375 71.75054931640625 529.2100830078125 65.50691986083984 C 559.2935791015625 50.10378646850586 552.6957397460938 62.1107063293457 541.4624633789062 40.49808883666992" stroke-width="-17.134267807006836" fill="none" stroke="rgb(0, 0, 0)" stroke-opacity="0.8325204" stroke-linecap="round" stroke-linejoin="round"/>
    <path d="M 515.7528686523438 90.44027709960938 C 522.2479858398438 84.2536392211914 499.3946228027344 91.65518951416016 630.3124389648438 221.140869140625 C 651.1361694335938 294.9030456542969 629.573974609375 341.7573547363281 401.0350341796875 323.2598876953125 C 512.1104125976562 132.78506469726562 549.8626098632812 174.88873291015625 535.461181640625 177.67564392089844 C 533.53564453125 116.69156646728516 545.0018310546875 87.3614273071289 579.0157470703125 92.7485580444336" stroke-width="-87.19969940185547" fill="none" stroke="rgb(0, 0, 0)" stroke-opacity="0.720534" stroke-linecap="round" stroke-linejoin="round"/>
    <path d="M 538.222412109375 15.775827407836914 C 543.1851806640625 68.03665924072266 559.57470703125 75.90550231933594 491.28472900390625 49.578060150146484 C 482.3760681152344 -5.2746052742004395 548.2781372070312 1.2655613422393799 544.0595092773438 -23.398277282714844 C 590.3209838867188 -3.5745813846588135 588.38232421875 -10.465078353881836 560.4989624023438 -10.269404411315918 C 534.5774536132812 43.66629409790039 550.64404296875 71.65367889404297 563.6849365234375 62.90721893310547" stroke-width="-22.61032485961914" fill="none" stroke="rgb(0, 0, 0)" stroke-opacity="0.14403696" stroke-linecap="round" stroke-linejoin="round"/>
    <path d="M 426.83026123046875 539.8237915039062 C 458.74700927734375 541.6747436523438 521.974609375 550.0587768554688 524.4419555664062 520.5200805664062 C 459.14971923828125 486.7358093261719 466.5491027832031 507.7937927246094 527.3644409179688 514.3412475585938 C 528.0829467773438 531.924072265625 472.1978454589844 564.3736572265625 528.3272094726562 522.8930053710938 C 579.0940551757812 481.28094482421875 574.2333984375 501.17120361328125 554.7738647460938 495.3345031738281" stroke-width="18.254966735839844" fill="none" stroke="rgb(0, 0, 0)" stroke-opacity="0.601825" stroke-linecap="round" stroke-linejoin="round"/>
    <path d="M 412.9241638183594 346.9712219238281 C 455.0059814453125 326.2457275390625 512.6416625976562 326.9128723144531 538.9392700195312 333.2520751953125 C 514.8178100585938 370.5245666503906 470.74066162109375 344.789306640625 519.9816284179688 349.4920349121094 C 537.62109375 368.14715576171875 522.3582763671875 375.14154052734375 515.5943603515625 324.7123107910156 C 535.8838500976562 358.6388244628906 557.103271484375 358.81683349609375 560.6058959960938 381.24798583984375" stroke-width="-17.64220428466797" fill="none" stroke="rgb(0, 0, 0)" stroke-opacity="0.3308839" stroke-linecap="round" stroke-linejoin="round"/>
    <path d="M 342.21380615234375 431.1791076660156 C 339.7323913574219 417.80792236328125 359.8634033203125 433.1105041503906 372.0751037597656 437.39599609375 C 370.3592529296875 436.2719421386719 465.99591064453125 431.0796203613281 411.6351623535156 423.0802307128906 C 407.0252380371094 445.6598205566406 432.31549072265625 462.06268310546875 365.439453125 456.79339599609375 C 342.87054443359375 448.31036376953125 363.680419921875 473.3499450683594 362.05902099609375 434.5374450683594" stroke-width="8.058271408081055" fill="none" stroke="rgb(0, 0, 0)" stroke-opacity="0.2988336" stroke-linecap="round" stroke-linejoin="round"/>
    <path d="M 437.44500732421875 196.4530487060547 C 432.8645935058594 203.4456787109375 455.8304138183594 209.0193634033203 473.974609375 232.57516479492188 C 484.31707763671875 232.06161499023438 516.4560546875 226.06820678710938 467.6751708984375 233.06692504882812 C 490.6612548828125 205.7146453857422 511.8711853027344 225.96286010742188 530.8878173828125 209.982421875 C 534.8306274414062 210.24227905273438 530.78466796875 195.38217163085938 501.3363037109375 167.1969451904297" stroke-width="-26.859416961669922" fill="none" stroke="rgb(0, 0, 0)" stroke-opacity="0.13963932" stroke-linecap="round" stroke-linejoin="round"/>
    <path d="M 535.5263671875 363.7022399902344 C 515.5398559570312 362.5231628417969 552.1632080078125 338.2942199707031 623.2957763671875 386.06866455078125 C 605.181396484375 414.3445739746094 539.863037109375 437.5628967285156 493.6696472167969 403.7621765136719 C 536.0587768554688 367.4879150390625 498.8274841308594 399.4193420410156 466.3826599121094 426.9621887207031 C 514.2481689453125 474.6361389160156 551.4674682617188 453.4614562988281 587.2957763671875 460.2678527832031" stroke-width="-37.92054748535156" fill="none" stroke="rgb(0, 0, 0)" stroke-opacity="0.7308903" stroke-linecap="round" stroke-linejoin="round"/>
    <path d="M 460.57293701171875 573.0836181640625 C 437.96038818359375 573.8368530273438 461.6934509277344 563.2279663085938 452.6915588378906 579.6360473632812 C 447.23504638671875 547.6344604492188 474.015625 523.6730346679688 373.3846740722656 540.2728881835938 C 382.1244201660156 644.6495361328125 397.11981201171875 675.4544067382812 419.8928527832031 710.7755126953125 C 485.6014404296875 637.598876953125 482.6003112792969 653.533935546875 474.9572448730469 682.4995727539062" stroke-width="-19.756793975830078" fill="none" stroke="rgb(0, 0, 0)" stroke-opacity="0.94441265" stroke-linecap="round" stroke-linejoin="round"/>
    <path d="M 460.57293701171875 573.0836181640625 C 437.96038818359375 573.8368530273438 461.6934509277344 563.2279663085938 452.6915588378906 579.6360473632812 C 447.23504638671875 547.6344604492188 474.015625 523.6730346679688 373.3846740722656 540.2728881835938 C 382.1244201660156 644.6495361328125 397.11981201171875 675.4544067382812 419.8928527832031 710.7755126953125 C 485.6014404296875 637.598876953125 482.6003112792969 653.533935546875 474.9572448730469 682.4995727539062" stroke-width="-19.756793975830078" fill="none" stroke="rgb(0, 0, 0)" stroke-opacity="0.46079642" stroke-linecap="round" stroke-linejoin="round"/>
    <path d="M 64.03137969970703 99.87702941894531 C 123.06607055664062 92.378173828125 139.2532958984375 61.49445724487305 148.2799835205078 46.345611572265625 C 94.2881851196289 90.68798065185547 123.09676361083984 65.8016586303711 163.65147399902344 106.90937805175781 C 157.0890350341797 162.2070770263672 109.20624542236328 149.13804626464844 42.60062026977539 109.51300048828125 C 53.668479919433594 63.69035720825195 108.00341796875 48.139522552490234 132.28001403808594 21.113765716552734" stroke-width="-60.437679290771484" fill="none" stroke="rgb(0, 0, 0)" stroke-opacity="0.5811865" stroke-linecap="round" stroke-linejoin="round"/>
    <path d="M 451.2147521972656 560.9983520507812 C 486.2826843261719 546.8240966796875 534.1229248046875 523.1492309570312 563.6355590820312 507.0749206542969 C 586.2423095703125 542.9833374023438 545.028564453125 628.5620727539062 555.5142822265625 542.1258544921875 C 587.6246948242188 550.5134887695312 580.365234375 607.8607788085938 554.5628662109375 684.8678588867188 C 461.22625732421875 638.6751708984375 429.75238037109375 599.0336303710938 461.6954040527344 540.2947387695312" stroke-width="14.411903381347656" fill="none" stroke="rgb(0, 0, 0)" stroke-opacity="0.87154955" stroke-linecap="round" stroke-linejoin="round"/>
    <path d="M 589.849853515625 607.1380615234375 C 588.8814086914062 602.884033203125 601.1953125 634.6096801757812 579.2677612304688 662.548583984375 C 567.1534423828125 660.3998413085938 562.16259765625 659.1298828125 544.2653198242188 677.7600708007812 C 525.2672119140625 660.3922119140625 519.4410400390625 637.928955078125 525.67822265625 637.6112060546875 C 549.069580078125 624.6403198242188 558.0153198242188 620.771240234375 567.314697265625 608.7694091796875" stroke-width="5.96609354019165" fill="none" stroke="rgb(0, 0, 0)" stroke-opacity="0.3820353" stroke-linecap="round" stroke-linejoin="round"/>
    <path d="M 211.05154418945312 415.20220947265625 C 282.4250183105469 332.84515380859375 271.2115478515625 309.4399719238281 199.91384887695312 327.0146179199219 C 208.30191040039062 230.3963165283203 256.73431396484375 215.31333923339844 265.1368713378906 284.64349365234375 C 225.87850952148438 289.6695251464844 275.3059387207031 270.47802734375 259.0913391113281 262.2958679199219 C 242.9717254638672 248.35003662109375 242.47084045410156 144.0713348388672 289.4561462402344 153.62181091308594" stroke-width="16.87449836730957" fill="none" stroke="rgb(0, 0, 0)" stroke-opacity="0.6067505" stroke-linecap="round" stroke-linejoin="round"/>
    <path d="M 264.55596923828125 433.39715576171875 C 393.692626953125 439.7395324707031 372.02618408203125 428.61846923828125 413.26751708984375 431.40338134765625 C 419.8587951660156 475.09356689453125 355.0239562988281 454.04864501953125 257.06939697265625 455.1501159667969 C 318.7917175292969 460.5652770996094 317.49810791015625 451.50244140625 311.2702331542969 461.0145263671875 C 326.342041015625 444.7819519042969 282.97515869140625 450.81689453125 304.61114501953125 450.9022521972656" stroke-width="10.221506118774414" fill="none" stroke="rgb(0, 0, 0)" stroke-opacity="0.19148149" stroke-linecap="round" stroke-linejoin="round"/>
    <path d="M 120.64300537109375 420.16741943359375 C 74.38178253173828 411.2266540527344 96.25312805175781 412.9986572265625 153.29490661621094 442.1239013671875 C 108.37480926513672 424.33636474609375 115.55331420898438 441.433349609375 147.98062133789062 439.2191467285156 C 198.23060607910156 424.2639465332031 207.8199005126953 427.1011047363281 196.92483520507812 462.9103698730469 C 210.2357635498047 396.3067932128906 213.5233612060547 417.61981201171875 148.7339324951172 479.6853332519531" stroke-width="20.668107986450195" fill="none" stroke="rgb(0, 0, 0)" stroke-opacity="0.74461675" stroke-linecap="round" stroke-linejoin="round"/>
    <path d="M 549.7318115234375 367.6474304199219 C 574.5494995117188 362.7140197753906 561.1641845703125 409.2731628417969 555.9142456054688 456.9856262207031 C 538.1455078125 366.31317138671875 565.5047607421875 380.1685791015625 571.3663330078125 350.4688720703125 C 576.3726806640625 400.1349182128906 555.1946411132812 368.2455749511719 549.0340576171875 360.30377197265625 C 596.6559448242188 357.8739013671875 600.5179443359375 348.3084411621094 656.6082153320312 341.0631408691406" stroke-width="5.946195125579834" fill="none" stroke="rgb(0, 0, 0)" stroke-opacity="0.09969916" stroke-linecap="round" stroke-linejoin="round"/>
    <path d="M 208.60308837890625 373.4485778808594 C 222.7814178466797 408.1253356933594 225.22723388671875 392.8515319824219 242.78334045410156 422.22235107421875 C 212.6028594970703 397.0016174316406 182.93601989746094 415.2882995605469 250.92428588867188 427.3048095703125 C 269.48040771484375 436.42767333984375 198.40545654296875 428.4682312011719 250.43276977539062 423.006103515625 C 247.34259033203125 505.9705810546875 214.95457458496094 476.36138916015625 216.21795654296875 396.9375305175781" stroke-width="23.131319046020508" fill="none" stroke="rgb(0, 0, 0)" stroke-opacity="0.4015724" stroke-linecap="round" stroke-linejoin="round"/>
    <path d="M 259.1954040527344 241.1290283203125 C 218.40965270996094 353.9305725097656 243.8422088623047 370.083251953125 271.4642639160156 327.9599304199219 C 333.385498046875 324.2432861328125 369.1800537109375 318.82623291015625 317.094482421875 325.9848937988281 C 346.9454040527344 338.4881286621094 356.66644287109375 314.70806884765625 353.75494384765625 329.89080810546875 C 383.2557067871094 332.44866943359375 384.57623291015625 345.71307373046875 382.0311584472656 357.0007629394531" stroke-width="33.481197357177734" fill="none" stroke="rgb(0, 0, 0)" stroke-opacity="0.24837007" stroke-linecap="round" stroke-linejoin="round"/>
    <path d="M 493.68951416015625 233.09231567382812 C 509.13031005859375 289.2658386230469 512.6541748046875 271.4011535644531 447.76544189453125 262.8952941894531 C 447.5811767578125 261.853759765625 419.8336486816406 298.6500244140625 374.1539306640625 346.95220947265625 C 359.5613708496094 346.922607421875 348.3345642089844 350.40032958984375 375.5709228515625 324.23699951171875 C 398.1628723144531 279.4707946777344 395.0133972167969 279.04876708984375 354.4879150390625 316.22076416015625" stroke-width="-38.58710479736328" fill="none" stroke="rgb(0, 0, 0)" stroke-opacity="0.26206526" stroke-linecap="round" stroke-linejoin="round"/>
    <path d="M 25.855798721313477 516.3867797851562 C 56.8696174621582 558.223388671875 85.97856140136719 524.4227294921875 13.900833129882812 508.0476379394531 C 10.537089347839355 413.342041015625 10.380507469177246 413.7705383300781 -7.516521453857422 458.4430847167969 C -25.33501625061035 516.9984130859375 -7.604041576385498 498.81219482421875 -16.399911880493164 478.9097595214844 C -13.911529541015625 440.1304931640625 1.3771144151687622 402.7073669433594 -24.461076736450195 416.324462890625" stroke-width="8.63715934753418" fill="none" stroke="rgb(0, 0, 0)" stroke-opacity="0.9786664" stroke-linecap="round" stroke-linejoin="round"/>
    <path d="M 374.34588623046875 227.09193420410156 C 288.4867858886719 218.6900177001953 334.8990173339844 244.91754150390625 349.5655212402344 251.56597900390625 C 329.83685302734375 233.551025390625 335.06036376953125 249.56687927246094 347.16546630859375 247.54539489746094 C 326.466552734375 228.6791229248047 310.3623352050781 231.82484436035156 303.2672424316406 281.7419128417969 C 354.5918884277344 271.635498046875 349.0675964355469 310.2995300292969 401.6561584472656 332.5781555175781" stroke-width="-2.1376914978027344" fill="none" stroke="rgb(0, 0, 0)" stroke-opacity="0.117173046" stroke-linecap="round" stroke-linejoin="round"/>
    <path d="M 294.58984375 -71.19992065429688 C 291.4764099121094 -56.54578399658203 290.96453857421875 -35.514041900634766 260.4945373535156 35.67055130004883 C 245.81756591796875 33.09348678588867 232.99656677246094 26.896697998046875 241.9361114501953 13.995752334594727 C 263.924072265625 30.76646614074707 279.4090576171875 23.25811195373535 281.0335693359375 56.88179016113281 C 293.1268310546875 52.3029670715332 272.3326110839844 42.79545593261719 241.23399353027344 8.900181770324707" stroke-width="-31.21610450744629" fill="none" stroke="rgb(0, 0, 0)" stroke-opacity="0.44408256" stroke-linecap="round" stroke-linejoin="round"/>
    <path d="M 478.116455078125 -11.734007835388184 C 473.6477966308594 -19.042085647583008 456.091552734375 -31.454341888427734 482.19085693359375 -49.682987213134766 C 464.89892578125 -41.08441162109375 481.705322265625 -51.4221076965332 462.8797912597656 -31.9410457611084 C 457.6392822265625 -56.35325241088867 455.2846374511719 -74.07999420166016 430.9888000488281 -69.6722412109375 C 409.69329833984375 -43.760498046875 395.5755615234375 -72.60681915283203 391.56622314453125 -90.18058013916016" stroke-width="6.514248371124268" fill="none" stroke="rgb(0, 0, 0)" stroke-opacity="0.1587929" stroke-linecap="round" stroke-linejoin="round"/>
    <path d="M 219.88247680664062 376.3386535644531 C 225.556884765625 399.9487609863281 208.6585693359375 410.447509765625 222.6765899658203 420.23187255859375 C 263.32757568359375 453.52349853515625 236.09848022460938 454.53912353515625 252.23692321777344 426.21038818359375 C 311.6898193359375 426.56573486328125 256.6416015625 439.2201232910156 226.81004333496094 401.1302490234375 C 250.86805725097656 411.6622009277344 239.9468994140625 439.8493347167969 440.70880126953125 425.33929443359375" stroke-width="20.840715408325195" fill="none" stroke="rgb(0, 0, 0)" stroke-opacity="0.7155872" stroke-linecap="round" stroke-linejoin="round"/>
    <path d="M 69.523193359375 375.7459716796875 C 83.1513900756836 403.75836181640625 114.08478546142578 442.1607360839844 107.3165054321289 420.5541687011719 C 182.962890625 394.003173828125 195.15989685058594 392.0491943359375 178.4908447265625 300.7633361816406 C 245.71827697753906 281.54217529296875 211.51280212402344 368.0521545410156 121.3172607421875 410.91314697265625 C 110.01876831054688 450.47882080078125 166.89614868164062 426.6884765625 249.2128143310547 413.0788269042969" stroke-width="12.898528099060059" fill="none" stroke="rgb(0, 0, 0)" stroke-opacity="0.91991633" stroke-linecap="round" stroke-linejoin="round"/>
    <path d="M 66.58102416992188 549.2943725585938 C 119.43881225585938 565.8742065429688 149.61138916015625 521.0186767578125 156.3795928955078 572.3601684570312 C 161.65907287597656 559.20654296875 117.31592559814453 549.2530517578125 231.3480224609375 525.104248046875 C 251.90501403808594 597.1463012695312 236.5642852783203 685.4981079101562 171.66534423828125 713.2163696289062 C 145.7489471435547 618.6709594726562 158.57505798339844 617.4777221679688 158.45388793945312 591.3323364257812" stroke-width="26.610206604003906" fill="none" stroke="rgb(0, 0, 0)" stroke-opacity="0.98523074" stroke-linecap="round" stroke-linejoin="round"/>
    <path d="M 467.6138916015625 408.9579772949219 C 389.4542236328125 387.9216613769531 379.2290954589844 359.692138671875 434.2869873046875 402.3289489746094 C 482.1165466308594 406.60321044921875 477.7439880371094 393.8516540527344 488.6965637207031 400.00872802734375 C 427.0750427246094 450.2563171386719 379.890380859375 422.7970275878906 418.14013671875 470.1522521972656 C 449.30010986328125 487.6965637207031 468.7508850097656 506.5858154296875 449.2521057128906 488.57464599609375" stroke-width="16.960826873779297" fill="none" stroke="rgb(0, 0, 0)" stroke-opacity="0.89733267" stroke-linecap="round" stroke-linejoin="round"/>
    <path d="M 248.92420959472656 156.25625610351562 C 209.58436584472656 148.04510498046875 248.1705780029297 199.7113494873047 160.68673706054688 243.7464599609375 C 250.90255737304688 263.8230895996094 250.83522033691406 201.80564880371094 209.12693786621094 162.6446075439453 C 236.9125518798828 192.61441040039062 277.1032409667969 252.07395935058594 204.3939971923828 254.62461853027344 C 86.02949523925781 207.48867797851562 203.3987579345703 257.48504638671875 217.19961547851562 271.42681884765625" stroke-width="12.099940299987793" fill="none" stroke="rgb(0, 0, 0)" stroke-opacity="0.8822107" stroke-linecap="round" stroke-linejoin="round"/>
    <path d="M 460.57293701171875 573.0836181640625 C 437.96038818359375 573.8368530273438 461.6934509277344 563.2279663085938 452.6915588378906 579.6360473632812 C 447.23504638671875 547.6344604492188 474.015625 523.6730346679688 373.3846740722656 540.2728881835938 C 382.1244201660156 644.6495361328125 397.11981201171875 675.4544067382812 419.8928527832031 710.7755126953125 C 485.6014404296875 637.598876953125 482.6003112792969 653.533935546875 474.9572448730469 682.4995727539062" stroke-width="-19.756793975830078" fill="none" stroke="rgb(0, 0, 0)" stroke-opacity="0.11251097" stroke-linecap="round" stroke-linejoin="round"/>
    <path d="M 194.37327575683594 161.2044219970703 C 239.3577117919922 136.45184326171875 245.8501434326172 175.85003662109375 199.0027618408203 227.122314453125 C 221.529296875 285.1311340332031 266.2281494140625 228.17987060546875 240.12652587890625 224.53709411621094 C 214.7943115234375 275.16046142578125 153.81912231445312 250.0972442626953 152.75689697265625 234.17144775390625 C 133.2197723388672 207.34669494628906 124.04296875 233.3577117919922 294.66925048828125 247.34385681152344" stroke-width="16.65754508972168" fill="none" stroke="rgb(0, 0, 0)" stroke-opacity="0.19411223" stroke-linecap="round" stroke-linejoin="round"/>
    <path d="M 118.40355682373047 169.42872619628906 C 168.02044677734375 161.38270568847656 146.33009338378906 155.219482421875 121.49421691894531 124.24279022216797 C 132.3021240234375 109.4924087524414 174.70840454101562 144.979736328125 240.76348876953125 120.98152923583984 C 251.72640991210938 127.802978515625 245.16653442382812 84.59183502197266 0.11940482258796692 57.048919677734375 C 15.43336009979248 270.18634033203125 57.970977783203125 259.27484130859375 85.42953491210938 285.61138916015625" stroke-width="-63.062252044677734" fill="none" stroke="rgb(0, 0, 0)" stroke-opacity="0.7060172" stroke-linecap="round" stroke-linejoin="round"/>
    <path d="M 361.2955322265625 615.9993896484375 C 378.7326965332031 630.6656494140625 380.5281066894531 641.8738403320312 373.0276794433594 583.8252563476562 C 360.0185852050781 544.1287841796875 404.6913146972656 536.70751953125 371.3880920410156 540.0354614257812 C 378.7132873535156 537.9855346679688 365.2896728515625 554.8345336914062 274.6435546875 549.4572143554688 C 268.26397705078125 519.8722534179688 233.97853088378906 521.9229736328125 252.2933349609375 551.651123046875" stroke-width="13.052085876464844" fill="none" stroke="rgb(0, 0, 0)" stroke-opacity="0.46734598" stroke-linecap="round" stroke-linejoin="round"/>
    <path d="M 43.375728607177734 543.2783813476562 C 19.481700897216797 499.33709716796875 7.9480085372924805 486.66448974609375 42.6717414855957 507.1905517578125 C 26.97661590576172 527.6411743164062 6.477856159210205 543.2803955078125 -10.65478801727295 509.4698791503906 C -0.6438331604003906 478.3152770996094 -18.767597198486328 487.90850830078125 -33.51851272583008 501.8158874511719 C -17.040557861328125 487.63348388671875 -22.380144119262695 505.8094787597656 -10.864117622375488 499.8460388183594" stroke-width="-21.84187126159668" fill="none" stroke="rgb(0, 0, 0)" stroke-opacity="0.65494186" stroke-linecap="round" stroke-linejoin="round"/>
    <path d="M 521.0964965820312 161.2387237548828 C 524.3545532226562 139.46571350097656 499.4482116699219 190.07662963867188 476.43798828125 203.17677307128906 C 521.6827392578125 248.69464111328125 535.7807006835938 266.7961730957031 584.7952270507812 252.8086700439453 C 628.7017822265625 259.7170104980469 653.7963256835938 263.960693359375 678.529296875 256.5191345214844 C 655.452392578125 286.860107421875 663.6182250976562 303.75372314453125 646.6493530273438 333.45599365234375" stroke-width="-34.69881057739258" fill="none" stroke="rgb(0, 0, 0)" stroke-opacity="0.63085955" stroke-linecap="round" stroke-linejoin="round"/>
    <path d="M 108.6366958618164 548.3140869140625 C 102.41175079345703 606.8336181640625 106.53453063964844 646.764404296875 80.59417724609375 670.6139526367188 C 69.44651794433594 615.4329223632812 38.630393981933594 628.0066528320312 27.088266372680664 614.1033325195312 C 12.361358642578125 605.266357421875 30.65276527404785 637.3269653320312 26.601308822631836 661.2146606445312 C 36.63447189331055 609.5029296875 61.50738525390625 610.51513671875 41.74449157714844 630.777587890625" stroke-width="18.08327293395996" fill="none" stroke="rgb(0, 0, 0)" stroke-opacity="0.5737191" stroke-linecap="round" stroke-linejoin="round"/>
    <path d="M 520.4607543945312 77.1676254272461 C 565.3060913085938 52.993377685546875 558.761962890625 71.36627960205078 534.0617065429688 35.70188522338867 C 507.2203674316406 34.06218719482422 544.916748046875 75.4341049194336 572.9572143554688 71.42527770996094 C 537.4711303710938 81.19601440429688 509.6283264160156 48.28339385986328 543.0836791992188 53.66837692260742 C 542.7449340820312 73.05594635009766 538.1412963867188 34.535003662109375 553.6110229492188 60.46221160888672" stroke-width="-13.852703094482422" fill="none" stroke="rgb(0, 0, 0)" stroke-opacity="0.4700088" stroke-linecap="round" stroke-linejoin="round"/>
    <path d="M 211.5712127685547 497.7265319824219 C 258.62567138671875 494.22906494140625 247.30148315429688 427.15167236328125 242.14280700683594 425.71759033203125 C 245.89801025390625 466.0067443847656 228.0876922607422 490.7238464355469 201.5164794921875 466.6130065917969 C 211.5458984375 437.9957580566406 252.41195678710938 394.9614562988281 211.00643920898438 440.9476013183594 C 195.21522521972656 457.738037109375 204.9471435546875 450.8705749511719 274.5627136230469 455.6343078613281" stroke-width="15.509377479553223" fill="none" stroke="rgb(0, 0, 0)" stroke-opacity="0.10649875" stroke-linecap="round" stroke-linejoin="round"/>
    <path d="M 303.2711486816406 509.10272216796875 C 277.94378662109375 563.8427734375 311.7171630859375 597.8409423828125 282.94476318359375 622.404052734375 C 232.57046508789062 609.9758911132812 265.39862060546875 544.5787353515625 255.9139404296875 522.3506469726562 C 274.90643310546875 535.5234985351562 210.4245147705078 523.7925415039062 220.61062622070312 557.7201538085938 C 216.65255737304688 553.0781860351562 295.11328125 527.064208984375 296.9592590332031 539.6656494140625" stroke-width="-5.360634803771973" fill="none" stroke="rgb(0, 0, 0)" stroke-opacity="0.48001286" stroke-linecap="round" stroke-linejoin="round"/>
    <path d="M 266.89996337890625 168.90199279785156 C 260.7962341308594 221.42445373535156 243.23426818847656 206.23043823242188 229.55587768554688 204.4300994873047 C 254.51589965820312 222.80543518066406 275.6720275878906 236.8466033935547 237.6932373046875 224.37242126464844 C 259.1229553222656 151.8805389404297 262.5301818847656 181.58151245117188 318.092529296875 183.2795867919922 C 352.9276123046875 160.29000854492188 305.6716613769531 124.17432403564453 309.8868103027344 175.96923828125" stroke-width="6.526519775390625" fill="none" stroke="rgb(0, 0, 0)" stroke-opacity="0.45493525" stroke-linecap="round" stroke-linejoin="round"/>
    <path d="M 219.1361846923828 238.9977569580078 C 157.32394409179688 253.6199188232422 171.35946655273438 209.242919921875 243.4395294189453 229.136962890625 C 233.35379028320312 211.09170532226562 216.4755096435547 185.12594604492188 198.27964782714844 219.201171875 C 219.2825927734375 206.27137756347656 232.01205444335938 160.29734802246094 235.23558044433594 164.43484497070312 C 191.56275939941406 189.0104522705078 242.32058715820312 182.14183044433594 260.13397216796875 200.63253784179688" stroke-width="2.523550033569336" fill="none" stroke="rgb(0, 0, 0)" stroke-opacity="0.2543373" stroke-linecap="round" stroke-linejoin="round"/>
    <path d="M 216.79562377929688 487.23333740234375 C 219.10586547851562 519.244384765625 201.40054321289062 496.05548095703125 241.63015747070312 527.1228637695312 C 287.2158203125 538.4930419921875 287.06500244140625 542.1951293945312 263.4803161621094 535.9244384765625 C 363.53265380859375 542.6455078125 385.3923034667969 536.019287109375 378.6097106933594 553.8079223632812 C 394.90032958984375 637.4990844726562 360.3951721191406 668.0044555664062 362.43170166015625 647.9921875" stroke-width="17.670734405517578" fill="none" stroke="rgb(0, 0, 0)" stroke-opacity="0.9362415" stroke-linecap="round" stroke-linejoin="round"/>
    <path d="M 250.4723358154297 451.560546875 C 176.5936737060547 361.1266784667969 220.680908203125 340.91998291015625 241.0851593017578 331.9809265136719 C 250.635009765625 245.4163818359375 267.1853942871094 209.37017822265625 217.9122772216797 250.72659301757812 C 232.15965270996094 228.3999481201172 239.08912658691406 238.08026123046875 227.15969848632812 298.51654052734375 C 155.719970703125 302.9434814453125 181.54568481445312 354.6017761230469 238.58445739746094 423.827392578125" stroke-width="32.30240249633789" fill="none" stroke="rgb(0, 0, 0)" stroke-opacity="0.29179987" stroke-linecap="round" stroke-linejoin="round"/>
    <path d="M 105.3940200805664 284.77996826171875 C 109.5976791381836 290.36572265625 102.985107421875 290.9042663574219 100.78527069091797 283.9573974609375 C 128.08935546875 277.673583984375 108.33751678466797 336.24462890625 170.22352600097656 347.3329772949219 C 207.58444213867188 304.9706115722656 149.16770935058594 349.68182373046875 120.0271224975586 303.444580078125 C 156.82875061035156 307.09027099609375 173.885498046875 342.0108642578125 218.39207458496094 273.8020935058594" stroke-width="14.810195922851562" fill="none" stroke="rgb(0, 0, 0)" stroke-opacity="0.33660838" stroke-linecap="round" stroke-linejoin="round"/>
    <path d="M 292.4403381347656 472.6675109863281 C 287.6474304199219 479.56842041015625 274.36578369140625 459.56048583984375 300.6879577636719 467.50775146484375 C 285.1907653808594 442.4823303222656 276.9292907714844 415.8092346191406 290.83587646484375 431.5720520019531 C 369.9721374511719 428.8991394042969 399.58673095703125 455.3547058105469 359.9887390136719 441.6515197753906 C 220.89295959472656 453.4650573730469 221.4459991455078 405.26361083984375 246.9420623779297 340.4516296386719" stroke-width="-58.95938491821289" fill="none" stroke="rgb(0, 0, 0)" stroke-opacity="0.8794063" stroke-linecap="round" stroke-linejoin="round"/>
    <path d="M 161.44723510742188 123.189697265625 C 170.00619506835938 150.89154052734375 188.44219970703125 130.97848510742188 323.6818542480469 152.30030822753906 C 326.29827880859375 159.3459930419922 225.38623046875 133.3012237548828 234.3957061767578 105.87294006347656 C 243.3854522705078 169.53489685058594 254.9386444091797 170.52621459960938 175.73829650878906 149.24948120117188 C 224.52102661132812 112.67926025390625 263.5367126464844 125.41056060791016 270.88531494140625 72.67969512939453" stroke-width="20.10448455810547" fill="none" stroke="rgb(0, 0, 0)" stroke-opacity="0.40810496" stroke-linecap="round" stroke-linejoin="round"/>
    <path d="M 572.5654907226562 213.53636169433594 C 563.0127563476562 270.31671142578125 579.7268676757812 287.7333679199219 589.7723999023438 252.99412536621094 C 623.168701171875 273.1867980957031 589.8001098632812 270.5729064941406 548.664794921875 270.8092346191406 C 494.84912109375 293.7226257324219 519.6827392578125 305.4146728515625 548.3231811523438 313.9510192871094 C 549.167724609375 197.5748291015625 534.6285400390625 173.0506591796875 554.7544555664062 193.3428955078125" stroke-width="-17.74067497253418" fill="none" stroke="rgb(0, 0, 0)" stroke-opacity="0.15489133" stroke-linecap="round" stroke-linejoin="round"/>
    <path d="M 277.8924255371094 433.74139404296875 C 213.3485107421875 414.8401794433594 305.7425537109375 434.04986572265625 334.3973388671875 437.1424255371094 C 262.3786926269531 421.412841796875 304.63214111328125 428.9190368652344 384.84442138671875 431.217041015625 C 445.2170715332031 438.38409423828125 445.1039123535156 418.2351379394531 397.8939514160156 428.5174255371094 C 420.6783447265625 430.947998046875 434.6674499511719 423.33172607421875 325.3076171875 425.6586608886719" stroke-width="12.468406677246094" fill="none" stroke="rgb(0, 0, 0)" stroke-opacity="0.22466208" stroke-linecap="round" stroke-linejoin="round"/>
    <path d="M 435.36651611328125 50.57564926147461 C 429.74993896484375 39.99131393432617 440.28704833984375 55.13423538208008 424.02490234375 84.54638671875 C 414.9822692871094 69.74943542480469 413.593017578125 65.9174575805664 405.21942138671875 18.47614097595215 C 411.7298583984375 36.61225891113281 422.6378479003906 60.10634231567383 411.9156494140625 -10.488554954528809 C 526.7103271484375 -57.6711540222168 532.6460571289062 -38.60636901855469 511.4767761230469 41.84413146972656" stroke-width="-22.972251892089844" fill="none" stroke="rgb(0, 0, 0)" stroke-opacity="0.5374701" stroke-linecap="round" stroke-linejoin="round"/>
    <path d="M 508.3320617675781 535.9707641601562 C 500.886962890625 551.4033813476562 568.5465087890625 523.291748046875 543.0068359375 516.2820434570312 C 446.0939636230469 510.9816589355469 450.47900390625 489.57781982421875 486.0641174316406 502.04229736328125 C 463.32342529296875 490.4303283691406 476.24798583984375 498.7489013671875 489.9792785644531 514.500244140625 C 499.5213928222656 495.540283203125 543.57568359375 537.0679321289062 485.9303283691406 546.2615966796875" stroke-width="12.963232040405273" fill="none" stroke="rgb(0, 0, 0)" stroke-opacity="0.5868422" stroke-linecap="round" stroke-linejoin="round"/>
    <path d="M 41.60425567626953 400.6849060058594 C 29.094755172729492 383.6480407714844 47.63090133666992 371.2481384277344 35.309268951416016 425.35101318359375 C 31.521818161010742 524.4954223632812 49.523990631103516 478.5140075683594 78.2327651977539 468.3614807128906 C 92.86992645263672 481.1485900878906 49.320343017578125 445.4996643066406 43.354251861572266 484.05816650390625 C 106.62478637695312 488.281982421875 96.90511322021484 489.9076843261719 14.333645820617676 470.18011474609375" stroke-width="-11.62663459777832" fill="none" stroke="rgb(0, 0, 0)" stroke-opacity="0.42936218" stroke-linecap="round" stroke-linejoin="round"/>
    <path d="M 27.639156341552734 -12.744914054870605 C 30.18265151977539 -8.265165328979492 37.89897537231445 -19.1468505859375 31.462989807128906 -13.116604804992676 C 11.455387115478516 -21.177654266357422 3.191283702850342 -46.982208251953125 -23.09238052368164 -33.67420959472656 C -11.422161102294922 -29.13994789123535 -18.834022521972656 -8.424559593200684 -6.046319484710693 -6.226706504821777 C -21.09676170349121 6.771862983703613 -34.72291946411133 4.622705936431885 -62.10874557495117 -15.487350463867188" stroke-width="7.19424295425415" fill="none" stroke="rgb(0, 0, 0)" stroke-opacity="0.61384505" stroke-linecap="round" stroke-linejoin="round"/>
    <path d="M 83.34038543701172 347.5320129394531 C 70.46561431884766 379.4504699707031 106.23977661132812 399.43048095703125 117.04561614990234 339.4446105957031 C 143.31991577148438 313.5967712402344 171.7158203125 321.03125 160.32135009765625 355.8973388671875 C 89.30857849121094 384.97052001953125 75.5791015625 361.2903747558594 106.14085388183594 408.4374084472656 C 114.12557220458984 395.6553955078125 60.20708465576172 343.1452941894531 55.15522003173828 348.2976379394531" stroke-width="-38.363563537597656" fill="none" stroke="rgb(0, 0, 0)" stroke-opacity="0.5307508" stroke-linecap="round" stroke-linejoin="round"/>
    <path d="M 197.63192749023438 105.12548828125 C 220.57708740234375 95.79518127441406 265.2993469238281 75.66236114501953 253.9878692626953 191.083251953125 C 72.89288330078125 226.019775390625 82.4156723022461 217.0364532470703 69.10785675048828 194.5529327392578 C 90.78825378417969 164.59344482421875 64.47028350830078 176.91905212402344 93.0960922241211 134.7362060546875 C 97.3179702758789 133.77626037597656 86.97794342041016 164.81948852539062 55.384368896484375 162.08572387695312" stroke-width="-40.61838150024414" fill="none" stroke="rgb(0, 0, 0)" stroke-opacity="0.80952007" stroke-linecap="round" stroke-linejoin="round"/>
    <path d="M 548.5897216796875 224.22674560546875 C 535.3724365234375 180.4579620361328 538.4132080078125 176.9088134765625 526.643310546875 233.66220092773438 C 513.2904052734375 255.4803924560547 447.6545715332031 257.4429626464844 471.823486328125 164.18484497070312 C 516.0541381835938 97.75765228271484 455.1347351074219 119.04729461669922 477.9703063964844 99.97924041748047 C 529.7012329101562 101.43998718261719 567.9815063476562 77.03536987304688 573.8492431640625 71.1364974975586" stroke-width="-56.15895462036133" fill="none" stroke="rgb(0, 0, 0)" stroke-opacity="0.5938538" stroke-linecap="round" stroke-linejoin="round"/>
    <path d="M 98.66001892089844 259.9903259277344 C 79.00566101074219 243.13644409179688 27.96781349182129 216.0247039794922 76.4568099975586 132.8145751953125 C 155.20469665527344 136.89935302734375 136.1610870361328 182.61880493164062 160.63775634765625 236.86508178710938 C 158.76724243164062 253.50929260253906 144.42298889160156 236.974365234375 110.08802032470703 205.18800354003906 C 89.7522964477539 194.23963928222656 44.42357635498047 214.1583709716797 12.613761901855469 239.5508270263672" stroke-width="-51.641273498535156" fill="none" stroke="rgb(0, 0, 0)" stroke-opacity="0.30482587" stroke-linecap="round" stroke-linejoin="round"/>
    <path d="M 460.57293701171875 573.0836181640625 C 437.96038818359375 573.8368530273438 461.6934509277344 563.2279663085938 452.6915588378906 579.6360473632812 C 447.23504638671875 547.6344604492188 474.015625 523.6730346679688 373.3846740722656 540.2728881835938 C 382.1244201660156 644.6495361328125 397.11981201171875 675.4544067382812 419.8928527832031 710.7755126953125 C 485.6014404296875 637.598876953125 482.6003112792969 653.533935546875 474.9572448730469 682.4995727539062" stroke-width="-19.756793975830078" fill="none" stroke="rgb(0, 0, 0)" stroke-opacity="0.4736771" stroke-linecap="round" stroke-linejoin="round"/>
    <path d="M 345.3396301269531 251.5666046142578 C 262.95947265625 237.43325805664062 255.36474609375 244.68467712402344 265.1348876953125 263.0829162597656 C 348.43255615234375 278.20306396484375 365.0419921875 274.49462890625 330.0716857910156 280.5788269042969 C 354.9267272949219 269.171630859375 388.37738037109375 237.6501007080078 332.5569152832031 246.3728790283203 C 356.5301513671875 293.8125305175781 392.33428955078125 339.9742126464844 433.0633850097656 296.79583740234375" stroke-width="8.191390037536621" fill="none" stroke="rgb(0, 0, 0)" stroke-opacity="0.4117515" stroke-linecap="round" stroke-linejoin="round"/>
    <path d="M 145.26486206054688 543.2936401367188 C 155.3872528076172 564.3431396484375 141.95616149902344 531.7189331054688 146.8479461669922 554.8134155273438 C 151.4979705810547 666.8043823242188 143.08963012695312 699.2315063476562 105.33767700195312 683.6459350585938 C 97.9349594116211 629.85986328125 124.72000122070312 634.269287109375 150.8262176513672 623.6395263671875 C 156.10806274414062 600.2239379882812 184.74252319335938 614.2677001953125 207.5680389404297 633.4207763671875" stroke-width="-7.502624034881592" fill="none" stroke="rgb(0, 0, 0)" stroke-opacity="0.51381576" stroke-linecap="round" stroke-linejoin="round"/>
    <path d="M 573.7459106445312 144.3424835205078 C 555.0728759765625 188.39999389648438 559.688232421875 196.5684051513672 454.4678649902344 254.5748748779297 C 414.6349182128906 255.71290588378906 335.0075378417969 214.12290954589844 337.6934509277344 -63.51139831542969 C 739.3900756835938 -35.13950729370117 734.2630004882812 -11.496115684509277 674.959228515625 105.31498718261719 C 513.7069702148438 176.19627380371094 555.7069702148438 198.7960205078125 564.8196411132812 198.9602813720703" stroke-width="-101.3673095703125" fill="none" stroke="rgb(0, 0, 0)" stroke-opacity="0.81913835" stroke-linecap="round" stroke-linejoin="round"/>
    <path d="M 55.818016052246094 368.4373779296875 C 42.67316818237305 373.6712951660156 10.328091621398926 372.060302734375 16.5364990234375 334.0936279296875 C 16.59371566772461 351.64111328125 1.1844369173049927 380.9891357421875 -2.6883022785186768 402.7752990722656 C -9.001838684082031 400.4189453125 -35.26934814453125 376.7901306152344 -55.63789749145508 354.05010986328125 C -20.573101043701172 282.63714599609375 -31.582300186157227 270.6565856933594 -28.668243408203125 283.1325378417969" stroke-width="-10.04323673248291" fill="none" stroke="rgb(0, 0, 0)" stroke-opacity="0.6234075" stroke-linecap="round" stroke-linejoin="round"/>
    <path d="M 498.6641845703125 188.7021942138672 C 486.55194091796875 181.85479736328125 474.11907958984375 196.95755004882812 532.2860107421875 247.8394775390625 C 550.572265625 255.70472717285156 541.5828857421875 321.8564147949219 505.7577819824219 318.079833984375 C 492.4350891113281 243.56259155273438 498.2104187011719 264.47882080078125 498.74090576171875 287.68450927734375 C 496.7499084472656 274.6014709472656 496.05084228515625 292.9234924316406 485.6146240234375 311.1517639160156" stroke-width="-27.700485229492188" fill="none" stroke="rgb(0, 0, 0)" stroke-opacity="0.18425573" stroke-linecap="round" stroke-linejoin="round"/>
    <path d="M 263.96917724609375 185.43434143066406 C 243.09451293945312 74.36160278320312 212.3629608154297 149.9806365966797 325.7478332519531 157.04443359375 C 377.06585693359375 153.91419982910156 398.9183349609375 115.16182708740234 357.701171875 133.34373474121094 C 315.02252197265625 128.45974731445312 266.771240234375 73.4982681274414 262.5527648925781 -2.7941904067993164 C 319.022216796875 16.70616912841797 259.5376281738281 61.194698333740234 246.2494354248047 79.46635437011719" stroke-width="16.346744537353516" fill="none" stroke="rgb(0, 0, 0)" stroke-opacity="0.990418" stroke-linecap="round" stroke-linejoin="round"/>
    <path d="M 266.2552795410156 157.44583129882812 C 351.3795166015625 171.3745574951172 366.61590576171875 148.25267028808594 282.29052734375 144.71302795410156 C 199.5020751953125 121.51838684082031 207.9647216796875 182.00755310058594 257.86724853515625 242.10887145996094 C 301.0570373535156 262.3183898925781 348.7494812011719 248.4651336669922 362.6611633300781 252.21670532226562 C 321.53533935546875 285.5292663574219 375.92279052734375 261.54949951171875 385.2316589355469 373.54840087890625" stroke-width="18.964651107788086" fill="none" stroke="rgb(0, 0, 0)" stroke-opacity="0.50874555" stroke-linecap="round" stroke-linejoin="round"/>
    <path d="M -5.2788987159729 212.32618713378906 C 14.10071086883545 214.69940185546875 -4.891139984130859 199.9121856689453 11.254791259765625 138.12396240234375 C 22.80187225341797 171.00830078125 -12.150211334228516 199.53260803222656 28.997867584228516 141.238037109375 C 25.493968963623047 161.4027099609375 -9.180829048156738 202.01608276367188 -16.48503875732422 191.1826934814453 C -26.021156311035156 154.6810302734375 -52.48204040527344 162.5526123046875 -71.34789276123047 153.12367248535156" stroke-width="0.6307960748672485" fill="none" stroke="rgb(0, 0, 0)" stroke-opacity="0.22906384" stroke-linecap="round" stroke-linejoin="round"/>
    <path d="M 31.135887145996094 133.260986328125 C 6.739562511444092 155.307373046875 30.4043025970459 142.25379943847656 -8.782801628112793 197.32899475097656 C -32.395843505859375 205.57049560546875 -33.034305572509766 209.18927001953125 -26.843324661254883 162.24237060546875 C 23.870149612426758 177.80557250976562 44.27341842651367 166.47866821289062 49.41925811767578 150.6765899658203 C 34.15770721435547 154.878173828125 44.87233352661133 193.35186767578125 48.0128059387207 156.60601806640625" stroke-width="-5.8049445152282715" fill="none" stroke="rgb(0, 0, 0)" stroke-opacity="0.15665835" stroke-linecap="round" stroke-linejoin="round"/>
    <path d="M 105.32202911376953 543.9343872070312 C 207.17486572265625 547.2373046875 197.88522338867188 513.3715209960938 148.3985137939453 495.45941162109375 C 94.80046844482422 504.13592529296875 56.302894592285156 519.1791381835938 55.80423355102539 528.2265625 C 95.31233215332031 509.2640075683594 137.66653442382812 525.3179321289062 155.1251983642578 447.98907470703125 C 177.28599548339844 484.832763671875 143.12530517578125 481.4925231933594 111.51825714111328 501.35980224609375" stroke-width="9.16330337524414" fill="none" stroke="rgb(0, 0, 0)" stroke-opacity="0.63241625" stroke-linecap="round" stroke-linejoin="round"/>
    <path d="M 396.2194519042969 233.35702514648438 C 386.54425048828125 257.46661376953125 271.7740478515625 255.3762664794922 261.27496337890625 231.43746948242188 C 339.8290710449219 255.75111389160156 404.77227783203125 243.97035217285156 421.6999816894531 215.87289428710938 C 410.77191162109375 225.078125 381.2989196777344 230.2620391845703 361.3636474609375 212.6138458251953 C 337.4666442871094 194.21432495117188 319.4081726074219 174.29183959960938 335.55853271484375 171.2095489501953" stroke-width="18.0317325592041" fill="none" stroke="rgb(0, 0, 0)" stroke-opacity="0.7420929" stroke-linecap="round" stroke-linejoin="round"/>
    <path d="M -10.22813606262207 258.38897705078125 C -16.79846954345703 241.14869689941406 -9.699299812316895 260.2469177246094 -11.499606132507324 281.7164001464844 C -10.151700973510742 274.9223327636719 -31.27933692932129 275.9851989746094 -46.97269058227539 251.5419464111328 C -43.43934631347656 258.05926513671875 -20.91495704650879 279.4245910644531 -17.639991760253906 285.85015869140625 C -29.348581314086914 316.58935546875 -13.244685173034668 301.7981262207031 -7.750988960266113 279.95404052734375" stroke-width="8.085270881652832" fill="none" stroke="rgb(0, 0, 0)" stroke-opacity="0.8524878" stroke-linecap="round" stroke-linejoin="round"/>
    <path d="M 440.63818359375 535.7734985351562 C 447.9331359863281 535.0903930664062 435.2679748535156 563.412353515625 444.524658203125 581.7133178710938 C 436.51287841796875 672.5090942382812 435.03143310546875 698.6188354492188 450.7575378417969 667.3710327148438 C 419.6902770996094 679.7222900390625 438.71759033203125 673.9638061523438 455.4813537597656 700.552001953125 C 440.209716796875 691.2942504882812 420.9420471191406 671.7741088867188 442.58441162109375 690.9157104492188" stroke-width="-9.230228424072266" fill="none" stroke="rgb(0, 0, 0)" stroke-opacity="0.76858133" stroke-linecap="round" stroke-linejoin="round"/>
    <path d="M 111.91423034667969 148.7996063232422 C 97.98633575439453 148.17857360839844 108.69229125976562 132.69790649414062 202.74746704101562 202.12266540527344 C 208.02899169921875 140.05787658691406 164.5587158203125 91.44132995605469 99.0232162475586 28.388290405273438 C 123.74720001220703 -54.50560760498047 128.56712341308594 -70.13541412353516 132.48016357421875 -83.14219665527344 C 178.1072235107422 -52.132442474365234 177.8928985595703 -40.79494094848633 177.77117919921875 -38.237098693847656" stroke-width="-47.416038513183594" fill="none" stroke="rgb(0, 0, 0)" stroke-opacity="0.24642605" stroke-linecap="round" stroke-linejoin="round"/>
    <path d="M 575.2806396484375 331.8983154296875 C 582.910400390625 314.649658203125 576.033935546875 312.4656982421875 563.6734619140625 309.19439697265625 C 573.603759765625 312.4602355957031 571.0247192382812 314.9606018066406 535.6886596679688 302.3946533203125 C 582.2838134765625 297.62384033203125 609.7993774414062 260.1634216308594 570.6336059570312 234.2499237060547 C 542.3746948242188 270.666259765625 568.579345703125 341.4879455566406 568.7406005859375 418.6217041015625" stroke-width="-17.717527389526367" fill="none" stroke="rgb(0, 0, 0)" stroke-opacity="0.8029234" stroke-linecap="round" stroke-linejoin="round"/>
    <path d="M 12.370179176330566 76.42760467529297 C -16.983604431152344 87.82367706298828 -21.14214515686035 126.3848648071289 -13.123526573181152 116.23368072509766 C -40.787635803222656 61.67350387573242 -43.888641357421875 46.34294509887695 -65.23443603515625 16.49628257751465 C -46.90455627441406 41.767948150634766 -64.80123138427734 24.67274284362793 -64.149169921875 18.078853607177734 C -74.28878784179688 36.545963287353516 -88.37117767333984 44.674015045166016 -71.14330291748047 65.99977111816406" stroke-width="-4.98491907119751" fill="none" stroke="rgb(0, 0, 0)" stroke-opacity="0.21299838" stroke-linecap="round" stroke-linejoin="round"/>
    <path d="M 483.7238464355469 77.23687744140625 C 511.75506591796875 102.4941635131836 503.59844970703125 160.4622344970703 470.8316345214844 160.36654663085938 C 434.6747131347656 182.32505798339844 470.3605651855469 155.8772430419922 478.71234130859375 179.96153259277344 C 518.0922241210938 189.1284637451172 527.7114868164062 158.66567993164062 548.1495361328125 121.13541412353516 C 515.5805053710938 117.66780853271484 548.5599365234375 58.8631591796875 569.785400390625 61.44643020629883" stroke-width="-36.553218841552734" fill="none" stroke="rgb(0, 0, 0)" stroke-opacity="0.38019934" stroke-linecap="round" stroke-linejoin="round"/>
    <path d="M 343.94866943359375 252.6179962158203 C 334.5419921875 248.57716369628906 342.40869140625 209.7111053466797 495.2920837402344 157.12356567382812 C 534.47509765625 371.96099853515625 500.64666748046875 382.399658203125 388.0662536621094 325.1955261230469 C 346.0332946777344 223.17568969726562 314.8182678222656 219.6348876953125 330.371826171875 225.22422790527344 C 364.59033203125 202.63623046875 380.2523193359375 235.5062713623047 377.9526062011719 216.23414611816406" stroke-width="-60.49109649658203" fill="none" stroke="rgb(0, 0, 0)" stroke-opacity="0.58767766" stroke-linecap="round" stroke-linejoin="round"/>
    <path d="M 460.57293701171875 573.0836181640625 C 437.96038818359375 573.8368530273438 461.6934509277344 563.2279663085938 452.6915588378906 579.6360473632812 C 447.23504638671875 547.6344604492188 474.015625 523.6730346679688 373.3846740722656 540.2728881835938 C 382.1244201660156 644.6495361328125 397.11981201171875 675.4544067382812 419.8928527832031 710.7755126953125 C 485.6014404296875 637.598876953125 482.6003112792969 653.533935546875 474.9572448730469 682.4995727539062" stroke-width="-19.756793975830078" fill="none" stroke="rgb(0, 0, 0)" stroke-opacity="0.100307554" stroke-linecap="round" stroke-linejoin="round"/>
  </g>
</svg>
