<?xml version="1.0" ?>
<svg xmlns="http://www.w3.org/2000/svg" version="1.1" width="600" height="600">
  <defs/>
  <g>
    <path d="M -30.496774673461914 366.8412170410156 C -4.970747947692871 358.27471923828125 -13.822084426879883 344.70733642578125 -19.941265106201172 368.04144287109375 C -33.60542297363281 400.0723876953125 -47.97748947143555 429.2345886230469 -63.020774841308594 419.27935791015625 C -61.639381408691406 395.2000427246094 -52.49374008178711 377.4679870605469 -31.670120239257812 379.1722412109375 C -46.31314468383789 405.9914855957031 -60.564884185791016 383.8522644042969 -73.4701156616211 372.6898193359375" stroke-width="10.864633560180664" fill="none" stroke="rgb(0, 0, 0)" stroke-opacity="0.2900136" stroke-linecap="round" stroke-linejoin="round"/>
    <path d="M 564.3106689453125 329.1101379394531 C 562.1239624023438 322.9916076660156 573.2012939453125 331.38873291015625 558.7137451171875 323.4999694824219 C 574.4608764648438 342.2369384765625 579.264892578125 374.8291931152344 621.1981811523438 396.9939880371094 C 643.412841796875 455.2099914550781 611.5828857421875 476.7179260253906 652.5765991210938 442.4612121582031 C 661.558349609375 368.9508361816406 613.088623046875 341.1944580078125 490.8103942871094 349.6737060546875" stroke-width="-48.364830017089844" fill="none" stroke="rgb(0, 0, 0)" stroke-opacity="0.070815206" stroke-linecap="round" stroke-linejoin="round"/>
    <path d="M 474.065673828125 366.9741516113281 C 373.0296936035156 383.2903137207031 394.0547180175781 295.02008056640625 451.33917236328125 340.6626281738281 C 502.8760986328125 386.0100402832031 557.7322998046875 338.15521240234375 466.847412109375 345.14862060546875 C 459.76837158203125 360.52105712890625 468.9832763671875 344.276123046875 456.66876220703125 352.5881652832031 C 450.18865966796875 347.4768981933594 406.00787353515625 322.5003662109375 395.5203857421875 344.1277770996094" stroke-width="14.0400390625" fill="none" stroke="rgb(0, 0, 0)" stroke-opacity="0.075387485" stroke-linecap="round" stroke-linejoin="round"/>
    <path d="M 526.8646850585938 40.90678024291992 C 593.9838256835938 31.13324546813965 555.7418212890625 22.861949920654297 489.01385498046875 43.45424270629883 C 452.3253479003906 10.097269058227539 431.3951416015625 11.036442756652832 422.4287414550781 -14.021281242370605 C 503.164794921875 -37.231563568115234 528.082763671875 -19.534387588500977 549.6934814453125 -26.224695205688477 C 567.4857177734375 -28.342023849487305 569.8095703125 -32.28547668457031 585.976806640625 -26.837814331054688" stroke-width="-20.067861557006836" fill="none" stroke="rgb(0, 0, 0)" stroke-opacity="0.989258" stroke-linecap="round" stroke-linejoin="round"/>
    <path d="M 396.9060974121094 126.86017608642578 C 418.95526123046875 140.56576538085938 459.2747497558594 136.7393798828125 433.9101257324219 144.5609588623047 C 407.0071716308594 131.63690185546875 332.3421325683594 86.84941101074219 363.06927490234375 -26.186412811279297 C 578.2794189453125 24.483335494995117 531.153564453125 39.69710922241211 542.1785888671875 95.58887481689453 C 529.442626953125 57.52127456665039 508.9052734375 38.2888069152832 407.67938232421875 15.140856742858887" stroke-width="-54.45252227783203" fill="none" stroke="rgb(0, 0, 0)" stroke-opacity="0.9062288" stroke-linecap="round" stroke-linejoin="round"/>
    <path d="M 484.7098693847656 101.95743560791016 C 472.4963684082031 103.01156616210938 444.5589904785156 106.08185577392578 468.0287170410156 89.5494613647461 C 430.06591796875 121.22586822509766 442.4306945800781 186.6280517578125 401.8493957519531 211.9407958984375 C 341.3543701171875 184.35400390625 344.8114318847656 158.09202575683594 402.5993347167969 120.1406478881836 C 388.3621826171875 101.17007446289062 386.03460693359375 145.9922332763672 382.58343505859375 169.71551513671875" stroke-width="-46.140655517578125" fill="none" stroke="rgb(0, 0, 0)" stroke-opacity="0.5482012" stroke-linecap="round" stroke-linejoin="round"/>
    <path d="M 441.9705810546875 317.61053466796875 C 300.2123718261719 349.3009033203125 318.05224609375 346.0045471191406 393.0391540527344 321.381591796875 C 382.0111999511719 331.9720458984375 343.7386779785156 317.4126281738281 304.7333679199219 349.75860595703125 C 257.0361633300781 356.39630126953125 262.5574951171875 368.4077453613281 362.50262451171875 356.9333190917969 C 374.1263732910156 354.59075927734375 384.7214660644531 355.98858642578125 400.22259521484375 298.0983581542969" stroke-width="23.38127899169922" fill="none" stroke="rgb(0, 0, 0)" stroke-opacity="0.4816774" stroke-linecap="round" stroke-linejoin="round"/>
    <path d="M 380.4329833984375 113.00202178955078 C 434.3453674316406 132.24017333984375 407.515869140625 131.97854614257812 445.0013732910156 201.7420196533203 C 466.6361999511719 202.97146606445312 490.4951171875 128.10025024414062 490.6717834472656 147.7372283935547 C 513.0223388671875 183.22193908691406 502.1495666503906 149.44529724121094 429.35980224609375 87.46839141845703 C 329.46148681640625 102.32452392578125 401.78985595703125 80.33343505859375 394.6337890625 104.04822540283203" stroke-width="-45.047977447509766" fill="none" stroke="rgb(0, 0, 0)" stroke-opacity="0.9258592" stroke-linecap="round" stroke-linejoin="round"/>
    <path d="M 526.23388671875 520.64892578125 C 533.0723876953125 553.8010864257812 522.438720703125 515.6672973632812 527.173095703125 500.60272216796875 C 497.79522705078125 524.9675903320312 492.56060791015625 495.7610778808594 509.0198669433594 515.4559326171875 C 467.7367248535156 537.9578857421875 443.7082824707031 497.68951416015625 574.2955932617188 518.6932983398438 C 560.0518188476562 530.1088256835938 499.0414123535156 532.63671875 483.03643798828125 490.2873229980469" stroke-width="18.10822296142578" fill="none" stroke="rgb(0, 0, 0)" stroke-opacity="0.8668958" stroke-linecap="round" stroke-linejoin="round"/>
    <path d="M 282.19342041015625 430.02789306640625 C 329.15582275390625 394.6998596191406 384.50640869140625 408.9684143066406 282.31488037109375 443.810546875 C 378.5613098144531 437.8065490722656 398.1929931640625 438.96075439453125 396.5461120605469 419.51177978515625 C 318.4438171386719 415.89410400390625 360.220947265625 414.689208984375 409.0810546875 402.04296875 C 400.0110778808594 409.7705993652344 423.59918212890625 397.53094482421875 411.8937072753906 481.9072265625" stroke-width="27.098228454589844" fill="none" stroke="rgb(0, 0, 0)" stroke-opacity="0.73228675" stroke-linecap="round" stroke-linejoin="round"/>
    <path d="M 131.4449920654297 191.76951599121094 C 108.41378021240234 197.73202514648438 106.986572265625 192.0421905517578 124.72113800048828 194.81109619140625 C 153.7437744140625 176.0205841064453 173.6385498046875 153.62063598632812 184.08924865722656 101.8495101928711 C 203.7435760498047 74.43586730957031 176.1210174560547 127.06429290771484 174.0965118408203 143.5565948486328 C 183.67860412597656 124.53649139404297 173.76699829101562 160.3730926513672 147.25039672851562 190.6089324951172" stroke-width="-11.603585243225098" fill="none" stroke="rgb(0, 0, 0)" stroke-opacity="0.6528778" stroke-linecap="round" stroke-linejoin="round"/>
    <path d="M 195.67945861816406 304.8045959472656 C 262.6968688964844 305.6882629394531 268.8811950683594 337.5733642578125 233.94830322265625 346.8761901855469 C 127.85779571533203 289.75543212890625 110.53842163085938 289.4273376464844 138.6981658935547 238.12310791015625 C 199.41879272460938 187.96701049804688 193.44744873046875 192.8106689453125 189.766845703125 201.19371032714844 C 244.79319763183594 210.35467529296875 250.24147033691406 203.24923706054688 236.18211364746094 206.92184448242188" stroke-width="-34.59927749633789" fill="none" stroke="rgb(0, 0, 0)" stroke-opacity="0.7255921" stroke-linecap="round" stroke-linejoin="round"/>
    <path d="M 601.0997924804688 91.2327651977539 C 605.2120361328125 7.569912910461426 582.9286499023438 20.14297866821289 615.8570556640625 49.53913497924805 C 572.6329345703125 23.528066635131836 577.0704956054688 79.51713562011719 588.1390991210938 8.935733795166016 C 529.6919555664062 -31.651859283447266 560.3614501953125 25.949420928955078 594.4346313476562 48.52592849731445 C 587.00244140625 113.72828674316406 565.9056396484375 82.20423889160156 581.3538818359375 87.20916748046875" stroke-width="25.535179138183594" fill="none" stroke="rgb(0, 0, 0)" stroke-opacity="0.7929098" stroke-linecap="round" stroke-linejoin="round"/>
    <path d="M 367.4376525878906 519.6019897460938 C 420.0915832519531 487.5296325683594 416.1932678222656 520.2482299804688 430.85333251953125 547.6950073242188 C 362.5541076660156 521.3805541992188 370.59454345703125 497.2336120605469 363.98046875 574.5433959960938 C 363.1119079589844 524.556884765625 377.28985595703125 526.181640625 405.2376403808594 554.774169921875 C 387.3710632324219 550.6605834960938 405.0013427734375 550.847412109375 384.7057189941406 543.0985107421875" stroke-width="29.63546371459961" fill="none" stroke="rgb(0, 0, 0)" stroke-opacity="0.5220709" stroke-linecap="round" stroke-linejoin="round"/>
    <path d="M 46.8924446105957 511.70147705078125 C 6.1399078369140625 508.12567138671875 67.460205078125 514.72412109375 125.95183563232422 519.9384765625 C 128.93051147460938 460.5284423828125 107.57388305664062 497.7254638671875 69.37495422363281 481.2116394042969 C -22.512067794799805 463.6971740722656 33.34452438354492 509.9915771484375 19.221654891967773 527.2648315429688 C 8.926081657409668 447.9180603027344 15.889575958251953 480.08203125 69.42452239990234 555.308349609375" stroke-width="40.632991790771484" fill="none" stroke="rgb(0, 0, 0)" stroke-opacity="0.52426195" stroke-linecap="round" stroke-linejoin="round"/>
    <path d="M 548.4854736328125 224.73223876953125 C 550.293701171875 231.22515869140625 559.5653076171875 191.4561309814453 526.799072265625 193.28570556640625 C 587.0830078125 223.51670837402344 591.7761840820312 237.24839782714844 558.3037109375 273.2661437988281 C 523.9476318359375 172.5263671875 520.1629638671875 169.47650146484375 493.31146240234375 178.1398468017578 C 529.7781372070312 181.67572021484375 567.843994140625 282.40838623046875 510.34503173828125 278.8780822753906" stroke-width="-13.759639739990234" fill="none" stroke="rgb(0, 0, 0)" stroke-opacity="0.2352306" stroke-linecap="round" stroke-linejoin="round"/>
    <path d="M 525.7861938476562 182.61244201660156 C 563.7007446289062 185.7510986328125 583.74609375 193.59185791015625 568.2948608398438 213.13059997558594 C 545.6227416992188 202.0060272216797 548.7044067382812 208.4822540283203 598.6340942382812 237.11390686035156 C 578.8403930664062 202.73898315429688 562.0274658203125 177.90835571289062 547.550537109375 172.3526153564453 C 516.2798461914062 192.583740234375 491.8949279785156 176.5365447998047 484.2550964355469 167.33030700683594" stroke-width="-19.66375160217285" fill="none" stroke="rgb(0, 0, 0)" stroke-opacity="0.6780436" stroke-linecap="round" stroke-linejoin="round"/>
    <path d="M 85.11813354492188 235.66590881347656 C 112.27162170410156 253.03976440429688 101.6735610961914 257.5633850097656 85.65791320800781 148.20680236816406 C 110.50312805175781 130.19244384765625 82.85445404052734 177.6064910888672 65.32551574707031 93.82861328125 C 65.1568374633789 131.68154907226562 70.34413146972656 194.05288696289062 105.5142593383789 114.4726333618164 C 114.90045928955078 126.82711029052734 142.32672119140625 122.61469268798828 150.48257446289062 78.09968566894531" stroke-width="18.940006256103516" fill="none" stroke="rgb(0, 0, 0)" stroke-opacity="0.47129273" stroke-linecap="round" stroke-linejoin="round"/>
    <path d="M 247.98887634277344 350.9183349609375 C 304.5665588378906 386.7969970703125 307.5340576171875 341.5845642089844 306.7720642089844 388.9580383300781 C 288.7550048828125 335.71600341796875 271.64532470703125 351.2012939453125 282.962158203125 358.9281921386719 C 229.94654846191406 340.7237854003906 217.1783447265625 338.5859375 216.4276580810547 327.1708679199219 C 219.3064422607422 355.9140625 289.3470458984375 347.059814453125 362.1132507324219 340.0744323730469" stroke-width="5.494931697845459" fill="none" stroke="rgb(0, 0, 0)" stroke-opacity="0.4551142" stroke-linecap="round" stroke-linejoin="round"/>
    <path d="M 200.098388671875 -25.14438247680664 C 151.347412109375 4.526417255401611 197.71482849121094 5.75076961517334 220.65927124023438 -0.3279467821121216 C 223.20132446289062 -24.354347229003906 244.71566772460938 -16.10935401916504 210.35696411132812 -15.760466575622559 C 189.68768310546875 2.1569085121154785 239.2908172607422 -10.46634578704834 233.72430419921875 -32.679931640625 C 253.92176818847656 -7.80965518951416 272.9586486816406 -39.171016693115234 271.0409240722656 -50.2187385559082" stroke-width="11.990439414978027" fill="none" stroke="rgb(0, 0, 0)" stroke-opacity="0.09109714" stroke-linecap="round" stroke-linejoin="round"/>
    <path d="M 87.16128540039062 341.88177490234375 C 92.46479797363281 237.23638916015625 78.30887603759766 199.99252319335938 83.62330627441406 185.90769958496094 C 106.13204956054688 213.66656494140625 103.25579833984375 270.0747985839844 90.20602416992188 248.8116455078125 C 90.7568359375 287.98114013671875 66.30449676513672 324.5251770019531 95.72657775878906 305.8079833984375 C 115.53880310058594 241.3554229736328 125.23602294921875 226.87994384765625 54.8766975402832 217.14630126953125" stroke-width="4.099501132965088" fill="none" stroke="rgb(0, 0, 0)" stroke-opacity="0.19611521" stroke-linecap="round" stroke-linejoin="round"/>
    <path d="M 549.2035522460938 425.2789001464844 C 539.6345825195312 439.9913330078125 444.0916748046875 431.8262939453125 454.3172912597656 431.26318359375 C 442.6595764160156 492.8498229980469 464.7181701660156 476.3677978515625 459.2945861816406 424.5177001953125 C 477.1878967285156 374.541748046875 478.7781677246094 482.5736999511719 475.0994567871094 502.59649658203125 C 473.6679992675781 498.47802734375 458.3685607910156 503.9861145019531 559.25927734375 507.11541748046875" stroke-width="14.507389068603516" fill="none" stroke="rgb(0, 0, 0)" stroke-opacity="0.6662555" stroke-linecap="round" stroke-linejoin="round"/>
    <path d="M 96.06993865966797 381.5848693847656 C 66.97601318359375 348.0048522949219 77.97872924804688 345.5169677734375 106.0953140258789 368.4005126953125 C 85.54129028320312 349.70263671875 85.52521514892578 326.62396240234375 68.6263656616211 336.0375061035156 C 85.90835571289062 342.2354736328125 104.70316314697266 360.18505859375 79.33399963378906 349.1040954589844 C 71.50123596191406 304.602294921875 67.11697387695312 279.8939514160156 35.90748596191406 264.2109069824219" stroke-width="-16.858564376831055" fill="none" stroke="rgb(0, 0, 0)" stroke-opacity="0.9694691" stroke-linecap="round" stroke-linejoin="round"/>
    <path d="M 80.10282135009766 -17.720077514648438 C 56.54997634887695 -0.8054882287979126 121.51453399658203 -13.632065773010254 134.60670471191406 -7.2679762840271 C 129.5458221435547 -31.90059471130371 128.2586212158203 -49.65681076049805 145.78408813476562 -47.900814056396484 C 173.15919494628906 -15.362556457519531 178.25022888183594 -28.652759552001953 208.14739990234375 -16.77165985107422 C 224.9378204345703 -2.977725028991699 212.26449584960938 -20.825820922851562 241.21607971191406 -16.655866622924805" stroke-width="6.515036106109619" fill="none" stroke="rgb(0, 0, 0)" stroke-opacity="0.11208746" stroke-linecap="round" stroke-linejoin="round"/>
    <path d="M 526.23388671875 520.64892578125 C 533.0723876953125 553.8010864257812 522.438720703125 515.6672973632812 527.173095703125 500.60272216796875 C 497.79522705078125 524.9675903320312 492.56060791015625 495.7610778808594 509.0198669433594 515.4559326171875 C 467.7367248535156 537.9578857421875 443.7082824707031 497.68951416015625 574.2955932617188 518.6932983398438 C 560.0518188476562 530.1088256835938 499.0414123535156 532.63671875 483.03643798828125 490.2873229980469" stroke-width="18.10822296142578" fill="none" stroke="rgb(0, 0, 0)" stroke-opacity="0.8043035" stroke-linecap="round" stroke-linejoin="round"/>
    <path d="M 218.3076629638672 294.16937255859375 C 222.8096160888672 310.2986145019531 237.18780517578125 284.7131652832031 185.89205932617188 318.7630615234375 C 175.751953125 324.3460693359375 203.09286499023438 279.52630615234375 171.7118682861328 287.43994140625 C 146.17295837402344 243.14173889160156 174.16064453125 208.3542022705078 132.94638061523438 188.71435546875 C 99.67903137207031 210.79415893554688 147.13075256347656 190.93936157226562 154.19656372070312 175.8747100830078" stroke-width="-26.354862213134766" fill="none" stroke="rgb(0, 0, 0)" stroke-opacity="0.34120417" stroke-linecap="round" stroke-linejoin="round"/>
    <path d="M 283.6851806640625 495.86029052734375 C 423.95172119140625 491.9794921875 432.13238525390625 485.9286193847656 363.31842041015625 532.5726318359375 C 367.3343505859375 578.5706176757812 346.1777648925781 569.7374267578125 344.0796203613281 502.82244873046875 C 355.8943786621094 492.49090576171875 339.0392761230469 476.2911071777344 379.8287353515625 518.0618896484375 C 316.57720947265625 552.3966674804688 337.8171691894531 555.4384155273438 343.13067626953125 476.6429443359375" stroke-width="19.31615447998047" fill="none" stroke="rgb(0, 0, 0)" stroke-opacity="0.8329852" stroke-linecap="round" stroke-linejoin="round"/>
    <path d="M 428.6259460449219 356.0456237792969 C 444.87158203125 345.05926513671875 484.1474609375 353.83673095703125 522.82666015625 353.1515197753906 C 522.3877563476562 361.09906005859375 469.3132629394531 366.40179443359375 416.1756286621094 371.1578369140625 C 471.5213317871094 393.38427734375 467.7600402832031 424.39215087890625 450.2017822265625 492.5199890136719 C 461.4613037109375 462.5457763671875 439.0780029296875 488.5028991699219 486.2111511230469 444.6431579589844" stroke-width="14.997758865356445" fill="none" stroke="rgb(0, 0, 0)" stroke-opacity="0.09340968" stroke-linecap="round" stroke-linejoin="round"/>
    <path d="M 573.0288696289062 89.6580581665039 C 604.375732421875 90.09156799316406 617.8515014648438 87.93053436279297 594.554931640625 128.40626525878906 C 597.666015625 230.92825317382812 577.0538330078125 217.14169311523438 509.7348327636719 192.80023193359375 C 592.8134765625 166.06997680664062 575.7274780273438 166.85057067871094 574.5658569335938 136.53421020507812 C 570.5470581054688 146.27748107910156 554.8997192382812 169.4603271484375 553.7005004882812 151.1571502685547" stroke-width="24.6069278717041" fill="none" stroke="rgb(0, 0, 0)" stroke-opacity="0.6517955" stroke-linecap="round" stroke-linejoin="round"/>
    <path d="M 51.61066818237305 188.4949493408203 C 44.56547164916992 196.95558166503906 61.94941711425781 187.97598266601562 57.12561798095703 207.10333251953125 C 96.2298583984375 196.1145782470703 86.06373596191406 171.79476928710938 98.56070709228516 177.4375 C 117.914794921875 191.32955932617188 111.60894775390625 163.332275390625 93.74867248535156 242.6018829345703 C 87.80403900146484 231.70608520507812 73.02720642089844 225.06039428710938 41.23633575439453 170.48065185546875" stroke-width="-25.5827579498291" fill="none" stroke="rgb(0, 0, 0)" stroke-opacity="0.13760068" stroke-linecap="round" stroke-linejoin="round"/>
    <path d="M 26.115554809570312 525.9634399414062 C -37.39952850341797 511.2834167480469 -66.28340911865234 503.849853515625 -94.56570434570312 471.1336669921875 C -28.15141487121582 421.194580078125 -24.80663299560547 402.260498046875 -56.03550338745117 409.6806640625 C -49.37211227416992 413.5865173339844 -15.64668083190918 378.42071533203125 -85.14736938476562 493.3599853515625 C -19.102205276489258 482.93658447265625 49.41694259643555 454.4931640625 66.7215347290039 546.0361328125" stroke-width="48.64684295654297" fill="none" stroke="rgb(0, 0, 0)" stroke-opacity="0.51156586" stroke-linecap="round" stroke-linejoin="round"/>
    <path d="M 453.09478759765625 410.4900817871094 C 360.97308349609375 402.0583801269531 369.9643249511719 422.32769775390625 394.6190490722656 401.79608154296875 C 402.0181579589844 419.86419677734375 388.9339904785156 409.01171875 388.6251220703125 435.92279052734375 C 357.1086730957031 439.1656799316406 343.94232177734375 412.6647033691406 302.51580810546875 408.5333557128906 C 356.4262390136719 444.80462646484375 395.59735107421875 447.19915771484375 228.29920959472656 437.65350341796875" stroke-width="26.497058868408203" fill="none" stroke="rgb(0, 0, 0)" stroke-opacity="0.91637033" stroke-linecap="round" stroke-linejoin="round"/>
    <path d="M 169.92584228515625 447.1821594238281 C 140.27919006347656 444.38714599609375 113.44388580322266 425.7745666503906 82.10745239257812 430.65283203125 C 115.00621795654297 441.2322082519531 82.7030029296875 440.375244140625 99.90962219238281 441.7662048339844 C 100.64933013916016 440.9808044433594 72.0074234008789 410.8575134277344 39.46305847167969 378.1630859375 C 20.631853103637695 382.7657775878906 35.360599517822266 358.91436767578125 51.921112060546875 350.07177734375" stroke-width="-38.117095947265625" fill="none" stroke="rgb(0, 0, 0)" stroke-opacity="0.26885384" stroke-linecap="round" stroke-linejoin="round"/>
    <path d="M 28.389738082885742 611.1339111328125 C -3.160698890686035 624.6557006835938 10.712528228759766 626.774169921875 -18.530345916748047 624.9153442382812 C -2.3144338130950928 620.810791015625 -22.79168128967285 624.5182495117188 -38.48351287841797 597.1380004882812 C -64.56596374511719 601.9367065429688 -41.204559326171875 613.8237915039062 -28.928739547729492 599.9860229492188 C -41.89516067504883 625.1350708007812 -50.87248992919922 647.9546508789062 -34.98701095581055 639.2357177734375" stroke-width="9.370307922363281" fill="none" stroke="rgb(0, 0, 0)" stroke-opacity="0.59455496" stroke-linecap="round" stroke-linejoin="round"/>
    <path d="M 376.1915588378906 427.880126953125 C 530.3396606445312 431.4630126953125 533.3224487304688 432.1746826171875 471.1483154296875 448.88629150390625 C 477.4556579589844 553.8245849609375 422.80810546875 516.2698974609375 415.5000915527344 507.5166931152344 C 561.2264404296875 507.58892822265625 585.2352905273438 510.84552001953125 601.9874267578125 512.55126953125 C 567.96435546875 486.44989013671875 573.748779296875 487.50531005859375 597.873046875 566.2399291992188" stroke-width="27.080150604248047" fill="none" stroke="rgb(0, 0, 0)" stroke-opacity="0.93990976" stroke-linecap="round" stroke-linejoin="round"/>
    <path d="M 421.780517578125 344.7596435546875 C 348.0100402832031 364.2286376953125 325.2953796386719 365.9321594238281 382.00927734375 343.45635986328125 C 477.88653564453125 393.56195068359375 417.1486511230469 313.0743713378906 406.0584716796875 361.3328857421875 C 399.69085693359375 428.649658203125 418.2874755859375 398.3276672363281 341.2862243652344 405.46148681640625 C 365.3320007324219 470.036865234375 362.41973876953125 434.78582763671875 397.4722595214844 397.7290954589844" stroke-width="18.579179763793945" fill="none" stroke="rgb(0, 0, 0)" stroke-opacity="0.9095572" stroke-linecap="round" stroke-linejoin="round"/>
    <path d="M 373.59033203125 499.44757080078125 C 393.07086181640625 505.3267822265625 391.6347351074219 537.0781860351562 355.67010498046875 545.2861938476562 C 352.3054504394531 567.5301513671875 359.8604736328125 552.5158081054688 388.38555908203125 540.5896606445312 C 410.2082824707031 595.7821044921875 389.9263000488281 639.0340576171875 363.0247497558594 686.9760131835938 C 275.3837890625 674.00732421875 302.2242736816406 683.1417846679688 320.8919372558594 662.3394165039062" stroke-width="-35.04428482055664" fill="none" stroke="rgb(0, 0, 0)" stroke-opacity="0.2035412" stroke-linecap="round" stroke-linejoin="round"/>
    <path d="M 596.2887573242188 140.36781311035156 C 642.1278686523438 148.27816772460938 633.7724609375 147.92776489257812 632.919189453125 209.8048095703125 C 596.5889282226562 228.32174682617188 541.1350708007812 209.0845947265625 588.9041748046875 193.9968719482422 C 597.4710693359375 229.0775146484375 578.3237915039062 213.21298217773438 587.8422241210938 213.5558624267578 C 555.903076171875 224.70361328125 583.72607421875 189.38970947265625 552.2537841796875 147.73110961914062" stroke-width="-11.234321594238281" fill="none" stroke="rgb(0, 0, 0)" stroke-opacity="0.3799785" stroke-linecap="round" stroke-linejoin="round"/>
    <path d="M 48.154483795166016 207.4179229736328 C 35.83108901977539 192.83645629882812 38.57249069213867 135.96751403808594 8.173260688781738 107.36316680908203 C 16.028060913085938 244.30740356445312 43.055843353271484 137.16868591308594 -13.123805046081543 154.25491333007812 C 14.110350608825684 203.502197265625 26.103309631347656 237.0198516845703 36.34523391723633 265.3392639160156 C 83.63615417480469 284.5402526855469 90.11738586425781 318.0357971191406 54.85124969482422 327.2076721191406" stroke-width="27.760271072387695" fill="none" stroke="rgb(0, 0, 0)" stroke-opacity="0.40190694" stroke-linecap="round" stroke-linejoin="round"/>
    <path d="M 388.1805114746094 146.04124450683594 C 340.4184265136719 147.4072265625 346.3779296875 138.3832550048828 336.0624084472656 127.05012512207031 C 351.49261474609375 154.8067626953125 384.08502197265625 153.1242218017578 369.61041259765625 139.31739807128906 C 370.4470520019531 162.56170654296875 399.87646484375 84.55826568603516 388.53668212890625 72.62236022949219 C 353.9563293457031 81.51548767089844 378.3087158203125 142.55722045898438 390.1358642578125 17.68541145324707" stroke-width="18.76011085510254" fill="none" stroke="rgb(0, 0, 0)" stroke-opacity="0.22224665" stroke-linecap="round" stroke-linejoin="round"/>
    <path d="M 577.6834106445312 509.4915771484375 C 546.8887329101562 479.9681091308594 537.7639770507812 437.7773742675781 563.7964477539062 491.9874572753906 C 733.0059204101562 492.4219665527344 740.9788208007812 490.4212341308594 736.442626953125 463.5687255859375 C 610.3605346679688 370.325439453125 597.360595703125 380.3161926269531 612.9208374023438 373.962158203125 C 610.1485595703125 382.168701171875 639.6892700195312 397.4391784667969 637.4481201171875 401.80914306640625" stroke-width="-26.398273468017578" fill="none" stroke="rgb(0, 0, 0)" stroke-opacity="0.28633964" stroke-linecap="round" stroke-linejoin="round"/>
    <path d="M 438.0837097167969 137.41580200195312 C 437.0592041015625 140.2216033935547 434.2666015625 143.075439453125 481.9737854003906 88.29553985595703 C 451.0513916015625 79.43138885498047 458.0931701660156 73.21605682373047 505.088623046875 100.0110092163086 C 483.6214599609375 116.30764770507812 496.45635986328125 103.3221435546875 478.2884826660156 125.55558776855469 C 456.2718200683594 104.68095397949219 454.30682373046875 109.56377410888672 500.9281005859375 102.17190551757812" stroke-width="-27.254005432128906" fill="none" stroke="rgb(0, 0, 0)" stroke-opacity="0.66564566" stroke-linecap="round" stroke-linejoin="round"/>
    <path d="M 452.62982177734375 37.5256233215332 C 451.7842712402344 29.564682006835938 441.6653747558594 -8.21113109588623 503.4942932128906 -16.264448165893555 C 535.4451904296875 36.13418197631836 505.0537109375 86.38356018066406 459.3393859863281 46.02930450439453 C 447.6601257324219 25.558488845825195 481.8778076171875 39.2531623840332 494.457275390625 76.15901947021484 C 471.3769836425781 105.39439392089844 512.0120849609375 106.86123657226562 552.0294189453125 100.73100280761719" stroke-width="-12.984792709350586" fill="none" stroke="rgb(0, 0, 0)" stroke-opacity="0.13510525" stroke-linecap="round" stroke-linejoin="round"/>
    <path d="M 302.29974365234375 278.787353515625 C 323.8960266113281 285.7029113769531 366.88006591796875 253.9374542236328 378.7673034667969 215.9287109375 C 422.87615966796875 276.8845520019531 417.4781494140625 331.92169189453125 410.27142333984375 258.3044738769531 C 461.9586486816406 293.5439453125 443.0839538574219 272.7430114746094 424.43035888671875 320.55419921875 C 385.5799255371094 340.4211730957031 371.1470031738281 330.01763916015625 296.4318542480469 359.8180236816406" stroke-width="41.37743377685547" fill="none" stroke="rgb(0, 0, 0)" stroke-opacity="0.85033214" stroke-linecap="round" stroke-linejoin="round"/>
    <path d="M 137.6483154296875 414.7401428222656 C 109.87781524658203 390.37957763671875 88.8244857788086 385.9630432128906 98.20622253417969 398.0219421386719 C 73.01553344726562 404.87359619140625 84.02179718017578 377.43890380859375 69.21965026855469 364.9474792480469 C 60.07950210571289 339.42047119140625 24.77486801147461 336.46820068359375 106.14486694335938 271.7652282714844 C 149.8030548095703 248.0172576904297 107.02294921875 295.95477294921875 84.19750213623047 341.9029235839844" stroke-width="-54.14289093017578" fill="none" stroke="rgb(0, 0, 0)" stroke-opacity="0.88657194" stroke-linecap="round" stroke-linejoin="round"/>
    <path d="M 526.23388671875 520.64892578125 C 533.0723876953125 553.8010864257812 522.438720703125 515.6672973632812 527.173095703125 500.60272216796875 C 497.79522705078125 524.9675903320312 492.56060791015625 495.7610778808594 509.0198669433594 515.4559326171875 C 467.7367248535156 537.9578857421875 443.7082824707031 497.68951416015625 574.2955932617188 518.6932983398438 C 560.0518188476562 530.1088256835938 499.0414123535156 532.63671875 483.03643798828125 490.2873229980469" stroke-width="18.10822296142578" fill="none" stroke="rgb(0, 0, 0)" stroke-opacity="0.016067302" stroke-linecap="round" stroke-linejoin="round"/>
    <path d="M 561.1743774414062 119.17192840576172 C 573.2952270507812 137.45138549804688 559.9317016601562 141.9313507080078 556.44091796875 148.3682861328125 C 514.9585571289062 141.37852478027344 509.9991149902344 154.94151306152344 533.3051147460938 178.2283172607422 C 559.170166015625 161.94207763671875 555.2799072265625 140.4456787109375 610.9771728515625 142.66070556640625 C 585.2329711914062 167.42054748535156 548.4473266601562 136.0066680908203 524.9417114257812 136.93116760253906" stroke-width="-8.488351821899414" fill="none" stroke="rgb(0, 0, 0)" stroke-opacity="0.35082418" stroke-linecap="round" stroke-linejoin="round"/>
    <path d="M 176.3184814453125 231.46034240722656 C 173.47117614746094 260.3178405761719 189.1622314453125 275.5574951171875 164.59034729003906 313.7746887207031 C 138.1075897216797 254.8949432373047 159.6674346923828 267.6426086425781 156.24908447265625 322.3171081542969 C 143.45977783203125 299.57171630859375 170.7073516845703 317.71954345703125 175.3960418701172 257.12042236328125 C 181.48023986816406 266.2480163574219 224.80734252929688 327.71649169921875 237.48416137695312 345.8702392578125" stroke-width="-34.89582824707031" fill="none" stroke="rgb(0, 0, 0)" stroke-opacity="0.75848794" stroke-linecap="round" stroke-linejoin="round"/>
    <path d="M -15.17000675201416 482.4610290527344 C -20.32038688659668 488.7265930175781 -26.70914649963379 470.00750732421875 -48.338592529296875 460.2375183105469 C -15.626208305358887 430.7715759277344 -27.235980987548828 438.75164794921875 -24.58576202392578 506.55499267578125 C 15.860560417175293 491.8532409667969 61.61913299560547 471.5684509277344 52.87507629394531 500.7032775878906 C 74.42913818359375 537.5156860351562 52.760196685791016 539.3507080078125 -39.37069320678711 530.9373779296875" stroke-width="48.406253814697266" fill="none" stroke="rgb(0, 0, 0)" stroke-opacity="0.27059606" stroke-linecap="round" stroke-linejoin="round"/>
    <path d="M 536.3257446289062 48.31471252441406 C 578.191650390625 29.59749984741211 598.8395385742188 3.9245872497558594 566.7510375976562 20.373428344726562 C 543.8638305664062 29.99241828918457 547.0940551757812 56.46696853637695 519.5867919921875 58.259727478027344 C 534.0272827148438 50.404998779296875 513.9183959960938 70.89303588867188 514.9078979492188 67.70980072021484 C 545.9481811523438 35.71489715576172 601.0341796875 23.12404441833496 563.2149658203125 4.546915054321289" stroke-width="2.9501702785491943" fill="none" stroke="rgb(0, 0, 0)" stroke-opacity="0.21651472" stroke-linecap="round" stroke-linejoin="round"/>
    <path d="M 178.9557342529297 489.8083801269531 C 305.610595703125 482.1935729980469 282.0420837402344 539.976806640625 287.052978515625 442.2709655761719 C 251.55029296875 439.6747131347656 289.38214111328125 406.73455810546875 288.7726745605469 456.9956359863281 C 242.04498291015625 453.9110107421875 217.4735565185547 434.7098083496094 216.99742126464844 426.8067932128906 C 302.1678161621094 452.79888916015625 338.77166748046875 395.9877624511719 247.15176391601562 432.3775939941406" stroke-width="12.428289413452148" fill="none" stroke="rgb(0, 0, 0)" stroke-opacity="0.6971462" stroke-linecap="round" stroke-linejoin="round"/>
    <path d="M 381.095703125 109.67250061035156 C 376.3661804199219 296.1524658203125 357.1659240722656 287.974609375 325.0958251953125 265.1677551269531 C 359.75390625 258.350830078125 371.7469787597656 205.8036651611328 406.6894226074219 253.02540588378906 C 365.9676208496094 198.03424072265625 399.8310546875 166.26661682128906 350.2634582519531 253.38034057617188 C 363.7288513183594 254.60467529296875 432.3066101074219 295.0075378417969 493.9889831542969 281.1435852050781" stroke-width="30.792316436767578" fill="none" stroke="rgb(0, 0, 0)" stroke-opacity="0.7490053" stroke-linecap="round" stroke-linejoin="round"/>
    <path d="M 544.6317749023438 544.37060546875 C 517.7180786132812 597.4925537109375 509.5837707519531 568.117919921875 501.4377136230469 544.0987548828125 C 553.599609375 496.7613525390625 615.2379150390625 506.9171447753906 643.745849609375 505.0695495605469 C 560.7136840820312 542.4901123046875 570.4827270507812 557.955810546875 563.4413452148438 505.4101257324219 C 547.9609985351562 582.5357055664062 566.82861328125 562.8644409179688 608.1453857421875 548.326171875" stroke-width="34.93690872192383" fill="none" stroke="rgb(0, 0, 0)" stroke-opacity="0.57716644" stroke-linecap="round" stroke-linejoin="round"/>
    <path d="M 516.9169311523438 353.81195068359375 C 530.1309814453125 353.57562255859375 492.91839599609375 350.4229431152344 373.0597839355469 350.8857727050781 C 489.7994384765625 381.6585998535156 504.38348388671875 358.6766662597656 511.92181396484375 353.24871826171875 C 522.59619140625 344.7333068847656 458.5645751953125 374.07708740234375 413.83160400390625 348.6291198730469 C 416.844482421875 342.0041809082031 389.6720275878906 364.3750915527344 430.7071838378906 385.0334777832031" stroke-width="12.8766450881958" fill="none" stroke="rgb(0, 0, 0)" stroke-opacity="0.53803885" stroke-linecap="round" stroke-linejoin="round"/>
    <path d="M 123.35432434082031 375.11590576171875 C 131.55589294433594 396.2174072265625 117.32913970947266 421.7101745605469 133.8007049560547 437.1593933105469 C 123.25616455078125 424.3907775878906 124.35002899169922 411.6121520996094 132.5108184814453 437.9253845214844 C 132.533447265625 485.0458984375 137.80593872070312 460.85394287109375 132.53138732910156 456.9587097167969 C 118.66548919677734 503.4482421875 167.9708709716797 483.8763732910156 202.2039794921875 565.3286743164062" stroke-width="15.3838472366333" fill="none" stroke="rgb(0, 0, 0)" stroke-opacity="0.4805838" stroke-linecap="round" stroke-linejoin="round"/>
    <path d="M 53.77409744262695 10.90900993347168 C 73.17936706542969 85.35308837890625 22.110157012939453 83.66912078857422 18.148208618164062 23.389720916748047 C 71.05448913574219 15.810028076171875 59.4898796081543 -15.514751434326172 10.56050968170166 -73.01653289794922 C 10.639009475708008 -21.72461700439453 -15.060208320617676 -29.48626708984375 47.4520378112793 -20.485118865966797 C 32.444183349609375 -17.021968841552734 17.6181697845459 -38.90264892578125 16.32066535949707 -45.55922317504883" stroke-width="40.61271667480469" fill="none" stroke="rgb(0, 0, 0)" stroke-opacity="0.367902" stroke-linecap="round" stroke-linejoin="round"/>
    <path d="M 233.63870239257812 121.91880798339844 C 212.44667053222656 144.6458740234375 209.71473693847656 143.6281280517578 199.99664306640625 117.38420867919922 C 276.8398132324219 71.54974365234375 286.66131591796875 79.64400482177734 212.7407989501953 91.85136413574219 C 195.34613037109375 30.84627914428711 221.60276794433594 1.6946098804473877 227.88583374023438 87.25899505615234 C 278.14208984375 60.895225524902344 272.3354797363281 91.83050537109375 279.43170166015625 66.53009796142578" stroke-width="28.363603591918945" fill="none" stroke="rgb(0, 0, 0)" stroke-opacity="0.34892482" stroke-linecap="round" stroke-linejoin="round"/>
    <path d="M 123.26642608642578 503.96331787109375 C 238.94456481933594 507.4206848144531 318.5255126953125 507.69891357421875 282.60009765625 451.5334167480469 C 184.40357971191406 418.2157897949219 227.32215881347656 440.6348876953125 312.4443359375 448.13946533203125 C 341.0417175292969 389.9349060058594 388.9007568359375 391.48138427734375 403.3404846191406 436.5096435546875 C 281.9814453125 458.62530517578125 245.186767578125 419.034912109375 330.3424377441406 406.2568054199219" stroke-width="19.097454071044922" fill="none" stroke="rgb(0, 0, 0)" stroke-opacity="0.52052015" stroke-linecap="round" stroke-linejoin="round"/>
    <path d="M 374.53668212890625 260.4591369628906 C 249.37159729003906 277.01531982421875 240.41432189941406 261.5948181152344 282.9983215332031 284.0096740722656 C 327.195556640625 303.6455383300781 326.2731628417969 304.19873046875 303.5921630859375 283.7092590332031 C 221.51776123046875 255.5777130126953 248.9442901611328 263.46368408203125 266.2872009277344 271.64263916015625 C 276.3826904296875 281.7808532714844 261.1980895996094 255.4571990966797 322.46673583984375 277.07366943359375" stroke-width="13.041130065917969" fill="none" stroke="rgb(0, 0, 0)" stroke-opacity="0.78717715" stroke-linecap="round" stroke-linejoin="round"/>
    <path d="M 87.92279815673828 206.45263671875 C 85.08636474609375 192.38706970214844 82.49815368652344 218.5431365966797 87.88186645507812 221.88897705078125 C 96.20366668701172 225.47991943359375 104.21597290039062 252.47682189941406 81.21812438964844 203.40914916992188 C 38.31467056274414 220.63375854492188 45.01656723022461 227.4544219970703 75.13235473632812 218.7293243408203 C 103.71089935302734 243.6172637939453 102.21600341796875 232.16775512695312 116.68095397949219 199.36822509765625" stroke-width="-4.740133285522461" fill="none" stroke="rgb(0, 0, 0)" stroke-opacity="0.5941858" stroke-linecap="round" stroke-linejoin="round"/>
    <path d="M 526.23388671875 520.64892578125 C 533.0723876953125 553.8010864257812 522.438720703125 515.6672973632812 527.173095703125 500.60272216796875 C 497.79522705078125 524.9675903320312 492.56060791015625 495.7610778808594 509.0198669433594 515.4559326171875 C 467.7367248535156 537.9578857421875 443.7082824707031 497.68951416015625 574.2955932617188 518.6932983398438 C 560.0518188476562 530.1088256835938 499.0414123535156 532.63671875 483.03643798828125 490.2873229980469" stroke-width="18.10822296142578" fill="none" stroke="rgb(0, 0, 0)" stroke-opacity="0.99087864" stroke-linecap="round" stroke-linejoin="round"/>
    <path d="M 487.7995300292969 297.5308532714844 C 548.9971313476562 285.2635498046875 663.0350341796875 251.7736358642578 654.300048828125 545.702392578125 C 323.6336669921875 548.0059814453125 355.468505859375 470.4122619628906 400.04339599609375 393.22711181640625 C 543.9321899414062 388.3341064453125 579.3546752929688 375.6040344238281 569.7952270507812 347.9919738769531 C 458.59033203125 343.02862548828125 448.8418273925781 304.3479309082031 457.65289306640625 293.4266357421875" stroke-width="-89.4437255859375" fill="none" stroke="rgb(0, 0, 0)" stroke-opacity="0.36021978" stroke-linecap="round" stroke-linejoin="round"/>
    <path d="M 229.3050079345703 73.38542938232422 C 239.73085021972656 109.36968994140625 235.24392700195312 74.63920593261719 272.8843078613281 49.643592834472656 C 244.92630004882812 65.56370544433594 240.81686401367188 81.65644073486328 239.7748565673828 113.1057357788086 C 249.96339416503906 75.6802978515625 218.85342407226562 68.61575317382812 226.70896911621094 70.89784240722656 C 215.7270965576172 34.16595458984375 220.48863220214844 39.60627365112305 234.07765197753906 93.6476821899414" stroke-width="-0.7588211297988892" fill="none" stroke="rgb(0, 0, 0)" stroke-opacity="0.9384688" stroke-linecap="round" stroke-linejoin="round"/>
    <path d="M 451.59124755859375 125.66187286376953 C 463.1030578613281 99.21382904052734 460.76416015625 104.9257583618164 455.02532958984375 122.41334533691406 C 453.3453674316406 93.24383544921875 453.1462097167969 126.81073760986328 443.0151062011719 158.8276824951172 C 476.9679870605469 155.59036254882812 532.763427734375 149.11239624023438 546.1668701171875 129.97325134277344 C 523.264404296875 117.6470947265625 547.7719116210938 128.38607788085938 581.40673828125 160.94970703125" stroke-width="-7.20027494430542" fill="none" stroke="rgb(0, 0, 0)" stroke-opacity="0.4400255" stroke-linecap="round" stroke-linejoin="round"/>
    <path d="M 479.5869445800781 199.0440216064453 C 492.54461669921875 198.22628784179688 499.0733337402344 208.5897216796875 479.2794189453125 188.29478454589844 C 483.05279541015625 181.8160858154297 471.4486999511719 193.3463592529297 506.8880615234375 170.5645294189453 C 483.3975830078125 195.6652374267578 483.8215637207031 198.74728393554688 483.24560546875 182.5941925048828 C 507.0185241699219 189.48028564453125 490.23681640625 173.1549835205078 485.65850830078125 148.14039611816406" stroke-width="-6.441288948059082" fill="none" stroke="rgb(0, 0, 0)" stroke-opacity="0.076339476" stroke-linecap="round" stroke-linejoin="round"/>
    <path d="M 519.2398681640625 498.376220703125 C 536.5401000976562 522.4024658203125 518.461181640625 578.7809448242188 564.8421020507812 562.095703125 C 538.1245727539062 548.0364990234375 531.8243408203125 560.1883544921875 550.9911499023438 509.15576171875 C 531.5072631835938 534.1234130859375 515.3319702148438 606.5121459960938 559.9022216796875 680.7496948242188 C 651.1004638671875 615.4268798828125 613.208984375 577.142822265625 615.7984619140625 449.3188171386719" stroke-width="-29.67494010925293" fill="none" stroke="rgb(0, 0, 0)" stroke-opacity="0.6229467" stroke-linecap="round" stroke-linejoin="round"/>
    <path d="M 107.20855712890625 371.7093505859375 C 124.46239471435547 361.912841796875 118.76773071289062 403.1256408691406 161.85458374023438 376.6405334472656 C 144.0355682373047 400.69647216796875 122.61573028564453 371.03466796875 136.93032836914062 368.5658874511719 C 148.5142364501953 401.448974609375 119.91729736328125 380.60113525390625 114.53044128417969 360.33837890625 C 140.03793334960938 375.7315979003906 131.98065185546875 350.64404296875 107.11235046386719 333.6150207519531" stroke-width="-19.965164184570312" fill="none" stroke="rgb(0, 0, 0)" stroke-opacity="0.8913026" stroke-linecap="round" stroke-linejoin="round"/>
    <path d="M 148.4043731689453 -16.23188591003418 C 116.0604019165039 -7.334616184234619 129.98133850097656 -4.015445709228516 222.86013793945312 25.75635528564453 C 138.4591064453125 44.27627182006836 137.310546875 9.377876281738281 123.92623901367188 -52.700435638427734 C 108.86760711669922 -35.202938079833984 70.647216796875 24.734954833984375 94.96894073486328 57.415924072265625 C 135.03643798828125 -32.42343521118164 118.0802230834961 -53.29473876953125 132.15032958984375 -74.22982025146484" stroke-width="34.39738082885742" fill="none" stroke="rgb(0, 0, 0)" stroke-opacity="0.7065748" stroke-linecap="round" stroke-linejoin="round"/>
    <path d="M 270.2966003417969 100.49103546142578 C 232.98757934570312 141.6599884033203 207.3961944580078 144.039306640625 201.71885681152344 122.38123321533203 C 181.35861206054688 202.92642211914062 154.64512634277344 236.1709747314453 200.6167449951172 203.60462951660156 C 240.41641235351562 193.0786895751953 226.1444549560547 221.2607879638672 270.1351623535156 190.14776611328125 C 248.25692749023438 190.7388153076172 248.60997009277344 198.37278747558594 237.2633056640625 211.7700653076172" stroke-width="19.357675552368164" fill="none" stroke="rgb(0, 0, 0)" stroke-opacity="0.5182598" stroke-linecap="round" stroke-linejoin="round"/>
    <path d="M 255.56561279296875 339.77825927734375 C 232.04034423828125 312.0786437988281 261.6258850097656 335.7930603027344 320.871826171875 331.1575012207031 C 332.7271728515625 350.3193664550781 310.3232116699219 375.5334167480469 370.97088623046875 316.4495849609375 C 416.7253723144531 283.0736083984375 373.02203369140625 248.5142822265625 332.30059814453125 260.3600769042969 C 234.0878448486328 286.1844787597656 249.04342651367188 256.3422546386719 313.927734375 269.02032470703125" stroke-width="-48.458621978759766" fill="none" stroke="rgb(0, 0, 0)" stroke-opacity="0.371395" stroke-linecap="round" stroke-linejoin="round"/>
    <path d="M 552.4509887695312 141.46151733398438 C 588.3716430664062 155.26937866210938 559.7786865234375 141.04574584960938 464.4292907714844 151.47511291503906 C 524.2813720703125 167.598876953125 593.4466552734375 158.6902313232422 634.3754272460938 233.90939331054688 C 649.6445922851562 288.58599853515625 574.6447143554688 257.1790771484375 548.6390991210938 310.26165771484375 C 534.6212158203125 288.8135070800781 575.080322265625 269.8160095214844 600.7728881835938 254.52137756347656" stroke-width="-10.526498794555664" fill="none" stroke="rgb(0, 0, 0)" stroke-opacity="0.47955677" stroke-linecap="round" stroke-linejoin="round"/>
    <path d="M 402.8249816894531 270.19732666015625 C 284.81781005859375 309.30462646484375 325.7916564941406 269.6177978515625 320.7859191894531 327.3745422363281 C 380.68939208984375 329.3259582519531 382.6456604003906 338.1376953125 447.6543884277344 359.1748046875 C 393.5480041503906 300.505615234375 387.9054260253906 301.2237548828125 361.30303955078125 353.6943054199219 C 370.20135498046875 347.31427001953125 344.39971923828125 383.0774230957031 246.56008911132812 349.14715576171875" stroke-width="19.090906143188477" fill="none" stroke="rgb(0, 0, 0)" stroke-opacity="0.83512855" stroke-linecap="round" stroke-linejoin="round"/>
    <path d="M 339.7301940917969 501.92828369140625 C 401.4464416503906 503.94952392578125 357.4748840332031 502.50604248046875 279.50537109375 519.2456665039062 C 279.8274230957031 507.3204040527344 305.5889587402344 477.9873352050781 426.8723449707031 504.10125732421875 C 359.692138671875 537.7334594726562 318.3953552246094 514.4535522460938 279.26373291015625 515.307861328125 C 313.7634582519531 512.8341674804688 275.400390625 512.1517944335938 288.9436950683594 516.5433959960938" stroke-width="22.385236740112305" fill="none" stroke="rgb(0, 0, 0)" stroke-opacity="0.41514236" stroke-linecap="round" stroke-linejoin="round"/>
    <path d="M 208.88897705078125 180.79588317871094 C 241.69287109375 183.27650451660156 273.6051940917969 163.06875610351562 288.6871337890625 158.0042724609375 C 313.8892822265625 145.8511199951172 319.1583557128906 137.55636596679688 317.23468017578125 137.83558654785156 C 283.7625427246094 165.3845672607422 287.980712890625 156.7528533935547 241.10205078125 171.99862670898438 C 241.03521728515625 187.5750274658203 253.37152099609375 180.48052978515625 248.33148193359375 174.4406280517578" stroke-width="-8.326963424682617" fill="none" stroke="rgb(0, 0, 0)" stroke-opacity="0.47245204" stroke-linecap="round" stroke-linejoin="round"/>
    <path d="M 460.1211242675781 361.729736328125 C 486.6909484863281 352.9180908203125 470.0262145996094 368.1751708984375 416.60107421875 325.69171142578125 C 375.7932434082031 365.6855773925781 450.3575439453125 352.3790283203125 446.3182373046875 385.55267333984375 C 444.3582763671875 375.4070129394531 417.59344482421875 415.3191223144531 425.6149597167969 434.0703430175781 C 406.71417236328125 385.5124816894531 432.02850341796875 407.92645263671875 494.4700012207031 437.6900329589844" stroke-width="32.836700439453125" fill="none" stroke="rgb(0, 0, 0)" stroke-opacity="0.8606828" stroke-linecap="round" stroke-linejoin="round"/>
    <path d="M 438.11993408203125 426.79986572265625 C 524.40625 483.1593017578125 441.8007507324219 501.15673828125 423.9939880371094 481.05023193359375 C 491.045166015625 386.49298095703125 479.8371887207031 403.2391052246094 406.55877685546875 423.0654602050781 C 433.0063781738281 387.46954345703125 399.34185791015625 424.1025085449219 404.4540100097656 413.6090087890625 C 417.70233154296875 422.6549377441406 396.9473876953125 394.77911376953125 404.8446044921875 349.6812438964844" stroke-width="14.240865707397461" fill="none" stroke="rgb(0, 0, 0)" stroke-opacity="0.7503252" stroke-linecap="round" stroke-linejoin="round"/>
    <path d="M 531.2874755859375 431.5111389160156 C 470.16973876953125 446.60101318359375 368.7740783691406 435.5593566894531 424.4595642089844 439.72650146484375 C 419.3802185058594 378.062744140625 427.6863708496094 426.83843994140625 411.66143798828125 494.9910583496094 C 423.4788818359375 487.4300231933594 472.9500732421875 475.7503356933594 422.0445251464844 510.1418762207031 C 410.7044982910156 525.2086181640625 479.19342041015625 486.575927734375 470.22796630859375 548.910888671875" stroke-width="29.952150344848633" fill="none" stroke="rgb(0, 0, 0)" stroke-opacity="0.79057884" stroke-linecap="round" stroke-linejoin="round"/>
    <path d="M 125.3685531616211 331.8870544433594 C 132.6388702392578 265.16357421875 132.92697143554688 267.44195556640625 132.02845764160156 291.5979919433594 C 152.3793182373047 265.4168701171875 162.844970703125 231.2447052001953 184.78041076660156 226.5917510986328 C 166.7366943359375 259.848876953125 168.43734741210938 233.89244079589844 171.04737854003906 214.27154541015625 C 154.3933563232422 236.97508239746094 141.2058868408203 254.72105407714844 149.94747924804688 264.0665588378906" stroke-width="-22.982309341430664" fill="none" stroke="rgb(0, 0, 0)" stroke-opacity="0.8957716" stroke-linecap="round" stroke-linejoin="round"/>
    <path d="M 384.11309814453125 194.98487854003906 C 352.1512756347656 230.73377990722656 368.919677734375 246.9218292236328 312.1679992675781 274.26470947265625 C 271.3486633300781 302.9385070800781 378.205810546875 277.13189697265625 379.35919189453125 278.0865478515625 C 331.694091796875 266.4378967285156 413.9673767089844 266.3732604980469 377.81744384765625 272.60308837890625 C 373.55706787109375 193.5867156982422 405.5486755371094 236.54656982421875 397.49468994140625 241.06785583496094" stroke-width="28.15921401977539" fill="none" stroke="rgb(0, 0, 0)" stroke-opacity="0.7028244" stroke-linecap="round" stroke-linejoin="round"/>
    <path d="M 98.70263671875 537.2716674804688 C 268.224853515625 517.347412109375 248.59605407714844 531.9345703125 289.01611328125 497.7069396972656 C 346.7865905761719 514.9067993164062 330.1847839355469 555.207275390625 241.10630798339844 518.51904296875 C 252.18116760253906 573.7125854492188 275.4250183105469 584.0411987304688 301.4554443359375 542.481689453125 C 305.64154052734375 514.510986328125 324.5106201171875 589.82275390625 321.5889587402344 621.141845703125" stroke-width="38.77850341796875" fill="none" stroke="rgb(0, 0, 0)" stroke-opacity="0.86166245" stroke-linecap="round" stroke-linejoin="round"/>
    <path d="M 449.68377685546875 453.80908203125 C 452.44073486328125 393.0605163574219 459.31494140625 345.1546630859375 443.42431640625 342.017578125 C 493.86126708984375 363.1224060058594 501.51031494140625 360.47467041015625 433.9120178222656 360.9836120605469 C 407.6996765136719 398.1192321777344 392.0270080566406 355.3657531738281 438.7881774902344 332.2129821777344 C 434.0037536621094 313.10888671875 441.76776123046875 340.7854309082031 430.86358642578125 370.12176513671875" stroke-width="26.589067459106445" fill="none" stroke="rgb(0, 0, 0)" stroke-opacity="0.45599625" stroke-linecap="round" stroke-linejoin="round"/>
    <path d="M 385.69427490234375 81.25747680664062 C 270.2467041015625 74.60475158691406 309.5020446777344 33.06486511230469 346.9925231933594 82.1498031616211 C 341.9332580566406 80.41118621826172 354.3522033691406 11.261029243469238 329.2165222167969 -4.406505584716797 C 239.92503356933594 -5.02117919921875 268.07427978515625 32.60246276855469 240.6800537109375 48.91046142578125 C 256.43621826171875 45.140296936035156 287.5020446777344 28.953683853149414 336.10516357421875 29.273775100708008" stroke-width="35.19770050048828" fill="none" stroke="rgb(0, 0, 0)" stroke-opacity="0.34561282" stroke-linecap="round" stroke-linejoin="round"/>
    <path d="M 479.7854309082031 480.1203308105469 C 443.2943420410156 486.48291015625 456.0328369140625 497.11981201171875 419.18878173828125 541.6630859375 C 361.7029724121094 540.7161865234375 364.67840576171875 511.0616455078125 411.2195129394531 644.2743530273438 C 490.830322265625 633.6185302734375 430.26190185546875 559.1199951171875 434.10101318359375 489.59613037109375 C 480.6009216308594 471.73004150390625 440.9051208496094 468.5596008300781 385.0946350097656 485.4772644042969" stroke-width="-29.29435157775879" fill="none" stroke="rgb(0, 0, 0)" stroke-opacity="0.24383654" stroke-linecap="round" stroke-linejoin="round"/>
    <path d="M 526.23388671875 520.64892578125 C 533.0723876953125 553.8010864257812 522.438720703125 515.6672973632812 527.173095703125 500.60272216796875 C 497.79522705078125 524.9675903320312 492.56060791015625 495.7610778808594 509.0198669433594 515.4559326171875 C 467.7367248535156 537.9578857421875 443.7082824707031 497.68951416015625 574.2955932617188 518.6932983398438 C 560.0518188476562 530.1088256835938 499.0414123535156 532.63671875 483.03643798828125 490.2873229980469" stroke-width="18.10822296142578" fill="none" stroke="rgb(0, 0, 0)" stroke-opacity="0.3071414" stroke-linecap="round" stroke-linejoin="round"/>
  </g>
</svg>
