<?xml version="1.0" ?>
<svg xmlns="http://www.w3.org/2000/svg" version="1.1" width="600" height="600">
  <defs/>
  <g>
    <path d="M 215.06527709960938 417.1190490722656 C -15.50902271270752 450.095703125 -36.8292121887207 424.4486083984375 70.82525634765625 455.7240905761719 C 187.51502990722656 397.7979736328125 196.7911834716797 347.86712646484375 111.12545013427734 376.3594970703125 C 35.377967834472656 427.4874572753906 -9.838761329650879 402.5180969238281 -43.478660583496094 460.5904235839844 C -44.09267044067383 483.546142578125 -3.913644790649414 456.974853515625 139.90109252929688 447.510986328125" stroke-width="21.632770538330078" fill="none" stroke="rgb(0, 0, 0)" stroke-opacity="0.63206273" stroke-linecap="round" stroke-linejoin="round"/>
    <path d="M 201.54209899902344 335.03814697265625 C 377.9772033691406 346.6366882324219 364.19183349609375 359.781494140625 378.265625 324.01470947265625 C 226.3313446044922 322.3320617675781 238.87796020507812 296.0579528808594 407.35296630859375 316.6595153808594 C 462.25152587890625 288.2366027832031 440.4620056152344 298.3296813964844 437.8800048828125 290.7701416015625 C 424.9029541015625 300.1177062988281 453.8284606933594 296.104736328125 442.7768859863281 290.7657775878906" stroke-width="14.584299087524414" fill="none" stroke="rgb(0, 0, 0)" stroke-opacity="0.74493355" stroke-linecap="round" stroke-linejoin="round"/>
    <path d="M 254.37445068359375 302.6336364746094 C 172.00387573242188 306.8836669921875 153.846923828125 304.38031005859375 170.57620239257812 269.0953674316406 C 196.7986602783203 235.1462860107422 194.1175079345703 230.64389038085938 301.84320068359375 253.5904083251953 C 351.1722412109375 249.63246154785156 319.8316345214844 243.55386352539062 318.9491271972656 328.1285400390625 C 251.08279418945312 241.93519592285156 255.50637817382812 217.4062042236328 373.0735168457031 285.9134521484375" stroke-width="6.568467140197754" fill="none" stroke="rgb(0, 0, 0)" stroke-opacity="0.8628399" stroke-linecap="round" stroke-linejoin="round"/>
    <path d="M 268.35736083984375 431.2277526855469 C 275.8771667480469 414.1617736816406 295.5765075683594 436.16253662109375 272.876220703125 427.74493408203125 C 209.89930725097656 426.2449951171875 177.9388427734375 422.62603759765625 155.59693908691406 384.5640563964844 C 191.98660278320312 400.502197265625 214.7046661376953 414.0723876953125 264.0933532714844 421.89312744140625 C 216.7510223388672 416.87945556640625 232.32203674316406 416.8615417480469 328.9913635253906 427.0888977050781" stroke-width="21.7001895904541" fill="none" stroke="rgb(0, 0, 0)" stroke-opacity="0.9158337" stroke-linecap="round" stroke-linejoin="round"/>
    <path d="M 50.950172424316406 66.78857421875 C -6.2551445960998535 118.90914916992188 -25.301816940307617 154.00042724609375 -88.06050109863281 93.11803436279297 C -10.329076766967773 5.748270511627197 38.59038543701172 2.6233761310577393 55.75455856323242 -63.265785217285156 C 205.8118133544922 -109.49065399169922 218.5840606689453 -79.79396057128906 254.41522216796875 49.38645935058594 C 175.20787048339844 122.71172332763672 219.493896484375 123.41148376464844 242.82643127441406 64.2328109741211" stroke-width="-67.57179260253906" fill="none" stroke="rgb(0, 0, 0)" stroke-opacity="0.9196122" stroke-linecap="round" stroke-linejoin="round"/>
    <path d="M 209.9468231201172 192.00857543945312 C 283.22161865234375 245.34779357910156 402.9449768066406 207.35765075683594 351.55615234375 233.34356689453125 C 249.5728759765625 239.6389617919922 145.3715057373047 183.47467041015625 328.6168212890625 214.11679077148438 C 461.08868408203125 215.00437927246094 335.8709716796875 193.3255157470703 293.71417236328125 157.92266845703125 C 152.36392211914062 151.2054901123047 155.06590270996094 104.60990142822266 309.3909606933594 150.1156768798828" stroke-width="11.671799659729004" fill="none" stroke="rgb(0, 0, 0)" stroke-opacity="0.97788507" stroke-linecap="round" stroke-linejoin="round"/>
    <path d="M 517.0236206054688 408.00994873046875 C 555.2921142578125 389.59393310546875 544.5072631835938 369.67169189453125 449.3008728027344 445.9315185546875 C 455.0942687988281 502.4203796386719 498.4237976074219 469.2545166015625 565.1630859375 479.1183776855469 C 553.728515625 437.0607604980469 483.35845947265625 467.6285400390625 419.4767761230469 458.13946533203125 C 466.66650390625 474.9750671386719 497.3675537109375 484.0838928222656 485.3009338378906 429.2850341796875" stroke-width="-9.404891014099121" fill="none" stroke="rgb(0, 0, 0)" stroke-opacity="0.16853617" stroke-linecap="round" stroke-linejoin="round"/>
    <path d="M 180.73617553710938 416.56439208984375 C 158.7323455810547 434.9273986816406 190.45928955078125 450.380859375 70.3356704711914 442.4140625 C 124.76535034179688 439.5223693847656 186.99610900878906 397.22607421875 158.42236328125 443.352783203125 C 212.13624572753906 503.2277526855469 161.7913055419922 475.6487121582031 47.17344665527344 484.0426025390625 C 74.44337463378906 457.3533935546875 71.61359405517578 456.8841857910156 27.669336318969727 442.2005615234375" stroke-width="43.03982925415039" fill="none" stroke="rgb(0, 0, 0)" stroke-opacity="0.67772347" stroke-linecap="round" stroke-linejoin="round"/>
    <path d="M 166.41897583007812 250.67628479003906 C 149.71591186523438 265.8039855957031 163.15322875976562 298.3332214355469 195.07583618164062 300.7627258300781 C 173.01486206054688 304.072509765625 187.25665283203125 329.58203125 61.19048309326172 326.0666198730469 C 129.21946716308594 299.4360046386719 165.76260375976562 272.9955749511719 154.03164672851562 257.0992736816406 C 187.60365295410156 349.11834716796875 229.85684204101562 310.6255187988281 170.5269775390625 288.7587585449219" stroke-width="34.675106048583984" fill="none" stroke="rgb(0, 0, 0)" stroke-opacity="0.907666" stroke-linecap="round" stroke-linejoin="round"/>
    <path d="M 47.18438720703125 432.3695068359375 C 144.03126525878906 428.56671142578125 172.20494079589844 394.22247314453125 156.3350372314453 373.35321044921875 C 201.70523071289062 446.42071533203125 197.30760192871094 455.9322204589844 115.57708740234375 432.56915283203125 C 110.87767028808594 383.5791931152344 129.85394287109375 325.304931640625 139.0983123779297 314.1930236816406 C 165.94882202148438 410.1671447753906 194.66432189941406 459.919677734375 149.39138793945312 369.46929931640625" stroke-width="22.133159637451172" fill="none" stroke="rgb(0, 0, 0)" stroke-opacity="0.42695752" stroke-linecap="round" stroke-linejoin="round"/>
    <path d="M 458.2310791015625 493.04986572265625 C 464.89556884765625 506.6877746582031 494.5288391113281 502.47332763671875 438.7629699707031 505.78253173828125 C 451.97698974609375 499.82183837890625 447.4093933105469 519.2777099609375 448.25927734375 473.1268310546875 C 442.95831298828125 453.2670593261719 489.63671875 464.83062744140625 548.5149536132812 455.4245300292969 C 454.7713623046875 438.3264465332031 507.25885009765625 437.20953369140625 519.2163696289062 529.5488891601562" stroke-width="23.504446029663086" fill="none" stroke="rgb(0, 0, 0)" stroke-opacity="0.6823924" stroke-linecap="round" stroke-linejoin="round"/>
    <path d="M 521.4549560546875 386.06561279296875 C 518.5731201171875 410.53179931640625 465.533203125 423.3816223144531 513.3327026367188 406.37017822265625 C 470.04302978515625 427.9694519042969 423.5344543457031 426.4742431640625 503.8367614746094 415.26751708984375 C 457.5030517578125 415.40655517578125 461.89801025390625 419.5704345703125 432.6640625 443.5881042480469 C 467.2690124511719 459.6575012207031 425.4903259277344 442.633056640625 438.1651916503906 456.073974609375" stroke-width="8.940564155578613" fill="none" stroke="rgb(0, 0, 0)" stroke-opacity="0.97171926" stroke-linecap="round" stroke-linejoin="round"/>
    <path d="M 558.0496826171875 468.78082275390625 C 550.539794921875 465.4949951171875 551.0172119140625 446.0513610839844 627.5850219726562 434.1367492675781 C 610.0667114257812 489.803955078125 549.5343627929688 463.8263244628906 526.0106201171875 444.1603088378906 C 515.9681396484375 473.8730773925781 511.3423156738281 478.274658203125 557.1787719726562 470.1113586425781 C 560.8798828125 454.141357421875 492.5736389160156 474.1880798339844 600.3309326171875 476.95806884765625" stroke-width="24.903106689453125" fill="none" stroke="rgb(0, 0, 0)" stroke-opacity="0.8978075" stroke-linecap="round" stroke-linejoin="round"/>
    <path d="M 312.200439453125 321.46893310546875 C 175.1820068359375 293.7830505371094 134.89028930664062 315.3846435546875 219.22512817382812 312.0288391113281 C 184.09396362304688 301.2014465332031 84.15750122070312 321.9606628417969 113.38689422607422 353.48388671875 C 228.46282958984375 332.8658142089844 204.4203338623047 335.6886901855469 158.1061553955078 373.4695739746094 C 182.41720581054688 493.4683837890625 192.8694305419922 425.2871398925781 162.21875 394.6413879394531" stroke-width="27.934642791748047" fill="none" stroke="rgb(0, 0, 0)" stroke-opacity="0.83296484" stroke-linecap="round" stroke-linejoin="round"/>
    <path d="M 336.9560546875 424.4603271484375 C 329.7097473144531 453.66168212890625 327.8011779785156 420.997802734375 289.9365234375 421.9296569824219 C 326.4953308105469 431.3606872558594 318.6832580566406 448.7899169921875 230.1292724609375 415.0047912597656 C 142.30613708496094 392.89154052734375 191.27328491210938 424.4258117675781 247.97808837890625 433.9489440917969 C 248.4735870361328 407.30987548828125 265.1298522949219 421.5915832519531 256.9008483886719 432.05987548828125" stroke-width="19.074817657470703" fill="none" stroke="rgb(0, 0, 0)" stroke-opacity="0.5932466" stroke-linecap="round" stroke-linejoin="round"/>
    <path d="M 249.75389099121094 614.249267578125 C 262.4217529296875 603.1019897460938 286.1840515136719 620.5498046875 289.15753173828125 635.2498779296875 C 281.2998962402344 613.179931640625 281.33367919921875 596.7061157226562 248.71365356445312 625.3497924804688 C 210.68296813964844 613.5382080078125 194.9488983154297 628.6229858398438 180.67166137695312 611.05615234375 C 195.56512451171875 598.3910522460938 176.30247497558594 628.927001953125 151.4720916748047 644.013916015625" stroke-width="5.655765056610107" fill="none" stroke="rgb(0, 0, 0)" stroke-opacity="0.43492454" stroke-linecap="round" stroke-linejoin="round"/>
    <path d="M 579.2084350585938 483.4591979980469 C 567.8193969726562 444.73797607421875 598.8141479492188 435.0295715332031 602.776123046875 501.42132568359375 C 501.1906433105469 484.2086181640625 435.6706848144531 504.4810485839844 454.5398254394531 478.54290771484375 C 552.4833984375 484.3480224609375 539.95654296875 459.8938903808594 513.2159423828125 467.88623046875 C 557.1617431640625 483.0409240722656 573.2706298828125 479.7154235839844 566.59765625 462.20452880859375" stroke-width="23.42190933227539" fill="none" stroke="rgb(0, 0, 0)" stroke-opacity="0.9907558" stroke-linecap="round" stroke-linejoin="round"/>
    <path d="M 38.4903678894043 221.62416076660156 C 11.32894229888916 247.78517150878906 9.593143463134766 243.1754150390625 9.62802505493164 229.43234252929688 C 55.60293960571289 260.6676330566406 86.5086669921875 266.6982421875 53.32178497314453 239.2332000732422 C 70.60627746582031 206.05894470214844 94.92504119873047 208.50743103027344 129.22801208496094 209.01524353027344 C 116.25594329833984 214.9241485595703 102.1268310546875 217.1402587890625 112.70144653320312 213.93875122070312" stroke-width="-23.529714584350586" fill="none" stroke="rgb(0, 0, 0)" stroke-opacity="0.10694588" stroke-linecap="round" stroke-linejoin="round"/>
    <path d="M 486.1710205078125 448.6016845703125 C 532.0595092773438 476.7820739746094 530.0869140625 460.3831481933594 542.0592041015625 411.2591857910156 C 501.0365905761719 383.8333435058594 450.61236572265625 360.25830078125 440.60162353515625 417.9275207519531 C 405.84991455078125 445.9295349121094 402.219482421875 411.96832275390625 386.7382507324219 400.38140869140625 C 449.7065734863281 363.3400573730469 449.6651306152344 379.47894287109375 446.9468994140625 364.55535888671875" stroke-width="-29.993738174438477" fill="none" stroke="rgb(0, 0, 0)" stroke-opacity="0.058690336" stroke-linecap="round" stroke-linejoin="round"/>
    <path d="M 258.1446533203125 78.04750061035156 C 306.9962463378906 109.77151489257812 366.6744689941406 86.80077362060547 345.4486389160156 123.44866943359375 C 347.8991394042969 97.24919891357422 348.40338134765625 105.83625030517578 339.3668212890625 122.30207824707031 C 345.6183166503906 119.22057342529297 333.152099609375 114.65763854980469 302.34173583984375 157.77505493164062 C 305.4141540527344 159.07098388671875 286.6285095214844 169.48829650878906 308.54888916015625 138.85302734375" stroke-width="10.91184139251709" fill="none" stroke="rgb(0, 0, 0)" stroke-opacity="0.2773072" stroke-linecap="round" stroke-linejoin="round"/>
    <path d="M 279.44952392578125 216.47308349609375 C 197.52699279785156 214.5315704345703 192.0064239501953 178.80982971191406 182.96034240722656 201.68991088867188 C 194.92112731933594 244.746826171875 190.06625366210938 261.49090576171875 182.75453186035156 222.5257110595703 C 188.84420776367188 220.5880889892578 226.91824340820312 194.3470458984375 157.02662658691406 206.68356323242188 C 206.2458953857422 196.5303192138672 186.08218383789062 239.46253967285156 80.7893295288086 222.02476501464844" stroke-width="34.6544189453125" fill="none" stroke="rgb(0, 0, 0)" stroke-opacity="0.48077074" stroke-linecap="round" stroke-linejoin="round"/>
    <path d="M 533.9385375976562 436.13494873046875 C 554.8106689453125 439.39239501953125 568.5650634765625 452.97430419921875 609.8132934570312 437.0706787109375 C 627.877197265625 388.2034606933594 623.6160888671875 404.9660339355469 634.2667846679688 427.1410217285156 C 617.5742797851562 430.8622741699219 616.818603515625 408.7403259277344 639.7698364257812 366.39239501953125 C 629.9481201171875 359.2325439453125 576.9544677734375 351.81085205078125 539.4894409179688 359.1416320800781" stroke-width="-12.75796127319336" fill="none" stroke="rgb(0, 0, 0)" stroke-opacity="0.22315392" stroke-linecap="round" stroke-linejoin="round"/>
    <path d="M 157.19558715820312 491.89361572265625 C 146.46588134765625 545.4263305664062 167.76458740234375 516.9711303710938 186.08116149902344 512.2403564453125 C 190.77377319335938 438.5013732910156 175.4787139892578 439.6430969238281 227.70297241210938 449.1975402832031 C 271.34112548828125 443.85333251953125 262.3116760253906 453.8180847167969 265.17901611328125 494.93267822265625 C 237.05006408691406 553.445068359375 248.74461364746094 543.6114501953125 248.23643493652344 544.7998046875" stroke-width="8.469178199768066" fill="none" stroke="rgb(0, 0, 0)" stroke-opacity="0.6828019" stroke-linecap="round" stroke-linejoin="round"/>
    <path d="M 150.05516052246094 349.0111389160156 C 204.9772491455078 348.6337585449219 215.08792114257812 331.91033935546875 197.36671447753906 335.1579284667969 C 206.01913452148438 304.643798828125 177.3011932373047 285.85174560546875 218.75865173339844 297.9477844238281 C 219.10682678222656 310.2762756347656 248.8680877685547 331.7014465332031 290.9261779785156 317.72412109375 C 298.7120361328125 230.1695098876953 284.7103271484375 254.36692810058594 236.32066345214844 243.63232421875" stroke-width="12.087547302246094" fill="none" stroke="rgb(0, 0, 0)" stroke-opacity="0.7083769" stroke-linecap="round" stroke-linejoin="round"/>
    <path d="M 603.7438354492188 494.4455871582031 C 630.3313598632812 469.6190490722656 620.7196655273438 466.77679443359375 584.7302856445312 476.22064208984375 C 563.5997924804688 516.9637451171875 590.2188720703125 512.306884765625 592.302978515625 468.6623840332031 C 698.8624267578125 407.60137939453125 665.8134155273438 410.016357421875 589.0699462890625 399.0344543457031 C 611.47021484375 505.57049560546875 586.5787353515625 564.3734130859375 573.8603515625 532.5430297851562" stroke-width="33.93366241455078" fill="none" stroke="rgb(0, 0, 0)" stroke-opacity="0.1405786" stroke-linecap="round" stroke-linejoin="round"/>
    <path d="M 576.7683715820312 156.19601440429688 C 555.0563354492188 157.0613250732422 551.9376220703125 176.5498504638672 564.65234375 161.05287170410156 C 548.4188842773438 195.46083068847656 550.7322998046875 204.21878051757812 574.1243286132812 229.59274291992188 C 550.070556640625 236.00770568847656 559.2726440429688 231.42454528808594 573.0225830078125 275.2438049316406 C 618.401611328125 291.3694763183594 632.3034057617188 253.95265197753906 674.0382690429688 251.7528076171875" stroke-width="-29.83017921447754" fill="none" stroke="rgb(0, 0, 0)" stroke-opacity="0.5864631" stroke-linecap="round" stroke-linejoin="round"/>
    <path d="M 289.94268798828125 465.3424072265625 C 201.59518432617188 474.6208190917969 160.21217346191406 471.8036804199219 184.57733154296875 519.0216674804688 C 265.3836364746094 481.408447265625 327.8854675292969 469.20123291015625 307.3520812988281 494.4882507324219 C 301.1398620605469 517.6102905273438 237.02505493164062 522.2224731445312 204.22616577148438 561.5022583007812 C 221.5311279296875 577.086669921875 247.24864196777344 570.7681274414062 235.49960327148438 560.6854248046875" stroke-width="-20.7450008392334" fill="none" stroke="rgb(0, 0, 0)" stroke-opacity="0.08773909" stroke-linecap="round" stroke-linejoin="round"/>
    <path d="M 333.861083984375 441.0954284667969 C 219.11647033691406 412.21142578125 271.16217041015625 420.4869689941406 406.29522705078125 425.14605712890625 C 396.33795166015625 426.13800048828125 414.2798156738281 427.3500061035156 464.00225830078125 423.4945373535156 C 421.39373779296875 450.6722717285156 381.7037048339844 436.1493835449219 301.00482177734375 436.5205078125 C 357.2801818847656 419.0195007324219 340.4046936035156 423.4607849121094 341.63299560546875 431.7065734863281" stroke-width="18.929851531982422" fill="none" stroke="rgb(0, 0, 0)" stroke-opacity="0.95680434" stroke-linecap="round" stroke-linejoin="round"/>
    <path d="M 0.6348322033882141 452.3179016113281 C 80.54624938964844 470.62677001953125 113.39241027832031 476.2405700683594 103.07068634033203 461.5995178222656 C 22.858566284179688 448.8752746582031 93.18189239501953 413.8421325683594 127.6210708618164 437.58734130859375 C 157.39718627929688 434.77886962890625 83.00123596191406 427.85101318359375 111.0431137084961 467.9328918457031 C 108.27604675292969 463.1087646484375 112.65595245361328 468.3091735839844 79.325927734375 402.6013488769531" stroke-width="-21.028079986572266" fill="none" stroke="rgb(0, 0, 0)" stroke-opacity="0.27479765" stroke-linecap="round" stroke-linejoin="round"/>
    <path d="M 376.5951232910156 323.9972839355469 C 200.77032470703125 308.5824890136719 207.20819091796875 307.4737243652344 231.5255126953125 315.6832580566406 C 213.9305419921875 298.5788879394531 193.3484344482422 322.0679931640625 171.77099609375 323.86810302734375 C 119.46025848388672 330.258544921875 190.6561279296875 312.492431640625 177.06805419921875 275.2359619140625 C 174.73489379882812 264.5796203613281 171.73098754882812 299.6912841796875 174.7839813232422 164.6722869873047" stroke-width="29.811613082885742" fill="none" stroke="rgb(0, 0, 0)" stroke-opacity="0.8250045" stroke-linecap="round" stroke-linejoin="round"/>
    <path d="M 148.15475463867188 187.62152099609375 C 181.5922393798828 173.03317260742188 160.65235900878906 162.75680541992188 171.60455322265625 236.74693298339844 C 158.1129608154297 259.11480712890625 126.09331512451172 254.91387939453125 133.83450317382812 280.4720764160156 C 193.2659912109375 241.4442138671875 206.4091033935547 220.66839599609375 242.82981872558594 248.2802276611328 C 194.52305603027344 270.80322265625 181.87921142578125 234.2483673095703 194.04998779296875 214.3433074951172" stroke-width="-28.249242782592773" fill="none" stroke="rgb(0, 0, 0)" stroke-opacity="0.9802602" stroke-linecap="round" stroke-linejoin="round"/>
    <path d="M 129.21681213378906 518.7945556640625 C 64.40489959716797 498.3154602050781 49.16086196899414 513.462890625 61.88962936401367 491.4918212890625 C 46.48394775390625 409.3289794921875 58.1217041015625 396.06329345703125 110.80778503417969 393.1850280761719 C 107.41929626464844 440.8749694824219 109.70471954345703 518.2877807617188 103.41281127929688 494.75933837890625 C 98.06146240234375 496.9644470214844 163.20895385742188 515.4075927734375 171.10366821289062 512.5052490234375" stroke-width="14.084881782531738" fill="none" stroke="rgb(0, 0, 0)" stroke-opacity="0.36637467" stroke-linecap="round" stroke-linejoin="round"/>
    <path d="M 239.09255981445312 46.135189056396484 C 198.85142517089844 31.94430923461914 230.5530548095703 50.966697692871094 276.5433654785156 85.93009185791016 C 266.3575744628906 68.65760803222656 203.46347045898438 67.06080627441406 231.8971710205078 16.161666870117188 C 235.9124298095703 62.520477294921875 197.38006591796875 82.32786560058594 192.11436462402344 88.19882202148438 C 185.64346313476562 115.47681427001953 138.32919311523438 124.95475769042969 131.57359313964844 132.06588745117188" stroke-width="-25.146329879760742" fill="none" stroke="rgb(0, 0, 0)" stroke-opacity="0.56948423" stroke-linecap="round" stroke-linejoin="round"/>
    <path d="M 316.4066467285156 132.34652709960938 C 208.67108154296875 110.52771759033203 204.44564819335938 105.42049407958984 196.9673614501953 83.61408996582031 C 202.58018493652344 134.4987030029297 184.8367919921875 104.01338958740234 207.00852966308594 71.37721252441406 C 202.25672912597656 65.4337158203125 185.27928161621094 96.89973449707031 196.95401000976562 101.51580047607422 C 193.2458953857422 99.82844543457031 163.08828735351562 157.89508056640625 110.31466674804688 141.42715454101562" stroke-width="37.0257568359375" fill="none" stroke="rgb(0, 0, 0)" stroke-opacity="0.72634983" stroke-linecap="round" stroke-linejoin="round"/>
    <path d="M 534.2689819335938 35.52888107299805 C 536.1508178710938 32.26780319213867 541.58984375 -3.0234787464141846 531.5686645507812 -29.600915908813477 C 522.705078125 -53.96794891357422 515.4586181640625 -76.7734375 554.2317504882812 -67.4962158203125 C 578.6266479492188 -43.49542999267578 589.8085327148438 -64.43101501464844 616.4671020507812 -92.18285369873047 C 645.110107421875 -77.03986358642578 668.5733642578125 -76.76660919189453 656.9046630859375 -92.69661712646484" stroke-width="38.2891960144043" fill="none" stroke="rgb(0, 0, 0)" stroke-opacity="0.26589566" stroke-linecap="round" stroke-linejoin="round"/>
    <path d="M 130.70166015625 151.6791534423828 C 138.97341918945312 141.63278198242188 166.66537475585938 118.54145812988281 221.35699462890625 46.16874694824219 C 219.91464233398438 -16.88421630859375 218.47601318359375 -31.287477493286133 185.21185302734375 -50.619083404541016 C 139.97149658203125 -17.20682144165039 172.0881805419922 -23.895158767700195 154.97882080078125 -56.713130950927734 C 137.29019165039062 -34.12577819824219 174.53297424316406 -4.808027744293213 179.26219177246094 7.7650556564331055" stroke-width="-27.07359504699707" fill="none" stroke="rgb(0, 0, 0)" stroke-opacity="0.18955599" stroke-linecap="round" stroke-linejoin="round"/>
    <path d="M 299.2231140136719 315.2367248535156 C 515.0362548828125 316.328125 444.0431823730469 302.5973815917969 330.04364013671875 272.8920593261719 C 322.20013427734375 233.04840087890625 357.0888671875 236.2218780517578 347.9004211425781 231.6309356689453 C 302.0560302734375 271.50042724609375 300.25018310546875 244.11746215820312 331.9808044433594 221.13771057128906 C 403.349609375 233.2196807861328 349.0305480957031 181.4811553955078 318.17864990234375 240.18458557128906" stroke-width="14.205707550048828" fill="none" stroke="rgb(0, 0, 0)" stroke-opacity="0.3175671" stroke-linecap="round" stroke-linejoin="round"/>
    <path d="M 149.94491577148438 201.00790405273438 C 184.73135375976562 202.6474151611328 169.2489776611328 110.54719543457031 175.25149536132812 165.36294555664062 C 234.7403106689453 235.58242797851562 248.3171844482422 203.85958862304688 200.85206604003906 222.52694702148438 C 197.96441650390625 246.70327758789062 212.81375122070312 221.76992797851562 164.75265502929688 266.52752685546875 C 211.62542724609375 322.0707702636719 182.46636962890625 343.4476623535156 140.19000244140625 313.06439208984375" stroke-width="13.024516105651855" fill="none" stroke="rgb(0, 0, 0)" stroke-opacity="0.87457526" stroke-linecap="round" stroke-linejoin="round"/>
    <path d="M 113.79560852050781 241.68824768066406 C 116.39546966552734 227.3753662109375 127.744384765625 215.71156311035156 110.52667236328125 207.96522521972656 C 145.95687866210938 205.3608856201172 109.15213012695312 200.55279541015625 123.85114288330078 293.55462646484375 C 141.03842163085938 291.6847839355469 87.23294830322266 303.51202392578125 74.73807525634766 314.8436584472656 C 59.04496383666992 333.2627868652344 110.95433044433594 325.9994812011719 245.79331970214844 314.5315856933594" stroke-width="-7.597257137298584" fill="none" stroke="rgb(0, 0, 0)" stroke-opacity="0.6305832" stroke-linecap="round" stroke-linejoin="round"/>
    <path d="M 594.3062744140625 225.82041931152344 C 621.3050537109375 163.33486938476562 628.8703002929688 103.07241821289062 540.3679809570312 119.531494140625 C 442.50286865234375 263.96466064453125 419.3961486816406 332.6709899902344 499.87567138671875 341.76971435546875 C 601.6636962890625 267.51605224609375 569.78466796875 293.116455078125 510.1557922363281 348.21624755859375 C 532.5515747070312 336.62994384765625 549.8585205078125 284.0438232421875 560.9230346679688 283.9808044433594" stroke-width="-69.66993713378906" fill="none" stroke="rgb(0, 0, 0)" stroke-opacity="0.7194304" stroke-linecap="round" stroke-linejoin="round"/>
    <path d="M 60.74385452270508 496.0452575683594 C 80.20588684082031 539.559326171875 89.35977935791016 522.5029296875 133.28147888183594 522.7926025390625 C 100.44894409179688 553.0245971679688 41.81399917602539 557.777099609375 122.7151870727539 543.3096313476562 C 130.26351928710938 518.9281005859375 67.36869812011719 548.5722045898438 79.68526458740234 517.3941040039062 C 50.412532806396484 396.8248596191406 54.9222297668457 406.4983825683594 41.755348205566406 425.6846618652344" stroke-width="22.193805694580078" fill="none" stroke="rgb(0, 0, 0)" stroke-opacity="0.28462705" stroke-linecap="round" stroke-linejoin="round"/>
    <path d="M 351.0382385253906 110.15059661865234 C 357.75079345703125 94.12687683105469 355.935791015625 109.79637908935547 315.4413146972656 134.3948516845703 C 360.69232177734375 106.3410873413086 368.1117858886719 95.5314712524414 356.79266357421875 104.90609741210938 C 360.13214111328125 110.05147552490234 327.1860046386719 111.26032257080078 344.55999755859375 110.38475799560547 C 339.66156005859375 126.8681411743164 332.65252685546875 146.67160034179688 180.038818359375 97.50051879882812" stroke-width="27.74201774597168" fill="none" stroke="rgb(0, 0, 0)" stroke-opacity="0.9635503" stroke-linecap="round" stroke-linejoin="round"/>
    <path d="M 215.06527709960938 417.1190490722656 C -15.50902271270752 450.095703125 -36.8292121887207 424.4486083984375 70.82525634765625 455.7240905761719 C 187.51502990722656 397.7979736328125 196.7911834716797 347.86712646484375 111.12545013427734 376.3594970703125 C 35.377967834472656 427.4874572753906 -9.838761329650879 402.5180969238281 -43.478660583496094 460.5904235839844 C -44.09267044067383 483.546142578125 -3.913644790649414 456.974853515625 139.90109252929688 447.510986328125" stroke-width="21.632770538330078" fill="none" stroke="rgb(0, 0, 0)" stroke-opacity="0.65019614" stroke-linecap="round" stroke-linejoin="round"/>
    <path d="M 434.32647705078125 514.0287475585938 C 473.54400634765625 539.4029541015625 481.28961181640625 530.97509765625 409.7623291015625 526.9888305664062 C 400.9985656738281 527.7279052734375 403.900634765625 481.3866271972656 407.7735595703125 516.1522827148438 C 417.890380859375 500.3001708984375 418.4974670410156 518.950927734375 419.9122314453125 514.033203125 C 422.9681091308594 551.6085205078125 399.04290771484375 526.7529296875 392.1382751464844 450.49395751953125" stroke-width="14.089125633239746" fill="none" stroke="rgb(0, 0, 0)" stroke-opacity="0.29882833" stroke-linecap="round" stroke-linejoin="round"/>
    <path d="M 49.043846130371094 328.6285095214844 C 92.0916976928711 345.6333923339844 156.58522033691406 357.52301025390625 122.94474029541016 392.69134521484375 C 73.63309478759766 406.2017517089844 145.09422302246094 408.3976745605469 155.8037567138672 327.5699462890625 C 85.87459564208984 304.5036926269531 52.622467041015625 335.1845397949219 25.15895652770996 309.3971252441406 C 29.037822723388672 320.3429260253906 31.9478816986084 342.1278381347656 85.17228698730469 312.064208984375" stroke-width="10.745858192443848" fill="none" stroke="rgb(0, 0, 0)" stroke-opacity="0.694453" stroke-linecap="round" stroke-linejoin="round"/>
    <path d="M 66.25505828857422 119.89708709716797 C 91.42232513427734 129.029052734375 128.88211059570312 111.4124755859375 123.6082992553711 104.37345123291016 C 129.68414306640625 115.7072982788086 148.8868865966797 101.5226821899414 158.7675323486328 136.79129028320312 C 121.85360717773438 170.3278350830078 161.40553283691406 154.1609344482422 207.9897918701172 191.36471557617188 C 182.57659912109375 212.25103759765625 160.7443389892578 242.0806427001953 190.19728088378906 192.353515625" stroke-width="-33.699581146240234" fill="none" stroke="rgb(0, 0, 0)" stroke-opacity="0.62992555" stroke-linecap="round" stroke-linejoin="round"/>
    <path d="M 446.48260498046875 312.7598876953125 C 492.7093200683594 320.30548095703125 519.893798828125 295.4906921386719 533.6456298828125 288.5596618652344 C 499.17510986328125 323.1087341308594 489.1183776855469 323.7455749511719 438.23291015625 279.4287414550781 C 460.13653564453125 266.38232421875 466.0364074707031 247.85885620117188 529.4502563476562 190.2652130126953 C 524.7960815429688 192.5066375732422 508.77899169921875 231.686767578125 479.3542175292969 264.076171875" stroke-width="-55.68616485595703" fill="none" stroke="rgb(0, 0, 0)" stroke-opacity="0.59248054" stroke-linecap="round" stroke-linejoin="round"/>
    <path d="M 227.7277374267578 5.854887008666992 C 204.09104919433594 58.1973991394043 200.19190979003906 61.266014099121094 245.916259765625 60.92597961425781 C 271.9050598144531 88.6261215209961 264.1921081542969 77.76284790039062 251.4674530029297 63.341766357421875 C 242.8467559814453 57.16022872924805 243.4977569580078 79.11685943603516 309.05126953125 101.48981475830078 C 383.0531005859375 97.54894256591797 352.2868347167969 106.70747375488281 285.37432861328125 89.15607452392578" stroke-width="9.282934188842773" fill="none" stroke="rgb(0, 0, 0)" stroke-opacity="0.16890344" stroke-linecap="round" stroke-linejoin="round"/>
    <path d="M 84.12959289550781 287.3029479980469 C 108.51097106933594 292.74237060546875 102.99150085449219 286.8442077636719 78.66093444824219 311.7635498046875 C 96.9498291015625 330.1423034667969 92.8680191040039 356.21966552734375 -16.96286392211914 323.17059326171875 C -53.64472579956055 412.0039978027344 -31.637462615966797 484.845703125 196.86825561523438 423.0372009277344 C 142.52284240722656 303.8304443359375 31.413419723510742 312.9635314941406 6.255419731140137 293.0581359863281" stroke-width="-52.91713333129883" fill="none" stroke="rgb(0, 0, 0)" stroke-opacity="0.93483293" stroke-linecap="round" stroke-linejoin="round"/>
    <path d="M 215.06527709960938 417.1190490722656 C -15.50902271270752 450.095703125 -36.8292121887207 424.4486083984375 70.82525634765625 455.7240905761719 C 187.51502990722656 397.7979736328125 196.7911834716797 347.86712646484375 111.12545013427734 376.3594970703125 C 35.377967834472656 427.4874572753906 -9.838761329650879 402.5180969238281 -43.478660583496094 460.5904235839844 C -44.09267044067383 483.546142578125 -3.913644790649414 456.974853515625 139.90109252929688 447.510986328125" stroke-width="21.632770538330078" fill="none" stroke="rgb(0, 0, 0)" stroke-opacity="0.8674255" stroke-linecap="round" stroke-linejoin="round"/>
    <path d="M 34.36906051635742 504.8551940917969 C -2.5722734928131104 486.4793701171875 2.275261640548706 483.8989562988281 11.091402053833008 589.8595581054688 C 53.22799301147461 565.4301147460938 50.14777374267578 513.9899291992188 82.50238800048828 587.0064697265625 C 99.69293212890625 621.4278564453125 95.58638000488281 598.5322265625 47.96079635620117 524.0767822265625 C -13.237142562866211 542.2927856445312 -33.25899887084961 561.6703491210938 -49.87984085083008 567.3975830078125" stroke-width="-14.098426818847656" fill="none" stroke="rgb(0, 0, 0)" stroke-opacity="0.90697235" stroke-linecap="round" stroke-linejoin="round"/>
    <path d="M 83.89405822753906 505.27825927734375 C 72.39837646484375 513.1757202148438 3.579880952835083 509.31121826171875 -28.840417861938477 530.0757446289062 C -32.095664978027344 536.3281860351562 -60.597412109375 546.4927368164062 -4.6437811851501465 531.0021362304688 C 10.654611587524414 475.3005676269531 -5.194350242614746 455.3039855957031 56.96360397338867 494.08074951171875 C -101.64533996582031 495.41595458984375 -29.55446434020996 498.2071838378906 60.45895767211914 473.9804992675781" stroke-width="24.157873153686523" fill="none" stroke="rgb(0, 0, 0)" stroke-opacity="0.7797601" stroke-linecap="round" stroke-linejoin="round"/>
    <path d="M 336.3270263671875 330.8987121582031 C 426.204833984375 332.8758239746094 443.718017578125 287.21612548828125 449.1641540527344 310.2093505859375 C 376.4436340332031 326.4267578125 365.053466796875 301.371826171875 365.7015380859375 350.068603515625 C 315.4518127441406 340.6235656738281 345.8014831542969 352.3604431152344 344.6024475097656 348.1168212890625 C 353.2658386230469 348.64801025390625 396.4945373535156 399.28363037109375 519.4929809570312 396.9586486816406" stroke-width="10.036611557006836" fill="none" stroke="rgb(0, 0, 0)" stroke-opacity="0.9576476" stroke-linecap="round" stroke-linejoin="round"/>
    <path d="M 510.863037109375 186.89979553222656 C 508.6883544921875 189.35223388671875 509.08819580078125 213.9019317626953 496.2778015136719 217.59890747070312 C 504.2962341308594 199.71705627441406 498.2318115234375 228.9044647216797 507.8198547363281 206.384521484375 C 475.9514465332031 167.70721435546875 457.6436767578125 159.75389099121094 464.4172058105469 148.73443603515625 C 497.4113464355469 157.46690368652344 516.5772705078125 183.80702209472656 533.3653564453125 174.10240173339844" stroke-width="-41.680702209472656" fill="none" stroke="rgb(0, 0, 0)" stroke-opacity="0.95162475" stroke-linecap="round" stroke-linejoin="round"/>
    <path d="M 465.27117919921875 324.98089599609375 C 448.8585510253906 325.959228515625 482.7355651855469 271.80657958984375 450.2153015136719 264.2103576660156 C 465.90283203125 280.7703552246094 452.1125793457031 317.3341979980469 449.4982604980469 288.7472839355469 C 464.3256530761719 286.87103271484375 455.61871337890625 272.35205078125 494.1265563964844 234.25103759765625 C 542.8101196289062 281.5040588378906 530.380126953125 320.3785705566406 531.2316284179688 317.122802734375" stroke-width="-21.212646484375" fill="none" stroke="rgb(0, 0, 0)" stroke-opacity="0.07348393" stroke-linecap="round" stroke-linejoin="round"/>
    <path d="M 197.20001220703125 578.090087890625 C 199.45811462402344 563.3952026367188 202.51768493652344 574.3969116210938 183.61239624023438 569.4920043945312 C 163.4403076171875 560.0162963867188 155.67991638183594 485.86663818359375 164.3987579345703 488.17254638671875 C 212.01405334472656 519.2928466796875 206.43675231933594 500.17437744140625 185.34445190429688 506.8945007324219 C 183.1895751953125 514.9039306640625 158.24664306640625 531.2239379882812 195.09547424316406 496.8356018066406" stroke-width="-10.820218086242676" fill="none" stroke="rgb(0, 0, 0)" stroke-opacity="0.45928827" stroke-linecap="round" stroke-linejoin="round"/>
    <path d="M 352.70989990234375 505.6207275390625 C 226.56077575683594 503.0828857421875 267.9963073730469 501.6837158203125 266.4139404296875 505.924560546875 C 262.7771911621094 517.9344482421875 264.10797119140625 443.99066162109375 256.21112060546875 450.05059814453125 C 142.15963745117188 438.3528747558594 137.07769775390625 466.82501220703125 190.79702758789062 454.22662353515625 C 185.18702697753906 394.0550231933594 243.72596740722656 394.4137268066406 110.16385650634766 410.7569274902344" stroke-width="4.01794958114624" fill="none" stroke="rgb(0, 0, 0)" stroke-opacity="0.560949" stroke-linecap="round" stroke-linejoin="round"/>
    <path d="M 36.2729377746582 608.6858520507812 C 62.986270904541016 596.3432006835938 89.3080062866211 524.3174438476562 77.94873809814453 551.238525390625 C 68.03868865966797 535.846923828125 53.67639923095703 503.8063659667969 95.40345001220703 509.4452819824219 C 52.98302459716797 494.874755859375 35.56077575683594 507.04290771484375 46.07661056518555 526.7468872070312 C 20.814720153808594 555.27978515625 38.34849166870117 514.1731567382812 78.13731384277344 502.85845947265625" stroke-width="-20.23056983947754" fill="none" stroke="rgb(0, 0, 0)" stroke-opacity="0.67367065" stroke-linecap="round" stroke-linejoin="round"/>
    <path d="M 166.38528442382812 384.46392822265625 C 159.90615844726562 408.2347412109375 121.05712890625 446.8929748535156 138.11981201171875 452.85687255859375 C 90.58393859863281 431.56024169921875 88.51830291748047 479.2412109375 172.7372589111328 495.32177734375 C 201.31085205078125 463.8529357910156 166.51817321777344 466.1620788574219 98.95256042480469 498.2992858886719 C 105.00871276855469 486.1443176269531 60.101280212402344 468.6113586425781 64.87022399902344 493.2958679199219" stroke-width="27.2708683013916" fill="none" stroke="rgb(0, 0, 0)" stroke-opacity="0.27105978" stroke-linecap="round" stroke-linejoin="round"/>
    <path d="M 179.10101318359375 197.54312133789062 C 106.85424041748047 254.13169860839844 164.369873046875 227.6066131591797 184.1789093017578 216.9876708984375 C 164.0790557861328 135.40016174316406 170.98394775390625 159.97808837890625 166.160888671875 186.27967834472656 C 113.89520263671875 210.55880737304688 118.81084442138672 268.0721130371094 173.77474975585938 254.44287109375 C 213.62619018554688 235.8995361328125 198.09829711914062 246.6641082763672 202.19781494140625 195.79139709472656" stroke-width="20.946887969970703" fill="none" stroke="rgb(0, 0, 0)" stroke-opacity="0.8246491" stroke-linecap="round" stroke-linejoin="round"/>
    <path d="M 600.4257202148438 474.3526611328125 C 585.4340209960938 510.4437561035156 587.65185546875 473.9947509765625 639.3501586914062 466.4279479980469 C 611.3139038085938 454.6959228515625 595.746337890625 456.09307861328125 574.940185546875 488.1602478027344 C 539.4512939453125 490.9683837890625 515.3961791992188 424.9049072265625 539.899658203125 353.61566162109375 C 563.4202270507812 429.198486328125 534.5957641601562 455.9263610839844 486.1675109863281 471.68121337890625" stroke-width="-31.093366622924805" fill="none" stroke="rgb(0, 0, 0)" stroke-opacity="0.885911" stroke-linecap="round" stroke-linejoin="round"/>
    <path d="M 478.3141784667969 517.3368530273438 C 482.47906494140625 540.83935546875 478.9684753417969 543.1346435546875 454.552490234375 542.0372924804688 C 451.20703125 503.3913269042969 384.07159423828125 521.0026245117188 385.86126708984375 507.1180419921875 C 378.5418701171875 445.3647766113281 375.9480895996094 444.35260009765625 432.6134033203125 457.3483581542969 C 393.6337585449219 458.7803649902344 429.0321960449219 443.5245666503906 433.16912841796875 444.6695556640625" stroke-width="-15.724282264709473" fill="none" stroke="rgb(0, 0, 0)" stroke-opacity="0.31270427" stroke-linecap="round" stroke-linejoin="round"/>
    <path d="M 71.07709503173828 541.0007934570312 C 75.3954849243164 619.9948120117188 85.59194946289062 619.4335327148438 80.86746978759766 605.8667602539062 C 57.288944244384766 531.4961547851562 50.77968215942383 499.1750183105469 48.209354400634766 509.4263610839844 C 40.82564163208008 537.3038330078125 48.928794860839844 533.48779296875 22.213899612426758 501.8453674316406 C 25.492427825927734 504.23651123046875 87.37568664550781 508.6854553222656 253.3102264404297 504.7611083984375" stroke-width="10.607605934143066" fill="none" stroke="rgb(0, 0, 0)" stroke-opacity="0.8513558" stroke-linecap="round" stroke-linejoin="round"/>
    <path d="M 394.17962646484375 508.3952331542969 C 351.3835754394531 498.6369934082031 331.4904479980469 499.65985107421875 302.284423828125 508.7992858886719 C 298.575439453125 494.03399658203125 341.7802429199219 502.5469665527344 335.2938232421875 512.6469116210938 C 333.6402587890625 492.83807373046875 345.8139953613281 512.12744140625 405.81256103515625 504.37518310546875 C 345.2811584472656 502.1816711425781 368.55487060546875 496.2984313964844 368.63214111328125 549.9797973632812" stroke-width="-17.672195434570312" fill="none" stroke="rgb(0, 0, 0)" stroke-opacity="0.5117502" stroke-linecap="round" stroke-linejoin="round"/>
    <path d="M 296.6623229980469 381.0555114746094 C 281.3739929199219 392.9966735839844 247.7539825439453 413.156494140625 184.01678466796875 415.0893859863281 C 215.05223083496094 416.9478454589844 266.4945983886719 443.4141845703125 231.57754516601562 417.83319091796875 C 227.4584503173828 362.82574462890625 277.4269714355469 379.858154296875 266.6242980957031 465.6292724609375 C 199.61431884765625 440.51910400390625 264.385498046875 430.479736328125 246.36251831054688 394.5733947753906" stroke-width="-15.364285469055176" fill="none" stroke="rgb(0, 0, 0)" stroke-opacity="0.24463695" stroke-linecap="round" stroke-linejoin="round"/>
    <path d="M 215.06527709960938 417.1190490722656 C -15.50902271270752 450.095703125 -36.8292121887207 424.4486083984375 70.82525634765625 455.7240905761719 C 187.51502990722656 397.7979736328125 196.7911834716797 347.86712646484375 111.12545013427734 376.3594970703125 C 35.377967834472656 427.4874572753906 -9.838761329650879 402.5180969238281 -43.478660583496094 460.5904235839844 C -44.09267044067383 483.546142578125 -3.913644790649414 456.974853515625 139.90109252929688 447.510986328125" stroke-width="21.632770538330078" fill="none" stroke="rgb(0, 0, 0)" stroke-opacity="0.24223888" stroke-linecap="round" stroke-linejoin="round"/>
    <path d="M 500.2967834472656 57.913814544677734 C 512.4624633789062 56.00167465209961 508.8515625 14.770731925964355 530.958251953125 -20.259843826293945 C 492.1954040527344 -70.43768310546875 473.9166564941406 5.611419200897217 475.6480407714844 59.01430130004883 C 475.7998352050781 44.05210494995117 501.0284729003906 7.3325419425964355 457.82928466796875 -57.98837661743164 C 352.3099670410156 -48.37838363647461 346.9413146972656 -11.710254669189453 334.4955749511719 2.0768370628356934" stroke-width="-11.065509796142578" fill="none" stroke="rgb(0, 0, 0)" stroke-opacity="0.872437" stroke-linecap="round" stroke-linejoin="round"/>
    <path d="M 270.4136047363281 85.75170135498047 C 241.497802734375 64.29060363769531 262.3101806640625 74.17388153076172 233.22329711914062 55.57660675048828 C 244.07608032226562 69.10458374023438 237.29391479492188 49.01465606689453 214.77545166015625 58.47555160522461 C 203.98306274414062 13.736834526062012 229.40164184570312 0.3982679545879364 225.79579162597656 62.480369567871094 C 235.63186645507812 -0.28033745288848877 220.809814453125 -53.891170501708984 213.75927734375 17.03929328918457" stroke-width="14.78240966796875" fill="none" stroke="rgb(0, 0, 0)" stroke-opacity="0.64076793" stroke-linecap="round" stroke-linejoin="round"/>
    <path d="M 328.8236083984375 416.2185974121094 C 330.7245178222656 425.77825927734375 305.48370361328125 406.2041320800781 231.34324645996094 414.3857116699219 C 301.6711120605469 417.7924499511719 335.00714111328125 396.8111572265625 326.7685852050781 509.53125 C 352.1933898925781 447.8271179199219 328.1552429199219 432.5186462402344 273.22607421875 449.5125732421875 C 267.2374572753906 432.4071960449219 270.79736328125 455.29705810546875 261.251708984375 479.54437255859375" stroke-width="6.027724742889404" fill="none" stroke="rgb(0, 0, 0)" stroke-opacity="0.33408216" stroke-linecap="round" stroke-linejoin="round"/>
    <path d="M 406.4741516113281 204.64646911621094 C 378.26214599609375 208.86163330078125 412.5032043457031 197.4999237060547 398.2976379394531 198.74066162109375 C 415.58935546875 182.7823486328125 394.81243896484375 202.2849884033203 370.3177795410156 194.45742797851562 C 414.0528869628906 196.353271484375 397.7987976074219 191.43368530273438 378.8113708496094 218.58958435058594 C 422.53399658203125 193.78884887695312 369.2075500488281 224.5590057373047 370.7879943847656 216.92608642578125" stroke-width="8.541183471679688" fill="none" stroke="rgb(0, 0, 0)" stroke-opacity="0.9875711" stroke-linecap="round" stroke-linejoin="round"/>
    <path d="M 605.0510864257812 261.3576354980469 C 606.8128662109375 276.0511779785156 648.4224853515625 324.4266662597656 401.30322265625 377.35498046875 C 400.7753601074219 136.86924743652344 461.12518310546875 112.1328353881836 488.5121765136719 96.56346893310547 C 564.553466796875 137.93368530273438 584.8423461914062 107.02059173583984 577.2113647460938 98.35257720947266 C 511.05816650390625 139.96859741210938 541.4126586914062 159.9621124267578 524.604736328125 166.12928771972656" stroke-width="-74.99479675292969" fill="none" stroke="rgb(0, 0, 0)" stroke-opacity="0.60767" stroke-linecap="round" stroke-linejoin="round"/>
    <path d="M 183.89889526367188 109.8179931640625 C 142.1442108154297 126.15081024169922 137.36134338378906 142.73291015625 98.11078643798828 134.1683807373047 C 116.85250091552734 132.32412719726562 121.00680541992188 145.06788635253906 109.95134735107422 134.98658752441406 C 142.7931365966797 166.07603454589844 162.5592803955078 170.1387176513672 191.29568481445312 79.09386444091797 C 203.0086669921875 107.5980224609375 205.9075164794922 137.96441650390625 161.99937438964844 196.14154052734375" stroke-width="28.213794708251953" fill="none" stroke="rgb(0, 0, 0)" stroke-opacity="0.47437295" stroke-linecap="round" stroke-linejoin="round"/>
    <path d="M 608.2703857421875 252.37884521484375 C 599.37060546875 217.36483764648438 616.813720703125 205.98495483398438 631.6071166992188 187.3700714111328 C 607.205322265625 190.04530334472656 600.7174682617188 200.5450897216797 639.2296752929688 206.82998657226562 C 587.9681396484375 186.5308837890625 618.47021484375 179.83790588378906 665.6256713867188 135.20513916015625 C 643.377685546875 113.67279052734375 629.787109375 132.72366333007812 586.1249389648438 162.61911010742188" stroke-width="-15.544744491577148" fill="none" stroke="rgb(0, 0, 0)" stroke-opacity="0.5998723" stroke-linecap="round" stroke-linejoin="round"/>
    <path d="M 194.81231689453125 56.86861801147461 C 191.9182891845703 54.549957275390625 224.40419006347656 48.3087158203125 194.96009826660156 38.619178771972656 C 186.924560546875 112.09043884277344 199.5177764892578 97.33655548095703 204.43788146972656 110.19985961914062 C 114.7658920288086 129.6945037841797 45.13222122192383 141.54978942871094 36.17751693725586 77.24991607666016 C 106.77971649169922 -15.710498809814453 118.52245330810547 -39.7325325012207 90.14962768554688 -70.43559265136719" stroke-width="-29.193973541259766" fill="none" stroke="rgb(0, 0, 0)" stroke-opacity="0.13910224" stroke-linecap="round" stroke-linejoin="round"/>
    <path d="M 149.29061889648438 261.8595886230469 C 131.4404296875 223.20266723632812 140.8154754638672 239.74293518066406 198.00863647460938 222.91558837890625 C 241.4266815185547 168.80780029296875 166.37576293945312 190.05072021484375 83.96148681640625 227.15426635742188 C 111.65452575683594 238.4125213623047 133.74830627441406 249.2828369140625 160.3033447265625 219.91961669921875 C 70.3585433959961 232.11343383789062 65.8082504272461 227.6623077392578 190.81210327148438 207.9644317626953" stroke-width="19.393192291259766" fill="none" stroke="rgb(0, 0, 0)" stroke-opacity="0.7175034" stroke-linecap="round" stroke-linejoin="round"/>
    <path d="M 171.68954467773438 434.2816162109375 C 192.53564453125 387.8096618652344 141.62550354003906 376.4212341308594 169.05581665039062 408.3220520019531 C 119.47638702392578 418.0519104003906 119.57986450195312 412.6922302246094 106.7160415649414 471.3529052734375 C 77.5393295288086 423.52569580078125 115.06490325927734 424.5588684082031 57.358375549316406 430.6903076171875 C 39.813133239746094 444.2992858886719 12.299629211425781 433.7691955566406 34.30226516723633 451.5125732421875" stroke-width="23.255767822265625" fill="none" stroke="rgb(0, 0, 0)" stroke-opacity="0.5128862" stroke-linecap="round" stroke-linejoin="round"/>
    <path d="M 347.735107421875 504.1829528808594 C 332.4010314941406 517.9121704101562 345.8060302734375 529.8184814453125 338.7141418457031 515.6063842773438 C 330.0504455566406 530.2987060546875 338.92633056640625 536.39599609375 333.64471435546875 512.8364868164062 C 362.4226989746094 510.7823791503906 322.6081237792969 509.0712585449219 262.7928771972656 525.60546875 C 278.114990234375 562.4402465820312 261.2315673828125 569.17578125 272.35369873046875 513.5528564453125" stroke-width="19.62146759033203" fill="none" stroke="rgb(0, 0, 0)" stroke-opacity="0.7508244" stroke-linecap="round" stroke-linejoin="round"/>
    <path d="M 17.714059829711914 566.564697265625 C 16.854745864868164 510.34100341796875 59.45437240600586 519.95458984375 53.13823699951172 504.63116455078125 C 59.89242172241211 511.7204284667969 114.10167694091797 508.1562194824219 179.84719848632812 503.7350158691406 C 84.89759063720703 475.5205078125 111.7861328125 496.938720703125 111.2336654663086 454.0938720703125 C 119.5459976196289 443.6025695800781 130.4028778076172 460.9170837402344 186.32835388183594 462.14801025390625" stroke-width="22.745492935180664" fill="none" stroke="rgb(0, 0, 0)" stroke-opacity="0.16069986" stroke-linecap="round" stroke-linejoin="round"/>
    <path d="M 177.48252868652344 426.22344970703125 C 197.18499755859375 438.4547424316406 158.96958923339844 450.0101318359375 153.46884155273438 440.82525634765625 C 143.65379333496094 403.48675537109375 143.71067810058594 374.2657775878906 193.7955780029297 412.2983093261719 C 115.58145904541016 464.08563232421875 118.86277770996094 390.5548095703125 107.8960952758789 349.17303466796875 C 197.54925537109375 352.5504150390625 205.46728515625 348.588623046875 195.53273010253906 298.2400207519531" stroke-width="12.49539852142334" fill="none" stroke="rgb(0, 0, 0)" stroke-opacity="0.41872093" stroke-linecap="round" stroke-linejoin="round"/>
    <path d="M 195.9406280517578 602.7916259765625 C 188.4786376953125 594.8009033203125 204.3045654296875 642.2095947265625 187.95082092285156 627.9029541015625 C 205.6214599609375 592.1942138671875 179.49560546875 601.7149047851562 211.02374267578125 617.308837890625 C 196.84597778320312 612.4586181640625 180.47996520996094 606.597412109375 181.69241333007812 642.6092529296875 C 179.13818359375 606.933349609375 175.63629150390625 609.525146484375 182.5849151611328 611.8773193359375" stroke-width="5.711214542388916" fill="none" stroke="rgb(0, 0, 0)" stroke-opacity="0.6086061" stroke-linecap="round" stroke-linejoin="round"/>
    <path d="M 144.9387664794922 259.3305358886719 C 140.65744018554688 252.83265686035156 128.48143005371094 246.31459045410156 121.97926330566406 241.6179656982422 C 112.82266998291016 270.9573974609375 111.04094696044922 282.4525451660156 121.31281280517578 273.1921691894531 C 167.8119659423828 252.6758575439453 172.0047149658203 256.2333068847656 62.398746490478516 232.50917053222656 C -8.429742813110352 158.49453735351562 5.157751560211182 122.15506744384766 33.39885330200195 108.68231201171875" stroke-width="-52.0316276550293" fill="none" stroke="rgb(0, 0, 0)" stroke-opacity="0.75164515" stroke-linecap="round" stroke-linejoin="round"/>
    <path d="M 398.0218811035156 503.1511535644531 C 380.71380615234375 438.02874755859375 418.1535339355469 445.6224060058594 352.8787536621094 442.7106018066406 C 394.5582275390625 470.61065673828125 387.8161315917969 451.9314880371094 355.20477294921875 460.77264404296875 C 386.9102783203125 449.50128173828125 354.2425537109375 454.31683349609375 260.06195068359375 448.69451904296875 C 271.73193359375 448.84332275390625 293.621826171875 455.8945617675781 349.88311767578125 456.1385803222656" stroke-width="5.693797588348389" fill="none" stroke="rgb(0, 0, 0)" stroke-opacity="0.7058724" stroke-linecap="round" stroke-linejoin="round"/>
    <path d="M 604.5802612304688 139.67422485351562 C 627.5706176757812 182.76539611816406 677.4139404296875 215.67813110351562 618.3504638671875 269.3155517578125 C 589.9873657226562 294.7384948730469 609.2973022460938 306.3280944824219 594.51171875 244.85940551757812 C 517.5679321289062 173.50698852539062 480.52581787109375 185.4536590576172 518.776123046875 158.1564178466797 C 573.8162231445312 180.5462188720703 575.0980224609375 228.15573120117188 582.8352661132812 226.986083984375" stroke-width="-22.863718032836914" fill="none" stroke="rgb(0, 0, 0)" stroke-opacity="0.21009766" stroke-linecap="round" stroke-linejoin="round"/>
    <path d="M 215.06527709960938 417.1190490722656 C -15.50902271270752 450.095703125 -36.8292121887207 424.4486083984375 70.82525634765625 455.7240905761719 C 187.51502990722656 397.7979736328125 196.7911834716797 347.86712646484375 111.12545013427734 376.3594970703125 C 35.377967834472656 427.4874572753906 -9.838761329650879 402.5180969238281 -43.478660583496094 460.5904235839844 C -44.09267044067383 483.546142578125 -3.913644790649414 456.974853515625 139.90109252929688 447.510986328125" stroke-width="21.632770538330078" fill="none" stroke="rgb(0, 0, 0)" stroke-opacity="0.7750412" stroke-linecap="round" stroke-linejoin="round"/>
  </g>
</svg>
