<?xml version="1.0" ?>
<svg xmlns="http://www.w3.org/2000/svg" version="1.1" width="600" height="600">
  <defs/>
  <g>
    <path d="M 209.8719482421875 429.49749755859375 C 190.70999145507812 460.4927062988281 236.41172790527344 468.16619873046875 240.3513946533203 476.4486083984375 C 242.68048095703125 467.1099548339844 225.4514923095703 455.5123596191406 167.96881103515625 457.0774230957031 C 104.65679931640625 461.79937744140625 94.77462768554688 491.4951171875 98.3890151977539 564.4650268554688 C 105.94661712646484 542.8592529296875 103.04546356201172 553.0704956054688 143.34249877929688 595.0367431640625" stroke-width="-24.177804946899414" fill="none" stroke="rgb(0, 0, 0)" stroke-opacity="0.16697955" stroke-linecap="round" stroke-linejoin="round"/>
    <path d="M 556.3754272460938 281.12066650390625 C 558.2568969726562 273.59039306640625 587.3146362304688 276.31494140625 598.825439453125 306.9015808105469 C 549.2327270507812 327.2269287109375 543.8600463867188 320.0827331542969 533.3786010742188 346.9239807128906 C 536.7642211914062 327.7905578613281 538.723876953125 316.1710205078125 535.72216796875 343.1101989746094 C 585.486328125 316.382568359375 542.5542602539062 330.7871398925781 537.7271118164062 335.6041564941406" stroke-width="-10.62242317199707" fill="none" stroke="rgb(0, 0, 0)" stroke-opacity="0.98268074" stroke-linecap="round" stroke-linejoin="round"/>
    <path d="M 137.00909423828125 170.474853515625 C 153.60015869140625 151.07415771484375 190.67213439941406 190.1449432373047 172.1920166015625 210.68824768066406 C 171.22071838378906 224.31983947753906 224.4351806640625 200.73641967773438 252.06202697753906 163.50486755371094 C 216.32046508789062 136.48268127441406 270.16949462890625 148.94532775878906 237.34483337402344 193.77284240722656 C 221.3038330078125 171.4180145263672 253.03273010253906 194.9974365234375 326.04754638671875 183.26409912109375" stroke-width="-22.306453704833984" fill="none" stroke="rgb(0, 0, 0)" stroke-opacity="0.40847638" stroke-linecap="round" stroke-linejoin="round"/>
    <path d="M 115.27630615234375 285.67059326171875 C 198.37026977539062 288.0566101074219 181.31832885742188 279.21832275390625 162.24365234375 301.5533752441406 C 209.70709228515625 361.157470703125 185.94627380371094 344.953125 152.11822509765625 331.98382568359375 C 183.93954467773438 328.23236083984375 213.84507751464844 312.1653137207031 241.49618530273438 321.1724853515625 C 270.880859375 341.34454345703125 270.8307189941406 278.650390625 189.3939971923828 254.42201232910156" stroke-width="13.883437156677246" fill="none" stroke="rgb(0, 0, 0)" stroke-opacity="0.29608235" stroke-linecap="round" stroke-linejoin="round"/>
    <path d="M 100.01715850830078 76.26791381835938 C 79.01026153564453 76.1778564453125 94.26272583007812 70.1451187133789 89.45528411865234 74.52928161621094 C 62.74802780151367 75.1579360961914 47.94796371459961 63.51493835449219 36.00421142578125 28.83385467529297 C 29.47299575805664 28.223752975463867 50.79499053955078 40.78720474243164 6.790596961975098 82.9814453125 C -0.11928366124629974 51.849143981933594 11.252731323242188 75.92102813720703 52.5262565612793 64.27770233154297" stroke-width="-37.99645233154297" fill="none" stroke="rgb(0, 0, 0)" stroke-opacity="0.38815257" stroke-linecap="round" stroke-linejoin="round"/>
    <path d="M 362.56671142578125 201.3121337890625 C 216.7144775390625 209.4362030029297 217.00193786621094 173.49850463867188 199.57321166992188 211.99880981445312 C 267.48187255859375 180.86741638183594 301.9313659667969 194.51486206054688 277.57159423828125 195.1145782470703 C 207.9463348388672 178.08740234375 178.55149841308594 150.7210693359375 221.60951232910156 144.09622192382812 C 237.59127807617188 118.62837982177734 260.560791015625 190.8267822265625 170.5792236328125 220.85482788085938" stroke-width="31.08316421508789" fill="none" stroke="rgb(0, 0, 0)" stroke-opacity="0.7685967" stroke-linecap="round" stroke-linejoin="round"/>
    <path d="M 208.24285888671875 349.88348388671875 C 269.5402526855469 323.7015686035156 316.9024658203125 307.82098388671875 350.76593017578125 318.6987609863281 C 340.4380187988281 357.99835205078125 311.05548095703125 321.9571838378906 366.5426940917969 321.22406005859375 C 368.651611328125 334.14837646484375 353.8005676269531 313.9125671386719 409.8729553222656 328.15655517578125 C 404.495361328125 321.26995849609375 403.211181640625 331.53533935546875 357.4916687011719 344.9405822753906" stroke-width="28.60890007019043" fill="none" stroke="rgb(0, 0, 0)" stroke-opacity="0.15564577" stroke-linecap="round" stroke-linejoin="round"/>
    <path d="M 610.6013793945312 395.3573303222656 C 631.0323486328125 388.4288635253906 615.3221435546875 360.3277587890625 623.7313232421875 357.6636047363281 C 608.202880859375 375.36676025390625 612.6260375976562 347.1524963378906 611.6390991210938 353.00665283203125 C 625.8306884765625 340.45709228515625 613.1163940429688 319.07159423828125 610.33349609375 339.40692138671875 C 608.8079833984375 319.8590393066406 626.871337890625 349.0368957519531 606.9564208984375 340.2051086425781" stroke-width="7.095056056976318" fill="none" stroke="rgb(0, 0, 0)" stroke-opacity="0.10327923" stroke-linecap="round" stroke-linejoin="round"/>
    <path d="M 93.29423522949219 74.93791961669922 C 107.82577514648438 81.53160858154297 126.2351303100586 78.62390899658203 132.90213012695312 76.92427062988281 C 88.85710144042969 59.91413116455078 72.37203979492188 51.05585861206055 51.110572814941406 27.237537384033203 C 30.671234130859375 76.89397430419922 48.689231872558594 58.14046859741211 54.59077072143555 61.807220458984375 C 62.2972297668457 102.3028793334961 44.982391357421875 96.80488586425781 43.60495376586914 97.43975830078125" stroke-width="-27.544525146484375" fill="none" stroke="rgb(0, 0, 0)" stroke-opacity="0.6244234" stroke-linecap="round" stroke-linejoin="round"/>
    <path d="M 15.63573169708252 231.50112915039062 C -16.860700607299805 246.69728088378906 -17.859573364257812 262.7622985839844 -32.70846939086914 260.4082336425781 C -40.75971984863281 272.0399475097656 -49.0205078125 243.51141357421875 -53.46042251586914 223.40634155273438 C -46.22651672363281 229.6620330810547 -50.771385192871094 259.4776611328125 -52.293174743652344 274.13873291015625 C -77.97582244873047 298.2486572265625 -56.99181365966797 315.7400207519531 -34.03153610229492 318.0499572753906" stroke-width="-5.5882439613342285" fill="none" stroke="rgb(0, 0, 0)" stroke-opacity="0.5866618" stroke-linecap="round" stroke-linejoin="round"/>
    <path d="M 259.4639892578125 40.223331451416016 C 278.5678405761719 31.370174407958984 257.98870849609375 -43.406009674072266 255.32293701171875 -57.53864288330078 C 250.44659423828125 54.36879348754883 266.57012939453125 71.39712524414062 255.9132537841797 93.56980895996094 C 200.99916076660156 159.78404235839844 299.62353515625 140.71141052246094 273.2969970703125 83.25300598144531 C 286.774169921875 92.00586700439453 262.6775817871094 114.98970794677734 236.50308227539062 132.93214416503906" stroke-width="16.527664184570312" fill="none" stroke="rgb(0, 0, 0)" stroke-opacity="0.71423817" stroke-linecap="round" stroke-linejoin="round"/>
    <path d="M 349.6610412597656 434.33148193359375 C 344.7951354980469 474.24298095703125 377.83599853515625 475.0784912109375 380.62725830078125 455.1382751464844 C 378.33935546875 480.8103942871094 373.4765930175781 472.0892028808594 371.9749755859375 450.6591796875 C 360.69537353515625 392.6637878417969 441.67803955078125 428.7113037109375 365.02008056640625 407.3150939941406 C 321.1409912109375 368.09454345703125 426.6145324707031 427.90216064453125 457.1850280761719 400.5992431640625" stroke-width="17.099369049072266" fill="none" stroke="rgb(0, 0, 0)" stroke-opacity="0.72869754" stroke-linecap="round" stroke-linejoin="round"/>
    <path d="M 482.4044189453125 309.5177917480469 C 474.4662170410156 310.5398254394531 478.60076904296875 295.55938720703125 474.691162109375 264.3840026855469 C 478.0932312011719 288.8899230957031 480.4384460449219 248.18865966796875 441.4210205078125 210.97203063964844 C 398.16314697265625 235.31439208984375 397.4656982421875 254.45095825195312 394.5700988769531 255.9619140625 C 418.7646179199219 252.09487915039062 403.46588134765625 259.67852783203125 417.2666015625 302.23309326171875" stroke-width="-39.793827056884766" fill="none" stroke="rgb(0, 0, 0)" stroke-opacity="0.05818207" stroke-linecap="round" stroke-linejoin="round"/>
    <path d="M 613.2572631835938 408.69024658203125 C 604.4220581054688 409.5202941894531 627.8506469726562 406.6641540527344 641.4074096679688 397.7325439453125 C 637.998291015625 381.31622314453125 650.5923461914062 375.535400390625 670.3291625976562 394.0716857910156 C 644.8009643554688 386.5052185058594 662.1870727539062 407.5848083496094 646.665771484375 407.7259826660156 C 622.8490600585938 430.31878662109375 648.1767578125 445.4364318847656 668.0165405273438 456.1286926269531" stroke-width="9.917634963989258" fill="none" stroke="rgb(0, 0, 0)" stroke-opacity="0.051410854" stroke-linecap="round" stroke-linejoin="round"/>
    <path d="M 511.8433532714844 484.8266906738281 C 485.2566223144531 470.5459899902344 459.56585693359375 496.201416015625 444.0874328613281 533.0802001953125 C 455.26385498046875 517.2868041992188 542.4412231445312 515.906982421875 517.3093872070312 516.9115600585938 C 523.7265014648438 536.8958740234375 538.4014892578125 528.514892578125 547.2112426757812 515.5283203125 C 525.8421020507812 534.7044677734375 513.3884887695312 518.1964721679688 620.8367919921875 519.39306640625" stroke-width="24.76822280883789" fill="none" stroke="rgb(0, 0, 0)" stroke-opacity="0.4896807" stroke-linecap="round" stroke-linejoin="round"/>
    <path d="M 255.83871459960938 -23.072219848632812 C 268.8211669921875 45.38400650024414 270.2563171386719 80.03673553466797 250.0484161376953 112.45706939697266 C 274.9283752441406 86.6750259399414 281.15472412109375 74.61693572998047 267.5570373535156 113.331787109375 C 206.6670684814453 107.94231414794922 249.77816772460938 143.42538452148438 288.0467529296875 149.1015167236328 C 271.0172119140625 78.40230560302734 261.6358947753906 119.2095947265625 351.8907775878906 134.7808380126953" stroke-width="14.196465492248535" fill="none" stroke="rgb(0, 0, 0)" stroke-opacity="0.27019364" stroke-linecap="round" stroke-linejoin="round"/>
    <path d="M 187.48045349121094 502.71051025390625 C 186.4039764404297 518.9225463867188 169.3362274169922 522.6492309570312 121.44559478759766 504.9023742675781 C 216.64988708496094 489.2067565917969 224.9176788330078 501.7346496582031 168.34300231933594 507.50885009765625 C 130.17713928222656 502.7208557128906 150.3685760498047 483.7269287109375 150.30117797851562 475.57403564453125 C 120.49842834472656 456.5430603027344 116.82429504394531 454.6502685546875 49.25688171386719 456.3349914550781" stroke-width="11.45438003540039" fill="none" stroke="rgb(0, 0, 0)" stroke-opacity="0.20629139" stroke-linecap="round" stroke-linejoin="round"/>
    <path d="M 167.80142211914062 485.23919677734375 C 235.31918334960938 480.7878112792969 210.12188720703125 464.70513916015625 203.23829650878906 508.99810791015625 C 240.86251831054688 493.33966064453125 204.37066650390625 479.2764892578125 232.0652313232422 502.6378173828125 C 264.88336181640625 482.7386779785156 196.01553344726562 468.953369140625 171.1417999267578 511.83935546875 C 272.3231506347656 526.0780029296875 299.9681396484375 507.7932434082031 339.3775939941406 509.11761474609375" stroke-width="22.064123153686523" fill="none" stroke="rgb(0, 0, 0)" stroke-opacity="0.34979224" stroke-linecap="round" stroke-linejoin="round"/>
    <path d="M 474.4606628417969 389.57305908203125 C 441.504150390625 381.4242248535156 420.1728515625 394.9300231933594 409.7278747558594 436.968505859375 C 376.5957336425781 488.58258056640625 368.4082336425781 499.7121887207031 402.2629089355469 474.8069152832031 C 480.38043212890625 464.841552734375 417.3329162597656 476.110595703125 412.8546447753906 468.6974792480469 C 431.9474182128906 449.5923767089844 456.76934814453125 433.0152893066406 446.2825927734375 378.4988098144531" stroke-width="-16.213193893432617" fill="none" stroke="rgb(0, 0, 0)" stroke-opacity="0.06464959" stroke-linecap="round" stroke-linejoin="round"/>
    <path d="M 157.15496826171875 286.70025634765625 C 212.3155059814453 271.0124816894531 274.06103515625 235.04087829589844 244.86428833007812 211.6842041015625 C 206.75746154785156 245.62550354003906 206.68373107910156 269.250244140625 135.85682678222656 274.7297058105469 C 129.19776916503906 274.1353454589844 150.24258422851562 303.6031494140625 201.22012329101562 283.1560363769531 C 250.22650146484375 230.5732879638672 247.0549774169922 193.08900451660156 155.1579132080078 215.0612030029297" stroke-width="10.363425254821777" fill="none" stroke="rgb(0, 0, 0)" stroke-opacity="0.1772733" stroke-linecap="round" stroke-linejoin="round"/>
    <path d="M 507.57745361328125 258.6644592285156 C 507.4444885253906 263.6113586425781 519.49755859375 276.8830871582031 556.3557739257812 274.9313049316406 C 565.3346557617188 278.20404052734375 583.78564453125 228.4152374267578 597.3209228515625 223.9428253173828 C 608.976806640625 231.79811096191406 641.8698120117188 203.6425018310547 634.1651611328125 185.45530700683594 C 612.0407104492188 173.428466796875 596.7774658203125 155.95880126953125 630.8145751953125 159.6720428466797" stroke-width="-27.065982818603516" fill="none" stroke="rgb(0, 0, 0)" stroke-opacity="0.08874133" stroke-linecap="round" stroke-linejoin="round"/>
    <path d="M 121.52933502197266 529.4868774414062 C 111.91910552978516 536.2643432617188 30.581327438354492 538.4745483398438 74.38059997558594 519.7161254882812 C 113.10443878173828 483.8993835449219 140.78717041015625 505.60723876953125 3.369048833847046 521.5567626953125 C -60.20901107788086 510.29925537109375 -32.196022033691406 480.67926025390625 0.9658936262130737 514.1739501953125 C 8.253602981567383 471.6251220703125 17.650754928588867 437.5391845703125 82.13433074951172 454.1304931640625" stroke-width="28.463973999023438" fill="none" stroke="rgb(0, 0, 0)" stroke-opacity="0.33784288" stroke-linecap="round" stroke-linejoin="round"/>
    <path d="M 422.4281921386719 408.3269958496094 C 364.8298645019531 419.6131591796875 378.06207275390625 433.7623596191406 369.6026306152344 491.87213134765625 C 347.7717590332031 478.3397521972656 333.1102600097656 392.7210998535156 382.7142028808594 410.091552734375 C 362.4546813964844 459.76568603515625 390.4572448730469 489.8516540527344 349.32666015625 499.669189453125 C 351.5806579589844 453.5256652832031 366.732421875 420.5821838378906 450.37841796875 433.7696838378906" stroke-width="-22.655536651611328" fill="none" stroke="rgb(0, 0, 0)" stroke-opacity="0.58634496" stroke-linecap="round" stroke-linejoin="round"/>
    <path d="M 191.228271484375 160.60043334960938 C 131.9961700439453 160.1598358154297 188.18894958496094 149.49578857421875 241.36538696289062 140.43478393554688 C 210.86880493164062 156.06117248535156 167.11956787109375 171.0027618408203 226.6686248779297 134.66513061523438 C 296.5559997558594 135.83364868164062 299.057861328125 90.34640502929688 249.99537658691406 110.9902114868164 C 214.81654357910156 155.57130432128906 206.01031494140625 134.76441955566406 207.46307373046875 153.2600555419922" stroke-width="20.02005958557129" fill="none" stroke="rgb(0, 0, 0)" stroke-opacity="0.43725502" stroke-linecap="round" stroke-linejoin="round"/>
    <path d="M 137.00909423828125 170.474853515625 C 153.60015869140625 151.07415771484375 190.67213439941406 190.1449432373047 172.1920166015625 210.68824768066406 C 171.22071838378906 224.31983947753906 224.4351806640625 200.73641967773438 252.06202697753906 163.50486755371094 C 216.32046508789062 136.48268127441406 270.16949462890625 148.94532775878906 237.34483337402344 193.77284240722656 C 221.3038330078125 171.4180145263672 253.03273010253906 194.9974365234375 326.04754638671875 183.26409912109375" stroke-width="-22.306453704833984" fill="none" stroke="rgb(0, 0, 0)" stroke-opacity="0.40330437" stroke-linecap="round" stroke-linejoin="round"/>
    <path d="M 45.284027099609375 174.581787109375 C 58.266353607177734 161.63037109375 55.7275276184082 180.47569274902344 37.9637565612793 169.90830993652344 C 49.31333923339844 161.5755615234375 42.25048828125 200.18800354003906 31.831401824951172 169.45361328125 C 71.0794906616211 160.87001037597656 37.26600646972656 167.57310485839844 74.99457550048828 152.18618774414062 C 66.27688598632812 154.01675415039062 95.58395385742188 167.88706970214844 60.48467254638672 169.52687072753906" stroke-width="15.460430145263672" fill="none" stroke="rgb(0, 0, 0)" stroke-opacity="0.50769734" stroke-linecap="round" stroke-linejoin="round"/>
    <path d="M 343.2312316894531 335.9421081542969 C 350.4291076660156 261.5982360839844 367.48284912109375 234.46942138671875 349.373779296875 279.6008605957031 C 342.5172424316406 258.5466613769531 334.1257629394531 290.4769592285156 380.2958679199219 259.8121337890625 C 391.4516296386719 272.8373718261719 332.1612548828125 279.3238525390625 234.70123291015625 262.364013671875 C 238.73995971679688 236.5493927001953 448.14654541015625 273.354248046875 384.8345642089844 263.85247802734375" stroke-width="18.708139419555664" fill="none" stroke="rgb(0, 0, 0)" stroke-opacity="0.88307273" stroke-linecap="round" stroke-linejoin="round"/>
    <path d="M 79.85994720458984 102.69759368896484 C 86.05338287353516 88.93299102783203 63.11249542236328 97.21156311035156 46.615753173828125 115.36183166503906 C 61.74677276611328 102.642578125 63.51747512817383 88.79436492919922 63.153343200683594 91.6169662475586 C 46.28216552734375 111.00237274169922 35.300132751464844 112.62293243408203 70.630859375 96.6434097290039 C 62.615440368652344 108.07162475585938 28.841341018676758 113.65576934814453 31.176298141479492 121.26583099365234" stroke-width="-5.93612003326416" fill="none" stroke="rgb(0, 0, 0)" stroke-opacity="0.8095742" stroke-linecap="round" stroke-linejoin="round"/>
    <path d="M 137.00909423828125 170.474853515625 C 153.60015869140625 151.07415771484375 190.67213439941406 190.1449432373047 172.1920166015625 210.68824768066406 C 171.22071838378906 224.31983947753906 224.4351806640625 200.73641967773438 252.06202697753906 163.50486755371094 C 216.32046508789062 136.48268127441406 270.16949462890625 148.94532775878906 237.34483337402344 193.77284240722656 C 221.3038330078125 171.4180145263672 253.03273010253906 194.9974365234375 326.04754638671875 183.26409912109375" stroke-width="-22.306453704833984" fill="none" stroke="rgb(0, 0, 0)" stroke-opacity="0.831813" stroke-linecap="round" stroke-linejoin="round"/>
    <path d="M 399.1659240722656 -14.143196105957031 C 390.9408264160156 -13.357930183410645 415.826171875 21.40748405456543 404.6990966796875 -8.219159126281738 C 396.6659240722656 -14.402013778686523 437.4375915527344 -26.00153160095215 426.5974426269531 -26.347076416015625 C 440.10821533203125 -10.538995742797852 459.46551513671875 5.094054222106934 472.43597412109375 -20.420080184936523 C 452.42138671875 3.23685359954834 452.8616943359375 -46.18556594848633 470.1242980957031 -89.50521087646484" stroke-width="-19.14291763305664" fill="none" stroke="rgb(0, 0, 0)" stroke-opacity="0.2300527" stroke-linecap="round" stroke-linejoin="round"/>
    <path d="M 428.33880615234375 606.4676513671875 C 431.3581237792969 626.5625 421.9691162109375 600.5786743164062 410.7575988769531 635.8569946289062 C 407.6990051269531 611.1995849609375 415.6905517578125 590.5106201171875 409.7449645996094 612.3909912109375 C 391.4612121582031 621.704345703125 369.0719909667969 613.6278686523438 347.371337890625 609.944580078125 C 337.1176452636719 590.534423828125 350.7330322265625 623.5585327148438 331.9510192871094 630.3060913085938" stroke-width="-3.120163679122925" fill="none" stroke="rgb(0, 0, 0)" stroke-opacity="0.5207828" stroke-linecap="round" stroke-linejoin="round"/>
    <path d="M 143.89859008789062 410.12408447265625 C 218.4795379638672 406.2017822265625 196.09573364257812 421.22210693359375 103.78491973876953 416.5040283203125 C 94.16773223876953 422.8580627441406 133.0114288330078 393.4017028808594 113.57124328613281 477.39447021484375 C 137.08328247070312 485.344970703125 141.79331970214844 480.13714599609375 99.06137084960938 485.8293151855469 C -20.777708053588867 456.06976318359375 -110.4495620727539 528.6072387695312 99.8984603881836 508.7558288574219" stroke-width="33.671363830566406" fill="none" stroke="rgb(0, 0, 0)" stroke-opacity="0.6341652" stroke-linecap="round" stroke-linejoin="round"/>
    <path d="M 492.9392395019531 480.3290710449219 C 470.6529846191406 476.1501770019531 492.4564208984375 468.57586669921875 495.21270751953125 490.2045593261719 C 504.0111083984375 527.55029296875 465.5593566894531 514.0635375976562 470.3996887207031 516.0639038085938 C 469.30706787109375 514.1813354492188 457.60601806640625 490.07110595703125 505.1904602050781 478.39324951171875 C 506.0653991699219 472.23516845703125 466.4053039550781 480.4171142578125 431.6833190917969 476.11578369140625" stroke-width="21.011621475219727" fill="none" stroke="rgb(0, 0, 0)" stroke-opacity="0.8225432" stroke-linecap="round" stroke-linejoin="round"/>
    <path d="M 241.09185791015625 132.35690307617188 C 231.5465850830078 105.70156860351562 247.6313018798828 144.12844848632812 231.19061279296875 226.43556213378906 C 213.892578125 170.94473266601562 243.2298126220703 174.1000213623047 251.74246215820312 173.55709838867188 C 224.07977294921875 184.46908569335938 214.86329650878906 183.38450622558594 331.03643798828125 179.256591796875 C 344.2294006347656 183.07327270507812 310.79241943359375 175.88262939453125 335.5500183105469 140.16409301757812" stroke-width="8.04726505279541" fill="none" stroke="rgb(0, 0, 0)" stroke-opacity="0.76279974" stroke-linecap="round" stroke-linejoin="round"/>
    <path d="M 217.59530639648438 413.65185546875 C 351.059326171875 391.4828186035156 370.8236389160156 389.4670715332031 360.25640869140625 346.67254638671875 C 416.1788635253906 314.5108947753906 380.706298828125 331.6627502441406 240.78956604003906 332.7642822265625 C 174.7982940673828 338.0404357910156 205.75657653808594 336.7842102050781 245.98501586914062 313.1277160644531 C 301.6517028808594 315.61279296875 340.4057312011719 327.6957702636719 414.8582763671875 330.6787109375" stroke-width="22.90323257446289" fill="none" stroke="rgb(0, 0, 0)" stroke-opacity="0.77334714" stroke-linecap="round" stroke-linejoin="round"/>
    <path d="M 452.7693176269531 238.86801147460938 C 451.36334228515625 253.87472534179688 479.306884765625 261.9162902832031 483.168212890625 264.9779357910156 C 472.1363220214844 251.9503936767578 465.6318664550781 245.79627990722656 483.8768615722656 238.16648864746094 C 475.72021484375 231.31675720214844 455.9168395996094 197.93507385253906 412.54437255859375 228.77813720703125 C 383.68780517578125 240.12869262695312 364.04498291015625 210.82968139648438 364.72564697265625 202.23414611816406" stroke-width="-29.67662239074707" fill="none" stroke="rgb(0, 0, 0)" stroke-opacity="0.63878137" stroke-linecap="round" stroke-linejoin="round"/>
    <path d="M 137.00909423828125 170.474853515625 C 153.60015869140625 151.07415771484375 190.67213439941406 190.1449432373047 172.1920166015625 210.68824768066406 C 171.22071838378906 224.31983947753906 224.4351806640625 200.73641967773438 252.06202697753906 163.50486755371094 C 216.32046508789062 136.48268127441406 270.16949462890625 148.94532775878906 237.34483337402344 193.77284240722656 C 221.3038330078125 171.4180145263672 253.03273010253906 194.9974365234375 326.04754638671875 183.26409912109375" stroke-width="-22.306453704833984" fill="none" stroke="rgb(0, 0, 0)" stroke-opacity="0.95366067" stroke-linecap="round" stroke-linejoin="round"/>
    <path d="M 43.68107604980469 55.0897216796875 C 46.5598030090332 25.811328887939453 39.37352752685547 42.894508361816406 35.02426528930664 63.45842742919922 C 24.67349624633789 42.669708251953125 38.45468521118164 74.38862609863281 18.60096549987793 28.575536727905273 C -15.219097137451172 28.814104080200195 -21.22214698791504 27.893898010253906 -5.247520923614502 78.0817642211914 C 43.8696403503418 79.01920318603516 51.789894104003906 128.6984405517578 57.37025451660156 125.09260559082031" stroke-width="-26.179166793823242" fill="none" stroke="rgb(0, 0, 0)" stroke-opacity="0.08016232" stroke-linecap="round" stroke-linejoin="round"/>
    <path d="M 484.575927734375 298.9996032714844 C 482.5455627441406 283.7427673339844 475.12744140625 304.5650939941406 485.8975524902344 301.7303161621094 C 505.16094970703125 317.25213623046875 521.597900390625 347.36865234375 537.310302734375 355.512451171875 C 546.3798217773438 338.98406982421875 547.648681640625 341.3301696777344 490.890869140625 275.75689697265625 C 464.31915283203125 240.23516845703125 466.4990234375 253.8513641357422 491.50225830078125 327.888427734375" stroke-width="-35.220428466796875" fill="none" stroke="rgb(0, 0, 0)" stroke-opacity="0.05201558" stroke-linecap="round" stroke-linejoin="round"/>
    <path d="M 464.052001953125 527.763427734375 C 455.8993225097656 453.2350769042969 463.3745422363281 441.0534973144531 465.7283020019531 517.7128295898438 C 471.7843017578125 525.3722534179688 483.3780212402344 511.5010986328125 449.2483215332031 507.518798828125 C 444.45257568359375 554.278564453125 436.74542236328125 564.1881103515625 410.5597839355469 476.6515197753906 C 313.9595642089844 507.26116943359375 311.0887451171875 520.55712890625 484.75775146484375 498.8753662109375" stroke-width="25.18963623046875" fill="none" stroke="rgb(0, 0, 0)" stroke-opacity="0.54495853" stroke-linecap="round" stroke-linejoin="round"/>
    <path d="M 98.84220123291016 449.600341796875 C 183.03733825683594 442.2028503417969 204.629638671875 448.23028564453125 193.53086853027344 441.7335510253906 C 202.49359130859375 400.5555419921875 228.85531616210938 448.26324462890625 210.43893432617188 477.60906982421875 C 111.04830169677734 475.2448425292969 100.82494354248047 461.4707336425781 162.67227172851562 482.52178955078125 C 160.21917724609375 434.5153503417969 136.57408142089844 439.71929931640625 204.75331115722656 457.6138000488281" stroke-width="6.232048511505127" fill="none" stroke="rgb(0, 0, 0)" stroke-opacity="0.46579483" stroke-linecap="round" stroke-linejoin="round"/>
    <path d="M 348.52520751953125 471.50274658203125 C 400.53790283203125 471.80035400390625 424.1715393066406 481.32177734375 508.26025390625 491.8825378417969 C 443.1830749511719 467.3514099121094 392.0489501953125 481.5773620605469 430.6242980957031 455.1707458496094 C 410.2286071777344 438.5514831542969 415.4110412597656 474.8190002441406 442.8534851074219 475.5195617675781 C 395.4965515136719 467.44744873046875 347.52777099609375 497.4225158691406 419.2879638671875 491.92169189453125" stroke-width="23.04834747314453" fill="none" stroke="rgb(0, 0, 0)" stroke-opacity="0.38917762" stroke-linecap="round" stroke-linejoin="round"/>
    <path d="M 559.851806640625 245.55979919433594 C 593.141357421875 211.73382568359375 576.17822265625 255.4682159423828 574.1138305664062 258.63812255859375 C 569.945068359375 242.88714599609375 595.605224609375 252.280517578125 554.5922241210938 269.42132568359375 C 555.5487670898438 247.52316284179688 553.3309936523438 277.12628173828125 535.2129516601562 238.2567138671875 C 514.6060791015625 252.3590087890625 511.8028564453125 268.8736877441406 490.2057189941406 280.685546875" stroke-width="-27.146638870239258" fill="none" stroke="rgb(0, 0, 0)" stroke-opacity="0.39054346" stroke-linecap="round" stroke-linejoin="round"/>
    <path d="M 465.2110900878906 255.2431182861328 C 476.1492004394531 246.71572875976562 454.43511962890625 226.1121826171875 388.1484069824219 162.69383239746094 C 420.65447998046875 156.6286163330078 427.8603820800781 95.8639907836914 477.55712890625 101.0923843383789 C 498.302490234375 155.53289794921875 465.4408874511719 141.63446044921875 408.4549255371094 62.377891540527344 C 379.35345458984375 24.25618553161621 356.2040100097656 62.4881477355957 337.9772033691406 76.39657592773438" stroke-width="-54.136409759521484" fill="none" stroke="rgb(0, 0, 0)" stroke-opacity="0.55070317" stroke-linecap="round" stroke-linejoin="round"/>
    <path d="M 533.5492553710938 186.29725646972656 C 543.003173828125 146.3230438232422 506.5037536621094 146.55055236816406 529.6348266601562 152.33314514160156 C 514.6084594726562 129.458251953125 515.5304565429688 112.67321014404297 499.60906982421875 118.49778747558594 C 536.106689453125 156.90997314453125 545.431884765625 186.38609313964844 561.4453125 168.38294982910156 C 560.551513671875 125.09552764892578 585.9696044921875 85.66325378417969 595.9548950195312 73.99453735351562" stroke-width="-6.401525497436523" fill="none" stroke="rgb(0, 0, 0)" stroke-opacity="0.15969364" stroke-linecap="round" stroke-linejoin="round"/>
    <path d="M 319.2088928222656 407.5521545410156 C 335.5267028808594 422.9054260253906 368.67706298828125 402.10162353515625 332.6076354980469 403.0985107421875 C 253.45761108398438 414.2474365234375 254.1358642578125 375.0336608886719 281.9007263183594 399.438720703125 C 240.3628387451172 373.2148742675781 238.25640869140625 389.8326721191406 184.8924560546875 422.1902770996094 C 69.98924255371094 444.8772277832031 89.77400970458984 384.2290344238281 271.1743469238281 411.45623779296875" stroke-width="35.22943878173828" fill="none" stroke="rgb(0, 0, 0)" stroke-opacity="0.5358155" stroke-linecap="round" stroke-linejoin="round"/>
    <path d="M 171.70484924316406 486.50335693359375 C 138.868896484375 501.2272033691406 180.75418090820312 506.5762023925781 118.30071258544922 505.13726806640625 C 104.34689331054688 474.5692443847656 104.10250854492188 493.4632873535156 78.65032958984375 511.81719970703125 C 213.18719482421875 515.962890625 312.3639831542969 510.3275451660156 176.544189453125 508.2569580078125 C 233.0163116455078 552.166015625 211.97244262695312 493.1027526855469 268.6326904296875 502.6328430175781" stroke-width="24.201622009277344" fill="none" stroke="rgb(0, 0, 0)" stroke-opacity="0.9643695" stroke-linecap="round" stroke-linejoin="round"/>
    <path d="M 15.169171333312988 88.11351013183594 C 3.897488832473755 92.8306655883789 12.324501037597656 124.24214172363281 33.51933670043945 121.75690460205078 C 49.2132682800293 103.88842010498047 75.49852752685547 90.22632598876953 40.99751281738281 118.2854232788086 C 37.16548156738281 132.42530822753906 24.79616928100586 100.73602294921875 -60.32123947143555 58.72890090942383 C -14.784444808959961 -52.66104507446289 30.90756607055664 -38.26028823852539 92.63540649414062 -12.905182838439941" stroke-width="-24.04888153076172" fill="none" stroke="rgb(0, 0, 0)" stroke-opacity="0.4622992" stroke-linecap="round" stroke-linejoin="round"/>
    <path d="M 165.82606506347656 391.20623779296875 C 260.6853332519531 416.0655212402344 241.9404296875 407.67816162109375 245.9723358154297 370.97357177734375 C 256.9694519042969 413.79180908203125 196.6002960205078 356.77667236328125 203.57191467285156 471.4784240722656 C 206.58706665039062 481.0723876953125 280.4985656738281 454.0751037597656 269.4076843261719 487.8666687011719 C 223.7122802734375 467.99261474609375 245.06814575195312 483.83953857421875 237.537353515625 427.0168151855469" stroke-width="19.458471298217773" fill="none" stroke="rgb(0, 0, 0)" stroke-opacity="0.3969672" stroke-linecap="round" stroke-linejoin="round"/>
    <path d="M 425.0648498535156 518.0304565429688 C 395.251220703125 534.2655639648438 387.6613464355469 515.4837036132812 380.0545654296875 586.9697875976562 C 414.0158996582031 646.3281860351562 417.0709228515625 672.280517578125 441.7469787597656 661.8735961914062 C 453.908447265625 618.1953735351562 434.8231506347656 603.49169921875 440.36749267578125 612.8031616210938 C 451.3038330078125 610.0253295898438 453.8411560058594 612.699462890625 463.6007995605469 633.62890625" stroke-width="-26.98716163635254" fill="none" stroke="rgb(0, 0, 0)" stroke-opacity="0.060688984" stroke-linecap="round" stroke-linejoin="round"/>
    <path d="M 216.04013061523438 256.2850646972656 C 255.94801330566406 254.2620086669922 253.33958435058594 258.8966064453125 356.6051940917969 270.06561279296875 C 361.3065185546875 283.964111328125 332.90924072265625 323.31524658203125 330.68572998046875 331.8575744628906 C 340.4903564453125 344.0270690917969 327.57574462890625 312.339599609375 368.90740966796875 265.1306457519531 C 300.68695068359375 234.6383056640625 331.8487548828125 297.2214050292969 341.6429443359375 217.3690185546875" stroke-width="14.05441951751709" fill="none" stroke="rgb(0, 0, 0)" stroke-opacity="0.4541577" stroke-linecap="round" stroke-linejoin="round"/>
    <path d="M 309.9983215332031 469.7950134277344 C 293.32098388671875 437.32061767578125 294.6054992675781 411.75701904296875 312.8389892578125 443.9579772949219 C 291.49566650390625 428.5389404296875 292.0780334472656 367.09136962890625 417.6007080078125 408.3906555175781 C 222.33030700683594 437.643310546875 152.55551147460938 386.5960998535156 249.8153533935547 391.2236328125 C 391.71728515625 396.5283508300781 378.3724060058594 378.7052307128906 378.2581481933594 418.47552490234375" stroke-width="25.137439727783203" fill="none" stroke="rgb(0, 0, 0)" stroke-opacity="0.91484773" stroke-linecap="round" stroke-linejoin="round"/>
    <path d="M 567.6474609375 237.7263946533203 C 600.3056030273438 225.74166870117188 645.3104248046875 207.75814819335938 694.6588745117188 194.96092224121094 C 635.04052734375 127.90472412109375 638.203857421875 140.0520477294922 675.9929809570312 157.05615234375 C 675.6787719726562 175.40284729003906 625.3015747070312 172.0948944091797 632.387451171875 206.581298828125 C 610.2272338867188 228.17822265625 579.8694458007812 241.44879150390625 573.4828491210938 242.3769989013672" stroke-width="-16.89859390258789" fill="none" stroke="rgb(0, 0, 0)" stroke-opacity="0.86090285" stroke-linecap="round" stroke-linejoin="round"/>
    <path d="M 211.71441650390625 133.05125427246094 C 164.25076293945312 136.7028045654297 146.76837158203125 116.40282440185547 194.20030212402344 124.71440124511719 C 278.8377990722656 99.15914154052734 271.4916076660156 81.75161743164062 185.4337158203125 167.48536682128906 C 100.79350280761719 204.5317840576172 99.33668518066406 168.91595458984375 49.74565124511719 106.84864807128906 C 131.98052978515625 -47.25284957885742 140.04283142089844 -31.77900505065918 135.36192321777344 -40.80423355102539" stroke-width="-68.1565933227539" fill="none" stroke="rgb(0, 0, 0)" stroke-opacity="0.30392742" stroke-linecap="round" stroke-linejoin="round"/>
    <path d="M 263.99945068359375 70.5064468383789 C 256.596435546875 103.85404968261719 277.427734375 122.10645294189453 264.0222473144531 152.1368865966797 C 245.1664581298828 107.60391998291016 247.60877990722656 86.01979064941406 265.2552490234375 68.11035919189453 C 262.0907897949219 33.97304153442383 233.844482421875 8.45624828338623 273.7190856933594 -6.77717399597168 C 285.35919189453125 8.704545974731445 256.5984802246094 46.057777404785156 262.1236267089844 40.672019958496094" stroke-width="12.524153709411621" fill="none" stroke="rgb(0, 0, 0)" stroke-opacity="0.42511502" stroke-linecap="round" stroke-linejoin="round"/>
    <path d="M 633.4945678710938 70.03886413574219 C 610.2210693359375 79.2662124633789 593.6961669921875 99.58895111083984 607.5980834960938 82.25935363769531 C 606.9073486328125 61.80342102050781 633.4992065429688 65.44288635253906 659.9009399414062 37.84907913208008 C 658.0015258789062 57.358116149902344 637.9869384765625 65.383544921875 628.624755859375 74.577392578125 C 608.4307250976562 75.16563415527344 587.48291015625 103.01446533203125 573.520263671875 111.12487030029297" stroke-width="1.175176978111267" fill="none" stroke="rgb(0, 0, 0)" stroke-opacity="0.0523927" stroke-linecap="round" stroke-linejoin="round"/>
    <path d="M 235.9344024658203 538.767822265625 C 271.3917541503906 515.0410766601562 247.48924255371094 517.15869140625 197.60009765625 531.353515625 C 158.5933837890625 529.700439453125 165.95265197753906 540.2843017578125 228.65806579589844 523.9754028320312 C 303.63677978515625 523.6173706054688 332.02313232421875 537.1490478515625 289.57049560546875 534.7063598632812 C 322.5343322753906 543.8475952148438 329.92645263671875 597.8681030273438 323.73712158203125 609.5039672851562" stroke-width="-19.32346534729004" fill="none" stroke="rgb(0, 0, 0)" stroke-opacity="0.42972755" stroke-linecap="round" stroke-linejoin="round"/>
    <path d="M 533.529052734375 48.04149627685547 C 520.3034057617188 68.68917846679688 541.15625 58.54659652709961 561.6314697265625 31.43748664855957 C 511.03546142578125 58.44907760620117 543.0309448242188 54.373416900634766 544.5352783203125 40.81296157836914 C 555.5809326171875 -13.257896423339844 552.6151123046875 -19.114673614501953 539.3817138671875 -6.182676315307617 C 561.6748046875 -16.860761642456055 604.7923583984375 -31.429418563842773 597.1376342773438 -18.813411712646484" stroke-width="-5.9527907371521" fill="none" stroke="rgb(0, 0, 0)" stroke-opacity="0.94407696" stroke-linecap="round" stroke-linejoin="round"/>
    <path d="M 232.76283264160156 265.100830078125 C 197.94314575195312 180.35276794433594 253.10275268554688 194.90835571289062 246.77755737304688 150.09335327148438 C 133.29588317871094 150.72030639648438 219.05589294433594 161.42088317871094 250.69850158691406 103.25272369384766 C 246.82211303710938 155.42811584472656 273.17535400390625 113.39619445800781 334.28009033203125 139.00270080566406 C 301.9478759765625 141.7437286376953 304.29302978515625 153.97567749023438 380.8743896484375 132.97491455078125" stroke-width="19.709545135498047" fill="none" stroke="rgb(0, 0, 0)" stroke-opacity="0.90705675" stroke-linecap="round" stroke-linejoin="round"/>
    <path d="M 133.46047973632812 221.5922393798828 C 246.01663208007812 224.38876342773438 219.505859375 204.64779663085938 247.58424377441406 169.9631805419922 C 250.73458862304688 144.78533935546875 217.01429748535156 124.59410095214844 240.81002807617188 128.17605590820312 C 294.2479248046875 152.5042266845703 310.55877685546875 142.8693389892578 310.2785339355469 146.49905395507812 C 380.1709899902344 133.1673126220703 385.2362365722656 124.022216796875 381.7979736328125 130.31690979003906" stroke-width="19.73326873779297" fill="none" stroke="rgb(0, 0, 0)" stroke-opacity="0.58832234" stroke-linecap="round" stroke-linejoin="round"/>
    <path d="M 593.1380004882812 235.79490661621094 C 569.573974609375 236.45751953125 561.762451171875 214.05307006835938 550.052978515625 250.48458862304688 C 573.1605834960938 240.1153106689453 559.03515625 243.53652954101562 561.4567260742188 279.9386901855469 C 560.6353759765625 287.219970703125 577.6445922851562 282.4845886230469 655.3868408203125 278.3307800292969 C 644.975830078125 322.232666015625 599.943359375 319.4027099609375 590.1294555664062 338.4007568359375" stroke-width="-28.874366760253906" fill="none" stroke="rgb(0, 0, 0)" stroke-opacity="0.15428464" stroke-linecap="round" stroke-linejoin="round"/>
    <path d="M 30.83277130126953 609.208984375 C 6.693404674530029 635.7354736328125 4.875638484954834 661.388671875 28.412677764892578 676.037109375 C -7.649007320404053 628.7200927734375 -23.963878631591797 651.03271484375 -8.533106803894043 654.8063354492188 C -16.610361099243164 676.9091796875 -10.796696662902832 695.7830200195312 -33.43423080444336 716.5137329101562 C -9.088066101074219 742.390869140625 -32.837074279785156 741.3121948242188 -17.4289493560791 750.9075317382812" stroke-width="5.077024459838867" fill="none" stroke="rgb(0, 0, 0)" stroke-opacity="0.6135846" stroke-linecap="round" stroke-linejoin="round"/>
    <path d="M 611.03857421875 31.48076820373535 C 561.7175903320312 53.63750457763672 574.4083862304688 67.0474624633789 595.4613647460938 30.214658737182617 C 633.70556640625 1.5237566232681274 636.5667724609375 21.466259002685547 633.1557006835938 12.190757751464844 C 587.4737548828125 -17.221080780029297 592.7139892578125 -10.401026725769043 574.0540161132812 -14.897164344787598 C 532.5479125976562 -32.0643196105957 522.84716796875 -19.239831924438477 529.8011474609375 -7.95673942565918" stroke-width="-3.926551342010498" fill="none" stroke="rgb(0, 0, 0)" stroke-opacity="0.7174886" stroke-linecap="round" stroke-linejoin="round"/>
    <path d="M 646.7197265625 465.980224609375 C 614.7359008789062 447.9528503417969 584.1866455078125 434.9818115234375 516.5372314453125 439.55145263671875 C 512.2410888671875 453.0351867675781 551.9365844726562 474.6073303222656 566.3935546875 463.5561828613281 C 524.1765747070312 469.4518127441406 464.9684143066406 473.0329895019531 442.69390869140625 479.13543701171875 C 509.16796875 472.6886901855469 513.0614624023438 442.7089538574219 534.0247802734375 475.273681640625" stroke-width="29.243576049804688" fill="none" stroke="rgb(0, 0, 0)" stroke-opacity="0.33436713" stroke-linecap="round" stroke-linejoin="round"/>
    <path d="M 475.1433410644531 166.7574462890625 C 481.9224548339844 187.958740234375 478.2972106933594 176.98776245117188 425.793701171875 237.6096649169922 C 383.47821044921875 221.07492065429688 358.6749267578125 192.80567932128906 356.39288330078125 137.09214782714844 C 456.22412109375 151.23472595214844 434.085693359375 146.05320739746094 456.0838623046875 120.27064514160156 C 499.1986389160156 93.8652572631836 473.6349792480469 103.16299438476562 468.9432067871094 107.7835464477539" stroke-width="-38.96216583251953" fill="none" stroke="rgb(0, 0, 0)" stroke-opacity="0.13850735" stroke-linecap="round" stroke-linejoin="round"/>
    <path d="M 321.27777099609375 465.8593444824219 C 209.5093231201172 474.7142333984375 181.93951416015625 476.43890380859375 198.62850952148438 405.8685607910156 C 281.2665710449219 424.70086669921875 324.4273376464844 445.3106689453125 304.5546875 418.8237609863281 C 265.7309875488281 383.2330322265625 207.20816040039062 432.9964904785156 150.1243896484375 412.9306945800781 C 219.7731475830078 393.2964172363281 232.1544952392578 407.4448547363281 250.1588134765625 345.8062438964844" stroke-width="11.69267463684082" fill="none" stroke="rgb(0, 0, 0)" stroke-opacity="0.20963532" stroke-linecap="round" stroke-linejoin="round"/>
    <path d="M 124.81783294677734 292.2618408203125 C 133.83953857421875 293.6963806152344 131.52687072753906 281.7231750488281 102.78861999511719 301.98681640625 C 128.96315002441406 328.4223937988281 133.2692413330078 313.7471923828125 176.20065307617188 338.61566162109375 C 204.7228546142578 394.49493408203125 183.1669158935547 485.45184326171875 -72.4372787475586 480.7132873535156 C -78.20301055908203 172.9771728515625 -11.186727523803711 206.98715209960938 51.9428596496582 211.70590209960938" stroke-width="-88.31819152832031" fill="none" stroke="rgb(0, 0, 0)" stroke-opacity="0.67592466" stroke-linecap="round" stroke-linejoin="round"/>
    <path d="M 630.3340454101562 464.1502990722656 C 523.2896728515625 465.9791564941406 510.6996765136719 478.71728515625 533.3405151367188 481.6706237792969 C 528.11328125 498.4718933105469 570.9838256835938 458.73046875 648.4529418945312 496.82843017578125 C 505.5068054199219 498.48211669921875 500.6416015625 512.9865112304688 533.4583740234375 495.1201171875 C 519.3684692382812 505.5594482421875 489.4980163574219 553.6536865234375 492.0317077636719 505.024169921875" stroke-width="22.412094116210938" fill="none" stroke="rgb(0, 0, 0)" stroke-opacity="0.89247036" stroke-linecap="round" stroke-linejoin="round"/>
    <path d="M 516.4984130859375 519.3701782226562 C 418.4809875488281 516.1431274414062 348.6197204589844 514.8208618164062 392.0027160644531 515.3924560546875 C 390.9508056640625 543.8925170898438 397.5380859375 609.2981567382812 424.19970703125 617.9752807617188 C 445.1998291015625 549.136962890625 410.80255126953125 521.9028930664062 401.2040100097656 533.8392944335938 C 406.84417724609375 514.9845581054688 418.66864013671875 527.1263427734375 414.2818908691406 552.1026000976562" stroke-width="-11.205875396728516" fill="none" stroke="rgb(0, 0, 0)" stroke-opacity="0.20980285" stroke-linecap="round" stroke-linejoin="round"/>
    <path d="M 245.3457794189453 264.76251220703125 C 242.46377563476562 317.3045654296875 263.80572509765625 312.9608459472656 232.0966033935547 254.36016845703125 C 191.4412841796875 259.11468505859375 241.4719696044922 249.74745178222656 283.0924987792969 254.56846618652344 C 377.9914245605469 236.41510009765625 353.9346618652344 231.50144958496094 256.69415283203125 250.9822235107422 C 274.37274169921875 235.3255157470703 272.5130920410156 245.22723388671875 173.55352783203125 277.62091064453125" stroke-width="15.647513389587402" fill="none" stroke="rgb(0, 0, 0)" stroke-opacity="0.27145708" stroke-linecap="round" stroke-linejoin="round"/>
    <path d="M 362.2831726074219 225.1506805419922 C 410.3866882324219 214.17013549804688 380.7361755371094 202.3329315185547 306.7734375 220.60089111328125 C 325.26983642578125 262.1531677246094 357.3456726074219 265.251953125 357.5114440917969 239.6143798828125 C 367.7789611816406 181.16937255859375 367.917236328125 148.4683074951172 445.8132019042969 198.8828887939453 C 406.4318542480469 211.33665466308594 422.3912353515625 183.35952758789062 427.0849609375 182.3138427734375" stroke-width="-40.775630950927734" fill="none" stroke="rgb(0, 0, 0)" stroke-opacity="0.1826308" stroke-linecap="round" stroke-linejoin="round"/>
    <path d="M 435.95733642578125 322.41473388671875 C 390.31402587890625 345.99169921875 329.193603515625 300.8464050292969 343.8880310058594 329.07537841796875 C 404.2170715332031 361.4152526855469 411.5192565917969 305.90460205078125 361.3555603027344 336.2181091308594 C 368.6849365234375 443.81439208984375 369.7144470214844 391.7865905761719 306.28851318359375 384.7604675292969 C 275.0065612792969 391.8883972167969 302.6582336425781 393.0470275878906 169.6778106689453 397.99407958984375" stroke-width="16.662263870239258" fill="none" stroke="rgb(0, 0, 0)" stroke-opacity="0.64124537" stroke-linecap="round" stroke-linejoin="round"/>
    <path d="M 172.75018310546875 322.654541015625 C 304.1637268066406 319.7896728515625 303.9947509765625 344.01190185546875 245.01499938964844 305.7231750488281 C 240.08058166503906 325.13433837890625 219.72515869140625 345.5797119140625 208.07916259765625 346.5753479003906 C 166.06727600097656 321.4454040527344 121.6576919555664 335.759765625 184.8970184326172 345.0480651855469 C 151.25828552246094 358.5006408691406 145.4791717529297 350.6252746582031 164.03427124023438 433.1275939941406" stroke-width="16.24158477783203" fill="none" stroke="rgb(0, 0, 0)" stroke-opacity="0.25943696" stroke-linecap="round" stroke-linejoin="round"/>
    <path d="M 183.3462371826172 543.5468139648438 C 178.84991455078125 547.2434692382812 191.16502380371094 561.2444458007812 177.6320037841797 524.4332885742188 C 116.39463806152344 522.2273559570312 94.30643463134766 546.3539428710938 110.72787475585938 514.8593139648438 C 120.53282165527344 558.8987426757812 108.34601593017578 583.2059326171875 113.49983215332031 643.51953125 C 67.36607360839844 616.8896484375 40.21738815307617 627.871337890625 17.599504470825195 607.3067626953125" stroke-width="-11.591808319091797" fill="none" stroke="rgb(0, 0, 0)" stroke-opacity="0.08974238" stroke-linecap="round" stroke-linejoin="round"/>
    <path d="M 557.8391723632812 177.0782012939453 C 563.7164306640625 144.4715118408203 589.6915893554688 124.62271881103516 545.7225341796875 156.80966186523438 C 543.370849609375 138.4027862548828 570.891845703125 123.17708587646484 598.5729370117188 108.28431701660156 C 602.2971801757812 115.01366424560547 604.2716064453125 96.44019317626953 635.3275146484375 67.31722259521484 C 560.4229736328125 87.82967376708984 598.27880859375 109.35626220703125 620.7849731445312 66.63949584960938" stroke-width="-18.383651733398438" fill="none" stroke="rgb(0, 0, 0)" stroke-opacity="0.9025229" stroke-linecap="round" stroke-linejoin="round"/>
    <path d="M 137.20016479492188 278.6439514160156 C 250.64732360839844 275.6370849609375 246.36654663085938 259.8734436035156 287.640625 260.7442321777344 C 202.69256591796875 256.4649963378906 221.3134307861328 264.68109130859375 252.7917938232422 243.28909301757812 C 206.3908233642578 256.86767578125 247.61123657226562 258.2947998046875 331.0701599121094 262.9890441894531 C 324.40484619140625 199.58798217773438 357.3365173339844 188.15928649902344 394.36041259765625 191.10699462890625" stroke-width="21.859628677368164" fill="none" stroke="rgb(0, 0, 0)" stroke-opacity="0.3463147" stroke-linecap="round" stroke-linejoin="round"/>
    <path d="M 147.9193115234375 333.4016418457031 C 124.19512939453125 347.1223449707031 120.73878479003906 342.2802734375 106.87979888916016 343.3233642578125 C 126.3394775390625 346.63677978515625 175.67359924316406 370.5234069824219 204.90211486816406 344.21551513671875 C 126.96798706054688 369.84228515625 163.12921142578125 329.93316650390625 162.79319763183594 337.9350280761719 C 241.57203674316406 309.32342529296875 284.26751708984375 354.3473205566406 143.0380859375 338.6049499511719" stroke-width="18.170047760009766" fill="none" stroke="rgb(0, 0, 0)" stroke-opacity="0.9389278" stroke-linecap="round" stroke-linejoin="round"/>
    <path d="M 357.6827392578125 -13.560166358947754 C 362.51751708984375 -4.608699321746826 365.5733337402344 -48.06798553466797 260.8786315917969 -67.17772674560547 C 255.17123413085938 66.40040588378906 266.26177978515625 70.5804443359375 266.9739074707031 94.28462982177734 C 287.2603454589844 116.06122589111328 310.4732360839844 126.21617889404297 337.9118347167969 135.61366271972656 C 282.702392578125 142.7174530029297 275.5978088378906 151.37437438964844 252.95970153808594 87.49800109863281" stroke-width="22.780677795410156" fill="none" stroke="rgb(0, 0, 0)" stroke-opacity="0.9414352" stroke-linecap="round" stroke-linejoin="round"/>
    <path d="M 610.2072143554688 73.14889526367188 C 626.4415893554688 74.125 656.4293212890625 90.25383758544922 657.6019897460938 84.45974731445312 C 651.4219970703125 111.11969757080078 649.49560546875 90.74009704589844 653.7540283203125 74.83739471435547 C 661.4338989257812 99.80619812011719 691.0648803710938 78.29830932617188 705.7637939453125 50.24506759643555 C 688.5744018554688 23.76876449584961 693.364501953125 36.94136428833008 699.29345703125 15.880555152893066" stroke-width="5.221818447113037" fill="none" stroke="rgb(0, 0, 0)" stroke-opacity="0.10586749" stroke-linecap="round" stroke-linejoin="round"/>
    <path d="M 148.6214141845703 374.7770690917969 C 160.51156616210938 293.52215576171875 183.62753295898438 316.3421630859375 176.06639099121094 330.01019287109375 C 136.41531372070312 320.5149841308594 210.12973022460938 319.09173583984375 169.55455017089844 311.5387878417969 C 136.2913818359375 354.23638916015625 144.77586364746094 324.319091796875 151.3357391357422 334.38226318359375 C 150.9445343017578 351.7272644042969 139.904052734375 421.9700622558594 192.12039184570312 401.09283447265625" stroke-width="-24.185291290283203" fill="none" stroke="rgb(0, 0, 0)" stroke-opacity="0.30420354" stroke-linecap="round" stroke-linejoin="round"/>
    <path d="M 132.1761932373047 287.7511901855469 C 283.01953125 264.55804443359375 320.97406005859375 256.6737060546875 259.80023193359375 254.4490203857422 C 162.66583251953125 198.9679718017578 197.39169311523438 187.62413024902344 232.33099365234375 232.7054901123047 C 192.63662719726562 280.428466796875 234.71217346191406 281.7969055175781 243.2716827392578 225.6147003173828 C 199.3252410888672 164.61573791503906 224.73092651367188 210.6179962158203 382.52972412109375 194.08787536621094" stroke-width="24.872941970825195" fill="none" stroke="rgb(0, 0, 0)" stroke-opacity="0.7674247" stroke-linecap="round" stroke-linejoin="round"/>
    <path d="M 95.162353515625 235.03248596191406 C 102.39364624023438 229.3916778564453 87.4905776977539 226.86447143554688 112.79945373535156 205.33164978027344 C 132.88851928710938 193.46461486816406 158.67759704589844 174.0570831298828 157.37815856933594 285.39569091796875 C 184.8594207763672 289.2620544433594 206.53929138183594 246.43679809570312 225.29591369628906 151.3334197998047 C 136.48178100585938 145.86160278320312 134.65769958496094 167.8160400390625 165.92640686035156 165.99166870117188" stroke-width="-38.73792266845703" fill="none" stroke="rgb(0, 0, 0)" stroke-opacity="0.48426738" stroke-linecap="round" stroke-linejoin="round"/>
    <path d="M 532.77392578125 229.6092071533203 C 517.010986328125 245.15753173828125 514.684326171875 244.51869201660156 537.8602294921875 240.72450256347656 C 568.1174926757812 298.6594543457031 545.9378662109375 287.3567810058594 554.96923828125 306.1649475097656 C 590.1027221679688 303.4532470703125 607.344970703125 254.36068725585938 620.8877563476562 251.70523071289062 C 612.953125 281.2477111816406 631.9765014648438 250.6480255126953 629.1091918945312 238.18641662597656" stroke-width="-41.5657958984375" fill="none" stroke="rgb(0, 0, 0)" stroke-opacity="0.9712626" stroke-linecap="round" stroke-linejoin="round"/>
    <path d="M 137.00909423828125 170.474853515625 C 153.60015869140625 151.07415771484375 190.67213439941406 190.1449432373047 172.1920166015625 210.68824768066406 C 171.22071838378906 224.31983947753906 224.4351806640625 200.73641967773438 252.06202697753906 163.50486755371094 C 216.32046508789062 136.48268127441406 270.16949462890625 148.94532775878906 237.34483337402344 193.77284240722656 C 221.3038330078125 171.4180145263672 253.03273010253906 194.9974365234375 326.04754638671875 183.26409912109375" stroke-width="-22.306453704833984" fill="none" stroke="rgb(0, 0, 0)" stroke-opacity="0.4398392" stroke-linecap="round" stroke-linejoin="round"/>
  </g>
</svg>
