<?xml version="1.0" ?>
<svg xmlns="http://www.w3.org/2000/svg" version="1.1" width="600" height="600">
  <defs/>
  <g>
    <path d="M 557.6991577148438 177.7936248779297 C 572.48193359375 173.59205627441406 558.7950439453125 191.2220458984375 559.2894287109375 171.47640991210938 C 569.1282348632812 160.30397033691406 592.74365234375 139.10838317871094 582.5602416992188 194.0377960205078 C 594.6844482421875 147.23037719726562 570.6780395507812 145.41268920898438 547.2874145507812 190.1469268798828 C 552.2532958984375 160.9208221435547 586.8538208007812 149.16722106933594 601.3106079101562 126.2679214477539" stroke-width="9.164250373840332" fill="none" stroke="rgb(0, 0, 0)" stroke-opacity="0.7827657" stroke-linecap="round" stroke-linejoin="round"/>
    <path d="M 144.9613494873047 17.12773323059082 C 141.48825073242188 0.27291712164878845 170.60247802734375 -17.555089950561523 161.85159301757812 -13.730489730834961 C 175.18287658691406 6.787659645080566 207.24835205078125 19.351465225219727 178.20323181152344 32.40727615356445 C 100.88203430175781 103.20449829101562 91.39824676513672 70.74795532226562 173.64048767089844 108.44316864013672 C 230.51271057128906 113.02558135986328 185.87457275390625 54.977561950683594 157.84182739257812 23.280380249023438" stroke-width="-49.0976448059082" fill="none" stroke="rgb(0, 0, 0)" stroke-opacity="0.5777915" stroke-linecap="round" stroke-linejoin="round"/>
    <path d="M 268.22772216796875 49.30992889404297 C 266.1379699707031 93.39531707763672 281.41162109375 120.5493392944336 267.43310546875 69.42256927490234 C 282.66741943359375 92.44611358642578 247.10826110839844 86.87364196777344 220.88143920898438 159.57273864746094 C 274.1083068847656 171.76292419433594 338.82073974609375 164.8116455078125 285.7123718261719 180.6812744140625 C 347.0694885253906 172.71197509765625 416.7070617675781 162.71224975585938 352.45867919921875 141.74832153320312" stroke-width="17.690044403076172" fill="none" stroke="rgb(0, 0, 0)" stroke-opacity="0.36538988" stroke-linecap="round" stroke-linejoin="round"/>
    <path d="M 607.5352172851562 345.6249084472656 C 621.6766967773438 338.1664123535156 651.951904296875 333.0904541015625 638.3154907226562 339.8283996582031 C 615.5044555664062 327.4232177734375 645.4520874023438 307.060791015625 603.6127319335938 304.4017639160156 C 619.95654296875 303.2806701660156 616.5601196289062 282.2230529785156 641.2571411132812 260.6303405761719 C 622.0060424804688 252.80726623535156 646.4564208984375 244.71835327148438 659.4630126953125 217.37469482421875" stroke-width="1.9249513149261475" fill="none" stroke="rgb(0, 0, 0)" stroke-opacity="0.7509734" stroke-linecap="round" stroke-linejoin="round"/>
    <path d="M 87.85675811767578 350.4894104003906 C 85.53431701660156 354.77313232421875 57.53678512573242 353.7013854980469 123.50579833984375 358.6116638183594 C 63.517887115478516 395.1886901855469 42.85724639892578 401.9198913574219 79.79692077636719 379.90924072265625 C 68.10103607177734 371.6248779296875 44.336978912353516 417.0494079589844 39.934085845947266 421.1528625488281 C 46.50682830810547 418.236572265625 57.59965133666992 396.7938537597656 60.35417938232422 378.1016540527344" stroke-width="-7.558368682861328" fill="none" stroke="rgb(0, 0, 0)" stroke-opacity="0.37960008" stroke-linecap="round" stroke-linejoin="round"/>
    <path d="M 389.5304870605469 58.94672775268555 C 448.5542907714844 76.20494842529297 486.8854064941406 90.93816375732422 456.784912109375 94.3298110961914 C 391.6351013183594 118.6310806274414 374.3824768066406 130.42849731445312 377.7381286621094 143.73098754882812 C 398.0870056152344 167.0250244140625 383.59295654296875 170.4641571044922 364.86138916015625 171.30184936523438 C 362.8215026855469 148.0355224609375 396.4827575683594 127.03949737548828 369.8188781738281 151.05136108398438" stroke-width="-32.53233337402344" fill="none" stroke="rgb(0, 0, 0)" stroke-opacity="0.08542902" stroke-linecap="round" stroke-linejoin="round"/>
    <path d="M 385.7373352050781 522.4347534179688 C 373.9851989746094 489.6838684082031 394.3338317871094 488.6728210449219 361.69647216796875 509.83502197265625 C 385.989990234375 516.0670776367188 346.8800354003906 486.6475524902344 352.8966369628906 541.0916137695312 C 393.01104736328125 528.4378051757812 389.0608825683594 472.8312072753906 387.9295959472656 410.89483642578125 C 410.8409729003906 461.798828125 423.26629638671875 478.2572021484375 418.3001708984375 516.7905883789062" stroke-width="-23.30959129333496" fill="none" stroke="rgb(0, 0, 0)" stroke-opacity="0.4248547" stroke-linecap="round" stroke-linejoin="round"/>
    <path d="M 388.964599609375 522.329833984375 C 413.99200439453125 519.1195678710938 403.4107971191406 477.081787109375 395.25299072265625 386.2836608886719 C 408.4547119140625 444.37591552734375 406.3938903808594 505.1925354003906 376.3810729980469 502.1883239746094 C 348.5652160644531 462.3225402832031 372.03167724609375 418.196044921875 382.76214599609375 405.9924621582031 C 284.59649658203125 400.2811584472656 220.7766876220703 384.48883056640625 244.42286682128906 425.0516662597656" stroke-width="-25.03827476501465" fill="none" stroke="rgb(0, 0, 0)" stroke-opacity="0.9587614" stroke-linecap="round" stroke-linejoin="round"/>
    <path d="M 573.66796875 411.5400695800781 C 574.9738159179688 443.9228820800781 621.4403076171875 417.8576965332031 654.5991821289062 420.1456604003906 C 635.000244140625 398.99267578125 619.9996948242188 385.9701843261719 636.532470703125 356.8327331542969 C 618.4013061523438 372.08111572265625 610.2421875 356.8406982421875 611.626220703125 348.5817565917969 C 618.47802734375 375.49993896484375 602.97265625 391.5993957519531 629.295166015625 385.45257568359375" stroke-width="-14.436135292053223" fill="none" stroke="rgb(0, 0, 0)" stroke-opacity="0.24056828" stroke-linecap="round" stroke-linejoin="round"/>
    <path d="M 136.83448791503906 182.4584197998047 C 135.68577575683594 154.21522521972656 146.76268005371094 155.29844665527344 145.761962890625 135.81393432617188 C 142.45729064941406 158.77647399902344 92.84213256835938 156.69773864746094 177.9671173095703 126.25138854980469 C 261.80499267578125 181.31427001953125 279.9320068359375 299.9921875 141.8493194580078 228.02593994140625 C -15.18761157989502 186.6466064453125 -11.103261947631836 306.36016845703125 28.611465454101562 364.1099853515625" stroke-width="-88.36790466308594" fill="none" stroke="rgb(0, 0, 0)" stroke-opacity="0.42432153" stroke-linecap="round" stroke-linejoin="round"/>
    <path d="M 80.68968200683594 346.5110168457031 C 99.68962860107422 353.656494140625 86.76915740966797 363.01678466796875 83.30964660644531 355.126953125 C 91.00222778320312 342.2635192871094 67.77980041503906 342.33489990234375 111.3444595336914 378.9115905761719 C 105.70691680908203 381.4963684082031 127.39947509765625 363.4398498535156 126.21678924560547 254.69256591796875 C 61.38155746459961 236.27479553222656 36.10675811767578 267.6463317871094 44.521156311035156 305.6358337402344" stroke-width="-48.05780792236328" fill="none" stroke="rgb(0, 0, 0)" stroke-opacity="0.80988693" stroke-linecap="round" stroke-linejoin="round"/>
    <path d="M 456.7250671386719 538.2086791992188 C 467.90557861328125 536.5323486328125 499.07769775390625 551.8317260742188 502.6268615722656 510.5899353027344 C 520.9354858398438 544.7612915039062 535.4569091796875 582.10205078125 576.039306640625 603.9476928710938 C 545.12353515625 708.3881225585938 511.3883361816406 712.9617309570312 528.528076171875 653.7185668945312 C 475.1641540527344 624.0736694335938 458.1383972167969 646.7012939453125 460.8724365234375 646.23388671875" stroke-width="-28.180641174316406" fill="none" stroke="rgb(0, 0, 0)" stroke-opacity="0.082717925" stroke-linecap="round" stroke-linejoin="round"/>
    <path d="M 261.9714660644531 19.699430465698242 C 182.27638244628906 28.535606384277344 202.2670135498047 35.60242462158203 89.96839904785156 150.59251403808594 C 142.3650665283203 187.1151123046875 187.614990234375 193.13951110839844 280.9162292480469 95.41999053955078 C 297.8247375488281 123.89112091064453 324.3048095703125 147.96234130859375 343.620361328125 147.07794189453125 C 348.7121276855469 101.0448226928711 270.46099853515625 83.83550262451172 291.9900207519531 131.93568420410156" stroke-width="-49.475345611572266" fill="none" stroke="rgb(0, 0, 0)" stroke-opacity="0.2478706" stroke-linecap="round" stroke-linejoin="round"/>
    <path d="M 242.43016052246094 395.78729248046875 C 252.970947265625 380.0025634765625 286.50128173828125 420.3559875488281 264.07080078125 330.43536376953125 C 361.71221923828125 322.5417175292969 370.154296875 350.2059631347656 345.85546875 277.31109619140625 C 362.7992248535156 283.0198669433594 383.50408935546875 254.85369873046875 349.2838134765625 317.5685119628906 C 218.7023468017578 313.33245849609375 195.99002075195312 330.96923828125 234.33351135253906 247.32205200195312" stroke-width="6.120769500732422" fill="none" stroke="rgb(0, 0, 0)" stroke-opacity="0.58306277" stroke-linecap="round" stroke-linejoin="round"/>
    <path d="M 357.011962890625 406.4902038574219 C 392.7286376953125 408.4389343261719 418.9643249511719 396.61297607421875 449.9527587890625 352.16900634765625 C 439.8497009277344 371.5799560546875 468.3255615234375 373.7391662597656 504.3147277832031 345.1009826660156 C 476.0539245605469 336.9888610839844 483.62847900390625 338.7874450683594 494.05169677734375 340.9090576171875 C 508.3260192871094 341.1808776855469 498.32763671875 333.9360046386719 482.1340026855469 347.2397766113281" stroke-width="-14.771728515625" fill="none" stroke="rgb(0, 0, 0)" stroke-opacity="0.13923869" stroke-linecap="round" stroke-linejoin="round"/>
    <path d="M -11.790443420410156 571.796630859375 C -13.784588813781738 557.0340576171875 -16.800464630126953 558.2269287109375 -35.73838424682617 573.6055908203125 C -14.49522590637207 543.0331420898438 30.457721710205078 514.4144287109375 87.0067367553711 523.0379638671875 C 56.30111312866211 517.1604614257812 95.2284927368164 531.73095703125 87.11199951171875 562.1007080078125 C 51.114219665527344 507.2779235839844 57.910675048828125 505.8963317871094 25.438249588012695 496.5558166503906" stroke-width="-5.341357231140137" fill="none" stroke="rgb(0, 0, 0)" stroke-opacity="0.65217984" stroke-linecap="round" stroke-linejoin="round"/>
    <path d="M 433.7196044921875 608.0021362304688 C 437.19970703125 633.8920288085938 428.4437561035156 654.9730224609375 416.0540466308594 641.2399291992188 C 433.60150146484375 632.0974731445312 437.316650390625 651.219970703125 424.3836364746094 665.8118286132812 C 432.36474609375 648.3165893554688 446.84796142578125 619.754638671875 445.69488525390625 610.6739501953125 C 424.77716064453125 605.4993286132812 404.3307800292969 596.082763671875 378.9785461425781 576.3035888671875" stroke-width="-30.437686920166016" fill="none" stroke="rgb(0, 0, 0)" stroke-opacity="0.17903624" stroke-linecap="round" stroke-linejoin="round"/>
    <path d="M 464.6051025390625 250.2529754638672 C 391.87591552734375 263.72320556640625 427.72589111328125 236.83731079101562 437.28765869140625 271.2557373046875 C 357.4742736816406 281.0758972167969 342.339599609375 284.2626953125 350.16754150390625 274.75592041015625 C 334.8017578125 264.4800720214844 344.3565368652344 289.1674499511719 353.9942321777344 284.7741394042969 C 355.48699951171875 302.099853515625 354.8336181640625 322.4452819824219 354.9626770019531 290.1397705078125" stroke-width="10.580802917480469" fill="none" stroke="rgb(0, 0, 0)" stroke-opacity="0.5357188" stroke-linecap="round" stroke-linejoin="round"/>
    <path d="M 441.1581115722656 460.8595886230469 C 422.50506591796875 455.2729797363281 418.4894714355469 468.873779296875 455.4126892089844 541.7286376953125 C 481.0911560058594 538.0057373046875 432.03057861328125 514.4793090820312 413.034912109375 522.1851806640625 C 413.4048767089844 549.0823974609375 391.3873291015625 521.3590698242188 392.2578125 543.8489990234375 C 371.8996887207031 509.13671875 393.3142395019531 535.8102416992188 416.2471618652344 544.3803100585938" stroke-width="-13.81075668334961" fill="none" stroke="rgb(0, 0, 0)" stroke-opacity="0.2695996" stroke-linecap="round" stroke-linejoin="round"/>
    <path d="M 72.38985443115234 339.3039245605469 C 67.4011459350586 360.54998779296875 78.35372161865234 344.909912109375 87.1044692993164 344.547607421875 C 137.39695739746094 316.3726806640625 128.2649383544922 317.9053039550781 143.13516235351562 276.7188720703125 C 107.35663604736328 266.4913024902344 112.39060974121094 240.20501708984375 69.8995361328125 274.6997985839844 C 80.28030395507812 240.3411407470703 96.53836059570312 226.53648376464844 107.94730377197266 197.78082275390625" stroke-width="-40.73049545288086" fill="none" stroke="rgb(0, 0, 0)" stroke-opacity="0.49827117" stroke-linecap="round" stroke-linejoin="round"/>
    <path d="M 140.53155517578125 158.6638641357422 C 220.76063537597656 188.9658203125 209.89939880371094 165.00796508789062 223.9519805908203 133.54251098632812 C 264.8523864746094 96.4005126953125 251.22714233398438 111.5270767211914 228.38037109375 134.35443115234375 C 241.42776489257812 203.39825439453125 261.6119384765625 223.65147399902344 222.58383178710938 230.2945556640625 C 223.03836059570312 222.29861450195312 206.5172576904297 179.59481811523438 207.15956115722656 255.8636932373047" stroke-width="28.307401657104492" fill="none" stroke="rgb(0, 0, 0)" stroke-opacity="0.36440444" stroke-linecap="round" stroke-linejoin="round"/>
    <path d="M 149.1435089111328 472.4376220703125 C 144.6993865966797 472.583251953125 109.86251068115234 495.49969482421875 49.78500747680664 480.7269287109375 C 134.8054962158203 479.7833557128906 221.49168395996094 484.19586181640625 249.38560485839844 472.7959899902344 C 55.83418273925781 391.2474365234375 193.61927795410156 413.0870056152344 222.51683044433594 436.7523498535156 C 170.72503662109375 379.2891540527344 174.4497833251953 410.20635986328125 173.82981872558594 356.404541015625" stroke-width="50.27556610107422" fill="none" stroke="rgb(0, 0, 0)" stroke-opacity="0.3990337" stroke-linecap="round" stroke-linejoin="round"/>
    <path d="M 118.86016082763672 70.45801544189453 C 121.0619125366211 40.088375091552734 125.9558334350586 48.66514587402344 135.0513458251953 100.90811920166016 C 133.33096313476562 82.43284606933594 113.11976623535156 73.320556640625 112.29669952392578 65.47041320800781 C 111.89922332763672 69.69979095458984 87.37313842773438 75.86958312988281 130.9051971435547 70.18695068359375 C 155.1085205078125 31.842811584472656 172.2981414794922 24.50374412536621 99.63951110839844 42.87004089355469" stroke-width="-17.065385818481445" fill="none" stroke="rgb(0, 0, 0)" stroke-opacity="0.07524829" stroke-linecap="round" stroke-linejoin="round"/>
    <path d="M 463.6595153808594 35.89238739013672 C 458.62408447265625 52.112953186035156 454.4653015136719 43.20702362060547 444.6873779296875 103.00514221191406 C 474.1957092285156 36.95136642456055 435.99322509765625 -6.551369667053223 488.74932861328125 8.617681503295898 C 466.22869873046875 -32.914981842041016 482.8421325683594 -45.953250885009766 481.2939147949219 -25.81083869934082 C 459.32757568359375 -36.2030029296875 478.104736328125 -56.958072662353516 488.723388671875 -45.04558563232422" stroke-width="22.217544555664062" fill="none" stroke="rgb(0, 0, 0)" stroke-opacity="0.7201685" stroke-linecap="round" stroke-linejoin="round"/>
    <path d="M -11.790443420410156 571.796630859375 C -13.784588813781738 557.0340576171875 -16.800464630126953 558.2269287109375 -35.73838424682617 573.6055908203125 C -14.49522590637207 543.0331420898438 30.457721710205078 514.4144287109375 87.0067367553711 523.0379638671875 C 56.30111312866211 517.1604614257812 95.2284927368164 531.73095703125 87.11199951171875 562.1007080078125 C 51.114219665527344 507.2779235839844 57.910675048828125 505.8963317871094 25.438249588012695 496.5558166503906" stroke-width="-5.341357231140137" fill="none" stroke="rgb(0, 0, 0)" stroke-opacity="0.5875359" stroke-linecap="round" stroke-linejoin="round"/>
    <path d="M 301.4393005371094 219.1509246826172 C 248.68116760253906 213.44949340820312 302.0688781738281 238.49176025390625 272.7675476074219 173.786376953125 C 305.22418212890625 167.8836212158203 394.5019226074219 187.89276123046875 398.46533203125 147.90545654296875 C 316.49078369140625 171.5120086669922 367.3514709472656 193.58511352539062 371.7908630371094 148.60879516601562 C 305.8864440917969 123.9241714477539 306.3688659667969 116.0125732421875 282.9725036621094 101.3010025024414" stroke-width="8.209307670593262" fill="none" stroke="rgb(0, 0, 0)" stroke-opacity="0.75095725" stroke-linecap="round" stroke-linejoin="round"/>
    <path d="M 66.21786499023438 245.9799041748047 C 76.68766784667969 226.6702117919922 109.55168914794922 189.9358367919922 117.64129638671875 230.58285522460938 C 86.84095001220703 234.70159912109375 136.67022705078125 187.63818359375 141.7224884033203 191.85902404785156 C 174.86151123046875 250.199462890625 147.59103393554688 226.8800811767578 165.93344116210938 258.9093322753906 C 181.56565856933594 224.76113891601562 167.54049682617188 252.4705352783203 174.71847534179688 258.37261962890625" stroke-width="-33.91295623779297" fill="none" stroke="rgb(0, 0, 0)" stroke-opacity="0.494706" stroke-linecap="round" stroke-linejoin="round"/>
    <path d="M 100.16117095947266 518.6661376953125 C 117.29065704345703 553.10400390625 116.02855682373047 589.634033203125 97.71163177490234 519.3070068359375 C 90.5118179321289 517.8534545898438 81.7935562133789 534.6940307617188 55.39623260498047 572.5948486328125 C 85.75118255615234 593.596435546875 40.49688720703125 593.926513671875 34.93526077270508 571.6179809570312 C 66.6699447631836 569.573974609375 30.470504760742188 586.8352661132812 33.76610565185547 596.8449096679688" stroke-width="-31.16243553161621" fill="none" stroke="rgb(0, 0, 0)" stroke-opacity="0.44801596" stroke-linecap="round" stroke-linejoin="round"/>
    <path d="M -3.765977621078491 333.47845458984375 C -47.09010314941406 312.41461181640625 -43.395362854003906 312.3258056640625 -14.322815895080566 275.6805114746094 C 8.919559478759766 286.3035888671875 -15.638193130493164 280.211669921875 -22.112829208374023 289.15985107421875 C -3.091054677963257 264.1607360839844 -17.448522567749023 276.8235168457031 -12.296013832092285 252.98568725585938 C -32.05302047729492 274.3106994628906 -49.33362579345703 256.0705871582031 -30.759408950805664 281.0398864746094" stroke-width="1.1033225059509277" fill="none" stroke="rgb(0, 0, 0)" stroke-opacity="0.05387961" stroke-linecap="round" stroke-linejoin="round"/>
    <path d="M 48.375789642333984 514.3348388671875 C 61.119747161865234 512.1925659179688 62.46945571899414 513.2826538085938 -8.903729438781738 509.7878723144531 C -19.849319458007812 535.92431640625 -56.98046875 547.7562255859375 -44.182716369628906 513.5870361328125 C -16.70991325378418 537.2636108398438 -19.092538833618164 540.088623046875 -21.17676544189453 562.0383911132812 C 0.6853621602058411 577.4370727539062 -39.89686584472656 584.5399780273438 -11.541396141052246 594.693603515625" stroke-width="20.763599395751953" fill="none" stroke="rgb(0, 0, 0)" stroke-opacity="0.7551095" stroke-linecap="round" stroke-linejoin="round"/>
    <path d="M 558.3222045898438 356.55340576171875 C 563.0142822265625 375.4169921875 566.0618286132812 355.92626953125 605.1640625 362.46990966796875 C 621.4769287109375 268.678466796875 587.8997802734375 318.54486083984375 555.6697998046875 311.94915771484375 C 630.766357421875 294.1354064941406 644.5324096679688 317.1095886230469 606.60009765625 398.905029296875 C 588.4950561523438 354.4240417480469 629.2401733398438 340.1392822265625 609.04150390625 349.02032470703125" stroke-width="-39.693973541259766" fill="none" stroke="rgb(0, 0, 0)" stroke-opacity="0.89306426" stroke-linecap="round" stroke-linejoin="round"/>
    <path d="M 254.866943359375 94.2581787109375 C 263.0303039550781 9.749613761901855 305.7039794921875 41.52864456176758 250.36607360839844 43.1009521484375 C 260.0356750488281 58.309993743896484 306.4335021972656 53.491722106933594 247.5096893310547 41.295005798339844 C 265.03460693359375 18.995161056518555 282.1133728027344 -14.933418273925781 321.6464538574219 -45.54204177856445 C 355.83404541015625 -48.99715805053711 347.6449279785156 -37.470951080322266 368.92669677734375 -31.615718841552734" stroke-width="-15.249163627624512" fill="none" stroke="rgb(0, 0, 0)" stroke-opacity="0.8171748" stroke-linecap="round" stroke-linejoin="round"/>
    <path d="M 70.31520080566406 379.9626770019531 C 89.6932144165039 385.240966796875 113.95684814453125 385.2237854003906 172.40130615234375 355.1362609863281 C 154.6697235107422 359.38690185546875 119.27130126953125 397.4854736328125 159.81411743164062 383.3919677734375 C 146.85400390625 373.0811767578125 98.4019775390625 391.6216125488281 142.91969299316406 370.8276672363281 C 124.83222961425781 400.8190002441406 132.09165954589844 393.7225646972656 241.60226440429688 398.88818359375" stroke-width="39.44532012939453" fill="none" stroke="rgb(0, 0, 0)" stroke-opacity="0.4004694" stroke-linecap="round" stroke-linejoin="round"/>
    <path d="M 498.2999267578125 377.1989440917969 C 443.5048522949219 394.55322265625 378.4988708496094 383.1173400878906 428.5617980957031 386.7981262207031 C 410.8441467285156 398.6487121582031 369.0598449707031 392.0934753417969 409.97265625 423.7629089355469 C 393.4186706542969 417.9699401855469 448.5998229980469 420.9891662597656 357.531494140625 413.0190734863281 C 343.38507080078125 358.6949768066406 353.3556213378906 447.14337158203125 352.3623962402344 453.44256591796875" stroke-width="3.5078024864196777" fill="none" stroke="rgb(0, 0, 0)" stroke-opacity="0.45916122" stroke-linecap="round" stroke-linejoin="round"/>
    <path d="M 267.99261474609375 621.8990478515625 C 299.04925537109375 622.8184814453125 317.0873107910156 607.1769409179688 346.0368347167969 607.7318725585938 C 304.94183349609375 611.2232666015625 289.8813171386719 609.1256713867188 285.0509338378906 620.9679565429688 C 307.6138610839844 607.6666259765625 313.5190124511719 614.0175170898438 342.39642333984375 639.953125 C 345.25872802734375 619.1288452148438 366.00054931640625 616.1632080078125 385.7547912597656 640.650634765625" stroke-width="3.601567268371582" fill="none" stroke="rgb(0, 0, 0)" stroke-opacity="0.77615947" stroke-linecap="round" stroke-linejoin="round"/>
    <path d="M -10.26915168762207 164.10592651367188 C -15.692936897277832 178.9457550048828 -5.427091121673584 186.77699279785156 2.3099095821380615 175.99169921875 C 30.587703704833984 135.60287475585938 28.682537078857422 76.33499145507812 56.6585693359375 103.82185363769531 C 51.764991760253906 101.48323059082031 99.72334289550781 30.989416122436523 116.30859375 17.18755531311035 C 0.39840057492256165 94.99374389648438 -0.07744286954402924 137.0266876220703 -14.258760452270508 137.68838500976562" stroke-width="-20.328691482543945" fill="none" stroke="rgb(0, 0, 0)" stroke-opacity="0.9304" stroke-linecap="round" stroke-linejoin="round"/>
    <path d="M 496.7088317871094 467.2248229980469 C 539.5067749023438 473.8698425292969 581.91796875 469.05181884765625 579.4593505859375 521.9398193359375 C 563.3809204101562 567.0543823242188 549.4346313476562 527.8662109375 562.3877563476562 473.3576354980469 C 540.8375244140625 490.0296936035156 502.1828308105469 476.4747619628906 609.8253784179688 466.43170166015625 C 582.0914306640625 516.884765625 556.7744750976562 517.37353515625 551.2584838867188 532.0667114257812" stroke-width="30.33750343322754" fill="none" stroke="rgb(0, 0, 0)" stroke-opacity="0.42862675" stroke-linecap="round" stroke-linejoin="round"/>
    <path d="M -11.790443420410156 571.796630859375 C -13.784588813781738 557.0340576171875 -16.800464630126953 558.2269287109375 -35.73838424682617 573.6055908203125 C -14.49522590637207 543.0331420898438 30.457721710205078 514.4144287109375 87.0067367553711 523.0379638671875 C 56.30111312866211 517.1604614257812 95.2284927368164 531.73095703125 87.11199951171875 562.1007080078125 C 51.114219665527344 507.2779235839844 57.910675048828125 505.8963317871094 25.438249588012695 496.5558166503906" stroke-width="-5.341357231140137" fill="none" stroke="rgb(0, 0, 0)" stroke-opacity="0.96445745" stroke-linecap="round" stroke-linejoin="round"/>
    <path d="M 431.17449951171875 252.91726684570312 C 400.0461120605469 275.8875732421875 405.0608825683594 329.65277099609375 426.76898193359375 159.71188354492188 C 453.8146057128906 128.8253173828125 400.7661437988281 172.42665100097656 377.0751647949219 221.26573181152344 C 419.10504150390625 223.08241271972656 444.7270812988281 231.58740234375 466.1622619628906 227.54676818847656 C 472.5675964355469 240.6678924560547 463.8714904785156 253.3999481201172 457.72662353515625 281.3109130859375" stroke-width="-55.2071418762207" fill="none" stroke="rgb(0, 0, 0)" stroke-opacity="0.6696582" stroke-linecap="round" stroke-linejoin="round"/>
    <path d="M 194.36947631835938 232.8681182861328 C 198.9333038330078 231.21145629882812 216.76390075683594 240.47207641601562 197.8162078857422 270.63067626953125 C 190.37741088867188 277.0650634765625 184.99667358398438 261.69873046875 286.81561279296875 277.8299255371094 C 251.3372802734375 289.0310974121094 237.2674560546875 263.02508544921875 236.3798828125 323.6260070800781 C 185.74319458007812 379.07720947265625 177.55029296875 309.818115234375 218.31077575683594 285.4923095703125" stroke-width="18.285280227661133" fill="none" stroke="rgb(0, 0, 0)" stroke-opacity="0.25065687" stroke-linecap="round" stroke-linejoin="round"/>
    <path d="M 350.13397216796875 150.22825622558594 C 388.1344299316406 150.66912841796875 410.947509765625 142.57411193847656 381.9482727050781 75.83466339111328 C 390.6935729980469 41.4153938293457 441.43994140625 11.355834007263184 429.010986328125 -28.03849220275879 C 355.28277587890625 29.020519256591797 361.5318298339844 39.28108596801758 343.8946838378906 38.03575134277344 C 356.3428649902344 17.60855484008789 390.6620178222656 16.92584800720215 421.3201599121094 -14.750822067260742" stroke-width="-36.22837829589844" fill="none" stroke="rgb(0, 0, 0)" stroke-opacity="0.7849048" stroke-linecap="round" stroke-linejoin="round"/>
    <path d="M -6.61670446395874 221.06356811523438 C -7.085201740264893 222.0446319580078 -28.445476531982422 214.67434692382812 -22.557865142822266 226.30300903320312 C -1.182241678237915 201.65554809570312 -5.8857903480529785 202.44944763183594 -14.757790565490723 210.7340850830078 C -3.0174808502197266 226.18568420410156 -23.672901153564453 217.00830078125 -87.05789947509766 267.7508850097656 C -78.39334106445312 271.12353515625 -69.02681732177734 280.6097717285156 -1.1955054998397827 288.65771484375" stroke-width="-5.29234504699707" fill="none" stroke="rgb(0, 0, 0)" stroke-opacity="0.20493779" stroke-linecap="round" stroke-linejoin="round"/>
    <path d="M 468.7056884765625 385.873046875 C 493.0412902832031 362.60919189453125 505.16943359375 350.30694580078125 481.924072265625 374.53778076171875 C 466.5779724121094 391.7735595703125 410.0414123535156 375.81732177734375 315.6031799316406 393.3423156738281 C 417.4053649902344 407.2635192871094 476.28472900390625 375.5342102050781 492.6506042480469 365.4504699707031 C 458.9872741699219 372.169189453125 428.7023010253906 365.763916015625 354.1807556152344 326.4866943359375" stroke-width="9.724241256713867" fill="none" stroke="rgb(0, 0, 0)" stroke-opacity="0.8825922" stroke-linecap="round" stroke-linejoin="round"/>
    <path d="M 367.4808044433594 496.65032958984375 C 418.19818115234375 487.3291320800781 470.7510986328125 492.0663146972656 481.4897766113281 475.5606384277344 C 435.3826904296875 506.4975891113281 460.41796875 476.2322082519531 504.753662109375 452.5358581542969 C 511.946044921875 446.5237121582031 460.21527099609375 499.07135009765625 490.4510192871094 475.99530029296875 C 478.7388610839844 453.8611755371094 398.14617919921875 480.8950500488281 411.9421691894531 443.4804382324219" stroke-width="0.5372892618179321" fill="none" stroke="rgb(0, 0, 0)" stroke-opacity="0.32935053" stroke-linecap="round" stroke-linejoin="round"/>
    <path d="M 569.3368530273438 156.87811279296875 C 552.3973388671875 158.53021240234375 578.8194580078125 186.8231964111328 548.736572265625 190.41148376464844 C 561.6741943359375 177.7171630859375 598.485595703125 167.7178955078125 597.9022216796875 144.3920440673828 C 594.4126586914062 178.50643920898438 561.98486328125 202.29833984375 570.8302612304688 259.696044921875 C 582.9651489257812 244.4744415283203 576.5192260742188 208.72222900390625 562.2614135742188 205.21536254882812" stroke-width="-9.981395721435547" fill="none" stroke="rgb(0, 0, 0)" stroke-opacity="0.9611713" stroke-linecap="round" stroke-linejoin="round"/>
    <path d="M 16.806840896606445 487.30828857421875 C 15.999027252197266 464.94537353515625 26.369619369506836 471.1446838378906 15.285408973693848 445.2861633300781 C 6.407706260681152 489.75274658203125 12.25417709350586 556.7315063476562 -0.7738687992095947 554.3515014648438 C -86.75090026855469 563.6427001953125 -78.38883972167969 579.5602416992188 47.82561111450195 631.4447021484375 C 52.73450469970703 543.8817138671875 6.985025882720947 504.31072998046875 -25.321693420410156 516.9478149414062" stroke-width="-20.09386444091797" fill="none" stroke="rgb(0, 0, 0)" stroke-opacity="0.61456025" stroke-linecap="round" stroke-linejoin="round"/>
    <path d="M 203.7358856201172 245.3331298828125 C 254.95849609375 328.33203125 229.2467803955078 341.65582275390625 172.72671508789062 362.514892578125 C 206.4709930419922 365.9421081542969 204.36654663085938 402.9670715332031 170.9088134765625 353.53173828125 C 194.92333984375 349.8842468261719 157.9213104248047 362.4759216308594 120.57471466064453 379.59637451171875 C 150.2869110107422 406.0514221191406 146.87496948242188 392.0775146484375 284.3584289550781 404.1649169921875" stroke-width="42.87797927856445" fill="none" stroke="rgb(0, 0, 0)" stroke-opacity="0.48797035" stroke-linecap="round" stroke-linejoin="round"/>
    <path d="M 599.2562866210938 269.3931884765625 C 581.3658447265625 280.3643798828125 598.4230346679688 253.8722381591797 623.47998046875 256.54571533203125 C 632.2384643554688 239.7344512939453 655.50341796875 232.71994018554688 628.3634643554688 254.43113708496094 C 631.7713623046875 231.46722412109375 603.2383422851562 227.742431640625 614.5201416015625 247.42922973632812 C 610.0301513671875 246.01568603515625 611.7532958984375 242.79808044433594 618.14599609375 257.464111328125" stroke-width="-9.719728469848633" fill="none" stroke="rgb(0, 0, 0)" stroke-opacity="0.35596994" stroke-linecap="round" stroke-linejoin="round"/>
    <path d="M 346.6334228515625 400.9246826171875 C 372.1733703613281 404.1434020996094 336.155029296875 384.4273376464844 359.1804504394531 395.67584228515625 C 341.418212890625 401.8202209472656 365.0482482910156 394.40997314453125 221.81988525390625 401.9204406738281 C 161.89996337890625 423.503662109375 197.59288024902344 398.88653564453125 260.7256774902344 391.9895324707031 C 320.814208984375 392.6105041503906 453.57073974609375 382.5832824707031 384.8966064453125 401.45782470703125" stroke-width="20.968673706054688" fill="none" stroke="rgb(0, 0, 0)" stroke-opacity="0.8568011" stroke-linecap="round" stroke-linejoin="round"/>
    <path d="M 354.5932922363281 283.6023254394531 C 257.1152038574219 286.3673400878906 225.50672912597656 276.8853759765625 200.1341094970703 266.64044189453125 C 268.37396240234375 290.7479248046875 257.6915283203125 288.9936218261719 169.9047393798828 277.35516357421875 C 131.8407440185547 267.5144958496094 161.68695068359375 259.10784912109375 214.19869995117188 278.192626953125 C 215.8325958251953 387.95904541015625 238.14602661132812 344.5467834472656 200.81597900390625 245.8415069580078" stroke-width="36.760990142822266" fill="none" stroke="rgb(0, 0, 0)" stroke-opacity="0.5585962" stroke-linecap="round" stroke-linejoin="round"/>
    <path d="M 590.5311889648438 272.4988708496094 C 614.167724609375 237.27444458007812 633.7108154296875 238.5237274169922 650.5166015625 240.50643920898438 C 652.5108032226562 247.17242431640625 672.4197998046875 226.1277313232422 653.6461791992188 252.4291229248047 C 656.1495971679688 272.3599853515625 659.1060791015625 255.13636779785156 640.6227416992188 282.6858215332031 C 670.4949340820312 306.5621032714844 672.151611328125 314.1238708496094 688.3179931640625 340.6760559082031" stroke-width="2.352966070175171" fill="none" stroke="rgb(0, 0, 0)" stroke-opacity="0.059446678" stroke-linecap="round" stroke-linejoin="round"/>
    <path d="M 516.9995727539062 377.0965576171875 C 548.788818359375 396.0501708984375 543.1972045898438 392.76629638671875 524.678466796875 430.0043029785156 C 537.410888671875 453.7763366699219 541.1650390625 475.809326171875 491.1339111328125 514.7628173828125 C 481.4719543457031 556.1622924804688 493.7059020996094 541.4124145507812 515.0873413085938 525.2145385742188 C 495.3834228515625 540.634033203125 498.6451416015625 540.01220703125 567.8517456054688 500.31695556640625" stroke-width="-10.17923355102539" fill="none" stroke="rgb(0, 0, 0)" stroke-opacity="0.9091554" stroke-linecap="round" stroke-linejoin="round"/>
    <path d="M 386.3642578125 98.48429870605469 C 381.3349609375 80.80599975585938 398.1234130859375 93.251708984375 395.9220886230469 73.75716400146484 C 352.2514343261719 74.83683776855469 402.02685546875 86.47207641601562 405.2169189453125 53.3856086730957 C 426.324951171875 44.63954544067383 437.6107177734375 85.75643157958984 471.10137939453125 76.72956848144531 C 465.6287841796875 38.008914947509766 417.4385070800781 11.747636795043945 382.58282470703125 23.01055908203125" stroke-width="-18.478796005249023" fill="none" stroke="rgb(0, 0, 0)" stroke-opacity="0.069464594" stroke-linecap="round" stroke-linejoin="round"/>
    <path d="M 35.063785552978516 21.18356704711914 C -11.319188117980957 20.848901748657227 -32.41514587402344 22.725013732910156 35.403072357177734 39.171356201171875 C 48.76438903808594 69.90531921386719 -11.892765998840332 93.84455871582031 6.497304916381836 79.04756927490234 C 6.068342685699463 30.45152473449707 -32.7467041015625 42.8614387512207 -66.00653076171875 50.35076141357422 C -27.896406173706055 35.510868072509766 -31.452468872070312 54.81388854980469 -56.600460052490234 61.84964370727539" stroke-width="34.84159851074219" fill="none" stroke="rgb(0, 0, 0)" stroke-opacity="0.32843062" stroke-linecap="round" stroke-linejoin="round"/>
    <path d="M 434.225830078125 387.17913818359375 C 384.4830017089844 396.3717956542969 360.85772705078125 389.8293151855469 404.1447448730469 390.3944396972656 C 458.2833251953125 384.4747009277344 475.80657958984375 382.5128479003906 428.87237548828125 389.5132141113281 C 410.9716796875 386.9960021972656 422.3311462402344 394.5235595703125 429.9341735839844 384.9125671386719 C 371.2343444824219 417.4453125 414.4232177734375 387.8897399902344 265.4576416015625 395.7525634765625" stroke-width="10.248316764831543" fill="none" stroke="rgb(0, 0, 0)" stroke-opacity="0.66764903" stroke-linecap="round" stroke-linejoin="round"/>
    <path d="M 423.55963134765625 604.1390380859375 C 412.26776123046875 609.3790893554688 394.96380615234375 611.616943359375 418.2952575683594 615.8653564453125 C 373.4674377441406 599.9140014648438 369.5627136230469 605.3569946289062 406.0560607910156 611.8394775390625 C 453.4427795410156 602.4647216796875 424.8989562988281 602.1835327148438 404.2966003417969 626.0621948242188 C 361.0916442871094 644.2354125976562 367.7286682128906 621.0924682617188 345.9622802734375 610.1270141601562" stroke-width="4.909727573394775" fill="none" stroke="rgb(0, 0, 0)" stroke-opacity="0.5323222" stroke-linecap="round" stroke-linejoin="round"/>
    <path d="M 574.8301391601562 127.64630126953125 C 607.3948974609375 169.7896270751953 570.2574462890625 206.41746520996094 576.4881591796875 200.3086700439453 C 594.3109130859375 168.53765869140625 634.473876953125 146.09225463867188 663.1114501953125 190.97882080078125 C 605.4462280273438 178.531494140625 565.3866577148438 169.51402282714844 577.8845825195312 160.10464477539062 C 569.1781616210938 180.05075073242188 550.1304931640625 198.13558959960938 549.2018432617188 170.22528076171875" stroke-width="-12.44207763671875" fill="none" stroke="rgb(0, 0, 0)" stroke-opacity="0.95479095" stroke-linecap="round" stroke-linejoin="round"/>
    <path d="M 335.8606872558594 486.7810363769531 C 328.1507263183594 458.9249267578125 342.7886047363281 404.3731689453125 319.0908508300781 433.3409729003906 C 292.4561462402344 428.2132873535156 288.4776306152344 453.3464660644531 294.54595947265625 491.201416015625 C 349.9179382324219 478.989013671875 319.901611328125 428.80810546875 303.62823486328125 434.610107421875 C 309.8619079589844 407.7115478515625 306.2725830078125 461.0971984863281 311.302490234375 478.8908386230469" stroke-width="19.279756546020508" fill="none" stroke="rgb(0, 0, 0)" stroke-opacity="0.89867514" stroke-linecap="round" stroke-linejoin="round"/>
    <path d="M 146.04144287109375 166.89820861816406 C 255.87879943847656 130.353515625 258.0181579589844 83.75331115722656 269.34063720703125 86.8241195678711 C 283.0513000488281 95.99261474609375 277.8017883300781 92.1485366821289 263.1890869140625 95.46435546875 C 263.9220886230469 92.82000732421875 276.27001953125 81.5262222290039 265.4600830078125 6.68774938583374 C 270.9755859375 82.32695770263672 272.0931701660156 105.99373626708984 266.7406311035156 30.94549560546875" stroke-width="18.873022079467773" fill="none" stroke="rgb(0, 0, 0)" stroke-opacity="0.7589715" stroke-linecap="round" stroke-linejoin="round"/>
    <path d="M 450.4412841796875 28.443836212158203 C 506.7474060058594 -17.991708755493164 519.6680908203125 -23.866182327270508 573.1261596679688 -21.214853286743164 C 589.6198120117188 3.934622287750244 576.6751098632812 46.78535079956055 646.5809936523438 32.02901840209961 C 638.6412353515625 24.907154083251953 632.904541015625 48.35736083984375 617.5935668945312 159.9494171142578 C 593.3067626953125 188.99667358398438 603.7192993164062 183.85752868652344 647.6179809570312 110.3237075805664" stroke-width="-7.386209011077881" fill="none" stroke="rgb(0, 0, 0)" stroke-opacity="0.9809695" stroke-linecap="round" stroke-linejoin="round"/>
    <path d="M 338.6994934082031 190.72801208496094 C 325.9690246582031 221.8513641357422 355.7621154785156 234.1591033935547 336.1004943847656 217.4141387939453 C 308.7095642089844 216.0658416748047 305.84100341796875 222.13861083984375 314.60821533203125 216.8059539794922 C 313.1009826660156 150.75906372070312 321.40264892578125 191.9801025390625 257.4408264160156 167.31903076171875 C 344.7065734863281 157.7834930419922 380.2118835449219 194.5001678466797 423.3638000488281 141.21139526367188" stroke-width="9.321484565734863" fill="none" stroke="rgb(0, 0, 0)" stroke-opacity="0.90473914" stroke-linecap="round" stroke-linejoin="round"/>
    <path d="M 619.14208984375 471.1770935058594 C 579.0430297851562 466.91448974609375 522.655029296875 479.40863037109375 482.4143371582031 462.8113098144531 C 503.45135498046875 448.409423828125 521.0215454101562 420.394775390625 602.3290405273438 370.254150390625 C 619.9229736328125 349.49554443359375 573.6997680664062 382.1668395996094 547.395751953125 396.5182189941406 C 583.6417236328125 431.60223388671875 576.4698486328125 402.0956115722656 569.4513549804688 391.9483947753906" stroke-width="-12.84736442565918" fill="none" stroke="rgb(0, 0, 0)" stroke-opacity="0.37732342" stroke-linecap="round" stroke-linejoin="round"/>
    <path d="M 560.8629150390625 318.9276123046875 C 557.0874633789062 293.2452697753906 542.6581420898438 303.9159240722656 548.8142700195312 322.69805908203125 C 560.2830810546875 301.17340087890625 573.5291137695312 308.77001953125 537.195556640625 329.1707763671875 C 611.1270141601562 337.3108825683594 615.5440673828125 305.3487854003906 607.5648193359375 241.2520751953125 C 606.5197143554688 294.9299011230469 590.1640014648438 287.796875 592.3860473632812 276.7794189453125" stroke-width="-27.19007682800293" fill="none" stroke="rgb(0, 0, 0)" stroke-opacity="0.3579032" stroke-linecap="round" stroke-linejoin="round"/>
    <path d="M 545.6327514648438 15.266844749450684 C 546.1397094726562 -2.8294169902801514 567.0353393554688 14.792864799499512 550.354248046875 44.68017578125 C 535.1024169921875 -41.6199951171875 577.9300537109375 -30.9146728515625 601.4910888671875 10.424944877624512 C 587.3375244140625 -37.619449615478516 599.6149291992188 -16.229829788208008 611.7415161132812 -14.417150497436523 C 622.7591552734375 -3.0057179927825928 604.3488159179688 0.2948680818080902 610.9735717773438 -1.8511347770690918" stroke-width="22.42404556274414" fill="none" stroke="rgb(0, 0, 0)" stroke-opacity="0.82405174" stroke-linecap="round" stroke-linejoin="round"/>
    <path d="M 366.1022033691406 477.901611328125 C 395.8900146484375 493.8451843261719 402.14813232421875 489.1327209472656 357.47235107421875 494.98492431640625 C 323.8594665527344 505.17498779296875 348.4819030761719 505.10699462890625 379.8625793457031 492.4283752441406 C 300.90557861328125 483.4326477050781 273.935791015625 439.10052490234375 240.45706176757812 422.258056640625 C 324.4231872558594 438.1072082519531 327.987060546875 442.1488037109375 330.10906982421875 424.9608154296875" stroke-width="6.844734191894531" fill="none" stroke="rgb(0, 0, 0)" stroke-opacity="0.087910034" stroke-linecap="round" stroke-linejoin="round"/>
    <path d="M 241.64524841308594 323.35943603515625 C 164.96136474609375 362.56591796875 199.8157958984375 287.2503967285156 192.3728485107422 282.1885986328125 C 147.5150909423828 285.1173400878906 102.57831573486328 250.69898986816406 120.25869750976562 276.1656494140625 C 120.33470916748047 260.615234375 154.1218719482422 261.22528076171875 186.01646423339844 248.35923767089844 C 168.95101928710938 296.1115417480469 234.83453369140625 265.7895202636719 235.4098358154297 306.1048889160156" stroke-width="30.191280364990234" fill="none" stroke="rgb(0, 0, 0)" stroke-opacity="0.987847" stroke-linecap="round" stroke-linejoin="round"/>
    <path d="M 114.10746002197266 539.3256225585938 C 95.85189056396484 509.203125 104.03520202636719 512.180419921875 81.51950073242188 547.7651977539062 C 89.7036361694336 538.7894897460938 103.57017517089844 499.4701232910156 118.30257415771484 482.2397766113281 C 123.50263214111328 472.3944091796875 155.85780334472656 461.610107421875 196.73338317871094 483.44610595703125 C 128.1248321533203 491.286865234375 119.76900482177734 470.7198486328125 148.34991455078125 546.4967651367188" stroke-width="29.749332427978516" fill="none" stroke="rgb(0, 0, 0)" stroke-opacity="0.6040722" stroke-linecap="round" stroke-linejoin="round"/>
    <path d="M 420.6548767089844 487.8722839355469 C 407.6436462402344 465.1474914550781 442.8523254394531 475.5242919921875 464.65069580078125 483.0480041503906 C 518.460693359375 488.3804931640625 510.3747863769531 501.39617919921875 540.2901611328125 479.6937561035156 C 532.5325317382812 473.7337951660156 476.8297424316406 490.31878662109375 424.4063415527344 499.5710144042969 C 481.5552978515625 455.1629638671875 509.4753723144531 481.5972595214844 526.7843017578125 478.0568542480469" stroke-width="21.292774200439453" fill="none" stroke="rgb(0, 0, 0)" stroke-opacity="0.7962448" stroke-linecap="round" stroke-linejoin="round"/>
    <path d="M 156.86416625976562 417.47235107421875 C 180.1388702392578 481.1552734375 209.55718994140625 540.6751708984375 194.25067138671875 380.1010437011719 C 127.60884857177734 487.3445129394531 116.5738525390625 507.4961242675781 118.06377410888672 480.50750732421875 C 103.47733306884766 482.55145263671875 117.70148468017578 542.5409545898438 71.91551208496094 541.3984985351562 C 72.54413604736328 529.5018920898438 76.94965362548828 536.7286987304688 70.55365753173828 476.9388427734375" stroke-width="52.585533142089844" fill="none" stroke="rgb(0, 0, 0)" stroke-opacity="0.10351739" stroke-linecap="round" stroke-linejoin="round"/>
    <path d="M 344.23919677734375 609.8286743164062 C 358.9794006347656 617.5369262695312 330.6076965332031 637.3082275390625 331.23114013671875 649.6964721679688 C 300.5910949707031 644.1468505859375 286.86749267578125 672.91455078125 277.7366027832031 652.2496337890625 C 300.8003234863281 675.6836547851562 274.13092041015625 676.2040405273438 250.37269592285156 675.5777587890625 C 228.09365844726562 689.8233642578125 244.8885955810547 663.8427734375 270.0878601074219 650.4451293945312" stroke-width="8.163158416748047" fill="none" stroke="rgb(0, 0, 0)" stroke-opacity="0.47299218" stroke-linecap="round" stroke-linejoin="round"/>
    <path d="M 147.0855712890625 488.2087097167969 C 254.81002807617188 466.25177001953125 217.62045288085938 438.32550048828125 128.02491760253906 470.0967712402344 C 148.32955932617188 487.99267578125 105.11991882324219 481.7647705078125 46.42340087890625 491.77972412109375 C 165.2050323486328 510.8029479980469 101.44140625 469.351318359375 -4.367532730102539 482.602294921875 C 53.2169189453125 552.553466796875 56.25868225097656 516.6207275390625 82.23157501220703 484.40130615234375" stroke-width="32.185909271240234" fill="none" stroke="rgb(0, 0, 0)" stroke-opacity="0.6316841" stroke-linecap="round" stroke-linejoin="round"/>
    <path d="M -24.78990364074707 469.700927734375 C 35.32764434814453 457.07366943359375 45.908206939697266 475.2063903808594 -2.4963996410369873 464.36260986328125 C 12.680511474609375 506.7483215332031 9.856297492980957 543.0770263671875 7.565206050872803 550.5855102539062 C -23.36191177368164 565.0615844726562 10.634504318237305 552.6292114257812 55.88109588623047 538.7665405273438 C 33.815711975097656 551.4284057617188 42.641876220703125 550.3779907226562 78.62979888916016 547.5731811523438" stroke-width="16.353519439697266" fill="none" stroke="rgb(0, 0, 0)" stroke-opacity="0.19287053" stroke-linecap="round" stroke-linejoin="round"/>
    <path d="M 136.25743103027344 153.6123504638672 C 178.12521362304688 153.46278381347656 240.82542419433594 179.23086547851562 296.29827880859375 100.9665756225586 C 148.4506378173828 21.606849670410156 180.90939331054688 -27.935274124145508 188.07887268066406 7.170228958129883 C 218.94691467285156 66.06951904296875 228.81649780273438 137.8982696533203 139.2772216796875 60.82924270629883 C 69.67271423339844 56.07996368408203 72.6948471069336 78.02156066894531 45.47016906738281 137.28860473632812" stroke-width="-83.34081268310547" fill="none" stroke="rgb(0, 0, 0)" stroke-opacity="0.92293644" stroke-linecap="round" stroke-linejoin="round"/>
    <path d="M -11.790443420410156 571.796630859375 C -13.784588813781738 557.0340576171875 -16.800464630126953 558.2269287109375 -35.73838424682617 573.6055908203125 C -14.49522590637207 543.0331420898438 30.457721710205078 514.4144287109375 87.0067367553711 523.0379638671875 C 56.30111312866211 517.1604614257812 95.2284927368164 531.73095703125 87.11199951171875 562.1007080078125 C 51.114219665527344 507.2779235839844 57.910675048828125 505.8963317871094 25.438249588012695 496.5558166503906" stroke-width="-5.341357231140137" fill="none" stroke="rgb(0, 0, 0)" stroke-opacity="0.6376182" stroke-linecap="round" stroke-linejoin="round"/>
    <path d="M 91.59707641601562 532.6535034179688 C 112.34960174560547 514.6004638671875 123.0641860961914 516.5723266601562 95.13086700439453 529.4984741210938 C 88.27791595458984 556.8818359375 93.80551147460938 547.077392578125 60.761104583740234 531.2703857421875 C 59.43233108520508 556.0846557617188 95.36903381347656 562.185302734375 113.30916595458984 557.7570190429688 C 85.5326156616211 543.8482055664062 126.50248718261719 538.5006713867188 102.87701416015625 549.520751953125" stroke-width="-19.630619049072266" fill="none" stroke="rgb(0, 0, 0)" stroke-opacity="0.62181145" stroke-linecap="round" stroke-linejoin="round"/>
    <path d="M 451.6082763671875 201.9781951904297 C 428.01239013671875 200.74021911621094 410.6397705078125 191.7227325439453 416.7846984863281 156.19921875 C 410.9129333496094 151.3958282470703 415.3182067871094 174.35191345214844 469.03753662109375 235.95632934570312 C 448.5219421386719 289.93231201171875 434.5603332519531 289.5861511230469 306.3924865722656 278.4764099121094 C 280.78155517578125 282.78387451171875 298.42816162109375 279.0031433105469 326.74334716796875 265.0031433105469" stroke-width="-30.555519104003906" fill="none" stroke="rgb(0, 0, 0)" stroke-opacity="0.77718866" stroke-linecap="round" stroke-linejoin="round"/>
    <path d="M 341.82733154296875 496.44189453125 C 386.49298095703125 497.2917785644531 374.9060363769531 500.6348876953125 374.1802062988281 442.5712585449219 C 361.8544921875 481.5057067871094 371.07159423828125 492.5838317871094 370.1066589355469 493.1579284667969 C 412.68634033203125 485.1700744628906 403.29132080078125 483.52862548828125 387.716796875 500.1331481933594 C 492.83294677734375 486.95074462890625 500.65472412109375 486.32733154296875 531.8336181640625 464.00811767578125" stroke-width="8.494304656982422" fill="none" stroke="rgb(0, 0, 0)" stroke-opacity="0.5462293" stroke-linecap="round" stroke-linejoin="round"/>
    <path d="M 436.4919128417969 478.2692565917969 C 471.09051513671875 487.9790954589844 460.90625 478.2015686035156 340.4041442871094 521.5352783203125 C 338.6415710449219 560.8076782226562 361.47100830078125 556.1319580078125 389.3503723144531 578.38330078125 C 384.5459899902344 560.6566162109375 361.33087158203125 551.6395263671875 381.74957275390625 536.370361328125 C 416.6917724609375 527.9578247070312 424.0441589355469 511.9759826660156 404.5660095214844 480.52886962890625" stroke-width="-37.534828186035156" fill="none" stroke="rgb(0, 0, 0)" stroke-opacity="0.3990048" stroke-linecap="round" stroke-linejoin="round"/>
    <path d="M 340.3125305175781 175.02159118652344 C 209.55841064453125 165.80856323242188 185.3838653564453 172.2862091064453 252.65586853027344 164.244384765625 C 226.94618225097656 161.30564880371094 212.10093688964844 129.2150421142578 182.16517639160156 166.48724365234375 C 251.4545135498047 192.21339416503906 264.1465759277344 216.3342742919922 221.38809204101562 223.3643035888672 C 214.44564819335938 207.48072814941406 237.42044067382812 211.9567108154297 174.31536865234375 255.93955993652344" stroke-width="35.23897171020508" fill="none" stroke="rgb(0, 0, 0)" stroke-opacity="0.75181025" stroke-linecap="round" stroke-linejoin="round"/>
    <path d="M 626.7651977539062 292.34716796875 C 580.6533813476562 309.8387145996094 575.0618286132812 322.08172607421875 580.7568359375 326.305419921875 C 581.7242431640625 296.90716552734375 592.8287353515625 332.4193115234375 587.0687255859375 306.48577880859375 C 600.6021728515625 307.7724304199219 537.2183837890625 364.4618225097656 574.4815673828125 312.3294677734375 C 625.5368041992188 299.5954284667969 640.45751953125 282.5768127441406 643.8612670898438 301.1499328613281" stroke-width="10.887598037719727" fill="none" stroke="rgb(0, 0, 0)" stroke-opacity="0.5338847" stroke-linecap="round" stroke-linejoin="round"/>
    <path d="M 375.68365478515625 287.4119873046875 C 204.30886840820312 276.382080078125 226.2930145263672 288.2203369140625 238.22735595703125 270.2089538574219 C 353.01507568359375 274.3552551269531 419.011474609375 295.2382507324219 442.315673828125 258.70306396484375 C 349.1468811035156 241.99766540527344 325.1368408203125 210.22454833984375 332.72161865234375 225.00799560546875 C 332.2218933105469 195.9214324951172 350.7465515136719 209.58404541015625 323.98236083984375 218.38290405273438" stroke-width="11.053634643554688" fill="none" stroke="rgb(0, 0, 0)" stroke-opacity="0.70962626" stroke-linecap="round" stroke-linejoin="round"/>
    <path d="M -11.790443420410156 571.796630859375 C -13.784588813781738 557.0340576171875 -16.800464630126953 558.2269287109375 -35.73838424682617 573.6055908203125 C -14.49522590637207 543.0331420898438 30.457721710205078 514.4144287109375 87.0067367553711 523.0379638671875 C 56.30111312866211 517.1604614257812 95.2284927368164 531.73095703125 87.11199951171875 562.1007080078125 C 51.114219665527344 507.2779235839844 57.910675048828125 505.8963317871094 25.438249588012695 496.5558166503906" stroke-width="-5.341357231140137" fill="none" stroke="rgb(0, 0, 0)" stroke-opacity="0.7265429" stroke-linecap="round" stroke-linejoin="round"/>
    <path d="M 85.88276672363281 372.04034423828125 C 126.4472427368164 388.0058898925781 103.52899169921875 372.1051025390625 127.56632995605469 386.0242004394531 C 163.77999877929688 343.5379638671875 159.7130126953125 362.2688293457031 166.48690795898438 474.59814453125 C 219.0502471923828 531.9606323242188 216.56736755371094 413.2675476074219 187.3474578857422 350.9728698730469 C 159.7518768310547 364.99688720703125 191.63133239746094 348.42218017578125 173.34835815429688 351.1568298339844" stroke-width="41.03126907348633" fill="none" stroke="rgb(0, 0, 0)" stroke-opacity="0.22403212" stroke-linecap="round" stroke-linejoin="round"/>
    <path d="M -11.790443420410156 571.796630859375 C -13.784588813781738 557.0340576171875 -16.800464630126953 558.2269287109375 -35.73838424682617 573.6055908203125 C -14.49522590637207 543.0331420898438 30.457721710205078 514.4144287109375 87.0067367553711 523.0379638671875 C 56.30111312866211 517.1604614257812 95.2284927368164 531.73095703125 87.11199951171875 562.1007080078125 C 51.114219665527344 507.2779235839844 57.910675048828125 505.8963317871094 25.438249588012695 496.5558166503906" stroke-width="-5.341357231140137" fill="none" stroke="rgb(0, 0, 0)" stroke-opacity="0.2951526" stroke-linecap="round" stroke-linejoin="round"/>
  </g>
</svg>
