<?xml version="1.0" ?>
<svg xmlns="http://www.w3.org/2000/svg" version="1.1" width="600" height="600">
  <defs/>
  <g>
    <path d="M 239.12843322753906 103.84017181396484 C 338.786376953125 129.56068420410156 329.9279479980469 104.45182800292969 297.6578674316406 105.19558715820312 C 319.2640075683594 170.36399841308594 306.3287353515625 157.5423583984375 270.95819091796875 118.03485870361328 C 311.7009582519531 127.53809356689453 297.7953186035156 179.04898071289062 281.74664306640625 221.46728515625 C 287.02777099609375 276.5186462402344 357.9835205078125 234.99566650390625 273.4861755371094 259.9486083984375" stroke-width="7.932740688323975" fill="none" stroke="rgb(0, 0, 0)" stroke-opacity="0.1852687" stroke-linecap="round" stroke-linejoin="round"/>
    <path d="M 498.13482666015625 146.64480590820312 C 499.95263671875 95.66719818115234 495.24688720703125 61.30876541137695 489.8701171875 129.54754638671875 C 501.81787109375 113.35077667236328 470.9901428222656 131.32632446289062 482.53662109375 126.37651824951172 C 507.8707580566406 117.62538146972656 513.5478515625 114.69985961914062 500.4075012207031 99.80167388916016 C 503.0135803222656 130.09141540527344 459.173583984375 147.62608337402344 464.34844970703125 139.44619750976562" stroke-width="10.402872085571289" fill="none" stroke="rgb(0, 0, 0)" stroke-opacity="0.115770705" stroke-linecap="round" stroke-linejoin="round"/>
    <path d="M 499.7658386230469 334.9496765136719 C 500.217041015625 351.3202819824219 486.4801330566406 328.8038635253906 499.1888732910156 277.1231689453125 C 448.3747253417969 295.66632080078125 455.6376953125 297.6742248535156 503.2994689941406 285.2102355957031 C 482.59326171875 296.34429931640625 470.2929992675781 283.22235107421875 493.20123291015625 242.32980346679688 C 426.1954650878906 263.9200134277344 402.7464904785156 251.0073699951172 415.02593994140625 200.61508178710938" stroke-width="7.456437587738037" fill="none" stroke="rgb(0, 0, 0)" stroke-opacity="0.10705206" stroke-linecap="round" stroke-linejoin="round"/>
    <path d="M 503.2206726074219 -7.958117485046387 C 526.3789672851562 -15.753532409667969 510.03155517578125 -26.259489059448242 520.9661865234375 -6.151820659637451 C 508.35003662109375 -17.65568733215332 528.20654296875 -18.992952346801758 534.734375 -4.987016201019287 C 548.2542724609375 -21.37814712524414 522.05029296875 -23.822315216064453 517.9794921875 -17.11347770690918 C 520.9743041992188 -35.15928649902344 527.1224975585938 -28.00324249267578 536.50244140625 -11.633096694946289" stroke-width="8.358589172363281" fill="none" stroke="rgb(0, 0, 0)" stroke-opacity="0.9021547" stroke-linecap="round" stroke-linejoin="round"/>
    <path d="M 370.4197082519531 103.45393371582031 C 324.58587646484375 125.53907012939453 343.9047546386719 177.45144653320312 347.158935546875 222.02511596679688 C 383.2458801269531 266.8934326171875 383.68048095703125 248.2932891845703 372.81463623046875 198.77244567871094 C 413.7630920410156 219.8610076904297 412.6260681152344 217.09597778320312 363.33978271484375 202.27639770507812 C 400.6511535644531 161.4768829345703 368.2984924316406 167.48532104492188 272.03021240234375 204.5138397216797" stroke-width="10.72654914855957" fill="none" stroke="rgb(0, 0, 0)" stroke-opacity="0.16735409" stroke-linecap="round" stroke-linejoin="round"/>
    <path d="M 327.6767272949219 108.93411254882812 C 314.01092529296875 81.31321716308594 299.21234130859375 54.98415756225586 348.0030517578125 63.96466064453125 C 368.70501708984375 101.61991119384766 279.7764587402344 139.42251586914062 244.7841339111328 114.12487030029297 C 294.6630859375 98.98550415039062 332.6680908203125 93.9498519897461 337.0609130859375 71.92523193359375 C 282.2940368652344 99.43059539794922 236.36688232421875 122.2391357421875 291.7200927734375 125.55376434326172" stroke-width="8.486214637756348" fill="none" stroke="rgb(0, 0, 0)" stroke-opacity="1.0" stroke-linecap="round" stroke-linejoin="round"/>
    <path d="M 90.55228424072266 572.9655151367188 C 137.16636657714844 574.9280395507812 110.84195709228516 597.126220703125 155.3986358642578 594.7418823242188 C 126.82268524169922 676.0574951171875 152.4086456298828 712.109375 128.70608520507812 701.88525390625 C 154.3402862548828 691.2864379882812 126.3178939819336 709.62744140625 154.2215576171875 735.9247436523438 C 125.17355346679688 746.8738403320312 126.25408172607422 747.0721435546875 105.25812530517578 767.773193359375" stroke-width="2.0" fill="none" stroke="rgb(0, 0, 0)" stroke-opacity="0.07979001" stroke-linecap="round" stroke-linejoin="round"/>
    <path d="M 273.62591552734375 129.1787872314453 C 282.35772705078125 130.85073852539062 300.9775085449219 143.33326721191406 278.0173034667969 138.3260498046875 C 319.21221923828125 159.3817138671875 275.5180358886719 157.49166870117188 301.8759460449219 152.27529907226562 C 292.99749755859375 162.11390686035156 301.25616455078125 145.88148498535156 260.09686279296875 128.62518310546875 C 298.83758544921875 113.95439147949219 290.9510803222656 128.95697021484375 293.1524658203125 157.851318359375" stroke-width="2.0" fill="none" stroke="rgb(0, 0, 0)" stroke-opacity="0.26836118" stroke-linecap="round" stroke-linejoin="round"/>
    <path d="M 402.7525329589844 155.37428283691406 C 414.26806640625 114.24909973144531 437.42724609375 101.59638977050781 480.5854797363281 67.10869598388672 C 447.6233215332031 6.124883651733398 463.8290710449219 -40.54458999633789 448.7314453125 -37.286659240722656 C 393.3094482421875 -17.32395362854004 364.5769958496094 -13.702174186706543 415.0493469238281 -7.535171031951904 C 420.50787353515625 -10.233854293823242 406.2489929199219 -38.222679138183594 385.96441650390625 -57.629249572753906" stroke-width="2.0177934169769287" fill="none" stroke="rgb(0, 0, 0)" stroke-opacity="0.08946813" stroke-linecap="round" stroke-linejoin="round"/>
    <path d="M 491.84832763671875 186.71377563476562 C 530.3213500976562 167.0735626220703 521.3359985351562 197.33822631835938 446.15618896484375 204.2610626220703 C 395.1166076660156 203.99449157714844 425.66717529296875 207.64878845214844 452.3800354003906 208.00283813476562 C 477.1863098144531 229.43946838378906 526.2566528320312 195.3948211669922 468.8547668457031 172.70191955566406 C 466.7458801269531 198.2030487060547 447.688232421875 161.01312255859375 415.00469970703125 171.20176696777344" stroke-width="10.906534194946289" fill="none" stroke="rgb(0, 0, 0)" stroke-opacity="0.15778196" stroke-linecap="round" stroke-linejoin="round"/>
    <path d="M 363.4928283691406 318.1902770996094 C 327.4477233886719 307.632080078125 271.36187744140625 334.8824462890625 261.96380615234375 343.8922424316406 C 376.0859680175781 320.2052307128906 350.53472900390625 328.7317810058594 353.0009765625 272.0692443847656 C 362.5170593261719 330.123291015625 271.2921447753906 343.20782470703125 282.261474609375 282.7140197753906 C 367.3561096191406 247.38121032714844 415.6927185058594 235.4297332763672 269.63580322265625 248.59706115722656" stroke-width="6.048720836639404" fill="none" stroke="rgb(0, 0, 0)" stroke-opacity="0.2882582" stroke-linecap="round" stroke-linejoin="round"/>
    <path d="M 187.626708984375 3.8834004402160645 C 238.3981170654297 -13.04149341583252 215.44607543945312 -1.8016815185546875 233.12400817871094 20.796815872192383 C 228.86782836914062 8.306059837341309 225.6898651123047 -1.9804044961929321 227.7087860107422 -28.166086196899414 C 327.1786193847656 -75.4051513671875 357.6650390625 -53.44232177734375 330.6319274902344 14.973457336425781 C 363.32647705078125 61.85268020629883 356.5203857421875 5.432171821594238 316.60003662109375 5.466452598571777" stroke-width="6.115475177764893" fill="none" stroke="rgb(0, 0, 0)" stroke-opacity="0.731712" stroke-linecap="round" stroke-linejoin="round"/>
    <path d="M 412.64404296875 459.4937744140625 C 436.1973876953125 472.496337890625 429.3238830566406 478.9332275390625 415.3216857910156 472.5412902832031 C 362.6176452636719 442.4468688964844 377.31005859375 431.38592529296875 400.1855163574219 490.2782897949219 C 417.9547119140625 521.311279296875 442.8305969238281 527.1992797851562 455.6831359863281 529.450439453125 C 468.6455993652344 562.4342651367188 402.6517028808594 538.4027709960938 423.7127685546875 572.9586181640625" stroke-width="6.1359663009643555" fill="none" stroke="rgb(0, 0, 0)" stroke-opacity="0.41428947" stroke-linecap="round" stroke-linejoin="round"/>
    <path d="M 447.4879150390625 -3.2866904735565186 C 457.214599609375 -6.3584723472595215 459.7869567871094 -3.5447781085968018 447.6831359863281 -12.91299057006836 C 426.4024353027344 -1.0343351364135742 416.908203125 -3.205322742462158 419.3410339355469 -9.151928901672363 C 415.7350769042969 -35.6265983581543 438.6505432128906 -10.312128067016602 427.7985534667969 -4.971094608306885 C 455.3957214355469 -7.518927097320557 443.10235595703125 -17.649864196777344 456.9167175292969 -28.28660774230957" stroke-width="2.190601348876953" fill="none" stroke="rgb(0, 0, 0)" stroke-opacity="0.98368514" stroke-linecap="round" stroke-linejoin="round"/>
    <path d="M 119.01251983642578 113.54835510253906 C 53.77021026611328 60.82166290283203 45.131309509277344 74.18737030029297 -42.05485534667969 89.27249145507812 C -56.73244857788086 99.39794921875 -68.10394287109375 64.87767028808594 -16.99241065979004 34.84902572631836 C -25.978445053100586 36.534114837646484 -51.68974304199219 39.902347564697266 7.406014442443848 108.68550109863281 C -15.248716354370117 86.48358154296875 -3.7124993801116943 109.82511138916016 20.03389549255371 160.05255126953125" stroke-width="10.286136627197266" fill="none" stroke="rgb(0, 0, 0)" stroke-opacity="0.29643238" stroke-linecap="round" stroke-linejoin="round"/>
    <path d="M 437.09307861328125 557.3906860351562 C 357.56475830078125 526.6546020507812 344.1610412597656 504.5514221191406 387.81689453125 525.8718872070312 C 407.7959289550781 554.7422485351562 434.7159118652344 550.0314331054688 387.7313537597656 500.3230895996094 C 358.6584777832031 517.2758178710938 375.7947692871094 540.4671020507812 387.55194091796875 490.8505859375 C 396.4919128417969 502.3116760253906 377.8106994628906 467.6605224609375 307.5515441894531 532.4116821289062" stroke-width="11.837496757507324" fill="none" stroke="rgb(0, 0, 0)" stroke-opacity="0.36303538" stroke-linecap="round" stroke-linejoin="round"/>
    <path d="M 210.8032989501953 83.58721160888672 C 212.56716918945312 79.99691009521484 205.70631408691406 76.34483337402344 159.91567993164062 71.93244934082031 C 173.9286651611328 67.08517456054688 187.88211059570312 85.89954376220703 163.50387573242188 65.81543731689453 C 146.86839294433594 53.983219146728516 166.28765869140625 41.084224700927734 139.53053283691406 36.96475601196289 C 148.73428344726562 38.49608612060547 161.54104614257812 -2.0476462841033936 123.89389038085938 -9.45198917388916" stroke-width="3.674730062484741" fill="none" stroke="rgb(0, 0, 0)" stroke-opacity="0.890069" stroke-linecap="round" stroke-linejoin="round"/>
    <path d="M 249.3999786376953 427.19818115234375 C 196.81332397460938 426.0100402832031 202.0076904296875 402.5244445800781 192.6775360107422 396.84832763671875 C 199.162109375 397.45086669921875 208.1803741455078 400.70947265625 192.85916137695312 417.2715148925781 C 227.90069580078125 437.9769287109375 175.91671752929688 413.3654479980469 176.85047912597656 396.2275695800781 C 217.77862548828125 411.44915771484375 199.66188049316406 420.04412841796875 208.86058044433594 406.7975769042969" stroke-width="5.011392593383789" fill="none" stroke="rgb(0, 0, 0)" stroke-opacity="0.27471292" stroke-linecap="round" stroke-linejoin="round"/>
    <path d="M 493.8482971191406 483.9266052246094 C 515.8590087890625 476.76129150390625 487.4866638183594 480.25213623046875 531.7435302734375 454.7921447753906 C 510.2586364746094 468.52392578125 487.5430908203125 540.3815307617188 494.6545104980469 571.4114990234375 C 534.5810546875 549.2788696289062 547.5069580078125 540.8199462890625 528.115234375 581.211181640625 C 485.7912902832031 598.240478515625 519.0039672851562 561.6920776367188 586.1285400390625 598.8201904296875" stroke-width="2.0" fill="none" stroke="rgb(0, 0, 0)" stroke-opacity="0.32798705" stroke-linecap="round" stroke-linejoin="round"/>
    <path d="M 398.0311584472656 345.1504211425781 C 336.17352294921875 303.91156005859375 357.0002746582031 282.9964904785156 348.797119140625 365.9691162109375 C 372.64227294921875 337.8320617675781 387.9112548828125 346.08404541015625 348.2431640625 325.88189697265625 C 359.5411071777344 322.31842041015625 379.5430603027344 353.7799987792969 404.7161560058594 351.2671203613281 C 406.2958984375 368.9564514160156 378.3139343261719 360.37640380859375 396.3031311035156 291.5177001953125" stroke-width="5.683271408081055" fill="none" stroke="rgb(0, 0, 0)" stroke-opacity="0.20903093" stroke-linecap="round" stroke-linejoin="round"/>
    <path d="M 379.9931945800781 105.70960998535156 C 387.6625671386719 111.13758850097656 376.5882568359375 87.95057678222656 367.9736328125 158.49346923828125 C 330.6111755371094 137.51275634765625 394.4328308105469 116.21987915039062 375.75146484375 105.03292846679688 C 335.7530212402344 49.84951400756836 346.8935241699219 29.48993682861328 351.48846435546875 5.25034236907959 C 311.5245666503906 51.319435119628906 303.4996337890625 24.252363204956055 331.5889892578125 33.032379150390625" stroke-width="2.0" fill="none" stroke="rgb(0, 0, 0)" stroke-opacity="0.70011723" stroke-linecap="round" stroke-linejoin="round"/>
    <path d="M 212.6390380859375 136.51828002929688 C 210.78089904785156 133.80686950683594 217.15135192871094 133.33822631835938 211.36061096191406 141.41273498535156 C 226.25515747070312 141.1278533935547 219.1685333251953 135.5453643798828 224.75973510742188 138.95603942871094 C 206.22283935546875 146.27000427246094 218.7198028564453 136.47161865234375 190.86415100097656 132.8344268798828 C 175.80648803710938 136.76368713378906 217.42221069335938 128.04974365234375 139.7501220703125 131.29049682617188" stroke-width="3.0121936798095703" fill="none" stroke="rgb(0, 0, 0)" stroke-opacity="0.30207714" stroke-linecap="round" stroke-linejoin="round"/>
    <path d="M 363.8186340332031 157.4525604248047 C 333.108154296875 133.09097290039062 359.96636962890625 93.2177734375 326.830810546875 31.471561431884766 C 361.2465515136719 54.33854293823242 367.0400390625 110.56057739257812 297.171875 119.04795837402344 C 294.2916259765625 142.46267700195312 291.6718444824219 128.1477508544922 287.5920104980469 126.89400482177734 C 303.4144287109375 94.7271499633789 276.732421875 153.74966430664062 234.90269470214844 92.87288665771484" stroke-width="3.146090507507324" fill="none" stroke="rgb(0, 0, 0)" stroke-opacity="0.75375515" stroke-linecap="round" stroke-linejoin="round"/>
    <path d="M 524.7052612304688 299.6617736816406 C 514.4945068359375 363.1508483886719 465.54681396484375 361.9197082519531 505.66461181640625 338.0243835449219 C 502.92333984375 316.7142333984375 494.8566589355469 324.653564453125 516.6073608398438 275.6348876953125 C 545.8833618164062 272.675048828125 536.411376953125 259.5997619628906 515.8536987304688 270.1841735839844 C 518.6112670898438 281.5883483886719 521.4730834960938 289.1928405761719 539.5877685546875 309.15325927734375" stroke-width="2.4177558422088623" fill="none" stroke="rgb(0, 0, 0)" stroke-opacity="0.67745024" stroke-linecap="round" stroke-linejoin="round"/>
    <path d="M 214.5245361328125 274.8689270019531 C 230.94125366210938 310.752685546875 248.2602996826172 300.8404235839844 244.7107391357422 285.4977111816406 C 192.75167846679688 279.04888916015625 259.31402587890625 328.0289001464844 343.51025390625 277.08203125 C 214.63507080078125 310.84759521484375 265.1321105957031 309.7853698730469 308.315673828125 288.0239562988281 C 326.42547607421875 325.61212158203125 319.95458984375 318.98785400390625 276.12457275390625 334.4731750488281" stroke-width="5.099626064300537" fill="none" stroke="rgb(0, 0, 0)" stroke-opacity="0.6420472" stroke-linecap="round" stroke-linejoin="round"/>
    <path d="M 336.6296081542969 -14.500081062316895 C 332.6028137207031 -31.026588439941406 316.2476501464844 -45.36656951904297 335.2018737792969 -12.451244354248047 C 367.8802795410156 -17.415672302246094 350.9022521972656 -23.22776222229004 363.3668212890625 -9.462533950805664 C 376.182861328125 -33.413692474365234 362.2396240234375 -23.643329620361328 377.82037353515625 -52.96684265136719 C 363.6582336425781 -24.28554344177246 350.5570983886719 -40.00489807128906 340.422119140625 -65.78588104248047" stroke-width="8.797990798950195" fill="none" stroke="rgb(0, 0, 0)" stroke-opacity="0.63877124" stroke-linecap="round" stroke-linejoin="round"/>
    <path d="M 364.6612548828125 124.26919555664062 C 393.32806396484375 123.16106414794922 339.8808898925781 103.57723999023438 320.59014892578125 113.395751953125 C 328.4102783203125 98.10892486572266 321.7111511230469 41.64870834350586 332.08294677734375 10.653326034545898 C 327.9338073730469 57.829078674316406 305.9330139160156 22.28226661682129 333.2035217285156 -0.28424715995788574 C 323.146240234375 20.76424789428711 325.6272888183594 -10.682001113891602 353.2813415527344 -51.36884689331055" stroke-width="11.256501197814941" fill="none" stroke="rgb(0, 0, 0)" stroke-opacity="0.6991525" stroke-linecap="round" stroke-linejoin="round"/>
    <path d="M 566.9357299804688 141.53512573242188 C 597.2982177734375 116.96882629394531 556.9866943359375 126.99406433105469 595.92138671875 106.0665512084961 C 574.8181762695312 145.37881469726562 568.853271484375 133.34780883789062 634.9994506835938 118.18341064453125 C 615.5851440429688 151.2433624267578 640.0093994140625 170.2817840576172 650.6365356445312 173.75230407714844 C 587.7059326171875 186.48428344726562 570.5659790039062 198.7556610107422 519.3373413085938 186.15621948242188" stroke-width="11.848397254943848" fill="none" stroke="rgb(0, 0, 0)" stroke-opacity="0.1663396" stroke-linecap="round" stroke-linejoin="round"/>
    <path d="M 426.0640563964844 533.3627319335938 C 398.8013916015625 530.9258422851562 426.0576477050781 507.0691833496094 408.707763671875 528.1564331054688 C 480.14825439453125 547.3580932617188 456.7683410644531 621.7968139648438 511.1653137207031 624.7534790039062 C 586.5987548828125 580.0986938476562 578.6278076171875 594.1246948242188 574.6671142578125 598.5743408203125 C 535.82568359375 604.7032470703125 495.5675354003906 615.7875366210938 463.18341064453125 629.7464599609375" stroke-width="4.931452751159668" fill="none" stroke="rgb(0, 0, 0)" stroke-opacity="0.58074623" stroke-linecap="round" stroke-linejoin="round"/>
    <path d="M 327.6767272949219 108.93411254882812 C 314.01092529296875 81.31321716308594 299.21234130859375 54.98415756225586 348.0030517578125 63.96466064453125 C 368.70501708984375 101.61991119384766 279.7764587402344 139.42251586914062 244.7841339111328 114.12487030029297 C 294.6630859375 98.98550415039062 332.6680908203125 93.9498519897461 337.0609130859375 71.92523193359375 C 282.2940368652344 99.43059539794922 236.36688232421875 122.2391357421875 291.7200927734375 125.55376434326172" stroke-width="8.486214637756348" fill="none" stroke="rgb(0, 0, 0)" stroke-opacity="1.0" stroke-linecap="round" stroke-linejoin="round"/>
    <path d="M 195.22393798828125 594.08349609375 C 349.1718444824219 557.7181396484375 399.24285888671875 564.1737060546875 379.0821533203125 527.298583984375 C 310.65313720703125 531.4431762695312 274.3116455078125 554.2561645507812 300.5677490234375 547.2847290039062 C 310.52947998046875 480.2696533203125 288.2919006347656 499.9359130859375 317.18365478515625 499.21466064453125 C 372.3871154785156 473.8228759765625 388.33953857421875 488.0671691894531 375.6314697265625 542.2496337890625" stroke-width="7.582701683044434" fill="none" stroke="rgb(0, 0, 0)" stroke-opacity="0.5715665" stroke-linecap="round" stroke-linejoin="round"/>
    <path d="M 445.4216613769531 582.0382080078125 C 423.5168151855469 551.3634643554688 482.5216369628906 572.5926513671875 468.9563903808594 538.65478515625 C 509.0185546875 538.1465454101562 486.98834228515625 561.0480346679688 483.8663635253906 539.1607666015625 C 510.6957702636719 549.9453125 543.4590454101562 540.3165893554688 544.2158203125 536.870361328125 C 530.9035034179688 554.153564453125 518.58740234375 575.5601196289062 520.8848876953125 547.1506958007812" stroke-width="7.349738597869873" fill="none" stroke="rgb(0, 0, 0)" stroke-opacity="0.80901146" stroke-linecap="round" stroke-linejoin="round"/>
    <path d="M 327.6767272949219 108.93411254882812 C 314.01092529296875 81.31321716308594 299.21234130859375 54.98415756225586 348.0030517578125 63.96466064453125 C 368.70501708984375 101.61991119384766 279.7764587402344 139.42251586914062 244.7841339111328 114.12487030029297 C 294.6630859375 98.98550415039062 332.6680908203125 93.9498519897461 337.0609130859375 71.92523193359375 C 282.2940368652344 99.43059539794922 236.36688232421875 122.2391357421875 291.7200927734375 125.55376434326172" stroke-width="8.486214637756348" fill="none" stroke="rgb(0, 0, 0)" stroke-opacity="1.0" stroke-linecap="round" stroke-linejoin="round"/>
    <path d="M 20.966571807861328 376.55316162109375 C -6.170714855194092 366.9348449707031 19.67325210571289 397.1192626953125 9.890957832336426 424.51971435546875 C 4.309590816497803 357.1617431640625 -0.2647634446620941 327.33050537109375 -7.694969654083252 320.93743896484375 C 3.1693007946014404 405.2997741699219 -25.20819854736328 425.1790771484375 -41.3195686340332 419.3681335449219 C -42.173484802246094 424.8672790527344 -45.66469955444336 395.302734375 -28.518325805664062 423.4900817871094" stroke-width="11.677205085754395" fill="none" stroke="rgb(0, 0, 0)" stroke-opacity="0.5167623" stroke-linecap="round" stroke-linejoin="round"/>
    <path d="M 558.8233642578125 635.649169921875 C 454.4357604980469 602.0743408203125 400.3029479980469 558.0388793945312 378.4091491699219 554.9617309570312 C 389.9225158691406 510.4271545410156 344.1400146484375 514.7413940429688 470.717041015625 573.7213745117188 C 454.44024658203125 533.1009521484375 394.7252502441406 548.7119140625 389.46807861328125 491.05859375 C 371.9739074707031 525.2958984375 332.4204406738281 538.6904907226562 284.6497802734375 546.7517700195312" stroke-width="11.426141738891602" fill="none" stroke="rgb(0, 0, 0)" stroke-opacity="0.8002574" stroke-linecap="round" stroke-linejoin="round"/>
    <path d="M -48.71783447265625 1.7171881198883057 C -19.416339874267578 11.041340827941895 113.55533599853516 -2.6642775535583496 54.15980529785156 23.585100173950195 C 53.15098571777344 -8.236967086791992 68.58843231201172 30.166261672973633 92.89677429199219 0.43949609994888306 C 130.69390869140625 -10.19082260131836 106.66433715820312 0.7135849595069885 149.92234802246094 20.856037139892578 C 141.8936004638672 50.62586212158203 129.2589111328125 52.967124938964844 154.96609497070312 107.37239074707031" stroke-width="11.270445823669434" fill="none" stroke="rgb(0, 0, 0)" stroke-opacity="0.48720118" stroke-linecap="round" stroke-linejoin="round"/>
    <path d="M 34.31214904785156 408.0741882324219 C 52.55048751831055 405.5942687988281 41.53876876831055 401.8480224609375 82.771728515625 409.4272766113281 C 15.984869003295898 420.89349365234375 10.607733726501465 392.1805114746094 33.458885192871094 421.0199279785156 C 113.95954895019531 376.767822265625 79.6353530883789 382.6896057128906 128.5918731689453 394.6174621582031 C 143.96897888183594 407.35565185546875 151.18243408203125 398.78179931640625 156.78121948242188 399.813720703125" stroke-width="5.919180393218994" fill="none" stroke="rgb(0, 0, 0)" stroke-opacity="0.5574466" stroke-linecap="round" stroke-linejoin="round"/>
    <path d="M 464.5242004394531 131.72645568847656 C 461.29498291015625 122.16802978515625 473.65594482421875 139.06060791015625 455.1182556152344 149.82354736328125 C 467.14825439453125 165.32374572753906 446.78363037109375 126.15192413330078 458.74798583984375 136.9173126220703 C 451.88714599609375 130.19895935058594 504.2561340332031 135.9772491455078 503.62200927734375 149.70089721679688 C 515.4744873046875 161.4572296142578 509.1915588378906 172.65338134765625 511.5000915527344 161.25094604492188" stroke-width="4.385913848876953" fill="none" stroke="rgb(0, 0, 0)" stroke-opacity="0.96721923" stroke-linecap="round" stroke-linejoin="round"/>
    <path d="M 424.04656982421875 119.16021728515625 C 418.49249267578125 144.05711364746094 419.7195739746094 104.50180053710938 414.6189270019531 130.0822296142578 C 368.2709045410156 134.7047576904297 388.0810852050781 140.41941833496094 339.1911315917969 175.31417846679688 C 347.0501403808594 128.223388671875 348.1495056152344 117.4818115234375 339.5284729003906 152.5703582763672 C 282.4598083496094 175.52761840820312 266.5719299316406 155.69357299804688 307.87298583984375 225.51123046875" stroke-width="4.273083686828613" fill="none" stroke="rgb(0, 0, 0)" stroke-opacity="0.8404387" stroke-linecap="round" stroke-linejoin="round"/>
    <path d="M 428.6785583496094 297.3153381347656 C 391.3846435546875 322.1697998046875 357.9583740234375 288.6324462890625 390.88397216796875 303.4263610839844 C 360.9615783691406 276.4588928222656 370.609130859375 310.80474853515625 363.7337341308594 268.8795166015625 C 329.5887145996094 252.20294189453125 338.3233642578125 297.7689514160156 349.3680419921875 164.04843139648438 C 355.58935546875 171.918701171875 352.0744323730469 240.26699829101562 427.2808837890625 217.4232940673828" stroke-width="8.464399337768555" fill="none" stroke="rgb(0, 0, 0)" stroke-opacity="0.8638708" stroke-linecap="round" stroke-linejoin="round"/>
    <path d="M 525.7396240234375 281.7221984863281 C 476.85595703125 329.55950927734375 488.59698486328125 277.7527770996094 555.2368774414062 258.559326171875 C 599.1827392578125 272.0174865722656 544.8486328125 249.7180633544922 600.4208984375 259.97198486328125 C 623.6812744140625 266.88720703125 578.8578491210938 300.4534912109375 593.0400390625 302.4397888183594 C 621.1085205078125 329.78070068359375 603.4228515625 364.8209533691406 577.1365356445312 297.1822509765625" stroke-width="12.0" fill="none" stroke="rgb(0, 0, 0)" stroke-opacity="0.26197037" stroke-linecap="round" stroke-linejoin="round"/>
    <path d="M 373.0093078613281 165.1070556640625 C 368.5409851074219 165.5225372314453 354.5260314941406 140.17953491210938 344.7337646484375 135.8928680419922 C 345.66949462890625 112.86575317382812 331.4627380371094 101.33858489990234 389.2281494140625 130.96780395507812 C 384.7685546875 147.63023376464844 354.0036315917969 116.0976333618164 358.58355712890625 88.74363708496094 C 335.3696594238281 123.70845031738281 308.0875549316406 110.5385513305664 328.6777038574219 78.84362030029297" stroke-width="8.179473876953125" fill="none" stroke="rgb(0, 0, 0)" stroke-opacity="0.8010052" stroke-linecap="round" stroke-linejoin="round"/>
    <path d="M 123.00971984863281 198.49102783203125 C 139.1125030517578 258.86151123046875 109.61420440673828 287.091552734375 129.640380859375 287.1821594238281 C 152.4646759033203 295.4791564941406 150.452392578125 304.86669921875 168.4520721435547 302.6962890625 C 143.27108764648438 303.50982666015625 151.1571502685547 292.5281982421875 188.05543518066406 307.8097839355469 C 191.3202667236328 316.05035400390625 207.736328125 324.974365234375 201.31314086914062 321.0718078613281" stroke-width="2.2211270332336426" fill="none" stroke="rgb(0, 0, 0)" stroke-opacity="0.060753994" stroke-linecap="round" stroke-linejoin="round"/>
    <path d="M 96.4388198852539 226.0679931640625 C 119.50808715820312 218.9203338623047 101.2174072265625 232.0989532470703 63.55881881713867 205.57785034179688 C 73.95454406738281 264.3003845214844 62.876583099365234 296.7990417480469 38.28146743774414 271.3849182128906 C 52.530094146728516 240.34100341796875 70.0868148803711 241.25135803222656 69.3759994506836 220.48712158203125 C 60.753814697265625 250.07339477539062 52.50095748901367 256.93804931640625 67.000244140625 220.5409698486328" stroke-width="5.589365482330322" fill="none" stroke="rgb(0, 0, 0)" stroke-opacity="0.23019353" stroke-linecap="round" stroke-linejoin="round"/>
    <path d="M 293.7542419433594 275.76922607421875 C 266.98138427734375 261.5111083984375 286.6461486816406 240.76918029785156 334.59600830078125 279.85577392578125 C 320.0313720703125 238.40554809570312 306.4632873535156 187.76795959472656 327.63629150390625 185.84226989746094 C 277.8463134765625 215.55372619628906 280.2117614746094 246.72023010253906 313.2269592285156 235.042724609375 C 378.7018737792969 206.6729736328125 369.18902587890625 157.59010314941406 251.99429321289062 210.9316864013672" stroke-width="2.06758713722229" fill="none" stroke="rgb(0, 0, 0)" stroke-opacity="0.122245915" stroke-linecap="round" stroke-linejoin="round"/>
    <path d="M 566.5774536132812 436.3460388183594 C 555.7835083007812 393.5835876464844 529.6237182617188 450.6276550292969 537.6244506835938 343.3422546386719 C 473.1395568847656 348.7515869140625 511.71630859375 347.3846130371094 567.75537109375 359.2144470214844 C 528.3297729492188 361.14862060546875 559.8780517578125 396.19500732421875 561.4951171875 369.55706787109375 C 512.1237182617188 381.745849609375 531.4478149414062 383.09783935546875 580.0970458984375 375.342041015625" stroke-width="11.871058464050293" fill="none" stroke="rgb(0, 0, 0)" stroke-opacity="0.18836063" stroke-linecap="round" stroke-linejoin="round"/>
    <path d="M 249.3186798095703 448.3711853027344 C 377.4651184082031 406.1363220214844 364.8045959472656 410.9144592285156 324.02978515625 428.72283935546875 C 251.10813903808594 451.5993347167969 316.96929931640625 417.0277404785156 270.20263671875 411.8158874511719 C 284.0452880859375 378.2930908203125 263.1685485839844 363.9613037109375 231.26695251464844 418.8846130371094 C 235.3915252685547 417.67864990234375 119.61912536621094 409.76861572265625 247.7810821533203 393.1247253417969" stroke-width="2.4355123043060303" fill="none" stroke="rgb(0, 0, 0)" stroke-opacity="0.86910045" stroke-linecap="round" stroke-linejoin="round"/>
    <path d="M 258.7471618652344 213.9691162109375 C 240.7241668701172 190.4647216796875 228.8596954345703 176.88832092285156 190.84915161132812 180.86553955078125 C 198.80726623535156 182.78228759765625 196.31861877441406 182.38612365722656 188.64767456054688 178.5462188720703 C 196.9824981689453 181.78773498535156 209.47265625 197.6289825439453 199.03965759277344 198.14012145996094 C 149.54315185546875 183.5424041748047 181.74423217773438 183.3234405517578 132.94268798828125 147.1144561767578" stroke-width="2.0520999431610107" fill="none" stroke="rgb(0, 0, 0)" stroke-opacity="0.7024781" stroke-linecap="round" stroke-linejoin="round"/>
    <path d="M 456.40966796875 312.2232666015625 C 450.21441650390625 334.1778564453125 440.1003112792969 352.5478210449219 458.58929443359375 313.97479248046875 C 445.1822204589844 303.9117736816406 462.6464538574219 319.8800964355469 462.2252502441406 276.132568359375 C 490.3157653808594 281.3384704589844 460.10003662109375 250.29612731933594 555.7574462890625 257.9905700683594 C 551.6648559570312 273.8048095703125 506.1434326171875 252.2107391357422 491.3780822753906 256.92034912109375" stroke-width="5.80106258392334" fill="none" stroke="rgb(0, 0, 0)" stroke-opacity="0.85853475" stroke-linecap="round" stroke-linejoin="round"/>
    <path d="M 135.06846618652344 295.4817199707031 C 121.45120239257812 286.4718017578125 117.48965454101562 277.219482421875 98.92401885986328 252.50787353515625 C 109.06086730957031 294.4092712402344 110.05902862548828 280.54425048828125 105.33372497558594 218.6741485595703 C 69.9673843383789 218.82022094726562 60.44627380371094 174.2593536376953 67.10799407958984 233.31204223632812 C 4.417484760284424 273.5345458984375 -12.889354705810547 262.11566162109375 -39.25675964355469 238.74412536621094" stroke-width="2.4382307529449463" fill="none" stroke="rgb(0, 0, 0)" stroke-opacity="0.7467446" stroke-linecap="round" stroke-linejoin="round"/>
    <path d="M 570.7037963867188 393.5036926269531 C 573.6275634765625 360.34808349609375 570.3967895507812 341.3934020996094 559.0494384765625 383.6647033691406 C 593.365234375 379.8540954589844 578.4464111328125 371.3017578125 608.349609375 408.1322021484375 C 598.8052368164062 457.7952575683594 563.0729370117188 463.7716064453125 598.1649780273438 499.4389343261719 C 596.7778930664062 444.2410888671875 610.974609375 424.4068298339844 609.070068359375 417.9067077636719" stroke-width="2.904517889022827" fill="none" stroke="rgb(0, 0, 0)" stroke-opacity="0.2726679" stroke-linecap="round" stroke-linejoin="round"/>
    <path d="M 9.889772415161133 434.2104797363281 C 53.2142333984375 427.9700012207031 81.1269302368164 479.0624084472656 95.25130462646484 479.217529296875 C 121.27259063720703 474.959716796875 96.56651306152344 487.6707458496094 103.83089447021484 442.76885986328125 C 109.06009674072266 438.6917724609375 95.02383422851562 396.244140625 67.60566711425781 414.0989074707031 C 120.8509750366211 405.4189758300781 147.10130310058594 444.58453369140625 155.22177124023438 453.0920104980469" stroke-width="4.701841354370117" fill="none" stroke="rgb(0, 0, 0)" stroke-opacity="0.12150102" stroke-linecap="round" stroke-linejoin="round"/>
    <path d="M 277.98736572265625 385.02392578125 C 262.70819091796875 396.98077392578125 247.05918884277344 358.5647888183594 268.5610656738281 390.2315979003906 C 249.2625732421875 378.5163269042969 260.8610534667969 374.35162353515625 248.44129943847656 434.4754333496094 C 207.78640747070312 418.5667724609375 183.37298583984375 404.71282958984375 234.0415496826172 401.26531982421875 C 245.85110473632812 426.0980529785156 269.7360534667969 453.7119445800781 246.8808135986328 428.9392395019531" stroke-width="9.024457931518555" fill="none" stroke="rgb(0, 0, 0)" stroke-opacity="0.5722326" stroke-linecap="round" stroke-linejoin="round"/>
    <path d="M 66.0267333984375 206.30459594726562 C 67.75408172607422 213.2205810546875 47.98799133300781 184.52264404296875 48.09059143066406 191.6218719482422 C 53.46165084838867 133.25790405273438 24.930479049682617 95.05014038085938 76.54432678222656 132.0893096923828 C 96.61912536621094 128.54640197753906 96.8223648071289 125.58479309082031 89.19760131835938 131.42405700683594 C 139.87705993652344 137.45188903808594 106.38652801513672 171.90003967285156 107.90260314941406 184.82269287109375" stroke-width="10.63282299041748" fill="none" stroke="rgb(0, 0, 0)" stroke-opacity="0.7259644" stroke-linecap="round" stroke-linejoin="round"/>
    <path d="M 329.9201354980469 201.59616088867188 C 258.9068908691406 233.19532775878906 252.42787170410156 198.9809112548828 236.121826171875 207.94265747070312 C 232.7847442626953 181.01119995117188 264.4494934082031 202.2462615966797 266.40484619140625 216.55294799804688 C 316.5880126953125 195.05064392089844 401.1483154296875 191.925048828125 289.4619140625 193.56878662109375 C 294.5747375488281 152.09596252441406 258.7440185546875 173.6717071533203 340.8503112792969 140.99273681640625" stroke-width="6.644750118255615" fill="none" stroke="rgb(0, 0, 0)" stroke-opacity="0.6589214" stroke-linecap="round" stroke-linejoin="round"/>
    <path d="M 362.7796630859375 106.03185272216797 C 329.2920837402344 125.017578125 342.6073913574219 147.24081420898438 379.91302490234375 166.99435424804688 C 425.896484375 138.8210906982422 405.448974609375 136.07608032226562 439.81390380859375 166.27737426757812 C 433.0346374511719 163.05064392089844 433.6047058105469 173.4795684814453 401.50927734375 174.42349243164062 C 397.6829528808594 180.1628875732422 419.6192626953125 162.3723907470703 416.9319152832031 175.4130401611328" stroke-width="2.0" fill="none" stroke="rgb(0, 0, 0)" stroke-opacity="0.6922014" stroke-linecap="round" stroke-linejoin="round"/>
    <path d="M 126.86116790771484 537.9492797851562 C 193.98912048339844 564.174072265625 187.40274047851562 547.90234375 220.1862030029297 536.4868774414062 C 322.7620849609375 522.8375244140625 266.5916442871094 503.8232116699219 174.69432067871094 548.6666870117188 C 210.03445434570312 590.2719116210938 211.635498046875 550.4847412109375 294.80230712890625 545.7982177734375 C 215.7142791748047 558.76611328125 162.443359375 582.8848876953125 136.41317749023438 554.2072143554688" stroke-width="9.96428394317627" fill="none" stroke="rgb(0, 0, 0)" stroke-opacity="0.31420726" stroke-linecap="round" stroke-linejoin="round"/>
    <path d="M 320.22479248046875 533.5451049804688 C 419.62384033203125 510.9631042480469 359.6748046875 532.965087890625 320.3594970703125 540.0853271484375 C 298.0882568359375 527.212646484375 329.1060791015625 490.50274658203125 310.3232727050781 542.0310668945312 C 263.8368225097656 551.1766967773438 296.7275390625 519.1525268554688 289.0520935058594 495.6018981933594 C 272.2292175292969 542.3106079101562 289.3926086425781 519.818115234375 312.5379638671875 562.491455078125" stroke-width="2.3438403606414795" fill="none" stroke="rgb(0, 0, 0)" stroke-opacity="0.46009472" stroke-linecap="round" stroke-linejoin="round"/>
    <path d="M -5.623261451721191 315.5241394042969 C -10.095861434936523 263.2888488769531 -1.2792727947235107 254.6665496826172 -5.876728057861328 288.65875244140625 C -31.374753952026367 344.0563049316406 -38.93008804321289 360.07257080078125 -60.940147399902344 370.1364440917969 C -77.77175903320312 385.935791015625 -98.49546813964844 391.10052490234375 -125.78504180908203 407.3188781738281 C -116.30207824707031 435.9659423828125 -107.2287368774414 421.89190673828125 -130.55650329589844 448.71258544921875" stroke-width="3.625420331954956" fill="none" stroke="rgb(0, 0, 0)" stroke-opacity="0.055364482" stroke-linecap="round" stroke-linejoin="round"/>
    <path d="M 485.5706481933594 411.29632568359375 C 450.9953308105469 462.7027282714844 401.74212646484375 400.642333984375 429.0570983886719 434.72857666015625 C 390.1475524902344 464.51068115234375 367.1801452636719 468.3662109375 390.9311828613281 524.6113891601562 C 440.0906677246094 547.9111938476562 462.7154235839844 563.758544921875 463.1883239746094 553.9515380859375 C 499.0287170410156 575.7901000976562 543.2774658203125 550.4190063476562 478.57476806640625 573.1564331054688" stroke-width="6.576872825622559" fill="none" stroke="rgb(0, 0, 0)" stroke-opacity="0.6456889" stroke-linecap="round" stroke-linejoin="round"/>
    <path d="M 130.6063995361328 187.68218994140625 C 154.01486206054688 191.8546600341797 120.61099243164062 210.453125 104.28838348388672 169.50009155273438 C 78.7125244140625 127.47803497314453 84.20427703857422 131.6352996826172 166.1883087158203 137.45001220703125 C 164.2117462158203 104.77752685546875 168.03860473632812 118.5579605102539 143.89895629882812 106.25083923339844 C 160.84896850585938 113.11518096923828 172.26348876953125 137.0051727294922 161.89393615722656 127.04150390625" stroke-width="2.5731866359710693" fill="none" stroke="rgb(0, 0, 0)" stroke-opacity="0.26853392" stroke-linecap="round" stroke-linejoin="round"/>
    <path d="M 442.83404541015625 134.8539581298828 C 453.68975830078125 144.06211853027344 461.5325622558594 108.9462890625 462.2890930175781 117.57465362548828 C 457.544189453125 85.56065368652344 446.69683837890625 96.23428344726562 452.9681396484375 119.4718246459961 C 428.4213562011719 90.35258483886719 427.469970703125 82.73825073242188 408.8380126953125 127.98397827148438 C 350.2666015625 96.42975616455078 341.1309814453125 88.41314697265625 376.545654296875 137.24603271484375" stroke-width="11.793675422668457" fill="none" stroke="rgb(0, 0, 0)" stroke-opacity="0.19080704" stroke-linecap="round" stroke-linejoin="round"/>
    <path d="M 455.5025329589844 610.4754638671875 C 474.8561706542969 549.4801025390625 514.783935546875 550.9794921875 467.86334228515625 579.870361328125 C 461.58502197265625 532.5719604492188 508.6627502441406 582.767578125 463.3678283691406 553.6998291015625 C 411.1251525878906 534.2487182617188 446.13427734375 584.0451049804688 481.31976318359375 559.1853637695312 C 477.6934509277344 522.87060546875 416.52838134765625 551.7608642578125 431.8197021484375 480.37158203125" stroke-width="6.996260166168213" fill="none" stroke="rgb(0, 0, 0)" stroke-opacity="0.46553278" stroke-linecap="round" stroke-linejoin="round"/>
    <path d="M 480.25653076171875 188.13568115234375 C 445.69683837890625 177.89976501464844 491.3529052734375 199.78677368164062 440.5066833496094 169.1602020263672 C 400.13677978515625 228.42489624023438 373.4303283691406 208.1121826171875 351.2008056640625 159.42657470703125 C 451.0736389160156 140.66358947753906 444.86871337890625 221.94642639160156 409.0315856933594 210.54248046875 C 406.8019714355469 210.07472229003906 438.83428955078125 195.35670471191406 441.23388671875 200.88499450683594" stroke-width="2.1513915061950684" fill="none" stroke="rgb(0, 0, 0)" stroke-opacity="0.584452" stroke-linecap="round" stroke-linejoin="round"/>
    <path d="M 67.77666473388672 206.6895751953125 C 56.150089263916016 234.70538330078125 79.06192779541016 231.8173370361328 9.815335273742676 261.834228515625 C -33.336883544921875 255.82382202148438 -58.79930114746094 279.0361328125 -23.91700553894043 298.24566650390625 C -20.640810012817383 252.8092041015625 -27.839763641357422 269.3662414550781 28.51753807067871 179.21563720703125 C 20.655317306518555 201.67213439941406 44.763671875 196.0773162841797 34.47247314453125 227.0517120361328" stroke-width="3.249264717102051" fill="none" stroke="rgb(0, 0, 0)" stroke-opacity="0.9931238" stroke-linecap="round" stroke-linejoin="round"/>
    <path d="M 569.5905151367188 354.6013488769531 C 576.0899047851562 328.99871826171875 575.7710571289062 360.8480529785156 582.51708984375 299.8919982910156 C 532.4680786132812 244.83314514160156 474.1917724609375 229.6988983154297 482.15576171875 293.038330078125 C 431.2874450683594 322.05267333984375 448.9941101074219 300.90411376953125 439.5003662109375 293.9441223144531 C 465.3382263183594 273.3592529296875 439.0210266113281 291.6063232421875 413.9979553222656 294.71173095703125" stroke-width="3.1989731788635254" fill="none" stroke="rgb(0, 0, 0)" stroke-opacity="0.79479444" stroke-linecap="round" stroke-linejoin="round"/>
    <path d="M 138.7657470703125 205.0005340576172 C 139.70068359375 185.09649658203125 134.0548858642578 188.18276977539062 150.09896850585938 215.09738159179688 C 126.41271209716797 167.95018005371094 78.2635498046875 129.6401824951172 172.00741577148438 172.55909729003906 C 180.6903533935547 128.36671447753906 99.03644561767578 142.35198974609375 117.60198974609375 99.61538696289062 C 96.40306091308594 64.88616943359375 88.15472412109375 100.72154235839844 29.319738388061523 73.70384216308594" stroke-width="5.164703845977783" fill="none" stroke="rgb(0, 0, 0)" stroke-opacity="0.26951814" stroke-linecap="round" stroke-linejoin="round"/>
    <path d="M 66.796142578125 634.4888305664062 C 96.85350799560547 610.025146484375 43.494564056396484 601.4430541992188 74.1386947631836 616.9149780273438 C 9.13274097442627 601.851806640625 1.4746582508087158 623.9138793945312 -24.32680320739746 692.7293701171875 C -7.467566967010498 602.7539672851562 -21.15287208557129 539.7807006835938 6.511111259460449 586.0610961914062 C 50.09686279296875 599.6513671875 47.034698486328125 649.3336181640625 19.227401733398438 650.8394165039062" stroke-width="12.0" fill="none" stroke="rgb(0, 0, 0)" stroke-opacity="0.90861803" stroke-linecap="round" stroke-linejoin="round"/>
    <path d="M 315.0643615722656 445.35150146484375 C 227.1407928466797 474.5020751953125 236.29214477539062 433.525390625 243.92941284179688 539.2748413085938 C 363.2205810546875 535.7486572265625 332.9208068847656 540.8839721679688 142.23876953125 548.5986328125 C 192.69126892089844 591.947265625 247.04153442382812 600.853515625 215.31871032714844 586.5433349609375 C 227.94158935546875 484.79412841796875 289.53118896484375 497.6197204589844 308.67333984375 538.0873413085938" stroke-width="8.813140869140625" fill="none" stroke="rgb(0, 0, 0)" stroke-opacity="0.21136399" stroke-linecap="round" stroke-linejoin="round"/>
    <path d="M 326.8551940917969 519.3448486328125 C 315.7788391113281 473.59808349609375 359.0279846191406 499.51837158203125 358.04351806640625 521.0492553710938 C 378.6748046875 492.977783203125 330.98077392578125 517.3657836914062 272.0719909667969 525.2623291015625 C 184.28900146484375 591.6630249023438 204.9882049560547 604.5300903320312 335.4748229980469 570.0145874023438 C 336.58135986328125 500.6971130371094 311.7794189453125 520.4437866210938 299.47869873046875 526.7223510742188" stroke-width="2.1166279315948486" fill="none" stroke="rgb(0, 0, 0)" stroke-opacity="0.19843535" stroke-linecap="round" stroke-linejoin="round"/>
    <path d="M 29.645374298095703 103.30513763427734 C 32.96224594116211 100.10419464111328 61.063392639160156 112.87084197998047 42.262821197509766 160.3098602294922 C 45.82918930053711 155.74212646484375 39.26951217651367 159.7718505859375 46.39678192138672 149.6374969482422 C 55.878963470458984 122.8391342163086 15.377725601196289 93.9425048828125 22.177324295043945 75.78986358642578 C 11.658373832702637 68.7947006225586 26.892770767211914 101.06841278076172 -3.3553431034088135 47.3326416015625" stroke-width="12.0" fill="none" stroke="rgb(0, 0, 0)" stroke-opacity="0.9560362" stroke-linecap="round" stroke-linejoin="round"/>
    <path d="M 307.61029052734375 155.15501403808594 C 318.01129150390625 64.11691284179688 319.9647521972656 91.40931701660156 303.9782409667969 103.18550109863281 C 279.2598876953125 108.77478790283203 283.35821533203125 166.62351989746094 326.9716796875 146.11317443847656 C 341.54901123046875 84.8534164428711 258.01422119140625 144.9974365234375 311.2629089355469 158.9003143310547 C 326.6771545410156 147.19969177246094 316.7391357421875 166.2716827392578 286.0010070800781 132.07212829589844" stroke-width="5.422944068908691" fill="none" stroke="rgb(0, 0, 0)" stroke-opacity="0.26489428" stroke-linecap="round" stroke-linejoin="round"/>
    <path d="M 382.42010498046875 592.0325317382812 C 377.66259765625 614.7188720703125 415.7633972167969 595.147705078125 467.6825866699219 594.809326171875 C 468.9783630371094 561.748779296875 482.70538330078125 564.0796508789062 438.4546203613281 544.400634765625 C 390.6181945800781 517.60888671875 400.58831787109375 540.983642578125 463.0532531738281 563.6838989257812 C 523.8552856445312 548.6624755859375 535.7120971679688 536.01806640625 521.2000122070312 561.5868530273438" stroke-width="10.744178771972656" fill="none" stroke="rgb(0, 0, 0)" stroke-opacity="0.36397314" stroke-linecap="round" stroke-linejoin="round"/>
    <path d="M 360.5566711425781 286.6576232910156 C 329.20440673828125 252.6670684814453 359.5369567871094 340.7757263183594 352.3245544433594 351.179443359375 C 388.3502502441406 376.80157470703125 397.6724548339844 400.4026184082031 459.2400207519531 421.60211181640625 C 359.44415283203125 424.9541320800781 344.44818115234375 435.6806640625 366.1007995605469 448.001953125 C 354.8363037109375 417.7249755859375 357.1260070800781 518.2374877929688 381.31732177734375 501.87744140625" stroke-width="11.152189254760742" fill="none" stroke="rgb(0, 0, 0)" stroke-opacity="0.22333568" stroke-linecap="round" stroke-linejoin="round"/>
    <path d="M 351.14434814453125 396.954833984375 C 513.6751708984375 380.36517333984375 511.3472900390625 405.75885009765625 428.78240966796875 436.7266845703125 C 413.2622985839844 383.3489990234375 399.3075256347656 403.08111572265625 403.4492492675781 372.6526794433594 C 399.14178466796875 444.5398864746094 406.822021484375 385.0780029296875 399.87738037109375 355.2593994140625 C 435.1247863769531 374.36834716796875 419.5205383300781 340.48779296875 475.3204650878906 331.09381103515625" stroke-width="3.466080665588379" fill="none" stroke="rgb(0, 0, 0)" stroke-opacity="0.052910328" stroke-linecap="round" stroke-linejoin="round"/>
    <path d="M 406.0440673828125 416.4952697753906 C 319.123779296875 446.9817199707031 323.2037658691406 461.6189880371094 321.4056091308594 389.3133239746094 C 312.73828125 379.50408935546875 324.54998779296875 360.02996826171875 362.7747497558594 400.8907775878906 C 304.4740295410156 387.1709899902344 243.28846740722656 392.5838317871094 275.4515075683594 388.1285705566406 C 361.0054931640625 352.5091857910156 387.8150939941406 367.0321350097656 377.09814453125 406.97357177734375" stroke-width="10.567395210266113" fill="none" stroke="rgb(0, 0, 0)" stroke-opacity="0.119603515" stroke-linecap="round" stroke-linejoin="round"/>
    <path d="M 532.1327514648438 182.18592834472656 C 585.3186645507812 158.8353271484375 533.78271484375 148.35035705566406 546.7640380859375 183.26063537597656 C 565.422119140625 171.18429565429688 540.6904907226562 164.4770965576172 570.3159790039062 139.6784210205078 C 544.9786987304688 133.5767059326172 547.6212158203125 176.21548461914062 528.6027221679688 178.1106719970703 C 525.2315673828125 161.3776092529297 497.1687927246094 141.2329559326172 525.814208984375 173.44627380371094" stroke-width="10.848333358764648" fill="none" stroke="rgb(0, 0, 0)" stroke-opacity="0.42674187" stroke-linecap="round" stroke-linejoin="round"/>
    <path d="M 364.2516174316406 228.9922637939453 C 351.4917297363281 318.2637634277344 338.25604248046875 331.943359375 284.3880615234375 330.22998046875 C 336.1824951171875 310.11016845703125 361.7431640625 321.7864990234375 307.6304931640625 320.73590087890625 C 287.9721984863281 365.69464111328125 295.9371337890625 329.7992858886719 342.9181213378906 237.12437438964844 C 313.3719177246094 214.98321533203125 250.1719512939453 270.2289123535156 277.0676574707031 323.6454162597656" stroke-width="11.202235221862793" fill="none" stroke="rgb(0, 0, 0)" stroke-opacity="0.09760087" stroke-linecap="round" stroke-linejoin="round"/>
    <path d="M 416.00946044921875 300.2274169921875 C 356.81536865234375 272.2025146484375 380.180908203125 288.5456237792969 315.44439697265625 270.36700439453125 C 393.83599853515625 244.41566467285156 415.9319763183594 267.39935302734375 344.52520751953125 286.87384033203125 C 367.2351989746094 224.1501922607422 385.1627502441406 230.98728942871094 374.21697998046875 323.6346435546875 C 350.225341796875 310.16790771484375 393.89068603515625 339.4503173828125 387.9979248046875 336.7425537109375" stroke-width="6.152712821960449" fill="none" stroke="rgb(0, 0, 0)" stroke-opacity="0.24981266" stroke-linecap="round" stroke-linejoin="round"/>
    <path d="M 442.9154052734375 546.269287109375 C 365.77325439453125 515.2381591796875 290.43304443359375 510.2890625 339.95513916015625 499.6959228515625 C 365.99853515625 537.8768310546875 422.3389892578125 549.5743408203125 424.84625244140625 541.2730102539062 C 459.2236328125 565.0214233398438 465.9263000488281 580.5979614257812 485.2908935546875 563.2843627929688 C 396.2942810058594 521.2449340820312 430.43060302734375 549.2657470703125 376.6055603027344 569.8952026367188" stroke-width="11.679027557373047" fill="none" stroke="rgb(0, 0, 0)" stroke-opacity="0.20705768" stroke-linecap="round" stroke-linejoin="round"/>
    <path d="M 414.1163635253906 414.6023864746094 C 431.8040771484375 490.6927185058594 403.85589599609375 444.3260498046875 358.4308776855469 421.6502685546875 C 377.4386901855469 343.0099792480469 388.3560791015625 346.9045104980469 346.7845153808594 390.0848083496094 C 373.46380615234375 372.65899658203125 360.83538818359375 396.267333984375 405.6064758300781 417.6559753417969 C 364.2270812988281 348.77587890625 347.9551086425781 409.58782958984375 222.47027587890625 417.3307189941406" stroke-width="10.898018836975098" fill="none" stroke="rgb(0, 0, 0)" stroke-opacity="0.9662473" stroke-linecap="round" stroke-linejoin="round"/>
    <path d="M 327.6767272949219 108.93411254882812 C 314.01092529296875 81.31321716308594 299.21234130859375 54.98415756225586 348.0030517578125 63.96466064453125 C 368.70501708984375 101.61991119384766 279.7764587402344 139.42251586914062 244.7841339111328 114.12487030029297 C 294.6630859375 98.98550415039062 332.6680908203125 93.9498519897461 337.0609130859375 71.92523193359375 C 282.2940368652344 99.43059539794922 236.36688232421875 122.2391357421875 291.7200927734375 125.55376434326172" stroke-width="8.486214637756348" fill="none" stroke="rgb(0, 0, 0)" stroke-opacity="1.0" stroke-linecap="round" stroke-linejoin="round"/>
    <path d="M 342.67779541015625 118.38668060302734 C 365.1457214355469 85.88165283203125 355.144775390625 59.99787902832031 320.2334899902344 75.77021789550781 C 301.92572021484375 77.373046875 364.4548034667969 49.189388275146484 314.9873962402344 52.217628479003906 C 335.17791748046875 38.78965377807617 375.3985290527344 5.848628997802734 330.0877380371094 0.7071547508239746 C 308.5491943359375 33.79099655151367 355.40618896484375 37.2874755859375 338.3628234863281 55.21516418457031" stroke-width="6.489522457122803" fill="none" stroke="rgb(0, 0, 0)" stroke-opacity="0.81689686" stroke-linecap="round" stroke-linejoin="round"/>
    <path d="M 327.6767272949219 108.93411254882812 C 314.01092529296875 81.31321716308594 299.21234130859375 54.98415756225586 348.0030517578125 63.96466064453125 C 368.70501708984375 101.61991119384766 279.7764587402344 139.42251586914062 244.7841339111328 114.12487030029297 C 294.6630859375 98.98550415039062 332.6680908203125 93.9498519897461 337.0609130859375 71.92523193359375 C 282.2940368652344 99.43059539794922 236.36688232421875 122.2391357421875 291.7200927734375 125.55376434326172" stroke-width="8.486214637756348" fill="none" stroke="rgb(0, 0, 0)" stroke-opacity="0.2649508" stroke-linecap="round" stroke-linejoin="round"/>
  </g>
</svg>
