<?xml version="1.0" ?>
<svg xmlns="http://www.w3.org/2000/svg" version="1.1" width="600" height="600">
  <defs/>
  <g>
    <path d="M 170.19268798828125 401.0422668457031 C 125.86288452148438 400.3178405761719 126.39241027832031 410.6332702636719 88.75496673583984 402.9009094238281 C 64.14871978759766 485.1545715332031 85.8985824584961 448.5013427734375 134.26144409179688 458.6340637207031 C 128.5976104736328 534.3956298828125 133.012939453125 480.28759765625 131.89649963378906 476.7081298828125 C 18.825441360473633 468.722412109375 7.463794708251953 432.1241760253906 204.15567016601562 455.8518981933594" stroke-width="11.588871955871582" fill="none" stroke="rgb(0, 0, 0)" stroke-opacity="0.49581847" stroke-linecap="round" stroke-linejoin="round"/>
    <path d="M 166.6588592529297 234.65789794921875 C 118.96449279785156 222.3689727783203 196.57608032226562 245.51406860351562 208.19154357910156 213.41729736328125 C 220.07998657226562 232.18606567382812 168.7578887939453 235.22238159179688 119.16746520996094 235.72915649414062 C 164.71371459960938 212.93385314941406 116.82171630859375 180.1539306640625 179.78915405273438 187.57009887695312 C 186.45956420898438 153.1168212890625 165.12693786621094 198.19598388671875 103.2940673828125 155.33766174316406" stroke-width="6.755518436431885" fill="none" stroke="rgb(0, 0, 0)" stroke-opacity="0.6382809" stroke-linecap="round" stroke-linejoin="round"/>
    <path d="M 117.5105209350586 282.3353271484375 C 249.85379028320312 293.0998229980469 212.79632568359375 254.61984252929688 192.4765167236328 217.21746826171875 C 192.288818359375 200.84646606445312 196.0801544189453 170.55894470214844 188.86737060546875 158.3197021484375 C 197.9283905029297 208.00701904296875 214.20321655273438 133.18325805664062 199.95840454101562 182.20799255371094 C 179.14784240722656 220.93222045898438 193.4420623779297 230.55311584472656 247.25091552734375 255.2922821044922" stroke-width="8.019388198852539" fill="none" stroke="rgb(0, 0, 0)" stroke-opacity="0.4985714" stroke-linecap="round" stroke-linejoin="round"/>
    <path d="M 89.57038116455078 -0.028317689895629883 C 91.73654174804688 3.9718973636627197 101.63644409179688 3.3859751224517822 28.4531192779541 1.0992978811264038 C 3.256525993347168 0.12530562281608582 -20.910581588745117 4.110235214233398 48.81195831298828 8.564431190490723 C 146.6868896484375 -2.6714437007904053 142.37057495117188 34.624549865722656 57.83863830566406 29.041765213012695 C 5.702964782714844 31.7557430267334 -9.524860382080078 41.178043365478516 8.890008926391602 67.13844299316406" stroke-width="10.737835884094238" fill="none" stroke="rgb(0, 0, 0)" stroke-opacity="0.3497803" stroke-linecap="round" stroke-linejoin="round"/>
    <path d="M 328.20068359375 395.1050720214844 C 308.9205322265625 479.2697448730469 330.45849609375 452.47479248046875 306.96929931640625 443.50262451171875 C 322.6910705566406 461.874267578125 336.11260986328125 455.496826171875 334.58258056640625 476.2943115234375 C 336.709716796875 441.6195068359375 346.38873291015625 408.3035888671875 330.4154968261719 420.2073059082031 C 319.21771240234375 502.9235534667969 242.2963104248047 485.27813720703125 256.017333984375 444.3693542480469" stroke-width="2.0" fill="none" stroke="rgb(0, 0, 0)" stroke-opacity="0.14772207" stroke-linecap="round" stroke-linejoin="round"/>
    <path d="M 78.77713012695312 310.0080261230469 C 43.94511795043945 267.62744140625 70.07457733154297 345.4540710449219 55.91451644897461 398.20916748046875 C 3.409853219985962 360.10113525390625 13.192033767700195 352.1802978515625 50.172203063964844 390.6747131347656 C 30.44996452331543 367.3818664550781 8.109614372253418 383.3558654785156 87.43804168701172 360.3869934082031 C 53.41493606567383 432.6156311035156 78.24241638183594 461.9281921386719 82.296630859375 405.8809509277344" stroke-width="2.0" fill="none" stroke="rgb(0, 0, 0)" stroke-opacity="0.7984303" stroke-linecap="round" stroke-linejoin="round"/>
    <path d="M 418.4107971191406 438.5416564941406 C 386.9091796875 440.8451232910156 395.38409423828125 435.7138977050781 457.9898376464844 428.7991638183594 C 404.13323974609375 430.560546875 364.6645812988281 441.4278869628906 362.3879699707031 468.5650329589844 C 330.0673522949219 461.55487060546875 295.89520263671875 466.44366455078125 298.0018615722656 489.7316589355469 C 362.8187561035156 500.8948059082031 387.9750671386719 484.67352294921875 431.9236755371094 484.2161560058594" stroke-width="2.0" fill="none" stroke="rgb(0, 0, 0)" stroke-opacity="0.16588353" stroke-linecap="round" stroke-linejoin="round"/>
    <path d="M 39.8160285949707 55.84554672241211 C 25.402124404907227 45.363731384277344 24.97808074951172 57.651798248291016 98.5190658569336 39.77952194213867 C 176.7863006591797 7.937575340270996 207.9134979248047 18.490947723388672 180.2368621826172 79.88751220703125 C 154.1876678466797 152.7992706298828 141.97372436523438 190.9577178955078 161.25144958496094 128.97552490234375 C 115.76644134521484 86.3941421508789 109.32040405273438 148.73500061035156 203.38145446777344 126.11609649658203" stroke-width="2.0575942993164062" fill="none" stroke="rgb(0, 0, 0)" stroke-opacity="0.8981163" stroke-linecap="round" stroke-linejoin="round"/>
    <path d="M 254.21826171875 136.55740356445312 C 227.34605407714844 165.99630737304688 190.0709228515625 153.54098510742188 184.66001892089844 75.04135131835938 C 189.75088500976562 141.56736755371094 207.5889129638672 99.02641296386719 197.94842529296875 -16.54279899597168 C 183.74073791503906 162.27024841308594 172.8172149658203 130.8567657470703 178.749267578125 89.78410339355469 C 234.6781463623047 123.32219696044922 194.7255859375 137.81024169921875 141.9947967529297 136.25279235839844" stroke-width="10.07052993774414" fill="none" stroke="rgb(0, 0, 0)" stroke-opacity="0.64433956" stroke-linecap="round" stroke-linejoin="round"/>
    <path d="M 86.1728744506836 262.6378173828125 C 97.48884582519531 300.07183837890625 158.72573852539062 278.74493408203125 131.44923400878906 286.4468078613281 C 121.00659942626953 363.6746826171875 113.46077728271484 342.8091125488281 115.46448516845703 317.9228515625 C 45.947017669677734 291.6891784667969 59.861080169677734 309.76800537109375 117.60485076904297 336.5101318359375 C 121.30990600585938 388.8533020019531 77.41720581054688 398.4771423339844 24.20416259765625 369.34722900390625" stroke-width="5.035022735595703" fill="none" stroke="rgb(0, 0, 0)" stroke-opacity="0.9375708" stroke-linecap="round" stroke-linejoin="round"/>
    <path d="M 195.2398223876953 250.9857940673828 C 213.13612365722656 173.53781127929688 239.60354614257812 186.959228515625 241.76321411132812 270.7265319824219 C 243.79295349121094 308.12554931640625 184.13185119628906 294.9241638183594 193.20001220703125 226.64649963378906 C 206.45498657226562 236.8751220703125 259.0478515625 267.4992370605469 269.88067626953125 247.47547912597656 C 234.54481506347656 231.97044372558594 184.3553009033203 210.57505798339844 233.8323211669922 190.43011474609375" stroke-width="6.387627124786377" fill="none" stroke="rgb(0, 0, 0)" stroke-opacity="0.4619393" stroke-linecap="round" stroke-linejoin="round"/>
    <path d="M 385.7897033691406 287.561767578125 C 383.3100280761719 285.5187683105469 407.1289978027344 276.13153076171875 450.5239562988281 265.8938293457031 C 443.9088134765625 249.62109375 439.32977294921875 204.9397735595703 420.7764892578125 250.72853088378906 C 392.0475158691406 271.6070251464844 345.9276428222656 292.95123291015625 303.3612976074219 275.89453125 C 322.024169921875 290.8994445800781 315.82806396484375 300.821533203125 339.2069091796875 295.6918640136719" stroke-width="10.232575416564941" fill="none" stroke="rgb(0, 0, 0)" stroke-opacity="0.33555606" stroke-linecap="round" stroke-linejoin="round"/>
    <path d="M 612.2127685546875 157.01524353027344 C 616.159912109375 210.34457397460938 637.541748046875 189.8377227783203 658.4249267578125 192.80735778808594 C 638.4437255859375 184.82708740234375 639.5611572265625 175.0215301513672 635.5104370117188 152.6947479248047 C 619.6558837890625 178.2733154296875 634.235595703125 205.3933868408203 618.1420288085938 211.2187957763672 C 629.47802734375 189.5058135986328 646.021240234375 206.21853637695312 662.1759033203125 226.9998779296875" stroke-width="8.21993350982666" fill="none" stroke="rgb(0, 0, 0)" stroke-opacity="0.16409431" stroke-linecap="round" stroke-linejoin="round"/>
    <path d="M 423.6981201171875 510.18975830078125 C 378.6520080566406 551.730224609375 381.26715087890625 530.1907958984375 383.41119384765625 509.46844482421875 C 400.93975830078125 536.79541015625 421.8143615722656 550.4132080078125 383.1616516113281 587.1793823242188 C 368.2283630371094 505.24432373046875 395.20318603515625 531.7144165039062 396.15826416015625 560.1781005859375 C 446.6802673339844 466.43231201171875 438.7019958496094 457.5337829589844 309.3592224121094 482.78253173828125" stroke-width="7.65264368057251" fill="none" stroke="rgb(0, 0, 0)" stroke-opacity="0.37182257" stroke-linecap="round" stroke-linejoin="round"/>
    <path d="M 66.18062591552734 515.7725219726562 C -120.59009552001953 523.3499145507812 -77.86409759521484 517.5154418945312 -2.421722650527954 514.55517578125 C 51.520111083984375 545.4418334960938 62.44010543823242 540.091552734375 -26.29439353942871 528.5838623046875 C 11.115252494812012 521.4674682617188 45.728919982910156 495.9978942871094 73.00669860839844 517.3655395507812 C 42.192955017089844 493.7057800292969 16.168291091918945 489.4252624511719 43.30245590209961 506.4776306152344" stroke-width="8.392584800720215" fill="none" stroke="rgb(0, 0, 0)" stroke-opacity="0.9501629" stroke-linecap="round" stroke-linejoin="round"/>
    <path d="M 312.6224670410156 -4.698495864868164 C 364.5452880859375 3.0587308406829834 335.76763916015625 -26.89304542541504 345.3175964355469 -26.457300186157227 C 307.613525390625 -55.299983978271484 312.8280334472656 -64.17945861816406 319.4952697753906 -56.56296920776367 C 295.5788879394531 -38.47722244262695 307.79119873046875 -9.763124465942383 328.4970703125 -14.213143348693848 C 305.37359619140625 -34.70454406738281 298.82000732421875 -37.793514251708984 280.1979675292969 -67.04398345947266" stroke-width="2.0" fill="none" stroke="rgb(0, 0, 0)" stroke-opacity="0.99938333" stroke-linecap="round" stroke-linejoin="round"/>
    <path d="M 275.8797912597656 185.5193328857422 C 253.08786010742188 215.6401824951172 206.1896209716797 199.84043884277344 204.1756591796875 169.0714111328125 C 238.54959106445312 234.7178192138672 224.75027465820312 189.55682373046875 193.93165588378906 120.64258575439453 C 185.67861938476562 186.04757690429688 184.27261352539062 220.3162078857422 192.4183349609375 142.7071075439453 C 193.3372802734375 145.4778594970703 215.88536071777344 191.75503540039062 270.61065673828125 193.95431518554688" stroke-width="2.0" fill="none" stroke="rgb(0, 0, 0)" stroke-opacity="0.6669459" stroke-linecap="round" stroke-linejoin="round"/>
    <path d="M 270.4291076660156 575.2278442382812 C 111.29792785644531 561.16796875 155.86074829101562 525.69580078125 183.06594848632812 569.8528442382812 C 204.3267059326172 582.1591186523438 147.6239471435547 584.7000122070312 116.22136688232422 572.347412109375 C 213.6864776611328 557.6725463867188 259.31988525390625 577.9466552734375 223.2204132080078 519.8526000976562 C 119.94115447998047 498.6672668457031 118.40023803710938 520.7466430664062 63.462066650390625 543.0107421875" stroke-width="11.947600364685059" fill="none" stroke="rgb(0, 0, 0)" stroke-opacity="0.14950328" stroke-linecap="round" stroke-linejoin="round"/>
    <path d="M 99.24888610839844 329.3366394042969 C 229.0696563720703 335.3740539550781 198.44198608398438 330.66229248046875 224.0740966796875 315.54620361328125 C 180.7497100830078 376.3648681640625 216.01541137695312 343.35394287109375 202.56387329101562 322.4996643066406 C 211.22518920898438 380.6040954589844 203.7609100341797 404.7053527832031 285.62255859375 406.2220153808594 C 287.6376953125 407.0928649902344 237.25833129882812 401.8984069824219 172.6329345703125 397.2254638671875" stroke-width="7.95937442779541" fill="none" stroke="rgb(0, 0, 0)" stroke-opacity="0.84139854" stroke-linecap="round" stroke-linejoin="round"/>
    <path d="M -0.516655445098877 433.9935607910156 C 24.264205932617188 467.7356872558594 10.555578231811523 428.7881774902344 6.611449241638184 450.6625671386719 C 31.711219787597656 484.46826171875 51.616493225097656 470.99371337890625 194.03602600097656 475.4794616699219 C 155.23402404785156 477.5252380371094 88.36473846435547 456.45928955078125 85.53216552734375 473.0131530761719 C 150.23504638671875 461.9508056640625 170.51544189453125 457.6854553222656 142.77899169921875 531.3961181640625" stroke-width="8.737113952636719" fill="none" stroke="rgb(0, 0, 0)" stroke-opacity="0.84833026" stroke-linecap="round" stroke-linejoin="round"/>
    <path d="M 463.0719909667969 144.45506286621094 C 479.991455078125 145.2009735107422 504.7918395996094 150.57138061523438 486.90045166015625 130.00250244140625 C 498.9815979003906 123.09857177734375 446.8734436035156 129.46469116210938 451.3508605957031 133.29673767089844 C 466.64422607421875 124.7093505859375 459.0818176269531 137.03724670410156 494.719482421875 134.17323303222656 C 437.53375244140625 140.51217651367188 413.2779541015625 158.30413818359375 472.0029296875 149.77870178222656" stroke-width="11.971900939941406" fill="none" stroke="rgb(0, 0, 0)" stroke-opacity="0.4366405" stroke-linecap="round" stroke-linejoin="round"/>
    <path d="M 105.28780364990234 95.86378479003906 C 149.18923950195312 126.4838638305664 168.82992553710938 111.530029296875 162.69960021972656 111.7417984008789 C 167.65614318847656 121.2647933959961 191.33824157714844 149.25718688964844 206.7141571044922 111.25605773925781 C 178.24636840820312 84.16758728027344 137.08810424804688 117.85604095458984 154.96881103515625 88.56970977783203 C 171.7039794921875 74.68465423583984 174.8627166748047 79.9341812133789 125.27129364013672 96.74420928955078" stroke-width="4.982753753662109" fill="none" stroke="rgb(0, 0, 0)" stroke-opacity="0.39401826" stroke-linecap="round" stroke-linejoin="round"/>
    <path d="M 586.9398193359375 449.1016845703125 C 433.1638488769531 441.2943420410156 457.7967224121094 477.17462158203125 473.39129638671875 574.2508544921875 C 508.25439453125 555.156005859375 516.7583618164062 554.5791015625 500.19488525390625 591.8793334960938 C 482.61480712890625 632.4708862304688 482.8302917480469 619.199951171875 454.49224853515625 586.2003784179688 C 433.28302001953125 535.265869140625 486.43109130859375 508.86572265625 479.626708984375 590.2659912109375" stroke-width="7.63422966003418" fill="none" stroke="rgb(0, 0, 0)" stroke-opacity="0.57941735" stroke-linecap="round" stroke-linejoin="round"/>
    <path d="M 97.2457504272461 207.099853515625 C 122.34365844726562 243.07955932617188 139.11056518554688 245.38673400878906 133.29730224609375 223.17861938476562 C 127.50206756591797 206.76161193847656 144.16268920898438 261.9063415527344 131.97726440429688 230.93931579589844 C 124.92269134521484 233.1239471435547 152.99867248535156 221.2177276611328 122.21684265136719 282.56341552734375 C 138.05337524414062 333.87603759765625 135.51113891601562 256.6817932128906 132.486328125 217.86830139160156" stroke-width="3.2784476280212402" fill="none" stroke="rgb(0, 0, 0)" stroke-opacity="0.9550564" stroke-linecap="round" stroke-linejoin="round"/>
    <path d="M 421.9786376953125 461.76495361328125 C 381.4488220214844 457.0862121582031 410.1110534667969 446.266357421875 466.0401611328125 438.8976745605469 C 455.2679748535156 400.3801574707031 447.1972351074219 366.5229797363281 472.68548583984375 357.3560791015625 C 466.4813232421875 287.7854309082031 417.3730773925781 267.8884582519531 495.9632873535156 257.7326965332031 C 493.8305358886719 286.7314758300781 538.4649658203125 265.8661193847656 485.2428283691406 279.1015319824219" stroke-width="2.0765278339385986" fill="none" stroke="rgb(0, 0, 0)" stroke-opacity="0.30322307" stroke-linecap="round" stroke-linejoin="round"/>
    <path d="M 500.92535400390625 492.25152587890625 C 452.2803649902344 585.50634765625 443.7632141113281 540.7063598632812 425.32513427734375 547.8012084960938 C 474.3523254394531 525.4181518554688 520.468017578125 511.69464111328125 488.591796875 526.5630493164062 C 461.35443115234375 499.55987548828125 476.26300048828125 487.6087646484375 530.6898803710938 502.2987365722656 C 551.2652587890625 592.2054443359375 573.4080200195312 620.5321044921875 591.099365234375 648.886962890625" stroke-width="8.128819465637207" fill="none" stroke="rgb(0, 0, 0)" stroke-opacity="0.533155" stroke-linecap="round" stroke-linejoin="round"/>
    <path d="M 44.85397720336914 -17.300247192382812 C -22.551502227783203 -5.1185994148254395 -39.959747314453125 1.5770684480667114 -41.48213195800781 -6.720149517059326 C -40.817466735839844 -35.17790603637695 -62.35799026489258 -24.516334533691406 -80.67163848876953 -31.190263748168945 C -54.68247985839844 -4.323750019073486 -40.605690002441406 -23.674976348876953 -64.63137817382812 -38.53093719482422 C -93.87158203125 -53.20983123779297 -114.06139373779297 -42.36610794067383 -122.1421127319336 -33.844356536865234" stroke-width="8.019346237182617" fill="none" stroke="rgb(0, 0, 0)" stroke-opacity="0.23208117" stroke-linecap="round" stroke-linejoin="round"/>
    <path d="M 329.67303466796875 107.10704040527344 C 343.2948303222656 98.24650573730469 322.1717834472656 104.2873764038086 336.0272216796875 139.5992431640625 C 361.89495849609375 147.690673828125 365.4768371582031 132.46499633789062 400.14971923828125 122.80914306640625 C 379.7428894042969 111.93355560302734 365.5740966796875 153.3709716796875 306.9110412597656 160.62997436523438 C 371.0986328125 181.91305541992188 353.7044982910156 159.256591796875 395.16351318359375 154.26055908203125" stroke-width="4.715683460235596" fill="none" stroke="rgb(0, 0, 0)" stroke-opacity="0.7117814" stroke-linecap="round" stroke-linejoin="round"/>
    <path d="M 527.1939697265625 182.0598907470703 C 509.9586486816406 175.11500549316406 510.9743957519531 170.2486114501953 499.3894958496094 157.623291015625 C 415.95501708984375 182.36119079589844 381.1630859375 161.65101623535156 453.5588073730469 137.7745819091797 C 544.9843139648438 127.0982894897461 569.4642944335938 87.39445495605469 507.111572265625 118.76224517822266 C 482.2397155761719 132.42738342285156 499.0027160644531 103.1452865600586 492.1709289550781 145.89984130859375" stroke-width="2.0" fill="none" stroke="rgb(0, 0, 0)" stroke-opacity="0.70170027" stroke-linecap="round" stroke-linejoin="round"/>
    <path d="M 381.0301513671875 114.67032623291016 C 390.3716125488281 137.94488525390625 396.01434326171875 99.12368774414062 467.3607482910156 136.59156799316406 C 496.55877685546875 131.31842041015625 467.62921142578125 136.15866088867188 499.11163330078125 166.88465881347656 C 495.083251953125 171.43441772460938 499.92901611328125 152.47476196289062 575.5573120117188 155.84043884277344 C 582.2872314453125 110.4758529663086 559.2301025390625 179.0630340576172 564.096435546875 84.69557189941406" stroke-width="2.69789981842041" fill="none" stroke="rgb(0, 0, 0)" stroke-opacity="0.060829956" stroke-linecap="round" stroke-linejoin="round"/>
    <path d="M 243.17184448242188 348.7355651855469 C 292.17926025390625 308.9975891113281 260.3416442871094 339.27740478515625 231.75843811035156 338.56573486328125 C 174.62075805664062 306.2143859863281 189.4107208251953 358.4429626464844 197.83792114257812 307.11065673828125 C 197.7628936767578 259.8816833496094 183.02151489257812 258.0728454589844 260.1174011230469 309.4856262207031 C 201.6909637451172 340.044921875 197.3746795654297 336.34375 220.15089416503906 324.34228515625" stroke-width="9.739235877990723" fill="none" stroke="rgb(0, 0, 0)" stroke-opacity="0.11513427" stroke-linecap="round" stroke-linejoin="round"/>
    <path d="M 393.4671325683594 543.3093872070312 C 415.33221435546875 508.2410888671875 365.76214599609375 520.4488525390625 442.5881042480469 496.4807434082031 C 455.1523132324219 480.0135803222656 407.1621398925781 472.1112365722656 363.8308410644531 449.78350830078125 C 365.4102783203125 515.3469848632812 363.7316589355469 476.1522216796875 364.2100524902344 459.0483093261719 C 362.9750671386719 415.1769104003906 352.37420654296875 435.4621887207031 388.0691223144531 460.52447509765625" stroke-width="6.524111747741699" fill="none" stroke="rgb(0, 0, 0)" stroke-opacity="0.50549215" stroke-linecap="round" stroke-linejoin="round"/>
    <path d="M 503.7291564941406 275.8606262207031 C 501.9445495605469 431.6183776855469 476.99603271484375 444.2728576660156 492.0257263183594 418.583740234375 C 547.00439453125 413.51348876953125 572.4178466796875 399.831787109375 459.5752258300781 404.4024353027344 C 415.1072998046875 430.98138427734375 428.7319030761719 463.72723388671875 445.330810546875 460.4814758300781 C 412.8563232421875 543.04150390625 435.73065185546875 570.0732421875 472.40228271484375 411.3792724609375" stroke-width="12.0" fill="none" stroke="rgb(0, 0, 0)" stroke-opacity="0.18745951" stroke-linecap="round" stroke-linejoin="round"/>
    <path d="M 289.3005676269531 481.69378662109375 C 289.7205810546875 450.1997985839844 277.3107604980469 440.3246154785156 160.6239013671875 450.90777587890625 C 230.53952026367188 485.1518249511719 331.5750427246094 435.73858642578125 315.0086975097656 468.16497802734375 C 251.50738525390625 476.9327392578125 230.8338165283203 497.34246826171875 222.69277954101562 404.3150329589844 C 316.60491943359375 395.716064453125 259.749267578125 457.22430419921875 319.0108947753906 458.1043395996094" stroke-width="2.2113332748413086" fill="none" stroke="rgb(0, 0, 0)" stroke-opacity="0.47329006" stroke-linecap="round" stroke-linejoin="round"/>
    <path d="M 470.8305969238281 559.5956420898438 C 463.8700866699219 485.25518798828125 446.23828125 489.04388427734375 563.7044067382812 458.3525695800781 C 562.2666015625 454.6881408691406 528.6279296875 452.53369140625 549.5859375 508.60870361328125 C 560.74560546875 682.1284790039062 571.931396484375 664.742919921875 565.4156494140625 567.5665893554688 C 595.1318969726562 633.6534423828125 550.7726440429688 661.6377563476562 561.2990112304688 542.7786865234375" stroke-width="6.4571685791015625" fill="none" stroke="rgb(0, 0, 0)" stroke-opacity="0.9705616" stroke-linecap="round" stroke-linejoin="round"/>
    <path d="M 234.4415283203125 532.5286254882812 C 153.76304626464844 516.0765380859375 205.02146911621094 529.6236572265625 306.90509033203125 484.4440612792969 C 296.8909912109375 456.8774108886719 227.85728454589844 486.0303955078125 229.0511474609375 478.9320983886719 C 233.09799194335938 547.9647216796875 205.72959899902344 558.592041015625 216.8338165283203 471.8828430175781 C 249.41380310058594 470.89263916015625 214.04725646972656 509.12237548828125 261.44793701171875 445.6812438964844" stroke-width="7.541722774505615" fill="none" stroke="rgb(0, 0, 0)" stroke-opacity="0.6747368" stroke-linecap="round" stroke-linejoin="round"/>
    <path d="M 174.61077880859375 184.65362548828125 C 200.46591186523438 183.88287353515625 257.20513916015625 204.98406982421875 224.6996612548828 183.32769775390625 C 243.38565063476562 245.80706787109375 230.79083251953125 239.1445770263672 187.76907348632812 233.95938110351562 C 219.7188720703125 212.4080047607422 240.42279052734375 244.5689239501953 232.2818603515625 237.6048583984375 C 212.9057159423828 240.163330078125 294.856201171875 241.7670135498047 269.5164489746094 237.001953125" stroke-width="2.2379746437072754" fill="none" stroke="rgb(0, 0, 0)" stroke-opacity="0.56528026" stroke-linecap="round" stroke-linejoin="round"/>
    <path d="M 50.17953109741211 453.0008850097656 C 102.66969299316406 449.87396240234375 57.54924011230469 481.33782958984375 48.91017532348633 485.78118896484375 C 69.74809265136719 435.7671203613281 0.2421250194311142 431.5701904296875 3.7670106887817383 503.1593017578125 C 22.832542419433594 538.4065551757812 51.33068084716797 536.1959838867188 29.479034423828125 500.0265197753906 C -17.188274383544922 535.7868041992188 1.5487099885940552 520.4403076171875 53.23365020751953 515.6927490234375" stroke-width="2.0" fill="none" stroke="rgb(0, 0, 0)" stroke-opacity="0.7091959" stroke-linecap="round" stroke-linejoin="round"/>
    <path d="M 442.426513671875 152.26065063476562 C 419.438720703125 135.1353759765625 445.5592041015625 145.4425811767578 441.29486083984375 158.93255615234375 C 454.56695556640625 177.8750457763672 471.16802978515625 163.11099243164062 486.8271789550781 157.7174072265625 C 510.9978332519531 166.92559814453125 494.5185241699219 149.23818969726562 501.3110046386719 138.12222290039062 C 551.4254760742188 86.26126098632812 623.718994140625 119.38094329833984 627.93359375 140.2480010986328" stroke-width="2.0" fill="none" stroke="rgb(0, 0, 0)" stroke-opacity="0.80118036" stroke-linecap="round" stroke-linejoin="round"/>
    <path d="M 547.879150390625 210.9053497314453 C 503.0820617675781 212.2642364501953 501.2513122558594 230.6122283935547 576.6862182617188 202.82481384277344 C 630.1185302734375 196.86460876464844 567.5792846679688 192.06724548339844 534.7418823242188 215.4679718017578 C 490.0062255859375 224.24058532714844 506.1937255859375 204.6349334716797 483.3326416015625 217.68170166015625 C 476.17047119140625 193.46270751953125 471.9453125 180.1815643310547 537.046142578125 189.9670867919922" stroke-width="4.230894088745117" fill="none" stroke="rgb(0, 0, 0)" stroke-opacity="0.7350717" stroke-linecap="round" stroke-linejoin="round"/>
    <path d="M 544.6741943359375 527.3277587890625 C 535.379150390625 395.6307678222656 496.3736267089844 435.0394287109375 489.4162292480469 510.5470275878906 C 500.96990966796875 623.6485595703125 498.98419189453125 646.6516723632812 492.93310546875 620.0231323242188 C 490.4315185546875 549.5751342773438 461.07421875 492.92218017578125 502.32672119140625 492.4493408203125 C 512.02001953125 611.3758544921875 512.5960083007812 627.3660278320312 511.80853271484375 556.8314208984375" stroke-width="12.0" fill="none" stroke="rgb(0, 0, 0)" stroke-opacity="0.8856948" stroke-linecap="round" stroke-linejoin="round"/>
    <path d="M 68.95494079589844 455.3115234375 C 61.63668441772461 504.6582336425781 24.466556549072266 498.8233642578125 9.440730094909668 520.934814453125 C 70.7344970703125 519.5781860351562 84.85670471191406 487.0431213378906 113.3021469116211 525.3132934570312 C 121.40835571289062 524.7526245117188 97.9372329711914 462.4701232910156 127.3468017578125 475.3522644042969 C 113.15524291992188 478.5422058105469 96.53390502929688 484.1725158691406 61.796607971191406 448.208251953125" stroke-width="5.35990571975708" fill="none" stroke="rgb(0, 0, 0)" stroke-opacity="0.7962764" stroke-linecap="round" stroke-linejoin="round"/>
    <path d="M 77.88195037841797 254.33580017089844 C 126.8775634765625 285.3398742675781 134.66319274902344 280.4471130371094 121.5645751953125 252.16412353515625 C 120.89268493652344 242.0208282470703 73.5196762084961 237.86517333984375 184.54971313476562 232.51211547851562 C 203.4656524658203 280.3590087890625 194.07989501953125 262.0035095214844 188.9739227294922 215.3787841796875 C 193.01580810546875 180.67095947265625 178.55125427246094 208.62506103515625 215.19264221191406 201.83871459960938" stroke-width="2.342099905014038" fill="none" stroke="rgb(0, 0, 0)" stroke-opacity="0.34467396" stroke-linecap="round" stroke-linejoin="round"/>
    <path d="M 153.68505859375 283.4223937988281 C 290.8899230957031 291.75787353515625 297.25128173828125 278.5875549316406 270.444580078125 294.9031677246094 C 227.8333740234375 270.90960693359375 161.5293731689453 257.7795104980469 208.64720153808594 214.3590087890625 C 149.2838592529297 217.56813049316406 128.4130859375 236.128662109375 143.93637084960938 189.79299926757812 C 196.70440673828125 176.68544006347656 215.7960662841797 184.21273803710938 249.93348693847656 172.4270782470703" stroke-width="6.128289222717285" fill="none" stroke="rgb(0, 0, 0)" stroke-opacity="0.4554265" stroke-linecap="round" stroke-linejoin="round"/>
    <path d="M 392.0864562988281 556.2420043945312 C 387.7149963378906 635.5250854492188 387.6796875 640.8042602539062 423.36688232421875 693.1085815429688 C 338.96258544921875 624.4442749023438 345.62457275390625 649.1405029296875 370.48187255859375 658.4874877929688 C 365.7189025878906 615.5997314453125 374.6868896484375 550.6475219726562 384.8265075683594 497.80108642578125 C 373.5686950683594 472.2891540527344 335.2619323730469 517.9447631835938 292.44696044921875 556.708740234375" stroke-width="9.28292465209961" fill="none" stroke="rgb(0, 0, 0)" stroke-opacity="0.8620227" stroke-linecap="round" stroke-linejoin="round"/>
    <path d="M 66.13075256347656 309.1212463378906 C 30.765098571777344 220.11065673828125 31.32257652282715 181.70603942871094 3.5069773197174072 211.0707244873047 C 12.383214950561523 252.29849243164062 0.9615336656570435 173.81727600097656 7.610970973968506 127.81517028808594 C -16.095359802246094 176.32534790039062 -30.1572208404541 184.05455017089844 -49.38661193847656 167.34390258789062 C -66.1590805053711 143.4454803466797 -93.4646987915039 142.50608825683594 -88.54727172851562 140.1993408203125" stroke-width="2.3910117149353027" fill="none" stroke="rgb(0, 0, 0)" stroke-opacity="0.07525986" stroke-linecap="round" stroke-linejoin="round"/>
    <path d="M 51.008487701416016 517.7326049804688 C 169.49557495117188 523.7546997070312 137.88247680664062 507.16180419921875 90.58484649658203 508.796875 C 106.94042205810547 445.83721923828125 75.4057388305664 485.8374938964844 49.88060760498047 467.4987487792969 C 52.42487335205078 545.832763671875 27.581310272216797 504.664306640625 71.07542419433594 503.6682434082031 C 80.43321990966797 459.5450134277344 50.374290466308594 469.8568420410156 124.35942840576172 468.1066589355469" stroke-width="5.897831439971924" fill="none" stroke="rgb(0, 0, 0)" stroke-opacity="0.9756142" stroke-linecap="round" stroke-linejoin="round"/>
    <path d="M 308.4357604980469 488.09759521484375 C 278.2608642578125 493.0781555175781 230.95533752441406 535.1760864257812 204.83290100097656 512.060791015625 C 224.06011962890625 520.0662841796875 244.0172882080078 516.45703125 226.34341430664062 459.82733154296875 C 243.2224578857422 467.0416259765625 235.0987548828125 482.75860595703125 255.68995666503906 477.2093200683594 C 247.03207397460938 464.3570556640625 265.2362365722656 435.5298767089844 228.2706298828125 484.9738464355469" stroke-width="6.190439701080322" fill="none" stroke="rgb(0, 0, 0)" stroke-opacity="0.4764339" stroke-linecap="round" stroke-linejoin="round"/>
    <path d="M 340.112548828125 483.8507995605469 C 268.76763916015625 499.9969482421875 304.0487365722656 490.2366638183594 419.9635925292969 506.04766845703125 C 355.11004638671875 534.3939208984375 313.7207336425781 541.8424072265625 269.50408935546875 550.5475463867188 C 299.37908935546875 558.2354125976562 266.5176086425781 542.7674560546875 249.0472869873047 557.1193237304688 C 269.27044677734375 563.027587890625 277.4437255859375 537.4529418945312 199.29660034179688 593.1460571289062" stroke-width="2.0" fill="none" stroke="rgb(0, 0, 0)" stroke-opacity="0.94153124" stroke-linecap="round" stroke-linejoin="round"/>
    <path d="M 481.79254150390625 409.4903869628906 C 470.0200500488281 370.95001220703125 478.08587646484375 425.6736145019531 465.4555358886719 467.6257019042969 C 379.3208923339844 486.5432434082031 418.6784362792969 506.7607727050781 535.534423828125 486.8341369628906 C 516.9583129882812 524.5965576171875 526.2335205078125 423.404052734375 521.3612670898438 412.00579833984375 C 516.3331909179688 346.1528625488281 516.3316650390625 380.61187744140625 517.33544921875 350.59246826171875" stroke-width="7.496731281280518" fill="none" stroke="rgb(0, 0, 0)" stroke-opacity="0.59676886" stroke-linecap="round" stroke-linejoin="round"/>
    <path d="M 587.990234375 406.93206787109375 C 591.0391235351562 437.0202331542969 576.9231567382812 419.7261047363281 592.90478515625 335.8392639160156 C 568.5665283203125 353.74346923828125 592.4404296875 365.9891662597656 650.0267333984375 360.51129150390625 C 679.4327392578125 349.3990783691406 648.9766235351562 342.2476501464844 589.0393676757812 322.9811706542969 C 576.573486328125 364.7122497558594 580.9041748046875 356.57550048828125 568.6609497070312 481.1954650878906" stroke-width="3.4205613136291504" fill="none" stroke="rgb(0, 0, 0)" stroke-opacity="0.5150186" stroke-linecap="round" stroke-linejoin="round"/>
    <path d="M 439.0086364746094 291.6549987792969 C 449.7494201660156 299.6806640625 456.3668212890625 244.74464416503906 427.3199462890625 244.3268585205078 C 438.8272399902344 253.11618041992188 459.04974365234375 237.47508239746094 408.5420837402344 149.4945831298828 C 413.8694152832031 139.39019775390625 504.9165344238281 136.6483612060547 409.3700866699219 114.48348236083984 C 334.26190185546875 138.5171356201172 366.3155517578125 116.36602020263672 377.2041320800781 133.48788452148438" stroke-width="2.4638187885284424" fill="none" stroke="rgb(0, 0, 0)" stroke-opacity="0.58552843" stroke-linecap="round" stroke-linejoin="round"/>
    <path d="M 588.3728637695312 410.7678527832031 C 568.9214477539062 455.2287292480469 605.57177734375 460.744140625 594.4714965820312 384.61627197265625 C 572.9164428710938 432.1318664550781 599.7112426757812 444.40179443359375 589.9025268554688 372.7774963378906 C 531.0379638671875 368.3233337402344 564.754150390625 389.4802551269531 565.3922119140625 410.7567443847656 C 542.5407104492188 386.2340087890625 565.5884399414062 435.8970031738281 543.98046875 348.0780944824219" stroke-width="10.423847198486328" fill="none" stroke="rgb(0, 0, 0)" stroke-opacity="0.5944842" stroke-linecap="round" stroke-linejoin="round"/>
    <path d="M 112.76939392089844 24.444238662719727 C 181.6670379638672 10.981070518493652 181.08824157714844 -9.083879470825195 163.02142333984375 2.047574520111084 C 73.4635009765625 24.321636199951172 81.18440246582031 -15.165420532226562 106.89601135253906 10.879034042358398 C 142.65609741210938 -3.1882338523864746 165.23069763183594 17.856351852416992 189.85987854003906 -22.110017776489258 C 219.17245483398438 40.506675720214844 188.6605224609375 22.001188278198242 285.2571105957031 -3.7247531414031982" stroke-width="2.8255832195281982" fill="none" stroke="rgb(0, 0, 0)" stroke-opacity="0.44824874" stroke-linecap="round" stroke-linejoin="round"/>
    <path d="M 208.3173065185547 407.131103515625 C 229.04757690429688 396.313720703125 209.87303161621094 404.4810485839844 230.6162109375 469.0442199707031 C 193.6902618408203 480.64361572265625 252.61766052246094 496.9366455078125 217.21688842773438 429.800537109375 C 237.8257293701172 343.9812927246094 280.902099609375 407.1924133300781 177.47265625 404.7001953125 C 80.73484802246094 398.97760009765625 68.605224609375 413.7891540527344 48.812808990478516 390.4992370605469" stroke-width="7.298845291137695" fill="none" stroke="rgb(0, 0, 0)" stroke-opacity="1.0" stroke-linecap="round" stroke-linejoin="round"/>
    <path d="M 487.8915710449219 41.156219482421875 C 469.3234558105469 63.77861404418945 481.4526672363281 43.611080169677734 485.3301696777344 36.759124755859375 C 483.4422607421875 55.32967758178711 436.0335998535156 61.67207336425781 415.2487487792969 69.77046203613281 C 441.4749755859375 54.852622985839844 420.418701171875 66.4224853515625 404.6917419433594 52.23040771484375 C 422.7557067871094 54.23033905029297 337.2255859375 66.63626861572266 344.3770446777344 54.19078063964844" stroke-width="5.9582839012146" fill="none" stroke="rgb(0, 0, 0)" stroke-opacity="0.52195" stroke-linecap="round" stroke-linejoin="round"/>
    <path d="M 48.71156311035156 97.42879486083984 C 56.64307403564453 101.45037078857422 58.22710418701172 88.74641418457031 78.39326477050781 90.15624237060547 C 85.33519744873047 95.7113265991211 128.05746459960938 65.25123596191406 113.4820327758789 105.73664855957031 C 160.11566162109375 150.09823608398438 172.24473571777344 138.10340881347656 145.03623962402344 183.97134399414062 C 143.92913818359375 203.70425415039062 112.44144439697266 182.42843627929688 91.41546630859375 145.98728942871094" stroke-width="6.410126686096191" fill="none" stroke="rgb(0, 0, 0)" stroke-opacity="0.8566949" stroke-linecap="round" stroke-linejoin="round"/>
    <path d="M 426.774169921875 393.0293884277344 C 445.13287353515625 494.8565979003906 435.38177490234375 502.7874450683594 484.4736328125 479.4551086425781 C 487.684814453125 452.0328369140625 478.14739990234375 396.25048828125 485.8726501464844 441.44891357421875 C 501.6652526855469 472.31402587890625 445.16229248046875 434.6434020996094 490.5025634765625 294.3717346191406 C 590.3275146484375 232.1993865966797 541.5748901367188 311.3473205566406 540.7157592773438 488.6545715332031" stroke-width="2.0" fill="none" stroke="rgb(0, 0, 0)" stroke-opacity="0.99035627" stroke-linecap="round" stroke-linejoin="round"/>
    <path d="M 155.4435577392578 119.53308868408203 C 188.5780487060547 95.98287200927734 193.7552947998047 135.50262451171875 192.40530395507812 87.11863708496094 C 200.4877166748047 -65.2801513671875 184.12701416015625 63.25852584838867 181.31996154785156 118.945068359375 C 222.88839721679688 120.0052490234375 236.60218811035156 151.26988220214844 203.22056579589844 170.08738708496094 C 179.92349243164062 163.6300048828125 221.61456298828125 214.14651489257812 259.79058837890625 199.6168670654297" stroke-width="11.95158576965332" fill="none" stroke="rgb(0, 0, 0)" stroke-opacity="0.5744638" stroke-linecap="round" stroke-linejoin="round"/>
    <path d="M 155.91741943359375 481.16143798828125 C 146.9274444580078 511.36126708984375 161.4158172607422 535.312255859375 182.46034240722656 530.2000122070312 C 174.49954223632812 499.7651062011719 164.09774780273438 520.6981811523438 129.18658447265625 546.146728515625 C 125.99537658691406 539.0986328125 169.9607391357422 548.3017578125 197.99029541015625 547.4483032226562 C 199.99830627441406 544.8038330078125 175.22662353515625 529.10498046875 72.32221221923828 600.8838500976562" stroke-width="3.045301914215088" fill="none" stroke="rgb(0, 0, 0)" stroke-opacity="0.69114155" stroke-linecap="round" stroke-linejoin="round"/>
    <path d="M 123.49606323242188 516.6234130859375 C 181.76205444335938 436.5041198730469 179.3425750732422 450.4293518066406 170.32064819335938 553.7307739257812 C 199.8004913330078 572.5586547851562 76.5362319946289 556.3571166992188 39.40220642089844 552.1880493164062 C 40.86054992675781 563.8828125 21.188085556030273 522.0261840820312 53.53672409057617 536.7224731445312 C 81.6029052734375 569.42236328125 85.76956176757812 536.396484375 8.4295015335083 597.2003784179688" stroke-width="6.897634506225586" fill="none" stroke="rgb(0, 0, 0)" stroke-opacity="0.4684963" stroke-linecap="round" stroke-linejoin="round"/>
    <path d="M 601.0687255859375 501.32501220703125 C 614.108642578125 643.5340576171875 600.618408203125 563.5927734375 584.1268310546875 453.5335998535156 C 673.7346801757812 452.528564453125 643.9908447265625 426.4136962890625 630.9059448242188 457.31341552734375 C 606.1272583007812 471.08074951171875 623.9078369140625 483.6502990722656 628.9549560546875 512.0899047851562 C 617.3248291015625 534.1574096679688 597.1376953125 548.6048583984375 611.3865966796875 521.2785034179688" stroke-width="9.822463035583496" fill="none" stroke="rgb(0, 0, 0)" stroke-opacity="0.77892476" stroke-linecap="round" stroke-linejoin="round"/>
    <path d="M 585.659912109375 560.7396850585938 C 539.0928955078125 402.88311767578125 628.9534912109375 452.61199951171875 587.3529663085938 426.8323669433594 C 572.3286743164062 433.000732421875 607.1768188476562 400.96575927734375 594.403076171875 431.301025390625 C 640.5103759765625 449.9278564453125 637.3622436523438 456.4685363769531 633.3322143554688 464.626953125 C 651.4085083007812 465.0178527832031 629.9556884765625 485.2388610839844 648.6299438476562 493.8495788574219" stroke-width="12.0" fill="none" stroke="rgb(0, 0, 0)" stroke-opacity="0.6764875" stroke-linecap="round" stroke-linejoin="round"/>
    <path d="M 71.11061096191406 465.2735595703125 C 158.83445739746094 462.48681640625 204.9730987548828 460.53204345703125 163.88450622558594 476.4553527832031 C 247.6277618408203 465.45538330078125 249.38392639160156 486.5229187011719 109.17252349853516 470.2560119628906 C 56.96247482299805 481.73760986328125 17.428970336914062 474.3719482421875 17.533435821533203 446.92791748046875 C -7.032904148101807 435.8118591308594 63.32494354248047 471.9234313964844 75.64888000488281 435.9231262207031" stroke-width="8.221593856811523" fill="none" stroke="rgb(0, 0, 0)" stroke-opacity="0.68102944" stroke-linecap="round" stroke-linejoin="round"/>
    <path d="M 262.1757507324219 255.2562713623047 C 274.218994140625 242.4163055419922 284.2669677734375 243.9088134765625 266.48577880859375 268.9953918457031 C 276.6353759765625 268.0000915527344 267.9922790527344 257.8548889160156 279.3011474609375 239.27764892578125 C 305.1015930175781 197.4383544921875 295.07958984375 160.9176788330078 314.7531433105469 152.40704345703125 C 345.9592590332031 160.33523559570312 285.2221984863281 168.9075164794922 308.42901611328125 136.64224243164062" stroke-width="2.0" fill="none" stroke="rgb(0, 0, 0)" stroke-opacity="0.8897882" stroke-linecap="round" stroke-linejoin="round"/>
    <path d="M 542.233154296875 193.89804077148438 C 615.6201782226562 180.37025451660156 627.8348388671875 216.300048828125 623.0846557617188 229.26454162597656 C 597.1176147460938 188.83819580078125 630.8014526367188 220.094970703125 603.5827026367188 204.4322509765625 C 612.598876953125 209.00340270996094 642.6756591796875 223.69851684570312 629.5120239257812 243.6146697998047 C 658.82568359375 234.6092987060547 628.9638061523438 240.8729705810547 619.2062377929688 220.7028045654297" stroke-width="11.076285362243652" fill="none" stroke="rgb(0, 0, 0)" stroke-opacity="0.12458834" stroke-linecap="round" stroke-linejoin="round"/>
    <path d="M 420.67913818359375 61.310855865478516 C 348.768798828125 76.31298828125 343.085205078125 43.79049301147461 341.8912658691406 85.64395141601562 C 321.6147766113281 138.2624969482422 298.1602783203125 158.2540740966797 286.25543212890625 167.0727996826172 C 277.5534973144531 152.5516357421875 281.88934326171875 159.06654357910156 248.55130004882812 177.22779846191406 C 230.84014892578125 186.3145294189453 261.07904052734375 196.67510986328125 279.3111572265625 179.53585815429688" stroke-width="2.013888359069824" fill="none" stroke="rgb(0, 0, 0)" stroke-opacity="0.7726338" stroke-linecap="round" stroke-linejoin="round"/>
    <path d="M 494.6714782714844 -3.1217551231384277 C 545.6683959960938 34.013145446777344 581.3099975585938 -12.80810546875 546.8724975585938 26.60913848876953 C 497.59783935546875 16.648014068603516 510.6893310546875 21.605937957763672 627.5697631835938 72.87804412841797 C 607.12841796875 102.16248321533203 629.7884521484375 140.12054443359375 678.17333984375 197.06625366210938 C 621.5582885742188 203.6144561767578 639.43603515625 211.9833221435547 576.412841796875 215.8455810546875" stroke-width="2.0" fill="none" stroke="rgb(0, 0, 0)" stroke-opacity="0.9441246" stroke-linecap="round" stroke-linejoin="round"/>
    <path d="M 223.9121551513672 572.5667724609375 C 333.1527099609375 502.199951171875 373.2528991699219 504.7860412597656 344.8286437988281 568.24072265625 C 336.78082275390625 552.243896484375 383.3276062011719 512.367431640625 367.1249084472656 545.30224609375 C 334.30352783203125 648.738037109375 372.90301513671875 650.7745971679688 374.7327880859375 562.4752807617188 C 432.7313232421875 567.5382690429688 394.2822570800781 609.086669921875 391.8152770996094 632.1863403320312" stroke-width="10.163192749023438" fill="none" stroke="rgb(0, 0, 0)" stroke-opacity="0.15871882" stroke-linecap="round" stroke-linejoin="round"/>
    <path d="M 208.3173065185547 407.131103515625 C 229.04757690429688 396.313720703125 209.87303161621094 404.4810485839844 230.6162109375 469.0442199707031 C 193.6902618408203 480.64361572265625 252.61766052246094 496.9366455078125 217.21688842773438 429.800537109375 C 237.8257293701172 343.9812927246094 280.902099609375 407.1924133300781 177.47265625 404.7001953125 C 80.73484802246094 398.97760009765625 68.605224609375 413.7891540527344 48.812808990478516 390.4992370605469" stroke-width="7.298845291137695" fill="none" stroke="rgb(0, 0, 0)" stroke-opacity="1.0" stroke-linecap="round" stroke-linejoin="round"/>
    <path d="M 295.57257080078125 489.3389587402344 C 312.76129150390625 506.9618835449219 290.7978210449219 499.1209716796875 221.94166564941406 537.2376708984375 C 188.96778869628906 539.77978515625 214.1848602294922 568.3294067382812 261.05938720703125 539.4581298828125 C 327.1526794433594 488.39532470703125 385.3733825683594 477.1995544433594 294.2078857421875 494.6040344238281 C 230.68228149414062 527.1016235351562 274.88671875 565.0569458007812 144.0938262939453 515.3057250976562" stroke-width="5.123771667480469" fill="none" stroke="rgb(0, 0, 0)" stroke-opacity="0.88985485" stroke-linecap="round" stroke-linejoin="round"/>
    <path d="M 208.3173065185547 407.131103515625 C 229.04757690429688 396.313720703125 209.87303161621094 404.4810485839844 230.6162109375 469.0442199707031 C 193.6902618408203 480.64361572265625 252.61766052246094 496.9366455078125 217.21688842773438 429.800537109375 C 237.8257293701172 343.9812927246094 280.902099609375 407.1924133300781 177.47265625 404.7001953125 C 80.73484802246094 398.97760009765625 68.605224609375 413.7891540527344 48.812808990478516 390.4992370605469" stroke-width="7.298845291137695" fill="none" stroke="rgb(0, 0, 0)" stroke-opacity="1.0" stroke-linecap="round" stroke-linejoin="round"/>
    <path d="M 15.135643005371094 491.8941650390625 C 79.79195404052734 506.93402099609375 158.01795959472656 534.5166625976562 177.32186889648438 510.69134521484375 C 52.8072395324707 508.140625 53.169071197509766 549.4502563476562 105.5726089477539 536.5254516601562 C 112.93605041503906 556.2711181640625 127.28849029541016 524.6901245117188 190.75169372558594 511.95281982421875 C 126.38014221191406 506.3414306640625 74.10871887207031 476.60662841796875 158.98431396484375 466.2250061035156" stroke-width="3.1691384315490723" fill="none" stroke="rgb(0, 0, 0)" stroke-opacity="0.35871604" stroke-linecap="round" stroke-linejoin="round"/>
    <path d="M 340.8181457519531 395.26263427734375 C 363.0228576660156 355.46893310546875 367.7527770996094 347.0043640136719 407.0334777832031 297.13623046875 C 380.78802490234375 295.6118469238281 353.3009338378906 322.6566162109375 360.2636413574219 282.3460693359375 C 358.920654296875 287.5411682128906 352.2015075683594 300.7072448730469 346.5721130371094 296.884765625 C 366.4942626953125 295.7050476074219 344.96417236328125 303.683837890625 317.07489013671875 298.2430114746094" stroke-width="2.0" fill="none" stroke="rgb(0, 0, 0)" stroke-opacity="0.9563661" stroke-linecap="round" stroke-linejoin="round"/>
    <path d="M 142.45370483398438 510.3688049316406 C 131.63670349121094 520.7365112304688 182.02066040039062 532.6151733398438 229.76995849609375 519.8689575195312 C 260.6587829589844 546.564697265625 213.2105255126953 522.3380737304688 38.09317398071289 516.2316284179688 C -1.0730820894241333 565.5624389648438 -0.6987152695655823 538.9270629882812 26.760583877563477 514.326904296875 C 156.0996856689453 525.8726196289062 155.59957885742188 519.1826171875 36.23112106323242 518.3314208984375" stroke-width="9.001944541931152" fill="none" stroke="rgb(0, 0, 0)" stroke-opacity="0.95557874" stroke-linecap="round" stroke-linejoin="round"/>
    <path d="M 446.27728271484375 609.6934204101562 C 444.6510314941406 465.1624450683594 478.6541442871094 455.93658447265625 472.0423583984375 518.355712890625 C 470.52410888671875 455.0619201660156 481.947021484375 499.3872375488281 451.1986999511719 489.6560363769531 C 451.5293884277344 532.1073608398438 462.6241149902344 606.277587890625 455.5209045410156 601.0950317382812 C 442.06317138671875 566.981201171875 450.2157897949219 582.1300659179688 439.7945556640625 458.9598083496094" stroke-width="9.473906517028809" fill="none" stroke="rgb(0, 0, 0)" stroke-opacity="0.74419564" stroke-linecap="round" stroke-linejoin="round"/>
    <path d="M -8.366704940795898 109.26433563232422 C -29.657320022583008 85.28646850585938 -5.831709384918213 57.70653533935547 -59.738311767578125 64.02313995361328 C -37.50416564941406 63.7381477355957 -1.6033307313919067 66.20108032226562 -18.106840133666992 65.1429443359375 C -19.732688903808594 53.74205017089844 -10.530976295471191 35.15797805786133 48.04373550415039 53.7005729675293 C 17.44688606262207 68.63490295410156 -5.312461853027344 64.07899475097656 5.943937301635742 118.32361602783203" stroke-width="2.0" fill="none" stroke="rgb(0, 0, 0)" stroke-opacity="0.73912215" stroke-linecap="round" stroke-linejoin="round"/>
    <path d="M 76.58878326416016 112.39058685302734 C 62.44733428955078 116.43326568603516 83.1009750366211 121.63550567626953 66.86315155029297 119.40574645996094 C 98.40467834472656 103.48147583007812 69.87638092041016 115.25501251220703 102.53811645507812 191.5632781982422 C 100.89738464355469 185.5517578125 135.05325317382812 218.14071655273438 111.33696746826172 219.97531127929688 C 79.49060821533203 192.13450622558594 86.20793151855469 204.561767578125 125.78898620605469 223.72836303710938" stroke-width="2.156870126724243" fill="none" stroke="rgb(0, 0, 0)" stroke-opacity="0.8243471" stroke-linecap="round" stroke-linejoin="round"/>
    <path d="M 199.02664184570312 309.61956787109375 C 193.66299438476562 259.0392150878906 264.4622802734375 312.95526123046875 242.63426208496094 293.1031494140625 C 238.98780822753906 267.2112731933594 247.6881103515625 325.92047119140625 251.18800354003906 380.4610595703125 C 251.28927612304688 367.4450378417969 257.7940673828125 336.4791259765625 243.80596923828125 334.4971008300781 C 261.2559509277344 304.9104919433594 206.99661254882812 384.3780212402344 310.60235595703125 403.59991455078125" stroke-width="4.123887062072754" fill="none" stroke="rgb(0, 0, 0)" stroke-opacity="0.6678839" stroke-linecap="round" stroke-linejoin="round"/>
    <path d="M 326.7060852050781 389.0384521484375 C 242.97914123535156 440.973876953125 281.47784423828125 403.7664794921875 355.63287353515625 368.4770812988281 C 376.2607116699219 462.03131103515625 369.113525390625 449.9342956542969 322.2290954589844 456.0547790527344 C 334.9026184082031 450.55401611328125 374.74151611328125 429.3887023925781 325.8175354003906 468.6658935546875 C 269.2543029785156 478.7085266113281 290.8896484375 509.9531555175781 409.3707275390625 511.8043518066406" stroke-width="4.077667236328125" fill="none" stroke="rgb(0, 0, 0)" stroke-opacity="0.6061814" stroke-linecap="round" stroke-linejoin="round"/>
    <path d="M 333.9228210449219 181.8659210205078 C 314.5966491699219 146.10914611816406 355.64935302734375 168.9432830810547 372.49249267578125 170.202880859375 C 361.4127197265625 183.19712829589844 416.9593811035156 176.80386352539062 407.0125427246094 163.13916015625 C 371.180908203125 183.5235595703125 385.1016540527344 191.82545471191406 365.3446044921875 228.55470275878906 C 369.6549072265625 237.5553436279297 373.3260498046875 227.10198974609375 365.0248718261719 290.12335205078125" stroke-width="2.036299467086792" fill="none" stroke="rgb(0, 0, 0)" stroke-opacity="0.1884556" stroke-linecap="round" stroke-linejoin="round"/>
    <path d="M 175.00616455078125 539.392333984375 C 206.86387634277344 523.12890625 198.80551147460938 441.4994812011719 180.6525421142578 475.59490966796875 C 212.28671264648438 476.9853210449219 305.1307373046875 461.1952209472656 218.39337158203125 459.5164794921875 C 300.6136474609375 486.9305725097656 376.3296813964844 464.83599853515625 288.89990234375 449.9734802246094 C 302.4363708496094 381.05792236328125 222.5963897705078 423.02020263671875 196.53530883789062 361.4435729980469" stroke-width="5.824339389801025" fill="none" stroke="rgb(0, 0, 0)" stroke-opacity="0.5844612" stroke-linecap="round" stroke-linejoin="round"/>
    <path d="M 289.50604248046875 282.1095275878906 C 249.13780212402344 324.2974853515625 217.88038635253906 273.9276428222656 154.14483642578125 268.0740661621094 C 74.13973236083984 349.5528564453125 164.26132202148438 302.0987243652344 204.39280700683594 324.0435791015625 C 218.0337677001953 339.8691101074219 265.5115966796875 351.20440673828125 284.1057434082031 337.46466064453125 C 315.64105224609375 314.5912780761719 256.14483642578125 343.7218933105469 299.17413330078125 322.65582275390625" stroke-width="5.685052394866943" fill="none" stroke="rgb(0, 0, 0)" stroke-opacity="0.49186677" stroke-linecap="round" stroke-linejoin="round"/>
    <path d="M 208.3173065185547 407.131103515625 C 229.04757690429688 396.313720703125 209.87303161621094 404.4810485839844 230.6162109375 469.0442199707031 C 193.6902618408203 480.64361572265625 252.61766052246094 496.9366455078125 217.21688842773438 429.800537109375 C 237.8257293701172 343.9812927246094 280.902099609375 407.1924133300781 177.47265625 404.7001953125 C 80.73484802246094 398.97760009765625 68.605224609375 413.7891540527344 48.812808990478516 390.4992370605469" stroke-width="7.298845291137695" fill="none" stroke="rgb(0, 0, 0)" stroke-opacity="0.88488144" stroke-linecap="round" stroke-linejoin="round"/>
  </g>
</svg>
