<?xml version="1.0" ?>
<svg xmlns="http://www.w3.org/2000/svg" version="1.1" width="600" height="600">
  <defs/>
  <g>
    <path d="M 157.9481658935547 351.3858642578125 C 102.05877685546875 377.0340576171875 113.50941467285156 376.01483154296875 138.62112426757812 404.17755126953125 C 138.7428741455078 442.82952880859375 150.91265869140625 451.89752197265625 54.06515884399414 451.59063720703125 C 116.27198791503906 482.1061706542969 173.83485412597656 491.0594482421875 233.6125030517578 456.09210205078125 C 174.40489196777344 382.97125244140625 125.41439056396484 398.3624267578125 139.20755004882812 479.6417541503906" stroke-width="7.621852874755859" fill="none" stroke="rgb(0, 0, 0)" stroke-opacity="0.18228284" stroke-linecap="round" stroke-linejoin="round"/>
    <path d="M 366.2008056640625 260.67181396484375 C 379.6330871582031 287.9449462890625 370.0288391113281 257.9153137207031 369.8365173339844 264.5157775878906 C 367.7108459472656 255.5744171142578 340.522216796875 250.6376495361328 342.2394104003906 286.5040283203125 C 322.8646240234375 270.4433898925781 331.4798278808594 267.9070129394531 343.60498046875 253.56068420410156 C 337.4961242675781 246.2664794921875 369.9218444824219 274.37188720703125 365.28912353515625 293.1811218261719" stroke-width="3.314525604248047" fill="none" stroke="rgb(0, 0, 0)" stroke-opacity="0.88912326" stroke-linecap="round" stroke-linejoin="round"/>
    <path d="M 97.66189575195312 433.3841857910156 C 61.478755950927734 424.10791015625 46.9401969909668 456.3837585449219 127.85150146484375 481.9302673339844 C 139.3345184326172 434.2745361328125 157.98695373535156 441.7090759277344 149.6987762451172 418.0263977050781 C 122.22427368164062 449.04559326171875 145.3675537109375 501.80413818359375 203.536865234375 473.1462707519531 C 137.33804321289062 429.8587951660156 142.31837463378906 442.7140197753906 77.46220397949219 461.7305603027344" stroke-width="12.0" fill="none" stroke="rgb(0, 0, 0)" stroke-opacity="0.3100688" stroke-linecap="round" stroke-linejoin="round"/>
    <path d="M 605.8683471679688 444.89886474609375 C 628.8687744140625 513.5750732421875 629.6853637695312 470.5592346191406 640.0870361328125 438.9069519042969 C 596.6819458007812 387.3144226074219 627.5859985351562 389.4681701660156 628.7395629882812 384.85858154296875 C 632.3654174804688 407.8930358886719 655.162353515625 406.3014831542969 640.1785278320312 420.9976501464844 C 663.9566040039062 398.2375793457031 645.0316162109375 415.9902648925781 631.7428588867188 415.3071594238281" stroke-width="7.240579128265381" fill="none" stroke="rgb(0, 0, 0)" stroke-opacity="0.34284714" stroke-linecap="round" stroke-linejoin="round"/>
    <path d="M 321.0340576171875 209.4336700439453 C 344.935546875 231.67141723632812 345.2492980957031 215.74119567871094 339.50439453125 198.52818298339844 C 369.6075134277344 206.50941467285156 357.0258483886719 158.70156860351562 343.67962646484375 204.97084045410156 C 328.4955749511719 216.61041259765625 350.5995178222656 194.37591552734375 369.5709228515625 186.20144653320312 C 362.54229736328125 176.28973388671875 348.6586608886719 175.5807342529297 383.85980224609375 216.61338806152344" stroke-width="10.92344856262207" fill="none" stroke="rgb(0, 0, 0)" stroke-opacity="0.8557743" stroke-linecap="round" stroke-linejoin="round"/>
    <path d="M 127.15668487548828 277.05731201171875 C 245.2882537841797 307.6079406738281 183.70831298828125 303.574951171875 219.50865173339844 261.613037109375 C 332.1387634277344 268.3677673339844 286.1483459472656 254.355712890625 250.1573028564453 259.4338684082031 C 195.35137939453125 245.4057159423828 167.2251739501953 236.43301391601562 129.79299926757812 221.0662841796875 C 129.87168884277344 185.6604766845703 175.56153869628906 276.75897216796875 107.5270004272461 269.8706970214844" stroke-width="3.658953905105591" fill="none" stroke="rgb(0, 0, 0)" stroke-opacity="0.6431835" stroke-linecap="round" stroke-linejoin="round"/>
    <path d="M 71.54036712646484 54.14813232421875 C 86.99755096435547 46.586647033691406 58.654842376708984 61.97832107543945 80.44610595703125 49.044090270996094 C 68.56122589111328 9.96419620513916 83.34268951416016 18.630138397216797 44.466278076171875 17.233057022094727 C 58.77494430541992 41.74581527709961 62.93851852416992 15.115903854370117 90.04277801513672 2.111638069152832 C 23.6550350189209 -46.22264862060547 33.07583236694336 -41.50967788696289 23.290367126464844 -45.082664489746094" stroke-width="7.143138408660889" fill="none" stroke="rgb(0, 0, 0)" stroke-opacity="0.4124633" stroke-linecap="round" stroke-linejoin="round"/>
    <path d="M 425.04425048828125 321.916015625 C 427.26708984375 324.06329345703125 423.8282775878906 320.0694274902344 425.23309326171875 321.05853271484375 C 426.3520202636719 317.6892395019531 418.12384033203125 334.3943786621094 453.1367492675781 324.1363830566406 C 496.46368408203125 301.697265625 485.4457092285156 310.8554992675781 447.4772644042969 301.6373596191406 C 456.8287048339844 271.2025146484375 437.4158630371094 273.8197937011719 444.8135986328125 275.81817626953125" stroke-width="11.700403213500977" fill="none" stroke="rgb(0, 0, 0)" stroke-opacity="0.44832847" stroke-linecap="round" stroke-linejoin="round"/>
    <path d="M 513.3817138671875 164.2611846923828 C 478.3639221191406 210.93099975585938 448.96954345703125 178.71876525878906 463.7113952636719 160.94332885742188 C 477.4491271972656 165.89352416992188 471.677978515625 178.09217834472656 460.5252990722656 200.59767150878906 C 473.0249328613281 221.26614379882812 468.6214599609375 165.82989501953125 482.40692138671875 161.1831817626953 C 485.83953857421875 210.77894592285156 457.7573547363281 213.94668579101562 407.27313232421875 196.42013549804688" stroke-width="6.206846237182617" fill="none" stroke="rgb(0, 0, 0)" stroke-opacity="0.7833444" stroke-linecap="round" stroke-linejoin="round"/>
    <path d="M 112.82896423339844 591.4480590820312 C 56.74905776977539 596.368896484375 51.124759674072266 634.2219848632812 22.066389083862305 607.2294921875 C 76.34286499023438 603.7409057617188 76.15626525878906 636.9649047851562 76.16641235351562 654.1004638671875 C 123.23213195800781 657.5964965820312 137.49925231933594 668.3934936523438 162.2166290283203 674.8192749023438 C 135.3344268798828 668.35400390625 111.09764099121094 640.4584350585938 132.41073608398438 648.163330078125" stroke-width="11.299383163452148" fill="none" stroke="rgb(0, 0, 0)" stroke-opacity="0.22884043" stroke-linecap="round" stroke-linejoin="round"/>
    <path d="M 141.4312744140625 594.5963134765625 C 143.8751678466797 647.6217041015625 105.69152069091797 546.8861083984375 82.68755340576172 619.843994140625 C 119.81024169921875 628.5394287109375 138.9011688232422 546.2225952148438 100.40266418457031 559.5748291015625 C 77.58183288574219 550.8765869140625 119.04741668701172 593.9996948242188 244.84759521484375 597.6692504882812 C 168.84796142578125 617.2481079101562 110.86751556396484 578.423095703125 183.91236877441406 587.1578979492188" stroke-width="11.319815635681152" fill="none" stroke="rgb(0, 0, 0)" stroke-opacity="0.7667721" stroke-linecap="round" stroke-linejoin="round"/>
    <path d="M 528.1397705078125 506.6847229003906 C 511.0028076171875 486.7275695800781 525.2530517578125 504.8273620605469 520.5455322265625 496.6677551269531 C 519.4827270507812 499.0079040527344 519.4146728515625 498.49322509765625 522.7606811523438 510.4290466308594 C 516.0260009765625 503.4712219238281 541.9393920898438 511.2862854003906 522.09033203125 500.9289855957031 C 546.894775390625 517.9488525390625 548.5523071289062 517.1544189453125 520.0532836914062 546.7989501953125" stroke-width="2.0" fill="none" stroke="rgb(0, 0, 0)" stroke-opacity="0.25550887" stroke-linecap="round" stroke-linejoin="round"/>
    <path d="M 103.00057220458984 565.1649780273438 C 25.459148406982422 578.96728515625 78.90901947021484 588.9917602539062 49.56946563720703 506.8728942871094 C 49.377933502197266 537.777099609375 80.49916076660156 578.1741943359375 40.60353088378906 579.6124267578125 C 23.371084213256836 523.8009033203125 38.80263137817383 512.69189453125 16.538068771362305 546.5691528320312 C -12.923036575317383 593.8035278320312 5.2419538497924805 578.850830078125 -11.447891235351562 585.140869140625" stroke-width="10.003092765808105" fill="none" stroke="rgb(0, 0, 0)" stroke-opacity="0.28039435" stroke-linecap="round" stroke-linejoin="round"/>
    <path d="M 539.610595703125 189.90066528320312 C 547.9385986328125 237.62936401367188 568.5562133789062 223.98828125 583.2011108398438 227.96392822265625 C 607.8170166015625 178.6797637939453 621.3189697265625 240.99386596679688 574.8590698242188 251.5985870361328 C 551.0836791992188 264.48602294921875 572.0743408203125 227.13095092773438 586.4630126953125 220.67332458496094 C 599.9008178710938 201.3509521484375 614.3595581054688 157.65814208984375 604.8618774414062 167.50723266601562" stroke-width="4.2880539894104" fill="none" stroke="rgb(0, 0, 0)" stroke-opacity="0.3175274" stroke-linecap="round" stroke-linejoin="round"/>
    <path d="M 152.68276977539062 212.4654998779297 C 175.65640258789062 188.7422332763672 162.05398559570312 245.02224731445312 155.33914184570312 236.3700408935547 C 193.33995056152344 237.73509216308594 131.1089324951172 243.40740966796875 144.96690368652344 205.95814514160156 C 149.24729919433594 233.18133544921875 155.92950439453125 127.92776489257812 150.384521484375 29.21213722229004 C 128.68231201171875 71.83705139160156 163.39410400390625 171.49473571777344 143.74893188476562 150.02194213867188" stroke-width="9.501916885375977" fill="none" stroke="rgb(0, 0, 0)" stroke-opacity="0.6627318" stroke-linecap="round" stroke-linejoin="round"/>
    <path d="M 204.9596405029297 586.30419921875 C 253.21112060546875 603.3935546875 231.97811889648438 589.430908203125 201.95362854003906 562.2799072265625 C 198.41110229492188 544.3385009765625 157.41085815429688 530.3843383789062 195.39715576171875 508.3916015625 C 180.9325714111328 521.0643920898438 202.58078002929688 464.9571228027344 223.5604248046875 510.2262268066406 C 279.17987060546875 505.34490966796875 179.39138793945312 508.5772399902344 172.91152954101562 495.06549072265625" stroke-width="2.0" fill="none" stroke="rgb(0, 0, 0)" stroke-opacity="0.6392055" stroke-linecap="round" stroke-linejoin="round"/>
    <path d="M 161.00306701660156 199.70645141601562 C 119.85968780517578 280.03753662109375 136.38101196289062 301.6299743652344 189.04153442382812 239.42515563964844 C 223.176025390625 245.27224731445312 196.97035217285156 262.8457336425781 165.51766967773438 241.8317108154297 C 139.75265502929688 254.6023406982422 167.67510986328125 254.7179412841797 188.11875915527344 261.4040832519531 C 198.35328674316406 296.0224609375 236.95216369628906 317.8027038574219 194.2103729248047 284.1777038574219" stroke-width="7.156259536743164" fill="none" stroke="rgb(0, 0, 0)" stroke-opacity="0.5353475" stroke-linecap="round" stroke-linejoin="round"/>
    <path d="M 568.59619140625 371.87493896484375 C 570.6380004882812 367.6734619140625 575.5704956054688 392.19281005859375 579.6923217773438 393.8815002441406 C 584.107421875 403.10675048828125 583.4907836914062 355.800537109375 591.8670043945312 339.7430114746094 C 531.492431640625 361.8560791015625 516.0558471679688 371.7052307128906 561.813720703125 337.0536804199219 C 607.8717041015625 350.425537109375 600.8434448242188 357.2843933105469 563.056884765625 389.9002685546875" stroke-width="11.067776679992676" fill="none" stroke="rgb(0, 0, 0)" stroke-opacity="0.31442252" stroke-linecap="round" stroke-linejoin="round"/>
    <path d="M 49.18243408203125 100.22098541259766 C 56.90375518798828 91.21056365966797 63.35667419433594 73.90421295166016 55.99137496948242 88.64874267578125 C 68.8465576171875 50.614662170410156 60.81222915649414 88.93731689453125 75.21379089355469 9.725353240966797 C 86.20845794677734 15.39923095703125 98.5399398803711 11.117332458496094 94.8330307006836 60.30216979980469 C 81.07050323486328 84.9472427368164 86.70806121826172 78.90320587158203 81.02925109863281 98.82133483886719" stroke-width="2.135396957397461" fill="none" stroke="rgb(0, 0, 0)" stroke-opacity="0.061745293" stroke-linecap="round" stroke-linejoin="round"/>
    <path d="M 349.9071960449219 485.9660949707031 C 327.0795593261719 525.7896118164062 264.0219421386719 529.1384887695312 295.01983642578125 518.9515380859375 C 288.2279357910156 562.5955200195312 277.189697265625 578.8937377929688 270.39727783203125 602.7723388671875 C 287.9022521972656 608.2904052734375 262.0382385253906 562.6070556640625 278.783935546875 612.5991821289062 C 287.1315612792969 609.0313720703125 258.0299377441406 600.13232421875 183.26341247558594 603.3330688476562" stroke-width="11.694719314575195" fill="none" stroke="rgb(0, 0, 0)" stroke-opacity="0.6714083" stroke-linecap="round" stroke-linejoin="round"/>
    <path d="M 77.90535736083984 476.8977355957031 C 191.3948516845703 501.3848876953125 217.3771209716797 501.5623779296875 209.39019775390625 510.92535400390625 C 255.52450561523438 452.67901611328125 202.53573608398438 518.8135375976562 285.67730712890625 517.834228515625 C 298.8920593261719 476.41693115234375 224.4567108154297 501.373291015625 194.370361328125 491.8607177734375 C 127.87942504882812 477.5733642578125 111.73907470703125 475.95135498046875 74.38229370117188 463.7402648925781" stroke-width="5.294090747833252" fill="none" stroke="rgb(0, 0, 0)" stroke-opacity="0.5095071" stroke-linecap="round" stroke-linejoin="round"/>
    <path d="M 591.0255126953125 322.3190002441406 C 610.1994018554688 288.278076171875 603.3099365234375 279.1729431152344 626.7433471679688 248.8787078857422 C 658.9652709960938 298.66949462890625 636.4400024414062 328.002685546875 633.5867919921875 335.8431091308594 C 643.3987426757812 354.763427734375 625.930908203125 374.1766052246094 613.2025756835938 344.4740905761719 C 631.2166137695312 357.3515319824219 646.759033203125 356.5235595703125 675.9170532226562 327.3578186035156" stroke-width="12.0" fill="none" stroke="rgb(0, 0, 0)" stroke-opacity="0.3908954" stroke-linecap="round" stroke-linejoin="round"/>
    <path d="M 61.202056884765625 2.224813461303711 C 87.8001480102539 1.7079521417617798 104.94940948486328 17.299955368041992 55.76395034790039 6.578762531280518 C 68.39398956298828 34.05671691894531 66.54389953613281 25.789331436157227 77.74368286132812 -40.243385314941406 C 85.95285034179688 -19.049144744873047 56.655391693115234 -22.716196060180664 39.991825103759766 -29.832918167114258 C 38.62428283691406 -37.834659576416016 30.025508880615234 -28.173858642578125 18.87765121459961 -48.01980209350586" stroke-width="11.116196632385254" fill="none" stroke="rgb(0, 0, 0)" stroke-opacity="0.94316304" stroke-linecap="round" stroke-linejoin="round"/>
    <path d="M 343.71539306640625 36.44620895385742 C 340.3155822753906 15.019571304321289 330.6367492675781 6.575490474700928 323.2080993652344 15.649762153625488 C 313.20721435546875 36.72334671020508 304.95526123046875 30.208921432495117 320.97259521484375 24.4361515045166 C 340.3319091796875 49.19276428222656 314.5660400390625 11.665616035461426 306.9802551269531 -16.750043869018555 C 285.73260498046875 2.016368865966797 287.2638244628906 -42.651512145996094 286.92572021484375 -63.25191879272461" stroke-width="4.178709030151367" fill="none" stroke="rgb(0, 0, 0)" stroke-opacity="0.8458912" stroke-linecap="round" stroke-linejoin="round"/>
    <path d="M 61.186805725097656 436.1103210449219 C 47.35950469970703 396.76531982421875 29.730438232421875 422.39459228515625 21.33343505859375 432.0931396484375 C -61.01608657836914 397.646484375 -88.0495834350586 403.8332824707031 -61.473995208740234 378.184814453125 C -37.11968231201172 324.6276550292969 -12.6864652633667 313.3494873046875 -39.24449157714844 324.66339111328125 C -18.379297256469727 319.0710144042969 -18.896610260009766 298.1033020019531 20.492136001586914 343.61517333984375" stroke-width="10.546198844909668" fill="none" stroke="rgb(0, 0, 0)" stroke-opacity="0.38181552" stroke-linecap="round" stroke-linejoin="round"/>
    <path d="M 104.72815704345703 113.30760955810547 C 98.45551300048828 134.82864379882812 99.16046905517578 152.53907775878906 101.04603576660156 124.4616928100586 C 99.50982666015625 149.8158416748047 102.41488647460938 126.108642578125 103.10841369628906 136.90042114257812 C 105.17035675048828 126.14945983886719 100.2401351928711 141.59774780273438 97.22721862792969 136.9676971435547 C 98.91085052490234 128.37887573242188 104.60633087158203 101.59815979003906 118.19677734375 92.79426574707031" stroke-width="2.0" fill="none" stroke="rgb(0, 0, 0)" stroke-opacity="0.22493817" stroke-linecap="round" stroke-linejoin="round"/>
    <path d="M 471.2139587402344 -5.19698429107666 C 469.1817626953125 0.7745502591133118 483.10546875 -11.935757637023926 511.3023681640625 -19.17372703552246 C 493.98687744140625 -6.917741298675537 515.550048828125 -36.171485900878906 522.549560546875 -20.07297706604004 C 520.5548095703125 -29.469898223876953 530.1813354492188 -58.353919982910156 505.5574645996094 -35.137794494628906 C 533.33837890625 -35.375972747802734 527.5247802734375 -8.08234691619873 517.1846923828125 -35.77481460571289" stroke-width="2.0" fill="none" stroke="rgb(0, 0, 0)" stroke-opacity="0.8274341" stroke-linecap="round" stroke-linejoin="round"/>
    <path d="M 137.68360900878906 108.15348815917969 C 191.59341430664062 99.47505187988281 172.7113494873047 84.4642562866211 191.87962341308594 106.80781555175781 C 202.36598205566406 77.2874984741211 199.8355255126953 93.87520599365234 215.4181365966797 81.73640441894531 C 197.73675537109375 89.25830078125 221.1410675048828 102.91558837890625 200.86756896972656 83.72251892089844 C 199.14639282226562 96.94049835205078 203.21920776367188 94.88058471679688 213.52462768554688 135.1248016357422" stroke-width="2.1414871215820312" fill="none" stroke="rgb(0, 0, 0)" stroke-opacity="0.22337288" stroke-linecap="round" stroke-linejoin="round"/>
    <path d="M 562.7374877929688 322.0648193359375 C 529.9989624023438 326.21734619140625 517.2079467773438 348.18450927734375 492.70672607421875 321.6186218261719 C 503.14276123046875 293.1211242675781 461.1772155761719 281.27490234375 527.05224609375 280.2764892578125 C 502.5371398925781 312.3418884277344 486.39910888671875 350.9315185546875 459.2080993652344 332.9875183105469 C 423.1538391113281 310.0498046875 502.6792297363281 289.46917724609375 508.855712890625 319.890869140625" stroke-width="2.0" fill="none" stroke="rgb(0, 0, 0)" stroke-opacity="0.10175408" stroke-linecap="round" stroke-linejoin="round"/>
    <path d="M 392.8294982910156 533.100341796875 C 427.0246887207031 613.2529296875 361.080322265625 597.3297729492188 438.0727844238281 603.5056762695312 C 435.9754638671875 625.3546142578125 344.67633056640625 602.856201171875 284.5416564941406 604.4943237304688 C 323.7764892578125 613.518310546875 341.2544250488281 620.027099609375 338.6097412109375 600.1799926757812 C 355.4803771972656 579.4644165039062 386.7185974121094 569.6798706054688 337.8038635253906 601.3152465820312" stroke-width="2.129457473754883" fill="none" stroke="rgb(0, 0, 0)" stroke-opacity="0.7520334" stroke-linecap="round" stroke-linejoin="round"/>
    <path d="M 6.583976745605469 503.50006103515625 C 54.47251892089844 510.6831359863281 45.09352111816406 519.7247314453125 54.40038299560547 468.1587219238281 C 68.77730560302734 502.55706787109375 40.14253234863281 506.3756408691406 -10.600227355957031 488.6175231933594 C 8.242241859436035 534.336669921875 -6.222721099853516 457.4860534667969 -12.829974174499512 553.897705078125 C -54.86627197265625 586.2086181640625 -25.830480575561523 560.4737548828125 -19.856225967407227 536.1984252929688" stroke-width="7.479685306549072" fill="none" stroke="rgb(0, 0, 0)" stroke-opacity="0.994466" stroke-linecap="round" stroke-linejoin="round"/>
    <path d="M 27.515960693359375 273.6855773925781 C 54.781490325927734 274.59698486328125 77.0482177734375 243.96817016601562 130.59881591796875 265.3230285644531 C 94.20529174804688 298.4538269042969 24.668920516967773 267.2587585449219 28.679031372070312 250.0652618408203 C 27.11897850036621 266.5887451171875 52.645896911621094 266.4907531738281 86.7724380493164 256.9713134765625 C 42.21071243286133 259.8263244628906 87.44136047363281 275.7051696777344 136.5644073486328 216.5273895263672" stroke-width="5.867380619049072" fill="none" stroke="rgb(0, 0, 0)" stroke-opacity="0.76455086" stroke-linecap="round" stroke-linejoin="round"/>
    <path d="M 268.1739807128906 311.3735046386719 C 231.33021545410156 350.6812744140625 235.9632568359375 343.42498779296875 179.55242919921875 346.9335021972656 C 200.7042236328125 303.9985046386719 179.08888244628906 267.3707580566406 114.4293212890625 293.829833984375 C 69.4284896850586 311.1317138671875 137.5079803466797 288.84912109375 93.40889739990234 329.55419921875 C 128.1460418701172 282.3399963378906 151.81874084472656 277.9422912597656 137.78720092773438 323.857666015625" stroke-width="6.655372619628906" fill="none" stroke="rgb(0, 0, 0)" stroke-opacity="0.095154755" stroke-linecap="round" stroke-linejoin="round"/>
    <path d="M 198.10760498046875 252.41783142089844 C 211.31016540527344 297.28729248046875 192.5508270263672 338.4259338378906 207.0144805908203 295.3393249511719 C 101.04769134521484 268.035888671875 62.764404296875 296.9754333496094 161.7082061767578 308.67291259765625 C 247.22018432617188 326.7582092285156 281.7503967285156 340.0068664550781 228.97215270996094 347.5336608886719 C 249.5059814453125 348.40399169921875 217.87796020507812 336.1654357910156 161.3678436279297 326.5752258300781" stroke-width="11.001951217651367" fill="none" stroke="rgb(0, 0, 0)" stroke-opacity="0.40611923" stroke-linecap="round" stroke-linejoin="round"/>
    <path d="M 68.66854095458984 258.482177734375 C 150.79776000976562 217.9842071533203 170.16415405273438 251.22975158691406 144.4091796875 169.460693359375 C 167.64617919921875 284.09716796875 138.78097534179688 311.6344909667969 131.71339416503906 217.86842346191406 C 159.83248901367188 249.4476318359375 222.6857452392578 255.37889099121094 251.77146911621094 265.66827392578125 C 198.5786895751953 292.7345886230469 195.34579467773438 266.9721984863281 137.419189453125 262.5626220703125" stroke-width="3.9460160732269287" fill="none" stroke="rgb(0, 0, 0)" stroke-opacity="0.8886736" stroke-linecap="round" stroke-linejoin="round"/>
    <path d="M 247.05752563476562 325.1761169433594 C 186.67674255371094 382.6203918457031 265.7452697753906 386.1417541503906 236.275146484375 375.3040771484375 C 202.569091796875 388.95880126953125 189.88059997558594 357.9301452636719 213.9718017578125 326.566162109375 C 223.98814392089844 333.9056091308594 222.08169555664062 369.3536682128906 220.22198486328125 446.26788330078125 C 207.19827270507812 359.30352783203125 252.3932647705078 344.72137451171875 241.6404266357422 380.89385986328125" stroke-width="3.3202178478240967" fill="none" stroke="rgb(0, 0, 0)" stroke-opacity="0.703267" stroke-linecap="round" stroke-linejoin="round"/>
    <path d="M 394.0176086425781 495.739501953125 C 334.4864196777344 502.6400146484375 366.3296813964844 553.932373046875 351.2739562988281 503.0409851074219 C 379.9637451171875 501.2806091308594 392.9315185546875 481.52679443359375 430.2763366699219 502.31732177734375 C 392.21624755859375 513.1381225585938 343.83648681640625 515.8443603515625 257.9479064941406 516.3635864257812 C 261.4723205566406 552.19970703125 282.2403564453125 494.4744567871094 333.623779296875 474.5542297363281" stroke-width="2.0" fill="none" stroke="rgb(0, 0, 0)" stroke-opacity="0.06836476" stroke-linecap="round" stroke-linejoin="round"/>
    <path d="M 604.6593627929688 250.75814819335938 C 621.62158203125 295.50616455078125 638.7285766601562 304.6860046386719 639.19091796875 303.4891662597656 C 629.015380859375 306.7940368652344 586.94873046875 290.7801818847656 588.445556640625 284.79852294921875 C 610.9647827148438 310.6493835449219 580.5491943359375 375.4483947753906 606.4580688476562 381.1748352050781 C 666.5198364257812 333.3580627441406 624.9437866210938 328.44732666015625 588.0181274414062 348.1919860839844" stroke-width="7.14191198348999" fill="none" stroke="rgb(0, 0, 0)" stroke-opacity="0.0989528" stroke-linecap="round" stroke-linejoin="round"/>
    <path d="M 59.07893371582031 342.9985046386719 C -6.822811126708984 340.02099609375 73.73749542236328 342.3970031738281 100.69451904296875 317.5602722167969 C 75.82255554199219 407.7699890136719 56.94317626953125 383.29290771484375 124.37792205810547 364.1777038574219 C 135.53793334960938 353.8500671386719 119.11856079101562 363.00677490234375 149.252685546875 383.8865966796875 C 167.13267517089844 397.773193359375 162.08798217773438 396.87725830078125 280.0774230957031 418.02862548828125" stroke-width="9.159692764282227" fill="none" stroke="rgb(0, 0, 0)" stroke-opacity="0.8760735" stroke-linecap="round" stroke-linejoin="round"/>
    <path d="M 152.34669494628906 578.4076538085938 C 91.95848083496094 559.994140625 80.05300903320312 500.7681884765625 46.15654373168945 495.325927734375 C -4.083500385284424 552.866455078125 19.86012840270996 588.0759887695312 47.33678436279297 484.5994873046875 C 48.32058334350586 456.1556701660156 77.01004028320312 504.8349609375 71.50556945800781 515.4415893554688 C 83.82176971435547 542.4110107421875 86.60777282714844 569.4197387695312 90.73517608642578 535.7862548828125" stroke-width="12.0" fill="none" stroke="rgb(0, 0, 0)" stroke-opacity="0.9724963" stroke-linecap="round" stroke-linejoin="round"/>
    <path d="M 540.9137573242188 541.2205810546875 C 551.4879760742188 551.33154296875 552.8064575195312 563.7708740234375 523.495849609375 554.9724731445312 C 527.3678588867188 533.6801147460938 494.2449951171875 512.1635131835938 520.045654296875 534.3658447265625 C 540.6286010742188 556.8751831054688 510.49700927734375 524.1402587890625 525.1940307617188 538.8826904296875 C 508.3421936035156 511.4712829589844 525.9950561523438 543.215087890625 525.5340576171875 526.0146484375" stroke-width="2.0" fill="none" stroke="rgb(0, 0, 0)" stroke-opacity="0.3531823" stroke-linecap="round" stroke-linejoin="round"/>
    <path d="M 152.2445068359375 -9.976836204528809 C 164.75047302246094 -9.778764724731445 134.47433471679688 -7.918282985687256 147.81871032714844 -5.10228157043457 C 163.00003051757812 -0.8371033072471619 135.96041870117188 -27.09918975830078 153.8292236328125 55.844520568847656 C 159.06715393066406 21.107879638671875 169.6150665283203 70.31222534179688 139.16629028320312 93.06249237060547 C 130.60147094726562 27.438684463500977 164.95860290527344 64.73461151123047 143.751220703125 185.76553344726562" stroke-width="5.946698188781738" fill="none" stroke="rgb(0, 0, 0)" stroke-opacity="0.45421118" stroke-linecap="round" stroke-linejoin="round"/>
    <path d="M 523.8388671875 351.8058166503906 C 542.4954223632812 368.5513610839844 565.5113525390625 397.610107421875 581.947021484375 378.74029541015625 C 575.4569091796875 356.8554382324219 587.368896484375 379.08624267578125 543.5006713867188 364.465576171875 C 563.7705078125 315.5326232910156 561.5187377929688 294.971923828125 605.2184448242188 308.5335998535156 C 595.8748168945312 298.5904846191406 588.2345581054688 288.6566162109375 595.9352416992188 322.57403564453125" stroke-width="12.0" fill="none" stroke="rgb(0, 0, 0)" stroke-opacity="0.14394228" stroke-linecap="round" stroke-linejoin="round"/>
    <path d="M 308.95550537109375 312.2586669921875 C 296.5894470214844 345.4016418457031 233.89637756347656 330.3296203613281 213.48284912109375 322.7953186035156 C 261.6645202636719 315.624755859375 210.0719757080078 315.8710632324219 216.3756103515625 375.9930114746094 C 136.89105224609375 342.30975341796875 139.54815673828125 367.1307067871094 184.74839782714844 406.38739013671875 C 233.0360565185547 387.3838195800781 175.07545471191406 401.5922546386719 133.92063903808594 373.50927734375" stroke-width="8.775959968566895" fill="none" stroke="rgb(0, 0, 0)" stroke-opacity="0.7010226" stroke-linecap="round" stroke-linejoin="round"/>
    <path d="M 408.6769714355469 446.1044616699219 C 423.9695129394531 539.5402221679688 379.21148681640625 505.9294738769531 368.6907958984375 574.3052368164062 C 400.1044006347656 542.905029296875 398.7309875488281 534.4033203125 359.499755859375 561.3510131835938 C 341.1209716796875 579.6144409179688 317.4892883300781 597.6099243164062 325.9459228515625 589.6834106445312 C 312.3809509277344 606.2255859375 257.59161376953125 619.7362670898438 320.6923828125 610.0765991210938" stroke-width="11.81566047668457" fill="none" stroke="rgb(0, 0, 0)" stroke-opacity="1.0" stroke-linecap="round" stroke-linejoin="round"/>
    <path d="M 556.6782836914062 129.9601593017578 C 581.0833740234375 73.87773895263672 575.79150390625 73.69882202148438 548.8272094726562 107.69912719726562 C 546.3756103515625 106.64671325683594 559.8717651367188 93.48051452636719 596.85986328125 60.90065383911133 C 607.4663696289062 70.28536987304688 597.1910400390625 75.27217864990234 602.7670288085938 37.008636474609375 C 592.5319213867188 81.57669067382812 609.5718994140625 122.9666748046875 568.3868408203125 166.78636169433594" stroke-width="3.943957567214966" fill="none" stroke="rgb(0, 0, 0)" stroke-opacity="0.2652551" stroke-linecap="round" stroke-linejoin="round"/>
    <path d="M 408.6769714355469 446.1044616699219 C 423.9695129394531 539.5402221679688 379.21148681640625 505.9294738769531 368.6907958984375 574.3052368164062 C 400.1044006347656 542.905029296875 398.7309875488281 534.4033203125 359.499755859375 561.3510131835938 C 341.1209716796875 579.6144409179688 317.4892883300781 597.6099243164062 325.9459228515625 589.6834106445312 C 312.3809509277344 606.2255859375 257.59161376953125 619.7362670898438 320.6923828125 610.0765991210938" stroke-width="11.81566047668457" fill="none" stroke="rgb(0, 0, 0)" stroke-opacity="1.0" stroke-linecap="round" stroke-linejoin="round"/>
    <path d="M 165.38949584960938 583.1045532226562 C 126.48680877685547 582.78125 104.71994018554688 608.603271484375 90.44371795654297 596.7915649414062 C 70.55818939208984 602.3490600585938 25.244863510131836 613.8865356445312 -10.131307601928711 613.8427124023438 C -33.71714782714844 589.501953125 28.681884765625 563.3423461914062 21.262065887451172 533.1362915039062 C -31.175582885742188 618.0307006835938 -35.46708297729492 612.46826171875 68.84239959716797 604.9006958007812" stroke-width="11.795215606689453" fill="none" stroke="rgb(0, 0, 0)" stroke-opacity="0.5873167" stroke-linecap="round" stroke-linejoin="round"/>
    <path d="M 88.14180755615234 304.8238830566406 C 162.78753662109375 265.843505859375 93.1318588256836 305.505126953125 228.8267059326172 325.4025573730469 C 229.645263671875 371.8877868652344 180.02818298339844 332.6383361816406 150.4324188232422 337.1239013671875 C 196.47659301757812 326.2473449707031 158.9947509765625 321.88824462890625 127.15967559814453 275.5367126464844 C 145.51382446289062 394.4344787597656 147.87136840820312 302.0218200683594 179.5533447265625 320.32464599609375" stroke-width="5.461048126220703" fill="none" stroke="rgb(0, 0, 0)" stroke-opacity="0.9833535" stroke-linecap="round" stroke-linejoin="round"/>
    <path d="M 139.53030395507812 100.39635467529297 C 189.94915771484375 75.51956939697266 186.827392578125 106.30583190917969 197.94175720214844 117.79358673095703 C 229.43751525878906 96.01006317138672 222.58248901367188 116.41305541992188 262.982177734375 108.75665283203125 C 222.45208740234375 113.94402313232422 255.4990997314453 110.82457733154297 242.37466430664062 108.39989471435547 C 244.36297607421875 114.03417205810547 244.4504852294922 114.51453399658203 240.9769744873047 109.86375427246094" stroke-width="2.0" fill="none" stroke="rgb(0, 0, 0)" stroke-opacity="0.39035287" stroke-linecap="round" stroke-linejoin="round"/>
    <path d="M 423.4948425292969 389.51068115234375 C 424.41595458984375 374.1624450683594 450.2659606933594 376.273681640625 453.4590148925781 349.9026794433594 C 426.9203796386719 360.3760986328125 420.4039001464844 397.18328857421875 467.74755859375 349.6940002441406 C 420.0572814941406 334.8296813964844 458.86468505859375 381.0830993652344 474.3341369628906 368.81207275390625 C 455.3500671386719 346.7381286621094 477.2891845703125 350.91693115234375 440.1055908203125 366.7230224609375" stroke-width="6.857607364654541" fill="none" stroke="rgb(0, 0, 0)" stroke-opacity="0.5710451" stroke-linecap="round" stroke-linejoin="round"/>
    <path d="M 116.6600341796875 431.85296630859375 C 97.39261627197266 410.0982360839844 67.07438659667969 387.2203369140625 96.8271713256836 382.776611328125 C 121.6552734375 366.860595703125 83.5777816772461 371.9246826171875 74.36827850341797 425.05291748046875 C 121.20552825927734 411.18035888671875 122.25286865234375 460.8940124511719 132.77621459960938 440.9635314941406 C 142.94908142089844 444.504150390625 114.14112854003906 473.9461364746094 54.21453094482422 452.60009765625" stroke-width="11.52684497833252" fill="none" stroke="rgb(0, 0, 0)" stroke-opacity="0.3289457" stroke-linecap="round" stroke-linejoin="round"/>
    <path d="M 286.4684753417969 -43.11848449707031 C 300.1276550292969 -15.25029468536377 289.0183410644531 0.060909733176231384 275.4024658203125 26.26844596862793 C 321.2779846191406 -4.125218868255615 318.37152099609375 15.103214263916016 282.97900390625 39.48506164550781 C 307.4976501464844 48.98736572265625 310.743896484375 50.39366149902344 265.8218994140625 49.50772476196289 C 264.248046875 35.71066665649414 251.88034057617188 73.39768981933594 272.8198547363281 46.315914154052734" stroke-width="12.0" fill="none" stroke="rgb(0, 0, 0)" stroke-opacity="0.39753506" stroke-linecap="round" stroke-linejoin="round"/>
    <path d="M 339.37322998046875 501.2926025390625 C 228.91673278808594 514.8101196289062 303.03704833984375 509.2535095214844 299.46331787109375 509.7652587890625 C 192.25424194335938 495.4935607910156 205.8379364013672 505.9801330566406 247.01187133789062 441.407958984375 C 345.4866943359375 414.91082763671875 381.31439208984375 428.0425720214844 243.78378295898438 414.94879150390625 C 328.0732116699219 422.6698303222656 334.3629455566406 416.1332092285156 336.7724304199219 397.4036865234375" stroke-width="4.1142144203186035" fill="none" stroke="rgb(0, 0, 0)" stroke-opacity="0.800923" stroke-linecap="round" stroke-linejoin="round"/>
    <path d="M 515.6585083007812 162.02415466308594 C 518.8258056640625 166.9114532470703 532.2394409179688 150.55775451660156 542.9986572265625 110.96637725830078 C 548.707763671875 127.51415252685547 542.9802856445312 136.225341796875 544.5253295898438 112.66101837158203 C 538.9602661132812 143.11209106445312 550.6812133789062 114.19456481933594 539.0805053710938 124.03339385986328 C 552.6103515625 126.76116943359375 564.0735473632812 147.99090576171875 525.0458984375 198.75376892089844" stroke-width="3.5345852375030518" fill="none" stroke="rgb(0, 0, 0)" stroke-opacity="0.51693785" stroke-linecap="round" stroke-linejoin="round"/>
    <path d="M 130.08880615234375 336.4653625488281 C 44.80253601074219 373.0452575683594 134.6678009033203 313.6225891113281 13.224048614501953 350.66326904296875 C 91.8896255493164 366.8785095214844 84.40846252441406 338.6537780761719 99.22529602050781 396.7940979003906 C 15.07021427154541 415.6666259765625 14.998530387878418 471.8276062011719 124.74146270751953 420.7119445800781 C 138.30313110351562 417.4223327636719 92.43246459960938 427.6498107910156 68.71273040771484 444.7131042480469" stroke-width="2.6713550090789795" fill="none" stroke="rgb(0, 0, 0)" stroke-opacity="0.96218944" stroke-linecap="round" stroke-linejoin="round"/>
    <path d="M 10.878313064575195 345.9140625 C 169.616455078125 320.3805847167969 155.6415557861328 349.0594482421875 97.73464965820312 379.1100769042969 C 39.429508209228516 420.0763854980469 146.53167724609375 391.52447509765625 147.39410400390625 453.9766540527344 C 86.17095947265625 413.4652404785156 92.635498046875 361.8136291503906 108.69450378417969 376.2235412597656 C 71.62966918945312 374.122802734375 119.29981231689453 379.7493591308594 90.18297576904297 433.1907043457031" stroke-width="8.15900993347168" fill="none" stroke="rgb(0, 0, 0)" stroke-opacity="0.17556922" stroke-linecap="round" stroke-linejoin="round"/>
    <path d="M 460.3977355957031 61.610931396484375 C 465.96771240234375 91.58256530761719 489.7029724121094 67.2001724243164 466.1368103027344 44.95030975341797 C 482.2086181640625 104.9623794555664 459.354248046875 91.7896728515625 500.4442138671875 83.29917907714844 C 571.4783325195312 48.374755859375 549.2469482421875 42.674461364746094 522.8394775390625 53.47228240966797 C 504.5144348144531 30.345041275024414 513.1046752929688 50.997589111328125 557.4296264648438 43.32731628417969" stroke-width="6.417891025543213" fill="none" stroke="rgb(0, 0, 0)" stroke-opacity="0.7362062" stroke-linecap="round" stroke-linejoin="round"/>
    <path d="M 140.72634887695312 375.9674072265625 C 132.482421875 467.1855773925781 130.95875549316406 460.1363220214844 146.19488525390625 443.7895812988281 C 246.89796447753906 454.7723693847656 232.52207946777344 478.6607360839844 229.67782592773438 436.4102478027344 C 118.88182830810547 413.5103759765625 139.23143005371094 432.1043395996094 126.26473999023438 338.38629150390625 C 97.97211456298828 343.6934509277344 100.08000183105469 379.50103759765625 99.07815551757812 258.3734130859375" stroke-width="3.8186440467834473" fill="none" stroke="rgb(0, 0, 0)" stroke-opacity="0.7643716" stroke-linecap="round" stroke-linejoin="round"/>
    <path d="M 13.226511001586914 418.53570556640625 C -19.76140594482422 419.8971862792969 86.14808654785156 432.66888427734375 126.06855773925781 375.298583984375 C 129.7141876220703 379.8990478515625 71.77058410644531 431.7165222167969 -11.769010543823242 416.9261169433594 C 30.373146057128906 424.733642578125 58.596256256103516 403.2780456542969 56.4975700378418 440.6028137207031 C 56.59452438354492 496.8299255371094 40.40019989013672 435.5167236328125 71.37975311279297 463.77484130859375" stroke-width="9.568007469177246" fill="none" stroke="rgb(0, 0, 0)" stroke-opacity="0.94553494" stroke-linecap="round" stroke-linejoin="round"/>
    <path d="M 217.2660675048828 270.4665222167969 C 115.79857635498047 221.23281860351562 155.73179626464844 243.36741638183594 222.25897216796875 258.9859924316406 C 246.2742919921875 244.40354919433594 288.17254638671875 272.6487731933594 306.52166748046875 209.7887725830078 C 302.8165283203125 221.1759033203125 352.8028259277344 239.97193908691406 364.6302490234375 207.6881561279297 C 327.67523193359375 183.85784912109375 330.5901184082031 179.2518768310547 353.57843017578125 195.6696014404297" stroke-width="4.766880989074707" fill="none" stroke="rgb(0, 0, 0)" stroke-opacity="0.55934286" stroke-linecap="round" stroke-linejoin="round"/>
    <path d="M 126.44213104248047 474.7853698730469 C 292.23199462890625 495.9197692871094 259.3236999511719 509.41229248046875 228.46792602539062 424.3568115234375 C 137.69351196289062 398.3123474121094 144.98321533203125 455.1813659667969 170.12652587890625 448.79119873046875 C 143.12649536132812 442.9775085449219 112.80886840820312 452.0763854980469 173.45697021484375 403.9835205078125 C 180.41957092285156 432.07818603515625 142.31858825683594 427.9642639160156 261.9989318847656 425.2484130859375" stroke-width="12.0" fill="none" stroke="rgb(0, 0, 0)" stroke-opacity="0.30149138" stroke-linecap="round" stroke-linejoin="round"/>
    <path d="M 529.3341674804688 238.75831604003906 C 544.4998779296875 242.9020538330078 551.184814453125 279.35198974609375 581.5299072265625 300.0801696777344 C 585.6312866210938 195.69735717773438 582.1981201171875 185.1659393310547 622.1703491210938 242.83848571777344 C 646.057373046875 326.6960144042969 583.9459228515625 349.3991394042969 554.3295288085938 286.8916931152344 C 550.8150634765625 240.5655975341797 502.6712951660156 262.4696960449219 525.8997802734375 334.81744384765625" stroke-width="2.3622796535491943" fill="none" stroke="rgb(0, 0, 0)" stroke-opacity="0.09038445" stroke-linecap="round" stroke-linejoin="round"/>
    <path d="M 306.9584045410156 17.489492416381836 C 304.52545166015625 36.83027267456055 317.78076171875 36.231510162353516 304.302978515625 -3.9264447689056396 C 311.4573974609375 6.190366268157959 314.998291015625 9.53801155090332 285.1439514160156 7.353061676025391 C 287.05419921875 20.91155242919922 273.77874755859375 48.441898345947266 316.3949279785156 -3.102142572402954 C 347.73828125 -22.864686965942383 338.15716552734375 14.402472496032715 353.8097229003906 6.208376884460449" stroke-width="10.882940292358398" fill="none" stroke="rgb(0, 0, 0)" stroke-opacity="0.8819105" stroke-linecap="round" stroke-linejoin="round"/>
    <path d="M 214.3252716064453 460.7885437011719 C 306.2184143066406 461.8932800292969 262.3681640625 476.0630798339844 220.9224395751953 458.0620422363281 C 158.49569702148438 453.9863586425781 143.77171325683594 427.1432800292969 151.7313995361328 474.6097106933594 C 129.46400451660156 482.8749084472656 185.14691162109375 490.59027099609375 265.234619140625 503.6280212402344 C 225.6979217529297 507.65765380859375 253.86744689941406 437.15911865234375 241.20721435546875 420.6031188964844" stroke-width="5.847790241241455" fill="none" stroke="rgb(0, 0, 0)" stroke-opacity="0.8502331" stroke-linecap="round" stroke-linejoin="round"/>
    <path d="M 471.8976135253906 622.7154541015625 C 417.9561767578125 574.9307861328125 411.8271179199219 524.9804077148438 393.563720703125 537.167724609375 C 383.549072265625 525.6600952148438 411.33099365234375 507.669189453125 422.1689453125 507.1699523925781 C 438.1966857910156 570.4581298828125 493.1092529296875 595.9558715820312 488.5427551269531 621.1525268554688 C 408.3567810058594 576.8026123046875 440.4527893066406 590.0333862304688 395.51190185546875 585.8701171875" stroke-width="11.64565372467041" fill="none" stroke="rgb(0, 0, 0)" stroke-opacity="0.73281056" stroke-linecap="round" stroke-linejoin="round"/>
    <path d="M 484.6506652832031 201.63746643066406 C 543.5609130859375 235.3165283203125 497.9058532714844 217.68862915039062 551.705078125 218.8231201171875 C 586.7031860351562 241.87232971191406 559.4534301757812 238.07644653320312 555.7028198242188 273.4891052246094 C 573.52490234375 237.2149200439453 551.3062744140625 259.0611267089844 541.2888793945312 260.7307434082031 C 554.2183227539062 252.8486785888672 555.3460693359375 259.44146728515625 523.3272094726562 284.8739929199219" stroke-width="2.061856269836426" fill="none" stroke="rgb(0, 0, 0)" stroke-opacity="0.76002115" stroke-linecap="round" stroke-linejoin="round"/>
    <path d="M 531.6836547851562 298.5597229003906 C 549.06396484375 285.8943176269531 535.9708862304688 291.9504089355469 536.7649536132812 301.0311279296875 C 545.6392822265625 331.5785827636719 513.0302124023438 305.3292541503906 521.2028198242188 306.201171875 C 509.54351806640625 280.09649658203125 503.6240539550781 276.417236328125 495.2547912597656 296.9999084472656 C 520.4173583984375 306.2481384277344 508.0592346191406 268.14520263671875 500.0186767578125 311.6053161621094" stroke-width="8.169270515441895" fill="none" stroke="rgb(0, 0, 0)" stroke-opacity="0.99815273" stroke-linecap="round" stroke-linejoin="round"/>
    <path d="M 181.24876403808594 312.48565673828125 C 205.74884033203125 373.8669738769531 214.5563507080078 347.80615234375 185.26101684570312 337.4609680175781 C 101.9124755859375 341.3868713378906 81.1287612915039 333.8084716796875 137.582275390625 285.8033142089844 C 153.28875732421875 267.4217529296875 186.46896362304688 358.28070068359375 139.31637573242188 347.82293701171875 C 120.92322540283203 352.24969482421875 150.40443420410156 361.3192138671875 212.35604858398438 374.1582336425781" stroke-width="7.975410461425781" fill="none" stroke="rgb(0, 0, 0)" stroke-opacity="0.50309426" stroke-linecap="round" stroke-linejoin="round"/>
    <path d="M 269.11627197265625 209.5078125 C 301.7016906738281 240.1668701171875 304.0804443359375 222.64862060546875 166.7288055419922 230.55551147460938 C 153.37684631347656 263.78814697265625 167.044189453125 261.6882019042969 259.44873046875 263.4473571777344 C 309.7085876464844 259.244140625 280.00634765625 229.04107666015625 292.0483703613281 227.45713806152344 C 284.37518310546875 225.89535522460938 261.5113220214844 234.31607055664062 208.35369873046875 284.47113037109375" stroke-width="2.018578052520752" fill="none" stroke="rgb(0, 0, 0)" stroke-opacity="0.10830675" stroke-linecap="round" stroke-linejoin="round"/>
    <path d="M 463.4090270996094 99.32097625732422 C 401.5526428222656 92.83771514892578 412.8985900878906 76.02951049804688 419.2641906738281 90.59553527832031 C 386.06781005859375 90.35197448730469 430.2265319824219 114.7278823852539 451.0294494628906 97.87890625 C 456.90289306640625 88.55013275146484 445.1595764160156 97.09336853027344 489.15374755859375 89.86784362792969 C 472.3010559082031 111.325439453125 465.24658203125 132.3067626953125 394.9263610839844 172.57423400878906" stroke-width="3.010714292526245" fill="none" stroke="rgb(0, 0, 0)" stroke-opacity="0.12610254" stroke-linecap="round" stroke-linejoin="round"/>
    <path d="M 447.16925048828125 229.9255828857422 C 448.47119140625 211.86575317382812 449.77642822265625 227.29049682617188 475.54541015625 213.8759002685547 C 455.42822265625 213.8170928955078 425.3406066894531 210.4056396484375 446.18328857421875 232.7368621826172 C 465.276123046875 215.39324951171875 469.2673645019531 242.4122772216797 476.6947937011719 214.1113739013672 C 397.32354736328125 232.7662811279297 398.7464294433594 209.94203186035156 422.69525146484375 211.92800903320312" stroke-width="11.148502349853516" fill="none" stroke="rgb(0, 0, 0)" stroke-opacity="0.7917558" stroke-linecap="round" stroke-linejoin="round"/>
    <path d="M 546.3826293945312 5.74038553237915 C 489.10205078125 36.2701530456543 469.6856384277344 93.94873809814453 495.8207092285156 73.63356018066406 C 521.3223266601562 50.46509552001953 513.9354858398438 87.21002960205078 478.917236328125 112.9538345336914 C 489.37005615234375 75.95435333251953 522.0260620117188 98.85779571533203 482.45965576171875 116.86682891845703 C 444.6976318359375 104.63636779785156 474.597412109375 90.40520477294922 439.6099853515625 102.83393859863281" stroke-width="2.0" fill="none" stroke="rgb(0, 0, 0)" stroke-opacity="0.09509579" stroke-linecap="round" stroke-linejoin="round"/>
    <path d="M 559.1124267578125 365.6372985839844 C 592.0215454101562 375.6187438964844 522.0824584960938 379.5771789550781 511.8024597167969 395.74481201171875 C 517.77685546875 391.1431579589844 526.5653686523438 413.4343566894531 512.724609375 410.3479309082031 C 506.3664245605469 413.05413818359375 534.93212890625 359.8611755371094 534.5746459960938 381.7324523925781 C 551.53515625 399.7336730957031 509.501953125 367.314453125 532.7072143554688 412.7857360839844" stroke-width="10.504032135009766" fill="none" stroke="rgb(0, 0, 0)" stroke-opacity="0.9627987" stroke-linecap="round" stroke-linejoin="round"/>
    <path d="M 348.544921875 616.0902099609375 C 325.4464416503906 575.115478515625 418.2171325683594 638.8729858398438 391.2740783691406 582.5173950195312 C 329.33197021484375 580.8988037109375 386.7017517089844 545.606201171875 388.7696533203125 562.6810302734375 C 393.91864013671875 522.4678955078125 435.7037353515625 511.28875732421875 414.84930419921875 485.6539306640625 C 424.1033630371094 463.47344970703125 391.2616882324219 497.8736572265625 318.31781005859375 516.1423950195312" stroke-width="9.326264381408691" fill="none" stroke="rgb(0, 0, 0)" stroke-opacity="0.9315046" stroke-linecap="round" stroke-linejoin="round"/>
    <path d="M 608.9109497070312 324.5870666503906 C 621.26513671875 370.96710205078125 597.1846313476562 393.1585693359375 649.6349487304688 368.3748779296875 C 618.4362182617188 332.6400451660156 582.4384155273438 354.138427734375 570.4666137695312 390.12158203125 C 544.2786254882812 356.7736511230469 528.9659423828125 375.2586364746094 582.0474853515625 336.64007568359375 C 571.29345703125 375.9430847167969 571.034423828125 331.9086608886719 581.961181640625 275.2042236328125" stroke-width="6.244597911834717" fill="none" stroke="rgb(0, 0, 0)" stroke-opacity="0.57998127" stroke-linecap="round" stroke-linejoin="round"/>
    <path d="M 408.6769714355469 446.1044616699219 C 423.9695129394531 539.5402221679688 379.21148681640625 505.9294738769531 368.6907958984375 574.3052368164062 C 400.1044006347656 542.905029296875 398.7309875488281 534.4033203125 359.499755859375 561.3510131835938 C 341.1209716796875 579.6144409179688 317.4892883300781 597.6099243164062 325.9459228515625 589.6834106445312 C 312.3809509277344 606.2255859375 257.59161376953125 619.7362670898438 320.6923828125 610.0765991210938" stroke-width="11.81566047668457" fill="none" stroke="rgb(0, 0, 0)" stroke-opacity="1.0" stroke-linecap="round" stroke-linejoin="round"/>
    <path d="M 551.38232421875 49.2860107421875 C 584.5254516601562 38.13510513305664 599.650390625 17.150426864624023 618.7084350585938 3.55928111076355 C 599.7363891601562 -38.22521209716797 603.0816040039062 -8.881690979003906 630.431640625 -15.789656639099121 C 654.1651611328125 3.147118330001831 676.1152954101562 -22.37262535095215 695.9503173828125 -14.931340217590332 C 711.1849365234375 -24.303667068481445 728.4677734375 -32.07060623168945 700.1028442382812 -11.84813117980957" stroke-width="6.372020721435547" fill="none" stroke="rgb(0, 0, 0)" stroke-opacity="0.7802527" stroke-linecap="round" stroke-linejoin="round"/>
    <path d="M 329.4081115722656 429.02740478515625 C 246.22232055664062 430.9189758300781 249.25216674804688 393.8284912109375 211.63662719726562 396.5444641113281 C 210.39942932128906 331.4046325683594 232.1053009033203 304.4823303222656 316.2886657714844 333.7382507324219 C 204.0572967529297 350.32733154296875 226.5420684814453 367.61541748046875 229.2987060546875 366.7643737792969 C 260.60198974609375 378.9248046875 175.93618774414062 405.79693603515625 320.24249267578125 410.9394226074219" stroke-width="2.0" fill="none" stroke="rgb(0, 0, 0)" stroke-opacity="0.80027777" stroke-linecap="round" stroke-linejoin="round"/>
    <path d="M 338.2154235839844 268.42919921875 C 343.7732849121094 281.1509704589844 338.0318298339844 246.5814666748047 354.5655822753906 256.23370361328125 C 348.2203063964844 274.7845458984375 382.0395812988281 249.73338317871094 379.538330078125 243.81658935546875 C 374.7492370605469 239.26153564453125 337.2653503417969 251.06704711914062 363.37200927734375 217.74444580078125 C 370.59844970703125 298.134765625 370.26348876953125 267.915283203125 364.7523193359375 263.6412048339844" stroke-width="12.0" fill="none" stroke="rgb(0, 0, 0)" stroke-opacity="0.9091578" stroke-linecap="round" stroke-linejoin="round"/>
    <path d="M 136.38592529296875 201.1415252685547 C 140.5631561279297 230.5870361328125 93.38687133789062 264.7200622558594 38.01158142089844 261.2511901855469 C 25.13117218017578 243.21685791015625 28.142473220825195 253.90830993652344 34.74843215942383 259.6781921386719 C 25.166786193847656 251.73265075683594 42.545326232910156 271.05615234375 61.40330123901367 263.3042907714844 C 76.63101196289062 269.1664123535156 145.71099853515625 274.3645935058594 85.08087158203125 250.91348266601562" stroke-width="7.517086505889893" fill="none" stroke="rgb(0, 0, 0)" stroke-opacity="0.73165935" stroke-linecap="round" stroke-linejoin="round"/>
    <path d="M 443.08123779296875 245.1934051513672 C 469.0003662109375 213.9591522216797 450.70306396484375 218.05751037597656 440.4036865234375 242.8681640625 C 453.5887451171875 229.36663818359375 454.2728576660156 186.4716339111328 470.23651123046875 168.90176391601562 C 448.4564208984375 167.8579864501953 428.5507507324219 181.97500610351562 477.8958435058594 215.21861267089844 C 486.9646301269531 136.18142700195312 479.56427001953125 133.61972045898438 491.1490478515625 103.06490325927734" stroke-width="2.0" fill="none" stroke="rgb(0, 0, 0)" stroke-opacity="0.11228356" stroke-linecap="round" stroke-linejoin="round"/>
    <path d="M 23.321550369262695 591.8629150390625 C 10.426926612854004 596.6891479492188 -26.099863052368164 649.3438110351562 35.22583770751953 684.411865234375 C 70.06929016113281 695.78369140625 75.39973449707031 621.0977172851562 77.17467498779297 570.8776245117188 C -2.475466012954712 587.8804931640625 27.589946746826172 603.0816650390625 65.2674560546875 519.0348510742188 C 126.70687866210938 563.4562377929688 62.38393783569336 571.1148681640625 56.315513610839844 489.0134582519531" stroke-width="7.962990760803223" fill="none" stroke="rgb(0, 0, 0)" stroke-opacity="0.84283084" stroke-linecap="round" stroke-linejoin="round"/>
    <path d="M 408.6769714355469 446.1044616699219 C 423.9695129394531 539.5402221679688 379.21148681640625 505.9294738769531 368.6907958984375 574.3052368164062 C 400.1044006347656 542.905029296875 398.7309875488281 534.4033203125 359.499755859375 561.3510131835938 C 341.1209716796875 579.6144409179688 317.4892883300781 597.6099243164062 325.9459228515625 589.6834106445312 C 312.3809509277344 606.2255859375 257.59161376953125 619.7362670898438 320.6923828125 610.0765991210938" stroke-width="11.81566047668457" fill="none" stroke="rgb(0, 0, 0)" stroke-opacity="0.6720751" stroke-linecap="round" stroke-linejoin="round"/>
  </g>
</svg>
