<?xml version="1.0" ?>
<svg xmlns="http://www.w3.org/2000/svg" version="1.1" width="600" height="600">
  <defs/>
  <g>
    <path d="M 403.7680358886719 604.1959838867188 C 490.3722839355469 578.2413330078125 485.0513000488281 556.2982788085938 465.6993408203125 681.2130737304688 C 446.5052490234375 645.0858154296875 432.9696960449219 563.20263671875 463.0956726074219 578.3633422851562 C 510.493408203125 598.43505859375 604.847412109375 568.0628051757812 568.328369140625 583.7919311523438 C 579.0062866210938 654.2562866210938 591.8086547851562 628.3828735351562 570.5271606445312 630.5046997070312" stroke-width="10.808174133300781" fill="none" stroke="rgb(0, 0, 0)" stroke-opacity="0.9861061" stroke-linecap="round" stroke-linejoin="round"/>
    <path d="M 360.4606628417969 104.3647232055664 C 358.66168212890625 108.29158020019531 343.9425354003906 117.76605987548828 365.5772705078125 125.9477767944336 C 342.6653747558594 110.58260345458984 363.71075439453125 99.20526123046875 375.0795593261719 66.65092468261719 C 393.84674072265625 68.61148071289062 393.3692321777344 39.892086029052734 434.5597839355469 22.560340881347656 C 390.0084228515625 21.863117218017578 414.0706787109375 -2.743468761444092 383.6141662597656 -29.5965576171875" stroke-width="6.828191757202148" fill="none" stroke="rgb(0, 0, 0)" stroke-opacity="0.92790395" stroke-linecap="round" stroke-linejoin="round"/>
    <path d="M 137.34402465820312 646.5839233398438 C 137.8005828857422 561.5260009765625 140.4925537109375 526.7570190429688 139.5539093017578 609.0039672851562 C 140.42930603027344 601.4412231445312 72.5497817993164 607.2943115234375 98.67008209228516 583.4827880859375 C 88.75446319580078 496.8826599121094 98.9138412475586 531.7938842773438 92.91803741455078 523.8012084960938 C 91.15281677246094 562.92724609375 47.99093246459961 505.3143310546875 107.34471130371094 488.5837707519531" stroke-width="2.0" fill="none" stroke="rgb(0, 0, 0)" stroke-opacity="0.19830155" stroke-linecap="round" stroke-linejoin="round"/>
    <path d="M 307.3333435058594 155.9304962158203 C 295.8224182128906 141.11109924316406 305.60150146484375 127.10536193847656 296.3512878417969 164.19882202148438 C 296.36474609375 137.86000061035156 303.7793884277344 151.52069091796875 288.9373779296875 153.16734313964844 C 254.144287109375 156.6558380126953 236.10482788085938 143.71975708007812 242.50668334960938 116.0508041381836 C 242.5214080810547 123.64884948730469 208.17886352539062 108.76094818115234 241.1052703857422 110.93827819824219" stroke-width="3.9660322666168213" fill="none" stroke="rgb(0, 0, 0)" stroke-opacity="0.5277453" stroke-linecap="round" stroke-linejoin="round"/>
    <path d="M 468.2319030761719 606.7758178710938 C 593.0518188476562 617.2314453125 612.7015380859375 600.6766357421875 650.6380004882812 608.53271484375 C 634.6478881835938 625.9961547851562 605.289306640625 619.4359741210938 627.651123046875 637.7379150390625 C 638.7306518554688 646.7473754882812 636.7119750976562 661.7755126953125 607.3130493164062 662.4913330078125 C 601.9923706054688 661.7276000976562 610.8140869140625 661.5237426757812 619.5261840820312 690.1536865234375" stroke-width="7.935229778289795" fill="none" stroke="rgb(0, 0, 0)" stroke-opacity="0.37153694" stroke-linecap="round" stroke-linejoin="round"/>
    <path d="M 394.1159973144531 46.76546096801758 C 410.0255432128906 1.0325621366500854 376.75531005859375 1.7910054922103882 402.7064208984375 1.1079570055007935 C 402.3497009277344 81.7264633178711 382.7561950683594 55.98344802856445 402.1820068359375 28.164552688598633 C 360.3228759765625 40.531158447265625 371.8363952636719 15.460625648498535 409.5975036621094 36.51698303222656 C 472.9389953613281 22.57530403137207 445.2984619140625 46.385921478271484 455.14239501953125 40.36543655395508" stroke-width="7.18121337890625" fill="none" stroke="rgb(0, 0, 0)" stroke-opacity="0.22764485" stroke-linecap="round" stroke-linejoin="round"/>
    <path d="M 346.72515869140625 550.5392456054688 C 366.70269775390625 596.7488403320312 327.42193603515625 622.7777709960938 343.5001220703125 604.1524047851562 C 355.1229248046875 568.4429931640625 373.862060546875 611.03173828125 372.6752624511719 636.9959716796875 C 383.20257568359375 624.8131713867188 357.3454284667969 641.26513671875 373.91851806640625 652.25537109375 C 355.3876953125 646.1646118164062 374.54827880859375 672.0696411132812 371.7808837890625 684.246826171875" stroke-width="7.7149977684021" fill="none" stroke="rgb(0, 0, 0)" stroke-opacity="0.67152506" stroke-linecap="round" stroke-linejoin="round"/>
    <path d="M 445.63079833984375 491.23834228515625 C 448.292236328125 500.7997131347656 471.1254577636719 457.89324951171875 487.56219482421875 400.4974670410156 C 488.9391784667969 479.05255126953125 465.5552673339844 499.6184997558594 475.22149658203125 478.4110107421875 C 539.6838989257812 485.12738037109375 514.322998046875 504.1916198730469 470.0198669433594 594.2653198242188 C 470.2967529296875 656.4221801757812 529.5382080078125 619.5671997070312 625.390625 615.7583618164062" stroke-width="4.797204971313477" fill="none" stroke="rgb(0, 0, 0)" stroke-opacity="0.6075769" stroke-linecap="round" stroke-linejoin="round"/>
    <path d="M 383.60791015625 232.9404754638672 C 402.6180114746094 201.9692840576172 392.4598083496094 193.65847778320312 415.8305969238281 179.082763671875 C 399.8052978515625 194.0075225830078 419.357177734375 189.1696014404297 398.6545104980469 191.26194763183594 C 475.392822265625 137.85899353027344 470.3677062988281 133.16773986816406 431.1533508300781 181.97091674804688 C 455.6368408203125 230.6210479736328 398.713134765625 229.02520751953125 444.9949951171875 256.42633056640625" stroke-width="11.166701316833496" fill="none" stroke="rgb(0, 0, 0)" stroke-opacity="0.9549632" stroke-linecap="round" stroke-linejoin="round"/>
    <path d="M 487.9735412597656 593.306396484375 C 595.630615234375 595.1058349609375 587.5842895507812 592.499267578125 509.2837219238281 548.3676147460938 C 577.8338012695312 522.2184448242188 556.5509643554688 533.1356811523438 515.088623046875 533.7218017578125 C 490.8633117675781 540.3518676757812 477.35797119140625 516.2367553710938 478.0684814453125 414.72784423828125 C 512.056396484375 457.9405517578125 480.12664794921875 476.5046691894531 471.45068359375 312.4910583496094" stroke-width="4.389383792877197" fill="none" stroke="rgb(0, 0, 0)" stroke-opacity="0.58417964" stroke-linecap="round" stroke-linejoin="round"/>
    <path d="M 601.8595581054688 563.4512939453125 C 593.0049438476562 585.035400390625 555.5003051757812 581.385498046875 614.5360717773438 567.3888549804688 C 564.4000244140625 542.801025390625 552.6386108398438 560.2540283203125 589.834716796875 561.0408325195312 C 522.98193359375 540.0034790039062 527.2498779296875 524.3674926757812 592.5803833007812 490.0148010253906 C 666.3157348632812 499.1760559082031 671.9866943359375 496.5513610839844 692.1755981445312 465.3356628417969" stroke-width="10.74186897277832" fill="none" stroke="rgb(0, 0, 0)" stroke-opacity="0.48680937" stroke-linecap="round" stroke-linejoin="round"/>
    <path d="M 257.5196533203125 156.61822509765625 C 226.8428497314453 106.2592544555664 197.01174926757812 110.06190490722656 241.98416137695312 100.55249786376953 C 203.79656982421875 106.80047607421875 242.49476623535156 102.6570816040039 253.0668182373047 57.82836151123047 C 284.76092529296875 58.85585021972656 258.888427734375 78.67581176757812 289.32110595703125 81.70663452148438 C 279.97845458984375 77.79327392578125 280.4781799316406 72.8401107788086 276.34942626953125 69.45984649658203" stroke-width="2.0" fill="none" stroke="rgb(0, 0, 0)" stroke-opacity="0.49101812" stroke-linecap="round" stroke-linejoin="round"/>
    <path d="M 162.2623748779297 -12.392251014709473 C 158.86370849609375 -10.717714309692383 132.21389770507812 -32.08066940307617 108.01936340332031 -32.23630142211914 C 110.2768325805664 -20.9296817779541 125.46125793457031 -46.491065979003906 102.13162994384766 -22.318965911865234 C 92.81987762451172 -18.901857376098633 61.49773406982422 0.021309034898877144 72.41961669921875 -8.510241508483887 C 61.435752868652344 -23.450225830078125 49.15066146850586 -21.673234939575195 86.8843765258789 -16.978118896484375" stroke-width="2.0" fill="none" stroke="rgb(0, 0, 0)" stroke-opacity="0.9406091" stroke-linecap="round" stroke-linejoin="round"/>
    <path d="M 240.1949462890625 -33.93520736694336 C 199.30084228515625 -27.97319793701172 235.40774536132812 72.08106231689453 223.27230834960938 75.57794189453125 C 256.4513854980469 62.6763801574707 204.83592224121094 114.35736083984375 224.9772186279297 109.88636016845703 C 231.53208923339844 162.97967529296875 246.2505645751953 121.7093505859375 200.35577392578125 152.92752075195312 C 245.99456787109375 132.34332275390625 228.87344360351562 52.263092041015625 221.6077117919922 92.56504821777344" stroke-width="5.464386463165283" fill="none" stroke="rgb(0, 0, 0)" stroke-opacity="1.0" stroke-linecap="round" stroke-linejoin="round"/>
    <path d="M 240.1949462890625 -33.93520736694336 C 199.30084228515625 -27.97319793701172 235.40774536132812 72.08106231689453 223.27230834960938 75.57794189453125 C 256.4513854980469 62.6763801574707 204.83592224121094 114.35736083984375 224.9772186279297 109.88636016845703 C 231.53208923339844 162.97967529296875 246.2505645751953 121.7093505859375 200.35577392578125 152.92752075195312 C 245.99456787109375 132.34332275390625 228.87344360351562 52.263092041015625 221.6077117919922 92.56504821777344" stroke-width="5.464386463165283" fill="none" stroke="rgb(0, 0, 0)" stroke-opacity="1.0" stroke-linecap="round" stroke-linejoin="round"/>
    <path d="M 401.2834167480469 602.301025390625 C 470.9215393066406 593.9024047851562 467.88909912109375 522.7020263671875 505.2013244628906 536.1140747070312 C 508.8885803222656 469.637451171875 493.20050048828125 418.94842529296875 467.65960693359375 500.8532409667969 C 490.2853698730469 561.572509765625 431.05389404296875 535.28759765625 440.51739501953125 561.7244262695312 C 462.491455078125 574.5015258789062 493.47259521484375 539.3646850585938 472.9905700683594 506.7828369140625" stroke-width="7.220999717712402" fill="none" stroke="rgb(0, 0, 0)" stroke-opacity="0.6528965" stroke-linecap="round" stroke-linejoin="round"/>
    <path d="M 553.056396484375 509.45147705078125 C 475.4183654785156 524.3861694335938 490.14312744140625 499.6722412109375 509.43463134765625 482.76019287109375 C 466.7468566894531 482.7144470214844 417.6956481933594 507.3822937011719 503.0611267089844 521.7744750976562 C 559.2886962890625 519.436279296875 544.5936279296875 533.8265380859375 552.2144165039062 546.3145751953125 C 527.5342407226562 528.3028564453125 541.4362182617188 490.9505310058594 612.0150756835938 476.563720703125" stroke-width="8.71570110321045" fill="none" stroke="rgb(0, 0, 0)" stroke-opacity="0.48162502" stroke-linecap="round" stroke-linejoin="round"/>
    <path d="M 131.24339294433594 470.63470458984375 C 250.00059509277344 416.0663757324219 286.65728759765625 446.2996826171875 276.8253479003906 455.5555725097656 C 215.99232482910156 452.8873291015625 201.86154174804688 452.82464599609375 224.73463439941406 441.2479248046875 C 175.89788818359375 478.6525573730469 125.29972076416016 499.38568115234375 123.32637023925781 460.12945556640625 C 254.85459899902344 407.48162841796875 280.5597229003906 450.78948974609375 112.08447265625 458.90582275390625" stroke-width="7.281980514526367" fill="none" stroke="rgb(0, 0, 0)" stroke-opacity="0.69541466" stroke-linecap="round" stroke-linejoin="round"/>
    <path d="M 436.58050537109375 248.57223510742188 C 470.4127502441406 261.8372802734375 454.09527587890625 254.18690490722656 461.9270935058594 283.500732421875 C 458.68988037109375 256.60809326171875 468.1290588378906 203.54579162597656 469.4310607910156 364.67584228515625 C 506.1229553222656 406.9506530761719 488.6202087402344 376.4642028808594 437.1832275390625 379.7004699707031 C 435.4397277832031 333.8631286621094 456.1667175292969 328.2453308105469 412.0944519042969 349.89166259765625" stroke-width="4.728464126586914" fill="none" stroke="rgb(0, 0, 0)" stroke-opacity="0.8925896" stroke-linecap="round" stroke-linejoin="round"/>
    <path d="M 240.1949462890625 -33.93520736694336 C 199.30084228515625 -27.97319793701172 235.40774536132812 72.08106231689453 223.27230834960938 75.57794189453125 C 256.4513854980469 62.6763801574707 204.83592224121094 114.35736083984375 224.9772186279297 109.88636016845703 C 231.53208923339844 162.97967529296875 246.2505645751953 121.7093505859375 200.35577392578125 152.92752075195312 C 245.99456787109375 132.34332275390625 228.87344360351562 52.263092041015625 221.6077117919922 92.56504821777344" stroke-width="5.464386463165283" fill="none" stroke="rgb(0, 0, 0)" stroke-opacity="1.0" stroke-linecap="round" stroke-linejoin="round"/>
    <path d="M 578.2858276367188 147.18124389648438 C 566.1212768554688 168.9141845703125 580.6167602539062 170.4111785888672 625.22705078125 158.42770385742188 C 620.0445556640625 154.13934326171875 618.4827270507812 174.2388153076172 641.4302978515625 181.3381805419922 C 649.292724609375 201.95999145507812 657.7910766601562 172.76641845703125 670.056884765625 165.39031982421875 C 657.0040283203125 175.2215118408203 657.59033203125 153.358154296875 629.73974609375 160.96377563476562" stroke-width="3.7172183990478516" fill="none" stroke="rgb(0, 0, 0)" stroke-opacity="0.13986862" stroke-linecap="round" stroke-linejoin="round"/>
    <path d="M 125.7574462890625 239.5842742919922 C 91.34165954589844 236.54945373535156 110.7542724609375 289.3743591308594 146.04896545410156 277.4322814941406 C 139.74436950683594 230.60464477539062 130.1400146484375 229.5130615234375 132.49485778808594 255.4162139892578 C 103.35334777832031 249.82904052734375 88.24201202392578 255.7886962890625 147.27774047851562 240.69671630859375 C 143.81488037109375 234.84713745117188 144.4959716796875 208.46742248535156 137.97366333007812 227.7669677734375" stroke-width="2.0" fill="none" stroke="rgb(0, 0, 0)" stroke-opacity="0.11231196" stroke-linecap="round" stroke-linejoin="round"/>
    <path d="M 237.22642517089844 226.70364379882812 C 207.1310272216797 225.5286407470703 187.47911071777344 204.3101806640625 201.55796813964844 193.3080291748047 C 238.51414489746094 167.01490783691406 285.08819580078125 235.0425567626953 284.9048767089844 157.70553588867188 C 213.73406982421875 127.86127471923828 187.62448120117188 169.89266967773438 180.07679748535156 162.97967529296875 C 153.28492736816406 155.48529052734375 156.37257385253906 193.87295532226562 208.2066650390625 160.920654296875" stroke-width="6.263821601867676" fill="none" stroke="rgb(0, 0, 0)" stroke-opacity="0.5259336" stroke-linecap="round" stroke-linejoin="round"/>
    <path d="M 240.1949462890625 -33.93520736694336 C 199.30084228515625 -27.97319793701172 235.40774536132812 72.08106231689453 223.27230834960938 75.57794189453125 C 256.4513854980469 62.6763801574707 204.83592224121094 114.35736083984375 224.9772186279297 109.88636016845703 C 231.53208923339844 162.97967529296875 246.2505645751953 121.7093505859375 200.35577392578125 152.92752075195312 C 245.99456787109375 132.34332275390625 228.87344360351562 52.263092041015625 221.6077117919922 92.56504821777344" stroke-width="5.464386463165283" fill="none" stroke="rgb(0, 0, 0)" stroke-opacity="1.0" stroke-linecap="round" stroke-linejoin="round"/>
    <path d="M 89.48112487792969 538.8262939453125 C 176.07513427734375 545.4033203125 124.0395278930664 563.4000854492188 89.78202056884766 548.6668701171875 C 202.89683532714844 528.8977661132812 223.60009765625 449.30059814453125 210.35508728027344 501.58660888671875 C 162.00729370117188 571.2454223632812 153.57615661621094 534.7489624023438 168.88172912597656 468.54180908203125 C 209.61024475097656 474.9137878417969 127.45967102050781 441.1314697265625 171.0465087890625 463.5198974609375" stroke-width="7.434075355529785" fill="none" stroke="rgb(0, 0, 0)" stroke-opacity="0.5308906" stroke-linecap="round" stroke-linejoin="round"/>
    <path d="M -23.92038345336914 301.2640686035156 C -19.95745086669922 302.693115234375 11.193815231323242 275.8416442871094 29.214078903198242 273.6672058105469 C 21.746484756469727 257.928466796875 39.7614860534668 264.4118957519531 39.902069091796875 266.1087341308594 C 26.06098747253418 264.1266174316406 40.067787170410156 263.2603759765625 28.934825897216797 259.0166320800781 C 64.47848510742188 251.64927673339844 55.54265594482422 255.26512145996094 48.4490966796875 252.63841247558594" stroke-width="6.883626461029053" fill="none" stroke="rgb(0, 0, 0)" stroke-opacity="0.9841195" stroke-linecap="round" stroke-linejoin="round"/>
    <path d="M 589.1449584960938 491.72406005859375 C 497.45281982421875 486.4134216308594 526.6197509765625 529.1432495117188 526.61328125 587.9268798828125 C 536.951904296875 524.7684326171875 522.3870849609375 565.5225830078125 532.294921875 581.5830078125 C 523.54931640625 581.4751586914062 509.0396423339844 585.3390502929688 586.9580688476562 581.5250854492188 C 609.7235717773438 562.6973266601562 638.6488037109375 543.918701171875 583.0327758789062 563.0433349609375" stroke-width="11.512882232666016" fill="none" stroke="rgb(0, 0, 0)" stroke-opacity="0.28336748" stroke-linecap="round" stroke-linejoin="round"/>
    <path d="M 568.201904296875 60.415103912353516 C 562.6475219726562 47.92914581298828 570.738525390625 77.63822174072266 577.2556762695312 73.41107940673828 C 581.7673950195312 142.64645385742188 578.6559448242188 108.89936065673828 539.88623046875 126.5302963256836 C 590.4364013671875 139.08689880371094 587.0699462890625 175.63589477539062 588.2886352539062 176.37896728515625 C 596.3909912109375 168.61187744140625 586.1048583984375 153.07693481445312 566.2388305664062 183.6805877685547" stroke-width="11.988385200500488" fill="none" stroke="rgb(0, 0, 0)" stroke-opacity="0.79910594" stroke-linecap="round" stroke-linejoin="round"/>
    <path d="M 291.1662902832031 331.9165954589844 C 146.1193084716797 335.0872802734375 201.73280334472656 291.7262878417969 177.03761291503906 270.6996154785156 C 119.9085922241211 234.9077606201172 178.06796264648438 248.56027221679688 187.1283721923828 215.0098419189453 C 341.12548828125 224.94171142578125 344.6097412109375 259.1788024902344 203.94699096679688 236.74896240234375 C 183.23757934570312 234.56875610351562 140.3025665283203 261.9040832519531 242.9270477294922 266.06658935546875" stroke-width="6.490887641906738" fill="none" stroke="rgb(0, 0, 0)" stroke-opacity="0.68676215" stroke-linecap="round" stroke-linejoin="round"/>
    <path d="M 350.2989501953125 361.2544250488281 C 295.0660400390625 436.3256530761719 182.36061096191406 411.87042236328125 208.03567504882812 363.94525146484375 C 206.5966339111328 346.7956237792969 201.7485809326172 381.6712951660156 256.04620361328125 374.57794189453125 C 268.25079345703125 353.6655578613281 249.53244018554688 353.4372253417969 162.25335693359375 390.0081787109375 C 230.3983917236328 362.7170715332031 217.6260528564453 336.9990234375 185.22329711914062 232.02529907226562" stroke-width="8.811038970947266" fill="none" stroke="rgb(0, 0, 0)" stroke-opacity="0.40000704" stroke-linecap="round" stroke-linejoin="round"/>
    <path d="M 23.970172882080078 388.9901428222656 C 51.37901306152344 378.3576354980469 28.880075454711914 398.8351745605469 44.80790710449219 387.8164367675781 C 25.88821029663086 399.212890625 25.38964080810547 384.76092529296875 19.501867294311523 406.0198059082031 C -44.83125686645508 416.77825927734375 -82.25555419921875 397.32977294921875 -82.1572036743164 368.1523742675781 C -8.624859809875488 367.50885009765625 -35.042236328125 392.3020935058594 -33.530635833740234 389.94537353515625" stroke-width="2.0" fill="none" stroke="rgb(0, 0, 0)" stroke-opacity="0.2540978" stroke-linecap="round" stroke-linejoin="round"/>
    <path d="M 71.11064910888672 127.98888397216797 C 76.4515609741211 121.91706848144531 85.68717956542969 137.93142700195312 98.59650421142578 116.31813049316406 C 101.47869873046875 140.96435546875 110.40424346923828 134.55014038085938 99.70079803466797 87.05537414550781 C 114.43901824951172 31.16231346130371 105.5538101196289 35.89542770385742 90.33085632324219 78.00988006591797 C 88.14418029785156 64.96475219726562 87.07390594482422 94.23326873779297 95.03771209716797 137.92984008789062" stroke-width="12.0" fill="none" stroke="rgb(0, 0, 0)" stroke-opacity="0.58175915" stroke-linecap="round" stroke-linejoin="round"/>
    <path d="M 287.1947021484375 372.95758056640625 C 113.35684967041016 386.4733581542969 147.48965454101562 399.8497009277344 199.5449676513672 360.5694885253906 C 232.117431640625 327.0380554199219 193.8223876953125 367.1403503417969 140.25045776367188 388.89642333984375 C 105.72481536865234 373.1898193359375 119.94259643554688 395.81732177734375 161.75096130371094 396.98443603515625 C 121.04190826416016 401.2114562988281 109.57289123535156 414.28363037109375 282.4522705078125 428.3376770019531" stroke-width="8.175919532775879" fill="none" stroke="rgb(0, 0, 0)" stroke-opacity="0.25206113" stroke-linecap="round" stroke-linejoin="round"/>
    <path d="M 137.84912109375 53.10027313232422 C 170.34771728515625 -1.209790587425232 185.58120727539062 11.513448715209961 188.2145538330078 -11.558629989624023 C 97.28727722167969 -9.60927677154541 103.16287231445312 21.183835983276367 108.25566101074219 -5.279390335083008 C 126.92528533935547 -12.135316848754883 149.63433837890625 -28.30755043029785 160.50636291503906 -49.84848403930664 C 133.13804626464844 -36.130462646484375 155.30015563964844 -56.40695571899414 141.55772399902344 -56.12778091430664" stroke-width="11.792351722717285" fill="none" stroke="rgb(0, 0, 0)" stroke-opacity="0.4962165" stroke-linecap="round" stroke-linejoin="round"/>
    <path d="M 160.4618377685547 37.681884765625 C 169.87913513183594 31.416366577148438 153.9456024169922 26.009021759033203 176.70213317871094 1.0411372184753418 C 152.32627868652344 6.601163387298584 152.09144592285156 30.63335418701172 154.9773712158203 41.348388671875 C 134.558837890625 48.37576675415039 95.57890319824219 27.09199333190918 129.86302185058594 54.07368469238281 C 103.38367462158203 50.22145080566406 103.85358428955078 76.03583526611328 106.7392807006836 73.58259582519531" stroke-width="12.0" fill="none" stroke="rgb(0, 0, 0)" stroke-opacity="0.94686687" stroke-linecap="round" stroke-linejoin="round"/>
    <path d="M 216.3464813232422 285.3810729980469 C 318.76361083984375 283.2348937988281 277.8743896484375 319.3484191894531 299.71484375 300.5999755859375 C 275.5337829589844 315.142822265625 210.69903564453125 259.73150634765625 192.87762451171875 290.22332763671875 C 218.81314086914062 332.481201171875 316.2256774902344 294.6884765625 274.371337890625 339.4298400878906 C 232.06808471679688 313.8601989746094 301.9217529296875 338.3648986816406 229.7982940673828 326.4706115722656" stroke-width="2.3514111042022705" fill="none" stroke="rgb(0, 0, 0)" stroke-opacity="0.76434386" stroke-linecap="round" stroke-linejoin="round"/>
    <path d="M 557.5985107421875 358.2084045410156 C 560.18798828125 311.3501281738281 569.2584838867188 318.8741149902344 622.4091186523438 264.7644958496094 C 611.414306640625 217.3445281982422 611.8346557617188 250.6597900390625 599.5017700195312 283.17498779296875 C 587.404052734375 329.1694030761719 577.1185302734375 297.8359069824219 553.8031616210938 291.25531005859375 C 520.2918701171875 243.4912109375 559.5833740234375 283.3893737792969 588.228515625 225.2553253173828" stroke-width="8.504018783569336" fill="none" stroke="rgb(0, 0, 0)" stroke-opacity="0.72302085" stroke-linecap="round" stroke-linejoin="round"/>
    <path d="M 279.1717224121094 290.4606628417969 C 334.3175354003906 267.7297668457031 322.49749755859375 243.2699432373047 318.50555419921875 242.25498962402344 C 333.202392578125 274.2801208496094 363.7890625 234.35626220703125 371.1312255859375 249.3450469970703 C 394.5029602050781 207.06610107421875 412.3522033691406 131.83236694335938 446.07421875 201.51840209960938 C 397.8929443359375 233.43649291992188 431.73382568359375 257.34521484375 423.0052490234375 248.1431427001953" stroke-width="7.130056381225586" fill="none" stroke="rgb(0, 0, 0)" stroke-opacity="0.6194561" stroke-linecap="round" stroke-linejoin="round"/>
    <path d="M 240.1949462890625 -33.93520736694336 C 199.30084228515625 -27.97319793701172 235.40774536132812 72.08106231689453 223.27230834960938 75.57794189453125 C 256.4513854980469 62.6763801574707 204.83592224121094 114.35736083984375 224.9772186279297 109.88636016845703 C 231.53208923339844 162.97967529296875 246.2505645751953 121.7093505859375 200.35577392578125 152.92752075195312 C 245.99456787109375 132.34332275390625 228.87344360351562 52.263092041015625 221.6077117919922 92.56504821777344" stroke-width="5.464386463165283" fill="none" stroke="rgb(0, 0, 0)" stroke-opacity="1.0" stroke-linecap="round" stroke-linejoin="round"/>
    <path d="M 409.66900634765625 587.5581665039062 C 443.3099670410156 557.6036987304688 477.9945373535156 532.5186157226562 454.4077453613281 503.6867370605469 C 474.6346740722656 420.92596435546875 490.85223388671875 407.088623046875 515.9641723632812 474.60369873046875 C 431.55963134765625 497.6537170410156 448.6827087402344 520.2376708984375 437.816650390625 564.2658081054688 C 416.4953918457031 590.3404541015625 349.1782531738281 603.1832885742188 409.39630126953125 582.5108642578125" stroke-width="8.160585403442383" fill="none" stroke="rgb(0, 0, 0)" stroke-opacity="0.23973833" stroke-linecap="round" stroke-linejoin="round"/>
    <path d="M 239.44664001464844 197.70785522460938 C 186.51473999023438 163.45184326171875 148.6937713623047 191.0899200439453 165.22621154785156 196.07870483398438 C 217.97393798828125 168.0205078125 193.12840270996094 137.63868713378906 237.7993621826172 157.38587951660156 C 226.5559539794922 81.72322082519531 239.21221923828125 79.54373931884766 214.4010772705078 131.9955596923828 C 182.22308349609375 163.90457153320312 215.58978271484375 172.99639892578125 217.56883239746094 129.5044708251953" stroke-width="2.3803138732910156" fill="none" stroke="rgb(0, 0, 0)" stroke-opacity="0.12503076" stroke-linecap="round" stroke-linejoin="round"/>
    <path d="M 562.8424682617188 -4.500722885131836 C 516.1830444335938 10.864214897155762 512.3173828125 63.080875396728516 502.712890625 28.369281768798828 C 490.1672668457031 56.1336784362793 494.8007507324219 21.307933807373047 433.301025390625 27.204328536987305 C 460.54888916015625 18.6827392578125 467.0398864746094 41.21061706542969 427.8586120605469 27.862335205078125 C 479.908203125 34.92638397216797 448.7835998535156 11.863615036010742 477.2621154785156 31.36446762084961" stroke-width="11.814550399780273" fill="none" stroke="rgb(0, 0, 0)" stroke-opacity="0.93213665" stroke-linecap="round" stroke-linejoin="round"/>
    <path d="M 525.9478149414062 252.32020568847656 C 533.6993408203125 250.1638641357422 522.6048583984375 238.72801208496094 526.0252075195312 253.17904663085938 C 492.3317565917969 250.04971313476562 487.0072326660156 283.7420959472656 510.8419189453125 250.82814025878906 C 612.2764892578125 266.6415100097656 548.2763671875 255.29832458496094 535.6841430664062 265.6749572753906 C 516.2407836914062 320.84539794921875 506.83782958984375 289.8353271484375 484.426513671875 319.7964172363281" stroke-width="7.854344367980957" fill="none" stroke="rgb(0, 0, 0)" stroke-opacity="0.84702957" stroke-linecap="round" stroke-linejoin="round"/>
    <path d="M 313.1902770996094 224.08558654785156 C 288.716552734375 279.59906005859375 318.1211242675781 253.95465087890625 219.25437927246094 254.38645935058594 C 200.41603088378906 246.81582641601562 204.94320678710938 224.19293212890625 219.06997680664062 163.75936889648438 C 226.75152587890625 141.25244140625 208.9954833984375 198.72152709960938 188.44410705566406 202.82147216796875 C 178.60281372070312 152.3072052001953 159.56277465820312 166.76783752441406 159.6497344970703 160.46192932128906" stroke-width="6.007348537445068" fill="none" stroke="rgb(0, 0, 0)" stroke-opacity="0.46442384" stroke-linecap="round" stroke-linejoin="round"/>
    <path d="M 572.5636596679688 26.34181785583496 C 610.628173828125 -10.75267505645752 609.5352172851562 -5.6523919105529785 600.3525390625 -17.580095291137695 C 597.4830322265625 9.570563316345215 580.2576904296875 53.41069412231445 576.9610595703125 16.085468292236328 C 576.85107421875 83.07703399658203 559.0820922851562 78.54943084716797 567.8707275390625 141.39402770996094 C 579.3134155273438 51.21977233886719 585.5116577148438 62.667213439941406 573.6004638671875 81.14198303222656" stroke-width="11.903818130493164" fill="none" stroke="rgb(0, 0, 0)" stroke-opacity="0.72500616" stroke-linecap="round" stroke-linejoin="round"/>
    <path d="M 571.8173828125 92.19229888916016 C 566.4058227539062 37.28718948364258 551.1970825195312 34.34688949584961 562.4657592773438 48.251930236816406 C 552.2737426757812 27.728599548339844 543.4920654296875 35.32046127319336 564.9804077148438 57.37648010253906 C 565.725830078125 101.20622253417969 589.7330322265625 110.82574462890625 636.4012451171875 118.78598022460938 C 613.018798828125 152.4242401123047 629.437744140625 143.78370666503906 617.5863037109375 174.21975708007812" stroke-width="2.5544545650482178" fill="none" stroke="rgb(0, 0, 0)" stroke-opacity="0.43231812" stroke-linecap="round" stroke-linejoin="round"/>
    <path d="M 357.07415771484375 569.12158203125 C 347.7520751953125 629.1004028320312 356.03167724609375 605.7319946289062 350.404541015625 539.355712890625 C 333.23590087890625 451.5513916015625 352.1907653808594 484.5586242675781 343.6027526855469 507.7631530761719 C 265.0222473144531 533.33251953125 240.4329833984375 499.6542663574219 264.2918395996094 543.5234985351562 C 405.4591064453125 547.93505859375 387.1507873535156 523.9219970703125 295.1333923339844 525.6010131835938" stroke-width="3.0744588375091553" fill="none" stroke="rgb(0, 0, 0)" stroke-opacity="0.41452754" stroke-linecap="round" stroke-linejoin="round"/>
    <path d="M 181.51068115234375 487.4576110839844 C 138.63351440429688 504.2193908691406 139.40933227539062 452.0057373046875 199.7210235595703 483.6153869628906 C 211.8760528564453 457.0414733886719 231.8056182861328 475.30194091796875 294.0519714355469 471.2576904296875 C 372.04937744140625 433.9367370605469 276.6517639160156 427.0449523925781 164.02938842773438 432.51702880859375 C 224.03378295898438 386.7183532714844 253.9144287109375 391.32415771484375 356.4870300292969 392.7120361328125" stroke-width="12.0" fill="none" stroke="rgb(0, 0, 0)" stroke-opacity="0.35267976" stroke-linecap="round" stroke-linejoin="round"/>
    <path d="M 387.93988037109375 323.0787048339844 C 350.0038146972656 292.5851135253906 349.9610900878906 303.62066650390625 356.2328796386719 261.21429443359375 C 397.9795227050781 227.6524658203125 398.48663330078125 222.79295349121094 331.75274658203125 256.4190979003906 C 281.3850402832031 290.11407470703125 312.0587463378906 304.9522705078125 333.68902587890625 274.6864013671875 C 352.24798583984375 262.71014404296875 342.9800720214844 279.9476318359375 352.90252685546875 281.6024169921875" stroke-width="7.903470993041992" fill="none" stroke="rgb(0, 0, 0)" stroke-opacity="0.24293347" stroke-linecap="round" stroke-linejoin="round"/>
    <path d="M 58.87532424926758 134.3467559814453 C 32.348968505859375 101.37474822998047 33.3837776184082 93.46700286865234 47.4080696105957 115.17484283447266 C 76.76243591308594 137.54119873046875 69.79961395263672 130.2136993408203 58.554534912109375 143.07957458496094 C 69.36692810058594 131.93258666992188 85.20581817626953 145.02633666992188 82.25704193115234 136.0455322265625 C 82.14030456542969 144.15899658203125 83.73819732666016 130.6232147216797 93.70552062988281 115.38462829589844" stroke-width="12.0" fill="none" stroke="rgb(0, 0, 0)" stroke-opacity="0.7602245" stroke-linecap="round" stroke-linejoin="round"/>
    <path d="M 379.779052734375 491.48382568359375 C 358.0859375 552.42041015625 366.13360595703125 484.2249450683594 357.7103271484375 522.4044189453125 C 335.4229431152344 508.35028076171875 302.48431396484375 497.1329040527344 301.50018310546875 541.2251586914062 C 315.2969665527344 546.6126708984375 356.583251953125 541.5751953125 238.40411376953125 537.7860717773438 C 197.96385192871094 533.8616333007812 200.69285583496094 542.8080444335938 121.09728240966797 573.1419067382812" stroke-width="7.506453990936279" fill="none" stroke="rgb(0, 0, 0)" stroke-opacity="0.40509328" stroke-linecap="round" stroke-linejoin="round"/>
    <path d="M 240.1949462890625 -33.93520736694336 C 199.30084228515625 -27.97319793701172 235.40774536132812 72.08106231689453 223.27230834960938 75.57794189453125 C 256.4513854980469 62.6763801574707 204.83592224121094 114.35736083984375 224.9772186279297 109.88636016845703 C 231.53208923339844 162.97967529296875 246.2505645751953 121.7093505859375 200.35577392578125 152.92752075195312 C 245.99456787109375 132.34332275390625 228.87344360351562 52.263092041015625 221.6077117919922 92.56504821777344" stroke-width="5.464386463165283" fill="none" stroke="rgb(0, 0, 0)" stroke-opacity="1.0" stroke-linecap="round" stroke-linejoin="round"/>
    <path d="M 363.8169250488281 68.84107971191406 C 344.9210205078125 98.84024047851562 309.97821044921875 102.23600006103516 299.2710266113281 146.7064208984375 C 336.62298583984375 98.03793334960938 375.08489990234375 101.1014404296875 306.8924255371094 99.18141174316406 C 359.41357421875 81.84388732910156 431.22601318359375 85.69940185546875 439.66253662109375 45.4626350402832 C 370.5106506347656 -26.255903244018555 362.8057861328125 47.34519577026367 334.9096374511719 12.68115234375" stroke-width="2.0" fill="none" stroke="rgb(0, 0, 0)" stroke-opacity="0.091822535" stroke-linecap="round" stroke-linejoin="round"/>
    <path d="M 9.254953384399414 296.8982238769531 C 25.36027717590332 303.5247802734375 29.891054153442383 292.7778625488281 60.11565017700195 326.23944091796875 C 108.41544342041016 309.71978759765625 88.31484985351562 289.72662353515625 82.94109344482422 311.0663757324219 C 95.13875579833984 305.0546875 94.01742553710938 247.1567840576172 144.1070098876953 254.07073974609375 C 191.08956909179688 258.336181640625 162.40110778808594 266.4741516113281 141.4100341796875 235.01260375976562" stroke-width="12.0" fill="none" stroke="rgb(0, 0, 0)" stroke-opacity="0.7198372" stroke-linecap="round" stroke-linejoin="round"/>
    <path d="M 472.12451171875 384.09210205078125 C 502.9921875 427.8451232910156 477.465087890625 481.0498046875 480.25299072265625 457.5552673339844 C 482.908447265625 382.5672607421875 465.6897888183594 326.7412109375 509.9331970214844 362.7123107910156 C 539.4337158203125 398.2501220703125 564.3933715820312 367.45477294921875 569.5538940429688 305.92010498046875 C 510.2112121582031 288.76995849609375 462.5488586425781 253.70571899414062 462.1440734863281 318.2340393066406" stroke-width="6.278980731964111" fill="none" stroke="rgb(0, 0, 0)" stroke-opacity="0.28407001" stroke-linecap="round" stroke-linejoin="round"/>
    <path d="M 381.3979187011719 495.91961669921875 C 281.1677551269531 500.6697998046875 305.0525207519531 537.1331787109375 304.7486877441406 494.91607666015625 C 317.0326843261719 521.5123901367188 348.2546081542969 535.09765625 229.98252868652344 525.4354858398438 C 235.14620971679688 531.6962280273438 314.49517822265625 529.5961303710938 326.264404296875 527.2127685546875 C 329.91680908203125 501.819580078125 292.0218811035156 516.5323486328125 311.6343688964844 507.0662841796875" stroke-width="3.535494804382324" fill="none" stroke="rgb(0, 0, 0)" stroke-opacity="0.28233182" stroke-linecap="round" stroke-linejoin="round"/>
    <path d="M 270.9007873535156 181.8457794189453 C 146.60873413085938 168.96473693847656 176.1313018798828 153.0426788330078 274.4494323730469 160.18411254882812 C 287.9137268066406 226.1644287109375 153.6066436767578 189.4738311767578 227.86380004882812 135.7122344970703 C 186.63577270507812 159.92813110351562 183.1729736328125 202.50558471679688 203.4807891845703 267.33380126953125 C 208.62057495117188 228.66375732421875 209.45681762695312 210.0057830810547 196.21743774414062 216.23553466796875" stroke-width="7.2826457023620605" fill="none" stroke="rgb(0, 0, 0)" stroke-opacity="0.64485514" stroke-linecap="round" stroke-linejoin="round"/>
    <path d="M 231.77093505859375 299.6175537109375 C 335.7225341796875 306.60589599609375 333.1868591308594 281.8862609863281 304.72705078125 314.3081359863281 C 224.05386352539062 327.4219665527344 128.8054962158203 292.430419921875 277.0497741699219 297.1825866699219 C 299.17852783203125 254.2713623046875 198.3033905029297 251.97007751464844 159.6112518310547 253.79225158691406 C 198.1423797607422 225.24755859375 203.47012329101562 239.31324768066406 321.1894226074219 219.9536895751953" stroke-width="11.500246047973633" fill="none" stroke="rgb(0, 0, 0)" stroke-opacity="0.58468574" stroke-linecap="round" stroke-linejoin="round"/>
    <path d="M 615.7464599609375 242.1190643310547 C 589.8533935546875 254.01040649414062 601.4332885742188 276.1157531738281 585.9500122070312 210.31654357910156 C 618.054931640625 254.64002990722656 611.3678588867188 274.3536376953125 621.13134765625 250.78045654296875 C 620.2701416015625 272.559326171875 597.9204711914062 283.5661926269531 623.453857421875 290.08990478515625 C 612.21875 337.50567626953125 623.6482543945312 311.4969177246094 619.6364135742188 340.5279846191406" stroke-width="2.2433419227600098" fill="none" stroke="rgb(0, 0, 0)" stroke-opacity="0.2428977" stroke-linecap="round" stroke-linejoin="round"/>
    <path d="M 373.1305236816406 453.7742004394531 C 410.4788818359375 455.4072265625 408.8162841796875 504.60400390625 373.6197509765625 482.4586181640625 C 401.8164978027344 494.9888610839844 369.9549560546875 459.0337829589844 398.0762023925781 484.30731201171875 C 422.7457275390625 466.1562194824219 411.6705627441406 480.7884216308594 361.8771057128906 506.7988586425781 C 216.05386352539062 498.2129211425781 227.89520263671875 476.5050964355469 318.11981201171875 445.9040832519531" stroke-width="2.0" fill="none" stroke="rgb(0, 0, 0)" stroke-opacity="0.14143056" stroke-linecap="round" stroke-linejoin="round"/>
    <path d="M 507.2193298339844 149.79930114746094 C 432.5974426269531 166.53872680664062 460.2481994628906 137.0624237060547 515.899658203125 141.24713134765625 C 521.622314453125 150.37841796875 525.2420043945312 113.63341522216797 547.6296997070312 136.28521728515625 C 495.18072509765625 142.17820739746094 526.5145263671875 189.7827911376953 557.2455444335938 191.09620666503906 C 522.4387817382812 187.25733947753906 533.06201171875 185.25706481933594 542.107421875 188.5832977294922" stroke-width="12.0" fill="none" stroke="rgb(0, 0, 0)" stroke-opacity="0.4380676" stroke-linecap="round" stroke-linejoin="round"/>
    <path d="M 39.43447494506836 242.82545471191406 C 46.362483978271484 269.5638122558594 -1.003050684928894 253.85826110839844 25.8021297454834 273.8155517578125 C 15.05496883392334 283.6903991699219 37.04566955566406 258.93255615234375 5.767426013946533 250.79443359375 C 7.6656174659729 218.66714477539062 69.25016784667969 171.48117065429688 74.31474304199219 234.64492797851562 C 34.86770248413086 259.24407958984375 40.13627624511719 271.9430847167969 45.37739181518555 231.60183715820312" stroke-width="2.963200330734253" fill="none" stroke="rgb(0, 0, 0)" stroke-opacity="0.14597589" stroke-linecap="round" stroke-linejoin="round"/>
    <path d="M 617.40771484375 287.4309387207031 C 602.291015625 206.56712341308594 613.6080932617188 243.69825744628906 646.448486328125 254.63754272460938 C 657.6920166015625 285.5162658691406 635.46435546875 304.2035827636719 612.5288696289062 329.77392578125 C 621.449951171875 291.21063232421875 640.68994140625 264.70697021484375 645.509765625 264.93212890625 C 627.8201293945312 250.5089111328125 637.3688354492188 252.47830200195312 614.5267944335938 240.24981689453125" stroke-width="7.9424543380737305" fill="none" stroke="rgb(0, 0, 0)" stroke-opacity="0.1568011" stroke-linecap="round" stroke-linejoin="round"/>
    <path d="M 256.8564147949219 499.107421875 C 352.14239501953125 531.7781372070312 316.5772705078125 495.1026306152344 241.93190002441406 506.38690185546875 C 178.65756225585938 540.4078979492188 218.87869262695312 470.9981994628906 237.46253967285156 516.782958984375 C 303.8427429199219 510.34619140625 271.89520263671875 539.2291870117188 254.37722778320312 445.5699768066406 C 352.53387451171875 359.0621032714844 319.3431396484375 424.6822509765625 295.4305419921875 510.7716979980469" stroke-width="11.70859432220459" fill="none" stroke="rgb(0, 0, 0)" stroke-opacity="0.2831954" stroke-linecap="round" stroke-linejoin="round"/>
    <path d="M 167.4896697998047 407.27642822265625 C 244.33370971679688 369.54534912109375 145.6772003173828 384.6856689453125 280.3045959472656 391.40069580078125 C 268.4620361328125 427.2038269042969 294.4736633300781 435.14215087890625 294.17376708984375 415.8323974609375 C 285.5802001953125 463.2391662597656 318.9880676269531 443.3545837402344 292.1965026855469 444.1185607910156 C 246.4816436767578 444.2979736328125 347.2535095214844 444.8775634765625 343.2859802246094 420.72845458984375" stroke-width="6.617727279663086" fill="none" stroke="rgb(0, 0, 0)" stroke-opacity="0.9551671" stroke-linecap="round" stroke-linejoin="round"/>
    <path d="M 586.9055786132812 402.09564208984375 C 566.5164184570312 394.2586669921875 533.0050659179688 392.6124572753906 583.8914184570312 406.0098571777344 C 549.827392578125 396.9014587402344 587.0889282226562 403.67620849609375 576.715576171875 406.000244140625 C 607.5491943359375 389.15570068359375 631.8677368164062 391.40087890625 624.3916625976562 450.794921875 C 624.364013671875 471.595458984375 621.4918212890625 481.39666748046875 608.9186401367188 450.3984069824219" stroke-width="3.9315335750579834" fill="none" stroke="rgb(0, 0, 0)" stroke-opacity="0.7748547" stroke-linecap="round" stroke-linejoin="round"/>
    <path d="M 181.8022003173828 323.4435729980469 C 240.03439331054688 402.77264404296875 402.9733581542969 373.310302734375 292.3242492675781 366.9595947265625 C 297.3149108886719 281.69390869140625 274.79522705078125 203.78134155273438 289.1208801269531 248.61300659179688 C 265.5560302734375 291.5889892578125 235.24649047851562 260.6025695800781 201.0237274169922 260.52081298828125 C 208.36158752441406 243.44642639160156 230.15626525878906 269.2796936035156 164.1500244140625 334.1322326660156" stroke-width="9.595671653747559" fill="none" stroke="rgb(0, 0, 0)" stroke-opacity="0.37781382" stroke-linecap="round" stroke-linejoin="round"/>
    <path d="M 491.734130859375 437.0710144042969 C 463.695556640625 381.713623046875 469.6636962890625 400.3261413574219 511.7147521972656 464.8215637207031 C 517.8168334960938 468.26220703125 510.47967529296875 471.19317626953125 585.5466918945312 498.96142578125 C 546.2266235351562 519.9716186523438 458.8841552734375 518.0809326171875 453.1705322265625 515.2950439453125 C 480.1103210449219 490.3362731933594 509.4349670410156 542.385009765625 580.0357055664062 576.8936157226562" stroke-width="11.406907081604004" fill="none" stroke="rgb(0, 0, 0)" stroke-opacity="0.5872557" stroke-linecap="round" stroke-linejoin="round"/>
    <path d="M 387.08807373046875 610.54248046875 C 361.4112854003906 584.9867553710938 352.51715087890625 575.784423828125 345.15020751953125 518.0574951171875 C 357.8974914550781 575.9076538085938 332.95684814453125 605.5870971679688 312.77239990234375 622.3579711914062 C 353.61102294921875 639.3865356445312 349.6626281738281 657.5232543945312 376.9997253417969 681.197021484375 C 392.04058837890625 651.7152099609375 394.9490966796875 663.8236083984375 423.34051513671875 693.54541015625" stroke-width="6.531829833984375" fill="none" stroke="rgb(0, 0, 0)" stroke-opacity="0.91719437" stroke-linecap="round" stroke-linejoin="round"/>
    <path d="M -26.868587493896484 440.42431640625 C -21.258895874023438 451.268310546875 -41.857269287109375 441.04388427734375 -5.0442585945129395 461.09283447265625 C -30.506010055541992 454.4110107421875 -38.35148620605469 469.06964111328125 -65.26768493652344 467.4850769042969 C -34.34670639038086 482.71807861328125 -11.976455688476562 491.41845703125 -32.94612121582031 538.7741088867188 C 4.029460906982422 540.9679565429688 27.2600154876709 545.3275146484375 30.487184524536133 525.0988159179688" stroke-width="12.0" fill="none" stroke="rgb(0, 0, 0)" stroke-opacity="0.25189126" stroke-linecap="round" stroke-linejoin="round"/>
    <path d="M 583.4337158203125 244.54611206054688 C 544.2869262695312 265.4468994140625 495.50830078125 251.19749450683594 510.77117919921875 195.21231079101562 C 530.3663330078125 177.96157836914062 601.59619140625 177.2626190185547 592.2349243164062 159.9716796875 C 599.2816772460938 201.53639221191406 578.4552612304688 228.3706512451172 583.6808471679688 250.62594604492188 C 606.7076416015625 143.9935760498047 591.2706909179688 183.0094451904297 578.8640747070312 160.133056640625" stroke-width="7.7362799644470215" fill="none" stroke="rgb(0, 0, 0)" stroke-opacity="0.22322881" stroke-linecap="round" stroke-linejoin="round"/>
    <path d="M 489.71234130859375 339.4112548828125 C 442.5244445800781 362.5179138183594 475.74298095703125 349.4967346191406 475.7515869140625 363.8271484375 C 450.67559814453125 418.6099853515625 457.7030944824219 454.3822021484375 448.38665771484375 390.0393981933594 C 413.54168701171875 433.94268798828125 375.0631408691406 429.61126708984375 384.0311584472656 404.7857360839844 C 414.7731628417969 364.5018310546875 375.6629943847656 390.3053283691406 352.6258850097656 422.2590637207031" stroke-width="2.3903839588165283" fill="none" stroke="rgb(0, 0, 0)" stroke-opacity="0.061120085" stroke-linecap="round" stroke-linejoin="round"/>
    <path d="M 449.0029296875 341.124755859375 C 482.0470275878906 296.70635986328125 416.4587097167969 337.54888916015625 445.3482360839844 380.3528747558594 C 442.01922607421875 427.61859130859375 372.61767578125 406.0682678222656 383.8348083496094 356.95513916015625 C 443.1683349609375 330.2197570800781 402.0638427734375 367.3924255371094 358.0204772949219 377.8519287109375 C 368.0751953125 373.7939147949219 375.4533386230469 394.04974365234375 309.80133056640625 430.2117919921875" stroke-width="8.366805076599121" fill="none" stroke="rgb(0, 0, 0)" stroke-opacity="0.46342486" stroke-linecap="round" stroke-linejoin="round"/>
    <path d="M 479.8582763671875 511.3741455078125 C 417.4698791503906 552.7254028320312 454.1648864746094 531.785888671875 420.8357849121094 536.3321533203125 C 482.0942077636719 527.0817260742188 469.8599853515625 481.3558044433594 488.95697021484375 417.5642395019531 C 481.2850646972656 466.74365234375 477.9488220214844 506.4096984863281 423.5759582519531 531.3468627929688 C 346.52178955078125 527.7157592773438 434.22894287109375 527.2367553710938 444.8284912109375 494.1468505859375" stroke-width="8.440042495727539" fill="none" stroke="rgb(0, 0, 0)" stroke-opacity="0.6923581" stroke-linecap="round" stroke-linejoin="round"/>
    <path d="M 385.2636413574219 583.6017456054688 C 396.08984375 608.8695068359375 428.4832763671875 605.9328002929688 469.8974914550781 616.8428344726562 C 380.27008056640625 640.6403198242188 373.7148742675781 632.986572265625 387.2901916503906 655.3696899414062 C 376.7553405761719 627.169677734375 381.7641296386719 634.2250366210938 400.04388427734375 624.28857421875 C 401.89093017578125 629.439208984375 426.7098693847656 630.8525390625 414.7484130859375 636.419189453125" stroke-width="10.699285507202148" fill="none" stroke="rgb(0, 0, 0)" stroke-opacity="0.3583382" stroke-linecap="round" stroke-linejoin="round"/>
    <path d="M 608.6595458984375 55.21045684814453 C 635.4862060546875 8.026028633117676 651.3928833007812 -0.8925303220748901 629.5326538085938 2.623631477355957 C 595.6281127929688 -10.545565605163574 605.1531982421875 -31.884227752685547 610.0508422851562 -44.80089569091797 C 633.9215087890625 -57.75510025024414 638.2037963867188 -47.38208770751953 632.8165893554688 -48.386783599853516 C 652.947021484375 -37.31090545654297 647.201416015625 -38.00513458251953 636.7630004882812 -33.4744758605957" stroke-width="9.554889678955078" fill="none" stroke="rgb(0, 0, 0)" stroke-opacity="0.70003647" stroke-linecap="round" stroke-linejoin="round"/>
    <path d="M 494.0041809082031 516.8352661132812 C 532.1154174804688 632.3956298828125 501.96795654296875 577.79541015625 484.6998596191406 532.859375 C 453.3774719238281 487.5594482421875 469.57415771484375 575.6832275390625 516.8939208984375 512.0438842773438 C 521.11083984375 463.5445556640625 532.0881958007812 471.4432678222656 551.2215576171875 546.2162475585938 C 588.1339111328125 591.806640625 632.1487426757812 572.3978881835938 556.1099853515625 544.9910888671875" stroke-width="3.90753173828125" fill="none" stroke="rgb(0, 0, 0)" stroke-opacity="0.5256493" stroke-linecap="round" stroke-linejoin="round"/>
    <path d="M 116.47035217285156 604.9369506835938 C 125.2079849243164 549.7374267578125 94.2109146118164 564.1058959960938 96.58596801757812 542.2994384765625 C 115.95133209228516 522.9898681640625 130.92251586914062 606.6625366210938 101.47156524658203 627.5133666992188 C 89.44688415527344 561.7700805664062 94.01214599609375 601.541015625 91.10298919677734 636.0972290039062 C 104.32061004638672 644.5547485351562 108.00341796875 663.2158813476562 85.45663452148438 652.2603149414062" stroke-width="2.920393943786621" fill="none" stroke="rgb(0, 0, 0)" stroke-opacity="0.5284017" stroke-linecap="round" stroke-linejoin="round"/>
    <path d="M 609.1529541015625 337.3158874511719 C 617.6404418945312 329.9195556640625 628.8649291992188 321.8810729980469 652.0335083007812 323.37188720703125 C 666.5991821289062 301.5271911621094 667.7584838867188 324.5439758300781 667.4293212890625 347.8671875 C 660.0123901367188 366.3470764160156 665.094970703125 339.6559143066406 638.91015625 363.1230773925781 C 650.6995239257812 365.8633117675781 667.8314819335938 365.49554443359375 657.953369140625 381.00732421875" stroke-width="9.946916580200195" fill="none" stroke="rgb(0, 0, 0)" stroke-opacity="0.08319978" stroke-linecap="round" stroke-linejoin="round"/>
    <path d="M 83.39561462402344 163.61166381835938 C 57.22296142578125 164.6728973388672 74.75790405273438 142.07601928710938 57.56064987182617 139.8417205810547 C 62.878387451171875 142.69606018066406 29.507585525512695 136.57347106933594 34.9547119140625 111.5978775024414 C 20.107683181762695 103.84719848632812 49.88418960571289 108.783935546875 0.2666219174861908 96.44068145751953 C -26.154624938964844 96.75763702392578 -70.26504516601562 98.14387512207031 -62.73680877685547 88.44741821289062" stroke-width="6.353348731994629" fill="none" stroke="rgb(0, 0, 0)" stroke-opacity="0.85040486" stroke-linecap="round" stroke-linejoin="round"/>
    <path d="M 4.292834758758545 551.1680297851562 C 15.834224700927734 593.6102294921875 -22.04017448425293 591.9629516601562 32.408470153808594 563.3330078125 C 26.00511932373047 593.4194946289062 -40.46834182739258 579.4276733398438 -52.046104431152344 595.2954711914062 C -24.884586334228516 595.9972534179688 28.352062225341797 618.0685424804688 30.10371208190918 608.7908935546875 C 16.834766387939453 624.046630859375 -42.90969467163086 604.77099609375 10.195560455322266 557.9318237304688" stroke-width="7.043270587921143" fill="none" stroke="rgb(0, 0, 0)" stroke-opacity="0.84291595" stroke-linecap="round" stroke-linejoin="round"/>
    <path d="M 201.91915893554688 367.2579345703125 C 210.77000427246094 309.2841491699219 236.7741241455078 322.78985595703125 174.70652770996094 345.7762756347656 C 168.88905334472656 289.991455078125 178.6843719482422 318.1258850097656 151.55540466308594 323.1380310058594 C 131.25808715820312 319.207275390625 163.77679443359375 322.1959533691406 127.78958129882812 310.51251220703125 C 175.2889404296875 313.6745910644531 178.3398895263672 307.0167541503906 203.90960693359375 218.17955017089844" stroke-width="7.830878734588623" fill="none" stroke="rgb(0, 0, 0)" stroke-opacity="0.59520763" stroke-linecap="round" stroke-linejoin="round"/>
    <path d="M 209.147705078125 159.93113708496094 C 264.5755920410156 182.39462280273438 289.4860534667969 161.85435485839844 293.5563659667969 163.34999084472656 C 296.228759765625 145.3760986328125 276.48199462890625 152.13499450683594 279.5633544921875 160.23959350585938 C 223.837646484375 152.7952423095703 232.937744140625 185.43914794921875 238.92233276367188 197.56800842285156 C 239.71310424804688 171.76620483398438 156.77944946289062 207.38380432128906 269.58856201171875 213.40171813964844" stroke-width="3.3552327156066895" fill="none" stroke="rgb(0, 0, 0)" stroke-opacity="0.93083423" stroke-linecap="round" stroke-linejoin="round"/>
    <path d="M 240.1949462890625 -33.93520736694336 C 199.30084228515625 -27.97319793701172 235.40774536132812 72.08106231689453 223.27230834960938 75.57794189453125 C 256.4513854980469 62.6763801574707 204.83592224121094 114.35736083984375 224.9772186279297 109.88636016845703 C 231.53208923339844 162.97967529296875 246.2505645751953 121.7093505859375 200.35577392578125 152.92752075195312 C 245.99456787109375 132.34332275390625 228.87344360351562 52.263092041015625 221.6077117919922 92.56504821777344" stroke-width="5.464386463165283" fill="none" stroke="rgb(0, 0, 0)" stroke-opacity="0.4980186" stroke-linecap="round" stroke-linejoin="round"/>
  </g>
</svg>
