<?xml version="1.0" ?>
<svg xmlns="http://www.w3.org/2000/svg" version="1.1" width="600" height="600">
  <defs/>
  <g>
    <path d="M 0.8308696746826172 -3.446791887283325 C 87.98661041259766 4.2234110832214355 89.83175659179688 29.134952545166016 53.619930267333984 64.73419189453125 C 32.19403839111328 59.60124969482422 43.87641143798828 95.55439758300781 -3.562675714492798 27.957191467285156 C -114.32115173339844 43.978477478027344 -113.90130615234375 53.80121612548828 -85.86717987060547 65.7635498046875 C -42.75349426269531 88.10468292236328 -21.43054962158203 63.810691833496094 -18.17401695251465 81.67719268798828" stroke-width="11.741178512573242" fill="none" stroke="rgb(0, 0, 0)" stroke-opacity="0.5093526" stroke-linecap="round" stroke-linejoin="round"/>
    <path d="M 61.677818298339844 251.01657104492188 C 11.656356811523438 268.2105712890625 13.081074714660645 233.11228942871094 -13.073022842407227 212.23703002929688 C -3.4705870151519775 210.96653747558594 -18.569568634033203 203.58660888671875 -10.512594223022461 241.47134399414062 C -13.630535125732422 226.28192138671875 -12.330897331237793 212.49485778808594 -7.552806854248047 257.010498046875 C -16.659740447998047 225.7496795654297 -24.029470443725586 230.5605926513672 -6.600429534912109 231.5898895263672" stroke-width="8.173744201660156" fill="none" stroke="rgb(0, 0, 0)" stroke-opacity="0.49881813" stroke-linecap="round" stroke-linejoin="round"/>
    <path d="M 577.35986328125 476.2086181640625 C 516.422119140625 460.9342346191406 573.8673095703125 472.27691650390625 550.6663818359375 460.9416198730469 C 515.5484008789062 470.08868408203125 552.0599365234375 529.7803344726562 468.4896240234375 500.607177734375 C 516.9242553710938 513.8984985351562 514.7945556640625 508.33056640625 494.80914306640625 503.59307861328125 C 482.9169921875 510.19512939453125 447.5860900878906 476.57452392578125 432.6235656738281 527.8404541015625" stroke-width="6.888119697570801" fill="none" stroke="rgb(0, 0, 0)" stroke-opacity="0.72984236" stroke-linecap="round" stroke-linejoin="round"/>
    <path d="M 223.4629669189453 555.0521850585938 C 161.24560546875 567.9598999023438 186.84609985351562 570.2179565429688 184.9691925048828 613.0664672851562 C 192.76040649414062 596.58642578125 225.7812042236328 629.0780029296875 249.3843994140625 577.1934814453125 C 302.1528625488281 572.8448486328125 314.87158203125 591.444091796875 297.78070068359375 604.3759155273438 C 258.9385070800781 589.6046752929688 245.0511474609375 614.7860107421875 267.7293395996094 617.28759765625" stroke-width="6.03497838973999" fill="none" stroke="rgb(0, 0, 0)" stroke-opacity="0.086925186" stroke-linecap="round" stroke-linejoin="round"/>
    <path d="M 378.4810791015625 474.7385559082031 C 476.533447265625 462.781494140625 449.2113952636719 430.37615966796875 450.6825256347656 449.1700439453125 C 447.1278076171875 464.5589294433594 486.3396301269531 448.67718505859375 456.4981384277344 454.1968994140625 C 458.7845764160156 475.8171691894531 441.62042236328125 444.1288757324219 404.2373046875 465.37738037109375 C 377.904052734375 495.55291748046875 415.52764892578125 454.6846923828125 440.2460632324219 461.9725036621094" stroke-width="3.7582690715789795" fill="none" stroke="rgb(0, 0, 0)" stroke-opacity="0.9273795" stroke-linecap="round" stroke-linejoin="round"/>
    <path d="M 376.2355041503906 241.88206481933594 C 376.1539306640625 246.32260131835938 365.142578125 240.384033203125 428.3465576171875 218.83787536621094 C 433.3154296875 195.1427764892578 461.910888671875 212.12503051757812 429.1269836425781 212.3892364501953 C 378.1582336425781 244.48959350585938 351.4999694824219 254.82962036132812 377.8420715332031 239.91978454589844 C 373.7384033203125 182.42579650878906 364.8946228027344 190.64273071289062 374.0611572265625 221.03164672851562" stroke-width="6.641862392425537" fill="none" stroke="rgb(0, 0, 0)" stroke-opacity="0.17447148" stroke-linecap="round" stroke-linejoin="round"/>
    <path d="M 155.04685974121094 280.3328552246094 C 188.788818359375 267.4513244628906 221.2147674560547 270.9995422363281 175.22462463378906 208.90011596679688 C 158.01437377929688 282.498291015625 158.53695678710938 282.305419921875 184.21072387695312 305.9481201171875 C 249.09649658203125 296.93707275390625 191.71893310546875 245.63726806640625 180.32435607910156 228.43402099609375 C 167.64801025390625 270.06207275390625 144.7020263671875 274.4601745605469 123.69190216064453 246.74952697753906" stroke-width="9.301874160766602" fill="none" stroke="rgb(0, 0, 0)" stroke-opacity="0.8028457" stroke-linecap="round" stroke-linejoin="round"/>
    <path d="M 203.7547607421875 565.4927368164062 C 228.5620574951172 561.918701171875 208.3844451904297 573.8252563476562 216.4936065673828 566.9763793945312 C 245.88633728027344 515.321044921875 249.26316833496094 554.2265014648438 263.470458984375 540.0155029296875 C 126.97325897216797 529.990234375 169.88833618164062 525.7789306640625 306.7928161621094 526.2908935546875 C 276.8769226074219 537.6467895507812 222.8087615966797 541.3268432617188 212.52772521972656 527.5629272460938" stroke-width="2.0209968090057373" fill="none" stroke="rgb(0, 0, 0)" stroke-opacity="0.46892792" stroke-linecap="round" stroke-linejoin="round"/>
    <path d="M 537.7167358398438 40.51038360595703 C 518.4469604492188 47.288330078125 516.1498413085938 52.12125015258789 531.3056640625 53.62459945678711 C 508.066650390625 47.01973342895508 536.4900512695312 48.079124450683594 522.0008544921875 45.44635772705078 C 535.833251953125 36.36179733276367 541.193603515625 52.00784683227539 512.6234130859375 28.369853973388672 C 522.172607421875 50.180625915527344 534.6057739257812 54.33926010131836 523.7427978515625 37.83146286010742" stroke-width="3.8921356201171875" fill="none" stroke="rgb(0, 0, 0)" stroke-opacity="0.22907585" stroke-linecap="round" stroke-linejoin="round"/>
    <path d="M 112.07667541503906 488.8224792480469 C 197.521240234375 494.51605224609375 186.28262329101562 489.0035095214844 200.30812072753906 435.09619140625 C 228.7179718017578 348.46337890625 168.2646026611328 416.18121337890625 119.4970932006836 429.54815673828125 C 130.57681274414062 459.88836669921875 113.6724624633789 442.38116455078125 114.13402557373047 451.112060546875 C 182.01927185058594 514.8972778320312 209.9220733642578 517.0142211914062 204.94297790527344 369.401611328125" stroke-width="9.563223838806152" fill="none" stroke="rgb(0, 0, 0)" stroke-opacity="0.49130464" stroke-linecap="round" stroke-linejoin="round"/>
    <path d="M 122.29281616210938 391.5151062011719 C 132.5281219482422 388.8590393066406 159.5950927734375 395.2428894042969 136.58889770507812 423.37750244140625 C 186.9207763671875 394.85491943359375 162.97415161132812 425.1718444824219 102.63872528076172 435.79400634765625 C 104.16747283935547 398.5736083984375 79.97415924072266 423.974365234375 65.43843841552734 414.8785705566406 C 59.28934860229492 409.573974609375 62.75016403198242 390.1188049316406 69.65955352783203 396.0228271484375" stroke-width="2.0" fill="none" stroke="rgb(0, 0, 0)" stroke-opacity="0.22074316" stroke-linecap="round" stroke-linejoin="round"/>
    <path d="M 439.7818603515625 102.67621612548828 C 393.4275817871094 107.67780303955078 418.18768310546875 115.52320098876953 389.4227600097656 130.25308227539062 C 395.24835205078125 129.49374389648438 415.9671325683594 118.52557373046875 440.6111145019531 91.40580749511719 C 440.02032470703125 98.88507843017578 446.79205322265625 84.23607635498047 423.80609130859375 110.22146606445312 C 444.4090881347656 88.95710754394531 441.07598876953125 102.36470794677734 495.74615478515625 116.0882339477539" stroke-width="8.245786666870117" fill="none" stroke="rgb(0, 0, 0)" stroke-opacity="0.37460732" stroke-linecap="round" stroke-linejoin="round"/>
    <path d="M 86.00833892822266 281.2425537109375 C 67.37007141113281 289.044921875 62.6480827331543 286.94036865234375 71.32121276855469 283.9404296875 C 42.60447311401367 288.3539733886719 48.81490707397461 282.3887939453125 36.60691452026367 262.7100830078125 C 34.279151916503906 270.81182861328125 25.09077262878418 223.8502655029297 29.049989700317383 265.9389953613281 C 19.038848876953125 244.1371612548828 13.465660095214844 240.4675750732422 -8.842853546142578 250.9720916748047" stroke-width="4.632782936096191" fill="none" stroke="rgb(0, 0, 0)" stroke-opacity="0.9233241" stroke-linecap="round" stroke-linejoin="round"/>
    <path d="M 155.65005493164062 595.6048583984375 C 138.1809844970703 473.7135314941406 122.80394744873047 475.19580078125 129.6223602294922 531.6271362304688 C 166.47450256347656 544.2636108398438 62.46613693237305 563.9329833984375 55.560428619384766 535.4776000976562 C 39.267269134521484 510.3205261230469 24.74363899230957 548.2874145507812 181.006591796875 527.4176025390625 C 88.01251220703125 508.5533447265625 112.81002044677734 530.613525390625 120.31250762939453 616.2575073242188" stroke-width="12.0" fill="none" stroke="rgb(0, 0, 0)" stroke-opacity="0.7076328" stroke-linecap="round" stroke-linejoin="round"/>
    <path d="M 149.9456329345703 164.0318603515625 C 118.14435577392578 161.26109313964844 95.70986938476562 142.21910095214844 124.78072357177734 162.9218292236328 C 136.03468322753906 170.7813262939453 135.06640625 176.55149841308594 121.26102447509766 159.24337768554688 C 114.60253143310547 154.24595642089844 116.7994384765625 159.18069458007812 120.05594635009766 149.76356506347656 C 126.45691680908203 170.8302459716797 141.03579711914062 162.6868438720703 167.49615478515625 157.26864624023438" stroke-width="4.153701305389404" fill="none" stroke="rgb(0, 0, 0)" stroke-opacity="0.8310493" stroke-linecap="round" stroke-linejoin="round"/>
    <path d="M 231.2762908935547 528.56884765625 C 136.00584411621094 533.2394409179688 116.0851058959961 470.7694091796875 187.58352661132812 522.2118530273438 C 194.49098205566406 507.2064208984375 188.91094970703125 529.9930419921875 194.2233123779297 571.7888793945312 C 181.55450439453125 583.2745361328125 201.6363525390625 570.2872924804688 191.59378051757812 572.9196166992188 C 199.42767333984375 591.4339599609375 187.11685180664062 632.1895141601562 174.34124755859375 616.3804321289062" stroke-width="11.83865737915039" fill="none" stroke="rgb(0, 0, 0)" stroke-opacity="1.0" stroke-linecap="round" stroke-linejoin="round"/>
    <path d="M 552.3359375 424.94976806640625 C 539.14111328125 402.00994873046875 561.864501953125 490.2354431152344 542.8955078125 495.9503479003906 C 469.6178894042969 515.1118774414062 521.1788940429688 544.302001953125 555.3414916992188 490.8993835449219 C 613.4534301757812 485.45892333984375 522.8424682617188 502.4790954589844 519.8372802734375 470.93634033203125 C 502.0705261230469 520.8187866210938 428.73333740234375 503.08526611328125 473.0552062988281 477.7682189941406" stroke-width="2.0" fill="none" stroke="rgb(0, 0, 0)" stroke-opacity="0.888588" stroke-linecap="round" stroke-linejoin="round"/>
    <path d="M 602.5485229492188 558.0372314453125 C 531.42431640625 546.9306030273438 551.1336669921875 529.1700439453125 545.4273681640625 589.065673828125 C 523.5383911132812 602.6870727539062 570.4373779296875 613.557861328125 549.9016723632812 591.5865478515625 C 549.67431640625 463.7240905761719 557.3103637695312 454.7119445800781 525.0472412109375 517.3997802734375 C 588.552734375 500.3929748535156 570.5459594726562 527.6769409179688 584.1294555664062 516.9979248046875" stroke-width="8.953447341918945" fill="none" stroke="rgb(0, 0, 0)" stroke-opacity="0.252809" stroke-linecap="round" stroke-linejoin="round"/>
    <path d="M 177.94700622558594 301.1982727050781 C 143.51556396484375 323.037353515625 158.63299560546875 336.3852844238281 131.04811096191406 352.0411071777344 C 55.793338775634766 363.7877502441406 111.73736572265625 371.09100341796875 199.7033233642578 329.99957275390625 C 185.0746307373047 349.4286804199219 93.2351303100586 386.0140075683594 143.58848571777344 364.4869384765625 C 176.2871856689453 354.1882019042969 164.24571228027344 340.2027893066406 107.3058090209961 372.0812683105469" stroke-width="11.999130249023438" fill="none" stroke="rgb(0, 0, 0)" stroke-opacity="0.7708343" stroke-linecap="round" stroke-linejoin="round"/>
    <path d="M 587.9696655273438 234.1566619873047 C 598.5925903320312 236.21788024902344 576.3507080078125 246.2550048828125 595.0293579101562 231.0237274169922 C 615.5542602539062 218.73126220703125 643.3658447265625 197.56649780273438 641.8534545898438 202.62318420410156 C 601.1666870117188 264.6667175292969 619.5263061523438 260.5 605.9866943359375 232.3375244140625 C 617.0635986328125 251.85293579101562 598.1267700195312 242.7832794189453 621.4729614257812 217.0968017578125" stroke-width="2.0" fill="none" stroke="rgb(0, 0, 0)" stroke-opacity="0.98624945" stroke-linecap="round" stroke-linejoin="round"/>
    <path d="M 516.78857421875 461.5855407714844 C 424.6541748046875 447.3158874511719 444.8526611328125 456.8507995605469 452.46282958984375 497.26483154296875 C 447.57818603515625 468.1224060058594 406.8589172363281 457.0032043457031 402.9986877441406 464.3246154785156 C 434.8617248535156 486.775634765625 431.2861022949219 530.0159301757812 416.41925048828125 530.673095703125 C 388.1453552246094 560.682861328125 384.1217346191406 494.63916015625 389.69842529296875 566.1233520507812" stroke-width="11.272359848022461" fill="none" stroke="rgb(0, 0, 0)" stroke-opacity="0.095138036" stroke-linecap="round" stroke-linejoin="round"/>
    <path d="M 96.65682983398438 114.51903533935547 C 62.09781265258789 125.4959945678711 50.70133590698242 134.89419555664062 53.020137786865234 158.1348114013672 C 63.037017822265625 158.45339965820312 78.59486389160156 159.24134826660156 73.86434936523438 143.24517822265625 C 19.999488830566406 143.92010498046875 58.46848678588867 162.93798828125 -9.010649681091309 167.2196807861328 C -10.268956184387207 192.64991760253906 -46.74843978881836 188.1757354736328 -81.33638763427734 181.9274139404297" stroke-width="2.0" fill="none" stroke="rgb(0, 0, 0)" stroke-opacity="0.52882427" stroke-linecap="round" stroke-linejoin="round"/>
    <path d="M -7.488006114959717 84.97779846191406 C -28.949993133544922 85.58988952636719 -9.494507789611816 100.37062072753906 -3.0555310249328613 105.66070556640625 C -25.485607147216797 102.9599609375 -4.724801063537598 113.09261322021484 -20.195667266845703 143.257080078125 C -32.236270904541016 153.28207397460938 -56.98746871948242 149.85902404785156 -54.076438903808594 174.6986541748047 C -54.15955352783203 175.6995391845703 -39.56619644165039 194.49774169921875 -21.518962860107422 174.39529418945312" stroke-width="4.339309215545654" fill="none" stroke="rgb(0, 0, 0)" stroke-opacity="0.1485018" stroke-linecap="round" stroke-linejoin="round"/>
    <path d="M 605.3455810546875 194.4620361328125 C 625.4490356445312 179.66722106933594 595.4420776367188 192.49560546875 610.6563110351562 180.64492797851562 C 602.3052978515625 191.49395751953125 607.1336059570312 172.401123046875 606.4942016601562 195.46633911132812 C 621.576416015625 183.6542510986328 611.7249755859375 194.5198211669922 613.0826416015625 182.8369140625 C 592.104736328125 191.7490692138672 606.678955078125 183.18603515625 606.1693725585938 185.341064453125" stroke-width="2.012336492538452" fill="none" stroke="rgb(0, 0, 0)" stroke-opacity="0.72657776" stroke-linecap="round" stroke-linejoin="round"/>
    <path d="M 255.11216735839844 670.3687133789062 C 246.79209899902344 653.6683959960938 251.52085876464844 584.515869140625 271.79736328125 591.7435913085938 C 257.964111328125 585.1657104492188 295.4024963378906 557.16552734375 329.635009765625 586.4823608398438 C 303.95458984375 584.769775390625 237.53375244140625 573.8585815429688 267.41424560546875 618.2787475585938 C 243.1962127685547 632.14794921875 224.9675750732422 583.3370361328125 334.0323181152344 597.7041015625" stroke-width="12.0" fill="none" stroke="rgb(0, 0, 0)" stroke-opacity="0.5892983" stroke-linecap="round" stroke-linejoin="round"/>
    <path d="M 45.25189971923828 136.86532592773438 C 42.810489654541016 126.42327880859375 32.902687072753906 159.5900115966797 63.13612365722656 128.17529296875 C 76.85474395751953 101.49395751953125 98.50772857666016 146.4601593017578 106.00772857666016 152.33050537109375 C 113.56704711914062 136.72193908691406 67.08831024169922 127.2967758178711 61.835540771484375 96.39818572998047 C 25.9466552734375 57.32266616821289 52.933162689208984 87.46912384033203 39.84529495239258 83.8740005493164" stroke-width="4.489959239959717" fill="none" stroke="rgb(0, 0, 0)" stroke-opacity="0.88476706" stroke-linecap="round" stroke-linejoin="round"/>
    <path d="M 530.7461547851562 233.44293212890625 C 520.1435546875 259.01324462890625 520.8565063476562 225.5200653076172 523.4938354492188 272.2940979003906 C 523.7626953125 233.5672607421875 529.5291748046875 255.99481201171875 522.9249877929688 271.4578552246094 C 530.5310668945312 259.8783264160156 526.2381591796875 284.1024475097656 540.1388549804688 275.00885009765625 C 524.7555541992188 279.16973876953125 538.50146484375 282.62054443359375 525.138916015625 268.69903564453125" stroke-width="5.598207473754883" fill="none" stroke="rgb(0, 0, 0)" stroke-opacity="0.27981773" stroke-linecap="round" stroke-linejoin="round"/>
    <path d="M 158.78817749023438 377.5430603027344 C 147.6560821533203 382.3253479003906 171.84091186523438 453.4457702636719 181.97010803222656 367.2895202636719 C 218.8760223388672 409.48297119140625 211.451171875 414.43597412109375 201.77479553222656 325.29736328125 C 158.11114501953125 291.6999206542969 174.33592224121094 316.30133056640625 214.1419219970703 333.66522216796875 C 264.1673889160156 353.8356628417969 229.2777099609375 304.32672119140625 240.520263671875 378.8991394042969" stroke-width="11.835370063781738" fill="none" stroke="rgb(0, 0, 0)" stroke-opacity="0.7130799" stroke-linecap="round" stroke-linejoin="round"/>
    <path d="M 449.5675048828125 209.33631896972656 C 515.9210205078125 232.00669860839844 540.8833618164062 218.87640380859375 511.7928161621094 268.8070373535156 C 466.12103271484375 250.81607055664062 487.4331970214844 262.87274169921875 509.6694641113281 261.19091796875 C 488.8365783691406 266.80584716796875 560.7561645507812 255.3209686279297 541.97412109375 318.62890625 C 518.3255004882812 314.9747314453125 431.54132080078125 305.2586364746094 440.1338806152344 281.8493957519531" stroke-width="8.264240264892578" fill="none" stroke="rgb(0, 0, 0)" stroke-opacity="0.08412021" stroke-linecap="round" stroke-linejoin="round"/>
    <path d="M 533.1207885742188 552.1489868164062 C 457.14422607421875 607.8237915039062 456.3445739746094 664.873046875 456.1939392089844 569.1987915039062 C 402.1627197265625 572.447265625 368.7599182128906 588.39697265625 392.9617614746094 581.1752319335938 C 379.86151123046875 531.9462890625 397.3751525878906 513.857177734375 425.0191650390625 487.9221496582031 C 468.862548828125 523.8883666992188 463.0751647949219 496.45941162109375 397.1364440917969 527.2898559570312" stroke-width="11.548478126525879" fill="none" stroke="rgb(0, 0, 0)" stroke-opacity="0.08059556" stroke-linecap="round" stroke-linejoin="round"/>
    <path d="M 409.6195983886719 652.9659423828125 C 380.38226318359375 625.6168212890625 392.5749816894531 675.7881469726562 393.1640319824219 568.0785522460938 C 381.41741943359375 536.8778076171875 419.0848388671875 506.8721618652344 444.52716064453125 515.6699829101562 C 304.96575927734375 544.0512084960938 324.7183837890625 536.6524658203125 372.691650390625 467.5290832519531 C 359.2248229980469 485.796630859375 356.8981018066406 480.81787109375 331.2353515625 419.6585388183594" stroke-width="2.0" fill="none" stroke="rgb(0, 0, 0)" stroke-opacity="0.60930836" stroke-linecap="round" stroke-linejoin="round"/>
    <path d="M 324.0308532714844 531.1105346679688 C 266.2593688964844 540.7530517578125 287.9863586425781 526.6268310546875 269.8036804199219 536.4861450195312 C 214.71742248535156 529.8164672851562 279.2561340332031 533.5223999023438 254.3306121826172 525.1983642578125 C 290.9606018066406 539.283203125 375.54180908203125 534.4256591796875 288.46136474609375 536.412109375 C 289.21002197265625 523.7507934570312 346.32183837890625 544.4647216796875 430.4233703613281 525.6533813476562" stroke-width="12.0" fill="none" stroke="rgb(0, 0, 0)" stroke-opacity="0.5898981" stroke-linecap="round" stroke-linejoin="round"/>
    <path d="M 231.2762908935547 528.56884765625 C 136.00584411621094 533.2394409179688 116.0851058959961 470.7694091796875 187.58352661132812 522.2118530273438 C 194.49098205566406 507.2064208984375 188.91094970703125 529.9930419921875 194.2233123779297 571.7888793945312 C 181.55450439453125 583.2745361328125 201.6363525390625 570.2872924804688 191.59378051757812 572.9196166992188 C 199.42767333984375 591.4339599609375 187.11685180664062 632.1895141601562 174.34124755859375 616.3804321289062" stroke-width="11.83865737915039" fill="none" stroke="rgb(0, 0, 0)" stroke-opacity="1.0" stroke-linecap="round" stroke-linejoin="round"/>
    <path d="M 231.2762908935547 528.56884765625 C 136.00584411621094 533.2394409179688 116.0851058959961 470.7694091796875 187.58352661132812 522.2118530273438 C 194.49098205566406 507.2064208984375 188.91094970703125 529.9930419921875 194.2233123779297 571.7888793945312 C 181.55450439453125 583.2745361328125 201.6363525390625 570.2872924804688 191.59378051757812 572.9196166992188 C 199.42767333984375 591.4339599609375 187.11685180664062 632.1895141601562 174.34124755859375 616.3804321289062" stroke-width="11.83865737915039" fill="none" stroke="rgb(0, 0, 0)" stroke-opacity="1.0" stroke-linecap="round" stroke-linejoin="round"/>
    <path d="M -52.4991455078125 243.29940795898438 C -45.53542709350586 258.3995666503906 -2.363342761993408 244.25665283203125 11.89777946472168 236.0033721923828 C -36.77949905395508 192.6519775390625 28.243824005126953 222.1168670654297 39.83240509033203 193.5244140625 C 24.302913665771484 206.5054931640625 -10.254737854003906 198.25376892089844 18.90050506591797 229.21237182617188 C 36.93881607055664 226.66464233398438 39.941200256347656 234.4605712890625 9.199020385742188 215.1442413330078" stroke-width="7.066504955291748" fill="none" stroke="rgb(0, 0, 0)" stroke-opacity="0.22247903" stroke-linecap="round" stroke-linejoin="round"/>
    <path d="M 444.0995178222656 304.6838684082031 C 438.0581970214844 329.17010498046875 419.6382141113281 299.50384521484375 448.20269775390625 296.6246337890625 C 449.681396484375 303.5896911621094 411.3998718261719 320.86181640625 355.61566162109375 342.5320129394531 C 361.5981750488281 334.0400390625 400.17291259765625 323.24859619140625 404.35931396484375 312.0410461425781 C 411.63311767578125 299.4081726074219 414.4111633300781 336.95166015625 391.12115478515625 310.5549621582031" stroke-width="8.110124588012695" fill="none" stroke="rgb(0, 0, 0)" stroke-opacity="0.3892986" stroke-linecap="round" stroke-linejoin="round"/>
    <path d="M 393.8749694824219 236.7100067138672 C 379.5322265625 240.86134338378906 415.83721923828125 221.3330535888672 364.8056945800781 245.88815307617188 C 343.89910888671875 236.80201721191406 377.4289855957031 273.1657409667969 358.47747802734375 301.4193115234375 C 379.3626708984375 276.1492614746094 393.3985290527344 282.4911804199219 359.2662048339844 281.9695739746094 C 372.2834167480469 293.55072021484375 337.8667907714844 316.85089111328125 337.9566345214844 370.5050048828125" stroke-width="3.078498601913452" fill="none" stroke="rgb(0, 0, 0)" stroke-opacity="0.28702927" stroke-linecap="round" stroke-linejoin="round"/>
    <path d="M 532.9161987304688 521.8701171875 C 498.7370300292969 528.6671752929688 484.71478271484375 527.9501342773438 493.2138977050781 568.007568359375 C 551.671630859375 540.4664306640625 530.5682373046875 498.1268005371094 527.2893676757812 555.5379028320312 C 471.5443420410156 567.2554321289062 451.2017822265625 560.4781494140625 483.7476806640625 560.3097534179688 C 424.0093994140625 539.679931640625 411.6728210449219 583.392333984375 465.31329345703125 555.04296875" stroke-width="6.294760704040527" fill="none" stroke="rgb(0, 0, 0)" stroke-opacity="0.34202737" stroke-linecap="round" stroke-linejoin="round"/>
    <path d="M 491.1101989746094 -13.30051040649414 C 506.6430969238281 -2.873224973678589 508.07452392578125 -5.665040016174316 480.08331298828125 -14.807720184326172 C 470.0010986328125 -28.965377807617188 454.1274719238281 -18.588491439819336 492.0906066894531 -18.111112594604492 C 513.3416748046875 6.78928279876709 521.595703125 -9.939526557922363 504.48516845703125 -23.51223373413086 C 479.0306091308594 -19.209074020385742 503.0896911621094 -10.700303077697754 532.103759765625 -9.400228500366211" stroke-width="6.770638942718506" fill="none" stroke="rgb(0, 0, 0)" stroke-opacity="0.4693492" stroke-linecap="round" stroke-linejoin="round"/>
    <path d="M 156.88636779785156 480.4874267578125 C 213.75091552734375 410.3573303222656 165.01661682128906 423.8758239746094 146.75950622558594 488.5705261230469 C 200.1798095703125 496.5108337402344 173.020263671875 467.7910461425781 152.46829223632812 499.7767639160156 C 131.7505645751953 577.7373046875 124.37003326416016 563.1279296875 201.6871795654297 567.2406616210938 C 203.79971313476562 524.2224731445312 165.90472412109375 509.44732666015625 214.50767517089844 519.7384643554688" stroke-width="3.109407663345337" fill="none" stroke="rgb(0, 0, 0)" stroke-opacity="0.13262446" stroke-linecap="round" stroke-linejoin="round"/>
    <path d="M 442.0681457519531 144.083251953125 C 389.9266357421875 135.50149536132812 412.9815979003906 159.3321533203125 422.98089599609375 173.9220428466797 C 455.80047607421875 169.1089630126953 432.6024475097656 165.87789916992188 412.6155090332031 188.01185607910156 C 457.551513671875 194.18836975097656 430.8312072753906 199.1138458251953 440.9399108886719 180.15501403808594 C 395.6076965332031 190.74185180664062 426.40496826171875 175.85745239257812 433.4215087890625 168.13824462890625" stroke-width="2.0" fill="none" stroke="rgb(0, 0, 0)" stroke-opacity="0.15146185" stroke-linecap="round" stroke-linejoin="round"/>
    <path d="M 439.86187744140625 173.4025421142578 C 443.7162170410156 153.12513732910156 440.0846862792969 177.0497589111328 424.85491943359375 172.9578857421875 C 433.4366149902344 176.15220642089844 396.6148376464844 186.90867614746094 382.8621520996094 202.90744018554688 C 402.51446533203125 186.22128295898438 367.9655456542969 155.63072204589844 388.6941833496094 162.5504150390625 C 398.7846984863281 163.11227416992188 370.2078857421875 170.34417724609375 439.073486328125 132.5885772705078" stroke-width="8.20312786102295" fill="none" stroke="rgb(0, 0, 0)" stroke-opacity="0.6189839" stroke-linecap="round" stroke-linejoin="round"/>
    <path d="M 331.76959228515625 433.3940124511719 C 315.0714416503906 391.5231628417969 342.44287109375 402.16998291015625 286.17340087890625 391.53192138671875 C 325.70330810546875 399.66552734375 368.4707946777344 403.10577392578125 324.6014404296875 398.08599853515625 C 357.701416015625 391.0272521972656 379.27386474609375 361.5823669433594 323.13909912109375 413.6905212402344 C 353.8877868652344 472.6549377441406 387.8396301269531 514.3718872070312 455.69573974609375 501.5943603515625" stroke-width="9.267278671264648" fill="none" stroke="rgb(0, 0, 0)" stroke-opacity="0.58239627" stroke-linecap="round" stroke-linejoin="round"/>
    <path d="M 351.6548156738281 11.204358100891113 C 350.7645263671875 -11.631163597106934 336.4934997558594 -11.225056648254395 348.64410400390625 -7.4726715087890625 C 387.5450134277344 -2.614281177520752 395.69110107421875 18.46486473083496 410.591064453125 0.9393998384475708 C 378.7117614746094 -24.481021881103516 408.8522033691406 -28.170242309570312 390.83978271484375 -44.979854583740234 C 403.080810546875 -26.778982162475586 411.00927734375 -9.850556373596191 388.56280517578125 -7.8359055519104" stroke-width="2.7603936195373535" fill="none" stroke="rgb(0, 0, 0)" stroke-opacity="0.36242703" stroke-linecap="round" stroke-linejoin="round"/>
    <path d="M 489.1779479980469 82.63336944580078 C 474.3119201660156 85.64877319335938 469.38238525390625 111.13125610351562 493.8824157714844 118.18233489990234 C 470.7756652832031 129.39157104492188 510.073486328125 192.3964385986328 511.76715087890625 200.46267700195312 C 513.7989501953125 194.33914184570312 543.9644775390625 197.36907958984375 445.1141662597656 170.3546905517578 C 446.13922119140625 164.42977905273438 505.1343994140625 193.36001586914062 497.750244140625 167.31439208984375" stroke-width="5.3491668701171875" fill="none" stroke="rgb(0, 0, 0)" stroke-opacity="0.41161916" stroke-linecap="round" stroke-linejoin="round"/>
    <path d="M 178.37969970703125 269.4147033691406 C 226.95700073242188 228.29750061035156 224.44375610351562 278.12030029296875 184.12228393554688 331.308349609375 C 157.36734008789062 270.41644287109375 204.08811950683594 289.3336486816406 176.4346466064453 335.7428283691406 C 161.41400146484375 272.6290283203125 176.9260711669922 273.29779052734375 189.5446014404297 239.8671417236328 C 224.3859405517578 276.3895263671875 292.6493225097656 258.78289794921875 288.80279541015625 269.60589599609375" stroke-width="11.057663917541504" fill="none" stroke="rgb(0, 0, 0)" stroke-opacity="0.7033652" stroke-linecap="round" stroke-linejoin="round"/>
    <path d="M 186.63050842285156 399.87872314453125 C 149.8567352294922 339.6185302734375 168.0233154296875 288.53057861328125 172.54959106445312 271.12017822265625 C 122.29603576660156 247.25421142578125 125.78068542480469 254.7149658203125 144.56312561035156 276.24761962890625 C 157.20571899414062 267.8698425292969 116.89517974853516 253.50682067871094 165.65011596679688 281.9601135253906 C 161.6578369140625 340.9875183105469 118.86122131347656 377.6412048339844 90.96910858154297 346.878662109375" stroke-width="10.299897193908691" fill="none" stroke="rgb(0, 0, 0)" stroke-opacity="0.5436133" stroke-linecap="round" stroke-linejoin="round"/>
    <path d="M 462.3177795410156 137.171142578125 C 467.63232421875 147.10040283203125 494.1400451660156 139.62969970703125 508.6367492675781 158.33645629882812 C 476.38214111328125 150.028564453125 449.581298828125 127.76588439941406 434.9024963378906 124.00218200683594 C 454.6993408203125 144.83872985839844 509.614501953125 154.41827392578125 498.04620361328125 157.83245849609375 C 479.72650146484375 163.99850463867188 461.9704895019531 180.2950897216797 485.27178955078125 175.6483612060547" stroke-width="2.11948299407959" fill="none" stroke="rgb(0, 0, 0)" stroke-opacity="0.7717542" stroke-linecap="round" stroke-linejoin="round"/>
    <path d="M 339.7611083984375 88.99471282958984 C 334.7531433105469 94.31377410888672 354.3414306640625 95.56645965576172 328.7821044921875 88.10739135742188 C 345.116455078125 97.33396911621094 330.1022644042969 100.2870864868164 337.93804931640625 79.2187271118164 C 331.54522705078125 71.60741424560547 360.7672424316406 54.49717712402344 381.1658935546875 55.02823257446289 C 361.4481506347656 63.4462890625 363.8874206542969 57.3302001953125 352.0367431640625 51.913787841796875" stroke-width="2.0" fill="none" stroke="rgb(0, 0, 0)" stroke-opacity="0.23307055" stroke-linecap="round" stroke-linejoin="round"/>
    <path d="M 105.66061401367188 122.23257446289062 C 113.25624084472656 122.11603546142578 142.0662384033203 112.59596252441406 123.46515655517578 119.62026977539062 C 128.61764526367188 63.89863967895508 132.88392639160156 110.608642578125 119.08792114257812 66.49934387207031 C 140.5907745361328 36.236026763916016 119.74282836914062 67.37450408935547 93.32608795166016 12.376091003417969 C 80.40679931640625 11.796110153198242 87.285400390625 14.925228118896484 29.365238189697266 -3.1671106815338135" stroke-width="7.54670524597168" fill="none" stroke="rgb(0, 0, 0)" stroke-opacity="0.72576135" stroke-linecap="round" stroke-linejoin="round"/>
    <path d="M 113.79046630859375 518.6778564453125 C 133.53970336914062 439.4408874511719 137.2335662841797 452.3860168457031 108.0926284790039 479.18499755859375 C 169.212890625 492.7491760253906 128.31143188476562 504.4454040527344 131.74876403808594 497.3525085449219 C 142.76251220703125 463.204345703125 128.87677001953125 481.332275390625 113.21963500976562 491.8847351074219 C 64.97370147705078 563.1238403320312 107.32769012451172 540.972900390625 109.9340591430664 492.1391906738281" stroke-width="12.0" fill="none" stroke="rgb(0, 0, 0)" stroke-opacity="0.9898683" stroke-linecap="round" stroke-linejoin="round"/>
    <path d="M 417.64019775390625 260.00048828125 C 354.3775634765625 291.4906005859375 353.8778381347656 293.78802490234375 377.5503845214844 290.3545227050781 C 412.47344970703125 323.71533203125 440.089599609375 302.3743896484375 411.8138427734375 311.41204833984375 C 455.16790771484375 319.4912414550781 432.9531555175781 313.0168151855469 394.8520812988281 315.8014221191406 C 417.8810729980469 319.573974609375 422.8482360839844 312.8352966308594 369.2455749511719 330.701904296875" stroke-width="4.628566741943359" fill="none" stroke="rgb(0, 0, 0)" stroke-opacity="0.5527892" stroke-linecap="round" stroke-linejoin="round"/>
    <path d="M 219.7598114013672 125.14274597167969 C 209.98204040527344 16.006725311279297 244.97235107421875 41.88497543334961 251.489990234375 -35.173614501953125 C 304.1446838378906 -54.138126373291016 301.73443603515625 -78.21472930908203 304.3218688964844 -52.62955093383789 C 259.15863037109375 -15.32076358795166 238.81407165527344 -36.79006576538086 241.7162628173828 -10.268444061279297 C 230.92689514160156 -14.26046371459961 207.92152404785156 -15.070401191711426 224.70877075195312 -10.643963813781738" stroke-width="2.0" fill="none" stroke="rgb(0, 0, 0)" stroke-opacity="0.912959" stroke-linecap="round" stroke-linejoin="round"/>
    <path d="M 231.2762908935547 528.56884765625 C 136.00584411621094 533.2394409179688 116.0851058959961 470.7694091796875 187.58352661132812 522.2118530273438 C 194.49098205566406 507.2064208984375 188.91094970703125 529.9930419921875 194.2233123779297 571.7888793945312 C 181.55450439453125 583.2745361328125 201.6363525390625 570.2872924804688 191.59378051757812 572.9196166992188 C 199.42767333984375 591.4339599609375 187.11685180664062 632.1895141601562 174.34124755859375 616.3804321289062" stroke-width="11.83865737915039" fill="none" stroke="rgb(0, 0, 0)" stroke-opacity="1.0" stroke-linecap="round" stroke-linejoin="round"/>
    <path d="M 228.19004821777344 78.37991333007812 C 238.99937438964844 8.51489543914795 191.87045288085938 18.872819900512695 206.89337158203125 44.88836669921875 C 220.1089324951172 -19.025327682495117 205.00413513183594 -18.678466796875 197.6369171142578 -73.31086730957031 C 207.02374267578125 -13.8751220703125 228.51852416992188 -15.52257251739502 247.37661743164062 -7.929489612579346 C 230.25328063964844 -16.987506866455078 233.04722595214844 -24.393924713134766 213.0096435546875 -21.14118766784668" stroke-width="4.113109111785889" fill="none" stroke="rgb(0, 0, 0)" stroke-opacity="0.77865046" stroke-linecap="round" stroke-linejoin="round"/>
    <path d="M 312.41387939453125 342.10028076171875 C 308.8720703125 336.2443542480469 230.95297241210938 336.0014953613281 246.94622802734375 349.5028991699219 C 338.5376281738281 328.53057861328125 331.4184265136719 346.6881103515625 314.4437255859375 329.6164855957031 C 300.10833740234375 396.905517578125 336.3745422363281 401.4039611816406 282.290771484375 390.9601745605469 C 274.7497863769531 323.24896240234375 258.7354431152344 383.7886047363281 348.5135192871094 317.7686462402344" stroke-width="10.229377746582031" fill="none" stroke="rgb(0, 0, 0)" stroke-opacity="0.48483485" stroke-linecap="round" stroke-linejoin="round"/>
    <path d="M 428.4586181640625 462.8677673339844 C 470.9232177734375 454.3779296875 432.9803771972656 357.4682312011719 447.6699523925781 346.79351806640625 C 455.5015563964844 352.0174865722656 440.7923583984375 441.7641906738281 458.74017333984375 459.8309631347656 C 452.5529479980469 444.7878112792969 405.41363525390625 451.3529052734375 427.4398193359375 466.6796875 C 465.383544921875 433.7246398925781 460.1470947265625 424.7537841796875 450.3997497558594 510.100830078125" stroke-width="3.454118013381958" fill="none" stroke="rgb(0, 0, 0)" stroke-opacity="0.0658817" stroke-linecap="round" stroke-linejoin="round"/>
    <path d="M 359.6244812011719 398.9045715332031 C 418.6297607421875 368.768310546875 450.4931640625 353.59820556640625 443.7697448730469 355.19305419921875 C 426.2895812988281 360.92852783203125 405.11468505859375 370.0378723144531 457.1290588378906 351.916748046875 C 429.6865234375 368.3457946777344 359.6886291503906 392.19354248046875 409.6423034667969 372.8362731933594 C 386.96881103515625 328.0079650878906 418.5393371582031 289.9956359863281 396.4734191894531 325.8222351074219" stroke-width="10.504814147949219" fill="none" stroke="rgb(0, 0, 0)" stroke-opacity="0.06977047" stroke-linecap="round" stroke-linejoin="round"/>
    <path d="M 172.54396057128906 39.93029022216797 C 155.31236267089844 51.44926071166992 134.36776733398438 49.0150146484375 150.8457489013672 30.380647659301758 C 119.7198715209961 74.19490814208984 148.34840393066406 72.05545043945312 170.8183135986328 60.84050369262695 C 150.04566955566406 68.45855712890625 128.3447265625 106.1421127319336 114.52657318115234 44.080039978027344 C 137.6680908203125 51.31846618652344 173.8018341064453 70.0013198852539 189.16717529296875 50.75730895996094" stroke-width="5.123167514801025" fill="none" stroke="rgb(0, 0, 0)" stroke-opacity="0.17976071" stroke-linecap="round" stroke-linejoin="round"/>
    <path d="M 418.99615478515625 566.3004760742188 C 407.5498352050781 570.4398193359375 428.2625732421875 573.1445922851562 387.0567321777344 570.2369384765625 C 386.4732360839844 602.8179931640625 407.29290771484375 667.547119140625 421.6017761230469 679.9555053710938 C 427.99530029296875 636.5982055664062 389.4609680175781 632.4427490234375 391.8006286621094 576.2186889648438 C 416.3873596191406 546.9752197265625 433.4237976074219 591.8753051757812 452.68475341796875 542.865478515625" stroke-width="6.393366813659668" fill="none" stroke="rgb(0, 0, 0)" stroke-opacity="0.9002711" stroke-linecap="round" stroke-linejoin="round"/>
    <path d="M 341.1346130371094 290.6788635253906 C 377.17205810546875 311.7341613769531 346.7958679199219 309.8338317871094 348.5218811035156 326.00225830078125 C 366.85552978515625 313.145263671875 359.57159423828125 293.7965087890625 291.6172790527344 333.35406494140625 C 215.96023559570312 307.0619201660156 275.3599548339844 304.6522521972656 277.4994201660156 270.15478515625 C 318.32318115234375 289.49176025390625 359.3540344238281 307.58843994140625 355.880859375 285.7249450683594" stroke-width="2.0" fill="none" stroke="rgb(0, 0, 0)" stroke-opacity="0.30725518" stroke-linecap="round" stroke-linejoin="round"/>
    <path d="M 446.31011962890625 25.6575870513916 C 437.7197265625 -40.78895950317383 442.5311279296875 1.621819019317627 430.1661682128906 31.08048439025879 C 424.8908386230469 42.24549102783203 443.4350280761719 -31.05165672302246 409.2456359863281 -94.27242279052734 C 452.2839660644531 -31.599178314208984 453.468017578125 -38.87232971191406 478.7174987792969 -17.26027488708496 C 491.7447204589844 -29.484798431396484 504.2540283203125 -27.11201286315918 493.9682312011719 -7.53493070602417" stroke-width="10.943574905395508" fill="none" stroke="rgb(0, 0, 0)" stroke-opacity="0.31534538" stroke-linecap="round" stroke-linejoin="round"/>
    <path d="M -13.60496711730957 546.0169067382812 C 89.21028900146484 558.2332153320312 163.3864288330078 551.108154296875 180.0501708984375 532.3318481445312 C 82.80997467041016 532.056640625 98.37210845947266 547.2251586914062 34.87880325317383 558.56640625 C 69.28912353515625 526.4576416015625 121.43057250976562 558.8766479492188 70.4751205444336 463.58367919921875 C -17.789342880249023 493.61712646484375 -33.02562713623047 443.4264831542969 12.662346839904785 477.34100341796875" stroke-width="2.003070831298828" fill="none" stroke="rgb(0, 0, 0)" stroke-opacity="0.13010238" stroke-linecap="round" stroke-linejoin="round"/>
    <path d="M 311.78424072265625 49.57209396362305 C 312.1852722167969 24.0103702545166 303.17510986328125 19.101943969726562 297.20654296875 -8.775915145874023 C 360.082275390625 14.2094144821167 326.20794677734375 9.467376708984375 346.7685852050781 31.35883331298828 C 355.711181640625 52.36455535888672 367.1421203613281 42.80692672729492 349.78070068359375 32.54673385620117 C 351.7388610839844 53.14588165283203 364.3185729980469 84.0526351928711 389.4073791503906 95.66627502441406" stroke-width="8.03686237335205" fill="none" stroke="rgb(0, 0, 0)" stroke-opacity="0.34008768" stroke-linecap="round" stroke-linejoin="round"/>
    <path d="M 195.802734375 215.22666931152344 C 227.4382781982422 159.4377899169922 237.97384643554688 229.23309326171875 169.00096130371094 273.2890930175781 C 189.6787872314453 311.8622741699219 172.939697265625 358.76788330078125 259.0328063964844 337.0086364746094 C 321.4179992675781 380.0205383300781 273.4530029296875 420.4573669433594 176.41085815429688 367.31768798828125 C 232.81578063964844 340.09759521484375 199.75555419921875 335.982666015625 194.27589416503906 368.64447021484375" stroke-width="9.67650318145752" fill="none" stroke="rgb(0, 0, 0)" stroke-opacity="0.31189072" stroke-linecap="round" stroke-linejoin="round"/>
    <path d="M 137.52748107910156 374.4001770019531 C 151.99407958984375 449.6501159667969 120.9775161743164 430.8045654296875 102.28634643554688 415.7019958496094 C 116.45547485351562 450.458740234375 130.21612548828125 437.6692810058594 100.33773803710938 427.8382568359375 C 138.38046264648438 428.04290771484375 114.20237731933594 456.04486083984375 114.23825073242188 512.5886840820312 C 94.9276123046875 431.92608642578125 145.336669921875 469.781005859375 140.80543518066406 469.8675842285156" stroke-width="5.92612886428833" fill="none" stroke="rgb(0, 0, 0)" stroke-opacity="0.8785483" stroke-linecap="round" stroke-linejoin="round"/>
    <path d="M 226.13925170898438 167.29991149902344 C 191.9986572265625 238.98464965820312 179.39584350585938 167.8298797607422 244.07281494140625 195.32760620117188 C 247.04989624023438 215.50987243652344 258.379150390625 223.18899536132812 238.30389404296875 175.87258911132812 C 239.72467041015625 41.73983383178711 198.5857391357422 12.139680862426758 205.49945068359375 139.9774932861328 C 197.25486755371094 217.2412567138672 226.6517333984375 236.9011993408203 217.87208557128906 110.5038070678711" stroke-width="5.895705223083496" fill="none" stroke="rgb(0, 0, 0)" stroke-opacity="0.50389075" stroke-linecap="round" stroke-linejoin="round"/>
    <path d="M 326.1263427734375 219.31936645507812 C 299.2272644042969 266.7158203125 269.4361877441406 266.4920959472656 312.1487121582031 249.9146270751953 C 319.4930419921875 231.4251708984375 281.31878662109375 250.9589385986328 316.93585205078125 233.28314208984375 C 309.58441162109375 263.6051025390625 315.39825439453125 235.76150512695312 271.76275634765625 247.2339630126953 C 282.0611877441406 280.2879638671875 280.9623107910156 342.96441650390625 356.36334228515625 304.2323913574219" stroke-width="8.235926628112793" fill="none" stroke="rgb(0, 0, 0)" stroke-opacity="0.8747849" stroke-linecap="round" stroke-linejoin="round"/>
    <path d="M 394.6392822265625 152.55958557128906 C 380.6744689941406 97.64811706542969 449.2679138183594 133.6249237060547 438.2690734863281 65.32110595703125 C 487.1880187988281 70.21062469482422 481.3564758300781 91.45811462402344 478.67279052734375 114.84374237060547 C 466.2778015136719 111.90495300292969 449.5041198730469 92.0018539428711 478.7373352050781 165.00111389160156 C 514.2283325195312 160.7289581298828 497.1248779296875 146.14382934570312 494.2522277832031 183.6712188720703" stroke-width="3.4418647289276123" fill="none" stroke="rgb(0, 0, 0)" stroke-opacity="0.08250316" stroke-linecap="round" stroke-linejoin="round"/>
    <path d="M 221.59449768066406 16.26201057434082 C 256.0223388671875 57.30336380004883 189.8760986328125 35.175167083740234 207.30885314941406 66.77009582519531 C 232.6868133544922 89.74555969238281 205.048095703125 68.86740112304688 223.55374145507812 -17.733444213867188 C 225.439453125 -45.29395294189453 248.5274658203125 -50.078956604003906 227.83470153808594 -49.353248596191406 C 214.39173889160156 -43.91501235961914 195.28555297851562 -49.861663818359375 175.79896545410156 -33.69710159301758" stroke-width="3.1601998805999756" fill="none" stroke="rgb(0, 0, 0)" stroke-opacity="0.7351179" stroke-linecap="round" stroke-linejoin="round"/>
    <path d="M 558.0989990234375 83.01434326171875 C 558.314697265625 81.36952209472656 593.8732299804688 80.72276306152344 623.9766235351562 73.1507797241211 C 610.7949829101562 73.33990478515625 627.9403686523438 57.67030715942383 617.309814453125 49.2369270324707 C 606.8128662109375 74.78691101074219 622.2141723632812 53.07139587402344 641.088623046875 46.037235260009766 C 653.6893920898438 57.5666389465332 644.6973876953125 66.84420013427734 665.2409057617188 55.77806854248047" stroke-width="2.0162222385406494" fill="none" stroke="rgb(0, 0, 0)" stroke-opacity="0.2550944" stroke-linecap="round" stroke-linejoin="round"/>
    <path d="M 345.9355163574219 285.352783203125 C 337.9889221191406 285.9100036621094 373.222412109375 283.5774841308594 378.5909729003906 274.61322021484375 C 310.8572692871094 302.07733154296875 369.3064270019531 315.6204528808594 316.8037109375 334.7320556640625 C 331.259521484375 330.1067199707031 331.38409423828125 338.68292236328125 353.09765625 308.47052001953125 C 372.6993713378906 295.2328796386719 370.2591552734375 277.6157531738281 357.6146545410156 251.88571166992188" stroke-width="7.935168743133545" fill="none" stroke="rgb(0, 0, 0)" stroke-opacity="0.2910649" stroke-linecap="round" stroke-linejoin="round"/>
    <path d="M 125.4588623046875 59.203678131103516 C 147.735107421875 54.91090393066406 139.53622436523438 68.7791519165039 154.60690307617188 82.22711181640625 C 189.60345458984375 119.52804565429688 161.23216247558594 119.0252914428711 201.5610809326172 119.86528778076172 C 133.60888671875 104.20648193359375 160.7724609375 70.14337158203125 236.97593688964844 72.36156463623047 C 199.32662963867188 130.9420623779297 160.48080444335938 88.3475341796875 138.14964294433594 102.34770965576172" stroke-width="4.860392093658447" fill="none" stroke="rgb(0, 0, 0)" stroke-opacity="0.28416565" stroke-linecap="round" stroke-linejoin="round"/>
    <path d="M 487.43841552734375 -14.713105201721191 C 503.6982421875 -29.252553939819336 511.3977966308594 2.1211507320404053 484.700439453125 -16.34675407409668 C 484.0626220703125 -35.64051818847656 497.822998046875 -52.36323165893555 503.1766357421875 -61.23152160644531 C 536.1285400390625 -54.58820724487305 544.490966796875 -34.513893127441406 533.5853271484375 -41.297035217285156 C 514.7061157226562 -39.493465423583984 512.681640625 -13.89949893951416 518.8729858398438 -18.980010986328125" stroke-width="6.361038684844971" fill="none" stroke="rgb(0, 0, 0)" stroke-opacity="0.3684174" stroke-linecap="round" stroke-linejoin="round"/>
    <path d="M 577.907958984375 -9.064325332641602 C 540.8974609375 10.157045364379883 526.8926391601562 -26.99555778503418 513.0916748046875 -52.81177520751953 C 494.8228454589844 -35.96470642089844 486.7552185058594 -46.52693557739258 470.47686767578125 -17.083044052124023 C 489.4585876464844 -38.97441864013672 475.6829528808594 -57.53171157836914 448.58819580078125 -64.41336822509766 C 468.6714782714844 -56.760650634765625 458.1855773925781 -60.438255310058594 466.1943054199219 -65.37092590332031" stroke-width="2.0" fill="none" stroke="rgb(0, 0, 0)" stroke-opacity="0.94830185" stroke-linecap="round" stroke-linejoin="round"/>
    <path d="M 566.994873046875 322.4911193847656 C 521.1085815429688 315.4156799316406 552.2291870117188 277.4941101074219 548.0116577148438 276.3706359863281 C 509.9125061035156 261.9086608886719 473.8979187011719 264.26171875 483.5702209472656 254.9258575439453 C 464.1050109863281 266.8172912597656 440.91436767578125 231.23561096191406 430.5397644042969 257.06854248046875 C 413.6661682128906 262.9240417480469 415.5368347167969 260.71746826171875 440.5708312988281 249.8123321533203" stroke-width="5.170120716094971" fill="none" stroke="rgb(0, 0, 0)" stroke-opacity="0.7158916" stroke-linecap="round" stroke-linejoin="round"/>
    <path d="M 231.2762908935547 528.56884765625 C 136.00584411621094 533.2394409179688 116.0851058959961 470.7694091796875 187.58352661132812 522.2118530273438 C 194.49098205566406 507.2064208984375 188.91094970703125 529.9930419921875 194.2233123779297 571.7888793945312 C 181.55450439453125 583.2745361328125 201.6363525390625 570.2872924804688 191.59378051757812 572.9196166992188 C 199.42767333984375 591.4339599609375 187.11685180664062 632.1895141601562 174.34124755859375 616.3804321289062" stroke-width="11.83865737915039" fill="none" stroke="rgb(0, 0, 0)" stroke-opacity="1.0" stroke-linecap="round" stroke-linejoin="round"/>
    <path d="M 109.29874420166016 434.031005859375 C 185.20196533203125 413.6015930175781 164.6041717529297 405.78271484375 136.2967529296875 423.044189453125 C 127.2579345703125 438.45458984375 96.22837829589844 410.2317810058594 79.85476684570312 396.55780029296875 C 59.943721771240234 420.196044921875 41.64997863769531 397.29443359375 53.250938415527344 375.28118896484375 C 52.688140869140625 364.508544921875 49.878021240234375 344.5816650390625 50.653141021728516 350.556640625" stroke-width="2.0" fill="none" stroke="rgb(0, 0, 0)" stroke-opacity="0.24051186" stroke-linecap="round" stroke-linejoin="round"/>
    <path d="M 60.82805633544922 63.82035827636719 C 61.811424255371094 85.5132827758789 68.95606231689453 72.33036041259766 63.47285461425781 74.91134643554688 C 50.4912223815918 55.7139778137207 45.64934158325195 66.07026672363281 74.92474365234375 83.88996887207031 C 59.130924224853516 80.087158203125 36.140689849853516 58.977294921875 56.94354248046875 70.59330749511719 C 31.10886573791504 61.28857421875 13.898028373718262 60.761253356933594 38.60309600830078 121.9542007446289" stroke-width="6.380340099334717" fill="none" stroke="rgb(0, 0, 0)" stroke-opacity="0.62149453" stroke-linecap="round" stroke-linejoin="round"/>
    <path d="M 313.9068908691406 330.379638671875 C 139.2812957763672 329.81500244140625 177.96726989746094 317.8917236328125 288.1484069824219 344.9170227050781 C 273.66558837890625 231.41236877441406 276.28240966796875 267.51953125 312.4704895019531 257.16510009765625 C 307.7261962890625 259.459716796875 277.5047912597656 271.22174072265625 251.2711181640625 253.56509399414062 C 192.94732666015625 242.5903778076172 175.8263397216797 209.3285369873047 175.54322814941406 175.5740509033203" stroke-width="2.333009958267212" fill="none" stroke="rgb(0, 0, 0)" stroke-opacity="0.6551185" stroke-linecap="round" stroke-linejoin="round"/>
    <path d="M 402.25360107421875 104.88593292236328 C 379.9366149902344 87.96017456054688 451.967041015625 60.282196044921875 462.4580383300781 52.18610763549805 C 465.83624267578125 91.85730743408203 474.736083984375 62.51893997192383 416.2672119140625 61.17292785644531 C 439.42633056640625 41.89310073852539 411.3707580566406 52.75774383544922 464.2113037109375 56.836177825927734 C 422.04840087890625 40.78300094604492 424.8598937988281 22.077241897583008 448.2310485839844 31.822450637817383" stroke-width="12.0" fill="none" stroke="rgb(0, 0, 0)" stroke-opacity="0.46146208" stroke-linecap="round" stroke-linejoin="round"/>
    <path d="M 179.29348754882812 -7.135139465332031 C 177.55599975585938 -10.384785652160645 179.82232666015625 -34.4852180480957 151.961181640625 -44.32132339477539 C 151.49232482910156 -60.409175872802734 141.53890991210938 -35.99176788330078 138.58251953125 -39.620548248291016 C 139.5067138671875 -43.839473724365234 130.5799102783203 -37.96428680419922 110.49250030517578 -21.371139526367188 C 89.60921478271484 -33.32929611206055 65.66295623779297 -43.87886047363281 74.11116790771484 -53.26883316040039" stroke-width="2.0" fill="none" stroke="rgb(0, 0, 0)" stroke-opacity="0.5963243" stroke-linecap="round" stroke-linejoin="round"/>
    <path d="M 222.38290405273438 0.34486013650894165 C 273.16497802734375 17.04254913330078 236.07469177246094 33.5434684753418 194.7932891845703 33.88969421386719 C 171.4640655517578 -4.470016956329346 213.42999267578125 15.559088706970215 231.98143005371094 -17.440284729003906 C 179.82901000976562 6.041057586669922 169.1503448486328 -11.971551895141602 166.40414428710938 -17.77346420288086 C 205.4383544921875 -4.101449489593506 184.0164337158203 -12.608372688293457 183.5659942626953 -40.89562225341797" stroke-width="12.0" fill="none" stroke="rgb(0, 0, 0)" stroke-opacity="0.7924828" stroke-linecap="round" stroke-linejoin="round"/>
    <path d="M 231.2762908935547 528.56884765625 C 136.00584411621094 533.2394409179688 116.0851058959961 470.7694091796875 187.58352661132812 522.2118530273438 C 194.49098205566406 507.2064208984375 188.91094970703125 529.9930419921875 194.2233123779297 571.7888793945312 C 181.55450439453125 583.2745361328125 201.6363525390625 570.2872924804688 191.59378051757812 572.9196166992188 C 199.42767333984375 591.4339599609375 187.11685180664062 632.1895141601562 174.34124755859375 616.3804321289062" stroke-width="11.83865737915039" fill="none" stroke="rgb(0, 0, 0)" stroke-opacity="0.5402441" stroke-linecap="round" stroke-linejoin="round"/>
  </g>
</svg>
