<?xml version="1.0" ?>
<svg xmlns="http://www.w3.org/2000/svg" version="1.1" width="600" height="600">
  <defs/>
  <g>
    <path d="M 566.4196166992188 128.4474334716797 C 566.6070556640625 1.3041064739227295 581.4666748046875 53.62684631347656 607.0613403320312 89.30542755126953 C 591.801513671875 166.6989288330078 599.67578125 213.38026428222656 612.9174194335938 220.00254821777344 C 628.0396728515625 164.5291748046875 601.753173828125 191.35841369628906 624.2048950195312 194.29974365234375 C 600.3245239257812 168.01470947265625 612.3297729492188 169.40440368652344 611.2611083984375 178.44378662109375" stroke-width="5.028722763061523" fill="none" stroke="rgb(0, 0, 0)" stroke-opacity="0.741871" stroke-linecap="round" stroke-linejoin="round"/>
    <path d="M 464.2344055175781 -9.277403831481934 C 480.3389587402344 63.079917907714844 534.9200439453125 74.35079956054688 524.6714477539062 32.32970428466797 C 501.0904541015625 -13.99782943725586 511.1853332519531 -65.18565368652344 481.8307800292969 -94.24006652832031 C 458.3332214355469 -33.57514572143555 468.5380859375 -53.23097229003906 458.6335754394531 -55.20528030395508 C 460.91387939453125 -60.24800109863281 443.454345703125 -88.01770782470703 456.3147888183594 -85.70408630371094" stroke-width="2.2156524658203125" fill="none" stroke="rgb(0, 0, 0)" stroke-opacity="0.5848162" stroke-linecap="round" stroke-linejoin="round"/>
    <path d="M 319.5518798828125 193.72926330566406 C 342.7146911621094 145.10137939453125 310.7489013671875 123.73580169677734 362.4053649902344 152.8792724609375 C 393.111328125 97.75897979736328 388.43206787109375 86.99885559082031 418.8063659667969 96.4748306274414 C 366.1959228515625 94.56779479980469 348.6644287109375 93.51774597167969 408.8513488769531 93.07302856445312 C 444.29254150390625 30.345378875732422 407.8652648925781 70.39703369140625 456.79339599609375 80.45487976074219" stroke-width="2.097252607345581" fill="none" stroke="rgb(0, 0, 0)" stroke-opacity="0.41106102" stroke-linecap="round" stroke-linejoin="round"/>
    <path d="M 313.0043640136719 168.68368530273438 C 223.1927947998047 190.12147521972656 212.53407287597656 219.70057678222656 260.3016052246094 206.6947479248047 C 226.01846313476562 189.71487426757812 226.76145935058594 208.5413360595703 201.6394500732422 216.60594177246094 C 174.28457641601562 200.8204345703125 182.90614318847656 201.0492401123047 202.21658325195312 218.04295349121094 C 221.4064178466797 227.14984130859375 197.47708129882812 223.83221435546875 196.7012481689453 199.79946899414062" stroke-width="6.69058895111084" fill="none" stroke="rgb(0, 0, 0)" stroke-opacity="0.32490745" stroke-linecap="round" stroke-linejoin="round"/>
    <path d="M 49.705387115478516 81.13200378417969 C -10.008761405944824 149.91639709472656 -25.616153717041016 228.94131469726562 38.81413650512695 164.39498901367188 C 74.56639862060547 178.24456787109375 103.37992095947266 219.29391479492188 105.85147857666016 159.3924102783203 C 109.28672790527344 155.44491577148438 81.65101623535156 149.03660583496094 62.23251724243164 217.39276123046875 C 118.59767150878906 231.7854461669922 158.13987731933594 211.5746307373047 140.1393280029297 212.19703674316406" stroke-width="4.565815448760986" fill="none" stroke="rgb(0, 0, 0)" stroke-opacity="0.24593216" stroke-linecap="round" stroke-linejoin="round"/>
    <path d="M 310.6343994140625 342.5975036621094 C 366.89776611328125 351.4789733886719 418.26141357421875 321.8049011230469 434.9292297363281 336.1292419433594 C 480.09515380859375 302.6208190917969 462.2811584472656 308.423583984375 471.9438781738281 313.3211669921875 C 464.6747741699219 311.4416809082031 481.5498352050781 298.2304382324219 466.5728454589844 308.23345947265625 C 460.0220031738281 334.1880798339844 412.86322021484375 324.8733215332031 420.0254821777344 326.7297058105469" stroke-width="3.822190284729004" fill="none" stroke="rgb(0, 0, 0)" stroke-opacity="0.34835106" stroke-linecap="round" stroke-linejoin="round"/>
    <path d="M 501.5091552734375 571.1858520507812 C 514.7010498046875 562.2732543945312 555.7771606445312 562.0133056640625 504.4555969238281 567.39013671875 C 464.3321838378906 530.4470825195312 473.1479187011719 575.8040161132812 486.2152404785156 523.5674438476562 C 584.9212646484375 522.58837890625 531.9151611328125 537.781494140625 541.8607177734375 513.1311645507812 C 513.1162719726562 512.4595947265625 433.3130187988281 486.87994384765625 373.8056335449219 496.88104248046875" stroke-width="5.867667198181152" fill="none" stroke="rgb(0, 0, 0)" stroke-opacity="0.42801544" stroke-linecap="round" stroke-linejoin="round"/>
    <path d="M 409.67315673828125 439.7113952636719 C 400.6618347167969 505.79815673828125 422.5145568847656 531.7570190429688 403.40771484375 422.74188232421875 C 411.8311767578125 393.9707336425781 369.5308532714844 408.0829772949219 327.35638427734375 412.725341796875 C 328.3989562988281 418.10400390625 338.34027099609375 417.1584777832031 348.05084228515625 421.67071533203125 C 381.3686828613281 427.58416748046875 400.1064147949219 404.7902526855469 431.1416015625 435.76031494140625" stroke-width="6.553532123565674" fill="none" stroke="rgb(0, 0, 0)" stroke-opacity="0.7476164" stroke-linecap="round" stroke-linejoin="round"/>
    <path d="M 324.6485900878906 148.02645874023438 C 252.06796264648438 200.0321044921875 197.15835571289062 231.60911560058594 266.1289978027344 205.66522216796875 C 247.2406005859375 174.8412628173828 257.8832702636719 254.5940704345703 260.707763671875 237.22650146484375 C 239.627685546875 277.0829162597656 226.62229919433594 277.7378234863281 263.5966796875 250.86514282226562 C 260.1171569824219 271.673095703125 224.3994598388672 196.3963165283203 282.409423828125 274.45062255859375" stroke-width="4.9963765144348145" fill="none" stroke="rgb(0, 0, 0)" stroke-opacity="0.9887208" stroke-linecap="round" stroke-linejoin="round"/>
    <path d="M 392.6461181640625 327.4655456542969 C 332.1786193847656 320.84466552734375 296.3458557128906 298.97503662109375 308.2870788574219 337.20355224609375 C 321.6541442871094 276.802978515625 302.5399475097656 228.20977783203125 274.650634765625 258.6812438964844 C 272.4762878417969 281.71307373046875 275.0760803222656 341.23480224609375 288.8702697753906 328.56475830078125 C 283.42547607421875 325.61676025390625 265.6290283203125 331.2373046875 279.8870544433594 408.82220458984375" stroke-width="7.672410011291504" fill="none" stroke="rgb(0, 0, 0)" stroke-opacity="0.26156482" stroke-linecap="round" stroke-linejoin="round"/>
    <path d="M 96.98292541503906 180.14479064941406 C 133.1659393310547 140.47647094726562 130.2467803955078 146.64859008789062 99.33343505859375 168.4199981689453 C 87.47402954101562 183.36880493164062 51.40377426147461 237.91661071777344 104.49754333496094 237.7101593017578 C 117.70027160644531 284.00048828125 132.92782592773438 269.89117431640625 81.76559448242188 231.5808868408203 C 102.67808532714844 120.60993194580078 108.65949249267578 81.99029541015625 -0.09904076159000397 196.409912109375" stroke-width="9.815869331359863" fill="none" stroke="rgb(0, 0, 0)" stroke-opacity="0.7559999" stroke-linecap="round" stroke-linejoin="round"/>
    <path d="M 296.3399353027344 412.5874328613281 C 347.6038818359375 446.91571044921875 298.1062927246094 421.63330078125 342.8203125 433.4380798339844 C 359.3882751464844 431.7423095703125 437.021728515625 437.10150146484375 357.64453125 419.10546875 C 371.7776184082031 523.8746948242188 382.15142822265625 495.6519775390625 315.741943359375 499.4654846191406 C 315.1196594238281 503.2886657714844 299.1788330078125 498.4624938964844 429.8735656738281 509.04693603515625" stroke-width="3.8149542808532715" fill="none" stroke="rgb(0, 0, 0)" stroke-opacity="1.0" stroke-linecap="round" stroke-linejoin="round"/>
    <path d="M 97.46292114257812 197.19906616210938 C 88.71430969238281 159.46412658691406 111.72601318359375 177.35317993164062 86.09314727783203 218.60638427734375 C 79.47881317138672 254.5261688232422 94.74002075195312 255.00662231445312 105.06553649902344 225.51341247558594 C 106.68535614013672 219.9191436767578 101.2791748046875 228.86007690429688 103.13896942138672 230.57058715820312 C 71.02283477783203 236.2461700439453 122.13865661621094 256.75018310546875 117.71173095703125 263.13726806640625" stroke-width="3.0594124794006348" fill="none" stroke="rgb(0, 0, 0)" stroke-opacity="0.8959618" stroke-linecap="round" stroke-linejoin="round"/>
    <path d="M 49.4419059753418 45.51435852050781 C 42.513309478759766 -34.222564697265625 42.517189025878906 -65.59657287597656 64.78063201904297 -54.336997985839844 C 82.491455078125 4.456010341644287 88.66837310791016 -0.12716343998908997 63.94210433959961 11.851795196533203 C 59.038543701171875 53.73054885864258 52.43788146972656 85.96607971191406 60.98435974121094 37.15380859375 C 73.1839599609375 -19.26851463317871 34.67649841308594 23.416187286376953 84.26205444335938 110.22512817382812" stroke-width="8.957414627075195" fill="none" stroke="rgb(0, 0, 0)" stroke-opacity="0.26907176" stroke-linecap="round" stroke-linejoin="round"/>
    <path d="M 136.20726013183594 425.2734375 C 146.18917846679688 437.9967956542969 150.630615234375 446.9955139160156 210.69110107421875 436.2048034667969 C 197.6031494140625 563.6973266601562 220.54356384277344 516.2442626953125 183.25819396972656 530.2199096679688 C 22.135103225708008 529.9998168945312 32.6347770690918 541.5621948242188 44.244041442871094 504.2099914550781 C 203.57220458984375 495.7577819824219 171.69264221191406 513.0784912109375 177.217529296875 481.2552185058594" stroke-width="6.797902584075928" fill="none" stroke="rgb(0, 0, 0)" stroke-opacity="0.47588813" stroke-linecap="round" stroke-linejoin="round"/>
    <path d="M 147.20693969726562 208.5998077392578 C 138.0002899169922 205.39649963378906 147.2470703125 233.10317993164062 143.8576202392578 278.6239013671875 C 109.91450500488281 267.6538391113281 103.07913208007812 272.6101989746094 189.0986785888672 259.663330078125 C 128.65130615234375 241.2818603515625 147.95448303222656 239.6893768310547 124.5702133178711 230.58731079101562 C 107.56603240966797 215.37315368652344 94.48631286621094 237.5946044921875 107.42440032958984 253.79397583007812" stroke-width="2.564124584197998" fill="none" stroke="rgb(0, 0, 0)" stroke-opacity="0.13638815" stroke-linecap="round" stroke-linejoin="round"/>
    <path d="M 605.5740966796875 190.1656036376953 C 611.5256958007812 205.52296447753906 616.4677734375 206.2565155029297 604.8946533203125 169.5563201904297 C 589.4518432617188 121.32400512695312 517.8677368164062 84.03509521484375 526.3187866210938 120.09625244140625 C 572.8628540039062 212.4743194580078 542.8446044921875 214.81822204589844 573.4796142578125 152.5846710205078 C 557.9066772460938 101.33269500732422 572.4595947265625 151.70077514648438 574.7661743164062 188.77120971679688" stroke-width="2.470248222351074" fill="none" stroke="rgb(0, 0, 0)" stroke-opacity="0.49676454" stroke-linecap="round" stroke-linejoin="round"/>
    <path d="M 529.3009033203125 403.9516296386719 C 565.48046875 438.560302734375 594.5831909179688 449.7140808105469 604.5350341796875 427.3780212402344 C 617.5650634765625 469.6100158691406 622.1495971679688 457.2176513671875 636.524658203125 459.5443420410156 C 627.2469482421875 440.7374267578125 649.42333984375 421.5173645019531 632.2328491210938 430.7417297363281 C 649.9025268554688 437.4879150390625 614.855224609375 421.6883544921875 608.1556396484375 406.0967102050781" stroke-width="2.0" fill="none" stroke="rgb(0, 0, 0)" stroke-opacity="0.11796318" stroke-linecap="round" stroke-linejoin="round"/>
    <path d="M 560.038818359375 188.38113403320312 C 557.0783081054688 264.9558410644531 542.3519897460938 290.48138427734375 549.8753662109375 264.7177734375 C 559.582763671875 257.74713134765625 555.2703247070312 249.662353515625 584.7228393554688 339.65966796875 C 616.9024047851562 313.8399353027344 634.3475341796875 315.30029296875 665.9935913085938 317.31494140625 C 561.4080810546875 317.2820739746094 568.0267333984375 314.3643798828125 592.483154296875 358.6893615722656" stroke-width="5.901240825653076" fill="none" stroke="rgb(0, 0, 0)" stroke-opacity="0.27942795" stroke-linecap="round" stroke-linejoin="round"/>
    <path d="M 303.4727783203125 4.1148881912231445 C 263.59442138671875 -32.54388427734375 298.64874267578125 -56.89019775390625 264.50555419921875 13.112269401550293 C 219.97116088867188 64.24528503417969 207.8791961669922 55.30952453613281 223.533447265625 43.70747756958008 C 211.20913696289062 62.88948059082031 223.05393981933594 36.334739685058594 220.3988037109375 49.127471923828125 C 147.19912719726562 67.1153564453125 173.6809844970703 102.28387451171875 130.75926208496094 149.258056640625" stroke-width="12.0" fill="none" stroke="rgb(0, 0, 0)" stroke-opacity="0.8491227" stroke-linecap="round" stroke-linejoin="round"/>
    <path d="M 152.37269592285156 197.87591552734375 C 134.05908203125 225.1181182861328 148.03253173828125 215.19387817382812 139.55581665039062 203.01007080078125 C 157.7896728515625 294.1138000488281 125.93694305419922 298.34625244140625 176.85743713378906 317.57183837890625 C 191.6612548828125 309.7188720703125 216.77606201171875 332.775390625 261.5724182128906 352.8690185546875 C 260.6912536621094 430.526611328125 276.6924743652344 439.52496337890625 225.78689575195312 394.1487731933594" stroke-width="4.242785453796387" fill="none" stroke="rgb(0, 0, 0)" stroke-opacity="0.44623762" stroke-linecap="round" stroke-linejoin="round"/>
    <path d="M 455.7086181640625 403.2104797363281 C 387.6882019042969 379.3125 374.92974853515625 388.1406555175781 357.399658203125 432.2406005859375 C 443.75164794921875 413.86773681640625 406.14862060546875 421.3028869628906 394.1712951660156 407.7305603027344 C 379.5638732910156 452.3512268066406 401.981689453125 400.7480163574219 398.7389221191406 377.235595703125 C 352.2217102050781 466.0282287597656 372.264892578125 423.294189453125 388.70745849609375 406.1421203613281" stroke-width="3.298788547515869" fill="none" stroke="rgb(0, 0, 0)" stroke-opacity="0.07807732" stroke-linecap="round" stroke-linejoin="round"/>
    <path d="M 250.16522216796875 301.3101501464844 C 303.40399169921875 317.7627258300781 245.3714141845703 216.26625061035156 265.1111145019531 327.43060302734375 C 170.3940887451172 364.98736572265625 272.76611328125 368.60919189453125 258.6097717285156 322.0351257324219 C 176.86154174804688 348.7513732910156 115.429443359375 333.80120849609375 245.89785766601562 354.8705139160156 C 267.9045715332031 465.6733703613281 209.17990112304688 449.1128234863281 136.42581176757812 430.3193664550781" stroke-width="2.657994508743286" fill="none" stroke="rgb(0, 0, 0)" stroke-opacity="0.8694313" stroke-linecap="round" stroke-linejoin="round"/>
    <path d="M 457.0771789550781 319.1552734375 C 387.3392028808594 353.8250732421875 357.899169921875 377.5643310546875 375.9826965332031 331.4253234863281 C 373.4764099121094 315.6393737792969 370.9853820800781 362.4378356933594 434.24603271484375 326.9468688964844 C 417.5882873535156 328.6748046875 370.36505126953125 341.610595703125 349.1787414550781 335.81854248046875 C 375.8320007324219 343.0057373046875 404.5240173339844 334.9021301269531 418.6548156738281 331.3514709472656" stroke-width="4.274634838104248" fill="none" stroke="rgb(0, 0, 0)" stroke-opacity="0.6257327" stroke-linecap="round" stroke-linejoin="round"/>
    <path d="M 415.9978942871094 410.3277282714844 C 335.16143798828125 384.66912841796875 387.1430358886719 416.8357849121094 359.7517395019531 470.1439208984375 C 378.6383056640625 430.59234619140625 358.77557373046875 438.8593444824219 335.8695068359375 434.5049743652344 C 363.7520446777344 415.41693115234375 326.8902587890625 391.1673583984375 321.76007080078125 424.097900390625 C 285.8536071777344 401.91961669921875 232.43820190429688 364.9722900390625 254.88528442382812 485.767333984375" stroke-width="5.944918632507324" fill="none" stroke="rgb(0, 0, 0)" stroke-opacity="0.45428124" stroke-linecap="round" stroke-linejoin="round"/>
    <path d="M -9.458518028259277 143.12242126464844 C -1.255674958229065 184.0367431640625 -18.141557693481445 155.61483764648438 -18.1496639251709 59.92833709716797 C 6.197574138641357 49.22954177856445 23.0197811126709 109.58528900146484 74.82913208007812 79.49149322509766 C 92.60604858398438 108.7352066040039 40.725074768066406 112.35132598876953 30.137422561645508 170.79104614257812 C 76.7273178100586 174.93263244628906 87.5711898803711 104.10438537597656 146.87399291992188 19.486787796020508" stroke-width="5.069540500640869" fill="none" stroke="rgb(0, 0, 0)" stroke-opacity="0.48341328" stroke-linecap="round" stroke-linejoin="round"/>
    <path d="M 114.83419799804688 256.3910217285156 C 83.95394897460938 246.9370574951172 107.11067199707031 244.0935516357422 106.19507598876953 253.7619171142578 C 98.88130950927734 249.81201171875 129.78802490234375 288.2783203125 152.42665100097656 287.7262878417969 C 130.273681640625 272.5627136230469 122.03655242919922 265.4578857421875 118.28348541259766 251.12408447265625 C 86.95103454589844 239.33799743652344 92.21204376220703 239.39187622070312 121.36729431152344 214.87823486328125" stroke-width="3.037083387374878" fill="none" stroke="rgb(0, 0, 0)" stroke-opacity="0.3461656" stroke-linecap="round" stroke-linejoin="round"/>
    <path d="M 257.09368896484375 171.8732147216797 C 305.3988342285156 197.8965301513672 284.5295715332031 166.72227478027344 311.2907409667969 59.710933685302734 C 306.5194091796875 127.36675262451172 331.22943115234375 131.9925537109375 295.7621154785156 187.51889038085938 C 332.934814453125 153.32887268066406 379.6607360839844 180.1455535888672 289.9248352050781 198.9170684814453 C 283.18414306640625 189.43798828125 345.2187805175781 202.2341766357422 390.24163818359375 170.4330291748047" stroke-width="11.663023948669434" fill="none" stroke="rgb(0, 0, 0)" stroke-opacity="0.46117955" stroke-linecap="round" stroke-linejoin="round"/>
    <path d="M 541.3344116210938 314.2691345214844 C 519.6025390625 312.4300231933594 502.37884521484375 299.23736572265625 494.8433837890625 283.50762939453125 C 514.0802001953125 302.1840515136719 499.4782409667969 296.2440185546875 493.7237243652344 282.6399841308594 C 506.5508728027344 304.7586669921875 497.5450134277344 280.4602966308594 495.1201477050781 283.4029846191406 C 481.85595703125 303.0188293457031 471.482666015625 309.2367858886719 483.6258850097656 313.7958068847656" stroke-width="2.0" fill="none" stroke="rgb(0, 0, 0)" stroke-opacity="0.2446092" stroke-linecap="round" stroke-linejoin="round"/>
    <path d="M 294.33013916015625 137.2613525390625 C 300.40081787109375 -18.93844985961914 277.3299560546875 40.38516616821289 318.9335021972656 44.74395751953125 C 315.65509033203125 28.61371421813965 285.44598388671875 98.69497680664062 303.6802062988281 140.6436004638672 C 368.0535583496094 164.05149841308594 290.039794921875 195.53790283203125 290.7215576171875 122.42120361328125 C 291.027099609375 169.24005126953125 268.3600769042969 230.90408325195312 208.29969787597656 208.68702697753906" stroke-width="9.442564964294434" fill="none" stroke="rgb(0, 0, 0)" stroke-opacity="0.44302207" stroke-linecap="round" stroke-linejoin="round"/>
    <path d="M 139.96775817871094 201.72840881347656 C 119.87252807617188 149.70167541503906 140.1424560546875 110.87492370605469 138.6566162109375 146.9224090576172 C 125.59886169433594 182.78982543945312 121.83261108398438 163.0521697998047 145.4740447998047 137.69786071777344 C 229.23716735839844 -10.837239265441895 204.3062744140625 7.587735176086426 154.2272186279297 82.86213684082031 C 85.88533782958984 150.72579956054688 68.49002075195312 92.9328384399414 93.74276733398438 121.53385162353516" stroke-width="6.779366493225098" fill="none" stroke="rgb(0, 0, 0)" stroke-opacity="0.83187884" stroke-linecap="round" stroke-linejoin="round"/>
    <path d="M -17.568941116333008 104.87857818603516 C -1.2695415019989014 108.89459228515625 6.7978410720825195 103.85848236083984 -38.088134765625 111.81474304199219 C -31.187742233276367 134.95545959472656 -31.99782371520996 143.75669860839844 -24.88275146484375 172.8496551513672 C -11.26066780090332 153.81076049804688 -29.032751083374023 160.72781372070312 -54.05107879638672 148.867431640625 C -64.64935302734375 161.94155883789062 -35.09971618652344 150.7897491455078 -62.701507568359375 180.544189453125" stroke-width="2.0" fill="none" stroke="rgb(0, 0, 0)" stroke-opacity="0.296096" stroke-linecap="round" stroke-linejoin="round"/>
    <path d="M 369.9068908691406 658.045166015625 C 390.05755615234375 642.7636108398438 429.402587890625 653.078857421875 480.31170654296875 593.6060180664062 C 419.52734375 568.0798950195312 391.1708984375 536.9081420898438 324.91748046875 539.9259033203125 C 288.7356262207031 523.5586547851562 356.8739318847656 551.968017578125 349.1890869140625 541.1904907226562 C 388.7428894042969 539.394287109375 419.4884948730469 554.4676513671875 392.5169372558594 589.0641479492188" stroke-width="3.0052425861358643" fill="none" stroke="rgb(0, 0, 0)" stroke-opacity="0.6355642" stroke-linecap="round" stroke-linejoin="round"/>
    <path d="M 501.90631103515625 104.88190460205078 C 487.60955810546875 116.9231948852539 483.78924560546875 89.00938415527344 497.2362976074219 96.09825897216797 C 502.6231994628906 138.82884216308594 499.9356384277344 92.67476654052734 483.62652587890625 105.46358489990234 C 523.4529418945312 159.05267333984375 537.1791381835938 149.23594665527344 516.458984375 130.5684814453125 C 570.7108154296875 142.77589416503906 574.4612426757812 107.96044158935547 602.2086181640625 185.48678588867188" stroke-width="2.0" fill="none" stroke="rgb(0, 0, 0)" stroke-opacity="0.7366893" stroke-linecap="round" stroke-linejoin="round"/>
    <path d="M 397.71771240234375 632.4028930664062 C 394.771240234375 487.3197021484375 392.56378173828125 479.9079895019531 407.4499816894531 528.4927368164062 C 387.6148681640625 524.5452270507812 365.0753173828125 516.9383544921875 449.2337951660156 521.5276489257812 C 425.1164855957031 462.0862731933594 464.98028564453125 599.9949951171875 424.0310974121094 574.7958984375 C 383.3655700683594 546.45947265625 393.701171875 608.069091796875 406.0302429199219 631.8197631835938" stroke-width="6.699154853820801" fill="none" stroke="rgb(0, 0, 0)" stroke-opacity="0.8540895" stroke-linecap="round" stroke-linejoin="round"/>
    <path d="M 387.0916748046875 411.58465576171875 C 397.3794860839844 451.7653503417969 359.5926818847656 430.1970520019531 367.30987548828125 392.6854553222656 C 431.8465576171875 426.2213439941406 438.2871398925781 443.1455078125 408.48394775390625 419.0219421386719 C 434.0903015136719 419.5411071777344 393.3287048339844 447.5248718261719 441.71295166015625 432.8226623535156 C 551.5052490234375 401.84661865234375 493.1708679199219 419.1009521484375 400.7925720214844 404.3323059082031" stroke-width="4.4160075187683105" fill="none" stroke="rgb(0, 0, 0)" stroke-opacity="0.98850393" stroke-linecap="round" stroke-linejoin="round"/>
    <path d="M 132.6970977783203 217.3175048828125 C 137.48715209960938 225.38751220703125 151.95999145507812 200.767578125 191.09608459472656 138.6634063720703 C 223.1950225830078 132.9407958984375 167.1654815673828 167.29368591308594 151.24160766601562 189.6045379638672 C 164.787109375 172.75083923339844 155.68157958984375 178.8943634033203 161.83119201660156 172.9447479248047 C 149.10354614257812 192.6831817626953 145.68614196777344 215.65292358398438 172.82012939453125 175.61988830566406" stroke-width="2.0" fill="none" stroke="rgb(0, 0, 0)" stroke-opacity="0.9706738" stroke-linecap="round" stroke-linejoin="round"/>
    <path d="M 154.7229461669922 444.7303161621094 C 111.1258316040039 418.573486328125 100.52046203613281 354.56683349609375 108.84709930419922 364.6615295410156 C 52.12443542480469 340.7945251464844 116.7689208984375 362.5834655761719 110.50062561035156 383.5436096191406 C 113.3108139038086 388.895263671875 92.6514663696289 407.5311279296875 59.49491500854492 404.9135437011719 C 39.76079559326172 434.3584289550781 58.02933120727539 433.790771484375 51.77611541748047 453.1871643066406" stroke-width="2.0" fill="none" stroke="rgb(0, 0, 0)" stroke-opacity="0.1931172" stroke-linecap="round" stroke-linejoin="round"/>
    <path d="M -21.38811492919922 517.646484375 C 33.713809967041016 484.8825378417969 87.46710205078125 514.852783203125 70.81458282470703 489.9068298339844 C 71.79289245605469 482.8531494140625 81.92139434814453 500.87030029296875 42.31592559814453 487.0032043457031 C -17.946855545043945 499.3583068847656 -3.868411064147949 488.75994873046875 32.21372604370117 491.1451416015625 C 33.29404830932617 491.39739990234375 -15.949616432189941 486.3802795410156 -26.781192779541016 491.5604248046875" stroke-width="2.337480306625366" fill="none" stroke="rgb(0, 0, 0)" stroke-opacity="0.7026846" stroke-linecap="round" stroke-linejoin="round"/>
    <path d="M 342.03424072265625 204.63221740722656 C 296.46514892578125 193.5630645751953 282.17608642578125 206.70875549316406 279.441162109375 188.8274383544922 C 346.42340087890625 206.56719970703125 407.3125915527344 160.5885009765625 343.4174499511719 193.9903564453125 C 297.1971435546875 182.90902709960938 313.03521728515625 218.45375061035156 314.58087158203125 269.39080810546875 C 442.2175598144531 248.5164794921875 400.0623474121094 277.3453369140625 266.64459228515625 264.4567565917969" stroke-width="7.6062469482421875" fill="none" stroke="rgb(0, 0, 0)" stroke-opacity="0.91091454" stroke-linecap="round" stroke-linejoin="round"/>
    <path d="M 600.622802734375 -57.03914260864258 C 610.5323486328125 35.080421447753906 604.4155883789062 106.37527465820312 604.1375122070312 147.76573181152344 C 659.7421875 56.11374282836914 671.199462890625 60.371498107910156 671.6371459960938 60.69255065917969 C 684.6524658203125 56.43299102783203 672.4541015625 71.59281921386719 701.2953491210938 92.07677459716797 C 728.67529296875 105.39356231689453 698.8851928710938 118.51876068115234 695.1541137695312 92.94855499267578" stroke-width="6.353532791137695" fill="none" stroke="rgb(0, 0, 0)" stroke-opacity="0.84716123" stroke-linecap="round" stroke-linejoin="round"/>
    <path d="M 405.12213134765625 572.3829956054688 C 476.3271484375 577.02587890625 501.7351989746094 592.393798828125 574.8276977539062 602.2993774414062 C 646.7715454101562 590.591064453125 619.660888671875 585.5067749023438 568.0138549804688 573.4417724609375 C 440.8073425292969 538.9296875 390.59857177734375 511.3877258300781 383.5016174316406 527.5961303710938 C 402.8844909667969 679.1091918945312 385.00433349609375 662.102294921875 414.5571594238281 673.3628540039062" stroke-width="10.622889518737793" fill="none" stroke="rgb(0, 0, 0)" stroke-opacity="0.8758168" stroke-linecap="round" stroke-linejoin="round"/>
    <path d="M 467.3431091308594 51.73909378051758 C 415.0624084472656 18.360057830810547 380.58123779296875 0.840005099773407 403.6432800292969 12.027067184448242 C 395.77996826171875 -25.000749588012695 395.2376403808594 -76.50189208984375 487.2036437988281 -28.968595504760742 C 495.5765380859375 25.729957580566406 521.777099609375 53.88767623901367 525.9663696289062 -8.141820907592773 C 539.5120849609375 -54.35871887207031 568.247314453125 -57.85719680786133 525.2910766601562 -20.745386123657227" stroke-width="9.394299507141113" fill="none" stroke="rgb(0, 0, 0)" stroke-opacity="0.48791367" stroke-linecap="round" stroke-linejoin="round"/>
    <path d="M 296.3399353027344 412.5874328613281 C 347.6038818359375 446.91571044921875 298.1062927246094 421.63330078125 342.8203125 433.4380798339844 C 359.3882751464844 431.7423095703125 437.021728515625 437.10150146484375 357.64453125 419.10546875 C 371.7776184082031 523.8746948242188 382.15142822265625 495.6519775390625 315.741943359375 499.4654846191406 C 315.1196594238281 503.2886657714844 299.1788330078125 498.4624938964844 429.8735656738281 509.04693603515625" stroke-width="3.8149542808532715" fill="none" stroke="rgb(0, 0, 0)" stroke-opacity="1.0" stroke-linecap="round" stroke-linejoin="round"/>
    <path d="M 360.80718994140625 325.2500305175781 C 295.00738525390625 337.2853698730469 383.02276611328125 344.0743713378906 401.7210388183594 339.44976806640625 C 373.9552917480469 340.9049377441406 380.1202697753906 351.6534118652344 357.2040710449219 336.14495849609375 C 364.6733093261719 335.0685119628906 419.4327087402344 341.5248718261719 461.77069091796875 313.50421142578125 C 395.53814697265625 325.4634094238281 334.7911682128906 302.0091247558594 292.4831848144531 334.6625061035156" stroke-width="7.3799333572387695" fill="none" stroke="rgb(0, 0, 0)" stroke-opacity="0.7094032" stroke-linecap="round" stroke-linejoin="round"/>
    <path d="M 100.93568420410156 254.150634765625 C 99.24344635009766 254.62884521484375 102.27791595458984 257.91815185546875 107.486328125 234.89169311523438 C 117.30140686035156 258.8923034667969 100.49869537353516 247.8481903076172 113.85099029541016 267.6675109863281 C 105.74528503417969 292.47076416015625 114.51934814453125 293.6018981933594 144.01507568359375 299.2295837402344 C 174.51190185546875 348.20965576171875 216.2130126953125 369.8349914550781 175.116943359375 335.98699951171875" stroke-width="2.0160984992980957" fill="none" stroke="rgb(0, 0, 0)" stroke-opacity="0.67555565" stroke-linecap="round" stroke-linejoin="round"/>
    <path d="M 490.8880920410156 -85.46929931640625 C 496.6863708496094 -51.89706802368164 496.94842529296875 -14.500798225402832 517.6588134765625 -11.33467960357666 C 521.1615600585938 45.51255798339844 537.1670532226562 57.23404312133789 519.2891235351562 106.19346618652344 C 540.0528564453125 105.0932388305664 523.7242431640625 124.00259399414062 547.719970703125 166.37478637695312 C 549.828857421875 143.00843811035156 494.5892333984375 125.52595520019531 494.79901123046875 100.79127502441406" stroke-width="11.526692390441895" fill="none" stroke="rgb(0, 0, 0)" stroke-opacity="0.7789092" stroke-linecap="round" stroke-linejoin="round"/>
    <path d="M 275.1300354003906 201.74966430664062 C 296.55072021484375 286.4865417480469 216.50767517089844 243.12232971191406 205.91290283203125 215.9158172607422 C 196.74253845214844 222.04794311523438 146.83929443359375 228.86521911621094 147.10162353515625 215.7892303466797 C 240.19847106933594 197.4503631591797 222.2412872314453 207.1254119873047 165.94741821289062 288.06396484375 C 200.45077514648438 267.76373291015625 192.9714813232422 245.36703491210938 187.23126220703125 286.1238708496094" stroke-width="2.0" fill="none" stroke="rgb(0, 0, 0)" stroke-opacity="0.12986991" stroke-linecap="round" stroke-linejoin="round"/>
    <path d="M 290.6581726074219 252.30442810058594 C 400.12701416015625 253.9147491455078 384.7103576660156 250.629150390625 418.1377868652344 243.96066284179688 C 392.8612976074219 267.69195556640625 376.7652893066406 247.24468994140625 376.4400329589844 268.7165222167969 C 397.1338195800781 245.76889038085938 385.37664794921875 260.21826171875 398.7438659667969 247.06956481933594 C 413.84393310546875 259.63470458984375 334.7319641113281 302.5760803222656 359.3414611816406 270.91778564453125" stroke-width="4.314420700073242" fill="none" stroke="rgb(0, 0, 0)" stroke-opacity="0.60266536" stroke-linecap="round" stroke-linejoin="round"/>
    <path d="M 135.8477020263672 336.05096435546875 C 100.08272552490234 300.4716491699219 122.53943634033203 236.32997131347656 87.82219696044922 238.3649444580078 C 34.927860260009766 282.8114318847656 60.89581298828125 248.93338012695312 72.75205993652344 213.13894653320312 C 35.57144546508789 265.44134521484375 -16.513097763061523 274.50286865234375 36.77157211303711 267.60009765625 C 64.40046691894531 275.27191162109375 48.76496505737305 246.3915252685547 11.571430206298828 317.109375" stroke-width="2.2716357707977295" fill="none" stroke="rgb(0, 0, 0)" stroke-opacity="0.26388016" stroke-linecap="round" stroke-linejoin="round"/>
    <path d="M 363.2117614746094 407.5320129394531 C 433.9750671386719 447.7947998046875 476.0137634277344 405.5166931152344 390.72125244140625 422.8880615234375 C 393.6110534667969 458.69122314453125 453.2519836425781 433.5874938964844 476.2449645996094 428.8323974609375 C 496.56048583984375 468.715576171875 503.6567077636719 432.9855041503906 533.7589721679688 429.046875 C 539.2454833984375 439.45733642578125 529.0283813476562 422.8326110839844 536.7228393554688 429.80926513671875" stroke-width="2.0" fill="none" stroke="rgb(0, 0, 0)" stroke-opacity="0.88555354" stroke-linecap="round" stroke-linejoin="round"/>
    <path d="M 550.3818359375 280.5879821777344 C 553.9107666015625 294.7066955566406 567.8453979492188 301.4877624511719 552.4766235351562 272.5233154296875 C 563.6240844726562 248.42718505859375 566.7951049804688 232.61375427246094 565.9971313476562 264.7703552246094 C 567.414794921875 265.5390319824219 579.6177978515625 280.46734619140625 571.7096557617188 279.6882629394531 C 596.916259765625 334.7560119628906 603.0496826171875 378.1346740722656 625.7325439453125 362.9241638183594" stroke-width="12.0" fill="none" stroke="rgb(0, 0, 0)" stroke-opacity="0.593578" stroke-linecap="round" stroke-linejoin="round"/>
    <path d="M 273.65875244140625 431.14324951171875 C 283.6127624511719 570.4722290039062 251.0722198486328 651.0328979492188 359.60894775390625 622.4581909179688 C 359.1663818359375 513.68798828125 346.4355773925781 456.0906982421875 351.3303527832031 515.1131591796875 C 350.3417053222656 505.6878662109375 256.8802490234375 490.9443359375 273.055908203125 509.1299133300781 C 269.0252380371094 492.9602966308594 293.7691345214844 480.5188903808594 125.95911407470703 489.78936767578125" stroke-width="5.391922473907471" fill="none" stroke="rgb(0, 0, 0)" stroke-opacity="0.35605296" stroke-linecap="round" stroke-linejoin="round"/>
    <path d="M 140.38101196289062 545.9197387695312 C 137.4883270263672 532.6180419921875 145.86105346679688 552.80224609375 130.16297912597656 501.8126525878906 C 248.84194946289062 498.37432861328125 223.703369140625 478.6263732910156 221.79934692382812 600.6184692382812 C 185.0356903076172 669.5759887695312 177.08529663085938 623.598876953125 163.8852081298828 627.9481201171875 C 145.62098693847656 603.4976196289062 127.19807434082031 612.8282470703125 106.05152130126953 627.5038452148438" stroke-width="4.901676654815674" fill="none" stroke="rgb(0, 0, 0)" stroke-opacity="0.05994274" stroke-linecap="round" stroke-linejoin="round"/>
    <path d="M 373.8717346191406 126.68426513671875 C 375.58758544921875 155.44900512695312 330.1448669433594 187.92921447753906 316.2261047363281 170.9183807373047 C 322.48193359375 136.09730529785156 351.40478515625 207.6378631591797 305.3583068847656 196.58645629882812 C 324.6529846191406 162.24734497070312 287.22003173828125 120.17188262939453 303.3342590332031 16.47579574584961 C 320.38250732421875 186.32241821289062 287.9370422363281 225.15904235839844 257.3851623535156 160.89080810546875" stroke-width="9.285412788391113" fill="none" stroke="rgb(0, 0, 0)" stroke-opacity="0.78928506" stroke-linecap="round" stroke-linejoin="round"/>
    <path d="M 93.72972106933594 187.25926208496094 C 69.42710876464844 230.45335388183594 50.586090087890625 231.0821990966797 77.47702026367188 232.16041564941406 C 34.871925354003906 262.9854736328125 46.56713104248047 268.69891357421875 51.76226806640625 249.7511749267578 C 21.771793365478516 271.29290771484375 1.5869694948196411 304.2773132324219 0.594378650188446 337.68701171875 C -8.890621185302734 358.4789733886719 -8.134970664978027 371.06146240234375 -4.976221561431885 342.1708068847656" stroke-width="12.0" fill="none" stroke="rgb(0, 0, 0)" stroke-opacity="0.73637664" stroke-linecap="round" stroke-linejoin="round"/>
    <path d="M 83.65093994140625 478.9312438964844 C 90.04166412353516 477.1894836425781 78.34049224853516 478.6910400390625 79.62799835205078 481.8126220703125 C 77.89595794677734 505.1253356933594 112.46033477783203 513.5917358398438 70.61968231201172 487.82684326171875 C 103.48641967773438 495.8774108886719 124.62477111816406 477.53326416015625 138.6710662841797 489.0372314453125 C 127.65098571777344 469.2810363769531 137.12440490722656 452.8173828125 129.22781372070312 527.5211181640625" stroke-width="4.759315013885498" fill="none" stroke="rgb(0, 0, 0)" stroke-opacity="0.82997537" stroke-linecap="round" stroke-linejoin="round"/>
    <path d="M 397.9623107910156 262.0151062011719 C 323.6728515625 255.74505615234375 358.25286865234375 213.92921447753906 355.5066833496094 306.7143859863281 C 330.7945556640625 331.6488952636719 339.087646484375 340.62872314453125 386.06024169921875 336.6770324707031 C 243.87911987304688 344.1305236816406 228.86155700683594 321.38909912109375 245.61749267578125 349.66412353515625 C 345.00360107421875 332.8106994628906 307.7564697265625 346.2685241699219 310.61541748046875 252.8889923095703" stroke-width="6.368288040161133" fill="none" stroke="rgb(0, 0, 0)" stroke-opacity="0.48422793" stroke-linecap="round" stroke-linejoin="round"/>
    <path d="M 384.6107482910156 336.6730041503906 C 243.93603515625 336.2834167480469 269.2990417480469 352.2357177734375 369.51910400390625 337.5777587890625 C 365.66461181640625 412.031005859375 386.8878479003906 416.472900390625 320.8996276855469 421.0390930175781 C 327.32415771484375 339.67291259765625 298.46893310546875 275.8802795410156 227.26394653320312 344.36279296875 C 276.5301513671875 340.99554443359375 224.72291564941406 295.4925537109375 332.9587097167969 325.17327880859375" stroke-width="6.84406042098999" fill="none" stroke="rgb(0, 0, 0)" stroke-opacity="0.9033335" stroke-linecap="round" stroke-linejoin="round"/>
    <path d="M 338.0214538574219 434.7585144042969 C 262.14996337890625 424.30670166015625 238.99888610839844 430.4654235839844 226.531494140625 388.95050048828125 C 216.3060760498047 294.9926452636719 258.250732421875 321.7109375 254.29151916503906 333.47161865234375 C 236.75189208984375 289.31964111328125 223.93832397460938 307.6485290527344 253.8565673828125 331.2462463378906 C 354.1191101074219 351.09124755859375 347.0162353515625 320.6220397949219 284.3257141113281 326.3807678222656" stroke-width="8.065397262573242" fill="none" stroke="rgb(0, 0, 0)" stroke-opacity="0.8500391" stroke-linecap="round" stroke-linejoin="round"/>
    <path d="M 292.0585021972656 490.586181640625 C 291.3794250488281 386.88507080078125 269.90301513671875 449.9013977050781 299.9922790527344 435.28594970703125 C 387.53326416015625 433.9343566894531 432.1336364746094 440.1747741699219 425.54571533203125 407.9188537597656 C 335.84521484375 393.72308349609375 327.0647277832031 399.68023681640625 337.3641662597656 492.59637451171875 C 356.69744873046875 494.7032165527344 262.12884521484375 495.2171936035156 267.822509765625 485.2317810058594" stroke-width="5.77465295791626" fill="none" stroke="rgb(0, 0, 0)" stroke-opacity="0.8748429" stroke-linecap="round" stroke-linejoin="round"/>
    <path d="M 281.6936950683594 241.96096801757812 C 234.1007080078125 292.5349426269531 236.84405517578125 301.7480163574219 201.869384765625 281.5307922363281 C 258.7358703613281 262.7374572753906 264.5667419433594 302.2088317871094 227.9393310546875 292.98809814453125 C 251.0594024658203 285.41729736328125 298.8221130371094 270.2796630859375 287.2830810546875 241.86671447753906 C 279.4945983886719 270.1814880371094 313.79327392578125 228.88523864746094 283.45086669921875 269.7832336425781" stroke-width="8.59868049621582" fill="none" stroke="rgb(0, 0, 0)" stroke-opacity="0.32454595" stroke-linecap="round" stroke-linejoin="round"/>
    <path d="M 476.9989318847656 -6.042983531951904 C 511.6727294921875 24.425722122192383 543.555419921875 45.755550384521484 520.1389770507812 32.030845642089844 C 522.8848266601562 87.36006927490234 520.5771484375 81.63029479980469 520.9562377929688 31.518348693847656 C 526.135498046875 -36.04933166503906 541.4151000976562 -75.67780303955078 582.04345703125 55.52326583862305 C 594.5735473632812 39.48857498168945 546.0332641601562 70.20242309570312 589.8269653320312 -0.806715726852417" stroke-width="2.0" fill="none" stroke="rgb(0, 0, 0)" stroke-opacity="0.9623171" stroke-linecap="round" stroke-linejoin="round"/>
    <path d="M 288.6153564453125 34.365299224853516 C 277.0408935546875 59.89399719238281 308.0128173828125 42.036956787109375 302.44415283203125 0.2706070840358734 C 309.36859130859375 104.14151000976562 299.2183837890625 101.12415313720703 230.09202575683594 51.04664993286133 C 312.50433349609375 1.9885919094085693 274.4299011230469 -3.9921209812164307 266.7243957519531 -41.048343658447266 C 171.19859313964844 -25.2792911529541 180.57957458496094 -52.53298568725586 160.52633666992188 -58.16823196411133" stroke-width="3.307325601577759" fill="none" stroke="rgb(0, 0, 0)" stroke-opacity="0.68329805" stroke-linecap="round" stroke-linejoin="round"/>
    <path d="M 567.0587768554688 263.9383544921875 C 583.2945556640625 312.5272216796875 579.6951293945312 304.03045654296875 620.01318359375 355.5248718261719 C 610.467529296875 396.688232421875 604.7442016601562 444.07489013671875 606.2830200195312 404.0421447753906 C 587.541259765625 367.96331787109375 592.374755859375 353.2125549316406 563.6198120117188 301.5733642578125 C 567.42138671875 279.08966064453125 607.84619140625 294.00787353515625 598.9835815429688 355.8022155761719" stroke-width="5.574772834777832" fill="none" stroke="rgb(0, 0, 0)" stroke-opacity="0.35569614" stroke-linecap="round" stroke-linejoin="round"/>
    <path d="M 562.3137817382812 535.9896850585938 C 622.8724365234375 543.2725830078125 615.4388427734375 525.901611328125 541.3607177734375 515.8463745117188 C 548.0831909179688 572.10302734375 542.54736328125 610.9692993164062 536.2258911132812 546.2720336914062 C 551.3430786132812 564.2247314453125 540.231689453125 545.8229370117188 485.7144775390625 537.0248413085938 C 491.852783203125 481.4713439941406 456.1516418457031 530.6239624023438 532.3106079101562 523.9888916015625" stroke-width="6.686846733093262" fill="none" stroke="rgb(0, 0, 0)" stroke-opacity="0.54737395" stroke-linecap="round" stroke-linejoin="round"/>
    <path d="M 507.58917236328125 407.8452453613281 C 441.08013916015625 453.61749267578125 387.8728942871094 414.1809997558594 432.775390625 434.2565612792969 C 433.8970947265625 422.76702880859375 377.45635986328125 457.8438720703125 387.4410400390625 405.50909423828125 C 355.8519287109375 407.8170471191406 300.81640625 448.6503601074219 219.7651824951172 411.96661376953125 C 349.32421875 401.1195068359375 369.1855773925781 403.69024658203125 367.1319274902344 499.4507141113281" stroke-width="7.74547815322876" fill="none" stroke="rgb(0, 0, 0)" stroke-opacity="0.79889446" stroke-linecap="round" stroke-linejoin="round"/>
    <path d="M 133.05636596679688 426.10113525390625 C 150.9545440673828 425.06646728515625 188.9779815673828 428.5421142578125 162.65731811523438 424.5397033691406 C 127.01304626464844 460.09051513671875 213.58274841308594 448.9502868652344 243.13900756835938 433.68157958984375 C 241.30516052246094 411.4215087890625 202.52517700195312 424.70074462890625 228.83644104003906 498.9785461425781 C 253.03610229492188 421.3924865722656 184.3427276611328 403.5757141113281 212.8275604248047 490.4434814453125" stroke-width="4.784290313720703" fill="none" stroke="rgb(0, 0, 0)" stroke-opacity="0.3015308" stroke-linecap="round" stroke-linejoin="round"/>
    <path d="M 583.6075439453125 -25.557666778564453 C 590.5776977539062 27.229450225830078 564.4087524414062 46.72468185424805 563.6434326171875 -10.315850257873535 C 579.2977294921875 -14.316988945007324 597.1097412109375 -7.190720081329346 609.976318359375 -30.4239501953125 C 595.9856567382812 -23.169673919677734 625.5741577148438 -19.24122428894043 645.6705322265625 -48.463932037353516 C 641.229248046875 -24.8105525970459 641.1527099609375 -19.5434513092041 660.5025024414062 -32.690006256103516" stroke-width="3.0148189067840576" fill="none" stroke="rgb(0, 0, 0)" stroke-opacity="0.51060355" stroke-linecap="round" stroke-linejoin="round"/>
    <path d="M 97.68379211425781 157.69090270996094 C 141.74363708496094 122.25389099121094 164.8542022705078 106.2371597290039 115.418701171875 142.9684600830078 C 118.66111755371094 176.27719116210938 161.8209991455078 131.4890899658203 125.59312438964844 165.69749450683594 C 88.8268814086914 193.490234375 74.9090805053711 213.96981811523438 107.82762908935547 184.49937438964844 C 194.40391540527344 204.9477996826172 202.54818725585938 202.7731170654297 146.9640350341797 216.55836486816406" stroke-width="5.668370246887207" fill="none" stroke="rgb(0, 0, 0)" stroke-opacity="0.7512676" stroke-linecap="round" stroke-linejoin="round"/>
    <path d="M 600.7958374023438 522.6280517578125 C 596.4893188476562 590.3873291015625 606.8336181640625 559.2106323242188 601.4578857421875 546.3035278320312 C 662.5266723632812 496.2674255371094 642.9750366210938 481.8199462890625 616.9520874023438 442.950439453125 C 623.584716796875 435.4019775390625 641.4927978515625 453.64044189453125 659.7007446289062 430.2935485839844 C 646.0730590820312 446.90032958984375 668.2159423828125 418.68170166015625 647.0505981445312 439.38336181640625" stroke-width="7.288933277130127" fill="none" stroke="rgb(0, 0, 0)" stroke-opacity="0.64036715" stroke-linecap="round" stroke-linejoin="round"/>
    <path d="M 220.1123504638672 393.2679748535156 C 253.6505584716797 441.6538391113281 322.1572265625 443.953857421875 234.68003845214844 417.0462951660156 C 264.6128845214844 470.1695251464844 280.6175537109375 377.4935607910156 236.49241638183594 420.1269836425781 C 309.29266357421875 437.0155029296875 297.1186218261719 427.78839111328125 371.637451171875 420.2549133300781 C 388.0546875 324.12945556640625 336.4032287597656 335.23468017578125 369.1678466796875 311.3455505371094" stroke-width="4.397446632385254" fill="none" stroke="rgb(0, 0, 0)" stroke-opacity="0.6846933" stroke-linecap="round" stroke-linejoin="round"/>
    <path d="M 57.785308837890625 489.1366882324219 C -13.664401054382324 518.6701049804688 8.876009941101074 550.7733764648438 60.132877349853516 526.7080078125 C 58.92298889160156 531.1992797851562 40.052276611328125 521.5573120117188 86.14197540283203 528.5734252929688 C 139.4583282470703 526.0557861328125 123.6581039428711 517.5748291015625 129.83807373046875 592.1036987304688 C 113.9648208618164 604.2996215820312 134.1312713623047 590.0046997070312 114.2096176147461 625.3090209960938" stroke-width="2.099036455154419" fill="none" stroke="rgb(0, 0, 0)" stroke-opacity="0.31190887" stroke-linecap="round" stroke-linejoin="round"/>
    <path d="M 474.13153076171875 81.47200012207031 C 450.4188232421875 21.272485733032227 519.8905639648438 -34.606849670410156 538.1441040039062 31.788246154785156 C 526.8294677734375 125.62122344970703 538.9644165039062 126.0894546508789 526.2672729492188 104.44078826904297 C 523.2447509765625 116.60528564453125 582.5806274414062 74.38545989990234 600.4947509765625 77.2207260131836 C 550.1531982421875 140.44114685058594 569.1022338867188 129.9539031982422 541.754638671875 0.9962950944900513" stroke-width="3.7231009006500244" fill="none" stroke="rgb(0, 0, 0)" stroke-opacity="0.19868301" stroke-linecap="round" stroke-linejoin="round"/>
    <path d="M 523.0422973632812 545.8159790039062 C 567.5491333007812 552.7901000976562 610.6968383789062 582.0670776367188 577.7955932617188 555.3048706054688 C 584.7515869140625 557.179931640625 542.2562255859375 562.4196166992188 587.5324096679688 561.2049560546875 C 633.1328735351562 565.4002075195312 637.7974853515625 579.5723876953125 632.8570556640625 614.6735229492188 C 547.6484375 640.517822265625 563.199462890625 620.994140625 558.71337890625 644.1262817382812" stroke-width="5.035070896148682" fill="none" stroke="rgb(0, 0, 0)" stroke-opacity="0.7982368" stroke-linecap="round" stroke-linejoin="round"/>
    <path d="M 520.33935546875 323.3706359863281 C 524.0877685546875 322.6255187988281 511.4049987792969 325.1030578613281 523.9150390625 322.3163757324219 C 538.1696166992188 301.9207458496094 561.336181640625 328.85906982421875 554.1107177734375 294.81292724609375 C 553.6392822265625 306.1059875488281 581.9365844726562 346.9068298339844 631.1527099609375 337.90521240234375 C 615.8832397460938 389.6582336425781 598.3020629882812 417.6602478027344 611.6184692382812 400.1849670410156" stroke-width="5.406843662261963" fill="none" stroke="rgb(0, 0, 0)" stroke-opacity="0.44469872" stroke-linecap="round" stroke-linejoin="round"/>
    <path d="M 432.3553161621094 80.788330078125 C 379.9203186035156 99.38847351074219 368.6152648925781 93.26175689697266 352.4604797363281 123.0696792602539 C 290.7514343261719 180.85118103027344 308.94122314453125 188.83592224121094 399.9295349121094 168.09298706054688 C 383.3451232910156 184.19471740722656 296.9784240722656 183.94265747070312 354.33447265625 203.15206909179688 C 405.05523681640625 163.81893920898438 376.5187072753906 184.64334106445312 362.1858825683594 180.5297393798828" stroke-width="3.6374621391296387" fill="none" stroke="rgb(0, 0, 0)" stroke-opacity="0.7209017" stroke-linecap="round" stroke-linejoin="round"/>
    <path d="M 364.8161315917969 406.6894836425781 C 238.39370727539062 408.2655944824219 258.9171447753906 391.12158203125 278.0693359375 391.4114990234375 C 273.79425048828125 425.12237548828125 158.04385375976562 409.683837890625 170.49658203125 438.0717468261719 C 258.653564453125 430.9706115722656 238.5946044921875 398.378173828125 236.71231079101562 353.20928955078125 C 207.2629852294922 362.0221862792969 177.20640563964844 350.18896484375 231.1110076904297 343.8886413574219" stroke-width="4.744210720062256" fill="none" stroke="rgb(0, 0, 0)" stroke-opacity="0.8581354" stroke-linecap="round" stroke-linejoin="round"/>
    <path d="M 449.28228759765625 36.66354751586914 C 524.717041015625 134.42526245117188 538.5491943359375 156.59548950195312 529.10546875 107.4605484008789 C 505.83428955078125 70.36148071289062 529.4796142578125 35.490413665771484 537.1744384765625 56.282222747802734 C 495.6786193847656 -3.382192850112915 486.166748046875 -26.75485610961914 481.5184326171875 68.3778076171875 C 498.45623779296875 92.4660415649414 528.4886474609375 110.3481216430664 435.841064453125 75.72880554199219" stroke-width="4.334022045135498" fill="none" stroke="rgb(0, 0, 0)" stroke-opacity="0.8943795" stroke-linecap="round" stroke-linejoin="round"/>
    <path d="M 28.767070770263672 529.7464599609375 C 33.2554931640625 539.3848876953125 37.01188659667969 533.3021240234375 40.35007095336914 472.3404541015625 C 39.104400634765625 502.5753479003906 85.43130493164062 485.9129333496094 91.4452896118164 488.9910888671875 C 79.13793182373047 509.1182861328125 68.23300170898438 503.5557556152344 74.22823333740234 491.0025939941406 C -6.257138252258301 489.04449462890625 -40.938087463378906 496.7756652832031 -56.35954284667969 468.50299072265625" stroke-width="5.0114946365356445" fill="none" stroke="rgb(0, 0, 0)" stroke-opacity="0.6274544" stroke-linecap="round" stroke-linejoin="round"/>
    <path d="M 622.2119140625 355.7768859863281 C 599.6602783203125 366.098388671875 608.0820922851562 345.26763916015625 568.7911987304688 293.9473571777344 C 561.1749877929688 279.7936706542969 563.7083740234375 245.45986938476562 568.3659057617188 188.3625946044922 C 581.0946044921875 196.92022705078125 571.439697265625 265.3901672363281 572.0070190429688 220.1405792236328 C 565.2920532226562 205.53680419921875 561.572998046875 142.35252380371094 538.2352905273438 149.6093292236328" stroke-width="12.0" fill="none" stroke="rgb(0, 0, 0)" stroke-opacity="0.7685524" stroke-linecap="round" stroke-linejoin="round"/>
    <path d="M 627.981201171875 408.7882080078125 C 623.04736328125 376.9206848144531 609.1575317382812 355.33544921875 580.046142578125 392.2540283203125 C 569.9988403320312 412.9088134765625 570.7059936523438 402.259521484375 571.8297119140625 408.37481689453125 C 557.6260986328125 409.45562744140625 565.9580688476562 422.1061706542969 575.2819213867188 397.7629699707031 C 565.3507690429688 410.6602783203125 571.0162963867188 416.2308349609375 527.5449829101562 428.2547607421875" stroke-width="7.2546820640563965" fill="none" stroke="rgb(0, 0, 0)" stroke-opacity="0.9632439" stroke-linecap="round" stroke-linejoin="round"/>
    <path d="M 196.8091278076172 283.4744567871094 C 268.2004699707031 299.9979248046875 305.3409729003906 223.43064880371094 257.714599609375 175.1034698486328 C 218.1766815185547 228.65768432617188 271.14166259765625 168.1719207763672 268.38653564453125 250.79141235351562 C 295.8297119140625 259.75177001953125 223.80503845214844 267.0275573730469 222.06224060058594 296.31610107421875 C 338.8582458496094 235.4019775390625 353.7097473144531 277.344482421875 341.3021240234375 208.4525909423828" stroke-width="4.698092460632324" fill="none" stroke="rgb(0, 0, 0)" stroke-opacity="0.79861027" stroke-linecap="round" stroke-linejoin="round"/>
    <path d="M 296.3399353027344 412.5874328613281 C 347.6038818359375 446.91571044921875 298.1062927246094 421.63330078125 342.8203125 433.4380798339844 C 359.3882751464844 431.7423095703125 437.021728515625 437.10150146484375 357.64453125 419.10546875 C 371.7776184082031 523.8746948242188 382.15142822265625 495.6519775390625 315.741943359375 499.4654846191406 C 315.1196594238281 503.2886657714844 299.1788330078125 498.4624938964844 429.8735656738281 509.04693603515625" stroke-width="3.8149542808532715" fill="none" stroke="rgb(0, 0, 0)" stroke-opacity="0.8555856" stroke-linecap="round" stroke-linejoin="round"/>
  </g>
</svg>
