<?xml version="1.0" ?>
<svg xmlns="http://www.w3.org/2000/svg" version="1.1" width="600" height="600">
  <defs/>
  <g>
    <path d="M 279.44464111328125 238.76193237304688 C 277.2656555175781 246.8379364013672 271.9046630859375 252.4769287109375 264.30206298828125 254.3822784423828 C 256.5 251.99038696289062 251.00961303710938 246.5 249.0 239.0 C 251.00961303710938 231.5 256.5 226.00961303710938 264.1076965332031 223.8582305908203 C 271.75811767578125 225.768310546875 277.4145812988281 231.18006896972656 279.44464111328125 238.76193237304688" stroke-width="0.0" fill="rgb(138, 143, 160)" opacity="1.0"/>
    <path d="M 237.0 176.0 C 234.99038696289062 183.5 229.5 188.99038696289062 222.0 191.0 C 214.5 188.99038696289062 209.00961303710938 183.5 207.0 176.0 C 209.00961303710938 168.5 214.5 163.00961303710938 222.0 161.0 C 229.5 163.00961303710938 234.99038696289062 168.5 237.0 176.0" stroke-width="0.0" fill="rgb(67, 55, 47)" opacity="1.0"/>
    <path d="M 153.80404663085938 497.5126953125 C 151.08555603027344 505.53363037109375 145.50637817382812 510.9925537109375 138.00015258789062 513.0000610351562 C 130.5 510.9903869628906 125.0096206665039 505.5 122.83663177490234 497.7909851074219 C 124.4943618774414 489.9009094238281 129.82167053222656 484.25115966796875 137.38702392578125 482.2821044921875 C 145.592041015625 484.9716796875 151.46717834472656 490.2430419921875 153.80404663085938 497.5126953125" stroke-width="0.0" fill="rgb(31, 26, 26)" opacity="0.9902884"/>
    <path d="M 269.1930847167969 169.4093017578125 C 267.46343994140625 177.168212890625 262.312255859375 182.8417510986328 254.94512939453125 184.93167114257812 C 247.5 182.99038696289062 242.00961303710938 177.5 240.0 170.0 C 242.00961303710938 162.5 247.5 157.00961303710938 255.0 155.0 C 262.5 157.00961303710938 267.9893493652344 162.5002899169922 269.1930847167969 169.4093017578125" stroke-width="0.0" fill="rgb(238, 233, 232)" opacity="1.0"/>
    <path d="M 298.8739013671875 219.83041381835938 C 296.71002197265625 228.1306915283203 291.05780029296875 233.4972686767578 282.8434143066406 235.53294372558594 C 275.10577392578125 233.45895385742188 269.4404602050781 227.93515014648438 267.10540771484375 219.38206481933594 C 269.1927490234375 211.73699951171875 274.7441101074219 206.2084503173828 282.56463623046875 204.11204528808594 C 291.19891357421875 206.2581024169922 296.73638916015625 211.80409240722656 298.8739013671875 219.83041381835938" stroke-width="0.0" fill="rgb(117, 115, 127)" opacity="1.0"/>
    <path d="M 303.0452575683594 244.92726135253906 C 300.9903869628906 252.5 295.5 257.9903869628906 287.99932861328125 260.00030517578125 C 280.4902038574219 257.99493408203125 274.9626770019531 252.522216796875 272.8335266113281 244.91653442382812 C 274.7124938964844 237.18080139160156 280.1604309082031 231.6454620361328 288.48590087890625 229.30714416503906 C 296.0284118652344 231.34710693359375 301.26947021484375 237.1029510498047 303.0452575683594 244.92726135253906" stroke-width="0.0" fill="rgb(138, 142, 156)" opacity="1.0"/>
    <path d="M 301.07666015625 280.059814453125 C 299.1195068359375 287.5964660644531 293.5648193359375 293.01190185546875 286.0393371582031 294.84539794921875 C 278.5340270996094 292.9147033691406 273.0155029296875 287.486572265625 271.0003356933594 279.99920654296875 C 273.0096130371094 272.5 278.5 267.0096130371094 286.0 265.0 C 293.5 267.0096130371094 298.9903869628906 272.5 301.07666015625 280.059814453125" stroke-width="0.0" fill="rgb(170, 186, 200)" opacity="0.99184424"/>
    <path d="M 231.0 132.0 C 228.99038696289062 139.5 223.5 144.99038696289062 216.0 147.0 C 208.5 144.99038696289062 203.00961303710938 139.5 200.9827880859375 131.97613525390625 C 202.9195098876953 124.37840270996094 208.34228515625 118.80181121826172 215.89404296875 116.85734558105469 C 223.5 119.0096206665039 228.99038696289062 124.5 231.0 132.0" stroke-width="0.0" fill="rgb(81, 64, 61)" opacity="1.0"/>
    <path d="M 278.92437744140625 158.0775909423828 C 276.8523254394531 166.32608032226562 271.30914306640625 171.8077392578125 263.61505126953125 173.41856384277344 C 256.1058044433594 170.51092529296875 250.72528076171875 164.83255004882812 248.56869506835938 157.49208068847656 C 250.00961303710938 150.5 255.5 145.00961303710938 263.54681396484375 142.4108428955078 C 271.2745056152344 144.23912048339844 276.8399963378906 149.6962890625 278.92437744140625 158.0775909423828" stroke-width="0.0" fill="rgb(95, 80, 75)" opacity="0.9909884"/>
    <path d="M 226.00001525878906 472.9999694824219 C 223.99038696289062 480.5 218.5 485.9903869628906 210.7726287841797 488.1941833496094 C 202.9342803955078 486.5042724609375 197.34747314453125 481.1114807128906 195.49899291992188 473.44354248046875 C 198.00833129882812 465.496337890625 203.48443603515625 459.96661376953125 211.0879669189453 457.6346435546875 C 218.5138702392578 459.96661376953125 223.99099731445312 465.4980773925781 226.00001525878906 472.9999694824219" stroke-width="0.0" fill="rgb(69, 54, 51)" opacity="0.9930321"/>
    <path d="M 207.9534454345703 236.62689208984375 C 205.90113830566406 244.37391662597656 200.342041015625 249.81503295898438 192.61183166503906 251.64349365234375 C 184.5 248.99038696289062 179.00961303710938 243.5 176.55198669433594 235.54148864746094 C 178.2728271484375 227.73158264160156 183.68789672851562 222.14756774902344 192.32162475585938 220.062255859375 C 200.3643341064453 222.12374877929688 205.8801727294922 227.63404846191406 207.9534454345703 236.62689208984375" stroke-width="0.0" fill="rgb(51, 43, 39)" opacity="1.0"/>
    <path d="M 242.7713623046875 286.73236083984375 C 240.4185333251953 294.751708984375 234.62710571289062 300.06298828125 227.01490783691406 302.0101318359375 C 219.5 299.9903869628906 214.00961303710938 294.5 212.0 287.0 C 214.00961303710938 279.5 219.5 274.0096130371094 227.0950469970703 271.9230041503906 C 234.86752319335938 273.7176208496094 240.596435546875 279.0243225097656 242.7713623046875 286.73236083984375" stroke-width="0.0" fill="rgb(95, 89, 85)" opacity="0.99076325"/>
    <path d="M 308.20233154296875 248.2462615966797 C 306.3427734375 254.90802001953125 300.9382629394531 260.4350280761719 293.7002258300781 262.68255615234375 C 286.5 260.9903869628906 281.0096130371094 255.5 279.00396728515625 248.0027313232422 C 281.0162658691406 240.5065460205078 286.5078430175781 235.02069091796875 293.6619873046875 233.38348388671875 C 300.9231872558594 235.59437561035156 306.29937744140625 241.11541748046875 308.20233154296875 248.2462615966797" stroke-width="0.0" fill="rgb(145, 150, 165)" opacity="0.99007773"/>
    <path d="M 143.8653106689453 374.34832763671875 C 141.64854431152344 381.9637756347656 135.76817321777344 387.1419372558594 128.03402709960938 389.01177978515625 C 120.57988739013672 386.9503479003906 115.3333740234375 381.32562255859375 113.7879867553711 374.3599853515625 C 115.70584869384766 367.1404724121094 121.0979995727539 361.568359375 128.58119201660156 358.3018493652344 C 136.07147216796875 360.36370849609375 141.61778259277344 365.93609619140625 143.8653106689453 374.34832763671875" stroke-width="0.0" fill="rgb(184, 141, 135)" opacity="0.9901165"/>
    <path d="M 238.35821533203125 216.40635681152344 C 236.71156311035156 224.27662658691406 231.3322296142578 229.87489318847656 223.7440643310547 231.9016876220703 C 214.6470947265625 229.82858276367188 209.09390258789062 224.38160705566406 207.03880310058594 216.54930114746094 C 209.1134033203125 207.6560821533203 214.7117462158203 202.2698516845703 222.55784606933594 200.5839080810547 C 230.5 203.00961303710938 235.99038696289062 208.5 238.35821533203125 216.40635681152344" stroke-width="0.0" fill="rgb(49, 28, 21)" opacity="1.0"/>
    <path d="M 185.73098754882812 414.0658264160156 C 183.99038696289062 421.5 178.5 426.9903869628906 171.0 429.0 C 163.5 426.9903869628906 158.00961303710938 421.5 155.9998321533203 413.99951171875 C 158.00469970703125 406.4872741699219 163.46092224121094 400.9159240722656 171.82627868652344 398.0848388671875 C 179.27085876464844 400.142333984375 184.3637237548828 405.8788146972656 185.73098754882812 414.0658264160156" stroke-width="0.0" fill="rgb(13, 8, 3)" opacity="0.99018323"/>
    <path d="M 295.0027160644531 261.99835205078125 C 292.9903869628906 269.5 287.5 274.9903869628906 280.0 277.0 C 272.5 274.9903869628906 267.0096130371094 269.5 264.9244689941406 261.92034912109375 C 266.7898254394531 254.2578887939453 272.2292785644531 248.6966552734375 279.8356628417969 246.82177734375 C 287.49688720703125 249.01808166503906 292.99298095703125 254.49989318847656 295.0027160644531 261.99835205078125" stroke-width="0.0" fill="rgb(151, 159, 174)" opacity="0.9910106"/>
    <path d="M 207.87985229492188 204.82388305664062 C 205.8984375 212.38607788085938 200.37887573242188 217.88104248046875 192.8047332763672 219.87860107421875 C 184.5010223388672 216.98687744140625 179.0096435546875 211.4999237060547 176.96922302246094 203.94651794433594 C 178.77420043945312 196.13690185546875 183.97019958496094 190.3187255859375 191.3643035888672 188.1859130859375 C 199.495361328125 191.01959228515625 204.9897003173828 196.50192260742188 207.87985229492188 204.82388305664062" stroke-width="0.0" fill="rgb(44, 33, 31)" opacity="0.9903509"/>
    <path d="M 187.5941162109375 419.2656555175781 C 185.61764526367188 427.090576171875 180.0576171875 432.49554443359375 171.94915771484375 433.5007629394531 C 164.5 431.9903869628906 159.00961303710938 426.5 157.0000457763672 419.0001525878906 C 159.01123046875 411.5044250488281 164.51930236816406 406.0631408691406 172.2833709716797 404.2857971191406 C 180.03285217285156 405.47357177734375 185.51556396484375 410.97100830078125 187.5941162109375 419.2656555175781" stroke-width="0.0" fill="rgb(89, 73, 70)" opacity="0.99025416"/>
    <path d="M 216.0257110595703 435.04827880859375 C 214.22789001464844 442.8869934082031 209.0902099609375 448.748779296875 201.7091064453125 450.88232421875 C 193.41575622558594 448.1943359375 188.00137329101562 442.5224304199219 185.99974060058594 435.0007019042969 C 188.00961303710938 427.5 193.5 422.0096130371094 201.0 420.0 C 208.5 422.0096130371094 213.99038696289062 427.5 216.0257110595703 435.04827880859375" stroke-width="0.0" fill="rgb(56, 48, 45)" opacity="1.0"/>
    <path d="M 135.55120849609375 309.4627990722656 C 132.99038696289062 317.5 127.5 322.9903869628906 120.1317367553711 324.91351318359375 C 113.05806732177734 322.564453125 107.82418823242188 316.80133056640625 105.94715118408203 310.37225341796875 C 107.8916015625 303.35791015625 113.35591888427734 297.8865661621094 120.88394927978516 294.2081298828125 C 128.33030700683594 296.1340026855469 133.76983642578125 301.70477294921875 135.55120849609375 309.4627990722656" stroke-width="0.0" fill="rgb(50, 44, 42)" opacity="0.9900211"/>
    <path d="M 164.4597930908203 480.5468444824219 C 162.28895568847656 488.9423522949219 157.0979461669922 494.7276611328125 149.63790893554688 496.77325439453125 C 141.36395263671875 494.07257080078125 135.5654754638672 488.7639465332031 133.26675415039062 480.99029541015625 C 135.28414916992188 472.7430114746094 140.6973876953125 467.1540832519531 149.42788696289062 465.06231689453125 C 157.33514404296875 467.1292419433594 162.7483367919922 472.7068786621094 164.4597930908203 480.5468444824219" stroke-width="0.0" fill="rgb(69, 57, 53)" opacity="1.0"/>
    <path d="M 290.9902038574219 274.0166015625 C 288.9903869628906 281.5 283.5 286.9903869628906 276.0 289.0 C 268.5 286.9903869628906 263.0096130371094 281.5 260.99053955078125 273.9847412109375 C 262.9384765625 266.38372802734375 268.3074645996094 260.7017517089844 275.5395812988281 259.47528076171875 C 283.2610168457031 261.39404296875 288.9090576171875 266.6376037597656 290.9902038574219 274.0166015625" stroke-width="0.0" fill="rgb(245, 242, 242)" opacity="0.9901969"/>
    <path d="M 276.3789367675781 274.6855163574219 C 274.925537109375 282.4795227050781 269.4977722167969 287.9897155761719 261.9407043457031 290.0270690917969 C 254.15093994140625 288.234375 248.40756225585938 282.9693908691406 246.1980743408203 274.9966735839844 C 248.49057006835938 267.1664123535156 254.31776428222656 261.9104919433594 262.27252197265625 259.7120666503906 C 270.0606994628906 261.46331787109375 275.5824279785156 266.92474365234375 276.3789367675781 274.6855163574219" stroke-width="0.0" fill="rgb(130, 117, 113)" opacity="0.990229"/>
    <path d="M 308.0832824707031 172.30776977539062 C 306.2214050292969 178.8479461669922 301.0845947265625 185.3915252685547 293.3249206542969 187.90646362304688 C 285.6804504394531 185.84295654296875 280.1558532714844 180.3201141357422 278.0762634277344 171.9564666748047 C 280.1495056152344 163.67759704589844 285.7074279785156 158.2419891357422 293.249755859375 157.87608337402344 C 300.6981201171875 159.83935546875 306.15850830078125 165.30270385742188 308.0832824707031 172.30776977539062" stroke-width="0.0" fill="rgb(102, 86, 87)" opacity="0.99001926"/>
    <path d="M 185.31561279296875 236.66758728027344 C 182.99102783203125 244.50018310546875 177.5 249.99037170410156 170.0 252.0 C 162.5 249.99038696289062 157.00961303710938 244.5 154.1490936279297 236.22988891601562 C 156.14614868164062 228.68838500976562 161.7409210205078 223.3048095703125 170.3695526123047 221.31761169433594 C 178.1983184814453 223.2664337158203 183.61599731445312 228.8389434814453 185.31561279296875 236.66758728027344" stroke-width="0.0" fill="rgb(53, 47, 44)" opacity="1.0"/>
    <path d="M 266.7210388183594 406.52679443359375 C 264.2538757324219 414.6822509765625 258.6278991699219 420.0798034667969 251.02243041992188 422.015625 C 243.5 419.9903869628906 238.00961303710938 414.5 235.84185791015625 406.8578186035156 C 237.69293212890625 399.1897888183594 243.1874542236328 393.6855773925781 251.14334106445312 391.6343078613281 C 259.0101013183594 393.5132141113281 264.63958740234375 398.93670654296875 266.7210388183594 406.52679443359375" stroke-width="0.0" fill="rgb(181, 145, 140)" opacity="0.9904454"/>
    <path d="M 202.9377899169922 296.2568359375 C 200.8793182373047 304.3711242675781 195.37506103515625 309.88897705078125 187.247802734375 311.9422302246094 C 178.61427307128906 309.8952331542969 173.1282958984375 304.3773498535156 171.22947692871094 296.7345275878906 C 174.00961303710938 288.5 179.5 283.0096130371094 187.05406188964844 280.970947265625 C 194.91110229492188 282.7519226074219 200.7692108154297 287.8839111328125 202.9377899169922 296.2568359375" stroke-width="0.0" fill="rgb(10, 6, 7)" opacity="0.99016607"/>
    <path d="M 262.281982421875 180.8384552001953 C 260.4727783203125 189.03431701660156 255.12998962402344 194.7314453125 246.92343139648438 196.8721923828125 C 238.92762756347656 194.70025634765625 233.69371032714844 188.9326934814453 231.9422149658203 181.08859252929688 C 234.00961303710938 173.5 239.5001220703125 168.0100555419922 246.6758575439453 166.5448760986328 C 254.32534790039062 168.36395263671875 260.27239990234375 173.44276428222656 262.281982421875 180.8384552001953" stroke-width="0.0" fill="rgb(189, 171, 160)" opacity="1.0"/>
    <path d="M 132.20327758789062 492.6854553222656 C 129.94775390625 500.4807434082031 124.4626693725586 505.88665771484375 117.74207305908203 507.1094665527344 C 110.31303405761719 505.1445007324219 104.8408203125 499.6929016113281 102.92119598388672 493.20184326171875 C 104.83856964111328 486.2898254394531 110.26995086669922 480.7823486328125 117.56214904785156 478.5859069824219 C 124.75410461425781 479.8275451660156 130.42864990234375 485.1639404296875 132.20327758789062 492.6854553222656" stroke-width="0.0" fill="rgb(124, 79, 65)" opacity="0.9900132"/>
    <path d="M 240.48092651367188 469.0403137207031 C 239.2299041748047 476.686767578125 233.64291381835938 482.08453369140625 226.0144500732422 483.98858642578125 C 218.5 481.9903869628906 213.00961303710938 476.5 211.0 469.0 C 213.00961303710938 461.5 218.5 456.0096130371094 226.00233459472656 453.9991149902344 C 233.5556182861328 455.9872741699219 239.27444458007812 461.35809326171875 240.48092651367188 469.0403137207031" stroke-width="0.0" fill="rgb(241, 237, 238)" opacity="1.0"/>
    <path d="M 242.61988830566406 342.5328063964844 C 239.99038696289062 350.5 234.5 355.9903869628906 227.04086303710938 357.9504699707031 C 219.5808868408203 355.8935241699219 214.06715393066406 350.4309997558594 211.26585388183594 342.39874267578125 C 213.29283142089844 334.88385009765625 218.95703125 329.4793701171875 227.3223419189453 327.20068359375 C 235.1123504638672 329.3339538574219 240.61448669433594 334.90704345703125 242.61988830566406 342.5328063964844" stroke-width="0.0" fill="rgb(160, 158, 159)" opacity="1.0"/>
    <path d="M 238.92063903808594 123.57714080810547 C 236.7769012451172 132.18019104003906 231.06591796875 137.4505615234375 223.16421508789062 139.12066650390625 C 215.5 136.99038696289062 210.00961303710938 131.5 207.7261962890625 124.14165496826172 C 210.59298706054688 117.16566467285156 216.2255859375 111.79507446289062 223.6007843017578 109.89117431640625 C 231.25465393066406 110.37672424316406 236.8496551513672 115.68721771240234 238.92063903808594 123.57714080810547" stroke-width="0.0" fill="rgb(107, 92, 90)" opacity="0.9903339"/>
    <path d="M 235.2141876220703 487.7054748535156 C 232.96498107910156 495.67987060546875 227.77549743652344 501.3351745605469 219.43988037109375 503.80096435546875 C 211.9983367919922 501.6498718261719 206.772216796875 495.8494873046875 205.1627655029297 488.14202880859375 C 207.12033081054688 480.55224609375 212.52188110351562 475.01947021484375 220.17236328125 472.8296813964844 C 227.89361572265625 474.6228942871094 233.38946533203125 480.102294921875 235.2141876220703 487.7054748535156" stroke-width="0.0" fill="rgb(217, 200, 199)" opacity="1.0"/>
    <path d="M 239.94302368164062 194.42257690429688 C 237.78836059570312 202.13845825195312 231.90357971191406 207.10838317871094 224.20248413085938 208.3215789794922 C 216.71533203125 206.62503051757812 211.0538330078125 201.3917999267578 208.99400329589844 193.99819946289062 C 211.00961303710938 186.5 216.5 181.00961303710938 224.1501922607422 178.8926239013672 C 232.05422973632812 180.5683135986328 237.7832489013672 185.82020568847656 239.94302368164062 194.42257690429688" stroke-width="0.0" fill="rgb(5, 6, 4)" opacity="0.99024886"/>
    <path d="M 174.25218200683594 437.5682678222656 C 173.2972412109375 444.9499816894531 168.11814880371094 450.753173828125 159.44332885742188 452.9243469238281 C 151.64590454101562 450.8658752441406 146.12498474121094 445.3580017089844 144.07611083984375 437.6877746582031 C 146.31649780273438 428.98583984375 152.1758270263672 423.8154296875 159.9453887939453 421.98797607421875 C 167.30685424804688 424.1118469238281 172.42222595214844 429.86785888671875 174.25218200683594 437.5682678222656" stroke-width="0.0" fill="rgb(64, 51, 50)" opacity="0.99030685"/>
    <path d="M 142.79380798339844 385.5296630859375 C 140.61460876464844 392.9477844238281 134.82745361328125 398.3395080566406 126.57029724121094 400.7879943847656 C 119.20552062988281 398.5982360839844 114.6230239868164 392.1678466796875 112.86627197265625 384.9286804199219 C 114.59040069580078 377.94512939453125 119.8597640991211 372.3605041503906 127.13968658447266 370.3332214355469 C 134.48338317871094 372.08758544921875 140.21351623535156 377.4176025390625 142.79380798339844 385.5296630859375" stroke-width="0.0" fill="rgb(182, 130, 112)" opacity="0.9901034"/>
    <path d="M 139.93521118164062 455.8245544433594 C 137.82322692871094 464.2484436035156 132.1580047607422 469.5666198730469 124.25537872314453 471.2108459472656 C 116.5 468.9903869628906 111.0096206665039 463.5 108.98184204101562 455.9682922363281 C 110.8556900024414 448.244140625 116.08272552490234 442.41339111328125 124.59162139892578 440.11883544921875 C 132.30914306640625 442.1786193847656 137.85226440429688 447.67779541015625 139.93521118164062 455.8245544433594" stroke-width="0.0" fill="rgb(128, 72, 55)" opacity="1.0"/>
    <path d="M 284.5209655761719 287.92840576171875 C 282.9452209472656 295.5215148925781 277.54669189453125 301.0384826660156 270.0167236328125 303.0138244628906 C 262.5104675292969 300.9851989746094 257.1182556152344 295.4590759277344 255.86251831054688 288.6005554199219 C 257.7937316894531 281.25982666015625 263.2630310058594 275.8018798828125 270.6761779785156 273.79815673828125 C 277.7574768066406 274.64141845703125 283.05596923828125 280.3359069824219 284.5209655761719 287.92840576171875" stroke-width="0.0" fill="rgb(245, 243, 244)" opacity="0.9900498"/>
    <path d="M 245.0 412.0 C 242.99038696289062 419.5 237.5 424.9903869628906 230.0 427.0 C 222.5 424.9903869628906 217.00961303710938 419.5 215.0 412.0 C 217.00961303710938 404.5 222.5 399.0096130371094 230.0 397.0 C 237.5 399.0096130371094 242.99038696289062 404.5 245.0 412.0" stroke-width="0.0" fill="rgb(98, 63, 53)" opacity="1.0"/>
    <path d="M 174.28805541992188 424.7428283691406 C 172.56729125976562 432.2249450683594 167.3284454345703 437.8718566894531 159.9267120361328 439.98504638671875 C 152.1805419921875 438.18939208984375 146.3795623779297 432.97174072265625 144.32000732421875 425.5235900878906 C 147.00961303710938 417.5 152.5 412.0096130371094 160.03668212890625 409.9609680175781 C 167.57107543945312 411.9176940917969 172.85333251953125 417.49713134765625 174.28805541992188 424.7428283691406" stroke-width="0.0" fill="rgb(59, 48, 44)" opacity="0.99137104"/>
    <path d="M 221.21177673339844 413.0743103027344 C 219.01348876953125 420.5070495605469 213.50071716308594 425.9906005859375 206.0 428.0 C 198.5 425.9903869628906 193.00961303710938 420.5 191.0 413.0 C 193.00961303710938 405.5 198.5 400.0096130371094 206.0 398.0 C 213.5 400.0096130371094 218.99038696289062 405.5 221.21177673339844 413.0743103027344" stroke-width="0.0" fill="rgb(41, 35, 36)" opacity="0.9941805"/>
    <path d="M 170.60536193847656 406.5806884765625 C 168.0930938720703 414.5521545410156 162.52552795410156 420.004150390625 155.0025177001953 422.00140380859375 C 147.5 419.9903869628906 142.00961303710938 414.5 140.0 407.0 C 142.00961303710938 399.5 147.5 394.0096130371094 155.17312622070312 391.8631896972656 C 163.0164031982422 393.56341552734375 168.6384735107422 398.9205322265625 170.60536193847656 406.5806884765625" stroke-width="0.0" fill="rgb(54, 23, 20)" opacity="1.0"/>
    <path d="M 256.8367004394531 212.2929229736328 C 254.02378845214844 220.51014709472656 248.50094604492188 225.9906768798828 240.66134643554688 228.39761352539062 C 232.9832763671875 226.5491180419922 227.60821533203125 220.9728546142578 225.77581787109375 212.78143310546875 C 228.1550750732422 205.85464477539062 233.82579040527344 199.90008544921875 241.75119018554688 197.07127380371094 C 249.3422393798828 199.1318359375 254.8299102783203 204.67318725585938 256.8367004394531 212.2929229736328" stroke-width="0.0" fill="rgb(184, 119, 73)" opacity="1.0"/>
    <path d="M 212.58206176757812 464.4336853027344 C 209.9954376220703 472.51416015625 204.5612030029297 478.1489562988281 196.27842712402344 480.8680419921875 C 188.7786407470703 478.8064270019531 183.49131774902344 473.1170349121094 181.84197998046875 465.2037048339844 C 184.00961303710938 457.5 189.4998321533203 452.0090637207031 197.77285766601562 449.1403503417969 C 205.32984924316406 451.14532470703125 210.78672790527344 456.6936340332031 212.58206176757812 464.4336853027344" stroke-width="0.0" fill="rgb(73, 59, 55)" opacity="1.0"/>
    <path d="M 140.84239196777344 315.492431640625 C 138.79075622558594 323.20355224609375 133.092529296875 328.4598083496094 125.15689086914062 330.1037292480469 C 117.5 327.9903869628906 112.0096206665039 322.5 110.70597076416016 315.5719299316406 C 112.72295379638672 308.1549072265625 118.12229919433594 302.6280517578125 125.6563720703125 299.5887451171875 C 133.28717041015625 301.21624755859375 138.77854919433594 306.7145080566406 140.84239196777344 315.492431640625" stroke-width="0.0" fill="rgb(16, 10, 9)" opacity="0.99031967"/>
    <path d="M 198.0835418701172 208.23733520507812 C 196.55882263183594 216.175537109375 191.2760772705078 221.8490447998047 183.46014404296875 223.9474334716797 C 174.90621948242188 221.7617645263672 169.79847717285156 215.86639404296875 167.98121643066406 208.03794860839844 C 170.00961303710938 200.5 175.5 195.00961303710938 182.98704528808594 193.01454162597656 C 190.4628448486328 195.0458526611328 195.93482971191406 200.5428009033203 198.0835418701172 208.23733520507812" stroke-width="0.0" fill="rgb(48, 39, 37)" opacity="1.0"/>
    <path d="M 251.16500854492188 158.1566925048828 C 249.3490753173828 165.879150390625 243.9244384765625 171.48919677734375 236.34518432617188 173.48037719726562 C 228.5 170.99038696289062 223.00961303710938 165.5 221.0 158.0 C 223.00961303710938 150.5 228.5 145.00961303710938 236.35354614257812 142.40292358398438 C 243.63172912597656 144.7047576904297 248.99737548828125 150.469482421875 251.16500854492188 158.1566925048828" stroke-width="0.0" fill="rgb(252, 252, 251)" opacity="1.0"/>
    <path d="M 182.8907012939453 487.6438903808594 C 180.83348083496094 495.2962951660156 175.2425994873047 500.6361389160156 167.11685180664062 501.18780517578125 C 159.13720703125 500.1259765625 153.5441131591797 494.93719482421875 152.51031494140625 487.3622131347656 C 154.39813232421875 479.8446960449219 159.8487091064453 474.40875244140625 167.26016235351562 472.3294677734375 C 174.78228759765625 473.8427429199219 180.6108856201172 479.0531005859375 182.8907012939453 487.6438903808594" stroke-width="0.0" fill="rgb(159, 108, 90)" opacity="0.9901018"/>
    <path d="M 191.0 287.0 C 188.99038696289062 294.5 183.5 299.9903869628906 175.1722869873047 302.8978576660156 C 167.63861083984375 300.886474609375 162.18580627441406 295.3353271484375 160.18191528320312 287.34783935546875 C 162.5054168701172 279.2158203125 168.38929748535156 273.9628601074219 175.9947967529297 271.9979248046875 C 183.5 274.0096130371094 188.99038696289062 279.5 191.0 287.0" stroke-width="0.0" fill="rgb(48, 42, 39)" opacity="1.0"/>
    <path d="M 222.27325439453125 191.67471313476562 C 221.08297729492188 199.9383087158203 216.1027374267578 205.71707153320312 208.6839141845703 207.81333923339844 C 200.9161376953125 204.5489044189453 195.2848358154297 199.1269073486328 192.23179626464844 191.6584930419922 C 194.50045776367188 184.15606689453125 200.29171752929688 178.88980102539062 207.97714233398438 176.98800659179688 C 215.49949645996094 179.009765625 220.9667205810547 184.50697326660156 222.27325439453125 191.67471313476562" stroke-width="0.0" fill="rgb(147, 101, 73)" opacity="0.99014807"/>
    <path d="M 229.79583740234375 473.6824645996094 C 227.65431213378906 480.9317932128906 221.5048370361328 485.61663818359375 213.37879943847656 488.7752380371094 C 205.96217346191406 486.67437744140625 200.73843383789062 480.8915710449219 198.96774291992188 473.0596923828125 C 200.98553466796875 465.470458984375 206.45736694335938 459.94036865234375 213.82440185546875 457.8876647949219 C 221.0351104736328 460.3780212402344 226.36790466308594 466.043701171875 229.79583740234375 473.6824645996094" stroke-width="0.0" fill="rgb(70, 56, 51)" opacity="0.9900445"/>
    <path d="M 171.07275390625 383.8872985839844 C 168.98207092285156 391.48382568359375 163.46502685546875 396.91839599609375 155.80831909179688 398.83856201171875 C 147.92889404296875 397.4455871582031 142.23196411132812 392.1788024902344 140.10113525390625 383.4328308105469 C 142.13816833496094 375.6444091796875 147.63734436035156 370.1206970214844 155.34288024902344 368.070068359375 C 164.1400604248047 370.2431945800781 169.36575317382812 375.99969482421875 171.07275390625 383.8872985839844" stroke-width="0.0" fill="rgb(55, 46, 48)" opacity="1.0"/>
    <path d="M 195.6308135986328 447.7468566894531 C 193.60382080078125 455.1994934082031 188.25074768066406 460.7622375488281 180.9446563720703 462.8772888183594 C 173.68899536132812 460.8472595214844 168.1058807373047 455.3165588378906 165.47129821777344 448.2164306640625 C 167.6166534423828 440.0758056640625 173.02621459960938 434.45892333984375 180.5685577392578 432.3938903808594 C 188.5 435.0096130371094 193.99038696289062 440.5 195.6308135986328 447.7468566894531" stroke-width="0.0" fill="rgb(163, 108, 91)" opacity="0.990301"/>
    <path d="M 249.89503479003906 453.1302795410156 C 247.80703735351562 461.2807922363281 242.28004455566406 466.80499267578125 234.61822509765625 468.8719482421875 C 226.53060913085938 466.2555847167969 221.15554809570312 460.34979248046875 219.03692626953125 452.9524841308594 C 221.0125274658203 445.5079345703125 226.53089904785156 440.0910949707031 234.64060974121094 437.27813720703125 C 242.23199462890625 439.2489318847656 247.78846740722656 444.7528076171875 249.89503479003906 453.1302795410156" stroke-width="0.0" fill="rgb(165, 107, 90)" opacity="1.0"/>
    <path d="M 269.1371765136719 432.5348815917969 C 267.2230224609375 439.7905578613281 261.8429870605469 445.398193359375 254.2852783203125 448.8714294433594 C 246.76332092285156 446.7864990234375 241.22515869140625 441.2314147949219 239.16683959960938 433.6924133300781 C 241.9900360107422 425.49365234375 247.4989776611328 420.00927734375 254.9895477294922 418.00494384765625 C 262.36029052734375 420.078369140625 267.49383544921875 425.79656982421875 269.1371765136719 432.5348815917969" stroke-width="0.0" fill="rgb(161, 114, 99)" opacity="0.99019194"/>
    <path d="M 306.6455993652344 273.75946044921875 C 304.6211242675781 281.2140808105469 299.2578430175781 286.7569885253906 291.84417724609375 288.9130859375 C 284.2505187988281 287.2067565917969 278.68096923828125 281.78387451171875 277.24322509765625 274.1653747558594 C 278.9918518066406 266.4895935058594 284.4942626953125 261.0071716308594 291.99969482421875 258.9998779296875 C 299.5 261.0096130371094 304.9903869628906 266.5 306.6455993652344 273.75946044921875" stroke-width="0.0" fill="rgb(164, 176, 195)" opacity="0.99075663"/>
    <path d="M 271.6375732421875 150.39764404296875 C 268.9884033203125 158.49729919433594 263.4960632324219 163.9840545654297 256.5976257324219 165.3448486328125 C 249.2598876953125 163.20167541503906 243.62342834472656 157.7819061279297 240.1041259765625 150.30255126953125 C 242.17178344726562 142.6861572265625 247.6805877685547 137.15817260742188 256.2309265136719 135.07020568847656 C 264.333740234375 137.1415252685547 269.8003845214844 142.68702697753906 271.6375732421875 150.39764404296875" stroke-width="0.0" fill="rgb(94, 74, 70)" opacity="0.9904508"/>
    <path d="M 241.35440063476562 285.76806640625 C 239.09429931640625 293.5714111328125 233.55307006835938 299.0328674316406 226.00559997558594 301.0135192871094 C 218.36129760742188 299.0502624511719 212.4358367919922 293.8428039550781 210.07305908203125 285.2713623046875 C 212.12863159179688 277.6493225097656 217.65521240234375 272.14276123046875 225.46835327148438 270.09124755859375 C 234.17007446289062 272.25048828125 239.5402069091797 277.9040832519531 241.35440063476562 285.76806640625" stroke-width="0.0" fill="rgb(98, 96, 93)" opacity="1.0"/>
    <path d="M 210.38819885253906 345.59716796875 C 207.99038696289062 353.5 202.5 358.9903869628906 194.2364501953125 361.81939697265625 C 186.62506103515625 359.8759765625 181.10348510742188 354.38287353515625 179.07398986816406 346.8394775390625 C 181.78155517578125 338.32049560546875 187.1800079345703 332.4661865234375 195.68336486816406 330.07977294921875 C 203.2863311767578 332.1618957519531 208.68406677246094 337.7684326171875 210.38819885253906 345.59716796875" stroke-width="0.0" fill="rgb(75, 62, 58)" opacity="1.0"/>
    <path d="M 209.00209045410156 436.00457763671875 C 207.01756286621094 443.55206298828125 201.59567260742188 449.15863037109375 194.24874877929688 451.1689453125 C 186.8538055419922 448.60760498046875 181.44859313964844 443.1279296875 179.13214111328125 435.45623779296875 C 180.41415405273438 428.00006103515625 186.05406188964844 422.5628967285156 193.75607299804688 420.69134521484375 C 201.5 423.0096130371094 206.99038696289062 428.5 209.00209045410156 436.00457763671875" stroke-width="0.0" fill="rgb(70, 45, 41)" opacity="0.9900739"/>
    <path d="M 240.4519500732422 177.54595947265625 C 238.322021484375 184.2566680908203 231.97189331054688 189.3009490966797 224.5170135498047 191.1448211669922 C 217.60870361328125 189.7340850830078 212.02096557617188 184.47132873535156 210.00051879882812 176.99879455566406 C 212.00961303710938 169.5 217.5 164.00961303710938 224.56369018554688 162.47267150878906 C 231.82569885253906 164.69078063964844 237.29148864746094 170.18019104003906 240.4519500732422 177.54595947265625" stroke-width="0.0" fill="rgb(129, 121, 110)" opacity="0.99005437"/>
    <path d="M 193.07421875 202.84808349609375 C 190.97186279296875 210.48716735839844 185.4899444580078 215.9813690185547 177.9966583251953 217.99546813964844 C 170.5 215.99038696289062 165.00961303710938 210.5 162.18963623046875 202.25839233398438 C 164.14317321777344 194.65184020996094 169.64512634277344 189.12596130371094 177.2873077392578 187.068603515625 C 186.16845703125 189.23245239257812 191.42385864257812 194.95008850097656 193.07421875 202.84808349609375" stroke-width="0.0" fill="rgb(53, 46, 45)" opacity="1.0"/>
    <path d="M 180.62432861328125 215.56622314453125 C 178.74246215820312 223.20147705078125 173.15402221679688 228.59011840820312 165.03419494628906 230.479248046875 C 157.20936584472656 228.395751953125 151.8766326904297 222.70242309570312 149.9305877685547 214.9398193359375 C 151.67156982421875 207.01808166503906 156.8568115234375 201.2305145263672 164.2745819091797 199.15304565429688 C 172.46731567382812 202.05410766601562 177.95419311523438 207.53033447265625 180.62432861328125 215.56622314453125" stroke-width="0.0" fill="rgb(40, 35, 33)" opacity="1.0"/>
    <path d="M 227.0 434.0 C 224.99038696289062 441.5 219.5 446.9903869628906 211.99407958984375 449.00677490234375 C 204.48379516601562 447.00677490234375 198.98841857910156 441.517578125 196.9624481201172 434.00054931640625 C 198.99867248535156 426.49468994140625 204.49746704101562 421.00830078125 211.99977111816406 418.9998779296875 C 219.5 421.0096130371094 224.99038696289062 426.5 227.0 434.0" stroke-width="0.0" fill="rgb(65, 55, 51)" opacity="1.0"/>
    <path d="M 247.9786834716797 419.97113037109375 C 245.87770080566406 427.3370666503906 240.2425537109375 432.5939636230469 232.5641326904297 434.3021545410156 C 225.39064025878906 433.1859436035156 219.98052978515625 427.5572814941406 217.76112365722656 419.8974609375 C 219.92922973632812 412.5076904296875 225.54270935058594 407.05316162109375 233.01339721679688 405.0101318359375 C 240.5 407.0096130371094 245.99038696289062 412.5 247.9786834716797 419.97113037109375" stroke-width="0.0" fill="rgb(238, 237, 238)" opacity="1.0"/>
    <path d="M 169.07669067382812 416.9578857421875 C 166.9777069091797 424.48907470703125 161.4883575439453 429.97509765625 153.4897918701172 432.4875183105469 C 145.7065887451172 430.7608947753906 140.15098571777344 425.32269287109375 138.18994140625 417.7384033203125 C 141.00961303710938 409.5 146.5 404.0096130371094 153.97518920898438 402.0464172363281 C 161.480712890625 404.0479736328125 167.02032470703125 409.49932861328125 169.07669067382812 416.9578857421875" stroke-width="0.0" fill="rgb(49, 36, 32)" opacity="1.0"/>
    <path d="M 274.2591247558594 234.71023559570312 C 271.96893310546875 242.48318481445312 266.485595703125 247.9771270751953 258.99560546875 249.99537658691406 C 251.5 247.99038696289062 246.00961303710938 242.5 244.0 235.0 C 246.00961303710938 227.5 251.5 222.00961303710938 259.4544372558594 219.48846435546875 C 267.1327209472656 221.33493041992188 272.55645751953125 226.90126037597656 274.2591247558594 234.71023559570312" stroke-width="0.0" fill="rgb(126, 131, 157)" opacity="0.9981036"/>
    <path d="M 232.06704711914062 160.2647247314453 C 230.15663146972656 167.7467041015625 224.83897399902344 173.44566345214844 217.91139221191406 176.2812957763672 C 210.5 173.99038696289062 205.00961303710938 168.5 203.0 161.0 C 205.00961303710938 153.5 210.5 148.00961303710938 217.99893188476562 146.00039672851562 C 225.4646759033203 148.02252197265625 230.6375732421875 153.65499877929688 232.06704711914062 160.2647247314453" stroke-width="0.0" fill="rgb(51, 45, 41)" opacity="0.9900555"/>
    <path d="M 170.77035522460938 255.6958770751953 C 168.82847595214844 263.3114929199219 163.2997589111328 268.794677734375 155.58700561523438 270.65631103515625 C 147.00198364257812 268.34368896484375 141.2165069580078 263.1600036621094 139.05455017089844 254.27313232421875 C 141.09970092773438 246.62538146972656 146.6597137451172 241.20062255859375 154.45350646972656 239.4864959716797 C 162.5 242.00961303710938 167.99038696289062 247.5 170.77035522460938 255.6958770751953" stroke-width="0.0" fill="rgb(39, 33, 29)" opacity="0.9929533"/>
    <path d="M 210.88400268554688 273.8126525878906 C 208.88690185546875 281.38153076171875 203.38282775878906 286.88970947265625 195.7979278564453 288.8533630371094 C 187.5 285.9903869628906 182.00961303710938 280.5 180.0 273.0 C 182.00961303710938 265.5 187.5 260.0096130371094 195.00015258789062 257.99969482421875 C 202.50013732910156 260.0093688964844 207.99139404296875 265.4996643066406 210.88400268554688 273.8126525878906" stroke-width="0.0" fill="rgb(76, 64, 61)" opacity="1.0"/>
    <path d="M 237.07252502441406 399.7547302246094 C 235.782958984375 406.42633056640625 230.4910888671875 411.98760986328125 222.8385772705078 414.3504333496094 C 215.45254516601562 412.113525390625 210.00547790527344 406.5117492675781 207.99652099609375 398.9917907714844 C 209.93399047851562 391.3268737792969 215.08811950683594 385.3628845214844 222.2147674560547 383.1606750488281 C 229.69993591308594 386.8183288574219 235.13539123535156 392.31719970703125 237.07252502441406 399.7547302246094" stroke-width="0.0" fill="rgb(54, 9, 7)" opacity="0.9900307"/>
    <path d="M 229.8283233642578 259.7645263671875 C 227.8692626953125 267.3573303222656 222.35447692871094 272.8630676269531 214.6072998046875 274.9237060546875 C 206.07440185546875 272.6452941894531 200.97628784179688 266.6763610839844 198.43492126464844 258.4667053222656 C 200.2601318359375 250.7432861328125 205.7047882080078 245.15957641601562 213.22637939453125 243.1310577392578 C 221.5 246.00961303710938 226.99038696289062 251.5 229.8283233642578 259.7645263671875" stroke-width="0.0" fill="rgb(81, 66, 66)" opacity="1.0"/>
    <path d="M 200.8416290283203 291.313232421875 C 198.0780792236328 299.5677185058594 192.58815002441406 305.1406555175781 185.2034149169922 307.0683898925781 C 177.66036987304688 304.7893981933594 172.1191864013672 299.36737060546875 170.02259826660156 291.96820068359375 C 172.00961303710938 284.5 177.5 279.0096130371094 185.04917907714844 276.9724426269531 C 192.87596130371094 278.7761535644531 198.7282257080078 283.9305114746094 200.8416290283203 291.313232421875" stroke-width="0.0" fill="rgb(68, 58, 58)" opacity="0.99024945"/>
    <path d="M 166.20738220214844 213.739990234375 C 163.9816131591797 221.49388122558594 158.4955291748047 226.98716735839844 150.9991912841797 228.99942016601562 C 143.5 226.99038696289062 138.00961303710938 221.5 136.0 213.99998474121094 C 138.00927734375 206.49888610839844 143.4898681640625 200.97683715820312 151.7780303955078 198.1120147705078 C 159.2702178955078 200.16226196289062 164.57984924316406 205.817626953125 166.20738220214844 213.739990234375" stroke-width="0.0" fill="rgb(49, 43, 45)" opacity="1.0"/>
    <path d="M 242.46290588378906 247.4821319580078 C 240.7501220703125 255.29348754882812 235.33718872070312 260.8746032714844 227.82069396972656 262.89971923828125 C 219.52874755859375 259.9747009277344 214.06724548339844 254.45933532714844 211.16033935546875 246.22756958007812 C 213.1319580078125 238.6448974609375 218.64498901367188 233.13160705566406 226.20704650878906 231.12538146972656 C 234.5 234.00961303710938 239.99038696289062 239.5 242.46290588378906 247.4821319580078" stroke-width="0.0" fill="rgb(68, 62, 54)" opacity="1.0"/>
    <path d="M 229.20852661132812 428.570068359375 C 227.75035095214844 436.4360656738281 222.52200317382812 442.01080322265625 215.00497436523438 444.00421142578125 C 207.49913024902344 441.9915771484375 202.00836181640625 436.5008544921875 199.9979705810547 429.0008239746094 C 202.0095977783203 421.5 207.5 416.0096130371094 214.8212127685547 414.20916748046875 C 222.259765625 416.3431701660156 227.86000061035156 421.6741027832031 229.20852661132812 428.570068359375" stroke-width="0.0" fill="rgb(68, 58, 53)" opacity="0.9907442"/>
    <path d="M 187.90846252441406 139.4868927001953 C 185.82603454589844 147.30233764648438 180.3042449951172 152.8303680419922 172.09239196777344 154.91278076171875 C 163.69989013671875 152.83287048339844 158.3129119873047 147.25779724121094 157.91452026367188 139.76673889160156 C 159.86788940429688 132.3307342529297 165.33155822753906 126.86946868896484 172.49984741210938 124.93048858642578 C 178.94561767578125 126.76798248291016 185.6776580810547 131.26051330566406 187.90846252441406 139.4868927001953" stroke-width="0.0" fill="rgb(86, 70, 69)" opacity="0.9900167"/>
    <path d="M 200.690673828125 256.4808349609375 C 197.9377899169922 264.4463195800781 192.47128295898438 270.02569580078125 184.57652282714844 272.4870300292969 C 176.7456817626953 270.7152404785156 171.16403198242188 265.2957763671875 169.139892578125 257.76226806640625 C 172.01080322265625 249.50160217285156 177.50225830078125 244.0130157470703 185.0591583251953 241.96449279785156 C 192.8213348388672 243.7879180908203 198.5972137451172 249.04383850097656 200.690673828125 256.4808349609375" stroke-width="0.0" fill="rgb(52, 48, 46)" opacity="0.99060315"/>
    <path d="M 175.0361328125 248.09219360351562 C 173.22720336914062 255.7545623779297 167.7704620361328 261.28076171875 160.1147003173828 263.21759033203125 C 152.4739990234375 261.03125 147.00143432617188 255.51651000976562 144.16732788085938 247.2314910888672 C 146.12872314453125 239.6379852294922 151.64108276367188 234.13714599609375 159.2576904296875 232.20382690429688 C 167.47747802734375 235.0428466796875 172.9680938720703 240.5193328857422 175.0361328125 248.09219360351562" stroke-width="0.0" fill="rgb(46, 35, 36)" opacity="1.0"/>
    <path d="M 222.01124572753906 134.98748779296875 C 219.9966583251953 142.51600646972656 214.55050659179688 148.11134338378906 206.27919006347656 150.8217010498047 C 198.65469360351562 148.84988403320312 193.12643432617188 143.35464477539062 191.06642150878906 135.26144409179688 C 193.1383514404297 126.65921020507812 198.66494750976562 121.15182495117188 206.2710723876953 119.12751770019531 C 214.62518310546875 121.77974700927734 220.03953552246094 127.43145751953125 222.01124572753906 134.98748779296875" stroke-width="0.0" fill="rgb(80, 63, 61)" opacity="1.0"/>
    <path d="M 269.0648193359375 314.10394287109375 C 267.3645324707031 322.01544189453125 262.1709899902344 327.7893371582031 254.2865753173828 329.9251708984375 C 245.79971313476562 327.7707214355469 240.26202392578125 322.18389892578125 238.12359619140625 314.5469055175781 C 241.3492431640625 307.02728271484375 247.0847930908203 301.6215515136719 254.38473510742188 299.4477233886719 C 261.5 301.0096130371094 266.9903869628906 306.5 269.0648193359375 314.10394287109375" stroke-width="0.0" fill="rgb(119, 94, 93)" opacity="0.9900522"/>
    <path d="M 241.39671325683594 366.74365234375 C 239.91021728515625 374.4661560058594 234.4700164794922 379.926025390625 226.75831604003906 382.1651916503906 C 219.33004760742188 380.3287353515625 213.97666931152344 374.5653991699219 212.01377868652344 367.01409912109375 C 214.0010528564453 359.46392822265625 219.44496154785156 353.9373474121094 226.969970703125 351.9653015136719 C 234.4993438720703 354.00982666015625 239.97694396972656 359.5043029785156 241.39671325683594 366.74365234375" stroke-width="0.0" fill="rgb(245, 243, 243)" opacity="1.0"/>
    <path d="M 218.78707885742188 352.02093505859375 C 216.693359375 360.0928039550781 210.98524475097656 365.3736572265625 202.7525177001953 367.35040283203125 C 194.87509155273438 365.5945129394531 189.34434509277344 360.1435241699219 187.55996704101562 352.419677734375 C 190.01234436035156 344.5022888183594 195.50315856933594 339.01531982421875 203.7063751220703 336.19989013671875 C 211.26048278808594 338.1879577636719 216.70492553710938 343.7815856933594 218.78707885742188 352.02093505859375" stroke-width="0.0" fill="rgb(77, 63, 60)" opacity="1.0"/>
    <path d="M 227.22462463378906 319.6702880859375 C 225.62472534179688 327.2655944824219 220.5095977783203 333.3629150390625 212.26600646972656 335.91259765625 C 204.64739990234375 333.8697204589844 199.1365966796875 328.34979248046875 197.0707244873047 320.5824279785156 C 199.2890625 311.96099853515625 205.16537475585938 306.8121337890625 212.96177673339844 304.9800109863281 C 220.49342346191406 307.0118408203125 225.8844757080078 312.5371398925781 227.22462463378906 319.6702880859375" stroke-width="0.0" fill="rgb(102, 81, 75)" opacity="1.0"/>
    <path d="M 192.90432739257812 329.21514892578125 C 190.29266357421875 337.7348327636719 184.86148071289062 343.5650329589844 176.23948669433594 345.9324951171875 C 168.63014221191406 343.88543701171875 163.11968994140625 338.36761474609375 161.0457000732422 329.5863342285156 C 163.10882568359375 321.62640380859375 168.63143920898438 316.1206970214844 176.815673828125 314.0635986328125 C 185.35092163085938 316.13348388671875 190.8710479736328 321.6470947265625 192.90432739257812 329.21514892578125" stroke-width="0.0" fill="rgb(48, 40, 38)" opacity="1.0"/>
    <path d="M 154.09405517578125 505.1279296875 C 152.0825653076172 512.6106567382812 146.6140594482422 518.0912475585938 139.19680786132812 520.1345825195312 C 132.5 518.9903564453125 127.0096206665039 513.5 124.99446868896484 505.993896484375 C 126.98938751220703 498.476318359375 132.4706268310547 492.969970703125 139.9803924560547 491.0430908203125 C 147.7734375 492.8570556640625 153.60394287109375 498.06097412109375 154.09405517578125 505.1279296875" stroke-width="0.0" fill="rgb(37, 32, 27)" opacity="0.9900455"/>
    <path d="M 236.4390411376953 448.1090393066406 C 234.5000762939453 454.9923400878906 228.9383544921875 460.3482666015625 221.44241333007812 462.82061767578125 C 213.76622009277344 461.6643981933594 208.1434783935547 456.3014221191406 206.100341796875 448.8063049316406 C 209.0030975341797 440.50140380859375 214.5049591064453 435.01641845703125 221.79486083984375 433.1135559082031 C 228.94668579101562 435.5223388671875 234.38751220703125 441.0791015625 236.4390411376953 448.1090393066406" stroke-width="0.0" fill="rgb(65, 54, 47)" opacity="0.9900807"/>
    <path d="M 298.0947570800781 310.6446533203125 C 295.66180419921875 318.2931823730469 290.41986083984375 324.07989501953125 282.99853515625 326.3511047363281 C 275.47607421875 324.0487365722656 270.0063781738281 318.5079040527344 268.0040283203125 311.0071105957031 C 270.0409240722656 303.5505676269531 275.57989501953125 298.1373291015625 283.41790771484375 295.49517822265625 C 290.8624267578125 297.5415954589844 296.3054504394531 303.1904296875 298.0947570800781 310.6446533203125" stroke-width="0.0" fill="rgb(200, 214, 220)" opacity="0.99037266"/>
    <path d="M 236.12081909179688 300.5347900390625 C 234.73556518554688 308.1999816894531 229.1629638671875 313.61981201171875 221.3397979736328 315.325439453125 C 213.49163818359375 312.9931640625 207.88131713867188 307.54595947265625 205.10057067871094 299.2247314453125 C 207.16368103027344 291.721435546875 212.78707885742188 286.3531494140625 220.65603637695312 285.1726379394531 C 228.50674438476562 287.0588684082031 234.0198516845703 292.4693908691406 236.12081909179688 300.5347900390625" stroke-width="0.0" fill="rgb(109, 110, 114)" opacity="1.0"/>
    <path d="M 285.2401123046875 385.82232666015625 C 283.3894348144531 392.95361328125 277.9578857421875 398.4033203125 270.3294982910156 401.539794921875 C 262.9315185546875 399.6579895019531 257.4736328125 394.0177307128906 255.57106018066406 386.32305908203125 C 257.9462585449219 378.42047119140625 263.3954162597656 372.86376953125 270.7875061035156 370.7418518066406 C 278.0017395019531 373.48870849609375 283.39276123046875 379.0352478027344 285.2401123046875 385.82232666015625" stroke-width="0.0" fill="rgb(161, 156, 172)" opacity="0.99004525"/>
    <path d="M 258.02557373046875 239.03384399414062 C 256.0501403808594 246.52627563476562 250.50997924804688 251.9945526123047 243.03883361816406 253.8894805908203 C 235.5060272216797 251.9718475341797 230.00991821289062 246.49903869628906 228.0 238.99998474121094 C 230.00961303710938 231.5 235.5 226.00961303710938 243.0 224.0 C 250.5 226.00961303710938 255.9901885986328 231.50006103515625 258.02557373046875 239.03384399414062" stroke-width="0.0" fill="rgb(182, 175, 170)" opacity="1.0"/>
    <path d="M 158.9503631591797 212.03485107421875 C 156.99038696289062 219.5 151.5 224.99038696289062 144.0 227.0 C 136.5 224.99038696289062 131.00961303710938 219.5 128.54888916015625 211.60104370117188 C 130.36912536621094 203.86221313476562 135.83604431152344 198.29356384277344 143.54347229003906 196.2461700439453 C 151.61572265625 198.7118377685547 156.9291534423828 204.50807189941406 158.9503631591797 212.03485107421875" stroke-width="0.0" fill="rgb(69, 66, 76)" opacity="0.99018955"/>
    <path d="M 271.496826171875 256.67791748046875 C 268.72576904296875 264.1778869628906 263.1243896484375 269.54803466796875 255.54180908203125 271.5439453125 C 247.81922912597656 270.6269836425781 242.20535278320312 265.2378234863281 240.1437225341797 257.64947509765625 C 242.72377014160156 249.36819458007812 248.45779418945312 243.9936981201172 256.2594299316406 241.57391357421875 C 263.799072265625 243.65696716308594 269.4029846191406 249.1787567138672 271.496826171875 256.67791748046875" stroke-width="0.0" fill="rgb(191, 165, 169)" opacity="1.0"/>
    <path d="M 224.7470703125 183.34815979003906 C 222.57611083984375 190.98973083496094 216.9168701171875 196.35166931152344 208.93072509765625 197.90963745117188 C 201.20510864257812 196.33193969726562 195.7117156982422 190.77772521972656 193.11289978027344 182.28456115722656 C 195.23097229003906 174.8601837158203 201.0212860107422 169.6612091064453 208.9118194580078 167.92666625976562 C 216.59791564941406 169.9488067626953 222.27232360839844 175.33143615722656 224.7470703125 183.34815979003906" stroke-width="0.0" fill="rgb(74, 63, 52)" opacity="0.99036"/>
    <path d="M 266.3916015625 226.5600128173828 C 263.8722229003906 234.4143829345703 258.4188232421875 239.88560485839844 250.9276580810547 241.85696411132812 C 243.5 239.99038696289062 238.00961303710938 234.5 236.1864776611328 227.1237335205078 C 238.2473602294922 219.72821044921875 243.75929260253906 214.34368896484375 251.47003173828125 212.20729064941406 C 259.0904235839844 213.40615844726562 264.6263732910156 218.89883422851562 266.3916015625 226.5600128173828" stroke-width="0.0" fill="rgb(168, 157, 145)" opacity="0.99050134"/>
    <path d="M 268.50885009765625 426.2062683105469 C 267.2383117675781 433.6930236816406 261.6399230957031 439.0614013671875 254.05624389648438 440.7836608886719 C 246.49948120117188 438.9120178222656 240.7430877685547 433.61505126953125 238.61647033691406 426.2238464355469 C 241.00987243652344 418.5006103515625 246.50193786621094 413.0146179199219 254.1372833251953 410.9159240722656 C 261.8742980957031 412.6644592285156 267.30120849609375 418.13104248046875 268.50885009765625 426.2062683105469" stroke-width="0.0" fill="rgb(177, 129, 113)" opacity="0.9905803"/>
    <path d="M 137.90208435058594 321.8444519042969 C 135.90863037109375 329.4060974121094 130.409912109375 334.91796875 122.92024230957031 336.8668518066406 C 115.38053894042969 333.0909423828125 109.9098892211914 327.6191711425781 107.95072937011719 320.27130126953125 C 109.6305923461914 313.7476501464844 114.23020935058594 307.5627746582031 121.72955322265625 305.5314636230469 C 129.5958709716797 307.88812255859375 135.06875610351562 313.41680908203125 137.90208435058594 321.8444519042969" stroke-width="0.0" fill="rgb(31, 26, 24)" opacity="0.9900244"/>
    <path d="M 191.55038452148438 468.5472412109375 C 189.7543487548828 476.26171875 184.27330017089844 481.7893981933594 176.6487579345703 483.6557922363281 C 168.84454345703125 480.6834411621094 163.47398376464844 475.10406494140625 161.17584228515625 468.3352966308594 C 163.70103454589844 461.1970520019531 169.2080841064453 455.7374267578125 176.4342498779297 453.68701171875 C 183.23739624023438 455.35296630859375 188.81033325195312 460.711181640625 191.55038452148438 468.5472412109375" stroke-width="0.0" fill="rgb(99, 69, 55)" opacity="0.9900442"/>
    <path d="M 152.0312042236328 220.04873657226562 C 150.21632385253906 227.84979248046875 145.01675415039062 233.6712646484375 137.57278442382812 235.8191375732422 C 129.06939697265625 233.424560546875 123.4283676147461 227.98411560058594 121.23580169677734 219.86538696289062 C 123.3592300415039 211.9045867919922 128.92709350585938 206.42457580566406 136.73863220214844 204.43661499023438 C 144.5924072265625 206.8222198486328 150.0092315673828 212.46014404296875 152.0312042236328 220.04873657226562" stroke-width="0.0" fill="rgb(131, 136, 148)" opacity="1.0"/>
    <path d="M 191.4431610107422 282.8150634765625 C 189.64353942871094 290.232666015625 184.2761688232422 295.7810974121094 177.0467071533203 297.6717834472656 C 169.6051483154297 295.8493957519531 164.1582794189453 290.39202880859375 161.14602661132812 282.2271423339844 C 163.1516571044922 274.678955078125 168.6901092529297 269.17889404296875 176.26873779296875 267.1860046386719 C 184.48486328125 270.103271484375 189.97216796875 275.48931884765625 191.4431610107422 282.8150634765625" stroke-width="0.0" fill="rgb(20, 16, 11)" opacity="0.9901059"/>
    <path d="M 164.87118530273438 294.6884460449219 C 162.77684020996094 302.1624755859375 157.02061462402344 307.3849792480469 148.6752471923828 309.3711853027344 C 140.73757934570312 307.6924743652344 135.1266326904297 302.3251953125 133.09432983398438 294.8284912109375 C 136.01171875 286.5005798339844 141.50003051757812 281.0096130371094 149.2424774169922 278.7761535644531 C 157.04849243164062 280.4937744140625 162.603759765625 285.9215087890625 164.87118530273438 294.6884460449219" stroke-width="0.0" fill="rgb(102, 97, 111)" opacity="1.0"/>
    <path d="M 212.94203186035156 413.96392822265625 C 210.92005920410156 421.4442138671875 205.44601440429688 426.9255676269531 198.0928955078125 428.7104797363281 C 190.65042114257812 426.790771484375 185.3432159423828 421.30224609375 183.65512084960938 413.6842346191406 C 184.7268829345703 406.1317443847656 190.0837860107422 400.55419921875 197.75897216796875 398.7316589355469 C 205.5 401.0096130371094 210.99038696289062 406.5 212.94203186035156 413.96392822265625" stroke-width="0.0" fill="rgb(43, 30, 26)" opacity="0.99003637"/>
    <path d="M 163.39422607421875 219.42076110839844 C 161.7086181640625 227.25991821289062 156.31277465820312 232.85890197753906 148.700927734375 234.92926025390625 C 140.10670471191406 232.65672302246094 135.4762725830078 226.34718322753906 133.7834014892578 218.96554565429688 C 135.5526123046875 211.97447204589844 140.9481201171875 206.4761505126953 148.32872009277344 204.2891387939453 C 155.5576934814453 205.90582275390625 161.01068115234375 211.46731567382812 163.39422607421875 219.42076110839844" stroke-width="0.0" fill="rgb(55, 47, 49)" opacity="0.990107"/>
    <path d="M 156.923095703125 406.0080871582031 C 154.9647674560547 413.4825134277344 149.486572265625 418.9783935546875 141.36727905273438 421.77880859375 C 133.86953735351562 419.71380615234375 128.438720703125 414.0723571777344 126.75800323486328 405.8835144042969 C 128.69338989257812 398.5755615234375 134.78775024414062 393.39984130859375 142.54736328125 390.2813415527344 C 149.70704650878906 392.5998229980469 154.99050903320312 398.4377746582031 156.923095703125 406.0080871582031" stroke-width="0.0" fill="rgb(67, 42, 35)" opacity="0.99003345"/>
    <path d="M 237.87841796875 138.26759338378906 C 235.0730743408203 146.52865600585938 229.50515747070312 151.9921417236328 222.00013732910156 154.00003051757812 C 214.5002899169922 151.990234375 209.0111541748047 146.4993133544922 207.011962890625 139.0013427734375 C 209.0121307373047 131.49615478515625 214.48265075683594 125.96588134765625 222.1326446533203 123.76640319824219 C 230.05419921875 125.56339263916016 235.79022216796875 130.8157501220703 237.87841796875 138.26759338378906" stroke-width="0.0" fill="rgb(83, 68, 68)" opacity="1.0"/>
    <path d="M 229.71974182128906 397.84442138671875 C 227.6445770263672 405.17889404296875 222.1973114013672 410.7054748535156 214.8900146484375 412.8976745605469 C 207.5 410.9903869628906 202.00961303710938 405.5 199.69082641601562 397.6640625 C 201.3659210205078 389.800537109375 206.728515625 384.1650390625 214.3486785888672 382.0758361816406 C 222.94607543945312 384.360595703125 228.0729522705078 390.2677001953125 229.71974182128906 397.84442138671875" stroke-width="0.0" fill="rgb(47, 8, 8)" opacity="0.9906706"/>
    <path d="M 277.2493896484375 304.5675354003906 C 275.97161865234375 311.4944152832031 270.4995422363281 316.9902648925781 263.008544921875 318.97698974609375 C 255.38662719726562 317.02215576171875 249.63311767578125 311.7272644042969 247.4273223876953 304.26995849609375 C 249.79019165039062 296.1829528808594 255.084716796875 290.4794006347656 262.32427978515625 289.63134765625 C 269.8257141113281 291.72259521484375 275.27197265625 297.1763916015625 277.2493896484375 304.5675354003906" stroke-width="0.0" fill="rgb(147, 129, 129)" opacity="0.9901576"/>
    <path d="M 253.3574981689453 240.103271484375 C 251.19374084472656 247.69378662109375 245.7914581298828 253.45462036132812 238.2664794921875 255.78919982910156 C 230.95802307128906 253.0166015625 225.75344848632812 246.87054443359375 223.8955535888672 239.57997131347656 C 225.542724609375 232.48387145996094 230.0236358642578 226.35313415527344 237.462646484375 224.41415405273438 C 245.50942993164062 227.05084228515625 251.0332489013672 232.46644592285156 253.3574981689453 240.103271484375" stroke-width="0.0" fill="rgb(193, 182, 171)" opacity="0.9900913"/>
    <path d="M 138.77008056640625 473.4093017578125 C 136.65438842773438 482.19610595703125 131.21981811523438 487.7353515625 123.50718688964844 489.5550842285156 C 115.41444396972656 487.2101745605469 110.56500244140625 481.2417297363281 108.8475570678711 473.6908874511719 C 110.4062271118164 466.7020263671875 115.57174682617188 461.03961181640625 123.08665466308594 458.9853515625 C 130.99551391601562 460.6545715332031 136.7351531982422 465.8738098144531 138.77008056640625 473.4093017578125" stroke-width="0.0" fill="rgb(162, 104, 91)" opacity="0.9911748"/>
    <path d="M 219.8687744140625 371.46185302734375 C 217.75503540039062 379.26312255859375 212.2999725341797 384.8451232910156 203.5855712890625 386.93701171875 C 195.6549530029297 384.87200927734375 190.22048950195312 379.31439208984375 188.18966674804688 370.343994140625 C 190.1837615966797 362.74932861328125 195.8290557861328 357.42132568359375 203.6641082763672 355.9380187988281 C 211.230712890625 358.3115539550781 217.3798828125 363.5640563964844 219.8687744140625 371.46185302734375" stroke-width="0.0" fill="rgb(77, 68, 66)" opacity="1.0"/>
    <path d="M 162.8545684814453 352.0902404785156 C 160.79664611816406 360.2692565917969 155.2611846923828 365.77374267578125 147.4160614013672 367.75201416015625 C 138.94979858398438 365.58892822265625 133.3388214111328 360.08062744140625 131.15750122070312 351.539794921875 C 133.19094848632812 343.7126770019531 138.7244415283203 338.2237243652344 146.48397827148438 336.2987976074219 C 155.12167358398438 338.4234619140625 160.75338745117188 343.81585693359375 162.8545684814453 352.0902404785156" stroke-width="0.0" fill="rgb(204, 201, 219)" opacity="1.0"/>
    <path d="M 230.81297302246094 312.2608947753906 C 228.50355529785156 319.7351989746094 222.4622039794922 324.8536376953125 214.82931518554688 327.0240173339844 C 207.333251953125 325.1829833984375 201.7646026611328 319.68255615234375 199.0885009765625 311.18695068359375 C 201.13107299804688 303.6750793457031 206.72116088867188 298.2514953613281 214.49496459960938 296.28314208984375 C 222.4774169921875 299.0063171386719 228.29689025878906 304.4034729003906 230.81297302246094 312.2608947753906" stroke-width="0.0" fill="rgb(66, 54, 47)" opacity="1.0"/>
    <path d="M 285.04302978515625 316.0299377441406 C 283.2519226074219 323.8523254394531 277.9483947753906 329.54730224609375 270.4933776855469 330.37939453125 C 262.3320617675781 329.1423034667969 256.87249755859375 323.6646423339844 255.79782104492188 316.5237731933594 C 257.6450500488281 309.0799255371094 263.1093444824219 303.7120361328125 270.62762451171875 301.8370361328125 C 277.7887268066406 302.68316650390625 283.1883850097656 308.2508850097656 285.04302978515625 316.0299377441406" stroke-width="0.0" fill="rgb(230, 223, 229)" opacity="0.9901955"/>
    <path d="M 307.2886657714844 271.112060546875 C 305.72320556640625 278.3550720214844 300.4176330566406 283.9172668457031 292.9786071777344 285.9405212402344 C 285.50787353515625 283.9782409667969 280.0143127441406 278.49432373046875 277.3628845214844 270.5733947753906 C 279.5403747558594 263.16680908203125 285.2693176269531 257.84814453125 292.98193359375 255.8107147216797 C 300.15087890625 258.2371520996094 305.4425964355469 263.9453430175781 307.2886657714844 271.112060546875" stroke-width="0.0" fill="rgb(161, 173, 191)" opacity="0.99039614"/>
    <path d="M 214.88023376464844 497.4346618652344 C 212.8496856689453 505.35528564453125 207.37266540527344 510.8939208984375 198.96319580078125 512.9510498046875 C 190.6119384765625 510.9008483886719 185.11312866210938 505.3821105957031 183.05648803710938 496.87896728515625 C 185.1188507080078 488.6368713378906 190.6464385986328 483.1426086425781 198.302490234375 481.1336975097656 C 207.18862915039062 483.33489990234375 212.7713165283203 488.7742614746094 214.88023376464844 497.4346618652344" stroke-width="0.0" fill="rgb(70, 57, 53)" opacity="1.0"/>
    <path d="M 129.69456481933594 458.01397705078125 C 127.97993469238281 465.51287841796875 122.519287109375 471.0047302246094 115.51917266845703 472.3965759277344 C 108.21112823486328 470.26495361328125 102.77207946777344 464.7760925292969 100.881103515625 458.0839538574219 C 102.77110290527344 451.2215270996094 108.2248764038086 445.7799377441406 115.71368408203125 443.6770935058594 C 122.56189727783203 444.7698669433594 127.91145324707031 450.5429992675781 129.69456481933594 458.01397705078125" stroke-width="0.0" fill="rgb(160, 98, 83)" opacity="0.99002796"/>
    <path d="M 239.89901733398438 146.6051788330078 C 237.54371643066406 154.62557983398438 231.33132934570312 160.02423095703125 224.29510498046875 162.62994384765625 C 216.48049926757812 160.00779724121094 210.89846801757812 154.5478973388672 208.757568359375 147.11166381835938 C 211.006591796875 139.49734497070312 216.4977569580078 134.00807189941406 224.05235290527344 131.97157287597656 C 231.87095642089844 133.77737426757812 237.71536254882812 138.94236755371094 239.89901733398438 146.6051788330078" stroke-width="0.0" fill="rgb(87, 70, 70)" opacity="1.0"/>
    <path d="M 262.30438232421875 380.7700500488281 C 260.1166687011719 388.6466064453125 254.66818237304688 394.1877136230469 246.9632568359375 396.2825622558594 C 239.50479125976562 394.115234375 233.96730041503906 388.46539306640625 232.31590270996094 381.3838195800781 C 234.5043182373047 373.78271484375 239.16595458984375 367.327392578125 247.11383056640625 365.0848083496094 C 255.1957550048828 367.21173095703125 260.5126037597656 372.9068908691406 262.30438232421875 380.7700500488281" stroke-width="0.0" fill="rgb(156, 153, 173)" opacity="0.99018544"/>
    <path d="M 153.07568359375 280.08685302734375 C 151.24618530273438 287.80718994140625 145.88375854492188 293.4801940917969 137.2684783935547 295.8583068847656 C 129.62692260742188 293.8761901855469 124.10985565185547 288.37835693359375 122.1136474609375 280.82501220703125 C 125.03302764892578 272.0420227050781 129.81861877441406 266.195556640625 137.26585388183594 264.13336181640625 C 145.50875854492188 266.9801330566406 150.99058532714844 272.49932861328125 153.07568359375 280.08685302734375" stroke-width="0.0" fill="rgb(32, 19, 16)" opacity="0.99020594"/>
    <path d="M 250.78370666503906 415.0228576660156 C 248.91134643554688 422.46197509765625 243.56336975097656 428.2191162109375 236.4662322998047 430.46240234375 C 228.92897033691406 427.5110778808594 223.45367431640625 422.0830383300781 221.56430053710938 414.7679443359375 C 222.86717224121094 407.2677307128906 228.187744140625 401.5857238769531 235.56578063964844 399.22003173828125 C 243.4156036376953 402.0570068359375 248.85830688476562 407.6075439453125 250.78370666503906 415.0228576660156" stroke-width="0.0" fill="rgb(150, 112, 106)" opacity="0.9900963"/>
    <path d="M 164.94110107421875 274.30078125 C 162.85275268554688 282.30487060546875 157.25082397460938 287.7003173828125 149.47222900390625 289.3077087402344 C 141.7017364501953 286.7533874511719 136.21484375 281.30755615234375 133.76104736328125 273.5880126953125 C 135.31629943847656 265.7671203613281 140.7327880859375 260.2054748535156 148.3978271484375 258.3002014160156 C 157.02352905273438 260.60003662109375 162.79039001464844 265.8278503417969 164.94110107421875 274.30078125" stroke-width="0.0" fill="rgb(64, 56, 56)" opacity="1.0"/>
    <path d="M 166.9376678466797 312.0618591308594 C 164.84959411621094 320.2937316894531 159.23602294921875 325.7016906738281 151.46450805664062 327.6048889160156 C 143.02955627441406 325.3826904296875 137.49012756347656 320.0063781738281 135.39129638671875 311.3937683105469 C 137.2504119873047 303.8431396484375 142.9618377685547 298.6261291503906 151.13783264160156 297.15008544921875 C 159.2098846435547 298.40380859375 164.85232543945312 303.7073669433594 166.9376678466797 312.0618591308594" stroke-width="0.0" fill="rgb(117, 121, 135)" opacity="1.0"/>
    <path d="M 221.80242919921875 164.1915283203125 C 220.01138305664062 171.5113525390625 214.51075744628906 177.00843811035156 206.818603515625 179.17559814453125 C 199.03073120117188 177.43785095214844 193.73426818847656 171.9352569580078 192.87277221679688 164.46189880371094 C 194.56602478027344 156.6678924560547 199.05625915527344 150.3259735107422 206.41281127929688 148.22994995117188 C 214.34619140625 151.06039428710938 219.69503784179688 156.7235107421875 221.80242919921875 164.1915283203125" stroke-width="0.0" fill="rgb(65, 61, 63)" opacity="0.9900294"/>
    <path d="M 184.9424591064453 384.8471984863281 C 182.86672973632812 393.3401184082031 177.324462890625 398.8276672363281 169.40957641601562 400.8769226074219 C 161.2253875732422 398.5165710449219 156.01177978515625 392.56396484375 154.0262908935547 384.9337158203125 C 155.72459411621094 377.0475769042969 160.85675048828125 371.2181396484375 169.48358154296875 369.06463623046875 C 177.36163330078125 371.1258239746094 182.8797149658203 376.6360168457031 184.9424591064453 384.8471984863281" stroke-width="0.0" fill="rgb(67, 56, 54)" opacity="1.0"/>
    <path d="M 223.88784790039062 402.9609069824219 C 221.8576202392578 410.3459167480469 216.3030242919922 415.7225036621094 208.87747192382812 417.66546630859375 C 201.5543670654297 415.9132080078125 196.0973663330078 410.4427795410156 193.26805114746094 402.3033447265625 C 195.16978454589844 394.68316650390625 200.6922607421875 389.196044921875 208.3773956298828 387.3396911621094 C 216.46395874023438 390.04736328125 221.94212341308594 395.539306640625 223.88784790039062 402.9609069824219" stroke-width="0.0" fill="rgb(34, 11, 7)" opacity="0.99053377"/>
    <path d="M 248.13442993164062 353.4459533691406 C 247.41427612304688 360.79949951171875 241.7152099609375 366.1591796875 234.0022430419922 368.1468200683594 C 226.4640655517578 366.0587158203125 221.12301635742188 360.4814147949219 219.80938720703125 353.58392333984375 C 221.7681427001953 346.1908874511719 227.1551513671875 340.6768798828125 234.5231170654297 338.77606201171875 C 241.833740234375 339.72845458984375 247.15554809570312 345.18914794921875 248.13442993164062 353.4459533691406" stroke-width="0.0" fill="rgb(237, 245, 242)" opacity="0.9901224"/>
    <path d="M 147.02085876464844 510.7530212402344 C 144.3386993408203 517.7684936523438 138.70135498046875 523.130615234375 132.47596740722656 525.0455322265625 C 125.36836242675781 523.095703125 119.89738464355469 517.6347045898438 117.94713592529297 510.3031921386719 C 119.74411010742188 504.1151428222656 125.01083374023438 498.46282958984375 132.1798095703125 496.1543273925781 C 139.48683166503906 498.02606201171875 144.97320556640625 503.5133056640625 147.02085876464844 510.7530212402344" stroke-width="0.0" fill="rgb(42, 40, 39)" opacity="0.99001205"/>
  </g>
</svg>
