<?xml version="1.0" ?>
<svg xmlns="http://www.w3.org/2000/svg" version="1.1" width="600" height="600">
  <defs/>
  <g>
    <path d="M 219.99998474121094 530.0000610351562 C 217.3205108642578 540.0 210.0 547.3204956054688 199.12144470214844 550.93310546875 C 189.09283447265625 548.2468872070312 181.76414489746094 540.9025268554688 179.04470825195312 529.7620239257812 C 181.77330017089844 519.1234741210938 189.15145874023438 511.8643798828125 199.6798095703125 510.8351135253906 C 209.96302795410156 512.7920532226562 217.3192138671875 520.0042114257812 219.99998474121094 530.0000610351562" stroke-width="0.0" fill="rgb(95, 86, 85)" opacity="1.0"/>
    <path d="M 395.92236328125 185.2505340576172 C 393.1759338378906 195.82308959960938 385.8133544921875 203.15110778808594 375.6861877441406 205.77024841308594 C 365.0 202.3205108642578 357.67950439453125 195.0 355.0 185.0 C 357.67950439453125 175.0 365.0 167.6794891357422 375.1638488769531 164.88058471679688 C 385.567138671875 167.21875 393.1104736328125 174.31704711914062 395.92236328125 185.2505340576172" stroke-width="0.0" fill="rgb(118, 95, 96)" opacity="1.0"/>
    <path d="M 312.91046142578125 569.445556640625 C 310.13330078125 579.7630004882812 302.7508239746094 587.1040649414062 291.5100402832031 589.9091796875 C 281.21051025390625 587.1470947265625 273.85516357421875 579.78857421875 271.08489990234375 568.75146484375 C 273.8435363769531 558.2021484375 281.2041015625 550.8471069335938 292.3639831542969 548.0590209960938 C 302.78302001953125 550.83935546875 310.11456298828125 558.2371215820312 312.91046142578125 569.445556640625" stroke-width="0.0" fill="rgb(140, 91, 72)" opacity="0.9900408"/>
    <path d="M 169.30386352539062 574.3131713867188 C 166.9185028076172 584.6319580078125 159.6869659423828 592.0789184570312 149.25726318359375 594.8660278320312 C 138.2517547607422 592.0953369140625 130.90252685546875 584.7492065429688 128.11708068847656 573.4144287109375 C 130.8216094970703 563.1605224609375 138.14511108398438 555.786376953125 148.15411376953125 553.0796508789062 C 159.00022888183594 556.6787109375 166.3205108642578 564.0 169.30386352539062 574.3131713867188" stroke-width="0.0" fill="rgb(163, 111, 92)" opacity="0.99039567"/>
    <path d="M 596.1871948242188 576.212890625 C 593.848388671875 586.6029663085938 586.6781005859375 594.077392578125 576.608154296875 596.8052978515625 C 565.9382934570312 593.481201171875 558.6746826171875 586.013916015625 555.9998779296875 576.0003662109375 C 558.6795043945312 566.0 566.0 558.6795043945312 576.2009887695312 555.6959838867188 C 586.2039794921875 558.3717041015625 593.400634765625 565.8687744140625 596.1871948242188 576.212890625" stroke-width="0.0" fill="rgb(33, 32, 30)" opacity="0.9900454"/>
    <path d="M 70.9561996459961 35.574249267578125 C 68.24044799804688 45.900390625 60.89836883544922 53.23563766479492 50.85282897949219 55.91419982910156 C 40.00004577636719 52.320343017578125 32.67949295043945 45.0 29.680294036865234 34.6303825378418 C 31.987964630126953 24.247451782226562 39.18632888793945 16.80811882019043 50.716426849365234 14.046636581420898 C 60.89499282836914 16.76093292236328 68.22370910644531 24.11170768737793 70.9561996459961 35.574249267578125" stroke-width="0.0" fill="rgb(58, 42, 40)" opacity="1.0"/>
    <path d="M 574.8285522460938 597.0585327148438 C 571.667724609375 607.1552124023438 564.0386962890625 614.3345336914062 554.0010986328125 617.0004272460938 C 544.0 614.3204956054688 536.6795043945312 607.0 534.0 597.0 C 536.6795043945312 587.0 544.0 579.6795043945312 554.02685546875 576.9835205078125 C 564.1987915039062 579.5562744140625 571.8099365234375 586.6739501953125 574.8285522460938 597.0585327148438" stroke-width="0.0" fill="rgb(157, 101, 90)" opacity="1.0"/>
    <path d="M 523.8470458984375 413.2450256347656 C 521.0967407226562 423.73529052734375 513.723876953125 431.0672302246094 502.8935241699219 433.839599609375 C 492.27850341796875 431.0809326171875 484.93603515625 423.71490478515625 482.1794128417969 413.3046875 C 485.0118713378906 402.3937072753906 492.4200134277344 395.084716796875 502.7277526855469 392.4559631347656 C 513.5653076171875 395.13720703125 521.0237426757812 402.37847900390625 523.8470458984375 413.2450256347656" stroke-width="0.0" fill="rgb(173, 156, 166)" opacity="0.9908667"/>
    <path d="M 436.7991638183594 576.3128662109375 C 433.3275451660156 587.0022583007812 426.0003662109375 594.3206176757812 415.9774169921875 597.0105590820312 C 405.7267150878906 594.464111328125 397.9788513183594 587.4982299804688 395.0818786621094 576.7154541015625 C 397.8581848144531 566.2156372070312 405.2195739746094 558.8681640625 416.2298278808594 556.100830078125 C 426.7830810546875 558.8629150390625 434.1304931640625 566.2192993164062 436.7991638183594 576.3128662109375" stroke-width="0.0" fill="rgb(181, 125, 111)" opacity="1.0"/>
    <path d="M 417.6748962402344 129.62936401367188 C 415.1392822265625 139.8116455078125 407.825439453125 147.17776489257812 396.9255065917969 149.92674255371094 C 386.16571044921875 147.1848907470703 378.8211364746094 139.83155822753906 376.0690612792969 128.74853515625 C 378.8013000488281 118.13945770263672 386.1368713378906 110.79499053955078 396.19964599609375 108.12152862548828 C 407.0 111.67948913574219 414.32049560546875 119.0 417.6748962402344 129.62936401367188" stroke-width="0.0" fill="rgb(108, 78, 71)" opacity="1.0"/>
    <path d="M 127.95524597167969 129.42926025390625 C 125.21067810058594 140.85629272460938 117.84864044189453 148.19419860839844 106.94136047363281 150.94183349609375 C 96.13201904296875 148.2091522216797 88.79545593261719 140.86618041992188 86.14701843261719 130.7805633544922 C 89.49109649658203 119.66419219970703 96.4399642944336 111.93409729003906 107.67996215820312 109.05702209472656 C 117.88447570800781 111.77735900878906 125.23339080810547 119.11085510253906 127.95524597167969 129.42926025390625" stroke-width="0.0" fill="rgb(80, 64, 64)" opacity="1.0"/>
    <path d="M 246.9547119140625 63.419273376464844 C 244.23727416992188 73.8963394165039 236.8927001953125 81.22856140136719 226.26882934570312 83.94820404052734 C 215.12225341796875 81.2168197631836 207.77587890625 73.88095092773438 205.06507873535156 63.726497650146484 C 207.95166015625 52.331260681152344 215.2881317138672 44.87218475341797 226.7425537109375 42.05265426635742 C 236.89501953125 44.76493453979492 244.2313690185547 52.10651397705078 246.9547119140625 63.419273376464844" stroke-width="0.0" fill="rgb(70, 50, 48)" opacity="1.0"/>
    <path d="M 98.9404296875 86.60153198242188 C 96.1888198852539 96.8099365234375 88.75035095214844 104.01593017578125 77.65306091308594 106.6127700805664 C 67.18049621582031 104.11357116699219 59.78887176513672 96.85292053222656 57.102638244628906 86.76221466064453 C 59.88496780395508 75.17814636230469 67.14231872558594 67.78237915039062 77.16879272460938 65.09871673583984 C 88.30419921875 68.51901245117188 96.05703735351562 75.4594955444336 98.9404296875 86.60153198242188" stroke-width="0.0" fill="rgb(68, 50, 48)" opacity="1.0"/>
    <path d="M 450.9398498535156 457.72607421875 C 448.2181396484375 467.8676452636719 440.8604431152344 475.2029113769531 429.3046569824219 477.9625244140625 C 419.0887145996094 475.24847412109375 411.7525634765625 467.9108581542969 409.0527648925781 457.7939758300781 C 411.8365173339844 446.2025146484375 419.2193908691406 438.8765563964844 429.43798828125 436.2319641113281 C 440.68927001953125 439.0038757324219 448.12701416015625 446.26165771484375 450.9398498535156 457.72607421875" stroke-width="0.0" fill="rgb(41, 34, 32)" opacity="0.99001324"/>
    <path d="M 574.6747436523438 527.3978271484375 C 571.3367919921875 538.044677734375 564.1709594726562 545.6920166015625 553.2130737304688 548.9224243164062 C 543.142822265625 546.2101440429688 535.81982421875 538.8447875976562 533.10986328125 528.6602783203125 C 536.15625 517.5225830078125 543.3910522460938 509.9097595214844 554.461181640625 507.0549011230469 C 564.8147583007812 509.8162841796875 572.112060546875 517.213623046875 574.6747436523438 527.3978271484375" stroke-width="0.0" fill="rgb(179, 120, 103)" opacity="1.0"/>
    <path d="M 420.947998046875 517.7737426757812 C 418.2340087890625 527.89794921875 410.9003601074219 535.2391967773438 400.8410949707031 537.891357421875 C 390.0 534.3204956054688 382.67950439453125 527.0 380.0 517.0 C 382.67950439453125 507.0 390.0 499.67950439453125 400.8214111328125 496.1130065917969 C 410.87127685546875 498.7800598144531 418.1825866699219 506.14324951171875 420.947998046875 517.7737426757812" stroke-width="0.0" fill="rgb(18, 11, 6)" opacity="0.99004114"/>
    <path d="M 477.90704345703125 131.4951171875 C 475.16522216796875 141.81149291992188 467.8083190917969 149.15777587890625 456.9530334472656 151.91424560546875 C 446.16326904296875 149.17648315429688 438.82952880859375 141.83486938476562 436.25006103515625 131.69500732421875 C 439.67950439453125 121.0 447.0 113.67948913574219 457.2447814941406 110.79255676269531 C 467.6207580566406 113.12899780273438 475.09814453125 120.30280303955078 477.90704345703125 131.4951171875" stroke-width="0.0" fill="rgb(133, 94, 84)" opacity="1.0"/>
    <path d="M 30.829435348510742 308.46466064453125 C 28.11506462097168 318.7814025878906 20.81645965576172 326.19366455078125 10.491080284118652 328.94482421875 C -0.7368394732475281 326.155517578125 -7.820616722106934 318.61846923828125 -10.129026412963867 308.1694641113281 C -7.395610809326172 297.8554382324219 -0.2778858244419098 290.2247009277344 9.717917442321777 287.3969421386719 C 20.502254486083984 290.16790771484375 27.905668258666992 297.47467041015625 30.829435348510742 308.46466064453125" stroke-width="0.0" fill="rgb(136, 116, 107)" opacity="0.9905004"/>
    <path d="M 559.7767333984375 171.34059143066406 C 556.3204956054688 182.0 549.0 189.3205108642578 538.9736328125 192.01422119140625 C 528.7605590820312 189.4583740234375 521.0828857421875 182.4093017578125 518.1228637695312 171.5120391845703 C 520.8651123046875 161.21949768066406 528.2208251953125 153.8678741455078 538.8590087890625 151.10902404785156 C 549.7659301757812 153.87733459472656 557.10986328125 161.23907470703125 559.7767333984375 171.34059143066406" stroke-width="0.0" fill="rgb(155, 114, 100)" opacity="1.0"/>
    <path d="M 438.7372131347656 584.4521484375 C 435.32049560546875 595.0 428.0 602.3204956054688 417.71099853515625 605.2391357421875 C 407.3019104003906 602.9393310546875 399.82562255859375 595.77978515625 397.10198974609375 585.7706909179688 C 400.2713623046875 574.6965942382812 407.7428283691406 567.403564453125 417.92724609375 564.586669921875 C 428.2763366699219 567.4420166015625 435.9112854003906 574.5865478515625 438.7372131347656 584.4521484375" stroke-width="0.0" fill="rgb(153, 98, 82)" opacity="1.0"/>
    <path d="M 176.953369140625 78.17218780517578 C 174.22479248046875 88.88041687011719 166.87767028808594 96.2183837890625 155.6023712158203 98.95132446289062 C 145.11705017089844 96.2250747680664 137.77806091308594 88.88172912597656 135.0477294921875 77.59658813476562 C 137.77581787109375 67.11831665039062 145.1185302734375 59.77641677856445 156.1199951171875 57.04909896850586 C 166.8875274658203 59.76983642578125 174.2218780517578 67.1162109375 176.953369140625 78.17218780517578" stroke-width="0.0" fill="rgb(68, 50, 47)" opacity="1.0"/>
    <path d="M 59.882423400878906 590.2672119140625 C 56.966495513916016 601.5014038085938 49.36250686645508 608.567138671875 38.94416046142578 611.1002197265625 C 28.462928771972656 608.7130126953125 20.860151290893555 601.6951904296875 18.039926528930664 590.2352294921875 C 20.75810432434082 580.1041259765625 28.117284774780273 572.7906494140625 39.77997970581055 570.048828125 C 49.90882110595703 572.7501831054688 57.2247428894043 580.1010131835938 59.882423400878906 590.2672119140625" stroke-width="0.0" fill="rgb(107, 71, 60)" opacity="1.0"/>
    <path d="M 64.90711975097656 76.19864654541016 C 62.088680267333984 87.80184936523438 54.84406280517578 95.20960235595703 44.83078384399414 97.90612030029297 C 34.0 94.32051086425781 26.67949104309082 87.0 23.24970054626465 76.30586242675781 C 25.832992553710938 66.17689514160156 33.192508697509766 58.88084030151367 44.7622184753418 56.105255126953125 C 54.89069747924805 58.7729377746582 62.22724533081055 66.10933685302734 64.90711975097656 76.19864654541016" stroke-width="0.0" fill="rgb(66, 49, 47)" opacity="1.0"/>
    <path d="M 408.9001770019531 549.5919799804688 C 406.1663513183594 559.8164672851562 398.8141174316406 567.1600341796875 387.5688781738281 569.913330078125 C 377.19049072265625 567.1686401367188 369.8657531738281 559.7958984375 367.2260437011719 549.6736450195312 C 370.67950439453125 539.0 378.0 531.6795043945312 387.89776611328125 529.1906127929688 C 398.3485412597656 531.6517944335938 406.0277099609375 538.4470825195312 408.9001770019531 549.5919799804688" stroke-width="0.0" fill="rgb(206, 135, 111)" opacity="1.0"/>
    <path d="M 450.00006103515625 540.0001220703125 C 447.32257080078125 550.0061645507812 440.0313415527344 557.408935546875 429.31097412109375 560.8338012695312 C 419.22869873046875 558.1317138671875 411.89483642578125 550.760986328125 409.0743408203125 539.2354736328125 C 411.77801513671875 529.1249389648438 419.13140869140625 521.7927856445312 429.18304443359375 519.102294921875 C 440.0 522.6795043945312 447.32049560546875 530.0 450.00006103515625 540.0001220703125" stroke-width="0.0" fill="rgb(178, 109, 90)" opacity="1.0"/>
    <path d="M 389.00213623046875 496.9945068359375 C 386.32049560546875 507.0 379.0 514.3204956054688 369.0 517.0 C 359.0 514.3204956054688 351.67950439453125 507.0 348.444580078125 496.4986572265625 C 350.94970703125 486.27081298828125 358.24188232421875 478.8705749511719 369.0040283203125 476.0706481933594 C 379.3660888671875 479.0660705566406 386.37451171875 486.86883544921875 389.00213623046875 496.9945068359375" stroke-width="0.0" fill="rgb(88, 58, 52)" opacity="0.9901164"/>
    <path d="M 530.8758544921875 485.2184753417969 C 527.3214111328125 496.000244140625 520.0 503.32049560546875 509.2001953125 506.8849792480469 C 499.15167236328125 504.1955261230469 491.7904968261719 496.8547668457031 489.07281494140625 486.81365966796875 C 492.2645568847656 475.7745056152344 499.90673828125 468.637451171875 510.41455078125 465.6043701171875 C 520.7476806640625 467.970458984375 528.1751098632812 475.2015075683594 530.8758544921875 485.2184753417969" stroke-width="0.0" fill="rgb(150, 101, 87)" opacity="1.0"/>
    <path d="M 537.5988159179688 33.23308181762695 C 535.0078735351562 43.68343734741211 527.7067260742188 51.07487487792969 517.1517944335938 53.85334396362305 C 506.45379638671875 51.0037956237793 499.3787536621094 43.4121208190918 496.9423522949219 33.084720611572266 C 499.6778259277344 22.995290756225586 506.980224609375 15.625336647033691 517.6807250976562 12.173797607421875 C 527.7069091796875 14.902064323425293 534.9422607421875 22.34733009338379 537.5988159179688 33.23308181762695" stroke-width="0.0" fill="rgb(185, 131, 109)" opacity="0.99094135"/>
    <path d="M 128.07766723632812 463.03839111328125 C 125.51336669921875 472.25823974609375 118.34909057617188 479.925048828125 109.56782531738281 483.82391357421875 C 98.99156188964844 480.3155822753906 91.5325698852539 473.0542907714844 88.15052032470703 462.3052062988281 C 90.84674072265625 452.18658447265625 98.17755126953125 444.8243408203125 108.21414947509766 442.13140869140625 C 118.24604034423828 446.4259948730469 125.50091552734375 453.7783203125 128.07766723632812 463.03839111328125" stroke-width="0.0" fill="rgb(149, 94, 75)" opacity="0.99001396"/>
    <path d="M 78.84260559082031 384.83905029296875 C 75.9705581665039 395.5102844238281 68.37989807128906 402.5963439941406 58.07564926147461 405.0525207519531 C 47.96358108520508 402.33416748046875 40.391136169433594 395.12811279296875 37.162139892578125 384.4295349121094 C 39.90910339355469 374.2631530761719 47.25275802612305 366.8842468261719 58.1322021484375 364.0945739746094 C 68.74925994873047 366.87890625 76.07028198242188 374.27081298828125 78.84260559082031 384.83905029296875" stroke-width="0.0" fill="rgb(182, 126, 105)" opacity="0.9901748"/>
    <path d="M 569.749267578125 28.869962692260742 C 566.9301147460938 39.5692024230957 559.5872802734375 46.97816467285156 548.6246337890625 49.85915756225586 C 538.2899169921875 47.08658218383789 531.035888671875 39.66923141479492 528.3637084960938 28.67909812927246 C 530.9508056640625 18.28685188293457 538.2780151367188 10.924530982971191 549.0716552734375 8.15414810180664 C 559.6697998046875 10.953824043273926 566.9957275390625 18.348783493041992 569.749267578125 28.869962692260742" stroke-width="0.0" fill="rgb(215, 154, 129)" opacity="0.9915196"/>
    <path d="M 445.5014953613281 595.7777099609375 C 442.47076416015625 606.0647583007812 435.02142333984375 613.3290405273438 425.00030517578125 616.0006103515625 C 414.9823303222656 613.3271484375 407.5279235839844 606.0619506835938 404.6257629394531 596.180908203125 C 407.6755676269531 585.9948120117188 414.9933166503906 578.6707153320312 425.2380676269531 575.778076171875 C 435.52655029296875 578.1739501953125 442.8879699707031 585.4546508789062 445.5014953613281 595.7777099609375" stroke-width="0.0" fill="rgb(145, 96, 83)" opacity="1.0"/>
    <path d="M 548.9505615234375 505.1910705566406 C 545.9332275390625 516.3535766601562 538.2008666992188 523.6611938476562 527.4058227539062 526.8165893554688 C 517.2335815429688 524.1188354492188 509.8620910644531 516.7741088867188 507.14886474609375 506.6987609863281 C 510.2720031738281 495.6434631347656 517.6838989257812 488.40576171875 528.8357543945312 485.1120300292969 C 538.9071655273438 487.7611389160156 546.2454223632812 495.09033203125 548.9505615234375 505.1910705566406" stroke-width="0.0" fill="rgb(107, 63, 54)" opacity="0.9900483"/>
    <path d="M 533.419189453125 573.5777587890625 C 530.3274536132812 584.0184936523438 523.048583984375 591.4271850585938 512.314453125 594.7265625 C 502.271484375 592.0925903320312 494.93792724609375 584.7179565429688 492.23956298828125 573.32958984375 C 494.8476867675781 563.195068359375 502.1917419433594 555.8391723632812 513.533935546875 553.0670776367188 C 523.7748413085938 555.8417358398438 531.0200805664062 563.2753295898438 533.419189453125 573.5777587890625" stroke-width="0.0" fill="rgb(22, 8, 7)" opacity="0.9900091"/>
    <path d="M 218.92588806152344 41.41037368774414 C 216.0408935546875 52.70341873168945 208.77053833007812 60.17661666870117 197.48226928710938 62.952877044677734 C 187.11062622070312 60.229061126708984 179.76878356933594 52.89020538330078 177.04385375976562 42.264556884765625 C 179.77481079101562 31.11582374572754 187.11790466308594 23.780282974243164 197.2037811279297 21.130231857299805 C 208.62051391601562 24.16813850402832 216.15191650390625 31.265804290771484 218.92588806152344 41.41037368774414" stroke-width="0.0" fill="rgb(65, 46, 43)" opacity="1.0"/>
    <path d="M 595.9492797851562 541.2741088867188 C 593.2144775390625 552.8727416992188 585.8609008789062 560.1807861328125 575.6786499023438 562.742431640625 C 564.4613647460938 559.7380981445312 556.9197998046875 552.653564453125 554.2190551757812 542.61865234375 C 557.4627075195312 531.8284301757812 564.7725219726562 524.3070678710938 575.6879272460938 521.1372680664062 C 585.8580932617188 523.8165893554688 593.2313232421875 531.1222534179688 595.9492797851562 541.2741088867188" stroke-width="0.0" fill="rgb(145, 93, 81)" opacity="1.0"/>
    <path d="M 574.7962036132812 81.69120025634766 C 571.9581909179688 92.58291625976562 564.5478515625 99.84963989257812 554.2673950195312 102.27017974853516 C 544.0 99.32051086425781 536.6795043945312 92.0 533.2503662109375 81.38584899902344 C 535.9406127929688 71.31498718261719 543.3269653320312 63.97176742553711 553.7777709960938 61.2115478515625 C 564.5956420898438 64.04481506347656 571.9925537109375 71.39038848876953 574.7962036132812 81.69120025634766" stroke-width="0.0" fill="rgb(206, 151, 126)" opacity="0.9904066"/>
    <path d="M 486.8354187011719 517.7599487304688 C 484.195556640625 527.86669921875 476.8782958984375 535.2247924804688 466.59149169921875 537.9501953125 C 455.2313537597656 535.1697387695312 448.0776062011719 527.6803588867188 445.76568603515625 517.2781372070312 C 448.67950439453125 507.0 456.0 499.67950439453125 466.0 497.0 C 476.0 499.67950439453125 483.32049560546875 507.0 486.8354187011719 517.7599487304688" stroke-width="0.0" fill="rgb(157, 102, 83)" opacity="1.0"/>
    <path d="M 132.1549835205078 210.18707275390625 C 129.65707397460938 219.4429931640625 122.53528594970703 226.93115234375 112.8577651977539 229.8837127685547 C 103.0 227.3205108642578 95.67948913574219 220.0 92.765380859375 209.73031616210938 C 95.10195922851562 199.35768127441406 102.28406524658203 191.8857421875 112.59135437011719 189.11131286621094 C 123.38018035888672 192.004638671875 129.6582794189453 200.36236572265625 132.1549835205078 210.18707275390625" stroke-width="0.0" fill="rgb(131, 133, 145)" opacity="0.9900333"/>
    <path d="M 586.0 373.0 C 583.3204956054688 382.99993896484375 575.9995727539062 390.31915283203125 565.6569213867188 393.4533996582031 C 555.5062866210938 390.8478698730469 548.2081298828125 383.4767761230469 545.6266479492188 373.07916259765625 C 548.6544799804688 362.9924011230469 555.999267578125 355.67926025390625 566.0 353.0 C 576.0 355.67950439453125 583.3204956054688 363.0 586.0 373.0" stroke-width="0.0" fill="rgb(241, 248, 250)" opacity="0.99231076"/>
    <path d="M 582.0598754882812 569.9032592773438 C 579.2471313476562 579.8724975585938 571.7605590820312 586.9197998046875 561.9960327148438 589.2229614257812 C 552.2855224609375 586.9212646484375 544.8411254882812 579.7916259765625 541.069580078125 569.12060546875 C 543.7498168945312 559.0875854492188 551.092529296875 551.7623291015625 561.1997680664062 549.0911865234375 C 572.4552612304688 552.0948486328125 579.5890502929688 559.65234375 582.0598754882812 569.9032592773438" stroke-width="0.0" fill="rgb(31, 29, 31)" opacity="0.99059767"/>
    <path d="M 452.0523681640625 108.9172134399414 C 449.32147216796875 119.00310516357422 442.02032470703125 126.38184356689453 431.6219482421875 129.72264099121094 C 421.833740234375 126.6747817993164 414.66070556640625 119.04917907714844 411.5350646972656 108.52230834960938 C 413.9284362792969 98.22136688232422 421.1824035644531 90.81573486328125 431.3861999511719 88.07646942138672 C 442.5960693359375 90.94073486328125 449.63232421875 98.5590591430664 452.0523681640625 108.9172134399414" stroke-width="0.0" fill="rgb(123, 86, 74)" opacity="1.0"/>
    <path d="M 343.9164733886719 469.6036682128906 C 341.14874267578125 480.7584228515625 333.6896057128906 487.94775390625 323.31317138671875 490.278076171875 C 312.9986572265625 487.3209228515625 305.64794921875 480.0100402832031 302.1364440917969 469.2411193847656 C 304.822021484375 459.17431640625 312.1735534667969 451.81982421875 323.6841735839844 449.0520324707031 C 333.8863830566406 451.7688903808594 341.207763671875 459.1229248046875 343.9164733886719 469.6036682128906" stroke-width="0.0" fill="rgb(159, 101, 80)" opacity="1.0"/>
    <path d="M 326.93505859375 180.9304656982422 C 324.183349609375 191.8229522705078 316.8122863769531 199.1588897705078 306.8578186035156 200.57826232910156 C 296.8106689453125 197.47544860839844 289.5150451660156 190.19322204589844 286.92108154296875 180.751220703125 C 289.4565124511719 171.5852813720703 295.6462707519531 162.9141387939453 306.4526672363281 160.06076049804688 C 316.8489074707031 162.801513671875 324.1937561035156 170.15318298339844 326.93505859375 180.9304656982422" stroke-width="0.0" fill="rgb(105, 90, 94)" opacity="0.9900127"/>
    <path d="M 129.52392578125 230.68968200683594 C 126.76421356201172 240.5233612060547 119.57005310058594 247.90380859375 109.40910339355469 251.68093872070312 C 99.32649230957031 249.0320281982422 91.9697036743164 241.67294311523438 89.31891632080078 231.5478057861328 C 92.67513275146484 220.99891662597656 100.00181579589844 213.68565368652344 110.3475570678711 210.58236694335938 C 120.43270874023438 213.15731811523438 127.4496841430664 220.6723175048828 129.52392578125 230.68968200683594" stroke-width="0.0" fill="rgb(154, 162, 176)" opacity="0.99005"/>
    <path d="M 433.4225769042969 117.44435119628906 C 431.05450439453125 127.77293395996094 423.8205871582031 135.19178771972656 413.7989501953125 137.88262939453125 C 403.00238037109375 134.31907653808594 395.6846923828125 126.99652099609375 392.3499755859375 116.3832015991211 C 394.8624267578125 106.18391418457031 402.16705322265625 98.81484985351562 412.3373107910156 96.0857925415039 C 423.2919921875 99.14911651611328 430.3580627441406 106.90248107910156 433.4225769042969 117.44435119628906" stroke-width="0.0" fill="rgb(116, 81, 73)" opacity="1.0"/>
    <path d="M 525.5768432617188 363.01361083984375 C 522.6968383789062 373.2909240722656 515.2240600585938 380.4730529785156 504.96636962890625 383.3304443359375 C 494.72393798828125 380.60919189453125 487.4653015136719 373.2563781738281 484.784912109375 362.7457580566406 C 487.3228759765625 352.6885986328125 494.70770263671875 345.3790588378906 504.997802734375 342.35150146484375 C 515.302001953125 345.34820556640625 522.6910400390625 352.6853942871094 525.5768432617188 363.01361083984375" stroke-width="0.0" fill="rgb(238, 247, 253)" opacity="0.99055415"/>
    <path d="M 335.88330078125 486.7835693359375 C 333.1931457519531 496.8437194824219 325.8388671875 504.18145751953125 315.1424255371094 506.9265441894531 C 304.17242431640625 504.1758728027344 296.8223876953125 496.82830810546875 294.0778503417969 486.2254333496094 C 296.8433837890625 475.2196960449219 304.2693176269531 467.98956298828125 314.6101989746094 465.6300048828125 C 325.0068664550781 468.673095703125 332.3952331542969 475.973388671875 335.88330078125 486.7835693359375" stroke-width="0.0" fill="rgb(163, 102, 84)" opacity="1.0"/>
    <path d="M 235.9406280517578 100.34488677978516 C 233.00881958007812 110.59872436523438 224.24436950683594 117.4610595703125 214.22146606445312 120.06072235107422 C 204.18984985351562 119.06095123291016 196.79066467285156 111.85157012939453 194.04721069335938 100.50838470458984 C 196.77471923828125 90.11599731445312 204.1158447265625 82.77462005615234 214.67465209960938 80.05137634277344 C 225.8741912841797 82.7851791381836 233.2161102294922 90.12530517578125 235.9406280517578 100.34488677978516" stroke-width="0.0" fill="rgb(78, 60, 57)" opacity="0.9900664"/>
    <path d="M 410.92291259765625 442.6173400878906 C 408.203369140625 452.8687438964844 400.87945556640625 460.22821044921875 390.6029357910156 462.9527282714844 C 379.1614685058594 460.1950378417969 371.8188781738281 452.83209228515625 369.08026123046875 442.61187744140625 C 371.8852844238281 431.23687744140625 379.2355651855469 423.8824768066406 389.5564880371094 421.16571044921875 C 400.6856384277344 423.9817810058594 408.1051940917969 431.2802429199219 410.92291259765625 442.6173400878906" stroke-width="0.0" fill="rgb(152, 108, 94)" opacity="1.0"/>
    <path d="M 440.931640625 158.97418212890625 C 438.19384765625 169.84527587890625 430.8383483886719 177.17697143554688 419.8825988769531 179.92703247070312 C 409.15472412109375 177.19175720214844 401.8077087402344 169.84535217285156 399.0724792480469 159.34796142578125 C 401.80938720703125 148.1453857421875 409.1370544433594 140.78884887695312 419.8169860839844 138.0557861328125 C 430.858154296875 140.7928466796875 438.1907958984375 148.1487274169922 440.931640625 158.97418212890625" stroke-width="0.0" fill="rgb(118, 88, 82)" opacity="1.0"/>
    <path d="M 136.41421508789062 521.6697387695312 C 135.1111297607422 531.8169555664062 127.8515625 539.2116088867188 117.57270050048828 541.9436645507812 C 106.17384338378906 539.1765747070312 98.83856964111328 531.8202514648438 96.0936050415039 520.9053344726562 C 98.8480453491211 510.1921081542969 106.18627166748047 502.8340759277344 116.25662231445312 500.1435852050781 C 126.39661407470703 504.2855529785156 133.6470947265625 511.6244812011719 136.41421508789062 521.6697387695312" stroke-width="0.0" fill="rgb(193, 129, 104)" opacity="1.0"/>
    <path d="M 445.9144592285156 209.43421936035156 C 443.1666564941406 219.80711364746094 435.79559326171875 227.1377716064453 425.583251953125 229.80511474609375 C 414.2734375 227.01683044433594 406.85150146484375 219.77223205566406 404.08392333984375 208.7949981689453 C 406.83319091796875 198.182373046875 414.1817321777344 190.83139038085938 424.8631591796875 188.08221435546875 C 435.81298828125 190.83584594726562 443.155029296875 198.19058227539062 445.9144592285156 209.43421936035156" stroke-width="0.0" fill="rgb(126, 107, 110)" opacity="1.0"/>
    <path d="M 108.23441314697266 209.77963256835938 C 105.34469604492188 219.99783325195312 97.97651672363281 227.27244567871094 87.87454986572266 230.2986297607422 C 78.42852020263672 227.04559326171875 71.3115234375 219.4682159423828 68.80838775634766 209.49880981445312 C 70.04339599609375 199.29458618164062 77.23787689208984 191.85906982421875 87.59400177001953 189.09146118164062 C 98.68248748779297 191.91128540039062 105.85726928710938 199.39649963378906 108.23441314697266 209.77963256835938" stroke-width="0.0" fill="rgb(136, 138, 153)" opacity="0.9900468"/>
    <path d="M 399.0030517578125 499.9944763183594 C 396.2904968261719 509.9615173339844 388.95440673828125 517.2662963867188 378.97735595703125 519.9712524414062 C 369.0 517.3204956054688 361.67950439453125 510.0 359.1576232910156 500.1214599609375 C 361.9217529296875 490.195556640625 369.1615295410156 482.8106994628906 379.0394287109375 480.0320739746094 C 389.0 482.67950439453125 396.32049560546875 490.0 399.0030517578125 499.9944763183594" stroke-width="0.0" fill="rgb(38, 28, 26)" opacity="0.993037"/>
    <path d="M 460.9980773925781 341.01129150390625 C 458.3660583496094 351.0612487792969 451.08538818359375 358.4466857910156 441.121337890625 361.3939208984375 C 430.7414245605469 358.5838317871094 423.39385986328125 351.26513671875 420.8144226074219 341.1412353515625 C 423.67950439453125 331.0 431.0 323.67950439453125 441.2031555175781 320.6873779296875 C 451.1905822753906 323.3770446777344 458.36572265625 330.8914794921875 460.9980773925781 341.01129150390625" stroke-width="0.0" fill="rgb(228, 241, 247)" opacity="0.99098474"/>
    <path d="M 485.91278076171875 41.933780670166016 C 483.1649475097656 52.82229995727539 475.82574462890625 60.173500061035156 464.75909423828125 62.91877746582031 C 454.1640930175781 60.183414459228516 446.82330322265625 52.833152770996094 444.0858154296875 42.33488464355469 C 446.85009765625 31.208908081054688 454.214599609375 23.86338996887207 465.49090576171875 21.080045700073242 C 475.81427001953125 23.824909210205078 483.1495056152344 31.19682502746582 485.91278076171875 41.933780670166016" stroke-width="0.0" fill="rgb(145, 99, 82)" opacity="1.0"/>
    <path d="M 46.92734146118164 100.75152587890625 C 44.217315673828125 110.880126953125 36.88320541381836 118.22467803955078 26.456214904785156 120.94587707519531 C 15.134712219238281 118.20596313476562 7.782181262969971 110.87049865722656 5.063401699066162 100.74140167236328 C 8.011482238769531 89.53910827636719 15.754993438720703 82.5531997680664 25.98330307006836 79.98994445800781 C 36.085628509521484 82.64669799804688 43.83388137817383 89.72570037841797 46.92734146118164 100.75152587890625" stroke-width="0.0" fill="rgb(75, 59, 58)" opacity="1.0"/>
    <path d="M 98.00000762939453 115.00003051757812 C 95.3212661743164 125.00241088867188 88.0185775756836 132.37820434570312 77.2269058227539 135.8749237060547 C 67.14083099365234 133.19691467285156 59.7894401550293 125.86479187011719 57.05404281616211 114.67998504638672 C 59.78666687011719 104.14778900146484 67.18492126464844 96.893798828125 77.47945404052734 94.499267578125 C 87.9999771118164 97.67957305908203 95.32051086425781 105.0 98.00000762939453 115.00003051757812" stroke-width="0.0" fill="rgb(76, 59, 58)" opacity="1.0"/>
    <path d="M 374.97113037109375 324.7870788574219 C 372.2276306152344 335.00555419921875 365.040283203125 342.3327331542969 354.69879150390625 345.39312744140625 C 344.6588134765625 342.67572021484375 337.2853088378906 335.35455322265625 334.52410888671875 325.1969909667969 C 337.452880859375 314.7835388183594 344.794921875 307.4902038574219 355.3215026855469 304.6315612792969 C 365.35455322265625 307.245849609375 372.6670227050781 314.67352294921875 374.97113037109375 324.7870788574219" stroke-width="0.0" fill="rgb(214, 227, 237)" opacity="0.9910756"/>
    <path d="M 369.8379821777344 260.50213623046875 C 366.99493408203125 271.6401062011719 359.6431884765625 279.0048828125 349.04827880859375 281.7994689941406 C 338.313232421875 279.0403747558594 330.9724426269531 271.68194580078125 328.2006530761719 260.8708801269531 C 330.9512939453125 250.2983856201172 338.28192138671875 242.90907287597656 348.7238464355469 240.15386962890625 C 359.7313232421875 242.91888427734375 367.0964660644531 250.26315307617188 369.8379821777344 260.50213623046875" stroke-width="0.0" fill="rgb(149, 159, 175)" opacity="0.9933894"/>
    <path d="M 32.21199417114258 350.74169921875 C 29.32050895690918 361.0 22.0 368.32049560546875 11.705794334411621 371.3574523925781 C 1.5729289054870605 368.81396484375 -5.637296676635742 361.3721008300781 -8.272696495056152 350.80133056640625 C -5.928843975067139 340.3035888671875 1.2157760858535767 332.81915283203125 11.8992919921875 330.05322265625 C 22.766773223876953 332.82843017578125 29.90517234802246 340.32879638671875 32.21199417114258 350.74169921875" stroke-width="0.0" fill="rgb(163, 136, 133)" opacity="1.0"/>
    <path d="M 57.28240966796875 42.30895233154297 C 54.921302795410156 52.63369369506836 47.66313552856445 60.017303466796875 36.26382827758789 62.8729248046875 C 26.126733779907227 60.20895767211914 18.77878761291504 52.87809371948242 16.04792594909668 41.71937942504883 C 18.772790908813477 31.10947608947754 26.10586166381836 23.764341354370117 36.137088775634766 21.074731826782227 C 46.99913024902344 24.680431365966797 54.31964874267578 32.00083923339844 57.28240966796875 42.30895233154297" stroke-width="0.0" fill="rgb(59, 43, 41)" opacity="1.0"/>
    <path d="M 382.3151550292969 196.23167419433594 C 379.70098876953125 206.2884521484375 372.21722412109375 213.47593688964844 361.4913635253906 216.55845642089844 C 351.23944091796875 214.0748291015625 343.8429260253906 206.79014587402344 341.0824279785156 196.1512451171875 C 343.82904052734375 185.1900634765625 351.22100830078125 177.91969299316406 361.49798583984375 175.49612426757812 C 371.9997863769531 178.67962646484375 379.3200988769531 186.0002899169922 382.3151550292969 196.23167419433594" stroke-width="0.0" fill="rgb(116, 98, 102)" opacity="1.0"/>
    <path d="M 479.9286193847656 587.744140625 C 477.1459045410156 598.743408203125 469.6572265625 605.8967895507812 459.15911865234375 608.2821655273438 C 448.61767578125 605.6657104492188 441.22357177734375 598.4160766601562 438.1852111816406 587.32373046875 C 440.8487854003906 577.19873046875 448.19354248046875 569.8358764648438 459.1336975097656 567.0702514648438 C 469.8468322753906 569.8087768554688 477.1905517578125 577.1534423828125 479.9286193847656 587.744140625" stroke-width="0.0" fill="rgb(144, 94, 82)" opacity="1.0"/>
    <path d="M 523.8888549804688 466.2218933105469 C 520.342041015625 476.70953369140625 512.5553588867188 483.75006103515625 502.55120849609375 486.24267578125 C 492.2873840332031 484.92523193359375 484.8179931640625 477.79278564453125 482.03729248046875 466.26898193359375 C 484.7486877441406 456.0875549316406 492.0931091308594 448.7622375488281 502.2933654785156 446.0663757324219 C 513.805419921875 448.8446350097656 521.1827392578125 456.1817932128906 523.8888549804688 466.2218933105469" stroke-width="0.0" fill="rgb(43, 41, 42)" opacity="0.99002916"/>
    <path d="M 470.0176086425781 510.9680480957031 C 467.3223876953125 521.0054931640625 460.0192565917969 528.3702392578125 450.0555114746094 531.1331787109375 C 440.0 528.3204956054688 432.67950439453125 521.0 430.0 511.0 C 432.67950439453125 501.0 440.0 493.67950439453125 450.598876953125 490.22015380859375 C 460.4461975097656 493.0497741699219 467.4815673828125 500.7283630371094 470.0176086425781 510.9680480957031" stroke-width="0.0" fill="rgb(161, 107, 89)" opacity="1.0"/>
    <path d="M 126.06548309326172 274.34259033203125 C 123.6809310913086 284.41650390625 116.50615692138672 291.9428405761719 106.22891998291016 294.8039245605469 C 95.29120635986328 292.0103454589844 87.85983276367188 284.7569885253906 85.16814422607422 274.6714782714844 C 88.18860626220703 263.5279541015625 95.49610137939453 256.0968322753906 105.88141632080078 253.22938537597656 C 116.28418731689453 256.1942443847656 123.07465362548828 263.97357177734375 126.06548309326172 274.34259033203125" stroke-width="0.0" fill="rgb(191, 209, 220)" opacity="1.0"/>
    <path d="M 606.0863037109375 334.0968322753906 C 603.5938110351562 344.31817626953125 596.3733520507812 351.7685241699219 585.9077758789062 354.64410400390625 C 575.69970703125 351.7221984863281 568.51025390625 344.2276306152344 566.1411743164062 334.1114807128906 C 568.672119140625 323.9732666015625 575.9706420898438 316.6583251953125 585.9948120117188 313.9965515136719 C 596.0 316.67950439453125 603.3204956054688 324.0 606.0863037109375 334.0968322753906" stroke-width="0.0" fill="rgb(216, 230, 240)" opacity="0.99063545"/>
    <path d="M 492.9230651855469 505.3530578613281 C 490.08441162109375 516.65576171875 482.54443359375 523.7638549804688 472.15716552734375 526.1157836914062 C 462.0 523.3204956054688 454.67950439453125 516.0 451.6751403808594 505.6423645019531 C 454.0145568847656 495.2851867675781 461.2261657714844 487.8426818847656 472.605224609375 485.0656433105469 C 482.87750244140625 487.77960205078125 490.2052917480469 495.128662109375 492.9230651855469 505.3530578613281" stroke-width="0.0" fill="rgb(94, 60, 48)" opacity="0.9901871"/>
    <path d="M 390.9037170410156 171.1972198486328 C 387.4194030761719 182.03076171875 379.9991455078125 189.3118896484375 369.97186279296875 191.95303344726562 C 359.73773193359375 189.4671173095703 352.0509338378906 182.44168090820312 349.0882263183594 171.32656860351562 C 351.80938720703125 161.15199279785156 359.14813232421875 153.80027770996094 369.7218933105469 151.0679168701172 C 380.84326171875 153.81259155273438 388.2002258300781 161.15138244628906 390.9037170410156 171.1972198486328" stroke-width="0.0" fill="rgb(109, 85, 85)" opacity="1.0"/>
    <path d="M 250.93130493164062 521.536865234375 C 248.19827270507812 531.846435546875 240.84130859375 539.186767578125 230.78868103027344 541.8786010742188 C 220.00062561035156 538.318359375 212.67950439453125 530.9999389648438 209.43603515625 520.4830322265625 C 211.93276977539062 510.24969482421875 219.2175750732422 502.845947265625 229.74517822265625 500.0864562988281 C 240.81666564941406 502.838623046875 248.17007446289062 510.1798095703125 250.93130493164062 521.536865234375" stroke-width="0.0" fill="rgb(141, 88, 73)" opacity="0.9902697"/>
    <path d="M 222.71365356445312 529.9608154296875 C 220.26971435546875 539.978515625 212.99227905273438 547.3170776367188 203.30899047851562 549.5670776367188 C 193.41357421875 546.8508911132812 186.13150024414062 539.5928955078125 183.64968872070312 529.9194946289062 C 186.0294189453125 520.2164306640625 193.0540313720703 512.5028076171875 203.06011962890625 510.5681457519531 C 213.42379760742188 512.1717529296875 220.50425720214844 519.6715698242188 222.71365356445312 529.9608154296875" stroke-width="0.0" fill="rgb(118, 105, 106)" opacity="0.9904681"/>
    <path d="M 438.84637451171875 244.75372314453125 C 436.06842041015625 255.7161407470703 428.71807861328125 263.073486328125 418.32025146484375 265.81402587890625 C 407.3537902832031 262.98370361328125 399.9235534667969 255.68264770507812 397.1172180175781 244.984130859375 C 399.8746337890625 234.21363830566406 407.2001953125 226.84104919433594 417.3490295410156 224.15530395507812 C 428.712158203125 226.97474670410156 436.10137939453125 234.26205444335938 438.84637451171875 244.75372314453125" stroke-width="0.0" fill="rgb(141, 139, 153)" opacity="1.0"/>
    <path d="M 488.1769104003906 510.2978515625 C 485.5539855957031 520.1373291015625 478.07843017578125 527.3668823242188 468.010009765625 530.0013427734375 C 457.96484375 527.3509521484375 450.643310546875 520.0366821289062 447.9862060546875 510.0094299316406 C 450.668212890625 499.9835510253906 457.9678039550781 492.61370849609375 467.8780212402344 489.6963195800781 C 477.7748107910156 492.9113464355469 485.0533142089844 500.23394775390625 488.1769104003906 510.2978515625" stroke-width="0.0" fill="rgb(154, 96, 81)" opacity="0.9901872"/>
    <path d="M 269.3437194824219 24.608171463012695 C 266.32049560546875 35.0 259.0 42.32050704956055 248.3366241455078 45.6970329284668 C 238.1510467529297 43.167232513427734 230.78140258789062 35.86781692504883 228.0436248779297 24.529165267944336 C 230.75958251953125 14.098066329956055 238.0986328125 6.760767936706543 248.28271484375 4.046988487243652 C 259.8114318847656 6.814842224121094 267.0261535644531 14.24183177947998 269.3437194824219 24.608171463012695" stroke-width="0.0" fill="rgb(70, 49, 44)" opacity="1.0"/>
    <path d="M 549.7252807617188 581.53076171875 C 546.961669921875 591.9237670898438 540.2542724609375 599.7858276367188 529.6912231445312 602.703369140625 C 519.3992309570312 599.9865112304688 512.10009765625 592.5693359375 509.4686584472656 582.3952026367188 C 512.6285400390625 571.9026489257812 519.7728271484375 564.2590942382812 530.8168334960938 561.0570068359375 C 540.823486328125 563.79248046875 547.9942626953125 571.2509155273438 549.7252807617188 581.53076171875" stroke-width="0.0" fill="rgb(59, 31, 27)" opacity="0.99004257"/>
    <path d="M 34.821407318115234 223.7683563232422 C 31.96531105041504 234.5629119873047 24.51521110534668 241.8275146484375 13.680108070373535 244.681640625 C 3.5379412174224854 241.87501525878906 -3.682077407836914 234.39889526367188 -6.312320709228516 223.85691833496094 C -3.85941481590271 213.40858459472656 3.336397171020508 205.9307861328125 13.804893493652344 203.13490295410156 C 24.7355899810791 205.91226196289062 32.08141326904297 213.26651000976562 34.821407318115234 223.7683563232422" stroke-width="0.0" fill="rgb(154, 167, 181)" opacity="1.0"/>
    <path d="M 82.85527038574219 295.4310302734375 C 80.05615234375 305.6831359863281 72.6868896484375 313.0657653808594 61.478824615478516 315.9112243652344 C 51.1984977722168 313.17022705078125 43.929534912109375 305.7652587890625 41.398441314697266 295.5326232910156 C 44.683223724365234 285.00115966796875 52.00015640258789 277.6795654296875 62.00658416748047 274.9970397949219 C 72.10669708251953 277.6307067871094 79.78107452392578 284.7429504394531 82.85527038574219 295.4310302734375" stroke-width="0.0" fill="rgb(149, 151, 170)" opacity="1.0"/>
    <path d="M 584.99169921875 364.009521484375 C 582.3204956054688 374.0 575.0 381.32049560546875 565.00146484375 383.997802734375 C 555.0062255859375 381.3162841796875 547.7298583984375 373.9805908203125 544.8167724609375 363.8449401855469 C 547.3584594726562 353.7288513183594 554.7340087890625 346.3677673339844 564.8524780273438 343.5160217285156 C 574.9934692382812 346.62615966796875 582.290771484375 354.0294494628906 584.99169921875 364.009521484375" stroke-width="0.0" fill="rgb(233, 245, 250)" opacity="0.9917542"/>
    <path d="M 363.8395080566406 67.7680892944336 C 361.198486328125 77.86181640625 353.8671569824219 85.21190643310547 342.73883056640625 87.9463119506836 C 332.1199951171875 85.22198486328125 324.7804870605469 77.8788070678711 322.0530090332031 67.2571029663086 C 324.7832336425781 56.123939514160156 332.122802734375 48.78036880493164 342.1738586425781 46.090843200683594 C 353.01812744140625 49.623592376708984 360.3212890625 56.997528076171875 363.8395080566406 67.7680892944336" stroke-width="0.0" fill="rgb(93, 63, 53)" opacity="1.0"/>
    <path d="M 228.9574737548828 12.49833869934082 C 226.2316131591797 22.889432907104492 218.8843231201172 30.218360900878906 208.77606201171875 32.85432815551758 C 197.28607177734375 29.935955047607422 189.79983520507812 22.806026458740234 187.04214477539062 11.844528198242188 C 189.81289672851562 1.2136359214782715 197.3087158203125 -5.921966075897217 208.07089233398438 -8.370893478393555 C 218.73065185546875 -5.967391490936279 226.19970703125 1.188772201538086 228.9574737548828 12.49833869934082" stroke-width="0.0" fill="rgb(65, 45, 42)" opacity="1.0"/>
    <path d="M 472.3542785644531 123.76496124267578 C 469.31378173828125 133.99514770507812 461.995849609375 141.31625366210938 451.7115173339844 144.25035095214844 C 441.340087890625 141.91847229003906 433.88818359375 134.72377014160156 431.2471923828125 124.656005859375 C 434.682861328125 114.0017318725586 442.0009460449219 106.6800537109375 452.0142822265625 103.99235534667969 C 462.1273498535156 106.60631561279297 469.6518249511719 113.788818359375 472.3542785644531 123.76496124267578" stroke-width="0.0" fill="rgb(131, 94, 82)" opacity="1.0"/>
    <path d="M 444.30316162109375 324.75836181640625 C 441.3150329589844 334.9884338378906 433.98138427734375 342.2906188964844 423.897216796875 344.9126281738281 C 413.68780517578125 342.62261962890625 406.2991027832031 335.3349609375 403.408935546875 324.8741455078125 C 406.15557861328125 314.52880859375 413.5593566894531 307.2503662109375 424.1114196777344 304.65362548828125 C 434.4269104003906 307.2414245605469 441.7734069824219 314.56854248046875 444.30316162109375 324.75836181640625" stroke-width="0.0" fill="rgb(213, 224, 236)" opacity="0.9922482"/>
    <path d="M 397.6153259277344 533.4820556640625 C 394.5335693359375 543.2206420898438 387.2058410644531 550.491455078125 377.6163635253906 553.0872192382812 C 368.655517578125 550.5653686523438 360.716064453125 543.49365234375 357.1973876953125 534.54541015625 C 360.6789855957031 523.9998779296875 368.0 516.6795043945312 378.0 514.0 C 388.0 516.6795043945312 395.3201904296875 524.0000610351562 397.6153259277344 533.4820556640625" stroke-width="0.0" fill="rgb(7, 8, 6)" opacity="0.99017566"/>
    <path d="M 101.85897827148438 114.21666717529297 C 98.46060180664062 125.26103210449219 91.46636199951172 132.98587036132812 81.61743927001953 135.83253479003906 C 70.97251892089844 132.40321350097656 63.678794860839844 125.00372314453125 61.00054931640625 114.99964904785156 C 63.679168701171875 104.99964141845703 70.9996109008789 97.6790771484375 81.58650970458984 94.40088653564453 C 91.82202911376953 96.86874389648438 99.19905090332031 104.15438079833984 101.85897827148438 114.21666717529297" stroke-width="0.0" fill="rgb(76, 62, 59)" opacity="1.0"/>
    <path d="M 502.8049621582031 265.242431640625 C 500.002685546875 275.6206359863281 492.5992736816406 282.94512939453125 481.65850830078125 285.76995849609375 C 471.34820556640625 283.0158996582031 463.9937438964844 275.6490478515625 461.2012634277344 264.6250305175781 C 463.9149475097656 254.2803497314453 471.2936096191406 246.94932556152344 481.4467468261719 244.33547973632812 C 492.07861328125 247.6460723876953 499.7314147949219 254.7863311767578 502.8049621582031 265.242431640625" stroke-width="0.0" fill="rgb(154, 160, 172)" opacity="0.99048805"/>
    <path d="M 74.85132598876953 399.6756896972656 C 72.16429901123047 409.8258972167969 64.83570861816406 417.1885986328125 54.47750473022461 419.9211730957031 C 43.19244384765625 417.16131591796875 35.853790283203125 409.80133056640625 33.107704162597656 399.467041015625 C 35.968963623046875 388.4172058105469 43.5454216003418 381.3381652832031 53.8865966796875 379.00811767578125 C 64.01544952392578 381.6979064941406 71.58069610595703 388.8934631347656 74.85132598876953 399.6756896972656" stroke-width="0.0" fill="rgb(169, 116, 99)" opacity="1.0"/>
    <path d="M 475.9154052734375 106.10155487060547 C 473.1071472167969 116.66969299316406 465.5396728515625 123.74435424804688 455.1419372558594 126.09810638427734 C 445.0038757324219 123.31639862060547 437.6857604980469 115.99549102783203 434.7036437988281 105.6576919555664 C 437.0244140625 95.28775024414062 444.2227478027344 87.83613586425781 454.85772705078125 85.07173919677734 C 465.817138671875 87.82839965820312 473.1572570800781 95.18873596191406 475.9154052734375 106.10155487060547" stroke-width="0.0" fill="rgb(135, 92, 82)" opacity="0.997634"/>
    <path d="M 55.87877655029297 521.0919189453125 C 53.12701416015625 531.7733154296875 45.773956298828125 539.1290283203125 34.55562210083008 541.9086303710938 C 24.207592010498047 539.1563110351562 16.857202529907227 531.7865600585938 14.09221076965332 521.1443481445312 C 16.864948272705078 510.2127380371094 24.201326370239258 502.83856201171875 34.72235107421875 500.09051513671875 C 45.78171920776367 502.8580322265625 53.11572265625 510.2286682128906 55.87877655029297 521.0919189453125" stroke-width="0.0" fill="rgb(211, 145, 121)" opacity="1.0"/>
    <path d="M 238.88241577148438 554.4784545898438 C 236.0852508544922 565.7420654296875 228.763916015625 573.1383056640625 217.54689025878906 575.9216918945312 C 207.19566345214844 573.1681518554688 199.8609161376953 565.7920532226562 197.13369750976562 555.634521484375 C 200.4477081298828 545.169921875 208.32586669921875 538.0840454101562 218.48143005371094 534.86083984375 C 228.72230529785156 537.0047607421875 236.15457153320312 544.2237548828125 238.88241577148438 554.4784545898438" stroke-width="0.0" fill="rgb(173, 110, 90)" opacity="1.0"/>
    <path d="M 608.9981079101562 319.997314453125 C 606.3089599609375 329.9823913574219 598.9712524414062 337.271240234375 589.005615234375 339.83807373046875 C 579.0352783203125 337.2602844238281 571.6594848632812 329.9878845214844 568.3649291992188 319.5634460449219 C 571.0826416015625 309.44036865234375 578.4390869140625 302.0814514160156 588.6122436523438 299.52825927734375 C 599.0 302.67950439453125 606.3204956054688 310.0 608.9981079101562 319.997314453125" stroke-width="0.0" fill="rgb(199, 214, 227)" opacity="1.0"/>
    <path d="M 463.1535339355469 507.74053955078125 C 460.239990234375 518.0125732421875 453.07745361328125 525.4547119140625 442.66387939453125 528.3698120117188 C 432.2326354980469 526.018310546875 424.7844543457031 518.8363037109375 422.04083251953125 508.43060302734375 C 424.80059814453125 497.1603088378906 432.173828125 489.83233642578125 442.4342956542969 487.1014099121094 C 453.49603271484375 490.0206298828125 460.6391906738281 497.63946533203125 463.1535339355469 507.74053955078125" stroke-width="0.0" fill="rgb(108, 75, 64)" opacity="1.0"/>
    <path d="M 284.940673828125 504.46435546875 C 282.1989440917969 515.860107421875 274.8622741699219 523.2047729492188 264.4024963378906 525.934814453125 C 253.1709747314453 523.1798095703125 245.8256072998047 515.82666015625 243.07833862304688 505.3777160644531 C 245.85269165039062 494.2030944824219 253.1979522705078 486.8406677246094 263.6488342285156 484.0986022949219 C 274.83319091796875 486.8400573730469 282.21002197265625 494.14678955078125 284.940673828125 504.46435546875" stroke-width="0.0" fill="rgb(155, 97, 78)" opacity="0.99237764"/>
    <path d="M 592.8953247070312 368.9814453125 C 590.3201904296875 378.9999084472656 583.0 386.32049560546875 572.9998168945312 389.0000915527344 C 562.9987182617188 386.32135009765625 555.6763305664062 379.0019836425781 552.9998779296875 369.0042419433594 C 555.6851196289062 359.0054626464844 563.00634765625 351.6883239746094 573.2329711914062 348.66107177734375 C 583.2760009765625 351.3255920410156 590.4942626953125 358.7787780761719 592.8953247070312 368.9814453125" stroke-width="0.0" fill="rgb(238, 246, 249)" opacity="0.9924289"/>
    <path d="M 384.94573974609375 50.554996490478516 C 382.2198486328125 60.87446212768555 374.8719177246094 68.21379852294922 364.81500244140625 70.89517211914062 C 353.997314453125 67.3343505859375 346.682861328125 59.997947692871094 343.1512145996094 49.220462799072266 C 345.7967529296875 39.13701248168945 353.1345520019531 31.79037094116211 363.846923828125 29.058349609375 C 374.8695373535156 31.78862953186035 382.2054138183594 39.132904052734375 384.94573974609375 50.554996490478516" stroke-width="0.0" fill="rgb(98, 65, 56)" opacity="1.0"/>
    <path d="M 615.0081176757812 572.9955444335938 C 612.37646484375 583.1231079101562 605.290771484375 590.8239135742188 594.3023071289062 593.9208374023438 C 584.336181640625 591.1139526367188 577.312744140625 583.5108032226562 575.6950073242188 573.1983032226562 C 577.1495361328125 562.298095703125 584.1920166015625 554.7965087890625 594.2474365234375 552.048583984375 C 605.4521484375 554.998779296875 612.4142456054688 562.7965087890625 615.0081176757812 572.9955444335938" stroke-width="0.0" fill="rgb(142, 86, 64)" opacity="1.0"/>
    <path d="M 108.926513671875 485.8338928222656 C 106.21328735351562 495.857421875 98.84368896484375 503.18194580078125 87.45860290527344 505.9347839355469 C 77.11087799072266 503.224853515625 69.77178955078125 495.8904113769531 67.06246185302734 485.7239685058594 C 69.84100341796875 474.1957092285156 77.1986312866211 466.84722900390625 87.26899719238281 464.15380859375 C 97.81377410888672 467.87823486328125 105.2515640258789 475.15252685546875 108.926513671875 485.8338928222656" stroke-width="0.0" fill="rgb(114, 76, 65)" opacity="0.9902526"/>
    <path d="M 523.0230102539062 27.90520668029785 C 520.3096313476562 37.997371673583984 513.0166625976562 45.37628936767578 502.2473449707031 48.86399459838867 C 492.18853759765625 46.16524124145508 484.84747314453125 38.806400299072266 482.0959167480469 27.97662353515625 C 484.8502197265625 17.199935913085938 492.19708251953125 9.843027114868164 502.4053955078125 7.104973316192627 C 513.5511474609375 9.997306823730469 520.6345825195312 17.576093673706055 523.0230102539062 27.90520668029785" stroke-width="0.0" fill="rgb(172, 120, 99)" opacity="1.0"/>
    <path d="M 605.1885986328125 386.1117248535156 C 602.6373291015625 396.2993469238281 595.2896728515625 403.6062927246094 584.6093139648438 406.6549377441406 C 574.6150512695312 403.8378601074219 567.4207153320312 396.29437255859375 564.8646850585938 386.10833740234375 C 567.6798095703125 376.0004577636719 575.0007934570312 368.6810302734375 585.083740234375 365.9007873535156 C 595.1537475585938 368.498291015625 602.4426879882812 375.8642272949219 605.1885986328125 386.1117248535156" stroke-width="0.0" fill="rgb(242, 248, 249)" opacity="1.0"/>
    <path d="M 80.80927276611328 286.3085021972656 C 77.24698638916016 296.91949462890625 69.89913177490234 304.17913818359375 60.035648345947266 306.60919189453125 C 50.05357360839844 304.1632080078125 42.32834243774414 297.1307067871094 39.1536750793457 286.40521240234375 C 41.90082931518555 276.2879943847656 49.345672607421875 269.0772705078125 59.71141815185547 267.553955078125 C 70.55401611328125 269.2830505371094 78.0958023071289 276.32733154296875 80.80927276611328 286.3085021972656" stroke-width="0.0" fill="rgb(136, 136, 160)" opacity="0.9902258"/>
    <path d="M 25.905624389648438 446.6585388183594 C 23.17656707763672 456.82293701171875 15.825830459594727 464.1833801269531 5.728304386138916 466.9147033691406 C -5.2772955894470215 463.8138732910156 -12.369284629821777 456.1103210449219 -15.003140449523926 446.00482177734375 C -12.3323392868042 435.97064208984375 -5.084181785583496 428.49237060546875 5.487142086029053 425.3179016113281 C 15.612814903259277 428.0072021484375 22.994529724121094 435.38714599609375 25.905624389648438 446.6585388183594" stroke-width="0.0" fill="rgb(112, 77, 63)" opacity="0.99002814"/>
    <path d="M 479.86663818359375 227.8855743408203 C 477.079345703125 238.70912170410156 469.6989440917969 246.05409240722656 459.1311950683594 248.8349609375 C 448.2456359863281 246.0882110595703 440.86041259765625 238.77383422851562 438.0946044921875 228.0488739013672 C 440.8434143066406 217.18930053710938 448.1875305175781 209.83909606933594 458.81561279296875 207.09861755371094 C 469.78497314453125 209.8564453125 477.1174621582031 217.22528076171875 479.86663818359375 227.8855743408203" stroke-width="0.0" fill="rgb(138, 125, 130)" opacity="1.0"/>
    <path d="M 360.9463195800781 579.326171875 C 358.1776123046875 590.8250732421875 350.8159484863281 598.1546020507812 339.9297180175781 600.8866577148438 C 329.2237243652344 598.1337280273438 321.88134765625 590.7704467773438 319.0987548828125 579.4412841796875 C 321.8247985839844 569.1787719726562 329.18499755859375 561.8392944335938 340.26727294921875 559.0782470703125 C 350.840087890625 561.81591796875 358.2095947265625 569.1484985351562 360.9463195800781 579.326171875" stroke-width="0.0" fill="rgb(117, 77, 64)" opacity="0.99003285"/>
    <path d="M 310.88397216796875 122.7596664428711 C 308.20843505859375 132.8724365234375 300.87786865234375 140.22177124023438 290.2366638183594 142.95091247558594 C 279.12640380859375 140.21682739257812 271.7825622558594 132.87379455566406 269.049072265625 121.98931884765625 C 271.77606201171875 111.11331939697266 279.1116943359375 103.772216796875 289.948974609375 101.0488510131836 C 300.8349304199219 103.79415893554688 308.0624084472656 111.21502685546875 310.88397216796875 122.7596664428711" stroke-width="0.0" fill="rgb(85, 63, 58)" opacity="1.0"/>
    <path d="M 562.8875122070312 179.61180114746094 C 560.1571044921875 189.80335998535156 552.800537109375 197.1506805419922 541.7626342773438 199.91481018066406 C 531.1635131835938 197.18406677246094 523.8350830078125 189.8289337158203 521.1870727539062 179.7213134765625 C 524.6802368164062 169.00074768066406 532.0009155273438 161.68069458007812 542.0346069335938 158.98387145996094 C 552.2737426757812 161.51332092285156 559.9238891601562 168.568603515625 562.8875122070312 179.61180114746094" stroke-width="0.0" fill="rgb(152, 113, 104)" opacity="1.0"/>
    <path d="M 390.8967590332031 223.13632202148438 C 388.1343688964844 233.77389526367188 380.7637634277344 241.108642578125 370.20806884765625 243.843017578125 C 359.2532653808594 241.0898895263672 351.8809814453125 233.7577362060547 349.1131286621094 223.23211669921875 C 351.9425354003906 212.3950653076172 359.54022216796875 205.36106872558594 370.4936218261719 202.47325134277344 C 380.75396728515625 204.92919921875 388.1360778808594 212.22349548339844 390.8967590332031 223.13632202148438" stroke-width="0.0" fill="rgb(128, 120, 129)" opacity="0.9914155"/>
    <path d="M 488.5912170410156 345.1672058105469 C 485.6782531738281 355.2996826171875 478.2862243652344 362.6336975097656 468.20849609375 365.1916809082031 C 458.0037536621094 362.2325439453125 450.62152099609375 355.0398254394531 447.9839782714844 345.03759765625 C 450.724365234375 335.05059814453125 458.056396484375 327.7436218261719 468.0941467285156 324.96142578125 C 478.2299499511719 327.47235107421875 485.6249694824219 334.74053955078125 488.5912170410156 345.1672058105469" stroke-width="0.0" fill="rgb(230, 242, 249)" opacity="0.99085027"/>
    <path d="M 344.9443664550781 111.3680419921875 C 342.212890625 121.86907196044922 334.8711242675781 129.21739196777344 324.2963562011719 131.95082092285156 C 313.18231201171875 129.19419860839844 305.9567565917969 121.76400756835938 303.0955505371094 110.19707489013672 C 305.78076171875 100.12763977050781 313.1335144042969 92.79428100585938 323.79150390625 90.060302734375 C 334.86260986328125 92.79690551757812 342.2094421386719 100.13468933105469 344.9443664550781 111.3680419921875" stroke-width="0.0" fill="rgb(93, 65, 59)" opacity="1.0"/>
    <path d="M 274.95953369140625 28.55876350402832 C 272.2283630371094 39.88621139526367 264.88482666015625 47.22515869140625 254.15182495117188 49.95048141479492 C 243.16163635253906 47.208396911621094 235.94467163085938 39.78641891479492 233.62615966796875 29.424652099609375 C 236.680908203125 19.00118064880371 244.00120544433594 11.680985450744629 254.6604461669922 8.307408332824707 C 264.85028076171875 10.833296775817871 272.2259521484375 18.127466201782227 274.95953369140625 28.55876350402832" stroke-width="0.0" fill="rgb(71, 50, 45)" opacity="1.0"/>
    <path d="M 601.5633544921875 266.512939453125 C 598.3204956054688 277.0 591.0 284.32049560546875 580.6343383789062 287.48358154296875 C 570.4789428710938 284.8724365234375 563.0680541992188 277.5428771972656 560.208251953125 266.6728820800781 C 562.9339599609375 256.2796630859375 570.2723388671875 248.913818359375 580.7967529296875 246.16244506835938 C 591.7107543945312 248.92739868164062 599.024658203125 256.3061828613281 601.5633544921875 266.512939453125" stroke-width="0.0" fill="rgb(153, 152, 165)" opacity="1.0"/>
    <path d="M 404.95458984375 492.1595458984375 C 401.968994140625 503.43682861328125 394.2345275878906 510.47314453125 384.11663818359375 513.1055297851562 C 374.0682067871094 510.2091979980469 366.7043151855469 502.9580078125 363.59832763671875 492.685302734375 C 366.0677490234375 482.2870178222656 373.1910705566406 474.7958984375 384.4151916503906 472.0428771972656 C 394.90643310546875 474.7585754394531 402.2471008300781 482.0911865234375 404.95458984375 492.1595458984375" stroke-width="0.0" fill="rgb(59, 48, 50)" opacity="1.0"/>
    <path d="M 517.8734130859375 240.43040466308594 C 515.0477905273438 251.69357299804688 507.6881103515625 259.0317077636719 497.5134582519531 261.57818603515625 C 486.9554748535156 258.31915283203125 479.41021728515625 251.13180541992188 476.1474304199219 240.30593872070312 C 478.8486328125 230.19607543945312 486.1921081542969 222.8386993408203 496.4689636230469 220.1045379638672 C 507.7861633300781 222.87925720214844 515.1588134765625 230.1990966796875 517.8734130859375 240.43040466308594" stroke-width="0.0" fill="rgb(144, 133, 144)" opacity="1.0"/>
    <path d="M 343.9325256347656 536.19970703125 C 340.62274169921875 547.1810302734375 333.18524169921875 554.6235961914062 323.4831237792969 556.2427978515625 C 313.036865234375 554.0440673828125 305.50311279296875 547.1195678710938 303.3977355957031 536.5015258789062 C 304.9261779785156 526.2479858398438 312.2220153808594 518.85498046875 323.3599853515625 516.0997314453125 C 333.81317138671875 518.8464965820312 341.2059326171875 526.1624145507812 343.9325256347656 536.19970703125" stroke-width="0.0" fill="rgb(19, 15, 13)" opacity="0.99000555"/>
    <path d="M 398.0487365722656 533.054443359375 C 395.4436950683594 543.1172485351562 388.12738037109375 550.4779052734375 377.9887390136719 553.3176879882812 C 367.8750915527344 550.4807739257812 360.55609130859375 543.11376953125 357.0909729003906 532.21484375 C 359.9139709472656 522.4227294921875 367.66461181640625 515.4954833984375 377.8324890136719 513.3301391601562 C 387.9292297363281 515.8269653320312 395.30523681640625 523.0303955078125 398.0487365722656 533.054443359375" stroke-width="0.0" fill="rgb(11, 11, 8)" opacity="1.0"/>
    <path d="M 470.9232177734375 8.5143404006958 C 468.1714172363281 18.815563201904297 460.8063049316406 26.148534774780273 449.4181823730469 28.925058364868164 C 439.15069580078125 26.19662094116211 431.8082275390625 18.847278594970703 429.07086181640625 8.40321159362793 C 431.91888427734375 -2.5905685424804688 439.6170654296875 -9.552515029907227 449.9906311035156 -12.043076515197754 C 460.325927734375 -9.512901306152344 468.032470703125 -2.5286343097686768 470.9232177734375 8.5143404006958" stroke-width="0.0" fill="rgb(139, 93, 76)" opacity="1.0"/>
    <path d="M 565.7058715820312 95.6066665649414 C 563.0841064453125 105.74542999267578 555.7639770507812 113.13138580322266 545.261962890625 115.88578796386719 C 534.2555541992188 113.10566711425781 526.9071655273438 105.73929595947266 524.1287841796875 94.90774536132812 C 526.890625 84.26533508300781 534.3074340820312 77.01603698730469 544.6141967773438 74.63655853271484 C 554.9649047851562 77.71562194824219 562.2666625976562 85.04027557373047 565.7058715820312 95.6066665649414" stroke-width="0.0" fill="rgb(193, 139, 116)" opacity="1.0"/>
    <path d="M 155.9564666748047 34.21623992919922 C 153.240234375 44.9054069519043 145.90782165527344 52.246002197265625 135.44775390625 54.962493896484375 C 124.10350036621094 52.23579025268555 116.76632690429688 44.89555358886719 114.04457092285156 34.29083251953125 C 116.76929473876953 23.10447883605957 124.09835052490234 15.755361557006836 134.4715118408203 13.038623809814453 C 145.89633178710938 15.763851165771484 153.23245239257812 23.105262756347656 155.9564666748047 34.21623992919922" stroke-width="0.0" fill="rgb(60, 43, 41)" opacity="1.0"/>
    <path d="M 459.9314880371094 542.4688110351562 C 457.181640625 552.8289794921875 449.82440185546875 560.170166015625 439.62554931640625 562.8858032226562 C 428.62060546875 559.89697265625 421.553955078125 552.208740234375 419.1903076171875 542.189208984375 C 422.0105895996094 532.3244018554688 429.3772277832031 525.1644287109375 439.3590087890625 522.760498046875 C 449.5202331542969 524.4246826171875 457.1221008300781 531.31689453125 459.9314880371094 542.4688110351562" stroke-width="0.0" fill="rgb(192, 125, 102)" opacity="1.0"/>
    <path d="M 184.89309692382812 564.75244140625 C 182.12255859375 575.7611694335938 174.7591552734375 583.1179809570312 164.68994140625 585.7850952148438 C 154.08926391601562 582.1822509765625 146.69227600097656 574.9481811523438 143.38424682617188 564.3624877929688 C 145.83155822753906 554.137939453125 153.11643981933594 546.76904296875 164.50979614257812 544.040771484375 C 174.8756866455078 546.76806640625 182.17092895507812 554.1490478515625 184.89309692382812 564.75244140625" stroke-width="0.0" fill="rgb(149, 90, 73)" opacity="1.0"/>
    <path d="M 612.0509643554688 462.0047302246094 C 609.5660400390625 472.39654541015625 602.600830078125 480.0875549316406 591.6146850585938 482.93218994140625 C 581.1348876953125 480.2022399902344 573.7947387695312 472.8663635253906 571.0866088867188 462.60137939453125 C 573.851318359375 451.1950378417969 581.1922607421875 443.8442687988281 591.5350952148438 441.1104736328125 C 602.5220336914062 443.9912109375 609.5381469726562 451.6514587402344 612.0509643554688 462.0047302246094" stroke-width="0.0" fill="rgb(154, 104, 88)" opacity="1.0"/>
    <path d="M 47.0001335144043 90.00045013427734 C 44.3190803527832 99.9980239868164 36.99714279174805 107.31600952148438 26.997528076171875 109.98519134521484 C 16.93500328063965 107.34272003173828 9.266935348510742 100.20613098144531 6.069416046142578 89.1680679321289 C 8.765707969665527 79.10539245605469 16.107013702392578 71.7695083618164 26.1527156829834 69.0873031616211 C 36.998268127441406 72.68209075927734 44.319190979003906 80.00135803222656 47.0001335144043 90.00045013427734" stroke-width="0.0" fill="rgb(73, 55, 51)" opacity="1.0"/>
    <path d="M 114.95205688476562 61.30637741088867 C 112.225341796875 71.8837661743164 104.882568359375 79.22219848632812 94.82330322265625 81.89049530029297 C 83.7978515625 78.41764831542969 76.04629516601562 71.4157485961914 73.05699920654297 60.19312286376953 C 75.76915740966797 50.108604431152344 83.10758972167969 42.7670783996582 93.93067932128906 40.042694091796875 C 104.88646697998047 42.771060943603516 112.22273254394531 50.11611557006836 114.95205688476562 61.30637741088867" stroke-width="0.0" fill="rgb(63, 46, 43)" opacity="1.0"/>
    <path d="M 39.58542251586914 356.6269836425781 C 36.96902084350586 366.52459716796875 29.483718872070312 373.8813781738281 19.49604034423828 376.5024719238281 C 8.753973960876465 373.5916442871094 1.3414955139160156 366.2658996582031 -1.451811671257019 356.1138610839844 C 1.2723157405853271 345.5390625 8.471397399902344 338.0648498535156 18.5594425201416 335.5975646972656 C 28.994110107421875 338.4721984863281 35.938968658447266 346.2137756347656 39.58542251586914 356.6269836425781" stroke-width="0.0" fill="rgb(73, 57, 55)" opacity="0.990023"/>
    <path d="M 617.0 289.0 C 614.320556640625 299.00018310546875 607.0003662109375 306.3212585449219 596.8624877929688 309.0981140136719 C 586.5901489257812 306.6788330078125 579.0864868164062 299.48858642578125 576.3624267578125 289.4496154785156 C 579.686279296875 279.0456848144531 587.074462890625 271.7880554199219 597.0740356445312 269.2210998535156 C 606.99853515625 271.6842346191406 614.3204345703125 279.0001525878906 617.0 289.0" stroke-width="0.0" fill="rgb(174, 186, 195)" opacity="0.9911979"/>
    <path d="M 374.6900329589844 509.272705078125 C 372.5321044921875 519.3165893554688 365.5421447753906 527.058837890625 355.6868896484375 529.891845703125 C 344.2071838378906 527.084228515625 336.7842712402344 519.8428344726562 334.0354919433594 508.4012451171875 C 336.759765625 498.11883544921875 344.1565856933594 490.8628234863281 354.3383483886719 489.5198974609375 C 364.5854797363281 492.1977844238281 371.9512634277344 499.3608093261719 374.6900329589844 509.272705078125" stroke-width="0.0" fill="rgb(20, 23, 24)" opacity="0.9900208"/>
    <path d="M 565.8037109375 307.8870849609375 C 562.8833618164062 318.4449462890625 555.35498046875 325.61199951171875 544.87841796875 328.302001953125 C 534.5594482421875 325.732666015625 527.1365356445312 318.4818115234375 524.3014526367188 307.7428894042969 C 527.0284423828125 297.3992614746094 534.4235229492188 290.1003723144531 544.8856201171875 287.4613037109375 C 555.5076904296875 290.1556701660156 562.9415893554688 297.4574890136719 565.8037109375 307.8870849609375" stroke-width="0.0" fill="rgb(189, 203, 217)" opacity="0.99083626"/>
    <path d="M 490.5906066894531 317.7493591308594 C 487.7403869628906 328.39697265625 480.3790283203125 335.6806945800781 470.1461181640625 338.03973388671875 C 459.9228515625 335.34747314453125 452.4001770019531 328.15753173828125 449.3995666503906 317.9586486816406 C 452.26715087890625 307.60760498046875 459.58721923828125 300.208251953125 469.8883056640625 297.64642333984375 C 480.4296875 300.2601318359375 487.863525390625 307.528564453125 490.5906066894531 317.7493591308594" stroke-width="0.0" fill="rgb(200, 215, 227)" opacity="0.9950689"/>
  </g>
</svg>
