<?xml version="1.0" ?>
<svg xmlns="http://www.w3.org/2000/svg" version="1.1" width="600" height="600">
  <defs/>
  <g>
    <path d="M 235.98892211914062 79.56281280517578 C 253.85946655273438 92.98468780517578 252.50595092773438 76.91325378417969 242.27139282226562 66.8022232055664 C 237.68292236328125 47.10209655761719 215.8280029296875 57.634307861328125 232.3611297607422 85.00057220458984 C 217.5760040283203 85.25141906738281 194.40017700195312 88.76325225830078 188.5940399169922 110.03287506103516 C 193.94805908203125 97.45584869384766 186.0514678955078 94.57929992675781 190.2865753173828 74.49143981933594" stroke-width="6.0" fill="none" stroke="rgb(0, 0, 0)" stroke-opacity="0.12753469" stroke-linecap="round" stroke-linejoin="round"/>
    <path d="M 347.40545654296875 49.6224365234375 C 356.09283447265625 50.263431549072266 346.2316589355469 76.22554016113281 363.8245849609375 80.28502655029297 C 350.4387512207031 93.55828094482422 371.078369140625 85.96958923339844 386.5604553222656 94.87194061279297 C 375.5364074707031 122.79811096191406 387.09979248046875 122.49502563476562 386.05078125 143.19692993164062 C 360.783447265625 131.23626708984375 335.2332763671875 108.76860809326172 323.3093566894531 96.87718200683594" stroke-width="6.0" fill="none" stroke="rgb(0, 0, 0)" stroke-opacity="0.31926483" stroke-linecap="round" stroke-linejoin="round"/>
    <path d="M 209.84530639648438 301.7425842285156 C 221.58535766601562 275.86517333984375 211.41087341308594 266.96826171875 232.83380126953125 245.41160583496094 C 260.9552001953125 224.8868865966797 268.0892639160156 225.821044921875 282.0736083984375 207.10675048828125 C 287.5650939941406 228.38534545898438 284.6075134277344 219.52565002441406 279.6698303222656 242.4492950439453 C 265.06475830078125 224.4173126220703 241.0899658203125 226.56776428222656 264.48468017578125 244.0272674560547" stroke-width="6.0" fill="none" stroke="rgb(0, 0, 0)" stroke-opacity="0.9764806" stroke-linecap="round" stroke-linejoin="round"/>
    <path d="M 483.95196533203125 322.2642517089844 C 473.4227294921875 316.2484436035156 488.9637756347656 299.9181823730469 514.328125 308.5111389160156 C 500.6832580566406 326.6230773925781 474.30987548828125 339.63433837890625 445.24835205078125 318.38873291015625 C 444.4554138183594 333.30914306640625 442.8919982910156 340.6431579589844 433.82049560546875 361.13275146484375 C 412.835693359375 386.3821105957031 382.9195251464844 407.4301452636719 400.9012756347656 407.7259521484375" stroke-width="6.0" fill="none" stroke="rgb(0, 0, 0)" stroke-opacity="0.8772913" stroke-linecap="round" stroke-linejoin="round"/>
    <path d="M 368.97161865234375 366.7773742675781 C 395.2554931640625 375.2674560546875 378.1031799316406 354.6048889160156 398.9545593261719 362.26422119140625 C 383.67974853515625 359.1621398925781 410.87432861328125 341.7703552246094 399.2755432128906 341.9382019042969 C 407.3251953125 317.98291015625 396.8222351074219 317.9519958496094 418.1277160644531 305.92608642578125 C 410.2935791015625 279.11871337890625 385.8440856933594 307.7795104980469 380.5662536621094 328.2732849121094" stroke-width="6.0" fill="none" stroke="rgb(0, 0, 0)" stroke-opacity="0.8787895" stroke-linecap="round" stroke-linejoin="round"/>
    <path d="M 96.82292938232422 112.42585754394531 C 116.75311279296875 102.4852294921875 106.1531753540039 97.45878601074219 85.91315460205078 122.18074798583984 C 113.60394287109375 142.01248168945312 104.10490417480469 127.0521011352539 97.46807861328125 139.60382080078125 C 77.64510345458984 149.42050170898438 81.82205200195312 119.65845489501953 102.01407623291016 94.66006469726562 C 98.7034912109375 104.64454650878906 82.44792175292969 97.73980712890625 107.23210906982422 122.83939361572266" stroke-width="6.0" fill="none" stroke="rgb(0, 0, 0)" stroke-opacity="0.8014383" stroke-linecap="round" stroke-linejoin="round"/>
    <path d="M 555.5509033203125 499.9201354980469 C 541.1021728515625 511.03094482421875 554.3466796875 484.0691223144531 527.39013671875 501.5537109375 C 552.9703979492188 503.0830993652344 582.0873413085938 476.1713562011719 586.7727661132812 492.59881591796875 C 563.2741088867188 473.9919738769531 541.2817993164062 459.57745361328125 557.0344848632812 434.7019348144531 C 537.6737670898438 459.4597473144531 517.6011962890625 467.44622802734375 516.8574829101562 461.4078369140625" stroke-width="6.0" fill="none" stroke="rgb(0, 0, 0)" stroke-opacity="0.38296977" stroke-linecap="round" stroke-linejoin="round"/>
    <path d="M 24.963090896606445 364.42364501953125 C 21.13044548034668 374.2911071777344 -3.715914249420166 388.2070617675781 20.72500228881836 374.3957824707031 C 2.2297022342681885 384.8424987792969 -1.685265064239502 376.4218444824219 16.531871795654297 354.8505554199219 C 6.964517116546631 381.27301025390625 24.97197151184082 355.313232421875 49.259422302246094 367.11175537109375 C 72.0155258178711 370.2272644042969 68.3702163696289 376.9847412109375 78.3891830444336 390.6063537597656" stroke-width="6.0" fill="none" stroke="rgb(0, 0, 0)" stroke-opacity="0.5488043" stroke-linecap="round" stroke-linejoin="round"/>
    <path d="M 339.49176025390625 422.33392333984375 C 320.1524963378906 440.5135498046875 325.71142578125 420.7245788574219 344.5778503417969 442.4918212890625 C 353.16534423828125 418.65045166015625 340.15374755859375 422.8761901855469 364.7830810546875 409.0962829589844 C 341.5572509765625 385.7057800292969 311.9676208496094 360.751220703125 330.9017028808594 388.43988037109375 C 342.50372314453125 382.24615478515625 347.13848876953125 363.61981201171875 324.3983459472656 384.9030456542969" stroke-width="6.0" fill="none" stroke="rgb(0, 0, 0)" stroke-opacity="0.41218802" stroke-linecap="round" stroke-linejoin="round"/>
    <path d="M 92.30174255371094 543.4588623046875 C 112.03266143798828 562.706298828125 83.8643798828125 559.7197875976562 107.26615142822266 538.8485717773438 C 114.42293548583984 539.2139282226562 102.58650207519531 527.6473388671875 109.6827392578125 527.839111328125 C 137.3041229248047 521.29931640625 129.14334106445312 509.13702392578125 103.58952331542969 511.684814453125 C 101.39058685302734 538.0545043945312 107.3820571899414 522.89208984375 100.51716613769531 546.1069946289062" stroke-width="6.0" fill="none" stroke="rgb(0, 0, 0)" stroke-opacity="0.32694876" stroke-linecap="round" stroke-linejoin="round"/>
    <path d="M 364.0025939941406 61.0687141418457 C 358.9831237792969 88.46422576904297 370.6140441894531 93.06707763671875 400.3827209472656 121.06687927246094 C 381.86602783203125 100.03888702392578 358.686767578125 109.3167724609375 382.23260498046875 85.21920776367188 C 355.9307861328125 74.09793090820312 334.1744079589844 50.2383918762207 328.3329162597656 72.90773010253906 C 344.3830871582031 96.14041137695312 328.5324401855469 77.12225341796875 313.57476806640625 90.03817749023438" stroke-width="6.0" fill="none" stroke="rgb(0, 0, 0)" stroke-opacity="0.012369854" stroke-linecap="round" stroke-linejoin="round"/>
    <path d="M 75.23055267333984 528.8447265625 C 97.83491516113281 554.1129150390625 91.50707244873047 580.673095703125 90.10389709472656 555.573486328125 C 74.66566467285156 572.39501953125 45.2673225402832 550.76123046875 30.081144332885742 570.8632202148438 C 45.535526275634766 556.0514526367188 30.040021896362305 551.4862060546875 48.030513763427734 570.2987670898438 C 46.47572708129883 542.0770263671875 62.84120178222656 549.2218017578125 76.74565887451172 558.33056640625" stroke-width="6.0" fill="none" stroke="rgb(0, 0, 0)" stroke-opacity="0.63448054" stroke-linecap="round" stroke-linejoin="round"/>
    <path d="M 396.6689147949219 354.0255126953125 C 398.78472900390625 362.4129943847656 423.38043212890625 358.0093994140625 417.0887451171875 356.1953125 C 390.19732666015625 358.5401916503906 412.7880554199219 380.4498596191406 411.99578857421875 358.4954833984375 C 384.3788146972656 367.5127868652344 365.0874938964844 355.03955078125 376.3764343261719 326.2673645019531 C 396.330078125 338.204833984375 419.2782287597656 330.4271240234375 393.6607971191406 341.7024841308594" stroke-width="6.0" fill="none" stroke="rgb(0, 0, 0)" stroke-opacity="0.8143755" stroke-linecap="round" stroke-linejoin="round"/>
    <path d="M 452.59649658203125 428.8108215332031 C 452.1792907714844 453.8443908691406 439.1986999511719 451.5615234375 467.67626953125 442.241455078125 C 448.6470947265625 433.02276611328125 471.7688293457031 429.2348327636719 490.418212890625 458.56207275390625 C 495.974853515625 441.0041198730469 476.6477355957031 470.88946533203125 472.7118835449219 484.3245849609375 C 487.91827392578125 497.12310791015625 492.7740783691406 486.26690673828125 473.8908996582031 489.5999450683594" stroke-width="6.0" fill="none" stroke="rgb(0, 0, 0)" stroke-opacity="0.10339806" stroke-linecap="round" stroke-linejoin="round"/>
    <path d="M 330.7991638183594 477.0213317871094 C 331.47650146484375 458.4648132324219 324.35614013671875 439.967041015625 334.59320068359375 419.9517517089844 C 354.6451416015625 422.90863037109375 350.2339172363281 394.1890869140625 373.312255859375 408.4447021484375 C 345.6961364746094 389.2834777832031 368.2803955078125 380.4203796386719 393.12554931640625 396.8167724609375 C 376.984619140625 398.08062744140625 383.1097412109375 402.80938720703125 357.3563232421875 377.64801025390625" stroke-width="6.0" fill="none" stroke="rgb(0, 0, 0)" stroke-opacity="0.42638153" stroke-linecap="round" stroke-linejoin="round"/>
    <path d="M 347.1585998535156 112.25181579589844 C 322.0111083984375 93.72196197509766 306.9779052734375 106.14849090576172 320.17279052734375 96.91934967041016 C 339.0785217285156 125.92369079589844 368.87811279296875 96.1214828491211 367.64727783203125 66.4892807006836 C 371.1626892089844 91.618896484375 395.30584716796875 95.59943389892578 404.8232421875 102.16473388671875 C 422.3653564453125 96.13465118408203 439.29962158203125 93.49877166748047 439.5737609863281 105.75973510742188" stroke-width="6.0" fill="none" stroke="rgb(0, 0, 0)" stroke-opacity="0.4146034" stroke-linecap="round" stroke-linejoin="round"/>
    <path d="M 461.2181701660156 142.6080780029297 C 487.280029296875 161.32008361816406 511.9971923828125 152.8242645263672 518.6504516601562 172.21661376953125 C 521.797119140625 186.6074981689453 508.47137451171875 166.8863983154297 532.4848022460938 171.84832763671875 C 522.6836547851562 153.6169891357422 543.4501342773438 134.95269775390625 515.5242309570312 124.5970687866211 C 489.5635070800781 112.24578857421875 494.4736022949219 94.7359390258789 505.7994689941406 71.31996154785156" stroke-width="6.0" fill="none" stroke="rgb(0, 0, 0)" stroke-opacity="0.74765885" stroke-linecap="round" stroke-linejoin="round"/>
    <path d="M 554.3040161132812 59.701324462890625 C 560.10302734375 59.57437515258789 550.6605224609375 69.92583465576172 579.3001708984375 88.32705688476562 C 575.033447265625 82.44122314453125 566.3623657226562 88.76559448242188 592.9292602539062 78.8760757446289 C 564.7555541992188 52.769203186035156 548.9966430664062 75.74337768554688 573.3331909179688 54.183380126953125 C 558.9820556640625 49.37192916870117 571.1058349609375 69.96861267089844 588.3165893554688 67.93592834472656" stroke-width="6.0" fill="none" stroke="rgb(0, 0, 0)" stroke-opacity="0.9605404" stroke-linecap="round" stroke-linejoin="round"/>
    <path d="M 23.723026275634766 425.6220397949219 C 46.73420715332031 445.1855773925781 27.08355712890625 453.1836242675781 29.78310775756836 431.5793151855469 C 4.593807697296143 405.36700439453125 22.14092254638672 406.9466857910156 29.46617889404297 420.4754638671875 C 44.47318649291992 411.67376708984375 66.11634826660156 422.1584777832031 80.61976623535156 443.2550354003906 C 69.8292007446289 421.59674072265625 89.09538269042969 395.83306884765625 68.76927185058594 410.78533935546875" stroke-width="6.0" fill="none" stroke="rgb(0, 0, 0)" stroke-opacity="0.9479908" stroke-linecap="round" stroke-linejoin="round"/>
    <path d="M 253.86695861816406 454.4520263671875 C 253.74957275390625 473.45660400390625 227.9694061279297 461.80535888671875 248.44515991210938 444.1560363769531 C 277.8771057128906 420.4653625488281 248.84603881835938 422.56768798828125 243.0110321044922 451.0070495605469 C 216.24131774902344 446.9261169433594 232.25221252441406 463.8143005371094 237.14012145996094 449.3792724609375 C 256.9715881347656 420.98431396484375 275.8139343261719 422.9371643066406 276.3797912597656 394.05987548828125" stroke-width="6.0" fill="none" stroke="rgb(0, 0, 0)" stroke-opacity="0.70498425" stroke-linecap="round" stroke-linejoin="round"/>
    <path d="M 178.7041778564453 571.1010131835938 C 191.61997985839844 581.7516479492188 216.68170166015625 559.490966796875 216.72967529296875 547.7640991210938 C 229.114990234375 519.188232421875 204.34963989257812 491.92071533203125 205.41738891601562 520.2716064453125 C 179.17825317382812 528.3359985351562 177.41317749023438 525.0729370117188 194.96560668945312 506.5665283203125 C 210.53489685058594 493.45947265625 216.9298553466797 492.154296875 241.8155059814453 462.79901123046875" stroke-width="6.0" fill="none" stroke="rgb(0, 0, 0)" stroke-opacity="0.6647399" stroke-linecap="round" stroke-linejoin="round"/>
    <path d="M 577.587158203125 168.06256103515625 C 586.2407836914062 177.92005920410156 571.5895385742188 191.374267578125 559.9967651367188 169.15682983398438 C 532.6000366210938 160.83023071289062 554.8473510742188 179.1175994873047 542.5010375976562 172.82350158691406 C 516.439208984375 180.56387329101562 493.07073974609375 157.88137817382812 483.2444152832031 147.9188690185547 C 497.9563293457031 152.19236755371094 475.9458312988281 165.4374542236328 491.5361633300781 195.34783935546875" stroke-width="6.0" fill="none" stroke="rgb(0, 0, 0)" stroke-opacity="0.68463254" stroke-linecap="round" stroke-linejoin="round"/>
    <path d="M 76.74192810058594 139.21286010742188 C 104.34771728515625 134.60865783691406 125.98523712158203 146.1555938720703 103.8138427734375 121.26077270507812 C 96.48021697998047 138.1269989013672 109.1265869140625 156.17124938964844 115.12117767333984 171.6815185546875 C 141.5778045654297 174.94044494628906 154.49667358398438 199.3138427734375 173.88694763183594 198.7802276611328 C 172.45420837402344 195.0574951171875 164.71812438964844 168.87155151367188 164.72418212890625 166.75469970703125" stroke-width="6.0" fill="none" stroke="rgb(0, 0, 0)" stroke-opacity="0.07645657" stroke-linecap="round" stroke-linejoin="round"/>
    <path d="M 473.900390625 363.88287353515625 C 448.9418640136719 392.14056396484375 432.334228515625 389.5288391113281 440.4858703613281 369.1730651855469 C 427.14996337890625 367.7661437988281 399.4801025390625 359.4409484863281 404.69580078125 348.5860290527344 C 419.0516357421875 343.17938232421875 419.6400146484375 362.9215393066406 428.35198974609375 380.3434753417969 C 448.0499572753906 363.7442626953125 424.8581237792969 367.07550048828125 435.99359130859375 366.9933776855469" stroke-width="6.0" fill="none" stroke="rgb(0, 0, 0)" stroke-opacity="0.9744807" stroke-linecap="round" stroke-linejoin="round"/>
    <path d="M 394.3923645019531 467.3157653808594 C 408.0672302246094 439.7187805175781 415.64996337890625 457.4403076171875 406.5201110839844 456.5079040527344 C 395.65997314453125 446.3949890136719 377.2223205566406 450.5186767578125 393.2562255859375 452.878662109375 C 382.7735900878906 462.57916259765625 395.99114990234375 434.5572204589844 420.0227966308594 454.19158935546875 C 426.079833984375 470.2239990234375 431.09161376953125 467.1075134277344 441.5479431152344 456.0794982910156" stroke-width="6.0" fill="none" stroke="rgb(0, 0, 0)" stroke-opacity="0.031096749" stroke-linecap="round" stroke-linejoin="round"/>
    <path d="M 246.34689331054688 309.937255859375 C 267.19329833984375 333.7215881347656 237.69927978515625 362.348876953125 252.0321807861328 390.160888671875 C 226.51437377929688 381.4678039550781 224.03256225585938 390.87164306640625 205.187255859375 402.07861328125 C 195.9691619873047 413.0251159667969 186.86370849609375 403.21966552734375 170.00643920898438 392.3962707519531 C 156.9513702392578 407.95556640625 129.11204528808594 423.48626708984375 154.2156982421875 435.9786376953125" stroke-width="6.0" fill="none" stroke="rgb(0, 0, 0)" stroke-opacity="0.67753094" stroke-linecap="round" stroke-linejoin="round"/>
    <path d="M 273.6195068359375 419.12615966796875 C 273.81964111328125 420.6641845703125 302.14251708984375 425.9332275390625 324.7461242675781 434.5939025878906 C 348.5954284667969 412.7193298339844 377.00140380859375 389.070556640625 402.50079345703125 403.486572265625 C 399.8326721191406 381.8768615722656 409.7977294921875 407.410888671875 381.09759521484375 422.7766418457031 C 369.71893310546875 438.36553955078125 343.8019714355469 415.853271484375 324.229248046875 410.00518798828125" stroke-width="6.0" fill="none" stroke="rgb(0, 0, 0)" stroke-opacity="0.68808264" stroke-linecap="round" stroke-linejoin="round"/>
    <path d="M 220.2366180419922 295.06878662109375 C 231.80764770507812 318.61907958984375 218.57696533203125 345.1756896972656 189.9561004638672 356.819091796875 C 178.59361267089844 352.4704895019531 177.6021270751953 353.77947998046875 163.02886962890625 340.1847839355469 C 190.62461853027344 317.749755859375 178.16526794433594 337.17327880859375 205.83663940429688 310.73095703125 C 191.3623046875 313.64776611328125 189.56344604492188 290.5466003417969 160.5037384033203 267.59478759765625" stroke-width="6.0" fill="none" stroke="rgb(0, 0, 0)" stroke-opacity="0.4631859" stroke-linecap="round" stroke-linejoin="round"/>
    <path d="M 467.1529541015625 138.55828857421875 C 446.5747375488281 136.35292053222656 419.3951416015625 123.46885681152344 407.0205993652344 140.61866760253906 C 378.76947021484375 125.27510833740234 367.2469482421875 117.84757995605469 362.6356201171875 119.65428161621094 C 392.1482849121094 142.14601135253906 401.5843811035156 127.52803802490234 420.26153564453125 138.2870330810547 C 435.54730224609375 146.63226318359375 408.9700927734375 164.51795959472656 392.6249084472656 193.4746856689453" stroke-width="6.0" fill="none" stroke="rgb(0, 0, 0)" stroke-opacity="0.80279905" stroke-linecap="round" stroke-linejoin="round"/>
    <path d="M 265.38629150390625 356.88067626953125 C 279.82745361328125 382.8905944824219 284.2323913574219 368.5578918457031 304.72125244140625 348.20855712890625 C 302.74822998046875 335.1591491699219 304.3919982910156 311.47607421875 330.4856872558594 292.97503662109375 C 306.08038330078125 288.53533935546875 334.7361755371094 273.2389831542969 319.58380126953125 292.0832824707031 C 344.9234313964844 303.44366455078125 363.85888671875 279.25750732421875 381.0873718261719 259.2205810546875" stroke-width="6.0" fill="none" stroke="rgb(0, 0, 0)" stroke-opacity="0.36720374" stroke-linecap="round" stroke-linejoin="round"/>
    <path d="M 48.404258728027344 490.12774658203125 C 21.81642723083496 474.87158203125 6.338403224945068 490.4073486328125 -7.412887096405029 504.1375732421875 C -28.13946533203125 527.435546875 -9.77554702758789 525.5752563476562 -38.07548141479492 544.326416015625 C -10.025339126586914 555.6559448242188 -27.426244735717773 533.9402465820312 -51.94166564941406 542.9044799804688 C -72.65151977539062 520.3128051757812 -53.35437774658203 505.7828674316406 -45.135128021240234 482.595458984375" stroke-width="6.0" fill="none" stroke="rgb(0, 0, 0)" stroke-opacity="0.83596724" stroke-linecap="round" stroke-linejoin="round"/>
    <path d="M 540.5877075195312 384.046630859375 C 512.2537841796875 354.741455078125 488.40142822265625 368.9617614746094 497.37835693359375 351.1959228515625 C 514.421875 342.8247985839844 492.1375732421875 317.3480224609375 502.63140869140625 303.2347412109375 C 511.4351501464844 298.6646423339844 537.0823974609375 307.9037780761719 563.8563232421875 322.7995300292969 C 555.78857421875 304.80950927734375 541.7194213867188 282.9748840332031 558.2167358398438 260.1700134277344" stroke-width="6.0" fill="none" stroke="rgb(0, 0, 0)" stroke-opacity="0.8325193" stroke-linecap="round" stroke-linejoin="round"/>
    <path d="M 65.20066833496094 411.2516784667969 C 75.28518676757812 418.5220947265625 88.21055603027344 407.1870422363281 102.2840576171875 401.9722900390625 C 114.3906478881836 404.00860595703125 135.45175170898438 393.7756042480469 118.03099822998047 409.56695556640625 C 147.8365936279297 398.57073974609375 176.1101837158203 392.6593017578125 153.7453155517578 401.128662109375 C 145.8699493408203 403.1601257324219 132.0526580810547 409.882568359375 151.0742950439453 419.2970886230469" stroke-width="6.0" fill="none" stroke="rgb(0, 0, 0)" stroke-opacity="0.96748704" stroke-linecap="round" stroke-linejoin="round"/>
    <path d="M 109.783447265625 114.9023208618164 C 91.47467041015625 118.21195220947266 97.06437683105469 137.74058532714844 97.73494720458984 149.36044311523438 C 124.6753158569336 163.56903076171875 132.3901824951172 186.12274169921875 112.67388153076172 187.19503784179688 C 102.83768463134766 212.7584686279297 102.58792114257812 185.4927215576172 102.41238403320312 195.43190002441406 C 77.69416809082031 206.5994415283203 101.1979751586914 225.87619018554688 119.69568634033203 217.5189208984375" stroke-width="6.0" fill="none" stroke="rgb(0, 0, 0)" stroke-opacity="0.78836256" stroke-linecap="round" stroke-linejoin="round"/>
    <path d="M 493.46649169921875 547.2413330078125 C 484.9541931152344 534.0712890625 497.0281066894531 533.6116943359375 495.9735412597656 520.7281494140625 C 520.558349609375 524.6577758789062 506.43096923828125 529.8958129882812 478.4664001464844 525.5240478515625 C 496.87030029296875 498.4526062011719 467.39288330078125 502.5506286621094 489.82025146484375 527.986328125 C 483.2307434082031 530.7665405273438 460.78509521484375 545.2694702148438 458.2335510253906 563.6431274414062" stroke-width="6.0" fill="none" stroke="rgb(0, 0, 0)" stroke-opacity="0.80232686" stroke-linecap="round" stroke-linejoin="round"/>
    <path d="M 298.10345458984375 356.2156677246094 C 315.212890625 375.150146484375 318.9612121582031 399.3428649902344 340.8818359375 408.5363464355469 C 333.67218017578125 413.50494384765625 312.05499267578125 384.83331298828125 332.8416442871094 356.29473876953125 C 312.271240234375 347.92242431640625 330.8608093261719 339.17608642578125 312.7477111816406 335.2799072265625 C 288.3025207519531 331.32830810546875 292.7127990722656 360.82684326171875 313.9788513183594 379.68243408203125" stroke-width="6.0" fill="none" stroke="rgb(0, 0, 0)" stroke-opacity="0.14133544" stroke-linecap="round" stroke-linejoin="round"/>
    <path d="M 379.3399353027344 151.723388671875 C 351.204833984375 155.54335021972656 345.0331726074219 133.70791625976562 355.1388854980469 157.2732696533203 C 331.3880615234375 155.8887176513672 313.465576171875 167.02696228027344 329.89666748046875 150.08335876464844 C 322.2006530761719 159.02845764160156 306.0689697265625 169.85231018066406 317.62164306640625 174.92160034179688 C 302.4131774902344 182.99887084960938 302.9241027832031 184.8686981201172 329.7882080078125 211.13856506347656" stroke-width="6.0" fill="none" stroke="rgb(0, 0, 0)" stroke-opacity="0.45992917" stroke-linecap="round" stroke-linejoin="round"/>
    <path d="M 343.9243469238281 93.17646026611328 C 369.4031982421875 88.81924438476562 386.5846862792969 88.78176879882812 411.2043151855469 92.9762954711914 C 424.75885009765625 83.1436996459961 442.6651611328125 89.41352081298828 457.57257080078125 80.6741714477539 C 464.9632873535156 101.2375717163086 478.946044921875 123.78836822509766 459.3441162109375 137.29656982421875 C 472.8829650878906 136.87725830078125 495.327880859375 147.74049377441406 517.117919921875 165.80169677734375" stroke-width="6.0" fill="none" stroke="rgb(0, 0, 0)" stroke-opacity="0.4394489" stroke-linecap="round" stroke-linejoin="round"/>
    <path d="M 63.882240295410156 137.14907836914062 C 84.88262939453125 163.0555877685547 71.67420196533203 134.47569274902344 54.4708366394043 162.37513732910156 C 48.11913299560547 172.31475830078125 25.879640579223633 165.56253051757812 23.579824447631836 190.6498565673828 C 9.817248344421387 162.47381591796875 19.796098709106445 191.18345642089844 6.485996246337891 216.56439208984375 C -3.3326191902160645 208.55938720703125 -28.486486434936523 211.7052764892578 -44.602108001708984 186.47256469726562" stroke-width="6.0" fill="none" stroke="rgb(0, 0, 0)" stroke-opacity="0.122769624" stroke-linecap="round" stroke-linejoin="round"/>
    <path d="M 9.54493236541748 3.929856061935425 C -12.303629875183105 26.09678077697754 -34.4282112121582 39.20429229736328 -54.71209716796875 37.81396484375 C -45.72113037109375 48.56422424316406 -55.4105339050293 39.95465087890625 -37.82204055786133 65.87825775146484 C -9.18387508392334 92.72063446044922 -12.642671585083008 118.59578704833984 -17.442731857299805 117.48693084716797 C -31.068281173706055 99.8636245727539 -48.456539154052734 111.81632995605469 -65.4351577758789 126.93683624267578" stroke-width="6.0" fill="none" stroke="rgb(0, 0, 0)" stroke-opacity="0.8199196" stroke-linecap="round" stroke-linejoin="round"/>
    <path d="M 596.8677368164062 274.0839538574219 C 610.7523193359375 252.07557678222656 607.1802368164062 279.87896728515625 613.6548461914062 296.06317138671875 C 618.3629760742188 270.85186767578125 645.8740234375 248.03350830078125 616.589111328125 240.79483032226562 C 615.97216796875 256.19024658203125 590.034912109375 237.8128662109375 597.7168579101562 222.89572143554688 C 627.5171508789062 224.21121215820312 654.9019775390625 228.3662567138672 672.1397705078125 256.64129638671875" stroke-width="6.0" fill="none" stroke="rgb(0, 0, 0)" stroke-opacity="0.92644477" stroke-linecap="round" stroke-linejoin="round"/>
    <path d="M 205.95974731445312 524.7518310546875 C 180.05674743652344 548.9080810546875 178.6409149169922 525.5919799804688 150.2216339111328 506.4828796386719 C 153.84054565429688 510.048828125 127.77014923095703 507.2393798828125 99.58940887451172 525.8333740234375 C 128.87802124023438 498.9377746582031 136.2398223876953 519.41552734375 134.26419067382812 540.4150390625 C 158.5377197265625 516.7420043945312 136.3484649658203 515.3220825195312 117.91465759277344 542.1123046875" stroke-width="6.0" fill="none" stroke="rgb(0, 0, 0)" stroke-opacity="0.9413415" stroke-linecap="round" stroke-linejoin="round"/>
    <path d="M 445.24609375 310.3165588378906 C 418.3463439941406 339.0388488769531 397.9408874511719 350.4585876464844 408.13140869140625 380.3196105957031 C 414.5236511230469 400.08697509765625 426.32696533203125 401.6160888671875 421.0454406738281 414.5870056152344 C 391.06097412109375 388.1145324707031 370.1055908203125 359.76568603515625 379.4180908203125 358.4210510253906 C 401.7027587890625 385.0470886230469 378.9770812988281 390.107666015625 394.1321716308594 376.8642883300781" stroke-width="6.0" fill="none" stroke="rgb(0, 0, 0)" stroke-opacity="0.17998768" stroke-linecap="round" stroke-linejoin="round"/>
    <path d="M 357.72540283203125 385.9082946777344 C 347.1263427734375 380.71990966796875 319.39447021484375 364.7945251464844 293.91766357421875 354.4656982421875 C 301.1585388183594 371.2515869140625 308.58880615234375 384.54644775390625 335.35333251953125 361.44573974609375 C 327.00006103515625 378.8193359375 298.7734375 358.8603210449219 269.59906005859375 385.0171203613281 C 271.1455383300781 358.4183349609375 267.1824645996094 328.599853515625 273.4830017089844 354.9374084472656" stroke-width="6.0" fill="none" stroke="rgb(0, 0, 0)" stroke-opacity="0.46485695" stroke-linecap="round" stroke-linejoin="round"/>
    <path d="M 7.0723419189453125 572.84619140625 C 21.127052307128906 550.1519775390625 4.389155864715576 521.5931396484375 1.0112662315368652 529.1095581054688 C -3.596919059753418 538.0870971679688 -2.656458616256714 554.9692993164062 -13.183944702148438 565.9356079101562 C -22.898881912231445 595.3890991210938 -17.63681983947754 599.8915405273438 -41.81886291503906 590.0070190429688 C -54.0182991027832 609.7377319335938 -57.75401306152344 633.8131713867188 -64.3044204711914 641.1345825195312" stroke-width="6.0" fill="none" stroke="rgb(0, 0, 0)" stroke-opacity="0.6771546" stroke-linecap="round" stroke-linejoin="round"/>
    <path d="M 76.76164245605469 106.78883361816406 C 72.51654815673828 97.1358413696289 74.92715454101562 74.62623596191406 90.95748138427734 52.686248779296875 C 79.46533966064453 80.74502563476562 63.02326583862305 83.95156860351562 78.94924926757812 73.38873291015625 C 51.70833969116211 100.65454864501953 37.263362884521484 94.73651885986328 13.626093864440918 117.34101867675781 C -0.7264866232872009 98.9437484741211 -12.97283935546875 121.13290405273438 8.526005744934082 145.3880157470703" stroke-width="6.0" fill="none" stroke="rgb(0, 0, 0)" stroke-opacity="0.10661918" stroke-linecap="round" stroke-linejoin="round"/>
    <path d="M 470.46697998046875 552.8712768554688 C 483.3586730957031 576.0704345703125 480.306640625 604.1895141601562 476.8038024902344 627.8539428710938 C 480.3884582519531 650.4747314453125 475.5563659667969 651.1193237304688 495.593505859375 677.2793579101562 C 519.495849609375 704.0941772460938 521.4697265625 700.8853149414062 528.705322265625 728.3494262695312 C 503.8679504394531 722.0669555664062 522.5307006835938 718.2721557617188 530.9970703125 746.9724731445312" stroke-width="6.0" fill="none" stroke="rgb(0, 0, 0)" stroke-opacity="0.2896969" stroke-linecap="round" stroke-linejoin="round"/>
    <path d="M 54.98883056640625 268.5595703125 C 39.157833099365234 273.3033752441406 41.43633270263672 296.86944580078125 24.433916091918945 295.2320251464844 C -1.2173281908035278 274.8384704589844 3.2821319103240967 297.5673522949219 -20.146987915039062 311.99945068359375 C -28.764541625976562 322.1991271972656 -27.472320556640625 301.0323181152344 -3.8411293029785156 329.9629211425781 C 25.35283851623535 326.2752990722656 -3.771763563156128 322.6990661621094 -16.20823860168457 321.6474304199219" stroke-width="6.0" fill="none" stroke="rgb(0, 0, 0)" stroke-opacity="0.5891805" stroke-linecap="round" stroke-linejoin="round"/>
    <path d="M 233.386962890625 40.96331787109375 C 233.9246063232422 37.78670120239258 227.55934143066406 42.58100128173828 256.7043762207031 66.57710266113281 C 280.870361328125 44.950809478759766 253.8808135986328 73.19662475585938 270.52685546875 100.78976440429688 C 280.6206970214844 127.70272827148438 260.1628112792969 154.87246704101562 287.9967956542969 171.4513397216797 C 265.0653991699219 163.30368041992188 288.5269470214844 192.71717834472656 317.86737060546875 171.9751434326172" stroke-width="6.0" fill="none" stroke="rgb(0, 0, 0)" stroke-opacity="0.2491681" stroke-linecap="round" stroke-linejoin="round"/>
    <path d="M 16.118356704711914 468.257080078125 C 13.588446617126465 468.6139221191406 18.154882431030273 485.8742370605469 -4.936783790588379 469.92193603515625 C 7.401575565338135 450.8196716308594 23.937162399291992 443.65911865234375 -5.648404121398926 446.0382385253906 C 7.790223121643066 416.0886535644531 30.12943458557129 441.1010437011719 48.801292419433594 423.87249755859375 C 58.00310134887695 396.6431884765625 85.22695922851562 368.49273681640625 109.33940887451172 354.61279296875" stroke-width="6.0" fill="none" stroke="rgb(0, 0, 0)" stroke-opacity="0.82115364" stroke-linecap="round" stroke-linejoin="round"/>
    <path d="M 585.3223876953125 493.088623046875 C 579.662109375 502.3427734375 557.1627197265625 503.2777099609375 553.1837158203125 529.4503784179688 C 539.2017822265625 552.8519287109375 545.3255615234375 574.3988647460938 567.2701416015625 592.5609130859375 C 586.252197265625 564.2177124023438 586.1522827148438 536.8282470703125 558.7908325195312 536.75146484375 C 585.1093139648438 512.710205078125 571.7891235351562 497.0870361328125 594.1018676757812 468.97027587890625" stroke-width="6.0" fill="none" stroke="rgb(0, 0, 0)" stroke-opacity="0.05088172" stroke-linecap="round" stroke-linejoin="round"/>
    <path d="M 166.66714477539062 354.7518615722656 C 180.44146728515625 364.3804626464844 209.95143127441406 387.8846435546875 196.97413635253906 381.1358337402344 C 193.23512268066406 390.7548522949219 201.45089721679688 411.6108703613281 194.3455047607422 411.8349304199219 C 206.49754333496094 408.0346984863281 228.99671936035156 432.42742919921875 252.5188446044922 444.8997497558594 C 270.5182800292969 464.8467102050781 284.8614807128906 450.1447448730469 277.3408508300781 450.2403259277344" stroke-width="6.0" fill="none" stroke="rgb(0, 0, 0)" stroke-opacity="0.42908254" stroke-linecap="round" stroke-linejoin="round"/>
    <path d="M 314.11383056640625 174.281982421875 C 316.4666442871094 174.2503204345703 290.4907531738281 154.47071838378906 290.84503173828125 177.4134521484375 C 298.5110778808594 162.4550018310547 312.05865478515625 168.7167205810547 312.09283447265625 149.10397338867188 C 294.5272521972656 134.5983123779297 298.8444519042969 109.52777099609375 278.5064392089844 91.82504272460938 C 261.63458251953125 113.99617004394531 281.7044677734375 115.44534301757812 302.1523742675781 140.54371643066406" stroke-width="6.0" fill="none" stroke="rgb(0, 0, 0)" stroke-opacity="0.12267297" stroke-linecap="round" stroke-linejoin="round"/>
    <path d="M 337.91217041015625 14.286245346069336 C 335.5736999511719 33.6182975769043 318.2710266113281 61.80865478515625 327.98004150390625 32.211910247802734 C 341.0825500488281 59.09642791748047 326.5965576171875 75.9303970336914 321.7911682128906 101.35006713867188 C 320.7698059082031 93.15277862548828 340.4275207519531 79.10790252685547 354.4728088378906 76.98746490478516 C 366.2165832519531 70.42272186279297 354.0186462402344 65.48411560058594 359.36444091796875 49.32450485229492" stroke-width="6.0" fill="none" stroke="rgb(0, 0, 0)" stroke-opacity="0.08451897" stroke-linecap="round" stroke-linejoin="round"/>
    <path d="M 59.238338470458984 411.3733215332031 C 73.55361938476562 403.6083068847656 82.72809600830078 403.101318359375 99.94271850585938 413.1430358886719 C 96.94989013671875 432.01837158203125 122.8826904296875 451.003662109375 136.0572967529297 444.0956726074219 C 157.73695373535156 442.93511962890625 151.3798828125 446.6634826660156 128.92323303222656 446.6715087890625 C 143.166748046875 437.19287109375 151.6123809814453 442.35980224609375 140.26344299316406 465.1876220703125" stroke-width="6.0" fill="none" stroke="rgb(0, 0, 0)" stroke-opacity="0.9265736" stroke-linecap="round" stroke-linejoin="round"/>
    <path d="M 42.36578369140625 218.25405883789062 C 29.616870880126953 225.64637756347656 30.781320571899414 227.39955139160156 36.37839889526367 227.47630310058594 C 66.14248657226562 225.5574951171875 54.08766174316406 212.10992431640625 34.0843391418457 207.9774169921875 C 45.300682067871094 211.21804809570312 56.841182708740234 206.06729125976562 63.280635833740234 211.76199340820312 C 65.4532241821289 228.78018188476562 49.38279342651367 230.3513641357422 66.49011993408203 216.88912963867188" stroke-width="6.0" fill="none" stroke="rgb(0, 0, 0)" stroke-opacity="0.06170347" stroke-linecap="round" stroke-linejoin="round"/>
    <path d="M 480.2438049316406 83.81558227539062 C 475.136962890625 111.42113494873047 457.2671203613281 83.66651916503906 437.000732421875 105.66975402832031 C 422.41729736328125 79.00633239746094 397.7550354003906 90.7842025756836 427.7445373535156 110.02986145019531 C 412.08843994140625 129.2777099609375 435.8987121582031 105.78736114501953 412.6209716796875 127.91868591308594 C 398.3917236328125 99.20581817626953 389.6101989746094 99.31187438964844 379.01318359375 100.69608306884766" stroke-width="6.0" fill="none" stroke="rgb(0, 0, 0)" stroke-opacity="0.31978256" stroke-linecap="round" stroke-linejoin="round"/>
    <path d="M 80.0578384399414 173.7298126220703 C 59.26662063598633 167.29151916503906 49.882789611816406 153.88034057617188 44.60688018798828 151.32786560058594 C 29.78397560119629 148.6172332763672 57.005889892578125 131.2845001220703 31.377370834350586 128.46849060058594 C 35.689579010009766 131.2409210205078 44.69959259033203 128.61752319335938 70.22529602050781 138.02137756347656 C 59.9160041809082 166.1541290283203 87.23042297363281 190.98617553710938 83.15199279785156 213.5922393798828" stroke-width="6.0" fill="none" stroke="rgb(0, 0, 0)" stroke-opacity="0.6570501" stroke-linecap="round" stroke-linejoin="round"/>
    <path d="M 122.00022888183594 504.5829772949219 C 134.72311401367188 509.09307861328125 147.3585662841797 523.7660522460938 143.60035705566406 508.7862243652344 C 141.43887329101562 510.8193054199219 119.89086151123047 537.4923095703125 113.1153335571289 510.2469482421875 C 90.475341796875 517.130615234375 95.464599609375 493.78106689453125 114.79837799072266 507.879150390625 C 92.53292083740234 529.5218505859375 118.5892105102539 517.9129638671875 116.82083129882812 530.1338500976562" stroke-width="6.0" fill="none" stroke="rgb(0, 0, 0)" stroke-opacity="0.16812065" stroke-linecap="round" stroke-linejoin="round"/>
    <path d="M 117.55570983886719 481.0245666503906 C 128.595947265625 483.2253723144531 106.83924102783203 484.738037109375 98.55249786376953 461.75341796875 C 126.51859283447266 459.2078552246094 122.56501770019531 463.0832214355469 142.87245178222656 486.2699279785156 C 115.78914642333984 505.0291442871094 86.02462768554688 514.3278198242188 111.85750579833984 535.2796630859375 C 130.64891052246094 541.6826782226562 104.13661193847656 558.8802490234375 111.34565734863281 580.2439575195312" stroke-width="6.0" fill="none" stroke="rgb(0, 0, 0)" stroke-opacity="0.74120593" stroke-linecap="round" stroke-linejoin="round"/>
    <path d="M 518.32470703125 502.0106506347656 C 499.5970764160156 529.3170776367188 496.8489074707031 505.3686218261719 474.56524658203125 521.9193725585938 C 492.6643371582031 530.1358642578125 496.9921875 538.1705932617188 520.9343872070312 552.0311889648438 C 513.8958740234375 571.6067504882812 532.826416015625 584.9943237304688 527.8507690429688 565.9666748046875 C 499.9898681640625 559.4078369140625 495.4912414550781 542.4317626953125 513.0106811523438 548.5293579101562" stroke-width="6.0" fill="none" stroke="rgb(0, 0, 0)" stroke-opacity="0.9854111" stroke-linecap="round" stroke-linejoin="round"/>
    <path d="M 211.68426513671875 313.1542663574219 C 198.961181640625 327.06182861328125 191.95684814453125 316.44378662109375 202.3726348876953 291.9244079589844 C 188.96356201171875 276.0254821777344 197.55584716796875 264.85821533203125 224.21983337402344 270.57623291015625 C 225.843017578125 257.6053161621094 236.19676208496094 281.243408203125 209.87405395507812 304.2921447753906 C 211.6272430419922 285.66973876953125 238.51119995117188 258.6259460449219 225.31239318847656 229.49490356445312" stroke-width="6.0" fill="none" stroke="rgb(0, 0, 0)" stroke-opacity="0.9547628" stroke-linecap="round" stroke-linejoin="round"/>
    <path d="M 360.14935302734375 442.5007629394531 C 344.9544677734375 423.5465393066406 318.200927734375 428.60198974609375 344.6165466308594 432.5023193359375 C 362.089599609375 403.96893310546875 347.9894714355469 374.2034912109375 373.6618347167969 356.336181640625 C 345.104736328125 363.52032470703125 343.18817138671875 339.2919006347656 346.6239013671875 323.4284973144531 C 336.3366394042969 334.7960510253906 362.6588134765625 312.5491638183594 384.8496398925781 311.0320739746094" stroke-width="6.0" fill="none" stroke="rgb(0, 0, 0)" stroke-opacity="0.6430693" stroke-linecap="round" stroke-linejoin="round"/>
    <path d="M 293.7113037109375 212.7593994140625 C 279.1466064453125 206.62960815429688 275.40087890625 203.25840759277344 273.94976806640625 186.7729034423828 C 263.1792297363281 190.21788024902344 239.58358764648438 188.3070526123047 215.42303466796875 212.8553009033203 C 209.80023193359375 189.20046997070312 233.27914428710938 174.02426147460938 216.30850219726562 190.33824157714844 C 231.0070037841797 167.99044799804688 216.9823760986328 165.750732421875 190.04263305664062 144.0808868408203" stroke-width="6.0" fill="none" stroke="rgb(0, 0, 0)" stroke-opacity="0.06897413" stroke-linecap="round" stroke-linejoin="round"/>
  </g>
</svg>
