<?xml version="1.0" ?>
<svg xmlns="http://www.w3.org/2000/svg" version="1.1" width="600" height="600">
  <defs/>
  <g>
    <path d="M 260.7857666015625 252.68141174316406 C 259.8796081542969 227.2566680908203 244.98162841796875 212.05209350585938 252.483642578125 217.72047424316406 C 234.216552734375 194.13882446289062 222.49603271484375 221.0682373046875 212.3890380859375 228.23976135253906 C 230.6736297607422 218.05226135253906 220.7578125 236.94078063964844 242.3283233642578 265.3943176269531 C 220.45579528808594 254.63421630859375 247.2925262451172 236.685302734375 236.1835174560547 264.5997619628906" stroke-width="6.0" fill="none" stroke="rgb(0, 0, 0)" stroke-opacity="0.9687252" stroke-linecap="round" stroke-linejoin="round"/>
    <path d="M 174.88888549804688 416.9546813964844 C 174.34933471679688 421.5074462890625 158.8547821044922 414.07073974609375 177.84445190429688 407.6468505859375 C 154.7177276611328 411.4779052734375 160.25135803222656 414.2156066894531 171.15411376953125 417.2615661621094 C 198.33438110351562 414.9588928222656 210.83639526367188 411.26617431640625 198.3162841796875 422.8363037109375 C 217.4542236328125 440.5357360839844 212.00270080566406 440.5339050292969 220.0028839111328 425.05517578125" stroke-width="6.0" fill="none" stroke="rgb(0, 0, 0)" stroke-opacity="0.658663" stroke-linecap="round" stroke-linejoin="round"/>
    <path d="M 429.121826171875 473.4660339355469 C 403.5597839355469 502.86810302734375 402.35382080078125 496.9164123535156 402.75054931640625 522.139892578125 C 414.2131042480469 524.7586059570312 431.6563720703125 516.3303833007812 455.386474609375 518.5447387695312 C 463.67730712890625 493.6436767578125 479.8145446777344 503.1397705078125 471.1150817871094 511.95977783203125 C 443.8128662109375 540.976318359375 454.4611511230469 534.953369140625 469.6221008300781 562.8563232421875" stroke-width="6.0" fill="none" stroke="rgb(0, 0, 0)" stroke-opacity="0.43045554" stroke-linecap="round" stroke-linejoin="round"/>
    <path d="M 6.308663845062256 155.26303100585938 C 6.9492387771606445 156.39089965820312 11.780338287353516 160.90501403808594 8.567048072814941 154.3330535888672 C 24.86758804321289 159.64845275878906 24.895538330078125 150.34649658203125 -3.5907113552093506 126.61946868896484 C -8.652185440063477 154.3431396484375 -31.688024520874023 180.78370666503906 -53.18751525878906 169.4971160888672 C -55.867557525634766 151.90916442871094 -56.89199447631836 150.47891235351562 -60.6020393371582 162.2847137451172" stroke-width="6.0" fill="none" stroke="rgb(0, 0, 0)" stroke-opacity="0.31890947" stroke-linecap="round" stroke-linejoin="round"/>
    <path d="M 180.13844299316406 486.091552734375 C 157.0835723876953 507.08233642578125 165.96176147460938 517.7107543945312 145.7830047607422 546.7447509765625 C 130.41778564453125 527.2119750976562 110.02592468261719 530.8029174804688 137.53367614746094 514.7142333984375 C 131.83651733398438 495.78131103515625 140.2652587890625 491.7093811035156 112.05680084228516 498.5557861328125 C 93.89625549316406 504.0879821777344 87.18641662597656 516.3320922851562 69.53348541259766 531.4716186523438" stroke-width="6.0" fill="none" stroke="rgb(0, 0, 0)" stroke-opacity="0.80872977" stroke-linecap="round" stroke-linejoin="round"/>
    <path d="M 37.518253326416016 61.03123092651367 C 59.837013244628906 42.24882125854492 49.39611053466797 39.741825103759766 35.177310943603516 61.500030517578125 C 36.80022430419922 69.80656433105469 42.65845489501953 76.48506164550781 47.87874221801758 67.4005355834961 C 68.56981658935547 74.44229125976562 87.39410400390625 86.80158996582031 75.24080657958984 93.67066192626953 C 50.32591247558594 71.70753479003906 27.397615432739258 60.030338287353516 8.380285263061523 71.59652709960938" stroke-width="6.0" fill="none" stroke="rgb(0, 0, 0)" stroke-opacity="0.51082486" stroke-linecap="round" stroke-linejoin="round"/>
    <path d="M 250.96347045898438 82.70038604736328 C 243.94606018066406 63.885597229003906 252.07615661621094 75.4915771484375 260.7917785644531 105.48554229736328 C 264.1264953613281 104.8240737915039 242.5043182373047 93.73886108398438 239.56436157226562 66.9555435180664 C 231.10671997070312 37.530555725097656 209.29879760742188 56.443511962890625 237.1285400390625 56.76979446411133 C 236.82675170898438 67.8515396118164 231.80455017089844 88.24504852294922 231.08656311035156 63.16533660888672" stroke-width="6.0" fill="none" stroke="rgb(0, 0, 0)" stroke-opacity="0.030860705" stroke-linecap="round" stroke-linejoin="round"/>
    <path d="M 456.6539611816406 175.23394775390625 C 443.1451416015625 177.5304718017578 423.2376708984375 174.96975708007812 437.78875732421875 190.9249267578125 C 440.7723388671875 167.71755981445312 417.5847473144531 184.18434143066406 436.98175048828125 176.19606018066406 C 456.37835693359375 148.7327117919922 469.5171813964844 151.51390075683594 498.9037170410156 127.65887451171875 C 518.66796875 142.69960021972656 506.530517578125 172.65835571289062 503.51446533203125 163.61297607421875" stroke-width="6.0" fill="none" stroke="rgb(0, 0, 0)" stroke-opacity="0.8167286" stroke-linecap="round" stroke-linejoin="round"/>
    <path d="M 263.42193603515625 596.3546142578125 C 279.9598693847656 580.5713500976562 298.6020202636719 585.8468017578125 289.6798400878906 598.4920043945312 C 297.6460876464844 578.450927734375 276.00018310546875 560.8480834960938 258.416748046875 534.4095458984375 C 249.4656982421875 521.274658203125 251.7917938232422 510.73388671875 264.0350036621094 498.0939025878906 C 250.0756072998047 519.534912109375 279.20489501953125 530.2928466796875 254.9184112548828 558.0991821289062" stroke-width="6.0" fill="none" stroke="rgb(0, 0, 0)" stroke-opacity="0.785691" stroke-linecap="round" stroke-linejoin="round"/>
    <path d="M 551.28125 595.4717407226562 C 573.2640991210938 573.0850219726562 595.228759765625 558.0656127929688 607.9124755859375 577.8145751953125 C 623.6209106445312 588.36865234375 622.9884643554688 593.01416015625 609.1115112304688 587.86767578125 C 606.23095703125 595.8853759765625 629.0384521484375 571.4710083007812 629.9752807617188 558.1646118164062 C 656.1554565429688 550.308837890625 683.1707153320312 539.9462280273438 653.319091796875 556.3943481445312" stroke-width="6.0" fill="none" stroke="rgb(0, 0, 0)" stroke-opacity="0.732724" stroke-linecap="round" stroke-linejoin="round"/>
    <path d="M 438.57916259765625 275.08953857421875 C 448.42779541015625 266.5429382324219 422.2276306152344 268.6083984375 405.2973937988281 264.3869934082031 C 387.96856689453125 250.4991912841797 407.66912841796875 240.76449584960938 412.3851318359375 244.73301696777344 C 411.4654235839844 235.39739990234375 422.4185485839844 208.30194091796875 398.4330139160156 225.2953338623047 C 396.0079040527344 202.7496337890625 417.4670104980469 199.26670837402344 387.46759033203125 226.74864196777344" stroke-width="6.0" fill="none" stroke="rgb(0, 0, 0)" stroke-opacity="0.2023182" stroke-linecap="round" stroke-linejoin="round"/>
    <path d="M 413.1751403808594 79.12785339355469 C 422.13494873046875 58.666500091552734 448.0984802246094 45.107666015625 457.41375732421875 30.171022415161133 C 449.724365234375 54.359039306640625 429.6159362792969 48.1395378112793 417.94647216796875 60.106014251708984 C 401.9951171875 69.47512817382812 414.21697998046875 39.50031280517578 412.82537841796875 17.462295532226562 C 396.3968505859375 28.261259078979492 366.9940185546875 39.99708557128906 386.0205993652344 69.28638458251953" stroke-width="6.0" fill="none" stroke="rgb(0, 0, 0)" stroke-opacity="0.42231393" stroke-linecap="round" stroke-linejoin="round"/>
    <path d="M 79.28509521484375 42.51698303222656 C 72.26929473876953 56.36278533935547 48.414913177490234 45.163875579833984 71.27426147460938 23.39161491394043 C 87.72188568115234 38.54110336303711 65.71065521240234 68.15750885009766 44.241844177246094 69.94800567626953 C 14.75032901763916 78.94922637939453 11.156293869018555 92.2951431274414 18.841096878051758 71.37759399414062 C 13.543688774108887 82.5715560913086 35.14144515991211 57.772850036621094 11.169347763061523 72.95957946777344" stroke-width="6.0" fill="none" stroke="rgb(0, 0, 0)" stroke-opacity="0.5895739" stroke-linecap="round" stroke-linejoin="round"/>
    <path d="M 230.4391632080078 577.92919921875 C 219.2693634033203 556.3590698242188 205.88742065429688 531.4140014648438 209.1312255859375 537.3743896484375 C 215.58682250976562 554.1126098632812 227.01536560058594 575.0261840820312 236.47970581054688 563.1251220703125 C 237.54464721679688 563.6564331054688 252.41525268554688 551.388916015625 225.6894073486328 575.2637329101562 C 253.00967407226562 574.9970092773438 229.77430725097656 574.9320068359375 235.4101104736328 576.6691284179688" stroke-width="6.0" fill="none" stroke="rgb(0, 0, 0)" stroke-opacity="0.97769696" stroke-linecap="round" stroke-linejoin="round"/>
    <path d="M 592.1495361328125 560.3746337890625 C 570.0684814453125 582.0234375 574.1713256835938 573.908203125 585.1478271484375 589.6717529296875 C 612.375 605.933837890625 583.3763427734375 579.9857788085938 569.1475219726562 552.3754272460938 C 542.775634765625 569.7327880859375 543.1723022460938 577.447021484375 543.2352294921875 572.3328857421875 C 555.3438720703125 547.278564453125 557.5377807617188 554.2814331054688 544.185791015625 542.8358154296875" stroke-width="6.0" fill="none" stroke="rgb(0, 0, 0)" stroke-opacity="0.5113047" stroke-linecap="round" stroke-linejoin="round"/>
    <path d="M 121.89849853515625 484.8160705566406 C 124.0819091796875 478.2999267578125 132.13955688476562 498.37152099609375 143.04290771484375 472.33843994140625 C 154.92344665527344 486.13592529296875 175.71153259277344 459.61029052734375 150.88430786132812 455.63934326171875 C 148.12661743164062 462.209228515625 136.68402099609375 476.71087646484375 151.12351989746094 453.87744140625 C 163.59756469726562 465.9674072265625 143.427490234375 493.1083984375 144.767822265625 510.087646484375" stroke-width="6.0" fill="none" stroke="rgb(0, 0, 0)" stroke-opacity="0.72076553" stroke-linecap="round" stroke-linejoin="round"/>
    <path d="M 100.19776916503906 76.17835998535156 C 117.06520080566406 62.30423355102539 140.21009826660156 78.59004211425781 111.97147369384766 96.97652435302734 C 98.33030700683594 70.80884552001953 111.0697021484375 75.40794372558594 85.6539077758789 72.75980377197266 C 77.30133056640625 72.73640441894531 81.31450653076172 64.75768280029297 66.62146759033203 40.931976318359375 C 71.05620574951172 54.33867263793945 54.760475158691406 54.868167877197266 27.402748107910156 76.64386749267578" stroke-width="6.0" fill="none" stroke="rgb(0, 0, 0)" stroke-opacity="0.24455145" stroke-linecap="round" stroke-linejoin="round"/>
    <path d="M 283.0787353515625 229.8076934814453 C 262.0838317871094 255.6372833251953 283.5329284667969 258.84918212890625 308.3298034667969 273.28912353515625 C 303.5319519042969 262.5572509765625 298.5073547363281 275.7745361328125 284.74285888671875 250.44775390625 C 277.111328125 250.61019897460938 301.2278137207031 231.37086486816406 319.4880676269531 260.2156982421875 C 346.7727966308594 234.3512725830078 344.6385192871094 221.28968811035156 365.3692626953125 210.96774291992188" stroke-width="6.0" fill="none" stroke="rgb(0, 0, 0)" stroke-opacity="0.5530914" stroke-linecap="round" stroke-linejoin="round"/>
    <path d="M 4.761504650115967 120.3826904296875 C 8.589909553527832 108.61725616455078 15.952960968017578 106.4528579711914 21.454416275024414 106.05449676513672 C 37.8512077331543 87.77984619140625 61.877811431884766 103.40877532958984 46.54544448852539 73.8314437866211 C 41.187591552734375 57.811302185058594 31.973011016845703 78.14575958251953 54.56493377685547 105.24515533447266 C 24.692651748657227 114.68339538574219 45.63300704956055 128.31629943847656 21.869949340820312 130.1051788330078" stroke-width="6.0" fill="none" stroke="rgb(0, 0, 0)" stroke-opacity="0.2381676" stroke-linecap="round" stroke-linejoin="round"/>
    <path d="M 295.2373046875 35.91704559326172 C 325.05487060546875 48.61619186401367 300.636474609375 73.89266204833984 324.4337463378906 75.07821655273438 C 336.48455810546875 67.427734375 364.9578552246094 42.56187438964844 340.6924743652344 20.57270622253418 C 359.9302062988281 -4.937469959259033 363.99908447265625 -8.87846565246582 391.8126220703125 -24.672157287597656 C 377.4920349121094 -35.751651763916016 395.5410461425781 -23.70811653137207 409.6622009277344 -34.62465286254883" stroke-width="6.0" fill="none" stroke="rgb(0, 0, 0)" stroke-opacity="0.27195588" stroke-linecap="round" stroke-linejoin="round"/>
    <path d="M 44.832462310791016 121.60758209228516 C 61.588680267333984 126.73005676269531 40.91331100463867 106.59255981445312 38.87662124633789 100.9832992553711 C 41.03209686279297 128.82139587402344 23.490266799926758 117.35985565185547 9.390743255615234 94.5146713256836 C -11.112339973449707 105.67796325683594 8.470863342285156 117.53062438964844 -19.10935401916504 137.6860809326172 C -29.46172523498535 113.13890075683594 -44.568599700927734 104.48346710205078 -43.761016845703125 115.11446380615234" stroke-width="6.0" fill="none" stroke="rgb(0, 0, 0)" stroke-opacity="0.2601668" stroke-linecap="round" stroke-linejoin="round"/>
    <path d="M 594.426025390625 18.62934684753418 C 588.6495361328125 15.801307678222656 603.5342407226562 0.792476236820221 601.2968139648438 19.026288986206055 C 579.6843872070312 -10.25629711151123 599.5067749023438 18.697736740112305 577.3496704101562 38.118141174316406 C 569.64404296875 45.895999908447266 578.3651733398438 50.87542724609375 563.8543701171875 69.64024353027344 C 535.162353515625 43.50857162475586 559.3121337890625 40.11445236206055 537.0396118164062 64.37913513183594" stroke-width="6.0" fill="none" stroke="rgb(0, 0, 0)" stroke-opacity="0.8293562" stroke-linecap="round" stroke-linejoin="round"/>
    <path d="M 198.94993591308594 25.59779167175293 C 196.60963439941406 5.717137336730957 201.00267028808594 25.018266677856445 194.7025909423828 -3.2127954959869385 C 205.7153778076172 -22.864360809326172 188.5983428955078 -41.63529586791992 175.38961791992188 -18.629867553710938 C 147.4685821533203 -11.479273796081543 132.21568298339844 -23.772964477539062 126.9352035522461 -20.731645584106445 C 100.59394836425781 -33.94508361816406 78.82810974121094 -51.97761535644531 101.90725708007812 -50.428775787353516" stroke-width="6.0" fill="none" stroke="rgb(0, 0, 0)" stroke-opacity="0.6307544" stroke-linecap="round" stroke-linejoin="round"/>
    <path d="M 481.3208312988281 476.88775634765625 C 510.68505859375 493.8027038574219 502.19183349609375 496.4737854003906 501.2725830078125 521.234375 C 501.4561462402344 514.5372314453125 482.2450866699219 503.70989990234375 465.3463134765625 527.455810546875 C 482.0986022949219 500.97125244140625 511.5904846191406 502.7372131347656 527.60107421875 532.6735229492188 C 556.0398559570312 508.7215881347656 565.4116821289062 494.71319580078125 584.4288330078125 519.7488403320312" stroke-width="6.0" fill="none" stroke="rgb(0, 0, 0)" stroke-opacity="0.055908658" stroke-linecap="round" stroke-linejoin="round"/>
    <path d="M 597.8552856445312 131.62693786621094 C 618.6055297851562 149.5103759765625 609.8939208984375 169.8636474609375 630.6092529296875 150.4273681640625 C 636.17822265625 168.78236389160156 648.035888671875 193.62115478515625 619.728271484375 205.65481567382812 C 646.5817260742188 209.47120666503906 650.3682861328125 190.7652130126953 679.648681640625 213.6627960205078 C 679.1822509765625 202.2059783935547 678.6084594726562 177.62142944335938 662.5658569335938 160.74996948242188" stroke-width="6.0" fill="none" stroke="rgb(0, 0, 0)" stroke-opacity="0.5264485" stroke-linecap="round" stroke-linejoin="round"/>
    <path d="M 0.3901995122432709 550.7577514648438 C -17.522003173828125 528.547119140625 -4.505763053894043 553.6738891601562 16.19126319885254 543.1292724609375 C -12.493965148925781 548.3258666992188 12.499488830566406 564.7877807617188 33.28833770751953 586.427978515625 C 60.96186447143555 578.8434448242188 87.47725677490234 572.5791625976562 63.5391845703125 560.68505859375 C 41.68629455566406 540.1353149414062 68.60790252685547 557.6458740234375 96.24763488769531 566.5966796875" stroke-width="6.0" fill="none" stroke="rgb(0, 0, 0)" stroke-opacity="0.17420267" stroke-linecap="round" stroke-linejoin="round"/>
    <path d="M 581.2657470703125 416.11627197265625 C 606.9964599609375 433.375732421875 590.3906860351562 438.7127685546875 570.8717651367188 427.1221618652344 C 582.181640625 404.7630310058594 595.9115600585938 431.6903076171875 622.8334350585938 425.1864318847656 C 652.5104370117188 453.07745361328125 624.453369140625 459.2207946777344 649.7156982421875 487.272705078125 C 632.9694213867188 491.2057189941406 659.170654296875 469.644287109375 673.8912963867188 453.9240417480469" stroke-width="6.0" fill="none" stroke="rgb(0, 0, 0)" stroke-opacity="0.9823797" stroke-linecap="round" stroke-linejoin="round"/>
    <path d="M 100.75244903564453 531.212158203125 C 76.07601165771484 543.7501220703125 84.42216491699219 566.9493408203125 81.219970703125 552.822021484375 C 66.15242767333984 526.9297485351562 51.55189895629883 503.4118347167969 21.628767013549805 496.56805419921875 C 35.583839416503906 524.7141723632812 58.656959533691406 524.2991333007812 51.4196891784668 527.060546875 C 27.465499877929688 525.7900390625 49.30847930908203 534.8480834960938 60.5380973815918 514.6473999023438" stroke-width="6.0" fill="none" stroke="rgb(0, 0, 0)" stroke-opacity="0.07370939" stroke-linecap="round" stroke-linejoin="round"/>
    <path d="M 507.47747802734375 176.96517944335938 C 496.6004943847656 204.0249481201172 471.0525207519531 184.231201171875 463.5400085449219 198.15029907226562 C 466.40277099609375 222.0777587890625 441.98907470703125 227.71958923339844 448.76776123046875 226.643798828125 C 420.6273498535156 253.19032287597656 400.5271911621094 276.5755310058594 379.9933776855469 252.65101623535156 C 362.326416015625 234.09005737304688 374.158203125 247.412353515625 387.9166564941406 233.28822326660156" stroke-width="6.0" fill="none" stroke="rgb(0, 0, 0)" stroke-opacity="0.28152308" stroke-linecap="round" stroke-linejoin="round"/>
    <path d="M 142.54898071289062 29.761266708374023 C 146.81515502929688 50.15253448486328 126.03055572509766 41.80227279663086 121.68692016601562 29.475244522094727 C 131.4081268310547 35.528167724609375 113.38861846923828 7.072310447692871 93.6385498046875 -5.459000110626221 C 68.5547103881836 15.167143821716309 57.09591293334961 9.055184364318848 56.44172286987305 18.717588424682617 C 31.909934997558594 21.365148544311523 13.002806663513184 44.49470901489258 5.126911163330078 41.201229095458984" stroke-width="6.0" fill="none" stroke="rgb(0, 0, 0)" stroke-opacity="0.26329598" stroke-linecap="round" stroke-linejoin="round"/>
    <path d="M 279.0148010253906 135.72535705566406 C 265.1285095214844 109.46372985839844 280.2626037597656 119.51183319091797 255.40504455566406 110.13932037353516 C 257.8919982910156 138.38165283203125 263.27557373046875 141.55775451660156 283.7633972167969 160.66207885742188 C 278.8413391113281 162.8329315185547 300.85498046875 161.28240966796875 323.794189453125 159.8981475830078 C 298.49151611328125 184.06478881835938 311.349853515625 184.19085693359375 335.4171447753906 202.17787170410156" stroke-width="6.0" fill="none" stroke="rgb(0, 0, 0)" stroke-opacity="0.6775349" stroke-linecap="round" stroke-linejoin="round"/>
    <path d="M 372.1838684082031 72.18912506103516 C 387.61517333984375 52.5218620300293 416.6772766113281 80.85176086425781 435.1849060058594 58.46291732788086 C 430.5873718261719 87.75971221923828 426.71099853515625 117.59586334228516 434.34454345703125 137.64236450195312 C 419.8177490234375 162.29061889648438 444.6282043457031 136.3113250732422 437.9141540527344 130.1126251220703 C 427.521728515625 116.68468475341797 425.01116943359375 139.09266662597656 442.2042236328125 146.47613525390625" stroke-width="6.0" fill="none" stroke="rgb(0, 0, 0)" stroke-opacity="0.522562" stroke-linecap="round" stroke-linejoin="round"/>
    <path d="M 251.77630615234375 248.6454315185547 C 230.62828063964844 253.92147827148438 246.13095092773438 280.3005065917969 271.6665954589844 284.0615234375 C 247.72604370117188 271.2270812988281 249.8640594482422 261.8592529296875 244.47747802734375 254.84182739257812 C 243.6525421142578 261.37957763671875 215.90049743652344 247.90440368652344 194.4916534423828 254.42373657226562 C 206.11131286621094 226.7506866455078 229.52577209472656 216.6803436279297 213.78053283691406 231.4253387451172" stroke-width="6.0" fill="none" stroke="rgb(0, 0, 0)" stroke-opacity="0.92083496" stroke-linecap="round" stroke-linejoin="round"/>
    <path d="M 538.2388305664062 12.119739532470703 C 557.241943359375 0.30303266644477844 544.062744140625 -0.19981616735458374 555.833740234375 -24.3067684173584 C 577.9877319335938 -46.2236442565918 606.4408569335938 -49.63700485229492 625.9902954101562 -63.47180938720703 C 620.9967041015625 -54.73851776123047 602.2728271484375 -72.05508422851562 621.7109985351562 -57.5984001159668 C 637.2805786132812 -35.56706237792969 656.5416259765625 -34.65087890625 636.0800170898438 -45.983489990234375" stroke-width="6.0" fill="none" stroke="rgb(0, 0, 0)" stroke-opacity="0.5067953" stroke-linecap="round" stroke-linejoin="round"/>
    <path d="M 81.4098892211914 510.7972106933594 C 104.16984558105469 482.5340881347656 85.69566345214844 502.46990966796875 105.95425415039062 487.4393005371094 C 103.34117126464844 512.5211791992188 115.61920928955078 498.9598388671875 135.0295867919922 499.2674255371094 C 143.15419006347656 476.6997985839844 114.98796844482422 469.04779052734375 120.59059143066406 449.7427978515625 C 142.85943603515625 454.9555969238281 133.84503173828125 434.7264404296875 157.51454162597656 449.66412353515625" stroke-width="6.0" fill="none" stroke="rgb(0, 0, 0)" stroke-opacity="0.6888505" stroke-linecap="round" stroke-linejoin="round"/>
    <path d="M 171.06161499023438 231.95941162109375 C 150.7960662841797 236.25489807128906 178.73114013671875 257.68157958984375 187.57391357421875 268.3832702636719 C 173.678955078125 262.95367431640625 144.88209533691406 279.77191162109375 160.9364471435547 250.3057861328125 C 185.6273651123047 259.10809326171875 191.6958770751953 229.61590576171875 176.87930297851562 247.9210662841797 C 165.2069091796875 275.9825134277344 173.77130126953125 271.4109191894531 166.35984802246094 262.2934875488281" stroke-width="6.0" fill="none" stroke="rgb(0, 0, 0)" stroke-opacity="0.25199872" stroke-linecap="round" stroke-linejoin="round"/>
    <path d="M 280.0387878417969 406.2976989746094 C 299.45745849609375 400.1268615722656 275.59619140625 400.81768798828125 285.37750244140625 421.4147033691406 C 277.79132080078125 430.29522705078125 284.3343200683594 418.2037658691406 260.8605651855469 392.03399658203125 C 290.12225341796875 400.4696960449219 311.8117370605469 386.13848876953125 324.4773864746094 409.6809387207031 C 312.4048156738281 388.67669677734375 328.3732604980469 412.6179504394531 346.6990661621094 430.759765625" stroke-width="6.0" fill="none" stroke="rgb(0, 0, 0)" stroke-opacity="0.6000333" stroke-linecap="round" stroke-linejoin="round"/>
    <path d="M 396.33819580078125 408.4734191894531 C 409.5752258300781 417.7974548339844 439.46331787109375 403.363037109375 434.53729248046875 396.61956787109375 C 406.6964111328125 409.1037292480469 411.0189514160156 390.4986267089844 424.6119384765625 373.88037109375 C 426.6501159667969 390.97418212890625 451.0416564941406 401.28631591796875 451.5205383300781 421.97149658203125 C 471.9588623046875 444.5611572265625 452.7870178222656 420.45733642578125 430.46368408203125 405.9764404296875" stroke-width="6.0" fill="none" stroke="rgb(0, 0, 0)" stroke-opacity="0.8083439" stroke-linecap="round" stroke-linejoin="round"/>
    <path d="M 457.77093505859375 109.82101440429688 C 468.513671875 99.99896240234375 443.8717041015625 91.31596374511719 458.5242919921875 79.70108795166016 C 475.8096923828125 69.58011627197266 461.4432373046875 57.223175048828125 482.51611328125 55.4953727722168 C 504.5396728515625 60.509849548339844 531.19775390625 34.78279113769531 554.5632934570312 34.81143569946289 C 576.6131591796875 27.711585998535156 564.5145263671875 0.9552844166755676 585.7689208984375 -20.802810668945312" stroke-width="6.0" fill="none" stroke="rgb(0, 0, 0)" stroke-opacity="0.2002966" stroke-linecap="round" stroke-linejoin="round"/>
    <path d="M 245.49510192871094 341.6221618652344 C 269.9323425292969 339.0764465332031 258.9153747558594 352.01654052734375 275.6518249511719 351.3113708496094 C 283.5137939453125 331.92083740234375 291.583740234375 302.1636962890625 277.9953918457031 317.875244140625 C 258.11175537109375 333.7442626953125 257.48638916015625 349.55841064453125 232.7288818359375 356.3877258300781 C 240.73812866210938 350.5908203125 268.6578063964844 343.62982177734375 240.9213104248047 325.5546875" stroke-width="6.0" fill="none" stroke="rgb(0, 0, 0)" stroke-opacity="0.3731014" stroke-linecap="round" stroke-linejoin="round"/>
    <path d="M 8.466270446777344 193.34788513183594 C 28.459989547729492 174.7424774169922 39.06488037109375 182.34368896484375 23.954269409179688 193.9951934814453 C 14.615253448486328 171.7310333251953 7.628283500671387 177.05126953125 -12.310507774353027 196.48190307617188 C -24.438371658325195 183.91156005859375 -10.76845645904541 189.69375610351562 -20.518346786499023 212.9521942138672 C 9.249996185302734 203.5560760498047 33.33302307128906 195.11122131347656 14.638581275939941 221.95628356933594" stroke-width="6.0" fill="none" stroke="rgb(0, 0, 0)" stroke-opacity="0.9182054" stroke-linecap="round" stroke-linejoin="round"/>
    <path d="M 242.05499267578125 137.07098388671875 C 255.64512634277344 114.9033203125 269.6897277832031 120.2848892211914 249.86880493164062 112.2803726196289 C 258.8612365722656 84.52218627929688 281.4538879394531 69.8695297241211 283.53790283203125 42.78474807739258 C 313.2586975097656 52.542945861816406 322.47271728515625 23.727449417114258 333.85772705078125 18.69398307800293 C 326.6329650878906 21.530925750732422 325.09674072265625 0.7185524702072144 336.80828857421875 8.537233352661133" stroke-width="6.0" fill="none" stroke="rgb(0, 0, 0)" stroke-opacity="0.30111647" stroke-linecap="round" stroke-linejoin="round"/>
    <path d="M 396.978759765625 397.46978759765625 C 383.1773681640625 403.807861328125 361.4071960449219 423.6470031738281 337.7420349121094 436.7729797363281 C 314.7661437988281 413.6537170410156 291.1419677734375 395.572509765625 273.1669006347656 381.3121643066406 C 274.5556640625 363.4525451660156 286.7618713378906 351.1736145019531 259.126220703125 350.95489501953125 C 241.5878448486328 376.9423522949219 231.3840789794922 347.066650390625 241.72206115722656 371.4794921875" stroke-width="6.0" fill="none" stroke="rgb(0, 0, 0)" stroke-opacity="0.83523214" stroke-linecap="round" stroke-linejoin="round"/>
    <path d="M 401.3931579589844 89.4666976928711 C 376.7981262207031 90.20901489257812 390.2119445800781 66.24645233154297 375.60546875 50.11606216430664 C 404.88543701171875 37.87739181518555 402.7420654296875 13.905927658081055 383.22418212890625 -13.767400741577148 C 370.6582336425781 4.328365325927734 359.4206237792969 18.640777587890625 335.1205749511719 34.172996520996094 C 307.91387939453125 55.2529411315918 317.7151794433594 35.48367691040039 309.16680908203125 31.786548614501953" stroke-width="6.0" fill="none" stroke="rgb(0, 0, 0)" stroke-opacity="0.62180704" stroke-linecap="round" stroke-linejoin="round"/>
    <path d="M 527.1053466796875 55.79078674316406 C 546.003173828125 36.76295471191406 540.0098266601562 64.46155548095703 526.31982421875 57.60448455810547 C 547.360107421875 75.59843444824219 556.2908935546875 93.41300201416016 533.0742797851562 105.18319702148438 C 506.59307861328125 131.731201171875 486.1568298339844 126.69287872314453 491.601806640625 144.8287811279297 C 502.3453674316406 125.70439910888672 495.1304626464844 117.2203369140625 466.8194580078125 128.28817749023438" stroke-width="6.0" fill="none" stroke="rgb(0, 0, 0)" stroke-opacity="0.8385365" stroke-linecap="round" stroke-linejoin="round"/>
    <path d="M 584.0867919921875 78.37320709228516 C 609.3106079101562 55.18944549560547 603.9876708984375 27.907793045043945 589.6444091796875 16.80206298828125 C 601.9187622070312 27.43785858154297 618.0101928710938 32.036773681640625 621.9103393554688 60.71094512939453 C 632.0816650390625 51.02851104736328 633.4678955078125 63.06332015991211 609.202392578125 72.78607177734375 C 594.1170043945312 63.531028747558594 604.6947631835938 56.62332534790039 625.0366821289062 60.09111022949219" stroke-width="6.0" fill="none" stroke="rgb(0, 0, 0)" stroke-opacity="0.9877916" stroke-linecap="round" stroke-linejoin="round"/>
    <path d="M 32.759403228759766 386.05609130859375 C 12.175138473510742 406.9886169433594 33.287330627441406 429.15399169921875 7.73984432220459 428.6531982421875 C -7.768199443817139 456.86175537109375 -34.749210357666016 440.22210693359375 -26.16173553466797 434.4073181152344 C -42.06691360473633 431.9471740722656 -23.99123764038086 428.83306884765625 -2.5958831310272217 425.65716552734375 C -25.473472595214844 425.49957275390625 -16.27109146118164 401.658203125 -21.530780792236328 405.0860290527344" stroke-width="6.0" fill="none" stroke="rgb(0, 0, 0)" stroke-opacity="0.00016971548" stroke-linecap="round" stroke-linejoin="round"/>
    <path d="M 54.55731964111328 362.5419616699219 C 61.701290130615234 350.8178405761719 62.20155334472656 333.2289123535156 72.45002746582031 360.2502136230469 C 64.25057983398438 333.5067138671875 47.62568283081055 330.7743225097656 51.27470397949219 337.9598083496094 C 49.66272735595703 347.38983154296875 62.6175422668457 324.23126220703125 78.1367416381836 307.49609375 C 68.61817932128906 327.28912353515625 96.4845199584961 314.8481140136719 97.84329223632812 326.9738464355469" stroke-width="6.0" fill="none" stroke="rgb(0, 0, 0)" stroke-opacity="0.04577811" stroke-linecap="round" stroke-linejoin="round"/>
    <path d="M 98.47322082519531 84.28949737548828 C 111.48458862304688 97.58305358886719 87.94226837158203 104.23416137695312 69.19487762451172 130.04713439941406 C 62.768672943115234 127.46989440917969 79.65388488769531 140.4771728515625 56.07984161376953 135.34539794921875 C 81.67743682861328 155.59336853027344 87.04608917236328 171.9220733642578 84.07637023925781 181.3894805908203 C 111.40779876708984 159.46763610839844 111.33751678466797 161.28948974609375 84.29180145263672 187.4080047607422" stroke-width="6.0" fill="none" stroke="rgb(0, 0, 0)" stroke-opacity="0.8388161" stroke-linecap="round" stroke-linejoin="round"/>
    <path d="M 289.73919677734375 305.0197448730469 C 315.0489196777344 285.6518859863281 319.76214599609375 299.4815673828125 297.465087890625 292.6859130859375 C 303.4978332519531 315.64764404296875 303.74444580078125 308.76739501953125 332.4745178222656 333.6820373535156 C 348.2170104980469 320.1377868652344 376.0726013183594 348.3672790527344 373.2433166503906 326.36956787109375 C 367.96807861328125 338.3304443359375 382.8736877441406 326.3052062988281 395.0033264160156 347.9076843261719" stroke-width="6.0" fill="none" stroke="rgb(0, 0, 0)" stroke-opacity="0.71187437" stroke-linecap="round" stroke-linejoin="round"/>
    <path d="M 561.3272705078125 379.52996826171875 C 543.340576171875 387.02001953125 530.7753295898438 377.7376403808594 541.1577758789062 406.5777893066406 C 550.1629638671875 434.0773620605469 550.3966064453125 445.77587890625 539.739501953125 422.7003479003906 C 530.8736572265625 421.5225830078125 535.1119995117188 431.5519714355469 530.1206665039062 446.3841552734375 C 550.6041259765625 433.5398254394531 571.4420776367188 452.0381164550781 572.805908203125 423.5544738769531" stroke-width="6.0" fill="none" stroke="rgb(0, 0, 0)" stroke-opacity="0.14532672" stroke-linecap="round" stroke-linejoin="round"/>
    <path d="M 402.1724853515625 119.9614486694336 C 417.14361572265625 99.57757568359375 404.3405456542969 84.61123657226562 424.7434387207031 96.08692169189453 C 412.4518737792969 111.30255889892578 384.3902587890625 130.14413452148438 360.49908447265625 152.22625732421875 C 374.9085998535156 174.11676025390625 389.4533996582031 177.79298400878906 373.7091064453125 194.85140991210938 C 391.638427734375 182.06973266601562 401.5080261230469 207.6588134765625 394.7213134765625 235.06092834472656" stroke-width="6.0" fill="none" stroke="rgb(0, 0, 0)" stroke-opacity="0.97582275" stroke-linecap="round" stroke-linejoin="round"/>
    <path d="M 187.61239624023438 331.2547912597656 C 158.3502960205078 316.3352355957031 165.58399963378906 333.19073486328125 187.83108520507812 352.9897155761719 C 212.52027893066406 365.2674865722656 221.3782196044922 380.5739440917969 224.1751251220703 386.77716064453125 C 240.74392700195312 414.6345520019531 228.39459228515625 395.3200988769531 239.3541259765625 376.5386962890625 C 219.7418212890625 377.3695068359375 212.41372680664062 373.0799560546875 215.80963134765625 350.843994140625" stroke-width="6.0" fill="none" stroke="rgb(0, 0, 0)" stroke-opacity="0.58398604" stroke-linecap="round" stroke-linejoin="round"/>
    <path d="M 152.98968505859375 198.3176727294922 C 165.571044921875 177.64602661132812 144.79324340820312 167.0038299560547 117.8445816040039 192.9467315673828 C 124.82109069824219 202.66014099121094 124.254150390625 206.98077392578125 115.69928741455078 224.06265258789062 C 104.77083587646484 207.26036071777344 85.802978515625 181.3509521484375 86.15139770507812 176.30682373046875 C 88.37355041503906 151.78358459472656 71.64543151855469 134.5847930908203 61.51844787597656 126.27265930175781" stroke-width="6.0" fill="none" stroke="rgb(0, 0, 0)" stroke-opacity="0.21844529" stroke-linecap="round" stroke-linejoin="round"/>
    <path d="M 451.57342529296875 318.27935791015625 C 481.3713073730469 337.7006530761719 510.2392578125 308.2288818359375 520.3755493164062 304.96893310546875 C 544.6853637695312 311.79095458984375 551.9533081054688 339.3247985839844 562.9063720703125 328.5810241699219 C 587.822265625 355.32025146484375 580.974853515625 357.6944885253906 567.944580078125 382.41461181640625 C 587.3111572265625 374.9121398925781 605.4801635742188 371.6455078125 578.0712280273438 395.54241943359375" stroke-width="6.0" fill="none" stroke="rgb(0, 0, 0)" stroke-opacity="0.1925124" stroke-linecap="round" stroke-linejoin="round"/>
    <path d="M 308.3168029785156 568.9471435546875 C 288.36053466796875 596.2836303710938 290.6390075683594 566.7635498046875 264.6072998046875 576.983642578125 C 281.0220031738281 598.87939453125 276.434814453125 575.1162109375 278.7000732421875 587.2407836914062 C 307.27349853515625 603.7932739257812 316.06719970703125 630.1783447265625 330.8806457519531 609.4036254882812 C 328.43414306640625 599.3065185546875 303.6853942871094 572.5626220703125 321.3782653808594 576.0076293945312" stroke-width="6.0" fill="none" stroke="rgb(0, 0, 0)" stroke-opacity="0.5749623" stroke-linecap="round" stroke-linejoin="round"/>
    <path d="M 136.5673828125 155.20877075195312 C 129.84933471679688 163.02182006835938 125.83084106445312 133.9952850341797 136.228759765625 136.12533569335938 C 144.71414184570312 143.22630310058594 160.07176208496094 148.36277770996094 172.12469482421875 122.67814636230469 C 197.8075408935547 99.04627227783203 215.02105712890625 87.1273193359375 190.2513885498047 103.08366394042969 C 186.511962890625 96.79056549072266 196.15533447265625 95.22982788085938 198.1634063720703 73.41271209716797" stroke-width="6.0" fill="none" stroke="rgb(0, 0, 0)" stroke-opacity="0.39099255" stroke-linecap="round" stroke-linejoin="round"/>
    <path d="M 478.5107727050781 327.4146728515625 C 506.1188049316406 306.0592346191406 516.7561645507812 330.90936279296875 534.4572143554688 344.6688232421875 C 526.8049926757812 371.63671875 530.0164794921875 374.94091796875 507.4106140136719 345.2826843261719 C 513.2499389648438 347.4718322753906 540.0686645507812 335.7533264160156 554.9664306640625 359.966064453125 C 545.5975952148438 354.7253723144531 554.3534545898438 355.478515625 534.0107421875 338.7257995605469" stroke-width="6.0" fill="none" stroke="rgb(0, 0, 0)" stroke-opacity="0.8347484" stroke-linecap="round" stroke-linejoin="round"/>
    <path d="M 116.61573028564453 108.83478546142578 C 134.55532836914062 129.96986389160156 155.6386260986328 155.87203979492188 185.29737854003906 153.54795837402344 C 188.31724548339844 140.9871368408203 162.35902404785156 116.8792724609375 175.89437866210938 116.1106948852539 C 165.70542907714844 93.80360412597656 175.03382873535156 69.80630493164062 182.24476623535156 93.81342315673828 C 171.31192016601562 90.89217376708984 178.29246520996094 79.23270416259766 183.3026580810547 83.16581726074219" stroke-width="6.0" fill="none" stroke="rgb(0, 0, 0)" stroke-opacity="0.36449343" stroke-linecap="round" stroke-linejoin="round"/>
    <path d="M 189.77987670898438 257.0044250488281 C 160.06982421875 241.7349395751953 143.36135864257812 256.1239318847656 139.52879333496094 276.530517578125 C 117.62713623046875 290.54888916015625 140.30029296875 288.3197937011719 131.78480529785156 276.6481018066406 C 134.92510986328125 257.1543273925781 141.32276916503906 277.7018737792969 162.8455810546875 256.10198974609375 C 165.12265014648438 241.85606384277344 188.3428192138672 216.44381713867188 162.8668212890625 187.5616455078125" stroke-width="6.0" fill="none" stroke="rgb(0, 0, 0)" stroke-opacity="0.5071783" stroke-linecap="round" stroke-linejoin="round"/>
    <path d="M 18.6965389251709 349.1542663574219 C 13.004610061645508 354.55645751953125 37.422821044921875 357.61212158203125 40.030982971191406 387.53582763671875 C 38.35721206665039 404.0876159667969 30.30632972717285 387.4460754394531 46.595027923583984 401.4796142578125 C 34.05497360229492 399.3617248535156 34.6796989440918 393.1688232421875 34.8497314453125 402.8895263671875 C 55.728641510009766 421.2819519042969 62.57080078125 401.2725524902344 63.419002532958984 398.0457458496094" stroke-width="6.0" fill="none" stroke="rgb(0, 0, 0)" stroke-opacity="0.17914519" stroke-linecap="round" stroke-linejoin="round"/>
    <path d="M 569.2471313476562 395.62799072265625 C 597.3112182617188 409.7831726074219 596.3214721679688 401.3109130859375 579.4505615234375 400.6094055175781 C 553.2222900390625 392.7355651855469 525.7907104492188 375.14202880859375 550.2142944335938 366.81707763671875 C 548.434814453125 364.1356506347656 521.2210693359375 392.9710388183594 510.665283203125 405.1552429199219 C 511.9076843261719 424.93408203125 532.0 410.7330322265625 534.6610107421875 391.2040100097656" stroke-width="6.0" fill="none" stroke="rgb(0, 0, 0)" stroke-opacity="0.6536753" stroke-linecap="round" stroke-linejoin="round"/>
    <path d="M 219.15806579589844 392.02191162109375 C 239.32620239257812 392.9817199707031 231.90594482421875 417.4162292480469 232.88824462890625 408.6300964355469 C 254.9114227294922 407.8018493652344 253.8380126953125 414.05450439453125 253.94822692871094 392.392578125 C 233.8845672607422 367.057861328125 242.49319458007812 349.7489013671875 223.74754333496094 341.4422912597656 C 236.78570556640625 318.58209228515625 220.56646728515625 337.21246337890625 233.78182983398438 336.10345458984375" stroke-width="6.0" fill="none" stroke="rgb(0, 0, 0)" stroke-opacity="0.47881463" stroke-linecap="round" stroke-linejoin="round"/>
    <path d="M 126.44236755371094 96.72775268554688 C 146.44427490234375 68.07452392578125 119.03292846679688 72.48371124267578 98.66068267822266 80.29605102539062 C 71.01216125488281 84.63229370117188 44.366851806640625 70.12786865234375 25.169103622436523 97.5821762084961 C 31.13055419921875 101.3984603881836 2.2477571964263916 114.57129669189453 11.952460289001465 101.57857513427734 C -12.902628898620605 98.53076934814453 16.66391944885254 120.56891632080078 -3.1020727157592773 140.39071655273438" stroke-width="6.0" fill="none" stroke="rgb(0, 0, 0)" stroke-opacity="0.6008387" stroke-linecap="round" stroke-linejoin="round"/>
  </g>
</svg>
