<?xml version="1.0" ?>
<svg xmlns="http://www.w3.org/2000/svg" version="1.1" width="600" height="600">
  <defs/>
  <g>
    <path d="M 531.8944091796875 41.3339958190918 C 509.99102783203125 29.340267181396484 503.6080017089844 8.309427261352539 533.1817626953125 25.767478942871094 C 543.3160400390625 53.46198654174805 532.5579223632812 66.14647674560547 559.483642578125 41.13084030151367 C 565.6524047851562 59.089900970458984 536.6096801757812 82.5527572631836 531.674072265625 62.696372985839844 C 552.7492065429688 44.21775817871094 539.56396484375 45.44365692138672 564.5194702148438 44.82019805908203" stroke-width="6.0" fill="none" stroke="rgb(0, 0, 0)" stroke-opacity="0.9058167" stroke-linecap="round" stroke-linejoin="round"/>
    <path d="M 31.206642150878906 143.2823486328125 C 19.604808807373047 140.21823120117188 15.581789016723633 112.64556121826172 30.581645965576172 128.23147583007812 C 28.066898345947266 103.0461196899414 31.14334487915039 80.88511657714844 59.83826446533203 88.33528900146484 C 73.91674041748047 59.48802185058594 66.75701141357422 83.7601089477539 59.558021545410156 55.91910171508789 C 69.87226104736328 67.73046112060547 60.010353088378906 85.91922760009766 81.22795867919922 102.96644592285156" stroke-width="6.0" fill="none" stroke="rgb(0, 0, 0)" stroke-opacity="0.40719503" stroke-linecap="round" stroke-linejoin="round"/>
    <path d="M 205.2772216796875 565.7437744140625 C 218.4242401123047 568.88671875 217.75405883789062 554.8870849609375 242.55551147460938 580.013671875 C 217.64321899414062 589.9869995117188 206.76007080078125 590.5144653320312 183.5715789794922 609.1597900390625 C 201.94517517089844 585.582763671875 176.41004943847656 577.9860229492188 155.65040588378906 596.073486328125 C 172.3830108642578 617.8948974609375 142.96173095703125 588.7017211914062 161.38092041015625 610.9113159179688" stroke-width="6.0" fill="none" stroke="rgb(0, 0, 0)" stroke-opacity="0.61746067" stroke-linecap="round" stroke-linejoin="round"/>
    <path d="M 93.74626922607422 375.6758117675781 C 116.02723693847656 373.3216247558594 138.4313201904297 390.489501953125 114.78128814697266 367.8081970214844 C 127.03014373779297 349.77947998046875 141.7939910888672 324.6488342285156 117.29621887207031 351.7323303222656 C 87.52669525146484 369.2278747558594 71.51123809814453 342.2278137207031 46.27595520019531 331.4521179199219 C 48.03596115112305 330.0147705078125 29.873947143554688 359.2905578613281 36.201416015625 340.4544372558594" stroke-width="6.0" fill="none" stroke="rgb(0, 0, 0)" stroke-opacity="0.2880635" stroke-linecap="round" stroke-linejoin="round"/>
    <path d="M 405.6955871582031 519.0049438476562 C 379.37158203125 500.1006164550781 349.7503967285156 480.65167236328125 331.6136169433594 459.2852478027344 C 334.1335144042969 487.6486511230469 346.13153076171875 499.82073974609375 320.6783447265625 481.04364013671875 C 309.962646484375 510.5624694824219 289.70806884765625 518.6802368164062 295.2465515136719 524.7734985351562 C 295.64581298828125 511.897705078125 291.2372131347656 531.3657836914062 305.3638000488281 533.1988525390625" stroke-width="6.0" fill="none" stroke="rgb(0, 0, 0)" stroke-opacity="0.65484214" stroke-linecap="round" stroke-linejoin="round"/>
    <path d="M 580.8834228515625 151.00091552734375 C 596.1412963867188 124.8801040649414 569.908203125 115.53350067138672 583.883056640625 122.7242202758789 C 602.9452514648438 97.52131652832031 618.811279296875 110.48790740966797 589.53125 125.1440200805664 C 564.8251342773438 130.43234252929688 589.80517578125 122.12113189697266 600.6699829101562 132.8128662109375 C 574.6227416992188 118.5591049194336 595.0062866210938 115.6063232421875 609.5377807617188 114.4332504272461" stroke-width="6.0" fill="none" stroke="rgb(0, 0, 0)" stroke-opacity="0.49969494" stroke-linecap="round" stroke-linejoin="round"/>
    <path d="M 458.0474853515625 188.08480834960938 C 487.99334716796875 169.5019073486328 493.2270812988281 142.06387329101562 484.4007568359375 139.96055603027344 C 482.09918212890625 165.36732482910156 502.8880920410156 193.7039031982422 500.70550537109375 217.64926147460938 C 497.8360900878906 196.1742401123047 512.8692016601562 191.35006713867188 484.3380432128906 169.7159881591797 C 473.3414306640625 199.10171508789062 481.27301025390625 193.0668182373047 452.1100158691406 210.54931640625" stroke-width="6.0" fill="none" stroke="rgb(0, 0, 0)" stroke-opacity="0.6617721" stroke-linecap="round" stroke-linejoin="round"/>
    <path d="M 103.66796875 355.7622985839844 C 84.70254516601562 331.4530944824219 78.18004608154297 310.4470520019531 68.41896057128906 281.7478942871094 C 61.95287322998047 269.959228515625 89.26461029052734 272.9189453125 72.9289779663086 272.11102294921875 C 86.35272979736328 268.0823974609375 113.19258117675781 247.67164611816406 141.3385772705078 221.25726318359375 C 169.0249481201172 195.27162170410156 158.42189025878906 193.87364196777344 145.7812042236328 177.9827880859375" stroke-width="6.0" fill="none" stroke="rgb(0, 0, 0)" stroke-opacity="0.943338" stroke-linecap="round" stroke-linejoin="round"/>
    <path d="M 482.1732482910156 249.8072509765625 C 452.9512939453125 238.2877197265625 432.4674377441406 246.11524963378906 443.5108642578125 241.85508728027344 C 420.82171630859375 219.6207733154297 407.73553466796875 233.10618591308594 426.1629943847656 254.9520263671875 C 418.3370666503906 283.1778869628906 392.1245422363281 280.0025634765625 387.1446228027344 262.5699462890625 C 376.7166442871094 246.57623291015625 399.029052734375 235.32846069335938 423.9733581542969 263.6801452636719" stroke-width="6.0" fill="none" stroke="rgb(0, 0, 0)" stroke-opacity="0.78680617" stroke-linecap="round" stroke-linejoin="round"/>
    <path d="M 332.9974670410156 346.3318786621094 C 322.861083984375 327.9945373535156 300.4890441894531 317.30450439453125 308.449951171875 345.5726623535156 C 292.1855773925781 351.14276123046875 276.4066467285156 370.3221435546875 275.721923828125 368.5072937011719 C 246.88575744628906 369.1649475097656 222.62071228027344 384.1764831542969 230.03713989257812 359.054931640625 C 229.49356079101562 365.2109375 252.94818115234375 392.7073059082031 238.90863037109375 389.6763610839844" stroke-width="6.0" fill="none" stroke="rgb(0, 0, 0)" stroke-opacity="0.7774332" stroke-linecap="round" stroke-linejoin="round"/>
    <path d="M 474.7689514160156 165.72622680664062 C 453.35394287109375 186.59259033203125 426.8952331542969 171.38772583007812 434.8794250488281 161.0205841064453 C 454.3695983886719 159.97377014160156 433.1368408203125 146.33921813964844 422.3389892578125 175.45631408691406 C 428.6252136230469 177.63490295410156 448.07342529296875 186.38540649414062 475.5369567871094 192.2406463623047 C 452.7586975097656 206.24583435058594 466.8883972167969 187.9424285888672 484.8193054199219 174.88978576660156" stroke-width="6.0" fill="none" stroke="rgb(0, 0, 0)" stroke-opacity="0.7907093" stroke-linecap="round" stroke-linejoin="round"/>
    <path d="M 253.7947998046875 491.15191650390625 C 224.4496307373047 476.8111877441406 203.0932159423828 448.3282470703125 212.19131469726562 464.07061767578125 C 186.91387939453125 461.9670104980469 211.50228881835938 440.8238830566406 219.05569458007812 444.1397399902344 C 224.68637084960938 459.6474304199219 201.15109252929688 446.060546875 187.7080535888672 458.4383850097656 C 184.90805053710938 438.2124328613281 162.6201934814453 465.5787658691406 140.0550994873047 487.64300537109375" stroke-width="6.0" fill="none" stroke="rgb(0, 0, 0)" stroke-opacity="0.5525751" stroke-linecap="round" stroke-linejoin="round"/>
    <path d="M 221.29319763183594 189.16123962402344 C 234.5232696533203 192.1688690185547 242.25668334960938 200.9485626220703 235.98895263671875 190.54519653320312 C 256.1533508300781 162.6172332763672 243.1278839111328 166.55426025390625 247.23965454101562 189.54981994628906 C 220.59121704101562 202.58602905273438 198.5032196044922 176.418701171875 172.576904296875 155.51290893554688 C 173.94374084472656 181.92027282714844 158.0445556640625 197.19984436035156 186.3837127685547 187.48931884765625" stroke-width="6.0" fill="none" stroke="rgb(0, 0, 0)" stroke-opacity="0.4126418" stroke-linecap="round" stroke-linejoin="round"/>
    <path d="M 450.5104064941406 295.4734191894531 C 453.21710205078125 296.95416259765625 461.7262268066406 290.7135925292969 441.0252685546875 310.0843505859375 C 459.8871154785156 306.9942321777344 436.80206298828125 331.6797180175781 422.4473571777344 316.03564453125 C 431.1328430175781 319.4967041015625 404.2818603515625 340.0702819824219 387.8130187988281 312.61395263671875 C 370.9530944824219 296.57391357421875 350.1109313964844 318.8028869628906 350.1459655761719 308.1799011230469" stroke-width="6.0" fill="none" stroke="rgb(0, 0, 0)" stroke-opacity="0.7559631" stroke-linecap="round" stroke-linejoin="round"/>
    <path d="M 402.1578063964844 11.553439140319824 C 418.0899963378906 11.087074279785156 428.2685241699219 22.91455841064453 431.2703857421875 -4.677639484405518 C 436.6505126953125 -22.147441864013672 441.6148681640625 -51.718299865722656 453.72430419921875 -46.82331085205078 C 445.8114318847656 -22.9085693359375 425.66217041015625 -40.141868591308594 427.8359375 -15.229829788208008 C 442.4912109375 -28.34480094909668 445.8669738769531 -27.69202423095703 425.458740234375 -45.59687042236328" stroke-width="6.0" fill="none" stroke="rgb(0, 0, 0)" stroke-opacity="0.6076185" stroke-linecap="round" stroke-linejoin="round"/>
    <path d="M 200.69143676757812 196.23484802246094 C 186.3119659423828 173.38491821289062 173.4348602294922 145.1139678955078 179.63693237304688 154.198486328125 C 180.34524536132812 148.5399169921875 161.43515014648438 121.0395278930664 179.71331787109375 135.60833740234375 C 202.16737365722656 117.61689758300781 206.37977600097656 132.45327758789062 226.35557556152344 142.90565490722656 C 249.5546875 161.97727966308594 241.21099853515625 135.2393341064453 248.77804565429688 139.2501220703125" stroke-width="6.0" fill="none" stroke="rgb(0, 0, 0)" stroke-opacity="0.8843804" stroke-linecap="round" stroke-linejoin="round"/>
    <path d="M 151.3995361328125 306.6596374511719 C 139.99363708496094 289.6450500488281 120.84878540039062 279.68096923828125 120.82434844970703 292.8774719238281 C 134.0225067138672 290.3505554199219 127.4677734375 305.5820617675781 152.7169189453125 304.3926086425781 C 158.52133178710938 322.0927734375 168.54278564453125 348.3623046875 143.20323181152344 324.7979736328125 C 113.219482421875 296.6700134277344 86.22116088867188 267.34271240234375 72.67504119873047 237.34327697753906" stroke-width="6.0" fill="none" stroke="rgb(0, 0, 0)" stroke-opacity="0.4450606" stroke-linecap="round" stroke-linejoin="round"/>
    <path d="M 437.2489318847656 576.7250366210938 C 413.0828857421875 568.8080444335938 421.8292236328125 597.064453125 436.3399963378906 589.4337158203125 C 423.1387634277344 598.6512451171875 410.9869079589844 570.7508544921875 388.1915283203125 549.2611083984375 C 385.607177734375 575.19580078125 414.60418701171875 600.06982421875 391.82366943359375 608.2723388671875 C 418.96917724609375 625.838134765625 441.78662109375 651.7607421875 422.261474609375 628.5159301757812" stroke-width="6.0" fill="none" stroke="rgb(0, 0, 0)" stroke-opacity="0.72480905" stroke-linecap="round" stroke-linejoin="round"/>
    <path d="M 273.146728515625 531.864013671875 C 284.84185791015625 518.2520751953125 256.1954040527344 522.0458984375 229.992431640625 533.5540161132812 C 212.92095947265625 527.4063110351562 205.56646728515625 499.6360168457031 201.51571655273438 497.5780944824219 C 182.01707458496094 468.3742370605469 205.86158752441406 477.7708435058594 233.42730712890625 500.3533935546875 C 246.02142333984375 513.4856567382812 228.18333435058594 499.5227355957031 238.45787048339844 527.3140869140625" stroke-width="6.0" fill="none" stroke="rgb(0, 0, 0)" stroke-opacity="0.18806982" stroke-linecap="round" stroke-linejoin="round"/>
    <path d="M 413.80511474609375 486.2123718261719 C 443.55535888671875 458.8597412109375 447.34808349609375 480.2796325683594 450.8847351074219 492.4564208984375 C 468.4025573730469 505.390625 482.9541320800781 492.5816345214844 458.25909423828125 484.61944580078125 C 477.501953125 487.2948913574219 469.8979797363281 511.4041748046875 483.4699401855469 513.8502197265625 C 472.71258544921875 522.2090454101562 467.1326904296875 527.021728515625 459.45928955078125 556.0325317382812" stroke-width="6.0" fill="none" stroke="rgb(0, 0, 0)" stroke-opacity="0.7673133" stroke-linecap="round" stroke-linejoin="round"/>
    <path d="M 88.57991027832031 403.59478759765625 C 111.9456558227539 414.13739013671875 106.41520690917969 441.8205871582031 81.60193634033203 427.0126037597656 C 59.86042785644531 452.4957275390625 68.58827209472656 449.5418701171875 70.94097900390625 460.36212158203125 C 94.325439453125 450.9693603515625 119.42335510253906 479.93218994140625 98.12638854980469 470.43121337890625 C 106.0882339477539 485.11883544921875 127.15410614013672 489.5404052734375 155.78802490234375 507.0770568847656" stroke-width="6.0" fill="none" stroke="rgb(0, 0, 0)" stroke-opacity="0.8246855" stroke-linecap="round" stroke-linejoin="round"/>
    <path d="M 237.8101043701172 494.0660095214844 C 260.6534729003906 523.4962158203125 263.2933044433594 524.6703491210938 267.8211669921875 509.95343017578125 C 270.84808349609375 536.4907836914062 285.2307434082031 547.5314331054688 302.49420166015625 546.8822631835938 C 292.0234375 567.0703735351562 284.4227600097656 593.2860717773438 285.8100280761719 612.44775390625 C 268.9543151855469 603.5157470703125 263.4342346191406 618.6097412109375 239.81982421875 627.0379028320312" stroke-width="6.0" fill="none" stroke="rgb(0, 0, 0)" stroke-opacity="0.45365408" stroke-linecap="round" stroke-linejoin="round"/>
    <path d="M 500.60955810546875 537.140625 C 481.909423828125 507.1763610839844 499.5250549316406 507.4470520019531 475.9931335449219 486.1083679199219 C 450.32550048828125 513.1150512695312 434.8355407714844 507.4822082519531 454.34942626953125 510.000244140625 C 430.1446838378906 528.869873046875 401.5550231933594 500.7357482910156 378.8195495605469 481.8785400390625 C 395.38360595703125 456.15875244140625 380.58966064453125 483.2195129394531 375.9046936035156 474.67034912109375" stroke-width="6.0" fill="none" stroke="rgb(0, 0, 0)" stroke-opacity="0.4030008" stroke-linecap="round" stroke-linejoin="round"/>
    <path d="M 418.69110107421875 180.12928771972656 C 411.9559326171875 162.6361846923828 407.6673889160156 168.01763916015625 406.3737487792969 174.9058380126953 C 378.88623046875 174.38583374023438 350.7773132324219 163.56375122070312 322.6397399902344 175.6016387939453 C 344.31024169921875 168.626953125 346.6512756347656 144.5073699951172 357.9667663574219 151.7212677001953 C 349.030029296875 180.0030059814453 348.44854736328125 151.64268493652344 320.76885986328125 150.8896026611328" stroke-width="6.0" fill="none" stroke="rgb(0, 0, 0)" stroke-opacity="0.90587544" stroke-linecap="round" stroke-linejoin="round"/>
    <path d="M 284.9230651855469 326.240966796875 C 259.9009704589844 339.69769287109375 272.83746337890625 365.0363464355469 270.1186218261719 379.9794616699219 C 254.6013641357422 409.0195007324219 226.66188049316406 397.6083068847656 243.2917022705078 418.8868408203125 C 226.2850341796875 413.5232849121094 196.9026641845703 391.226318359375 218.66566467285156 408.0763854980469 C 244.79795837402344 404.7421875 244.9223175048828 402.53302001953125 256.75018310546875 395.8236999511719" stroke-width="6.0" fill="none" stroke="rgb(0, 0, 0)" stroke-opacity="0.92498046" stroke-linecap="round" stroke-linejoin="round"/>
    <path d="M 392.2214050292969 29.228927612304688 C 397.3610534667969 41.12192153930664 396.8269958496094 65.25762939453125 384.43035888671875 45.02239990234375 C 371.8475341796875 34.90733337402344 348.42803955078125 14.195103645324707 368.6705017089844 -3.857511281967163 C 367.8453369140625 -33.515960693359375 384.3897705078125 -15.10780143737793 408.71435546875 1.2399582862854004 C 381.3468322753906 -17.799373626708984 371.7510681152344 -6.817385673522949 392.4833679199219 -23.093435287475586" stroke-width="6.0" fill="none" stroke="rgb(0, 0, 0)" stroke-opacity="0.44466642" stroke-linecap="round" stroke-linejoin="round"/>
    <path d="M 420.468017578125 546.9931030273438 C 396.5602722167969 525.345458984375 410.9816589355469 552.145751953125 414.7478942871094 548.431640625 C 406.7484436035156 560.3668823242188 377.9806823730469 561.8773803710938 389.6094055175781 569.9673461914062 C 365.9891052246094 568.3867797851562 352.7232666015625 571.82373046875 348.0585632324219 545.7342529296875 C 333.8250732421875 572.6539306640625 325.2836608886719 566.7335815429688 350.44012451171875 591.1305541992188" stroke-width="6.0" fill="none" stroke="rgb(0, 0, 0)" stroke-opacity="0.875533" stroke-linecap="round" stroke-linejoin="round"/>
    <path d="M 72.60652923583984 97.19718933105469 C 76.8317642211914 107.07565307617188 73.59789276123047 136.86688232421875 65.99690246582031 122.64727783203125 C 40.006038665771484 140.0471649169922 21.136648178100586 134.84251403808594 24.71664047241211 118.77741241455078 C 3.559875965118408 96.77030181884766 15.648310661315918 67.4419174194336 -10.752050399780273 84.7271499633789 C -33.98689651489258 94.68181610107422 -28.852523803710938 65.21326446533203 -6.029446125030518 43.43696975708008" stroke-width="6.0" fill="none" stroke="rgb(0, 0, 0)" stroke-opacity="0.92073166" stroke-linecap="round" stroke-linejoin="round"/>
    <path d="M 516.3514404296875 480.73516845703125 C 497.67144775390625 479.2207336425781 496.3955078125 455.16357421875 489.66693115234375 463.1673583984375 C 492.151123046875 481.3995361328125 470.9178771972656 459.01690673828125 471.5099182128906 480.6880187988281 C 445.589599609375 481.4910888671875 474.8312683105469 485.4605407714844 459.65533447265625 500.66534423828125 C 480.0415954589844 492.36871337890625 463.5621337890625 478.1168212890625 437.1424865722656 474.0290832519531" stroke-width="6.0" fill="none" stroke="rgb(0, 0, 0)" stroke-opacity="0.8706687" stroke-linecap="round" stroke-linejoin="round"/>
    <path d="M 468.37921142578125 16.59914207458496 C 478.6785583496094 42.44593811035156 472.1251525878906 48.832130432128906 494.1412658691406 63.74864196777344 C 471.78082275390625 70.64238739013672 489.2088928222656 93.96703338623047 497.9713439941406 109.2928466796875 C 477.408447265625 115.23158264160156 464.6661071777344 131.61752319335938 460.6305847167969 103.47237396240234 C 434.61065673828125 78.56292724609375 458.10968017578125 57.2967529296875 466.59368896484375 49.46802520751953" stroke-width="6.0" fill="none" stroke="rgb(0, 0, 0)" stroke-opacity="0.39326733" stroke-linecap="round" stroke-linejoin="round"/>
    <path d="M 278.7042541503906 484.0868225097656 C 303.7309265136719 472.296630859375 305.8483581542969 461.9219055175781 294.3368835449219 488.8316650390625 C 295.02325439453125 481.9972839355469 317.2928161621094 493.3044128417969 329.0077819824219 518.711669921875 C 335.320068359375 528.3721923828125 339.75933837890625 526.5318603515625 315.2186279296875 525.912353515625 C 305.7632141113281 526.9322509765625 313.6451721191406 512.02783203125 299.7378845214844 498.3028869628906" stroke-width="6.0" fill="none" stroke="rgb(0, 0, 0)" stroke-opacity="0.28894696" stroke-linecap="round" stroke-linejoin="round"/>
    <path d="M 308.1107482910156 187.8309783935547 C 332.4593811035156 212.2640380859375 336.4202880859375 203.17483520507812 324.8011474609375 222.7189483642578 C 325.8614807128906 217.4113006591797 311.6960754394531 212.84219360351562 321.24273681640625 228.94102478027344 C 344.67578125 207.2976837158203 360.87030029296875 194.99859619140625 372.09649658203125 186.6878204345703 C 374.6630554199219 175.9563751220703 392.5448913574219 180.86131286621094 372.9498291015625 194.33688354492188" stroke-width="6.0" fill="none" stroke="rgb(0, 0, 0)" stroke-opacity="0.87614566" stroke-linecap="round" stroke-linejoin="round"/>
    <path d="M 383.1571960449219 123.44029235839844 C 400.55389404296875 143.26365661621094 381.53857421875 152.11228942871094 381.3559265136719 136.85031127929688 C 380.4165344238281 123.0947494506836 384.5079040527344 125.33927154541016 363.2882995605469 131.6982879638672 C 348.4404296875 159.68911743164062 367.2273254394531 188.72117614746094 337.42333984375 170.05685424804688 C 363.47064208984375 195.72518920898438 360.75628662109375 225.17642211914062 365.77130126953125 211.8019256591797" stroke-width="6.0" fill="none" stroke="rgb(0, 0, 0)" stroke-opacity="0.5674536" stroke-linecap="round" stroke-linejoin="round"/>
    <path d="M 119.5140151977539 30.595823287963867 C 115.17645263671875 59.497623443603516 120.89275360107422 58.0797119140625 114.1058349609375 35.24639892578125 C 94.97212219238281 26.926494598388672 113.05010223388672 0.19662410020828247 133.88058471679688 -13.16201400756836 C 136.79002380371094 -27.057157516479492 153.822265625 -1.5122885704040527 165.0257110595703 -19.218725204467773 C 188.50440979003906 -15.22468376159668 159.0957794189453 -24.96833038330078 166.55738830566406 -38.33789825439453" stroke-width="6.0" fill="none" stroke="rgb(0, 0, 0)" stroke-opacity="0.42980266" stroke-linecap="round" stroke-linejoin="round"/>
    <path d="M 138.29299926757812 370.98712158203125 C 142.53001403808594 356.9913024902344 145.6869659423828 377.4373779296875 124.78914642333984 380.6600036621094 C 113.7922134399414 363.852294921875 132.13482666015625 383.3594665527344 114.32330322265625 390.3372497558594 C 141.59170532226562 365.8079528808594 156.01907348632812 394.5283203125 142.20281982421875 393.7037353515625 C 117.94384002685547 414.4266357421875 101.2022476196289 411.9970703125 81.14080047607422 392.4096374511719" stroke-width="6.0" fill="none" stroke="rgb(0, 0, 0)" stroke-opacity="0.22034162" stroke-linecap="round" stroke-linejoin="round"/>
    <path d="M 64.43214416503906 143.26243591308594 C 52.94179916381836 148.0406951904297 58.92477798461914 141.24290466308594 41.72804641723633 117.264892578125 C 16.647876739501953 130.01040649414062 13.199530601501465 144.36026000976562 6.268061637878418 151.263427734375 C -0.9221805334091187 153.7393035888672 -14.618782043457031 176.64768981933594 -15.127593040466309 194.02294921875 C -13.6914701461792 183.34776306152344 -13.749541282653809 190.28602600097656 6.543596267700195 196.6792755126953" stroke-width="6.0" fill="none" stroke="rgb(0, 0, 0)" stroke-opacity="0.37296104" stroke-linecap="round" stroke-linejoin="round"/>
    <path d="M 422.0738525390625 360.5721130371094 C 434.0095520019531 353.2319641113281 451.29376220703125 335.6598205566406 440.1464538574219 329.9659729003906 C 425.0724182128906 317.4067077636719 408.9261474609375 323.432861328125 407.1089172363281 294.889404296875 C 433.224853515625 279.5337829589844 445.0797119140625 276.66851806640625 463.08575439453125 270.000732421875 C 453.7967834472656 262.8589782714844 453.2542419433594 276.3096618652344 477.8055419921875 251.67733764648438" stroke-width="6.0" fill="none" stroke="rgb(0, 0, 0)" stroke-opacity="0.25492573" stroke-linecap="round" stroke-linejoin="round"/>
    <path d="M 137.1341094970703 219.9568634033203 C 166.96005249023438 218.668701171875 147.07254028320312 239.88751220703125 155.77308654785156 245.83383178710938 C 174.38162231445312 266.5879821777344 203.1313018798828 258.4622802734375 218.77391052246094 233.8606414794922 C 243.72491455078125 209.4032440185547 255.4436798095703 182.4071502685547 230.19898986816406 208.3277587890625 C 227.3850555419922 195.91693115234375 248.8950653076172 182.6277313232422 273.85284423828125 166.37306213378906" stroke-width="6.0" fill="none" stroke="rgb(0, 0, 0)" stroke-opacity="0.31159836" stroke-linecap="round" stroke-linejoin="round"/>
    <path d="M 312.3048095703125 139.08938598632812 C 287.8410339355469 112.21817016601562 297.11834716796875 129.27395629882812 324.34869384765625 155.7644805908203 C 304.90533447265625 158.6407928466797 331.4263000488281 182.3361053466797 315.60101318359375 200.79983520507812 C 297.3240966796875 213.55157470703125 271.3670349121094 189.64219665527344 290.4044189453125 170.36602783203125 C 267.8526611328125 168.11827087402344 283.5042724609375 181.51077270507812 262.6673889160156 207.4397735595703" stroke-width="6.0" fill="none" stroke="rgb(0, 0, 0)" stroke-opacity="0.24564654" stroke-linecap="round" stroke-linejoin="round"/>
    <path d="M 5.24789571762085 513.244384765625 C 21.228872299194336 514.0391235351562 -7.528049468994141 514.3097534179688 -34.11704635620117 492.40667724609375 C -61.21637725830078 471.7612609863281 -83.27891540527344 493.4625549316406 -63.22212219238281 497.8944091796875 C -76.46549987792969 482.6417236328125 -95.95679473876953 459.23431396484375 -111.06391143798828 467.6424865722656 C -95.7930908203125 441.6669006347656 -103.1475830078125 411.70135498046875 -105.501220703125 429.6316223144531" stroke-width="6.0" fill="none" stroke="rgb(0, 0, 0)" stroke-opacity="0.6775254" stroke-linecap="round" stroke-linejoin="round"/>
    <path d="M 237.01014709472656 324.8813781738281 C 231.2440643310547 326.3844299316406 258.9703674316406 352.9815368652344 250.20648193359375 359.3125915527344 C 263.3078308105469 374.2731628417969 278.40570068359375 375.681396484375 272.8664245605469 375.87054443359375 C 272.8500061035156 394.160888671875 255.2635955810547 400.14874267578125 247.3136749267578 388.0552673339844 C 253.57742309570312 382.8000793457031 246.1340789794922 375.21746826171875 235.00677490234375 357.1396484375" stroke-width="6.0" fill="none" stroke="rgb(0, 0, 0)" stroke-opacity="0.016041541" stroke-linecap="round" stroke-linejoin="round"/>
    <path d="M 261.3225402832031 383.07220458984375 C 240.15272521972656 404.9840087890625 257.5841979980469 419.93756103515625 266.5284729003906 408.0558776855469 C 251.19798278808594 379.0385437011719 234.822265625 375.380126953125 234.02880859375 373.3610534667969 C 231.9410858154297 396.3040771484375 229.7390594482422 391.2520751953125 202.81982421875 418.1156005859375 C 226.64215087890625 443.48040771484375 214.3672332763672 416.6675720214844 212.27261352539062 409.8609924316406" stroke-width="6.0" fill="none" stroke="rgb(0, 0, 0)" stroke-opacity="0.653432" stroke-linecap="round" stroke-linejoin="round"/>
    <path d="M 260.0293884277344 358.9418640136719 C 251.3158721923828 359.695556640625 249.9423370361328 385.73419189453125 272.0600891113281 384.501708984375 C 263.20904541015625 366.1104736328125 288.5281677246094 346.06719970703125 318.05413818359375 324.8235168457031 C 330.72039794921875 311.00006103515625 302.2014465332031 294.1216735839844 303.4669189453125 265.570068359375 C 297.671630859375 283.4807434082031 295.2890625 290.787109375 282.38470458984375 263.84210205078125" stroke-width="6.0" fill="none" stroke="rgb(0, 0, 0)" stroke-opacity="0.5169975" stroke-linecap="round" stroke-linejoin="round"/>
    <path d="M 73.97867584228516 263.0387268066406 C 73.22969055175781 278.8570861816406 45.399044036865234 295.61553955078125 59.1189079284668 299.5965881347656 C 33.15625762939453 327.6843566894531 59.133113861083984 320.35986328125 68.77008819580078 316.75152587890625 C 82.1227035522461 302.7779235839844 60.65537643432617 327.6775817871094 36.24674987792969 320.7109375 C 29.910717010498047 293.2244567871094 18.0853328704834 320.43804931640625 -0.24506008625030518 324.595703125" stroke-width="6.0" fill="none" stroke="rgb(0, 0, 0)" stroke-opacity="0.41758904" stroke-linecap="round" stroke-linejoin="round"/>
    <path d="M 495.55328369140625 90.98786926269531 C 498.37664794921875 76.29673767089844 523.3408813476562 46.33076095581055 497.3146057128906 67.8612060546875 C 483.24505615234375 66.82107543945312 457.2104187011719 64.91947937011719 486.0822448730469 90.40878295898438 C 485.6911926269531 65.20695495605469 483.2675476074219 89.17127227783203 490.27545166015625 117.93875885009766 C 511.3110656738281 145.27886962890625 496.79608154296875 148.79298400878906 520.1463012695312 167.6558074951172" stroke-width="6.0" fill="none" stroke="rgb(0, 0, 0)" stroke-opacity="0.33059987" stroke-linecap="round" stroke-linejoin="round"/>
    <path d="M 398.96490478515625 316.0254821777344 C 409.0299987792969 336.14703369140625 414.4167785644531 347.10308837890625 432.7881164550781 363.80084228515625 C 417.50592041015625 382.6967468261719 413.5382995605469 369.028076171875 439.9346923828125 357.06219482421875 C 468.3003845214844 386.541015625 441.3775939941406 392.0425720214844 459.4779968261719 377.5010986328125 C 478.9221496582031 380.80194091796875 499.5914306640625 363.9391174316406 526.9620361328125 361.7999572753906" stroke-width="6.0" fill="none" stroke="rgb(0, 0, 0)" stroke-opacity="0.15325825" stroke-linecap="round" stroke-linejoin="round"/>
    <path d="M 59.15834045410156 325.3255615234375 C 50.93791580200195 339.8769836425781 46.09540557861328 329.7497863769531 20.963157653808594 309.4964904785156 C 19.83357810974121 335.20111083984375 -6.187185287475586 324.0384826660156 17.171205520629883 320.1759033203125 C 36.07485580444336 299.4186706542969 34.46530532836914 271.25439453125 60.720943450927734 248.34799194335938 C 44.86188507080078 271.0943298339844 44.373531341552734 298.5907897949219 49.678924560546875 292.90985107421875" stroke-width="6.0" fill="none" stroke="rgb(0, 0, 0)" stroke-opacity="0.84945005" stroke-linecap="round" stroke-linejoin="round"/>
    <path d="M 171.88055419921875 366.3436279296875 C 151.77423095703125 345.8951721191406 141.40280151367188 338.5060119628906 116.37549591064453 313.43170166015625 C 134.14715576171875 283.94110107421875 136.5693817138672 283.5 112.10828399658203 311.70361328125 C 130.5941925048828 320.5818176269531 160.10443115234375 290.70703125 140.75881958007812 268.7160339355469 C 169.7808837890625 260.7220458984375 180.9205780029297 280.3274841308594 172.35560607910156 284.6473388671875" stroke-width="6.0" fill="none" stroke="rgb(0, 0, 0)" stroke-opacity="0.04042983" stroke-linecap="round" stroke-linejoin="round"/>
    <path d="M 535.7278442382812 198.08505249023438 C 508.0643615722656 203.05685424804688 537.3554077148438 209.9186553955078 556.6412353515625 191.4535369873047 C 536.8372802734375 184.9053955078125 566.4461669921875 161.3577117919922 572.0484008789062 168.2838134765625 C 573.6136474609375 188.1919403076172 560.6802978515625 162.08848571777344 567.0504150390625 147.6874237060547 C 575.6582641601562 159.68399047851562 551.4254150390625 166.072998046875 562.767333984375 137.99502563476562" stroke-width="6.0" fill="none" stroke="rgb(0, 0, 0)" stroke-opacity="0.85215646" stroke-linecap="round" stroke-linejoin="round"/>
    <path d="M 399.0051574707031 416.9452819824219 C 417.62139892578125 408.47039794921875 418.1539611816406 396.0895690917969 430.493408203125 390.1552429199219 C 448.9113464355469 374.2627258300781 477.9872741699219 362.822265625 467.5838623046875 347.26318359375 C 446.507080078125 326.5762939453125 421.2742919921875 331.8372802734375 398.3373718261719 308.2977600097656 C 395.2726135253906 287.25738525390625 369.6791076660156 303.4793701171875 380.9426574707031 308.235595703125" stroke-width="6.0" fill="none" stroke="rgb(0, 0, 0)" stroke-opacity="0.7186405" stroke-linecap="round" stroke-linejoin="round"/>
    <path d="M 261.2008972167969 73.57110595703125 C 269.85955810546875 100.12582397460938 272.9867858886719 105.38607788085938 299.2329406738281 87.9723892211914 C 297.62664794921875 60.0025520324707 277.0185241699219 41.49187088012695 250.98182678222656 13.374640464782715 C 272.1658630371094 -1.4944413900375366 253.359619140625 -1.6374257802963257 262.8594055175781 -7.788047790527344 C 275.40789794921875 -18.373271942138672 253.38209533691406 -28.75878143310547 281.3839111328125 -33.417877197265625" stroke-width="6.0" fill="none" stroke="rgb(0, 0, 0)" stroke-opacity="0.31478837" stroke-linecap="round" stroke-linejoin="round"/>
    <path d="M 549.2959594726562 339.9412536621094 C 561.2872314453125 310.3875427246094 578.2796630859375 337.64495849609375 573.2277221679688 336.85858154296875 C 602.5298461914062 315.7486572265625 625.5830078125 300.1500549316406 631.8182983398438 327.5738220214844 C 656.2567138671875 340.8208923339844 651.3289794921875 357.0724792480469 659.2212524414062 369.75439453125 C 677.2337646484375 362.1358337402344 647.3980102539062 361.1037292480469 666.8573608398438 361.1683349609375" stroke-width="6.0" fill="none" stroke="rgb(0, 0, 0)" stroke-opacity="0.21106176" stroke-linecap="round" stroke-linejoin="round"/>
    <path d="M 199.51075744628906 395.19940185546875 C 213.70347595214844 395.4982604980469 215.5556182861328 418.8734436035156 245.17347717285156 425.6212463378906 C 251.90695190429688 421.717529296875 278.8959655761719 439.7342834472656 276.193115234375 452.8807373046875 C 279.0205078125 455.208251953125 294.366943359375 427.8790588378906 284.3232421875 422.3192443847656 C 291.9458312988281 439.8295593261719 290.4168701171875 462.52362060546875 316.1597595214844 487.36993408203125" stroke-width="6.0" fill="none" stroke="rgb(0, 0, 0)" stroke-opacity="0.6087605" stroke-linecap="round" stroke-linejoin="round"/>
    <path d="M 138.567138671875 189.10772705078125 C 144.02076721191406 186.0640106201172 132.03770446777344 195.18728637695312 104.36034393310547 178.95565795898438 C 128.6231689453125 164.2041778564453 114.54512023925781 166.0487518310547 86.97776794433594 193.1692657470703 C 83.93276977539062 186.98806762695312 79.73341369628906 214.50631713867188 97.87688446044922 200.92440795898438 C 116.74236297607422 203.71714782714844 111.74766540527344 203.82228088378906 138.90350341796875 221.50006103515625" stroke-width="6.0" fill="none" stroke="rgb(0, 0, 0)" stroke-opacity="0.64001966" stroke-linecap="round" stroke-linejoin="round"/>
    <path d="M 183.72247314453125 360.1470031738281 C 156.79421997070312 389.4790954589844 139.59909057617188 399.1564025878906 126.8525161743164 376.10870361328125 C 110.94252014160156 405.46533203125 114.58780670166016 395.1805725097656 117.29159545898438 377.19598388671875 C 128.39663696289062 351.9765930175781 137.20721435546875 378.7713317871094 108.44867706298828 356.56396484375 C 123.41329193115234 342.0555725097656 132.8607177734375 352.3642272949219 127.79525756835938 376.7214660644531" stroke-width="6.0" fill="none" stroke="rgb(0, 0, 0)" stroke-opacity="0.20409332" stroke-linecap="round" stroke-linejoin="round"/>
    <path d="M 98.3443832397461 58.56258773803711 C 124.24887084960938 47.13212966918945 126.78804016113281 50.05297088623047 100.90342712402344 79.02178192138672 C 123.29669952392578 100.20361328125 93.49639129638672 84.57669067382812 110.21627807617188 102.2422866821289 C 136.87811279296875 130.15090942382812 113.68035888671875 127.2283935546875 90.96670532226562 143.18838500976562 C 107.73895263671875 141.10621643066406 85.06481170654297 151.18612670898438 71.7628402709961 126.18220520019531" stroke-width="6.0" fill="none" stroke="rgb(0, 0, 0)" stroke-opacity="0.78900003" stroke-linecap="round" stroke-linejoin="round"/>
    <path d="M 211.944091796875 232.72840881347656 C 193.30209350585938 259.4248352050781 206.82102966308594 284.0800476074219 214.0415496826172 312.2453918457031 C 230.03057861328125 341.77276611328125 209.7681121826172 332.298828125 211.0933074951172 343.6706237792969 C 192.74354553222656 373.137451171875 208.18238830566406 364.2203674316406 198.59324645996094 357.57708740234375 C 213.9986114501953 333.7912292480469 214.74380493164062 352.49981689453125 197.4853973388672 333.9084167480469" stroke-width="6.0" fill="none" stroke="rgb(0, 0, 0)" stroke-opacity="0.63748926" stroke-linecap="round" stroke-linejoin="round"/>
    <path d="M 464.0780334472656 448.640625 C 438.0920715332031 478.2219543457031 421.6971435546875 487.64349365234375 446.4700927734375 487.3059997558594 C 462.7204284667969 480.54254150390625 471.2720947265625 462.48931884765625 443.78997802734375 459.66387939453125 C 414.0132751464844 450.9891662597656 443.27301025390625 477.02435302734375 452.1960144042969 471.9563903808594 C 472.4471435546875 500.13140869140625 494.1675720214844 475.2449035644531 514.7489013671875 480.923828125" stroke-width="6.0" fill="none" stroke="rgb(0, 0, 0)" stroke-opacity="0.5614123" stroke-linecap="round" stroke-linejoin="round"/>
    <path d="M 69.8963394165039 81.4621810913086 C 69.55706024169922 111.2303237915039 83.11127471923828 101.67252349853516 90.60807800292969 73.62133026123047 C 110.7216796875 62.64534378051758 99.4451675415039 81.9752197265625 87.05224609375 103.49463653564453 C 60.34702682495117 91.50694274902344 88.19170379638672 69.72210693359375 73.68859100341797 62.49697494506836 C 52.87079620361328 52.89344787597656 47.592586517333984 27.357284545898438 49.4503288269043 1.8639835119247437" stroke-width="6.0" fill="none" stroke="rgb(0, 0, 0)" stroke-opacity="0.30838513" stroke-linecap="round" stroke-linejoin="round"/>
    <path d="M 179.89207458496094 13.639341354370117 C 208.76730346679688 3.304572105407715 221.47532653808594 25.474864959716797 247.35995483398438 31.649250030517578 C 268.4541320800781 23.40117835998535 244.16357421875 9.25317096710205 234.19068908691406 32.557674407958984 C 215.14784240722656 15.29630184173584 233.1701202392578 -0.8125355243682861 219.76101684570312 19.67549705505371 C 222.7735137939453 22.15387535095215 244.32867431640625 40.8484992980957 247.26486206054688 45.49021530151367" stroke-width="6.0" fill="none" stroke="rgb(0, 0, 0)" stroke-opacity="0.6904822" stroke-linecap="round" stroke-linejoin="round"/>
    <path d="M 178.32383728027344 331.4200439453125 C 166.17660522460938 355.13958740234375 181.31471252441406 327.5838317871094 206.44500732421875 322.79412841796875 C 215.9188690185547 308.93701171875 189.0420684814453 283.0618591308594 215.98110961914062 288.360107421875 C 192.3908233642578 286.9787292480469 190.54421997070312 278.64642333984375 193.06207275390625 264.50335693359375 C 198.5133056640625 268.1747741699219 216.1597442626953 243.09532165527344 196.2625274658203 252.00445556640625" stroke-width="6.0" fill="none" stroke="rgb(0, 0, 0)" stroke-opacity="0.5690152" stroke-linecap="round" stroke-linejoin="round"/>
    <path d="M 520.0153198242188 378.5033264160156 C 491.0260314941406 361.6083984375 503.5157165527344 341.77056884765625 530.9532470703125 363.6000671386719 C 531.5343017578125 392.9789123535156 501.85150146484375 394.3573913574219 488.2503356933594 412.0370788574219 C 504.82611083984375 393.2900695800781 507.6799011230469 366.8523864746094 490.3403625488281 376.8653259277344 C 471.888671875 378.5321960449219 462.5447692871094 372.80340576171875 467.990966796875 397.44818115234375" stroke-width="6.0" fill="none" stroke="rgb(0, 0, 0)" stroke-opacity="0.28766274" stroke-linecap="round" stroke-linejoin="round"/>
    <path d="M 149.4184112548828 513.6839599609375 C 126.8973388671875 508.8974609375 135.79759216308594 508.7580871582031 164.466552734375 503.0907897949219 C 145.93643188476562 488.2669372558594 123.6279067993164 469.32843017578125 132.07713317871094 446.52703857421875 C 142.33856201171875 424.47393798828125 114.75093078613281 454.3626708984375 129.44374084472656 468.23779296875 C 140.4878387451172 446.2155456542969 123.57596588134766 473.779541015625 128.0504608154297 482.8907165527344" stroke-width="6.0" fill="none" stroke="rgb(0, 0, 0)" stroke-opacity="0.7172365" stroke-linecap="round" stroke-linejoin="round"/>
    <path d="M 497.982421875 8.255952835083008 C 474.3996276855469 -9.36404037475586 453.0626525878906 4.094812393188477 470.198486328125 26.22287940979004 C 459.7052001953125 20.890491485595703 469.27642822265625 31.70936393737793 465.8811340332031 13.802298545837402 C 473.9842529296875 -3.7908127307891846 465.1748962402344 18.406251907348633 486.6617126464844 28.14446449279785 C 486.0565490722656 55.093048095703125 482.3035888671875 40.21971893310547 478.3011779785156 19.736026763916016" stroke-width="6.0" fill="none" stroke="rgb(0, 0, 0)" stroke-opacity="0.7813931" stroke-linecap="round" stroke-linejoin="round"/>
  </g>
</svg>
