<?xml version="1.0" ?>
<svg xmlns="http://www.w3.org/2000/svg" version="1.1" width="600" height="600">
  <defs/>
  <g>
    <path d="M 500.2340087890625 448.974609375 C 501.65093994140625 431.2449645996094 478.2759704589844 418.4775695800781 465.32269287109375 399.1011962890625 C 481.4659118652344 397.4952087402344 497.1839294433594 371.4129333496094 494.4896545410156 359.5646667480469 C 477.9485778808594 341.6201171875 499.739990234375 361.9881896972656 527.5899658203125 348.20654296875 C 526.4110107421875 344.4942932128906 504.420166015625 361.3547668457031 513.1334228515625 354.4296569824219" stroke-width="6.0" fill="none" stroke="rgb(0, 0, 0)" stroke-opacity="0.9864931" stroke-linecap="round" stroke-linejoin="round"/>
    <path d="M 331.0279541015625 385.153076171875 C 309.7095031738281 371.2136535644531 301.9994812011719 356.4623107910156 277.8896179199219 378.2224426269531 C 278.87841796875 366.7955322265625 273.101318359375 340.5735778808594 300.5305480957031 317.0007019042969 C 324.45709228515625 302.1666259765625 309.15472412109375 329.5873718261719 335.0370178222656 350.9783935546875 C 339.4618835449219 376.4442138671875 364.7715148925781 384.0953674316406 393.4585876464844 354.2976379394531" stroke-width="6.0" fill="none" stroke="rgb(0, 0, 0)" stroke-opacity="0.9586215" stroke-linecap="round" stroke-linejoin="round"/>
    <path d="M 196.4459991455078 413.7626647949219 C 199.63833618164062 417.8797302246094 169.76597595214844 399.4449157714844 146.27395629882812 387.8251953125 C 162.08367919921875 372.8952331542969 180.35926818847656 378.10675048828125 188.090087890625 388.2569580078125 C 215.72933959960938 392.1698913574219 207.14259338378906 384.9652099609375 214.6197509765625 408.4205627441406 C 204.1426544189453 429.88836669921875 195.5554962158203 445.4239807128906 197.50465393066406 445.0129699707031" stroke-width="6.0" fill="none" stroke="rgb(0, 0, 0)" stroke-opacity="0.43082318" stroke-linecap="round" stroke-linejoin="round"/>
    <path d="M 337.48114013671875 413.81756591796875 C 313.67266845703125 437.61309814453125 297.55096435546875 459.6061706542969 279.80853271484375 454.30780029296875 C 309.56591796875 428.6640319824219 320.4635314941406 457.21966552734375 316.9004211425781 435.3629455566406 C 331.181884765625 418.4711608886719 306.9932861328125 403.85858154296875 332.0854797363281 398.44683837890625 C 361.5644226074219 407.0279846191406 384.9525146484375 430.6141357421875 360.5614929199219 455.9881896972656" stroke-width="6.0" fill="none" stroke="rgb(0, 0, 0)" stroke-opacity="0.611774" stroke-linecap="round" stroke-linejoin="round"/>
    <path d="M 56.126094818115234 150.2100067138672 C 61.985504150390625 164.99508666992188 88.28181457519531 149.42767333984375 86.8825454711914 136.09255981445312 C 66.90481567382812 151.5321502685547 80.62468719482422 177.06585693359375 79.9576644897461 206.6012420654297 C 97.70099639892578 229.84934997558594 73.70661163330078 230.07138061523438 57.46636199951172 234.6118621826172 C 27.51193618774414 246.3946075439453 53.591224670410156 261.5942687988281 56.96843719482422 241.451904296875" stroke-width="6.0" fill="none" stroke="rgb(0, 0, 0)" stroke-opacity="0.7389007" stroke-linecap="round" stroke-linejoin="round"/>
    <path d="M 588.4429321289062 343.0425109863281 C 598.4407958984375 324.59521484375 617.7796630859375 308.6083984375 590.491943359375 289.37188720703125 C 610.1286010742188 271.2305603027344 597.8285522460938 244.9470672607422 594.7965698242188 252.0258331298828 C 566.7260131835938 265.6104736328125 580.1297607421875 257.6090087890625 595.525146484375 273.2745666503906 C 615.6099243164062 269.1439514160156 626.88623046875 289.1612854003906 606.4454956054688 281.8529357910156" stroke-width="6.0" fill="none" stroke="rgb(0, 0, 0)" stroke-opacity="0.17137516" stroke-linecap="round" stroke-linejoin="round"/>
    <path d="M 21.097702026367188 105.07743835449219 C 41.67216873168945 100.25885009765625 16.761804580688477 79.71090698242188 -8.845417976379395 74.61408996582031 C -12.788305282592773 86.61532592773438 -32.81695556640625 99.43714904785156 -19.99361801147461 122.46686553955078 C -18.14166831970215 146.52169799804688 -12.640693664550781 174.23516845703125 -7.503465175628662 164.0381317138672 C -10.32015609741211 183.7646484375 -4.663980007171631 193.39566040039062 -21.72872543334961 190.33917236328125" stroke-width="6.0" fill="none" stroke="rgb(0, 0, 0)" stroke-opacity="0.17213501" stroke-linecap="round" stroke-linejoin="round"/>
    <path d="M 502.03399658203125 267.0254821777344 C 490.9778137207031 273.4023742675781 516.5506591796875 291.30047607421875 536.6880493164062 273.07666015625 C 524.380126953125 289.4301452636719 522.272216796875 264.8916320800781 527.1563110351562 282.72772216796875 C 504.7630920410156 255.95526123046875 518.9832763671875 257.9278564453125 540.413818359375 261.53173828125 C 534.0902709960938 270.5110778808594 546.8372192382812 289.5133056640625 520.007080078125 270.3408508300781" stroke-width="6.0" fill="none" stroke="rgb(0, 0, 0)" stroke-opacity="0.87579906" stroke-linecap="round" stroke-linejoin="round"/>
    <path d="M 479.34576416015625 144.30975341796875 C 452.3912353515625 165.8079376220703 455.05145263671875 140.25831604003906 457.3916320800781 115.27238464355469 C 458.856201171875 90.88457489013672 444.5246276855469 93.81901550292969 464.2112121582031 66.4201431274414 C 463.6417236328125 86.69422912597656 442.064453125 104.13590240478516 453.990966796875 79.49889373779297 C 432.8203125 75.99976348876953 428.14764404296875 84.0310287475586 402.9970703125 99.639404296875" stroke-width="6.0" fill="none" stroke="rgb(0, 0, 0)" stroke-opacity="0.4608992" stroke-linecap="round" stroke-linejoin="round"/>
    <path d="M 408.8233642578125 595.631103515625 C 399.084228515625 567.6174926757812 369.7360534667969 539.2568359375 379.62896728515625 510.7092590332031 C 398.204833984375 482.53009033203125 387.5545959472656 497.9836120605469 406.032958984375 503.17401123046875 C 380.99090576171875 484.5993347167969 408.17620849609375 460.45501708984375 425.1951904296875 462.7969055175781 C 417.487548828125 480.0848083496094 432.3958740234375 486.3370666503906 445.5893859863281 515.6412353515625" stroke-width="6.0" fill="none" stroke="rgb(0, 0, 0)" stroke-opacity="0.31284404" stroke-linecap="round" stroke-linejoin="round"/>
    <path d="M 403.2871398925781 476.7937316894531 C 403.5283203125 464.2254333496094 391.056640625 443.7818908691406 393.8031311035156 422.6585388183594 C 403.8917541503906 425.01934814453125 391.122802734375 426.3926696777344 407.2419738769531 405.42730712890625 C 426.6634216308594 392.7259216308594 434.002685546875 365.2735290527344 426.7694091796875 337.73651123046875 C 422.850830078125 309.2716064453125 428.8034973144531 279.4393310546875 414.48065185546875 264.2160949707031" stroke-width="6.0" fill="none" stroke="rgb(0, 0, 0)" stroke-opacity="0.34535217" stroke-linecap="round" stroke-linejoin="round"/>
    <path d="M 204.91343688964844 216.8600311279297 C 205.866943359375 218.6621551513672 200.1779327392578 222.44224548339844 184.28604125976562 201.39862060546875 C 170.49057006835938 185.06932067871094 159.7490234375 194.74874877929688 151.72166442871094 214.04342651367188 C 168.83004760742188 206.6029510498047 141.34243774414062 219.46026611328125 148.8434600830078 192.64247131347656 C 131.35842895507812 187.2534637451172 152.71998596191406 190.70921325683594 159.80545043945312 207.9405975341797" stroke-width="6.0" fill="none" stroke="rgb(0, 0, 0)" stroke-opacity="0.016994363" stroke-linecap="round" stroke-linejoin="round"/>
    <path d="M 374.6588439941406 381.7669677734375 C 400.9747009277344 407.2055358886719 382.0606689453125 381.076416015625 368.12933349609375 353.8955993652344 C 345.4339904785156 347.3962097167969 365.5278625488281 324.89202880859375 368.87548828125 326.60943603515625 C 339.17376708984375 334.1441650390625 324.7334289550781 355.6008605957031 305.3801574707031 382.46759033203125 C 305.2869873046875 408.32159423828125 306.226806640625 401.0068664550781 322.0579528808594 402.7461242675781" stroke-width="6.0" fill="none" stroke="rgb(0, 0, 0)" stroke-opacity="0.06416592" stroke-linecap="round" stroke-linejoin="round"/>
    <path d="M 160.6996612548828 92.89656066894531 C 134.59149169921875 104.73523712158203 141.73597717285156 92.44429779052734 122.02823638916016 96.72952270507812 C 132.1979522705078 110.52263641357422 126.65642547607422 90.0382080078125 111.21940612792969 85.2261962890625 C 124.19886779785156 77.32157897949219 137.71258544921875 79.02084350585938 120.54505157470703 67.595947265625 C 137.28274536132812 42.526039123535156 159.64938354492188 61.84825134277344 147.1468963623047 90.78076171875" stroke-width="6.0" fill="none" stroke="rgb(0, 0, 0)" stroke-opacity="0.38988087" stroke-linecap="round" stroke-linejoin="round"/>
    <path d="M 212.8256378173828 450.1557922363281 C 228.28512573242188 472.1322021484375 200.78427124023438 466.32891845703125 184.52902221679688 476.8740234375 C 174.96487426757812 487.864990234375 162.59486389160156 515.4581298828125 187.24082946777344 486.85394287109375 C 162.31724548339844 479.4902038574219 156.98873901367188 466.2774658203125 144.42478942871094 470.82000732421875 C 163.30809020996094 471.1330261230469 188.43118286132812 487.4552307128906 202.2779998779297 479.55755615234375" stroke-width="6.0" fill="none" stroke="rgb(0, 0, 0)" stroke-opacity="0.5560903" stroke-linecap="round" stroke-linejoin="round"/>
    <path d="M 300.6018981933594 107.0927734375 C 329.5398864746094 96.98584747314453 357.888427734375 94.92680358886719 377.79364013671875 68.61861419677734 C 389.089111328125 40.87107467651367 400.2987365722656 14.322482109069824 421.4766845703125 -1.348494529724121 C 446.4657897949219 -18.812288284301758 462.3664245605469 -27.510011672973633 482.06103515625 -42.064170837402344 C 470.9645690917969 -29.532743453979492 464.6477966308594 -46.22001266479492 443.13275146484375 -70.0894775390625" stroke-width="6.0" fill="none" stroke="rgb(0, 0, 0)" stroke-opacity="0.09457489" stroke-linecap="round" stroke-linejoin="round"/>
    <path d="M 359.89312744140625 315.7068786621094 C 373.1682434082031 332.9892272949219 375.8708801269531 339.3766174316406 357.78802490234375 344.9756774902344 C 365.6404113769531 326.81512451171875 348.6473693847656 321.1147766113281 338.028564453125 304.6578063964844 C 360.9715576171875 325.9466552734375 374.3731689453125 353.31927490234375 399.4210510253906 360.0317687988281 C 399.7142333984375 375.53570556640625 389.3606872558594 368.8961181640625 387.0634765625 368.9371337890625" stroke-width="6.0" fill="none" stroke="rgb(0, 0, 0)" stroke-opacity="0.4071975" stroke-linecap="round" stroke-linejoin="round"/>
    <path d="M 331.5498962402344 518.4295654296875 C 355.059326171875 489.0698547363281 336.1490478515625 508.290771484375 365.9448547363281 480.01483154296875 C 342.349609375 496.77264404296875 319.1104431152344 474.4470520019531 324.9422607421875 499.8666687011719 C 309.60540771484375 492.504150390625 307.9418029785156 504.6744384765625 293.7350769042969 491.6933898925781 C 322.5151062011719 468.9154357910156 336.0018005371094 463.8061218261719 306.146240234375 471.0696105957031" stroke-width="6.0" fill="none" stroke="rgb(0, 0, 0)" stroke-opacity="0.21370177" stroke-linecap="round" stroke-linejoin="round"/>
    <path d="M 220.722900390625 475.26953125 C 198.75848388671875 448.7462158203125 187.47215270996094 423.0009765625 164.82257080078125 424.5586853027344 C 181.1746368408203 411.7288513183594 183.52838134765625 395.2795104980469 177.3485107421875 393.9203186035156 C 197.63241577148438 399.1537170410156 213.02369689941406 393.5904541015625 193.25973510742188 406.96771240234375 C 219.7557373046875 413.32183837890625 220.1068878173828 387.7319030761719 217.1444091796875 377.88336181640625" stroke-width="6.0" fill="none" stroke="rgb(0, 0, 0)" stroke-opacity="0.41826898" stroke-linecap="round" stroke-linejoin="round"/>
    <path d="M 55.35483932495117 560.2467041015625 C 67.03987121582031 581.683349609375 54.67677307128906 582.8641357421875 49.11165237426758 597.69287109375 C 68.9266128540039 605.5216064453125 85.5677490234375 595.81103515625 85.11027526855469 589.5009155273438 C 81.27253723144531 606.9848022460938 54.05404281616211 618.5660400390625 31.004812240600586 596.2931518554688 C 47.863216400146484 567.3712768554688 20.392715454101562 548.9475708007812 49.80821990966797 550.1629638671875" stroke-width="6.0" fill="none" stroke="rgb(0, 0, 0)" stroke-opacity="0.2031822" stroke-linecap="round" stroke-linejoin="round"/>
    <path d="M 234.3738555908203 530.7037353515625 C 209.63662719726562 553.0178833007812 181.31280517578125 532.2173461914062 178.65052795410156 521.4400634765625 C 193.32020568847656 497.43682861328125 173.85069274902344 480.5530700683594 197.70030212402344 471.90081787109375 C 216.74417114257812 472.4453430175781 197.7884063720703 476.8078308105469 196.9115753173828 497.6137390136719 C 192.37998962402344 501.2959899902344 216.52505493164062 508.56671142578125 245.5602569580078 528.490234375" stroke-width="6.0" fill="none" stroke="rgb(0, 0, 0)" stroke-opacity="0.29040083" stroke-linecap="round" stroke-linejoin="round"/>
    <path d="M 577.8974609375 69.47714233398438 C 566.1378173828125 72.74898529052734 583.7665405273438 101.85780334472656 600.5410766601562 92.41436004638672 C 584.7865600585938 114.18441009521484 609.550048828125 128.42373657226562 611.2666015625 122.87128448486328 C 593.9841918945312 131.5794219970703 600.8546752929688 109.02764892578125 577.003173828125 101.22142791748047 C 588.4697875976562 72.30467987060547 607.80517578125 72.74864959716797 637.3965454101562 77.59928131103516" stroke-width="6.0" fill="none" stroke="rgb(0, 0, 0)" stroke-opacity="0.06483993" stroke-linecap="round" stroke-linejoin="round"/>
    <path d="M 173.62977600097656 344.47247314453125 C 199.68743896484375 357.35162353515625 196.87393188476562 342.6263122558594 215.31341552734375 336.83758544921875 C 221.1844482421875 341.204833984375 247.7799072265625 336.40911865234375 255.2489471435547 354.8933410644531 C 277.38372802734375 364.3395690917969 297.20068359375 372.84454345703125 312.7703552246094 387.605712890625 C 323.32489013671875 403.270751953125 344.5769958496094 378.6500244140625 345.9497375488281 357.3209228515625" stroke-width="6.0" fill="none" stroke="rgb(0, 0, 0)" stroke-opacity="0.7835308" stroke-linecap="round" stroke-linejoin="round"/>
    <path d="M 347.5877380371094 382.086181640625 C 351.7134094238281 360.902099609375 355.5938415527344 348.5665283203125 371.9317932128906 371.8068542480469 C 376.1006774902344 389.34478759765625 397.5107727050781 416.5420837402344 420.9431457519531 393.0433654785156 C 441.2943420410156 411.468017578125 424.676025390625 428.2997131347656 441.25213623046875 424.0921936035156 C 445.1270446777344 451.7298889160156 418.4133605957031 459.02294921875 389.791015625 462.53741455078125" stroke-width="6.0" fill="none" stroke="rgb(0, 0, 0)" stroke-opacity="0.15500082" stroke-linecap="round" stroke-linejoin="round"/>
    <path d="M 384.1236877441406 274.2889099121094 C 379.1859436035156 297.7853698730469 387.70208740234375 278.2602233886719 370.6964416503906 281.9598083496094 C 400.3380126953125 265.6463928222656 406.74188232421875 255.193115234375 416.49444580078125 279.6647033691406 C 425.5458068847656 303.5760192871094 426.7583312988281 313.0115661621094 430.4275207519531 284.0615234375 C 449.55389404296875 271.14361572265625 419.7382507324219 261.78460693359375 414.18658447265625 271.6395568847656" stroke-width="6.0" fill="none" stroke="rgb(0, 0, 0)" stroke-opacity="0.9815981" stroke-linecap="round" stroke-linejoin="round"/>
    <path d="M 541.369140625 339.78070068359375 C 537.4180297851562 311.537109375 555.693115234375 328.5816650390625 550.0670166015625 344.36798095703125 C 552.6969604492188 323.16473388671875 562.3521118164062 298.7745666503906 565.428955078125 303.1893310546875 C 556.1119995117188 311.010498046875 581.5197143554688 294.0084533691406 585.2273559570312 312.532958984375 C 561.0824584960938 332.36981201171875 584.0197143554688 348.3592529296875 602.45361328125 337.18096923828125" stroke-width="6.0" fill="none" stroke="rgb(0, 0, 0)" stroke-opacity="0.3368525" stroke-linecap="round" stroke-linejoin="round"/>
    <path d="M 554.3156127929688 72.13154602050781 C 574.8740844726562 88.7646713256836 568.7942504882812 67.70179748535156 574.0909423828125 84.05049133300781 C 595.0765380859375 70.40457916259766 619.0159301757812 91.68278503417969 638.9300537109375 71.53744506835938 C 654.0881958007812 41.576210021972656 664.151123046875 42.41012954711914 670.1747436523438 66.85047149658203 C 663.5318603515625 96.757080078125 640.5388793945312 125.53611755371094 633.7701416015625 107.65962982177734" stroke-width="6.0" fill="none" stroke="rgb(0, 0, 0)" stroke-opacity="0.08121411" stroke-linecap="round" stroke-linejoin="round"/>
    <path d="M 116.01973724365234 367.1539001464844 C 135.43338012695312 386.5133972167969 106.96248626708984 413.2340393066406 99.4339828491211 386.59320068359375 C 108.33109283447266 361.39947509765625 116.16280364990234 335.8292236328125 130.4266357421875 309.088623046875 C 124.89405059814453 289.67999267578125 132.62631225585938 271.4339904785156 137.57406616210938 268.0727844238281 C 132.24215698242188 246.6516571044922 146.04075622558594 229.88230895996094 132.8687744140625 200.931396484375" stroke-width="6.0" fill="none" stroke="rgb(0, 0, 0)" stroke-opacity="0.4952688" stroke-linecap="round" stroke-linejoin="round"/>
    <path d="M 265.59698486328125 168.8805694580078 C 245.335693359375 181.739501953125 242.3172149658203 160.163330078125 236.5103759765625 181.904296875 C 246.79397583007812 187.68301391601562 237.427001953125 191.01089477539062 212.951171875 213.3577880859375 C 226.49046325683594 232.91815185546875 251.8601837158203 258.3035583496094 280.77911376953125 262.2288513183594 C 306.7282409667969 236.2764892578125 323.3926086425781 207.64059448242188 349.547119140625 218.07852172851562" stroke-width="6.0" fill="none" stroke="rgb(0, 0, 0)" stroke-opacity="0.26279908" stroke-linecap="round" stroke-linejoin="round"/>
    <path d="M 582.1581420898438 119.08354949951172 C 579.43017578125 94.43475341796875 557.39013671875 120.31795501708984 548.8228149414062 146.1146240234375 C 530.9799194335938 171.06378173828125 525.0587158203125 169.09536743164062 550.688720703125 166.95065307617188 C 533.0237426757812 196.71731567382812 557.4819946289062 207.39926147460938 532.1576538085938 187.2422332763672 C 524.947509765625 170.33450317382812 520.3014526367188 189.84454345703125 549.0340576171875 178.90989685058594" stroke-width="6.0" fill="none" stroke="rgb(0, 0, 0)" stroke-opacity="0.46772772" stroke-linecap="round" stroke-linejoin="round"/>
    <path d="M 327.6476745605469 585.83984375 C 320.24652099609375 567.3031005859375 317.09588623046875 590.7871704101562 319.76727294921875 579.2130737304688 C 325.36053466796875 592.772216796875 305.4821472167969 597.5006103515625 278.3092956542969 619.3480224609375 C 265.9502868652344 591.8880615234375 284.9979553222656 587.7576293945312 272.0836181640625 560.931640625 C 269.2278747558594 571.8545532226562 289.1479187011719 565.7561645507812 291.1988220214844 591.4171752929688" stroke-width="6.0" fill="none" stroke="rgb(0, 0, 0)" stroke-opacity="0.90504277" stroke-linecap="round" stroke-linejoin="round"/>
    <path d="M 444.5698547363281 299.7749938964844 C 445.373291015625 324.7252197265625 419.8840026855469 344.7626647949219 428.1877746582031 367.45355224609375 C 451.84375 372.753173828125 471.4831237792969 348.9334411621094 453.0862731933594 350.0989074707031 C 481.5069580078125 330.3960876464844 484.27447509765625 344.4689636230469 483.7528076171875 358.30267333984375 C 490.1424865722656 342.3745422363281 485.7436828613281 361.9145812988281 508.2276916503906 364.27618408203125" stroke-width="6.0" fill="none" stroke="rgb(0, 0, 0)" stroke-opacity="0.87664306" stroke-linecap="round" stroke-linejoin="round"/>
    <path d="M 508.8256530761719 106.34996032714844 C 519.717529296875 95.45645904541016 491.46697998046875 79.19095611572266 506.4832458496094 106.73700714111328 C 477.8983459472656 123.87346649169922 483.2150573730469 137.06443786621094 478.9363708496094 147.90916442871094 C 508.60443115234375 145.1235809326172 520.6112060546875 139.28314208984375 546.86279296875 123.44013977050781 C 541.1679077148438 140.1932830810547 519.9605102539062 157.73753356933594 511.9057312011719 127.91261291503906" stroke-width="6.0" fill="none" stroke="rgb(0, 0, 0)" stroke-opacity="0.5406206" stroke-linecap="round" stroke-linejoin="round"/>
    <path d="M 50.59150314331055 504.4283752441406 C 31.41844367980957 512.178955078125 21.091880798339844 491.6919250488281 50.62092208862305 502.4167785644531 C 60.23422622680664 473.3066711425781 50.33729553222656 502.63909912109375 76.56082153320312 513.8839111328125 C 70.81690979003906 492.90435791015625 45.228633880615234 501.9824523925781 71.4526596069336 476.34765625 C 75.6497573852539 465.9512023925781 69.5655746459961 463.3947448730469 75.17585754394531 435.7608337402344" stroke-width="6.0" fill="none" stroke="rgb(0, 0, 0)" stroke-opacity="0.59063274" stroke-linecap="round" stroke-linejoin="round"/>
    <path d="M 463.5225524902344 161.0904998779297 C 459.3202209472656 167.62815856933594 446.6884460449219 170.43173217773438 417.6584167480469 149.97195434570312 C 441.18902587890625 122.2392349243164 431.0419006347656 94.27389526367188 437.35186767578125 108.05210876464844 C 447.05072021484375 110.58903503417969 475.5513000488281 116.48241424560547 487.07568359375 116.88410186767578 C 474.58770751953125 94.72338104248047 497.53717041015625 84.98664093017578 511.66265869140625 85.71897888183594" stroke-width="6.0" fill="none" stroke="rgb(0, 0, 0)" stroke-opacity="0.629516" stroke-linecap="round" stroke-linejoin="round"/>
    <path d="M 388.3824462890625 170.1595458984375 C 385.4942626953125 172.90110778808594 382.92742919921875 191.5166778564453 407.7425231933594 203.1934814453125 C 404.1868591308594 194.60975646972656 384.92938232421875 218.32151794433594 379.0285949707031 211.75128173828125 C 360.8279113769531 227.89773559570312 370.23150634765625 199.5108184814453 377.1664733886719 185.9647979736328 C 393.9813537597656 213.8162384033203 367.750244140625 221.48536682128906 396.1916809082031 221.13925170898438" stroke-width="6.0" fill="none" stroke="rgb(0, 0, 0)" stroke-opacity="0.5321973" stroke-linecap="round" stroke-linejoin="round"/>
    <path d="M 230.7046356201172 89.97024536132812 C 238.12310791015625 114.84934997558594 238.47145080566406 127.96173095703125 217.7063751220703 148.04701232910156 C 206.91334533691406 152.6552734375 206.5077667236328 167.6411590576172 223.93943786621094 169.56959533691406 C 234.87322998046875 139.60885620117188 243.48619079589844 150.50917053222656 260.9905090332031 142.63002014160156 C 272.7206115722656 165.65127563476562 282.5348205566406 187.718505859375 297.9088134765625 181.0877685546875" stroke-width="6.0" fill="none" stroke="rgb(0, 0, 0)" stroke-opacity="0.7276886" stroke-linecap="round" stroke-linejoin="round"/>
    <path d="M 199.1061553955078 273.9612731933594 C 171.4051055908203 284.3419494628906 151.48028564453125 308.3279724121094 132.0347137451172 323.1163024902344 C 153.22361755371094 309.2156677246094 134.17698669433594 310.6307678222656 131.81813049316406 304.2748107910156 C 110.23936462402344 323.90289306640625 116.92262268066406 305.044189453125 101.72010803222656 332.142578125 C 112.691650390625 346.50421142578125 133.53623962402344 363.8763427734375 153.31472778320312 347.2081604003906" stroke-width="6.0" fill="none" stroke="rgb(0, 0, 0)" stroke-opacity="0.9406052" stroke-linecap="round" stroke-linejoin="round"/>
    <path d="M 327.729248046875 540.9307250976562 C 332.044921875 517.1168212890625 326.3390197753906 502.7605895996094 337.4471435546875 527.680419921875 C 318.603271484375 543.370361328125 331.9485168457031 569.3400268554688 312.6623840332031 596.04150390625 C 306.0069274902344 624.1588134765625 286.3157958984375 650.9154663085938 269.5982666015625 662.5790405273438 C 260.19708251953125 669.05517578125 271.38330078125 645.1883544921875 293.01031494140625 671.5631103515625" stroke-width="6.0" fill="none" stroke="rgb(0, 0, 0)" stroke-opacity="0.10621063" stroke-linecap="round" stroke-linejoin="round"/>
    <path d="M 426.34918212890625 221.55886840820312 C 397.88873291015625 230.2681121826172 399.02484130859375 257.6436462402344 425.99945068359375 261.2047119140625 C 396.9374084472656 250.4312286376953 396.2035217285156 261.2373962402344 415.6952209472656 244.64981079101562 C 397.3847961425781 252.3774871826172 374.58343505859375 262.903076171875 375.32208251953125 267.52093505859375 C 400.9011535644531 244.31277465820312 399.7742004394531 243.32769775390625 372.5476379394531 244.62025451660156" stroke-width="6.0" fill="none" stroke="rgb(0, 0, 0)" stroke-opacity="0.7046861" stroke-linecap="round" stroke-linejoin="round"/>
    <path d="M 349.1661682128906 161.46026611328125 C 321.4276428222656 181.7740478515625 304.03875732421875 170.22886657714844 293.55352783203125 167.48948669433594 C 283.15960693359375 157.11544799804688 259.5929260253906 170.8513946533203 251.5595245361328 194.01731872558594 C 270.61187744140625 192.5686492919922 291.3644104003906 194.04014587402344 275.6533203125 189.61514282226562 C 296.74688720703125 162.36268615722656 324.33489990234375 148.3479461669922 345.1711730957031 160.17550659179688" stroke-width="6.0" fill="none" stroke="rgb(0, 0, 0)" stroke-opacity="0.64331204" stroke-linecap="round" stroke-linejoin="round"/>
    <path d="M 65.4828109741211 570.2120361328125 C 83.03006744384766 542.32373046875 74.26162719726562 539.7615356445312 81.20476531982422 566.64013671875 C 58.485591888427734 572.1442260742188 56.85885238647461 545.7127075195312 70.8089599609375 523.6107788085938 C 69.52978515625 509.9117126464844 47.31634521484375 530.6338500976562 48.883399963378906 552.0210571289062 C 39.822303771972656 531.7484130859375 18.03327751159668 521.6019897460938 36.53916549682617 540.20556640625" stroke-width="6.0" fill="none" stroke="rgb(0, 0, 0)" stroke-opacity="0.42815176" stroke-linecap="round" stroke-linejoin="round"/>
    <path d="M 35.04149627685547 194.65309143066406 C 51.37702941894531 195.03945922851562 68.9147720336914 192.0262451171875 65.44685363769531 179.9852752685547 C 45.50224685668945 179.5479736328125 35.77567672729492 169.78509521484375 50.26378631591797 179.9039764404297 C 52.70475769042969 170.316162109375 58.004032135009766 198.18826293945312 75.84017181396484 187.2279052734375 C 88.60074615478516 194.04678344726562 69.26725006103516 171.74058532714844 96.70755767822266 196.36978149414062" stroke-width="6.0" fill="none" stroke="rgb(0, 0, 0)" stroke-opacity="0.9676344" stroke-linecap="round" stroke-linejoin="round"/>
    <path d="M 487.43072509765625 256.88433837890625 C 477.4084167480469 235.0118865966797 498.4292297363281 257.9613037109375 471.001708984375 276.05859375 C 463.3519287109375 259.8329772949219 472.1923522949219 243.75833129882812 499.70001220703125 221.6260223388672 C 522.38232421875 244.61106872558594 542.0068969726562 262.60980224609375 564.0759887695312 236.76434326171875 C 534.41015625 227.16014099121094 506.4375305175781 209.40560913085938 514.4177856445312 212.73838806152344" stroke-width="6.0" fill="none" stroke="rgb(0, 0, 0)" stroke-opacity="0.18214904" stroke-linecap="round" stroke-linejoin="round"/>
    <path d="M 60.20162582397461 181.9774627685547 C 81.26895904541016 183.4649658203125 74.25301361083984 188.65098571777344 103.95903778076172 188.08876037597656 C 103.93411254882812 209.10926818847656 133.40188598632812 192.4344024658203 130.34214782714844 200.67372131347656 C 126.80596923828125 227.6411590576172 135.35470581054688 206.62344360351562 105.73663330078125 198.60108947753906 C 106.69547271728516 212.92599487304688 86.75801086425781 205.05606079101562 69.30706024169922 232.5775604248047" stroke-width="6.0" fill="none" stroke="rgb(0, 0, 0)" stroke-opacity="0.52582765" stroke-linecap="round" stroke-linejoin="round"/>
    <path d="M 483.2508544921875 103.74434661865234 C 485.85272216796875 122.72570037841797 500.0355529785156 104.15113067626953 473.81048583984375 86.16199493408203 C 452.4032287597656 106.59202575683594 422.8282470703125 94.88419342041016 398.4244689941406 87.5135726928711 C 368.87139892578125 62.94462966918945 353.5563049316406 48.68804931640625 333.2053527832031 61.74072265625 C 330.9565124511719 33.19424819946289 310.8600769042969 31.49388885498047 312.02093505859375 6.679405212402344" stroke-width="6.0" fill="none" stroke="rgb(0, 0, 0)" stroke-opacity="0.45602748" stroke-linecap="round" stroke-linejoin="round"/>
    <path d="M 472.1737365722656 539.930908203125 C 470.978515625 529.1419067382812 485.7481689453125 520.93310546875 493.4122314453125 519.963134765625 C 486.1468200683594 541.7274169921875 512.675048828125 531.2534790039062 519.831787109375 531.9091796875 C 536.3228149414062 542.1361694335938 533.5371704101562 566.115234375 536.8052368164062 579.8887329101562 C 530.3549194335938 582.8110961914062 511.2141418457031 579.2233276367188 488.5098571777344 577.3497314453125" stroke-width="6.0" fill="none" stroke="rgb(0, 0, 0)" stroke-opacity="0.06332193" stroke-linecap="round" stroke-linejoin="round"/>
    <path d="M 412.5096740722656 119.01271057128906 C 429.702392578125 132.71092224121094 455.2501220703125 142.03469848632812 483.2473449707031 169.4361572265625 C 508.81256103515625 158.94549560546875 489.1651916503906 163.5443878173828 493.17767333984375 170.4729461669922 C 507.6373596191406 193.36647033691406 534.9578247070312 207.3347625732422 552.9219970703125 216.7296142578125 C 558.0325927734375 225.1510467529297 542.2089233398438 228.2305908203125 526.436279296875 208.22442626953125" stroke-width="6.0" fill="none" stroke="rgb(0, 0, 0)" stroke-opacity="0.65331966" stroke-linecap="round" stroke-linejoin="round"/>
    <path d="M 421.50213623046875 146.7327117919922 C 426.11846923828125 170.36399841308594 408.3096618652344 173.7206573486328 396.7933349609375 168.8331756591797 C 396.1395263671875 177.5095672607422 410.3664245605469 200.41993713378906 393.4984130859375 218.91444396972656 C 380.9289245605469 245.42835998535156 385.1515808105469 231.0906219482422 370.4253234863281 249.77645874023438 C 386.92120361328125 256.4491882324219 400.38299560546875 237.27684020996094 397.1925964355469 256.76898193359375" stroke-width="6.0" fill="none" stroke="rgb(0, 0, 0)" stroke-opacity="0.86061424" stroke-linecap="round" stroke-linejoin="round"/>
    <path d="M 263.297607421875 112.09683227539062 C 243.71742248535156 86.28977966308594 217.04368591308594 71.03914642333984 241.1080322265625 69.14981079101562 C 242.72804260253906 69.0518569946289 219.47882080078125 68.4315185546875 243.20179748535156 58.04411697387695 C 248.01651000976562 61.58285140991211 272.91534423828125 46.16448211669922 251.86973571777344 64.90372467041016 C 267.0346374511719 40.817115783691406 284.628662109375 34.645015716552734 302.0638427734375 56.4237060546875" stroke-width="6.0" fill="none" stroke="rgb(0, 0, 0)" stroke-opacity="0.5479795" stroke-linecap="round" stroke-linejoin="round"/>
    <path d="M 103.97979736328125 530.0429077148438 C 89.89849090576172 533.2954711914062 96.29327392578125 559.6390991210938 119.38280487060547 560.7566528320312 C 119.7376937866211 564.8917846679688 110.6565170288086 547.5269775390625 125.05538940429688 559.82421875 C 117.42695617675781 560.6842041015625 98.5063247680664 568.9298095703125 92.12708282470703 542.6227416992188 C 112.3983383178711 557.6591186523438 142.25108337402344 573.7732543945312 124.37079620361328 560.4610595703125" stroke-width="6.0" fill="none" stroke="rgb(0, 0, 0)" stroke-opacity="0.30210352" stroke-linecap="round" stroke-linejoin="round"/>
    <path d="M 553.5468139648438 387.26409912109375 C 572.4271850585938 408.5352783203125 576.8583374023438 385.1440734863281 550.8428344726562 405.21514892578125 C 530.6231079101562 387.85821533203125 544.260498046875 411.77056884765625 566.3161010742188 383.10107421875 C 545.3090209960938 387.7323913574219 562.0623168945312 401.51837158203125 567.2349853515625 392.4532165527344 C 538.7168579101562 380.5806884765625 537.3949584960938 389.8059387207031 551.4902954101562 371.4169921875" stroke-width="6.0" fill="none" stroke="rgb(0, 0, 0)" stroke-opacity="0.61208016" stroke-linecap="round" stroke-linejoin="round"/>
    <path d="M 117.77957153320312 2.9274864196777344 C 112.71464538574219 1.1332837343215942 95.33966827392578 6.7423810958862305 70.91542053222656 34.787254333496094 C 49.66645812988281 7.692245960235596 28.72235870361328 -13.200507164001465 11.157081604003906 -36.11574172973633 C 22.344255447387695 -24.071638107299805 19.964941024780273 -26.07847023010254 29.575910568237305 -52.868263244628906 C 35.9261474609375 -38.106998443603516 11.280344009399414 -61.34442138671875 5.4421210289001465 -83.57427215576172" stroke-width="6.0" fill="none" stroke="rgb(0, 0, 0)" stroke-opacity="0.18070698" stroke-linecap="round" stroke-linejoin="round"/>
    <path d="M 72.59407043457031 433.02239990234375 C 69.38352966308594 446.3623962402344 79.08659362792969 471.89422607421875 94.68370819091797 497.87835693359375 C 76.560791015625 505.2168273925781 90.3416519165039 477.43817138671875 94.61468505859375 473.3251037597656 C 84.85347747802734 475.53399658203125 94.51370239257812 472.81463623046875 117.12605285644531 491.5301513671875 C 133.72499084472656 467.7479248046875 149.5465850830078 454.6706237792969 125.57411193847656 441.6976623535156" stroke-width="6.0" fill="none" stroke="rgb(0, 0, 0)" stroke-opacity="0.789837" stroke-linecap="round" stroke-linejoin="round"/>
    <path d="M 409.8450012207031 375.1890563964844 C 388.28167724609375 365.41839599609375 358.7662353515625 375.31378173828125 387.6852722167969 354.3614807128906 C 374.92803955078125 332.08990478515625 395.3275451660156 337.5740051269531 407.3650817871094 329.5776062011719 C 435.4256286621094 342.8720703125 455.7644348144531 316.8330993652344 470.33111572265625 326.1424865722656 C 488.65283203125 309.0188903808594 498.6698913574219 314.75177001953125 476.362060546875 326.46539306640625" stroke-width="6.0" fill="none" stroke="rgb(0, 0, 0)" stroke-opacity="0.49655807" stroke-linecap="round" stroke-linejoin="round"/>
    <path d="M 10.273122787475586 58.32083511352539 C 38.40625762939453 35.439857482910156 24.93396759033203 30.87158203125 16.47493553161621 20.46991539001465 C 8.476369857788086 8.846631050109863 33.87757110595703 -8.43261432647705 5.500102519989014 18.05814552307129 C 28.786239624023438 34.80940628051758 0.32497432827949524 64.1754150390625 26.176074981689453 59.562992095947266 C 17.845443725585938 39.28022766113281 1.6938505172729492 38.97165298461914 -24.687606811523438 44.9156608581543" stroke-width="6.0" fill="none" stroke="rgb(0, 0, 0)" stroke-opacity="0.06151856" stroke-linecap="round" stroke-linejoin="round"/>
    <path d="M 431.3245544433594 578.4164428710938 C 427.1579284667969 600.0942993164062 398.500732421875 583.7863159179688 376.1296691894531 570.6702880859375 C 385.0953674316406 594.7774658203125 375.6387939453125 580.4412231445312 397.4820861816406 600.1072998046875 C 408.5889892578125 608.5897216796875 391.8990173339844 621.2097778320312 379.01959228515625 606.1989135742188 C 356.4882507324219 613.1796875 380.96710205078125 607.5121459960938 380.75030517578125 632.3644409179688" stroke-width="6.0" fill="none" stroke="rgb(0, 0, 0)" stroke-opacity="0.6398387" stroke-linecap="round" stroke-linejoin="round"/>
    <path d="M 221.11965942382812 535.8455200195312 C 209.61521911621094 509.7384338378906 206.1840057373047 520.3626098632812 236.10629272460938 512.6807861328125 C 231.57655334472656 493.02972412109375 216.3824005126953 491.8039855957031 192.76788330078125 512.0101928710938 C 177.83383178710938 508.061279296875 154.427490234375 511.3577880859375 170.57687377929688 529.1533203125 C 171.42788696289062 501.4771728515625 143.0666046142578 526.1652221679688 160.57838439941406 529.4358520507812" stroke-width="6.0" fill="none" stroke="rgb(0, 0, 0)" stroke-opacity="0.10037719" stroke-linecap="round" stroke-linejoin="round"/>
    <path d="M 239.16299438476562 458.0865478515625 C 214.5618438720703 437.7989807128906 215.57864379882812 440.4613342285156 216.5897674560547 459.1615295410156 C 226.80133056640625 456.0670166015625 205.68934631347656 427.85614013671875 218.8769073486328 456.3481750488281 C 231.09512329101562 454.155517578125 212.82427978515625 426.7025451660156 210.00205993652344 411.49273681640625 C 207.71884155273438 395.2440490722656 182.5012969970703 368.1119689941406 204.75503540039062 359.7392578125" stroke-width="6.0" fill="none" stroke="rgb(0, 0, 0)" stroke-opacity="0.5306941" stroke-linecap="round" stroke-linejoin="round"/>
    <path d="M 165.3086700439453 180.1219482421875 C 183.37025451660156 160.62078857421875 195.65415954589844 132.148193359375 199.56202697753906 113.0517349243164 C 201.4235382080078 114.73907470703125 192.74354553222656 110.2935791015625 188.51263427734375 95.51921844482422 C 160.29368591308594 72.7490005493164 130.62167358398438 54.686893463134766 140.8847198486328 77.01697540283203 C 122.90666961669922 71.17176055908203 142.26177978515625 96.33914184570312 138.63035583496094 81.5924072265625" stroke-width="6.0" fill="none" stroke="rgb(0, 0, 0)" stroke-opacity="0.43747488" stroke-linecap="round" stroke-linejoin="round"/>
    <path d="M 236.15443420410156 493.9358215332031 C 210.89044189453125 499.0046691894531 212.3673858642578 518.8462524414062 224.33602905273438 517.346435546875 C 196.30113220214844 546.1758422851562 190.48016357421875 541.7096557617188 179.11624145507812 531.489501953125 C 184.4351043701172 546.7952880859375 202.1813201904297 519.8299560546875 207.4521484375 529.8621826171875 C 184.91156005859375 515.0011596679688 156.0904541015625 524.307373046875 161.2243194580078 526.9000244140625" stroke-width="6.0" fill="none" stroke="rgb(0, 0, 0)" stroke-opacity="0.9414766" stroke-linecap="round" stroke-linejoin="round"/>
    <path d="M 40.746822357177734 428.9616394042969 C 56.22406005859375 450.39691162109375 64.04853820800781 436.57025146484375 34.270145416259766 421.56768798828125 C 64.1192398071289 395.514404296875 81.18669891357422 368.0522155761719 87.78021240234375 368.12237548828125 C 106.25012969970703 356.0201110839844 126.05799102783203 375.32281494140625 151.8136444091797 369.0228271484375 C 158.18019104003906 398.4046936035156 166.51307678222656 407.246337890625 148.47291564941406 412.6653747558594" stroke-width="6.0" fill="none" stroke="rgb(0, 0, 0)" stroke-opacity="0.6851557" stroke-linecap="round" stroke-linejoin="round"/>
    <path d="M 488.21917724609375 229.312744140625 C 491.57171630859375 216.8697052001953 486.2649230957031 209.78994750976562 462.1995544433594 192.80697631835938 C 449.39886474609375 165.7532196044922 448.1923828125 151.7236785888672 432.1903076171875 132.17539978027344 C 421.5294494628906 113.15630340576172 435.74755859375 141.1787567138672 445.93145751953125 146.88604736328125 C 450.90325927734375 171.60421752929688 480.6435241699219 168.36830139160156 451.52313232421875 181.01751708984375" stroke-width="6.0" fill="none" stroke="rgb(0, 0, 0)" stroke-opacity="0.9110708" stroke-linecap="round" stroke-linejoin="round"/>
    <path d="M 99.06564331054688 258.4921875 C 128.3883514404297 268.1115417480469 99.96675872802734 266.14764404296875 100.90103149414062 285.3364562988281 C 103.29405975341797 265.6281433105469 78.63543701171875 238.92352294921875 58.136932373046875 248.84500122070312 C 29.82269859313965 266.9999694824219 37.4889030456543 242.7046356201172 63.34223556518555 268.8954162597656 C 89.92510223388672 286.8865661621094 74.03772735595703 297.94732666015625 89.09326934814453 302.2410583496094" stroke-width="6.0" fill="none" stroke="rgb(0, 0, 0)" stroke-opacity="0.59547395" stroke-linecap="round" stroke-linejoin="round"/>
  </g>
</svg>
