<?xml version="1.0" ?>
<svg xmlns="http://www.w3.org/2000/svg" version="1.1" width="600" height="600">
  <defs/>
  <g>
    <path d="M 209.9562225341797 390.06646728515625 C 226.83018493652344 399.21173095703125 242.08416748046875 426.18841552734375 224.0458221435547 397.4112243652344 C 203.1887664794922 374.9844665527344 213.39630126953125 378.8226318359375 196.4741668701172 390.7905578613281 C 212.44805908203125 370.81793212890625 218.92291259765625 385.73345947265625 195.7948760986328 404.89154052734375 C 223.67813110351562 381.37744140625 195.1788330078125 370.0948791503906 205.8196563720703 397.5452575683594" stroke-width="6.0" fill="none" stroke="rgb(0, 0, 0)" stroke-opacity="0.39665443" stroke-linecap="round" stroke-linejoin="round"/>
    <path d="M 428.98883056640625 45.617889404296875 C 440.4656677246094 53.25242614746094 416.5797424316406 69.60128021240234 437.557373046875 75.6259765625 C 414.8206787109375 104.61664581298828 431.8187561035156 95.44888305664062 427.4814758300781 87.72311401367188 C 427.8391418457031 78.19698333740234 448.8136901855469 97.49685668945312 425.14599609375 125.14410400390625 C 433.32110595703125 144.86654663085938 445.7196350097656 141.03570556640625 459.747314453125 168.9241943359375" stroke-width="6.0" fill="none" stroke="rgb(0, 0, 0)" stroke-opacity="0.27008238" stroke-linecap="round" stroke-linejoin="round"/>
    <path d="M 484.93951416015625 322.8837585449219 C 483.9493713378906 319.0182189941406 497.8109436035156 305.1219482421875 518.8737182617188 325.00579833984375 C 494.1134948730469 347.86370849609375 478.705322265625 345.7461853027344 485.3652038574219 338.5255432128906 C 457.08721923828125 359.58270263671875 437.99761962890625 342.30987548828125 455.8675537109375 332.6902160644531 C 478.686767578125 344.80126953125 465.26287841796875 315.41033935546875 492.10662841796875 290.5470886230469" stroke-width="6.0" fill="none" stroke="rgb(0, 0, 0)" stroke-opacity="0.72007465" stroke-linecap="round" stroke-linejoin="round"/>
    <path d="M 293.126708984375 454.91876220703125 C 304.5632629394531 463.63299560546875 304.0125427246094 481.20892333984375 279.59576416015625 464.5447082519531 C 291.1029968261719 452.8770751953125 295.9963073730469 451.2727355957031 297.8516540527344 446.8029479980469 C 312.6077880859375 436.6504211425781 324.7790832519531 422.9053955078125 309.90325927734375 400.144775390625 C 291.45831298828125 377.3180236816406 293.5701599121094 393.08941650390625 274.6791687011719 376.0724792480469" stroke-width="6.0" fill="none" stroke="rgb(0, 0, 0)" stroke-opacity="0.4841986" stroke-linecap="round" stroke-linejoin="round"/>
    <path d="M 434.77099609375 585.9442138671875 C 436.24920654296875 572.9241333007812 412.28076171875 554.5711669921875 395.8898010253906 535.377685546875 C 366.7786560058594 537.42578125 353.2373352050781 565.8834838867188 356.4388732910156 577.728515625 C 334.0156555175781 599.8362426757812 333.4683532714844 622.1994018554688 337.9122314453125 620.3632202148438 C 334.32037353515625 601.405029296875 307.4029541015625 627.868896484375 306.0667419433594 647.19580078125" stroke-width="6.0" fill="none" stroke="rgb(0, 0, 0)" stroke-opacity="0.40070745" stroke-linecap="round" stroke-linejoin="round"/>
    <path d="M 44.467445373535156 377.6474609375 C 17.68584442138672 356.6392822265625 21.45622444152832 344.869384765625 51.091312408447266 321.9764709472656 C 66.91793060302734 328.3555603027344 84.36237335205078 311.8568115234375 85.71672821044922 308.9276428222656 C 82.27998352050781 330.53765869140625 111.6818618774414 318.82049560546875 118.9435043334961 325.3983459472656 C 133.34886169433594 352.2937316894531 115.85611724853516 334.9552307128906 125.48180389404297 314.33868408203125" stroke-width="6.0" fill="none" stroke="rgb(0, 0, 0)" stroke-opacity="0.17381355" stroke-linecap="round" stroke-linejoin="round"/>
    <path d="M 45.05878829956055 1.6254318952560425 C 42.049232482910156 7.254091262817383 29.524744033813477 -8.857348442077637 41.982051849365234 3.2819344997406006 C 39.22393035888672 14.525031089782715 64.61859130859375 31.834707260131836 72.12207794189453 41.50569152832031 C 98.14218139648438 37.01403045654297 100.81592559814453 45.87211227416992 125.32061767578125 65.46997833251953 C 99.64519500732422 45.38534927368164 88.1019058227539 60.32281494140625 92.25432586669922 47.63944625854492" stroke-width="6.0" fill="none" stroke="rgb(0, 0, 0)" stroke-opacity="0.124353655" stroke-linecap="round" stroke-linejoin="round"/>
    <path d="M 413.1867980957031 419.8202209472656 C 439.74737548828125 419.8485412597656 439.3750915527344 394.7150573730469 411.7667541503906 390.63677978515625 C 401.1060485839844 375.61883544921875 376.5856628417969 403.3735046386719 396.78314208984375 407.8454895019531 C 423.79034423828125 437.8597717285156 434.1672058105469 424.03045654296875 406.58111572265625 439.4065856933594 C 404.7712097167969 448.4571533203125 429.7755126953125 429.3465270996094 434.8952941894531 437.43359375" stroke-width="6.0" fill="none" stroke="rgb(0, 0, 0)" stroke-opacity="0.4917258" stroke-linecap="round" stroke-linejoin="round"/>
    <path d="M 54.72553634643555 208.75665283203125 C 44.763946533203125 219.00465393066406 66.2279281616211 208.79287719726562 77.84835052490234 196.0859375 C 104.51996612548828 214.89990234375 107.52576446533203 212.18946838378906 96.39679718017578 201.58587646484375 C 124.64787292480469 195.83639526367188 125.52365112304688 225.08352661132812 134.94326782226562 227.67913818359375 C 129.77813720703125 208.93408203125 121.4848861694336 224.28070068359375 129.00941467285156 239.88011169433594" stroke-width="6.0" fill="none" stroke="rgb(0, 0, 0)" stroke-opacity="0.20355824" stroke-linecap="round" stroke-linejoin="round"/>
    <path d="M 329.5517883300781 556.6236572265625 C 325.8387451171875 568.5186767578125 303.1242980957031 596.867431640625 309.6565856933594 581.2252807617188 C 289.1593017578125 584.275634765625 292.25439453125 559.908203125 321.7898254394531 584.6439819335938 C 319.4767150878906 561.6919555664062 339.4053039550781 561.594482421875 352.4014892578125 562.1267700195312 C 338.8469543457031 582.2503051757812 367.6616516113281 566.8741455078125 370.69757080078125 559.8892822265625" stroke-width="6.0" fill="none" stroke="rgb(0, 0, 0)" stroke-opacity="0.92186815" stroke-linecap="round" stroke-linejoin="round"/>
    <path d="M 304.9645080566406 527.5757446289062 C 326.76617431640625 514.1505737304688 344.1665344238281 509.0471496582031 370.221435546875 509.5513916015625 C 389.4943542480469 496.521728515625 377.40771484375 501.73797607421875 407.3018798828125 501.0764465332031 C 386.2575988769531 503.4312438964844 376.96502685546875 506.5462951660156 379.5708312988281 503.8269958496094 C 368.8374938964844 485.18609619140625 380.68743896484375 489.4939270019531 364.7011413574219 505.9866943359375" stroke-width="6.0" fill="none" stroke="rgb(0, 0, 0)" stroke-opacity="0.0436473" stroke-linecap="round" stroke-linejoin="round"/>
    <path d="M 446.8031005859375 423.1167297363281 C 465.5276184082031 416.2814636230469 475.3089599609375 435.52630615234375 504.1980285644531 435.2860107421875 C 476.4192199707031 435.4234619140625 481.83001708984375 457.5655212402344 504.2814636230469 453.9839172363281 C 505.8385009765625 451.4395446777344 519.1451416015625 445.998291015625 528.4320068359375 425.2599792480469 C 526.6414794921875 453.4521789550781 516.9552001953125 465.0144348144531 525.9453735351562 486.1203918457031" stroke-width="6.0" fill="none" stroke="rgb(0, 0, 0)" stroke-opacity="0.85234135" stroke-linecap="round" stroke-linejoin="round"/>
    <path d="M 515.5852661132812 227.98562622070312 C 504.5849914550781 241.10867309570312 520.1490478515625 263.45166015625 492.343017578125 237.55691528320312 C 500.1726989746094 262.8526306152344 530.0182495117188 277.65863037109375 526.0565185546875 253.56520080566406 C 534.0814208984375 275.9199523925781 530.7021484375 287.5600280761719 554.9075317382812 260.31951904296875 C 572.6761474609375 247.88157653808594 565.1666259765625 226.6157684326172 567.0365600585938 230.57144165039062" stroke-width="6.0" fill="none" stroke="rgb(0, 0, 0)" stroke-opacity="0.79251945" stroke-linecap="round" stroke-linejoin="round"/>
    <path d="M 101.97019958496094 47.4010124206543 C 124.22056579589844 54.5836296081543 108.67035675048828 79.3133773803711 87.2574234008789 77.0223617553711 C 72.53604888916016 62.34196853637695 43.099876403808594 80.61994934082031 67.1324691772461 91.27660369873047 C 46.650997161865234 87.74040985107422 37.38493728637695 93.03469848632812 45.6812629699707 88.45323944091797 C 30.727157592773438 109.17147064208984 12.680177688598633 102.2530746459961 11.672660827636719 86.48541259765625" stroke-width="6.0" fill="none" stroke="rgb(0, 0, 0)" stroke-opacity="0.5719227" stroke-linecap="round" stroke-linejoin="round"/>
    <path d="M 344.8671569824219 595.63525390625 C 332.5810546875 624.27197265625 342.076904296875 610.7449951171875 346.0705261230469 621.9287109375 C 360.7506408691406 594.871337890625 367.1350402832031 594.6349487304688 391.3443908691406 581.8466796875 C 409.2760009765625 588.2705688476562 400.4552307128906 596.4676513671875 407.70867919921875 607.093505859375 C 420.9444274902344 616.6643676757812 441.24462890625 624.3592529296875 465.4488525390625 633.1396484375" stroke-width="6.0" fill="none" stroke="rgb(0, 0, 0)" stroke-opacity="0.30893287" stroke-linecap="round" stroke-linejoin="round"/>
    <path d="M 264.47393798828125 347.7642822265625 C 278.45550537109375 323.1722717285156 266.1221618652344 338.0211181640625 246.6605224609375 315.9507141113281 C 249.02499389648438 344.2401123046875 250.87612915039062 369.04931640625 270.7044982910156 354.4674987792969 C 290.1858825683594 353.3783874511719 308.61517333984375 368.1719665527344 298.9380798339844 345.0821228027344 C 326.6717224121094 323.5275573730469 354.6617431640625 345.135986328125 368.15472412109375 373.8925476074219" stroke-width="6.0" fill="none" stroke="rgb(0, 0, 0)" stroke-opacity="0.9672697" stroke-linecap="round" stroke-linejoin="round"/>
    <path d="M 482.73260498046875 219.4450225830078 C 500.2135009765625 190.32015991210938 502.4078369140625 187.60731506347656 512.777587890625 197.9077606201172 C 517.8511352539062 217.25277709960938 544.2286376953125 193.79356384277344 528.2579345703125 165.2950439453125 C 551.3120727539062 168.9394989013672 576.2274169921875 152.2215118408203 550.0604858398438 171.69284057617188 C 574.6237182617188 159.82424926757812 569.0814208984375 138.17086791992188 595.8571166992188 126.43274688720703" stroke-width="6.0" fill="none" stroke="rgb(0, 0, 0)" stroke-opacity="0.4926246" stroke-linecap="round" stroke-linejoin="round"/>
    <path d="M 58.295196533203125 532.3355712890625 C 36.43505096435547 529.59423828125 46.66421890258789 544.1826782226562 73.46265411376953 539.3302612304688 C 87.99879455566406 518.6016235351562 82.8918685913086 494.5428771972656 82.21269989013672 488.9898376464844 C 109.34398651123047 460.9927978515625 101.5357894897461 457.5957946777344 128.60910034179688 478.92279052734375 C 104.57036590576172 490.0636291503906 107.23831939697266 518.7341918945312 98.71875762939453 512.6226196289062" stroke-width="6.0" fill="none" stroke="rgb(0, 0, 0)" stroke-opacity="0.18980856" stroke-linecap="round" stroke-linejoin="round"/>
    <path d="M 73.31582641601562 508.7999267578125 C 70.5988540649414 518.5661010742188 79.06114196777344 524.394775390625 50.38258361816406 541.6024780273438 C 34.99672317504883 519.1978759765625 38.87139892578125 493.3144836425781 54.78084182739258 475.74395751953125 C 37.737918853759766 497.9256591796875 27.411518096923828 476.73895263671875 51.443359375 446.9090576171875 C 72.9477310180664 425.5903625488281 50.74726867675781 410.6296081542969 31.25707244873047 420.2930603027344" stroke-width="6.0" fill="none" stroke="rgb(0, 0, 0)" stroke-opacity="0.02578015" stroke-linecap="round" stroke-linejoin="round"/>
    <path d="M 8.896198272705078 473.9707946777344 C -6.827906608581543 463.43707275390625 -26.373126983642578 436.5810241699219 -11.869979858398438 438.1461486816406 C 2.869900941848755 436.7209167480469 19.550899505615234 437.4751892089844 -3.905872106552124 437.7055358886719 C 22.81906509399414 410.30743408203125 39.81269454956055 432.36627197265625 41.09975814819336 429.808837890625 C 68.9813232421875 403.4983215332031 67.7202377319336 397.5953674316406 78.8860855102539 397.0115051269531" stroke-width="6.0" fill="none" stroke="rgb(0, 0, 0)" stroke-opacity="0.9097008" stroke-linecap="round" stroke-linejoin="round"/>
    <path d="M 44.11442947387695 48.45428466796875 C 50.5722770690918 22.395221710205078 37.11323547363281 30.379825592041016 40.01462173461914 19.89095115661621 C 69.65229034423828 21.764360427856445 66.91520690917969 28.089967727661133 42.82592010498047 40.19673156738281 C 63.99348068237305 49.251731872558594 80.1312484741211 62.50212478637695 63.0726318359375 59.555423736572266 C 46.74224853515625 49.93132019042969 43.952178955078125 44.89070129394531 19.657329559326172 40.49653244018555" stroke-width="6.0" fill="none" stroke="rgb(0, 0, 0)" stroke-opacity="0.66510785" stroke-linecap="round" stroke-linejoin="round"/>
    <path d="M 224.56060791015625 91.56336212158203 C 249.93972778320312 65.59135437011719 269.8460388183594 41.225154876708984 245.67990112304688 55.552921295166016 C 264.38604736328125 58.93516159057617 269.5739440917969 62.590354919433594 259.35272216796875 39.92422866821289 C 250.52859497070312 49.88465881347656 265.545654296875 71.97018432617188 278.8092956542969 100.03410339355469 C 284.83392333984375 91.13287353515625 289.509033203125 73.89720153808594 298.95318603515625 57.351898193359375" stroke-width="6.0" fill="none" stroke="rgb(0, 0, 0)" stroke-opacity="0.10821838" stroke-linecap="round" stroke-linejoin="round"/>
    <path d="M 507.20404052734375 220.51661682128906 C 522.9603881835938 225.0026397705078 541.3936767578125 245.71194458007812 569.866455078125 264.8175354003906 C 576.6809692382812 273.3794860839844 548.256103515625 299.0845642089844 568.0637817382812 285.1714172363281 C 548.888671875 297.3333435058594 537.3877563476562 287.6828308105469 507.79412841796875 309.8746032714844 C 511.7333984375 303.92169189453125 490.24591064453125 311.9119873046875 462.0853271484375 326.6786804199219" stroke-width="6.0" fill="none" stroke="rgb(0, 0, 0)" stroke-opacity="0.21513288" stroke-linecap="round" stroke-linejoin="round"/>
    <path d="M 251.8795166015625 204.55755615234375 C 244.0826873779297 217.8533477783203 260.6928405761719 221.90896606445312 235.79025268554688 195.06549072265625 C 215.23484802246094 202.09579467773438 225.6729736328125 188.4219512939453 235.3892822265625 187.5616455078125 C 231.95191955566406 173.9916229248047 247.24850463867188 150.82066345214844 243.0033416748047 137.81549072265625 C 253.71250915527344 136.9734649658203 263.740478515625 109.69851684570312 257.4563293457031 115.69798278808594" stroke-width="6.0" fill="none" stroke="rgb(0, 0, 0)" stroke-opacity="0.007687086" stroke-linecap="round" stroke-linejoin="round"/>
    <path d="M 180.87161254882812 126.72039031982422 C 159.10569763183594 112.05156707763672 148.79306030273438 82.5153579711914 163.5738983154297 63.057044982910156 C 156.3863525390625 75.2773208618164 156.40208435058594 95.278564453125 174.77407836914062 69.60309600830078 C 196.47996520996094 42.14124298095703 167.64443969726562 67.41098022460938 189.33103942871094 71.99652862548828 C 193.7350311279297 84.56645965576172 188.79666137695312 61.47686767578125 160.04806518554688 50.92295837402344" stroke-width="6.0" fill="none" stroke="rgb(0, 0, 0)" stroke-opacity="0.80132216" stroke-linecap="round" stroke-linejoin="round"/>
    <path d="M 370.85516357421875 499.23553466796875 C 396.0413513183594 474.48333740234375 416.7104187011719 459.0823669433594 422.0426940917969 460.52008056640625 C 415.8287048339844 449.1365661621094 406.199462890625 439.12066650390625 386.24749755859375 439.7896423339844 C 363.1290283203125 440.3468017578125 387.4844055175781 431.309326171875 401.087158203125 450.4462585449219 C 419.9894104003906 434.62237548828125 398.8160095214844 416.45867919921875 404.91998291015625 432.111572265625" stroke-width="6.0" fill="none" stroke="rgb(0, 0, 0)" stroke-opacity="0.655509" stroke-linecap="round" stroke-linejoin="round"/>
    <path d="M 106.30767059326172 463.72882080078125 C 105.9146957397461 478.99560546875 121.50733184814453 475.8899230957031 146.99659729003906 479.7594299316406 C 155.11448669433594 487.2707214355469 176.96929931640625 494.90374755859375 156.0267333984375 468.9609680175781 C 152.55923461914062 457.1301574707031 139.03964233398438 430.5005187988281 139.4798583984375 419.16497802734375 C 136.59469604492188 392.578369140625 156.49647521972656 367.1822204589844 178.3514862060547 388.4998474121094" stroke-width="6.0" fill="none" stroke="rgb(0, 0, 0)" stroke-opacity="0.6150084" stroke-linecap="round" stroke-linejoin="round"/>
    <path d="M 304.26068115234375 277.60699462890625 C 307.5196533203125 295.1160888671875 331.27227783203125 292.10009765625 349.8612365722656 301.2103576660156 C 339.15283203125 299.7480773925781 318.2044982910156 273.50048828125 294.3746337890625 297.4480895996094 C 284.98089599609375 310.3070068359375 285.2938232421875 290.6205749511719 270.158447265625 286.8860778808594 C 266.4837646484375 288.2909240722656 246.0485076904297 280.6220703125 232.9821319580078 275.14825439453125" stroke-width="6.0" fill="none" stroke="rgb(0, 0, 0)" stroke-opacity="0.33836713" stroke-linecap="round" stroke-linejoin="round"/>
    <path d="M 358.7115173339844 473.55615234375 C 367.54986572265625 447.5108642578125 343.22021484375 458.213623046875 330.2690124511719 471.59765625 C 339.7028503417969 495.97821044921875 362.0596618652344 485.9799499511719 367.0240173339844 464.4656677246094 C 358.01324462890625 492.5674133300781 369.9220886230469 486.08489990234375 375.6245422363281 512.364990234375 C 364.23944091796875 504.9258117675781 381.69915771484375 523.7568969726562 391.9061584472656 543.4544067382812" stroke-width="6.0" fill="none" stroke="rgb(0, 0, 0)" stroke-opacity="0.73877466" stroke-linecap="round" stroke-linejoin="round"/>
    <path d="M 411.2686462402344 315.8160095214844 C 419.99017333984375 311.22039794921875 411.7398376464844 302.97625732421875 392.55560302734375 285.82781982421875 C 419.41571044921875 285.00408935546875 403.0082702636719 263.25799560546875 377.59820556640625 283.9237060546875 C 353.6666564941406 300.1761779785156 373.7738342285156 323.1971130371094 346.07867431640625 313.4029541015625 C 362.05712890625 291.3058776855469 354.6603088378906 271.000732421875 374.541015625 287.2666015625" stroke-width="6.0" fill="none" stroke="rgb(0, 0, 0)" stroke-opacity="0.8090437" stroke-linecap="round" stroke-linejoin="round"/>
    <path d="M 99.30349731445312 262.6240539550781 C 93.9950180053711 273.205810546875 78.246826171875 269.85772705078125 65.34249877929688 284.7699279785156 C 62.238182067871094 286.7705993652344 50.80625534057617 305.28802490234375 48.98719024658203 325.434814453125 C 41.01765060424805 352.26263427734375 70.08404541015625 349.96343994140625 57.03033447265625 342.87579345703125 C 58.677921295166016 370.85186767578125 77.69139099121094 388.92742919921875 55.95531463623047 373.9276123046875" stroke-width="6.0" fill="none" stroke="rgb(0, 0, 0)" stroke-opacity="0.641179" stroke-linecap="round" stroke-linejoin="round"/>
    <path d="M 524.4901733398438 332.7044677734375 C 500.6455383300781 353.49798583984375 521.675537109375 340.60174560546875 537.5025634765625 326.9692077636719 C 561.7809448242188 305.8101501464844 558.0292358398438 332.5949401855469 541.3515014648438 329.6626281738281 C 532.3666381835938 301.2628479003906 505.5620422363281 301.3832702636719 489.7087097167969 331.0547790527344 C 482.2034912109375 302.7060546875 508.05303955078125 323.056640625 517.0507202148438 340.53948974609375" stroke-width="6.0" fill="none" stroke="rgb(0, 0, 0)" stroke-opacity="0.13759959" stroke-linecap="round" stroke-linejoin="round"/>
    <path d="M 172.14764404296875 497.8369445800781 C 183.87196350097656 476.1645202636719 196.20413208007812 473.12060546875 166.5192108154297 447.8741455078125 C 151.9146270751953 467.9718933105469 154.84288024902344 481.6059875488281 156.50918579101562 458.23724365234375 C 143.79525756835938 446.3063049316406 116.66024017333984 441.53582763671875 134.294189453125 438.962646484375 C 110.9456558227539 463.2314758300781 116.75 434.257568359375 117.63255310058594 418.73388671875" stroke-width="6.0" fill="none" stroke="rgb(0, 0, 0)" stroke-opacity="0.14357685" stroke-linecap="round" stroke-linejoin="round"/>
    <path d="M 257.5633239746094 368.9057312011719 C 241.95718383789062 363.8998107910156 251.81948852539062 339.03662109375 280.3387145996094 313.05743408203125 C 281.90228271484375 313.4970703125 311.2021484375 316.7861633300781 304.5894470214844 314.9942626953125 C 312.7296447753906 343.8566589355469 297.9886779785156 314.8311767578125 315.2598876953125 305.51934814453125 C 329.2363586425781 313.2147521972656 345.5663757324219 327.3259582519531 335.51751708984375 299.9861145019531" stroke-width="6.0" fill="none" stroke="rgb(0, 0, 0)" stroke-opacity="0.5460138" stroke-linecap="round" stroke-linejoin="round"/>
    <path d="M 488.12530517578125 105.07347106933594 C 504.8338928222656 102.95085144042969 516.5571899414062 110.81500244140625 535.2470703125 84.60103607177734 C 551.8585205078125 82.06181335449219 539.465087890625 54.73017501831055 521.3932495117188 27.20454216003418 C 547.435546875 28.127559661865234 576.7828979492188 30.74939727783203 561.981689453125 45.94685363769531 C 543.4078979492188 37.36530303955078 560.2984619140625 59.313194274902344 550.1738891601562 36.741703033447266" stroke-width="6.0" fill="none" stroke="rgb(0, 0, 0)" stroke-opacity="0.36801916" stroke-linecap="round" stroke-linejoin="round"/>
    <path d="M 533.671875 446.0046081542969 C 557.3901977539062 439.2032775878906 585.8135986328125 438.93548583984375 585.6250610351562 464.3941345214844 C 586.781494140625 482.4630432128906 600.4064331054688 457.19866943359375 606.5935668945312 476.53912353515625 C 609.3220825195312 465.8517761230469 584.126220703125 475.5069580078125 572.5159912109375 481.6642150878906 C 568.0429077148438 493.0501403808594 559.1357421875 465.5914306640625 581.3779907226562 456.7449951171875" stroke-width="6.0" fill="none" stroke="rgb(0, 0, 0)" stroke-opacity="0.9981506" stroke-linecap="round" stroke-linejoin="round"/>
    <path d="M 164.7532196044922 588.036376953125 C 191.6274871826172 562.5388793945312 199.87823486328125 554.3375244140625 217.94400024414062 565.1021728515625 C 245.11135864257812 543.6689453125 251.52574157714844 560.547607421875 223.65367126464844 534.5816650390625 C 240.36459350585938 526.5613403320312 233.29586791992188 530.5960693359375 239.60154724121094 541.2997436523438 C 266.5709533691406 533.6605834960938 282.35601806640625 538.0958862304688 284.0836181640625 531.9779052734375" stroke-width="6.0" fill="none" stroke="rgb(0, 0, 0)" stroke-opacity="0.64956075" stroke-linecap="round" stroke-linejoin="round"/>
    <path d="M 149.7869873046875 68.0491714477539 C 163.8874969482422 68.03179168701172 157.10671997070312 71.73216247558594 142.85330200195312 57.349552154541016 C 139.58970642089844 87.09146118164062 126.72432708740234 112.0802001953125 126.236328125 89.47843170166016 C 147.4059295654297 86.60099792480469 171.2866668701172 83.30767059326172 146.55409240722656 94.18343353271484 C 167.32537841796875 83.39868927001953 158.17088317871094 57.29503631591797 160.6611785888672 80.7749252319336" stroke-width="6.0" fill="none" stroke="rgb(0, 0, 0)" stroke-opacity="0.85136205" stroke-linecap="round" stroke-linejoin="round"/>
    <path d="M 427.1054382324219 556.4147338867188 C 435.367431640625 573.9977416992188 435.8927917480469 551.2781982421875 417.91162109375 529.6107788085938 C 435.33404541015625 501.1878662109375 438.5752868652344 493.3225402832031 456.8349914550781 496.4613342285156 C 463.5519104003906 471.63427734375 452.10931396484375 501.5699768066406 465.24151611328125 503.1517028808594 C 481.3913879394531 522.5521240234375 455.8164367675781 550.8948974609375 464.3167724609375 547.8933715820312" stroke-width="6.0" fill="none" stroke="rgb(0, 0, 0)" stroke-opacity="0.68010896" stroke-linecap="round" stroke-linejoin="round"/>
    <path d="M 206.7288818359375 526.7960815429688 C 223.54464721679688 535.1837158203125 204.46243286132812 563.1596069335938 200.37953186035156 587.8023681640625 C 173.7042999267578 565.2520141601562 152.92523193359375 545.0913696289062 142.28488159179688 557.6513061523438 C 133.0462646484375 584.1456298828125 156.70181274414062 604.901611328125 141.73812866210938 613.0050659179688 C 144.78863525390625 590.4752197265625 132.9980926513672 592.4839477539062 133.11248779296875 572.6021118164062" stroke-width="6.0" fill="none" stroke="rgb(0, 0, 0)" stroke-opacity="0.941607" stroke-linecap="round" stroke-linejoin="round"/>
    <path d="M 92.53655242919922 395.2197570800781 C 105.77452087402344 401.528076171875 126.28632354736328 405.34515380859375 145.8004913330078 377.0475769042969 C 118.52821350097656 385.5347900390625 123.13449096679688 394.60260009765625 139.1520233154297 389.5978088378906 C 147.53147888183594 389.5200500488281 155.1613311767578 376.9003601074219 182.5203399658203 375.8770446777344 C 200.84164428710938 386.9365234375 188.68768310546875 361.3149108886719 162.24244689941406 357.6911926269531" stroke-width="6.0" fill="none" stroke="rgb(0, 0, 0)" stroke-opacity="0.48425114" stroke-linecap="round" stroke-linejoin="round"/>
    <path d="M 122.43380737304688 364.0161437988281 C 111.14877319335938 377.117919921875 125.24073028564453 398.7645568847656 153.76318359375 376.61053466796875 C 145.99560546875 380.3096008300781 135.14256286621094 378.25799560546875 121.19085693359375 363.173095703125 C 96.95956420898438 350.5858154296875 90.008544921875 357.468505859375 74.94476318359375 379.38690185546875 C 54.52674102783203 369.0330810546875 59.14796829223633 357.7959899902344 74.93524932861328 357.6919250488281" stroke-width="6.0" fill="none" stroke="rgb(0, 0, 0)" stroke-opacity="0.51472485" stroke-linecap="round" stroke-linejoin="round"/>
    <path d="M 299.27581787109375 185.14430236816406 C 270.6663818359375 211.85826110839844 270.9930419921875 239.8594512939453 253.90174865722656 231.0331573486328 C 226.9341583251953 230.72682189941406 249.87452697753906 239.94241333007812 248.10972595214844 242.14385986328125 C 268.900146484375 237.99952697753906 291.8474426269531 251.65000915527344 307.6788330078125 243.60623168945312 C 301.7137451171875 247.82315063476562 283.39306640625 251.0165252685547 257.8049621582031 251.31185913085938" stroke-width="6.0" fill="none" stroke="rgb(0, 0, 0)" stroke-opacity="0.7644041" stroke-linecap="round" stroke-linejoin="round"/>
    <path d="M 167.85240173339844 593.4744262695312 C 178.6763153076172 570.5630493164062 207.1412811279297 564.197265625 224.83511352539062 554.5424194335938 C 251.1720428466797 569.88037109375 233.11550903320312 570.427734375 233.12017822265625 543.1458740234375 C 211.34237670898438 533.1283569335938 209.7670440673828 530.5476684570312 216.1826629638672 531.4779663085938 C 205.86061096191406 538.2620849609375 185.5707244873047 567.6589965820312 199.9698944091797 555.653076171875" stroke-width="6.0" fill="none" stroke="rgb(0, 0, 0)" stroke-opacity="0.33637345" stroke-linecap="round" stroke-linejoin="round"/>
    <path d="M 496.9936218261719 319.42388916015625 C 509.51800537109375 307.4113464355469 528.4629516601562 299.5127868652344 538.891357421875 328.2666931152344 C 543.9134521484375 346.0719909667969 557.3928833007812 357.3944396972656 528.99169921875 355.8699951171875 C 557.0560302734375 372.8042297363281 573.625732421875 377.4623107910156 586.8696899414062 382.4737243652344 C 567.1004028320312 390.2152404785156 574.2845458984375 410.68524169921875 553.191162109375 421.5288391113281" stroke-width="6.0" fill="none" stroke="rgb(0, 0, 0)" stroke-opacity="0.031570513" stroke-linecap="round" stroke-linejoin="round"/>
    <path d="M 568.903076171875 65.91731262207031 C 540.079345703125 54.738861083984375 519.1251831054688 66.16887664794922 513.7478637695312 82.70721435546875 C 538.9791259765625 105.03628540039062 553.1293334960938 78.77315521240234 531.454345703125 61.253658294677734 C 520.957275390625 70.98726654052734 522.4859619140625 59.81241989135742 502.8768615722656 84.53987121582031 C 493.41644287109375 75.75709533691406 509.7358703613281 89.0125732421875 518.3344116210938 100.61136627197266" stroke-width="6.0" fill="none" stroke="rgb(0, 0, 0)" stroke-opacity="0.6100766" stroke-linecap="round" stroke-linejoin="round"/>
    <path d="M 115.37850189208984 147.93148803710938 C 118.86370086669922 131.4235076904297 147.23834228515625 119.2803726196289 134.53857421875 101.717041015625 C 146.83787536621094 90.73948669433594 137.7660675048828 116.76150512695312 155.4904022216797 103.16896057128906 C 132.80284118652344 113.72630310058594 125.5844955444336 142.57594299316406 144.6871337890625 169.85247802734375 C 162.96408081054688 157.2396240234375 150.26190185546875 170.1280975341797 141.04371643066406 166.6306610107422" stroke-width="6.0" fill="none" stroke="rgb(0, 0, 0)" stroke-opacity="0.25644398" stroke-linecap="round" stroke-linejoin="round"/>
    <path d="M 287.4675598144531 121.26079559326172 C 289.7822265625 147.20225524902344 301.5524597167969 125.43862915039062 308.4931335449219 130.68844604492188 C 293.0006408691406 140.8385009765625 294.86309814453125 149.1151580810547 268.05255126953125 143.9132537841797 C 281.093505859375 119.94595336914062 297.300048828125 90.25682830810547 300.3611755371094 116.0028076171875 C 294.7756042480469 142.104736328125 317.4795837402344 140.7916259765625 299.4469299316406 168.62649536132812" stroke-width="6.0" fill="none" stroke="rgb(0, 0, 0)" stroke-opacity="0.3211677" stroke-linecap="round" stroke-linejoin="round"/>
    <path d="M 387.5187683105469 544.7421264648438 C 362.9263610839844 549.190185546875 365.0355224609375 562.5772094726562 391.2356872558594 587.4110107421875 C 371.73956298828125 610.3457641601562 352.2868957519531 635.5238037109375 382.1171875 629.3434448242188 C 381.82025146484375 655.52001953125 409.5481262207031 681.0823974609375 432.1527099609375 651.6383666992188 C 436.2304382324219 628.076416015625 465.2100524902344 615.1502075195312 494.5560302734375 617.7482299804688" stroke-width="6.0" fill="none" stroke="rgb(0, 0, 0)" stroke-opacity="0.49391243" stroke-linecap="round" stroke-linejoin="round"/>
    <path d="M 563.1162719726562 510.65582275390625 C 561.197509765625 492.2245178222656 537.996337890625 471.9341735839844 535.53125 457.37005615234375 C 516.6631469726562 471.60711669921875 534.1492309570312 475.6739807128906 549.546142578125 456.2037048339844 C 570.9550170898438 479.98626708984375 590.5744018554688 480.90313720703125 565.7786254882812 491.0584716796875 C 546.8655395507812 469.49517822265625 536.2816162109375 454.3780212402344 521.9287719726562 438.5093078613281" stroke-width="6.0" fill="none" stroke="rgb(0, 0, 0)" stroke-opacity="0.75375664" stroke-linecap="round" stroke-linejoin="round"/>
    <path d="M 572.44091796875 181.14749145507812 C 585.8138427734375 151.87364196777344 595.0348510742188 163.4397735595703 568.7623291015625 140.4932403564453 C 557.1306762695312 134.85826110839844 557.2819213867188 158.56536865234375 569.5353393554688 147.22402954101562 C 546.540283203125 172.15185546875 534.2825317382812 179.0293731689453 517.3901977539062 157.0435028076172 C 496.5813903808594 171.9075927734375 502.9257507324219 166.8583526611328 505.87982177734375 165.10801696777344" stroke-width="6.0" fill="none" stroke="rgb(0, 0, 0)" stroke-opacity="0.53751767" stroke-linecap="round" stroke-linejoin="round"/>
    <path d="M 398.4366760253906 131.02699279785156 C 383.28460693359375 146.3113555908203 405.6726989746094 121.22359466552734 402.517578125 133.4895477294922 C 377.16375732421875 137.29965209960938 350.8692626953125 140.1586151123047 351.19842529296875 144.56065368652344 C 330.1896057128906 134.2477569580078 331.41009521484375 111.22215270996094 313.7341613769531 116.21102905273438 C 289.19073486328125 116.83354949951172 307.7122497558594 113.99951171875 308.54705810546875 111.40741729736328" stroke-width="6.0" fill="none" stroke="rgb(0, 0, 0)" stroke-opacity="0.05773678" stroke-linecap="round" stroke-linejoin="round"/>
    <path d="M 277.44696044921875 484.169189453125 C 290.8038024902344 477.9261169433594 309.7909851074219 492.6344299316406 314.4896545410156 465.3517761230469 C 305.2013854980469 439.2173767089844 334.8487854003906 465.2923583984375 308.98992919921875 491.2789001464844 C 280.89404296875 485.8109130859375 296.9924011230469 501.8005676269531 325.6923828125 510.55340576171875 C 320.9541015625 540.0847778320312 313.9028625488281 562.2620239257812 338.2688903808594 554.8007202148438" stroke-width="6.0" fill="none" stroke="rgb(0, 0, 0)" stroke-opacity="0.6827304" stroke-linecap="round" stroke-linejoin="round"/>
    <path d="M 397.0555114746094 323.5601806640625 C 406.30755615234375 314.4663391113281 387.0159606933594 316.7018737792969 388.70654296875 330.3733215332031 C 372.0679626464844 300.5816955566406 343.43212890625 288.48345947265625 353.8421936035156 291.1102600097656 C 355.7980651855469 310.5518798828125 340.6488037109375 301.3214416503906 327.1477966308594 327.5660705566406 C 340.689208984375 304.33673095703125 359.2579040527344 299.4516296386719 375.22113037109375 322.4765930175781" stroke-width="6.0" fill="none" stroke="rgb(0, 0, 0)" stroke-opacity="0.015645796" stroke-linecap="round" stroke-linejoin="round"/>
    <path d="M 123.66897583007812 60.518028259277344 C 95.68354797363281 66.38512420654297 107.88072204589844 39.30569839477539 122.273193359375 33.44166946411133 C 106.33354949951172 16.47777557373047 128.1573486328125 -10.135581970214844 128.39111328125 -22.779767990112305 C 147.35829162597656 -8.868727684020996 136.4925079345703 -2.993666887283325 146.84442138671875 -13.753759384155273 C 134.95028686523438 -35.15813446044922 144.5630340576172 -51.89556884765625 132.5930938720703 -78.23811340332031" stroke-width="6.0" fill="none" stroke="rgb(0, 0, 0)" stroke-opacity="0.94852024" stroke-linecap="round" stroke-linejoin="round"/>
    <path d="M 527.8082885742188 546.9666137695312 C 535.367919921875 542.5986328125 535.1051635742188 570.9360961914062 561.600341796875 581.1765747070312 C 578.7485961914062 570.3006591796875 573.7280883789062 549.2537841796875 566.355712890625 564.5587158203125 C 564.726806640625 585.4793701171875 552.7710571289062 597.933837890625 571.1176147460938 622.8196411132812 C 574.8807373046875 650.9053955078125 578.3179321289062 628.9509887695312 562.8894653320312 611.1511840820312" stroke-width="6.0" fill="none" stroke="rgb(0, 0, 0)" stroke-opacity="0.64670587" stroke-linecap="round" stroke-linejoin="round"/>
    <path d="M 553.355712890625 508.3000183105469 C 528.9035034179688 521.735107421875 510.3323974609375 507.8428039550781 520.7127075195312 514.0181274414062 C 543.1299438476562 495.3079528808594 558.8317260742188 508.7662658691406 562.4027709960938 507.56988525390625 C 584.5712280273438 497.5477294921875 611.9923706054688 468.4677429199219 638.2219848632812 496.19244384765625 C 615.240966796875 526.146728515625 613.9761962890625 510.7023620605469 620.2402954101562 492.97314453125" stroke-width="6.0" fill="none" stroke="rgb(0, 0, 0)" stroke-opacity="0.91512644" stroke-linecap="round" stroke-linejoin="round"/>
    <path d="M 331.267578125 465.288330078125 C 324.1072692871094 467.3473205566406 315.62286376953125 453.041015625 316.391845703125 452.8776550292969 C 292.3086242675781 481.75677490234375 290.477783203125 502.10064697265625 315.33758544921875 494.34295654296875 C 310.17340087890625 498.0944519042969 293.4498596191406 476.8498229980469 279.0963134765625 502.935302734375 C 283.8448791503906 498.02996826171875 263.029541015625 487.8218688964844 255.77993774414062 507.8236389160156" stroke-width="6.0" fill="none" stroke="rgb(0, 0, 0)" stroke-opacity="0.4993015" stroke-linecap="round" stroke-linejoin="round"/>
    <path d="M 392.7447814941406 410.927978515625 C 378.18438720703125 430.22344970703125 406.1748962402344 438.7251281738281 405.6506042480469 418.8191833496094 C 423.3491516113281 398.97509765625 436.5679626464844 398.27410888671875 461.54193115234375 400.8022766113281 C 470.0904846191406 374.2862548828125 442.0799560546875 395.08941650390625 468.79119873046875 405.2209777832031 C 484.69146728515625 399.96453857421875 505.24420166015625 383.85052490234375 517.6343994140625 354.3590393066406" stroke-width="6.0" fill="none" stroke="rgb(0, 0, 0)" stroke-opacity="0.5057329" stroke-linecap="round" stroke-linejoin="round"/>
    <path d="M 223.94041442871094 370.68115234375 C 233.94569396972656 377.7122802734375 232.93795776367188 376.9435729980469 203.29469299316406 380.0422058105469 C 174.0057373046875 381.8072204589844 160.4901885986328 410.4560241699219 131.51873779296875 429.285400390625 C 141.96072387695312 447.6155090332031 166.547119140625 424.0364990234375 142.32595825195312 403.01031494140625 C 123.84188842773438 404.5976867675781 142.75474548339844 390.5971984863281 136.5685272216797 383.020263671875" stroke-width="6.0" fill="none" stroke="rgb(0, 0, 0)" stroke-opacity="0.4060274" stroke-linecap="round" stroke-linejoin="round"/>
    <path d="M 338.9813232421875 594.1598510742188 C 322.5327453613281 605.1624145507812 343.4048767089844 614.3867797851562 364.8980407714844 630.0014038085938 C 340.5079650878906 622.7574462890625 343.6700439453125 596.1243896484375 314.237060546875 576.4074096679688 C 314.2286071777344 572.4022827148438 331.2911682128906 576.3533325195312 352.76873779296875 552.0750732421875 C 354.4981689453125 524.668212890625 337.1833190917969 546.755126953125 360.4365539550781 545.2451782226562" stroke-width="6.0" fill="none" stroke="rgb(0, 0, 0)" stroke-opacity="0.04656197" stroke-linecap="round" stroke-linejoin="round"/>
    <path d="M 44.58884048461914 555.3308715820312 C 68.54753875732422 559.1414794921875 40.561641693115234 584.907470703125 29.430723190307617 612.5956420898438 C 34.64423370361328 627.6985473632812 47.415435791015625 621.5887451171875 21.991830825805664 601.3356323242188 C 6.4203410148620605 621.4149169921875 -0.2177840769290924 645.2200927734375 -10.306681632995605 660.5628051757812 C -31.909624099731445 689.8714599609375 -18.459808349609375 689.9190063476562 9.999591827392578 663.140869140625" stroke-width="6.0" fill="none" stroke="rgb(0, 0, 0)" stroke-opacity="0.43708825" stroke-linecap="round" stroke-linejoin="round"/>
    <path d="M 503.1848449707031 204.33566284179688 C 519.3650512695312 231.62716674804688 513.167236328125 248.04046630859375 484.9448547363281 234.4400634765625 C 514.4600830078125 233.91624450683594 505.8087158203125 260.38482666015625 501.7595520019531 271.16650390625 C 511.3998718261719 246.3081817626953 518.5167846679688 264.19146728515625 531.30322265625 239.07421875 C 510.51666259765625 251.7744598388672 518.590576171875 266.15374755859375 507.59130859375 242.54678344726562" stroke-width="6.0" fill="none" stroke="rgb(0, 0, 0)" stroke-opacity="0.0051952223" stroke-linecap="round" stroke-linejoin="round"/>
    <path d="M 184.98046875 215.9304962158203 C 171.16647338867188 193.88092041015625 152.4099578857422 190.81155395507812 155.6943817138672 185.294189453125 C 127.27007293701172 176.52903747558594 102.81395721435547 182.41168212890625 92.31974792480469 175.56594848632812 C 79.8305892944336 168.83392333984375 54.91256332397461 192.90208435058594 79.18502807617188 221.55247497558594 C 83.50264739990234 201.76744079589844 76.34657287597656 180.09783935546875 64.4144515991211 179.68527221679688" stroke-width="6.0" fill="none" stroke="rgb(0, 0, 0)" stroke-opacity="0.06326715" stroke-linecap="round" stroke-linejoin="round"/>
  </g>
</svg>
