<?xml version="1.0" ?>
<svg xmlns="http://www.w3.org/2000/svg" version="1.1" width="600" height="600">
  <defs/>
  <g>
    <path d="M 518.0308837890625 441.2486267089844 C 526.7377319335938 436.8313903808594 520.8826293945312 420.91668701171875 546.39013671875 439.5740661621094 C 548.8085327148438 456.8116455078125 530.0525512695312 454.69268798828125 540.9332275390625 443.1065673828125 C 543.390625 451.5920715332031 559.6070556640625 479.3370056152344 577.8456420898438 466.42529296875 C 589.3634643554688 439.1962890625 616.9937744140625 445.3857116699219 610.8800048828125 421.5423278808594" stroke-width="6.0" fill="none" stroke="rgb(0, 0, 0)" stroke-opacity="0.3548871" stroke-linecap="round" stroke-linejoin="round"/>
    <path d="M 286.8993835449219 522.3819580078125 C 284.9214782714844 523.9521484375 263.29547119140625 523.4105224609375 258.49993896484375 510.68609619140625 C 288.198486328125 515.8712768554688 281.573974609375 542.5618896484375 277.3135681152344 532.542236328125 C 298.5853576660156 543.7378540039062 316.75439453125 534.3643188476562 297.27032470703125 506.52880859375 C 290.5621643066406 480.9662780761719 286.1876525878906 479.5522155761719 259.9063720703125 487.045166015625" stroke-width="6.0" fill="none" stroke="rgb(0, 0, 0)" stroke-opacity="0.1419238" stroke-linecap="round" stroke-linejoin="round"/>
    <path d="M 32.0624885559082 401.95440673828125 C 3.3705716133117676 375.75311279296875 -13.683895111083984 396.7511901855469 -25.211463928222656 410.9687805175781 C -54.12849807739258 393.4588317871094 -37.88125228881836 381.4378967285156 -57.21025848388672 410.6714782714844 C -52.75716018676758 423.6380310058594 -37.283531188964844 410.36053466796875 -50.399131774902344 413.4925537109375 C -74.98191833496094 406.25262451171875 -70.34881591796875 397.4001159667969 -63.70090866088867 374.469482421875" stroke-width="6.0" fill="none" stroke="rgb(0, 0, 0)" stroke-opacity="0.6448614" stroke-linecap="round" stroke-linejoin="round"/>
    <path d="M 104.74658203125 508.2500305175781 C 99.93839263916016 494.0205993652344 84.7750244140625 523.4757690429688 87.3589859008789 526.6336059570312 C 116.96878051757812 550.974365234375 102.75884246826172 575.8649291992188 108.12625885009766 551.6182250976562 C 83.05280303955078 530.3634033203125 101.63603973388672 549.9473876953125 105.40898895263672 574.30322265625 C 134.3314666748047 603.8298950195312 140.4957275390625 596.9161987304688 136.38900756835938 592.8790283203125" stroke-width="6.0" fill="none" stroke="rgb(0, 0, 0)" stroke-opacity="0.57966435" stroke-linecap="round" stroke-linejoin="round"/>
    <path d="M 92.48981475830078 344.3949279785156 C 118.12073516845703 364.0204162597656 121.57820129394531 346.48895263671875 120.47846984863281 369.3210144042969 C 131.0345916748047 392.4293518066406 118.29412841796875 371.9304504394531 118.34867095947266 365.0248718261719 C 116.79135131835938 363.78533935546875 105.18081665039062 366.8188781738281 121.85982513427734 340.04150390625 C 106.47824096679688 359.0191955566406 120.30005645751953 381.47119140625 118.79393768310547 359.6697082519531" stroke-width="6.0" fill="none" stroke="rgb(0, 0, 0)" stroke-opacity="0.79288995" stroke-linecap="round" stroke-linejoin="round"/>
    <path d="M 597.2460327148438 345.2529602050781 C 616.0873413085938 339.3148193359375 607.5923461914062 366.2421875 597.3527221679688 348.1142578125 C 592.8638916015625 355.1976013183594 571.6052856445312 376.9124755859375 580.88330078125 365.2264709472656 C 597.3248291015625 365.8880310058594 608.7832641601562 344.5030212402344 636.0333862304688 357.6247863769531 C 651.7511596679688 356.84979248046875 674.8543090820312 370.87786865234375 697.6355590820312 372.4678649902344" stroke-width="6.0" fill="none" stroke="rgb(0, 0, 0)" stroke-opacity="0.8321143" stroke-linecap="round" stroke-linejoin="round"/>
    <path d="M 516.3887939453125 47.5349006652832 C 496.6767272949219 49.12895584106445 492.8487243652344 29.073455810546875 492.0643310546875 14.500121116638184 C 509.4114685058594 7.553101539611816 516.4060668945312 -19.32634735107422 487.48675537109375 -26.562650680541992 C 509.80596923828125 -9.543126106262207 515.614501953125 12.428882598876953 543.0463256835938 5.282780170440674 C 523.9647827148438 20.243640899658203 499.9847106933594 9.248257637023926 483.2488098144531 19.23147964477539" stroke-width="6.0" fill="none" stroke="rgb(0, 0, 0)" stroke-opacity="0.050195597" stroke-linecap="round" stroke-linejoin="round"/>
    <path d="M 10.9297456741333 12.132627487182617 C -14.42047119140625 35.881595611572266 -16.769559860229492 12.018631935119629 -42.627017974853516 17.726552963256836 C -24.37703514099121 2.6683542728424072 -13.06845474243164 0.05180723965167999 16.234256744384766 -19.14624786376953 C 8.099035263061523 -17.39971351623535 -15.919535636901855 -10.180281639099121 -32.59848403930664 -18.724010467529297 C -60.80063247680664 -13.777621269226074 -68.59873962402344 10.380752563476562 -58.89541244506836 -17.7982177734375" stroke-width="6.0" fill="none" stroke="rgb(0, 0, 0)" stroke-opacity="0.113802455" stroke-linecap="round" stroke-linejoin="round"/>
    <path d="M 193.95974731445312 181.26571655273438 C 187.7397918701172 201.90638732910156 215.0032958984375 177.4040985107422 198.13723754882812 150.81631469726562 C 170.8765106201172 162.65748596191406 144.8127899169922 172.5023651123047 142.4832000732422 176.53599548339844 C 118.05972290039062 203.601318359375 109.62735748291016 230.69581604003906 127.741943359375 260.63140869140625 C 98.15064239501953 287.2945556640625 110.48924255371094 299.30645751953125 140.3501434326172 327.78839111328125" stroke-width="6.0" fill="none" stroke="rgb(0, 0, 0)" stroke-opacity="0.21311001" stroke-linecap="round" stroke-linejoin="round"/>
    <path d="M 127.8647232055664 500.3107604980469 C 126.72917938232422 508.3278503417969 99.38652801513672 528.8154296875 121.8716049194336 504.6778259277344 C 144.73973083496094 492.0433044433594 125.04800415039062 471.432373046875 144.67318725585938 500.2019348144531 C 151.6680145263672 479.645751953125 173.57264709472656 506.6035461425781 184.16867065429688 492.2681884765625 C 213.13818359375 487.2239074707031 195.66116333007812 480.0999755859375 181.85658264160156 491.6476745605469" stroke-width="6.0" fill="none" stroke="rgb(0, 0, 0)" stroke-opacity="0.42635608" stroke-linecap="round" stroke-linejoin="round"/>
    <path d="M 241.69598388671875 102.66249084472656 C 250.71566772460938 123.97284698486328 279.26666259765625 110.22357940673828 269.7501525878906 123.53561401367188 C 289.822509765625 143.2158660888672 264.83013916015625 163.0188751220703 277.50335693359375 134.87518310546875 C 294.6739196777344 162.3264617919922 285.0116271972656 137.30079650878906 273.96148681640625 121.84618377685547 C 248.2046661376953 98.5565185546875 274.8283386230469 105.2313461303711 299.4670715332031 132.99673461914062" stroke-width="6.0" fill="none" stroke="rgb(0, 0, 0)" stroke-opacity="0.81269985" stroke-linecap="round" stroke-linejoin="round"/>
    <path d="M 243.88671875 498.2970886230469 C 222.912841796875 492.6711120605469 239.74038696289062 510.6014099121094 251.9073486328125 497.0431823730469 C 277.5637512207031 512.4388427734375 307.3651428222656 518.8558959960938 302.39349365234375 539.6967163085938 C 287.7536315917969 539.8422241210938 311.210693359375 532.4036254882812 300.22015380859375 523.39990234375 C 320.4637145996094 503.54840087890625 309.0406188964844 525.4832763671875 324.4679260253906 518.650634765625" stroke-width="6.0" fill="none" stroke="rgb(0, 0, 0)" stroke-opacity="0.87672734" stroke-linecap="round" stroke-linejoin="round"/>
    <path d="M 397.7348937988281 415.3291931152344 C 392.63677978515625 391.9069519042969 406.3713073730469 391.468505859375 427.5353088378906 414.2171630859375 C 441.8990783691406 393.8187255859375 458.5296325683594 370.3809509277344 435.43817138671875 374.08636474609375 C 455.07843017578125 349.8746032714844 428.44940185546875 377.74517822265625 399.673095703125 352.28350830078125 C 399.6260681152344 369.42401123046875 389.48516845703125 394.0533142089844 361.9674987792969 374.27752685546875" stroke-width="6.0" fill="none" stroke="rgb(0, 0, 0)" stroke-opacity="0.49190456" stroke-linecap="round" stroke-linejoin="round"/>
    <path d="M 329.0611572265625 510.146728515625 C 318.6271057128906 482.94500732421875 304.8370361328125 470.36651611328125 328.9755554199219 494.7347412109375 C 315.755126953125 472.9786682128906 344.13043212890625 458.61328125 322.82745361328125 452.8775329589844 C 340.285888671875 424.0044860839844 342.5750427246094 435.9631652832031 363.45794677734375 409.85101318359375 C 382.64630126953125 393.5308532714844 392.751220703125 403.00640869140625 421.5581359863281 425.8856201171875" stroke-width="6.0" fill="none" stroke="rgb(0, 0, 0)" stroke-opacity="0.41070703" stroke-linecap="round" stroke-linejoin="round"/>
    <path d="M 151.25985717773438 370.4742736816406 C 180.8569793701172 343.0543212890625 159.4357452392578 316.7804260253906 172.97288513183594 326.73748779296875 C 149.9967803955078 305.7295227050781 174.3870391845703 276.064208984375 202.89808654785156 285.5921325683594 C 177.6538543701172 294.7950134277344 150.29933166503906 296.9274597167969 174.35975646972656 280.125244140625 C 165.9565887451172 278.42974853515625 176.25820922851562 261.9676513671875 191.19248962402344 279.1762390136719" stroke-width="6.0" fill="none" stroke="rgb(0, 0, 0)" stroke-opacity="0.3914339" stroke-linecap="round" stroke-linejoin="round"/>
    <path d="M 442.3392028808594 409.88226318359375 C 431.0725402832031 387.2121887207031 428.6119689941406 362.224609375 400.91748046875 380.0166320800781 C 396.86260986328125 354.79632568359375 416.72540283203125 352.2255859375 432.23175048828125 328.8785095214844 C 446.7471008300781 351.7131652832031 417.11376953125 348.63983154296875 415.50885009765625 333.6651306152344 C 415.88311767578125 362.14019775390625 407.678466796875 358.3482666015625 409.4469299316406 354.02191162109375" stroke-width="6.0" fill="none" stroke="rgb(0, 0, 0)" stroke-opacity="0.48319283" stroke-linecap="round" stroke-linejoin="round"/>
    <path d="M 479.5080871582031 260.0611877441406 C 478.7943420410156 271.38470458984375 485.0410461425781 250.9440155029297 504.6961975097656 254.09803771972656 C 488.64959716796875 259.26971435546875 465.6888122558594 241.58782958984375 492.68963623046875 247.1400146484375 C 471.7923278808594 238.84283447265625 468.9408264160156 219.4451904296875 460.7534484863281 218.56179809570312 C 444.0363464355469 213.9712677001953 463.76153564453125 238.62677001953125 450.5848083496094 249.91375732421875" stroke-width="6.0" fill="none" stroke="rgb(0, 0, 0)" stroke-opacity="0.89530724" stroke-linecap="round" stroke-linejoin="round"/>
    <path d="M 406.7421569824219 61.33486557006836 C 417.96063232421875 34.071197509765625 423.5411071777344 52.53571319580078 442.02911376953125 63.82014083862305 C 449.7121276855469 80.2153091430664 455.16595458984375 101.09730529785156 484.4637756347656 103.46726989746094 C 459.94000244140625 113.73765563964844 439.81036376953125 129.01817321777344 457.7061767578125 102.7078628540039 C 440.63690185546875 78.47006225585938 411.5103454589844 81.9912338256836 383.8084411621094 73.45178985595703" stroke-width="6.0" fill="none" stroke="rgb(0, 0, 0)" stroke-opacity="0.82380253" stroke-linecap="round" stroke-linejoin="round"/>
    <path d="M 23.070913314819336 41.898101806640625 C 17.31682014465332 50.834022521972656 30.37782859802246 64.9474868774414 24.270858764648438 49.40494918823242 C -1.9930188655853271 73.49667358398438 23.631664276123047 80.63996124267578 46.731563568115234 88.00485229492188 C 35.81394577026367 81.4903564453125 59.75459289550781 96.68698120117188 55.85016632080078 91.48799133300781 C 84.8039779663086 85.84015655517578 103.1158676147461 76.67335510253906 124.6949691772461 102.1348648071289" stroke-width="6.0" fill="none" stroke="rgb(0, 0, 0)" stroke-opacity="0.7462103" stroke-linecap="round" stroke-linejoin="round"/>
    <path d="M 231.43624877929688 592.1450805664062 C 209.4414520263672 583.729736328125 238.25048828125 576.2727661132812 237.5410919189453 601.8405151367188 C 256.1048278808594 608.9698486328125 236.78128051757812 631.3491821289062 228.36648559570312 649.640625 C 258.01690673828125 674.4625854492188 251.24954223632812 660.5564575195312 258.00146484375 664.10546875 C 283.88836669921875 683.268310546875 303.2297668457031 707.62890625 324.95538330078125 707.5099487304688" stroke-width="6.0" fill="none" stroke="rgb(0, 0, 0)" stroke-opacity="0.09690086" stroke-linecap="round" stroke-linejoin="round"/>
    <path d="M 504.1060485839844 548.8405151367188 C 512.2660522460938 536.0910034179688 489.3018493652344 509.4466552734375 462.3554382324219 479.75457763671875 C 455.7260437011719 482.14935302734375 456.64251708984375 511.6474609375 484.7020263671875 496.0982971191406 C 497.3522644042969 514.6759643554688 501.1661682128906 541.955322265625 516.59423828125 528.5545043945312 C 490.3128967285156 540.6482543945312 479.1036682128906 549.6546630859375 473.9090270996094 562.1498413085938" stroke-width="6.0" fill="none" stroke="rgb(0, 0, 0)" stroke-opacity="0.6092203" stroke-linecap="round" stroke-linejoin="round"/>
    <path d="M 511.57379150390625 377.24957275390625 C 534.8284912109375 370.27838134765625 538.7415771484375 391.2255554199219 523.4013671875 383.5633544921875 C 541.20947265625 370.64105224609375 539.2582397460938 377.27716064453125 512.3519287109375 397.0976257324219 C 501.2474060058594 400.36468505859375 485.8022766113281 386.1329650878906 456.6876525878906 385.4473571777344 C 458.4337158203125 356.8634033203125 479.3594665527344 352.3905944824219 471.4991455078125 382.29779052734375" stroke-width="6.0" fill="none" stroke="rgb(0, 0, 0)" stroke-opacity="0.004383055" stroke-linecap="round" stroke-linejoin="round"/>
    <path d="M 566.4500122070312 28.639047622680664 C 591.7179565429688 46.38352584838867 615.5443115234375 23.479631423950195 622.9352416992188 49.1362419128418 C 612.5617065429688 48.553348541259766 600.488525390625 31.138019561767578 603.0155029296875 47.665748596191406 C 605.5318603515625 28.4227294921875 594.019287109375 21.39126205444336 594.6505737304688 21.47367286682129 C 611.6539306640625 18.138410568237305 602.3224487304688 1.5601534843444824 573.1513061523438 13.20824909210205" stroke-width="6.0" fill="none" stroke="rgb(0, 0, 0)" stroke-opacity="0.96205616" stroke-linecap="round" stroke-linejoin="round"/>
    <path d="M 216.4170379638672 191.78172302246094 C 208.60470581054688 165.1468963623047 189.91651916503906 144.56695556640625 188.00341796875 120.07921600341797 C 184.3062744140625 120.64790344238281 194.65548706054688 149.46563720703125 185.38705444335938 162.6788787841797 C 162.67213439941406 191.6420440673828 170.01385498046875 203.1796875 192.64828491210938 211.28585815429688 C 167.95590209960938 182.7166290283203 182.83534240722656 202.05972290039062 158.945068359375 173.3836669921875" stroke-width="6.0" fill="none" stroke="rgb(0, 0, 0)" stroke-opacity="0.7131849" stroke-linecap="round" stroke-linejoin="round"/>
    <path d="M 494.8690185546875 295.5480651855469 C 502.7860412597656 268.0909118652344 489.2769470214844 296.69586181640625 463.3416748046875 292.4050598144531 C 469.5641174316406 312.6365966796875 452.540283203125 328.9378662109375 450.90960693359375 340.9872741699219 C 429.6335754394531 357.4454040527344 433.3388671875 381.0427551269531 438.4137878417969 377.92718505859375 C 439.0694885253906 398.1690673828125 421.25335693359375 402.21014404296875 400.3045959472656 394.3880920410156" stroke-width="6.0" fill="none" stroke="rgb(0, 0, 0)" stroke-opacity="0.85077107" stroke-linecap="round" stroke-linejoin="round"/>
    <path d="M 361.61822509765625 225.26431274414062 C 334.6922607421875 220.0708770751953 329.4202880859375 192.75289916992188 304.27752685546875 180.85305786132812 C 323.0185546875 158.23898315429688 321.68939208984375 164.8236541748047 309.5140380859375 140.01651000976562 C 318.2248229980469 142.12864685058594 337.0309753417969 146.1781768798828 360.6861572265625 139.5404510498047 C 347.916015625 120.96204376220703 335.7648620605469 149.0373077392578 326.7615051269531 160.5978546142578" stroke-width="6.0" fill="none" stroke="rgb(0, 0, 0)" stroke-opacity="0.084038086" stroke-linecap="round" stroke-linejoin="round"/>
    <path d="M 183.76007080078125 443.5223388671875 C 172.6670379638672 471.6654357910156 201.12420654296875 458.46234130859375 228.26370239257812 461.5777282714844 C 205.30416870117188 433.5213623046875 207.88717651367188 422.6980895996094 184.4189453125 410.2710266113281 C 196.4933319091797 427.6574401855469 222.27845764160156 404.1247863769531 219.14328002929688 407.2002258300781 C 217.87867736816406 401.8513488769531 201.5745849609375 430.39520263671875 217.15386962890625 408.11883544921875" stroke-width="6.0" fill="none" stroke="rgb(0, 0, 0)" stroke-opacity="0.007834809" stroke-linecap="round" stroke-linejoin="round"/>
    <path d="M 93.41271209716797 494.79486083984375 C 77.853271484375 478.1559753417969 78.90216827392578 486.0372619628906 63.261077880859375 495.72210693359375 C 56.45619583129883 511.7931213378906 45.919960021972656 518.4281005859375 58.78236770629883 497.681640625 C 29.751644134521484 467.98773193359375 46.444374084472656 452.697265625 66.54688262939453 477.711669921875 C 92.23951721191406 473.4361572265625 80.43226623535156 445.8424377441406 80.45093536376953 425.05230712890625" stroke-width="6.0" fill="none" stroke="rgb(0, 0, 0)" stroke-opacity="0.042824376" stroke-linecap="round" stroke-linejoin="round"/>
    <path d="M 96.09534454345703 188.66690063476562 C 110.15682983398438 195.06539916992188 137.2986602783203 177.21762084960938 137.4665985107422 168.593017578125 C 165.72499084472656 167.76490783691406 167.51991271972656 188.35302734375 184.03768920898438 216.8791046142578 C 162.8717041015625 198.27354431152344 184.09840393066406 202.12794494628906 155.87095642089844 208.65029907226562 C 185.4612274169922 211.2107391357422 173.13746643066406 211.20986938476562 180.9917449951172 209.17262268066406" stroke-width="6.0" fill="none" stroke="rgb(0, 0, 0)" stroke-opacity="0.099275604" stroke-linecap="round" stroke-linejoin="round"/>
    <path d="M 415.457763671875 237.68414306640625 C 391.676513671875 241.49072265625 401.3302001953125 264.0665283203125 410.6585998535156 288.181640625 C 431.0283203125 282.40753173828125 432.67242431640625 311.519287109375 413.10443115234375 320.414306640625 C 387.1856994628906 315.871337890625 414.0317687988281 309.06378173828125 384.8980407714844 325.5658874511719 C 408.8214111328125 346.77703857421875 409.07330322265625 371.2613830566406 382.87103271484375 395.67413330078125" stroke-width="6.0" fill="none" stroke="rgb(0, 0, 0)" stroke-opacity="0.48634362" stroke-linecap="round" stroke-linejoin="round"/>
    <path d="M 28.189830780029297 436.1672668457031 C 7.955661296844482 416.4787902832031 18.31473731994629 409.124755859375 18.489564895629883 380.47900390625 C 21.245458602905273 354.98370361328125 18.22066879272461 333.0335998535156 26.138429641723633 309.0853576660156 C 32.80720901489258 326.2961730957031 62.41144561767578 322.8681335449219 45.3880729675293 295.3453674316406 C 19.125368118286133 278.0730285644531 22.69123649597168 248.33612060546875 25.455350875854492 269.3096618652344" stroke-width="6.0" fill="none" stroke="rgb(0, 0, 0)" stroke-opacity="0.88503116" stroke-linecap="round" stroke-linejoin="round"/>
    <path d="M 155.06710815429688 545.0172119140625 C 184.27183532714844 548.0760498046875 156.94338989257812 567.2315063476562 183.67337036132812 591.0744018554688 C 185.67242431640625 572.6182250976562 180.6610565185547 590.3732299804688 183.05223083496094 615.4495239257812 C 180.48440551757812 629.6632690429688 158.61424255371094 603.2560424804688 134.6117706298828 577.470703125 C 164.36126708984375 588.6952514648438 159.7026824951172 584.0451049804688 173.37049865722656 571.9437866210938" stroke-width="6.0" fill="none" stroke="rgb(0, 0, 0)" stroke-opacity="0.32017642" stroke-linecap="round" stroke-linejoin="round"/>
    <path d="M 384.00128173828125 530.4653930664062 C 382.5534362792969 541.530517578125 365.9076232910156 512.9883422851562 365.86962890625 516.3352661132812 C 386.3814697265625 498.99407958984375 387.8237609863281 524.3348388671875 396.36865234375 514.4405517578125 C 421.6866455078125 498.9131774902344 398.1015930175781 494.0092468261719 420.7129211425781 495.56231689453125 C 420.5024108886719 482.80218505859375 444.22247314453125 472.8202209472656 471.4634094238281 472.01690673828125" stroke-width="6.0" fill="none" stroke="rgb(0, 0, 0)" stroke-opacity="0.95045656" stroke-linecap="round" stroke-linejoin="round"/>
    <path d="M 59.03844451904297 379.0640563964844 C 55.45496368408203 391.88836669921875 42.477291107177734 371.9136962890625 70.70498657226562 392.3575744628906 C 80.82429504394531 385.659423828125 59.075828552246094 384.4878234863281 65.21315002441406 412.4165344238281 C 50.29502868652344 394.1601257324219 26.96772575378418 422.7220764160156 6.550694465637207 406.2839660644531 C 24.98270606994629 397.3953857421875 46.82399368286133 396.0909118652344 42.86601638793945 368.0124816894531" stroke-width="6.0" fill="none" stroke="rgb(0, 0, 0)" stroke-opacity="0.30890784" stroke-linecap="round" stroke-linejoin="round"/>
    <path d="M 8.400419235229492 546.2376098632812 C 9.651637077331543 559.1365966796875 3.710050106048584 582.9494018554688 19.58846092224121 572.87255859375 C 16.52971076965332 567.24951171875 9.701411247253418 544.2601928710938 16.528966903686523 543.4469604492188 C 26.261201858520508 563.9968872070312 16.877880096435547 541.509765625 41.05541229248047 551.30908203125 C 29.097322463989258 537.0927734375 32.83031463623047 532.4074096679688 30.055343627929688 539.015380859375" stroke-width="6.0" fill="none" stroke="rgb(0, 0, 0)" stroke-opacity="0.5725538" stroke-linecap="round" stroke-linejoin="round"/>
    <path d="M 32.879276275634766 277.954345703125 C 10.995526313781738 291.07135009765625 9.326269149780273 277.349853515625 5.333555221557617 248.7581329345703 C -5.760422229766846 265.1690979003906 -29.547603607177734 266.13494873046875 -33.24995422363281 291.5843505859375 C -49.227020263671875 286.0335693359375 -46.97422409057617 269.15142822265625 -62.7784538269043 247.2489471435547 C -80.6051254272461 249.4324188232422 -65.56768035888672 250.91664123535156 -87.2980728149414 242.40573120117188" stroke-width="6.0" fill="none" stroke="rgb(0, 0, 0)" stroke-opacity="0.8811727" stroke-linecap="round" stroke-linejoin="round"/>
    <path d="M 253.943359375 300.57586669921875 C 249.2194366455078 304.3556213378906 272.8258056640625 333.3330383300781 246.44955444335938 324.9571838378906 C 238.78509521484375 311.0782775878906 242.0636749267578 314.65191650390625 230.83294677734375 314.1286315917969 C 256.3962707519531 326.4506530761719 276.34222412109375 331.2279968261719 270.9273681640625 330.09039306640625 C 278.5411682128906 300.33441162109375 272.5084533691406 273.4716491699219 247.09742736816406 292.7870178222656" stroke-width="6.0" fill="none" stroke="rgb(0, 0, 0)" stroke-opacity="0.41259068" stroke-linecap="round" stroke-linejoin="round"/>
    <path d="M 171.2411651611328 234.19662475585938 C 190.87850952148438 239.32492065429688 186.91488647460938 226.44949340820312 203.90618896484375 230.4434814453125 C 225.33494567871094 200.78477478027344 231.17245483398438 196.566162109375 222.509521484375 206.5265655517578 C 244.88987731933594 195.06089782714844 271.4559631347656 221.2304229736328 256.373046875 194.51113891601562 C 254.84722900390625 195.60679626464844 240.97320556640625 189.6150665283203 250.2446746826172 211.76612854003906" stroke-width="6.0" fill="none" stroke="rgb(0, 0, 0)" stroke-opacity="0.7271788" stroke-linecap="round" stroke-linejoin="round"/>
    <path d="M 517.2973022460938 390.46966552734375 C 496.673583984375 409.8050537109375 521.3535766601562 398.69256591796875 540.6342163085938 376.5245666503906 C 550.5470581054688 379.5599365234375 550.9739379882812 403.09503173828125 562.1650390625 422.56683349609375 C 535.5549926757812 438.9906005859375 517.4526977539062 415.531005859375 546.9639282226562 407.9819641113281 C 563.37158203125 401.9338073730469 586.5693359375 374.68475341796875 583.4154663085938 382.316650390625" stroke-width="6.0" fill="none" stroke="rgb(0, 0, 0)" stroke-opacity="0.6787556" stroke-linecap="round" stroke-linejoin="round"/>
    <path d="M 242.38980102539062 544.5858764648438 C 264.26165771484375 563.4517211914062 239.89401245117188 573.5885009765625 225.06369018554688 581.9082641601562 C 216.51966857910156 608.9367065429688 210.9484100341797 589.5053100585938 239.67312622070312 619.1422119140625 C 264.1424865722656 604.5963134765625 252.74917602539062 609.1148071289062 241.14552307128906 619.403076171875 C 231.451416015625 644.4599609375 241.8736572265625 669.3323974609375 215.52598571777344 658.5252075195312" stroke-width="6.0" fill="none" stroke="rgb(0, 0, 0)" stroke-opacity="0.1924637" stroke-linecap="round" stroke-linejoin="round"/>
    <path d="M 299.4324645996094 294.1868591308594 C 320.4188232421875 268.9587707519531 350.2169189453125 239.8911895751953 350.7176513671875 251.9183349609375 C 373.35064697265625 233.4530792236328 393.61981201171875 257.6462097167969 396.58587646484375 270.95684814453125 C 387.2275695800781 276.8872375488281 411.2432861328125 276.4998474121094 400.2289123535156 302.4194641113281 C 381.46661376953125 288.0392150878906 355.65179443359375 278.69512939453125 345.0406494140625 306.4707336425781" stroke-width="6.0" fill="none" stroke="rgb(0, 0, 0)" stroke-opacity="0.96442825" stroke-linecap="round" stroke-linejoin="round"/>
    <path d="M 442.6331481933594 504.2952880859375 C 422.5145263671875 488.0001525878906 440.8639221191406 463.9783020019531 466.2818298339844 450.40509033203125 C 450.1413269042969 474.98248291015625 434.90716552734375 502.9543762207031 412.9811096191406 530.5274047851562 C 410.460205078125 517.2824096679688 419.02227783203125 504.5184326171875 402.69635009765625 517.5720825195312 C 381.4251403808594 529.7055053710938 372.16815185546875 527.1384887695312 367.8833923339844 552.2744750976562" stroke-width="6.0" fill="none" stroke="rgb(0, 0, 0)" stroke-opacity="0.49888623" stroke-linecap="round" stroke-linejoin="round"/>
    <path d="M 386.11199951171875 169.44163513183594 C 398.5940246582031 157.13772583007812 419.96014404296875 155.484619140625 417.2253112792969 141.19427490234375 C 425.4527282714844 134.79495239257812 411.88958740234375 142.01632690429688 390.90997314453125 164.08743286132812 C 405.19482421875 164.6435089111328 414.924560546875 152.3926544189453 418.6997985839844 123.04300689697266 C 415.74072265625 146.8764190673828 425.28704833984375 121.34502410888672 397.21856689453125 125.68336486816406" stroke-width="6.0" fill="none" stroke="rgb(0, 0, 0)" stroke-opacity="0.5590364" stroke-linecap="round" stroke-linejoin="round"/>
    <path d="M 174.9603271484375 104.26485443115234 C 175.4320526123047 108.96126556396484 160.28981018066406 101.71749114990234 145.8302764892578 79.02359008789062 C 146.0360565185547 74.44379425048828 146.3912811279297 102.0682373046875 144.5413055419922 118.55725860595703 C 172.59197998046875 140.5551300048828 153.3880615234375 141.49822998046875 127.67439270019531 132.04147338867188 C 119.498046875 135.86668395996094 123.61058807373047 127.56632232666016 144.5277557373047 129.25381469726562" stroke-width="6.0" fill="none" stroke="rgb(0, 0, 0)" stroke-opacity="0.2610423" stroke-linecap="round" stroke-linejoin="round"/>
    <path d="M 158.67945861816406 592.7606811523438 C 182.2537384033203 583.8173828125 159.27232360839844 562.6605834960938 175.46726989746094 549.829833984375 C 200.6147918701172 536.3438720703125 213.6180877685547 534.3877563476562 185.22767639160156 550.7180786132812 C 180.09190368652344 559.8568725585938 154.3588409423828 573.8817138671875 159.81411743164062 580.5028076171875 C 147.40167236328125 569.9035034179688 144.3896942138672 584.8746337890625 153.73902893066406 571.0435180664062" stroke-width="6.0" fill="none" stroke="rgb(0, 0, 0)" stroke-opacity="0.32614657" stroke-linecap="round" stroke-linejoin="round"/>
    <path d="M 12.309877395629883 283.5704040527344 C 42.15878677368164 297.2244873046875 19.569509506225586 298.6072998046875 -6.071034908294678 274.652587890625 C -31.768718719482422 268.279541015625 -23.525480270385742 243.95921325683594 -13.925061225891113 218.68292236328125 C -28.56340980529785 234.77294921875 -0.08277181535959244 235.08616638183594 -17.0382080078125 232.95013427734375 C 11.257054328918457 206.06109619140625 -15.248567581176758 227.40513610839844 -18.611658096313477 234.70809936523438" stroke-width="6.0" fill="none" stroke="rgb(0, 0, 0)" stroke-opacity="0.94700193" stroke-linecap="round" stroke-linejoin="round"/>
    <path d="M 432.8998718261719 383.0565490722656 C 458.85845947265625 376.1463317871094 441.9371643066406 372.7734375 422.69549560546875 358.0956726074219 C 432.1018371582031 373.9146728515625 461.39080810546875 351.7148132324219 451.4734191894531 330.85015869140625 C 478.9403076171875 330.652099609375 480.4568786621094 315.97216796875 479.8822021484375 314.8079833984375 C 487.17291259765625 332.27667236328125 508.03570556640625 316.7737121582031 514.2916259765625 317.8404846191406" stroke-width="6.0" fill="none" stroke="rgb(0, 0, 0)" stroke-opacity="0.49463198" stroke-linecap="round" stroke-linejoin="round"/>
    <path d="M 197.30699157714844 420.2012939453125 C 206.4130401611328 427.4203186035156 213.71597290039062 447.5684509277344 195.4258270263672 451.5111999511719 C 171.95602416992188 452.66192626953125 163.67294311523438 438.7242736816406 185.65489196777344 457.1142272949219 C 188.375732421875 440.6260681152344 188.75222778320312 432.3653564453125 217.1378631591797 455.7830810546875 C 196.35458374023438 435.7178039550781 214.8690185546875 450.259765625 185.98028564453125 445.42437744140625" stroke-width="6.0" fill="none" stroke="rgb(0, 0, 0)" stroke-opacity="0.9179392" stroke-linecap="round" stroke-linejoin="round"/>
    <path d="M 62.77592086791992 361.9464111328125 C 67.41328430175781 341.9032287597656 93.1243896484375 338.6832275390625 111.18179321289062 358.59368896484375 C 140.855712890625 386.05816650390625 132.52273559570312 375.9077453613281 115.95559692382812 403.6188049316406 C 90.19622039794922 412.47479248046875 94.64413452148438 428.9185485839844 68.9181137084961 438.8270568847656 C 77.38688659667969 457.864013671875 67.15496063232422 450.8393859863281 40.929317474365234 470.75018310546875" stroke-width="6.0" fill="none" stroke="rgb(0, 0, 0)" stroke-opacity="0.74944013" stroke-linecap="round" stroke-linejoin="round"/>
    <path d="M 515.6022338867188 227.69593811035156 C 523.4290771484375 206.24578857421875 541.5867309570312 224.31207275390625 558.7405395507812 204.60386657714844 C 560.481201171875 193.06539916992188 567.1295776367188 196.84844970703125 590.3577880859375 216.18954467773438 C 600.5772705078125 231.46983337402344 623.2905883789062 204.85389709472656 593.5905151367188 182.09136962890625 C 571.104736328125 171.62660217285156 571.868896484375 180.73736572265625 594.3441162109375 197.87185668945312" stroke-width="6.0" fill="none" stroke="rgb(0, 0, 0)" stroke-opacity="0.19328105" stroke-linecap="round" stroke-linejoin="round"/>
    <path d="M 368.4198913574219 1.6978540420532227 C 392.4402770996094 24.885217666625977 412.5213623046875 17.869800567626953 418.4462890625 -1.8938930034637451 C 421.7835998535156 6.167888164520264 446.2353820800781 17.147754669189453 458.7704772949219 42.67916488647461 C 458.6068420410156 53.250553131103516 476.2137451171875 69.73302459716797 456.9927673339844 94.38270568847656 C 467.5721740722656 92.92645263671875 449.23828125 67.52910614013672 472.1445617675781 47.340232849121094" stroke-width="6.0" fill="none" stroke="rgb(0, 0, 0)" stroke-opacity="0.26014742" stroke-linecap="round" stroke-linejoin="round"/>
    <path d="M 475.9450378417969 323.45556640625 C 453.9848937988281 332.8353576660156 450.6133117675781 329.59930419921875 432.1822204589844 305.42083740234375 C 453.8491516113281 293.3680419921875 463.0975036621094 279.4273681640625 480.1174011230469 256.369873046875 C 492.4662780761719 248.8663787841797 478.6762390136719 277.0107727050781 483.1975402832031 305.3829345703125 C 498.9295959472656 298.4447937011719 506.9093017578125 308.5527038574219 510.12109375 278.9332580566406" stroke-width="6.0" fill="none" stroke="rgb(0, 0, 0)" stroke-opacity="0.5746994" stroke-linecap="round" stroke-linejoin="round"/>
    <path d="M 559.2942504882812 497.22723388671875 C 575.3493041992188 494.0325622558594 585.2392578125 514.6203002929688 582.2672729492188 540.0276489257812 C 592.173095703125 534.869384765625 582.057861328125 543.6928100585938 555.5853881835938 554.127197265625 C 579.3273315429688 533.490478515625 554.647705078125 558.0033569335938 572.1062622070312 584.2653198242188 C 547.4450073242188 586.1405029296875 544.620849609375 615.9335327148438 543.2326049804688 620.6766357421875" stroke-width="6.0" fill="none" stroke="rgb(0, 0, 0)" stroke-opacity="0.2738888" stroke-linecap="round" stroke-linejoin="round"/>
    <path d="M 497.222900390625 223.99110412597656 C 492.9609680175781 248.70057678222656 500.1154479980469 267.02178955078125 513.8472900390625 278.1995849609375 C 531.579345703125 306.35736083984375 544.7745361328125 279.6329040527344 530.9935913085938 265.95953369140625 C 501.1217956542969 240.83013916015625 530.3563232421875 234.36282348632812 522.6787109375 231.5789337158203 C 534.3418579101562 229.2652130126953 529.4970092773438 237.80908203125 545.6823120117188 263.4961853027344" stroke-width="6.0" fill="none" stroke="rgb(0, 0, 0)" stroke-opacity="0.36275345" stroke-linecap="round" stroke-linejoin="round"/>
    <path d="M 274.80889892578125 115.56822204589844 C 253.12496948242188 124.10128784179688 251.9066162109375 112.15290832519531 267.8174743652344 102.44664764404297 C 263.81072998046875 91.91220092773438 235.07142639160156 107.05101013183594 248.66400146484375 91.52918243408203 C 221.93492126464844 108.53445434570312 245.366943359375 104.10796356201172 257.5262756347656 81.14470672607422 C 269.7046813964844 89.33277893066406 291.5335693359375 109.60420989990234 311.7952880859375 136.6505889892578" stroke-width="6.0" fill="none" stroke="rgb(0, 0, 0)" stroke-opacity="0.33441493" stroke-linecap="round" stroke-linejoin="round"/>
    <path d="M 509.8385925292969 538.3963012695312 C 493.062255859375 558.5167236328125 463.8238220214844 540.7471313476562 486.2956848144531 528.5274047851562 C 488.9259948730469 498.57159423828125 488.3704528808594 500.2626953125 496.4671936035156 520.1510009765625 C 475.3631896972656 502.2952575683594 501.4364013671875 520.519775390625 494.1062927246094 511.6167297363281 C 467.51629638671875 488.2699279785156 488.0500183105469 484.1797790527344 465.31549072265625 490.4538269042969" stroke-width="6.0" fill="none" stroke="rgb(0, 0, 0)" stroke-opacity="0.22025377" stroke-linecap="round" stroke-linejoin="round"/>
    <path d="M 508.43853759765625 275.76397705078125 C 498.33819580078125 249.32017517089844 475.40301513671875 246.92745971679688 495.7942199707031 255.27459716796875 C 506.6572570800781 251.85850524902344 502.541748046875 234.0224151611328 508.20709228515625 262.7476501464844 C 502.95159912109375 234.6844024658203 528.7567749023438 227.91896057128906 501.6781921386719 225.63011169433594 C 508.5915222167969 245.27395629882812 530.4113159179688 224.24842834472656 552.1804809570312 224.9247283935547" stroke-width="6.0" fill="none" stroke="rgb(0, 0, 0)" stroke-opacity="0.018398885" stroke-linecap="round" stroke-linejoin="round"/>
    <path d="M 401.7388916015625 294.0727844238281 C 402.7634582519531 306.8017578125 399.902587890625 310.5928649902344 400.4090270996094 310.8775634765625 C 385.7269287109375 293.88531494140625 376.65985107421875 288.0414123535156 378.5216064453125 281.5439453125 C 389.7151794433594 311.3179016113281 386.5346374511719 296.5360412597656 386.6679382324219 322.86480712890625 C 370.6878967285156 345.227294921875 397.4300537109375 349.4201354980469 393.8465270996094 373.383056640625" stroke-width="6.0" fill="none" stroke="rgb(0, 0, 0)" stroke-opacity="0.25734347" stroke-linecap="round" stroke-linejoin="round"/>
    <path d="M 488.6040954589844 354.22576904296875 C 479.9400634765625 331.2053527832031 509.5956115722656 352.3269348144531 527.6672973632812 335.25177001953125 C 524.8069458007812 314.3350524902344 534.2789916992188 288.2732238769531 523.9307861328125 285.077880859375 C 537.84326171875 313.1015930175781 524.4646606445312 315.2436828613281 548.84228515625 296.15435791015625 C 536.4688720703125 316.1302185058594 524.9840087890625 322.67779541015625 544.775390625 340.4267272949219" stroke-width="6.0" fill="none" stroke="rgb(0, 0, 0)" stroke-opacity="0.81309795" stroke-linecap="round" stroke-linejoin="round"/>
    <path d="M 384.447509765625 269.648193359375 C 379.615966796875 259.1713562011719 383.68988037109375 269.3778381347656 363.7501525878906 287.9923400878906 C 346.7470703125 264.38226318359375 371.1261901855469 258.88104248046875 355.2747802734375 287.8846130371094 C 330.4223327636719 271.247314453125 353.3415222167969 291.02801513671875 327.1056213378906 267.4005126953125 C 340.7731628417969 279.95025634765625 333.64556884765625 284.7631530761719 305.0115966796875 271.3092346191406" stroke-width="6.0" fill="none" stroke="rgb(0, 0, 0)" stroke-opacity="0.44009793" stroke-linecap="round" stroke-linejoin="round"/>
    <path d="M 28.875377655029297 259.3053283691406 C 17.2319278717041 265.2108459472656 -9.169078826904297 256.037841796875 9.115523338317871 229.9324188232422 C -14.950011253356934 245.60751342773438 -7.976386070251465 270.0746154785156 -8.306211471557617 273.95220947265625 C -32.718482971191406 295.8747253417969 -25.159738540649414 270.2336730957031 3.4841902256011963 249.8257598876953 C 20.82058334350586 251.920166015625 -5.918581962585449 259.3778991699219 14.714827537536621 254.93504333496094" stroke-width="6.0" fill="none" stroke="rgb(0, 0, 0)" stroke-opacity="0.6781564" stroke-linecap="round" stroke-linejoin="round"/>
    <path d="M 384.2752685546875 496.09906005859375 C 385.6334228515625 519.69140625 405.5890808105469 508.1893310546875 380.43231201171875 531.938232421875 C 376.07073974609375 545.2891235351562 351.8317565917969 543.903564453125 349.8275451660156 523.0302734375 C 356.3868408203125 502.86181640625 326.50433349609375 526.1763916015625 324.6317138671875 529.6036376953125 C 296.4196472167969 544.0263671875 311.0618896484375 534.7047729492188 290.2765197753906 564.6004638671875" stroke-width="6.0" fill="none" stroke="rgb(0, 0, 0)" stroke-opacity="0.011649163" stroke-linecap="round" stroke-linejoin="round"/>
    <path d="M 373.82568359375 287.7917785644531 C 386.5670166015625 293.1562805175781 398.70086669921875 305.2561950683594 379.2992248535156 335.1241149902344 C 351.30810546875 308.6473083496094 326.2789306640625 282.5572814941406 343.4615173339844 304.4480895996094 C 319.0433654785156 295.26104736328125 322.5465087890625 291.373291015625 338.9370422363281 302.5488586425781 C 345.58343505859375 310.56890869140625 343.6382141113281 296.4070129394531 371.2601623535156 303.0083312988281" stroke-width="6.0" fill="none" stroke="rgb(0, 0, 0)" stroke-opacity="0.58979595" stroke-linecap="round" stroke-linejoin="round"/>
    <path d="M 505.6648864746094 518.2869873046875 C 531.5971069335938 499.1560363769531 523.3709106445312 505.1410217285156 495.6448669433594 475.74237060546875 C 517.2975463867188 494.3309020996094 501.2419128417969 480.0323791503906 508.60772705078125 458.10595703125 C 487.3431091308594 483.2666015625 486.522705078125 498.8140869140625 459.81463623046875 488.4565124511719 C 448.1712646484375 499.19610595703125 443.5299072265625 479.5343017578125 450.54998779296875 494.14654541015625" stroke-width="6.0" fill="none" stroke="rgb(0, 0, 0)" stroke-opacity="0.74139494" stroke-linecap="round" stroke-linejoin="round"/>
  </g>
</svg>
