<?xml version="1.0" ?>
<svg xmlns="http://www.w3.org/2000/svg" version="1.1" width="600" height="600">
  <defs/>
  <g>
    <path d="M 211.1857452392578 361.1913757324219 C 242.8218994140625 430.38958740234375 326.4075012207031 444.4212341308594 199.723876953125 426.7469177246094 C 196.21173095703125 361.2548828125 245.88717651367188 341.4166564941406 212.09124755859375 391.0514831542969 C 259.2226867675781 382.07977294921875 264.7836608886719 372.0147705078125 262.2938232421875 416.6949768066406 C 228.24459838867188 379.0432434082031 194.40916442871094 370.64794921875 170.38865661621094 406.3694152832031" stroke-width="6.0" fill="none" stroke="rgb(0, 0, 0)" stroke-opacity="0.39665443" stroke-linecap="round" stroke-linejoin="round"/>
    <path d="M 444.4770202636719 47.3195915222168 C 449.7242736816406 53.07404327392578 455.00732421875 70.36888885498047 438.9422912597656 43.458221435546875 C 445.58685302734375 55.292022705078125 456.2395935058594 72.65460205078125 457.4463806152344 66.03284454345703 C 418.8103332519531 41.86456298828125 423.6498107910156 36.8859748840332 465.12261962890625 112.82574462890625 C 469.2035217285156 109.5230484008789 458.70001220703125 104.9201889038086 474.5883483886719 131.27281188964844" stroke-width="6.0" fill="none" stroke="rgb(0, 0, 0)" stroke-opacity="0.27008238" stroke-linecap="round" stroke-linejoin="round"/>
    <path d="M 444.62347412109375 349.23382568359375 C 477.21685791015625 343.40167236328125 503.9346008300781 323.8290710449219 557.4120483398438 317.3414001464844 C 477.312744140625 344.6875915527344 448.218017578125 353.7746887207031 482.309814453125 346.31658935546875 C 368.85943603515625 370.36865234375 336.5159606933594 374.90155029296875 449.78125 352.6436462402344 C 461.4764709472656 347.43927001953125 466.7398986816406 327.0636901855469 578.5159301757812 307.97991943359375" stroke-width="6.0" fill="none" stroke="rgb(0, 0, 0)" stroke-opacity="0.72007465" stroke-linecap="round" stroke-linejoin="round"/>
    <path d="M 305.7196044921875 441.95489501953125 C 280.1800231933594 392.3602294921875 276.2235412597656 442.0033264160156 282.5221862792969 476.815185546875 C 274.51409912109375 477.6483459472656 267.1271667480469 449.50811767578125 351.7270812988281 487.9910583496094 C 341.2237243652344 471.5863952636719 330.8239440917969 415.3980712890625 287.4294128417969 411.753173828125 C 296.1423034667969 440.7337951660156 282.291748046875 488.8652038574219 257.7873840332031 386.9938049316406" stroke-width="6.0" fill="none" stroke="rgb(0, 0, 0)" stroke-opacity="0.4841986" stroke-linecap="round" stroke-linejoin="round"/>
    <path d="M 441.83612060546875 520.7599487304688 C 360.1650390625 522.9442749023438 380.8690490722656 527.3655395507812 371.1326599121094 566.79833984375 C 347.0433654785156 476.84429931640625 329.2857971191406 487.7280578613281 357.0248718261719 569.0849609375 C 319.51593017578125 600.6456909179688 321.00018310546875 617.7487182617188 323.2791748046875 627.9718017578125 C 334.32037353515625 601.405029296875 307.4029541015625 627.868896484375 306.0667419433594 647.19580078125" stroke-width="6.0" fill="none" stroke="rgb(0, 0, 0)" stroke-opacity="0.40070745" stroke-linecap="round" stroke-linejoin="round"/>
    <path d="M 18.39987564086914 367.4183654785156 C 15.26836109161377 371.4031677246094 33.314788818359375 353.8924560546875 75.49945068359375 327.0062561035156 C 84.16431427001953 319.4638366699219 51.73188400268555 325.60498046875 95.08627319335938 320.5586242675781 C 67.77718353271484 315.7256164550781 88.5202865600586 346.8348388671875 98.3179931640625 352.76483154296875 C 73.46588134765625 344.51751708984375 120.9254379272461 335.56048583984375 146.79588317871094 316.8422546386719" stroke-width="6.0" fill="none" stroke="rgb(0, 0, 0)" stroke-opacity="0.17381355" stroke-linecap="round" stroke-linejoin="round"/>
    <path d="M 93.83991241455078 -8.188248634338379 C 65.53536224365234 -7.938016891479492 51.43653106689453 -26.235319137573242 61.98814392089844 14.086709976196289 C 58.916358947753906 9.04226303100586 53.370880126953125 41.266357421875 84.72277069091797 86.5220947265625 C 95.61748504638672 94.32666015625 96.833740234375 72.69386291503906 124.9066162109375 54.78853988647461 C 107.07083129882812 74.26959228515625 110.9122543334961 66.79698181152344 100.48814392089844 73.2060546875" stroke-width="6.0" fill="none" stroke="rgb(0, 0, 0)" stroke-opacity="0.124353655" stroke-linecap="round" stroke-linejoin="round"/>
    <path d="M 346.064453125 397.401611328125 C 449.74090576171875 436.3834228515625 474.68719482421875 406.43017578125 428.6721496582031 387.5379333496094 C 396.7782897949219 369.4627380371094 396.6079406738281 370.5573425292969 441.1736755371094 394.277099609375 C 440.1851501464844 442.56146240234375 467.3919677734375 437.5050354003906 429.62176513671875 439.5945739746094 C 450.4170227050781 440.4249267578125 443.4795837402344 398.7930603027344 485.1328430175781 432.7165832519531" stroke-width="6.0" fill="none" stroke="rgb(0, 0, 0)" stroke-opacity="0.4917258" stroke-linecap="round" stroke-linejoin="round"/>
    <path d="M 43.93153381347656 239.7328338623047 C 55.028968811035156 222.6762237548828 78.34163665771484 205.9420166015625 91.06905364990234 195.00489807128906 C 78.72389221191406 204.14089965820312 108.13517761230469 182.0252685546875 111.98743438720703 178.5791015625 C 127.62113952636719 209.66603088378906 130.26925659179688 212.2898712158203 129.6492919921875 215.80332946777344 C 144.83819580078125 218.99859619140625 98.36445617675781 240.06886291503906 77.55018615722656 270.0491027832031" stroke-width="6.0" fill="none" stroke="rgb(0, 0, 0)" stroke-opacity="0.20355824" stroke-linecap="round" stroke-linejoin="round"/>
    <path d="M 335.3406677246094 563.9163208007812 C 313.05596923828125 538.96923828125 274.69061279296875 557.0653076171875 253.13856506347656 549.7821655273438 C 249.88916015625 556.0014038085938 289.635009765625 551.7078247070312 313.31280517578125 551.0391845703125 C 293.3721008300781 531.8329467773438 324.9833068847656 557.51123046875 323.40765380859375 559.06689453125 C 352.1611633300781 574.1803588867188 376.4168395996094 576.0387573242188 410.31402587890625 546.4608764648438" stroke-width="6.0" fill="none" stroke="rgb(0, 0, 0)" stroke-opacity="0.92186815" stroke-linecap="round" stroke-linejoin="round"/>
    <path d="M 307.7728576660156 509.8107604980469 C 342.44464111328125 492.7361145019531 304.6239929199219 524.3754272460938 340.4655456542969 536.7064819335938 C 436.2354736328125 518.126220703125 455.4573059082031 535.6236572265625 433.27294921875 489.5876159667969 C 375.6725158691406 455.5202941894531 342.1277770996094 476.0877990722656 363.8953857421875 533.9464721679688 C 406.40771484375 545.0940551757812 419.01116943359375 557.6920776367188 294.38800048828125 542.6132202148438" stroke-width="6.0" fill="none" stroke="rgb(0, 0, 0)" stroke-opacity="0.0436473" stroke-linecap="round" stroke-linejoin="round"/>
    <path d="M 425.15380859375 430.6471862792969 C 479.1396484375 425.0404357910156 486.9876708984375 430.8553771972656 461.1177673339844 440.9894714355469 C 414.8514099121094 454.4094543457031 459.8188171386719 439.0401916503906 485.3460693359375 475.0254821777344 C 482.3793029785156 470.374267578125 516.5166625976562 449.8899841308594 619.765380859375 449.296630859375 C 543.4747924804688 466.3978576660156 496.0091247558594 457.8737487792969 474.2060241699219 504.4885559082031" stroke-width="6.0" fill="none" stroke="rgb(0, 0, 0)" stroke-opacity="0.85234135" stroke-linecap="round" stroke-linejoin="round"/>
    <path d="M 494.38616943359375 209.4471435546875 C 499.7516174316406 248.3138885498047 572.3588256835938 285.9825134277344 490.2387390136719 266.85540771484375 C 374.5435791015625 312.7738952636719 390.9599914550781 269.1729736328125 478.6490783691406 269.3091735839844 C 532.3802490234375 274.9988708496094 514.7037963867188 268.94775390625 582.9638671875 278.5063781738281 C 634.3417358398438 289.5505676269531 564.8569946289062 267.0373840332031 600.3352661132812 262.381103515625" stroke-width="6.0" fill="none" stroke="rgb(0, 0, 0)" stroke-opacity="0.79251945" stroke-linecap="round" stroke-linejoin="round"/>
    <path d="M 156.42892456054688 73.5281982421875 C 144.99551391601562 66.15648651123047 139.1757354736328 32.45961380004883 123.67272186279297 54.57424545288086 C 97.41788482666016 82.6346664428711 79.946533203125 101.95067596435547 102.45915985107422 78.05339050292969 C 98.44412231445312 78.98006439208984 91.91222381591797 87.1171646118164 76.48267364501953 106.74955749511719 C 81.37407684326172 99.49015808105469 59.94804382324219 70.07360076904297 23.59538459777832 12.602408409118652" stroke-width="6.0" fill="none" stroke="rgb(0, 0, 0)" stroke-opacity="0.5719227" stroke-linecap="round" stroke-linejoin="round"/>
    <path d="M 357.0870056152344 608.9996337890625 C 337.2589416503906 629.4341430664062 343.023193359375 613.0088500976562 349.33984375 630.6695556640625 C 371.0551452636719 608.7451171875 390.0030822753906 611.7959594726562 386.91802978515625 607.8422241210938 C 393.354736328125 605.3657836914062 379.7921142578125 615.7896118164062 401.225830078125 618.3572387695312 C 420.9444274902344 616.6643676757812 441.24462890625 624.3592529296875 465.4488525390625 633.1396484375" stroke-width="6.0" fill="none" stroke="rgb(0, 0, 0)" stroke-opacity="0.30893287" stroke-linecap="round" stroke-linejoin="round"/>
    <path d="M 276.46380615234375 397.149658203125 C 287.5484619140625 291.6317138671875 294.5474853515625 318.5560607910156 243.17640686035156 341.79949951171875 C 176.91090393066406 391.0121765136719 154.1236572265625 415.314208984375 275.292236328125 409.6850280761719 C 328.2562255859375 354.8707580566406 357.4583435058594 404.765625 297.9258728027344 340.02618408203125 C 311.52587890625 392.5777893066406 315.2994689941406 379.0453796386719 394.2265625 364.21356201171875" stroke-width="6.0" fill="none" stroke="rgb(0, 0, 0)" stroke-opacity="0.9672697" stroke-linecap="round" stroke-linejoin="round"/>
    <path d="M 441.2191162109375 226.48622131347656 C 497.09613037109375 197.45677185058594 511.63897705078125 197.1922607421875 468.3614807128906 209.05276489257812 C 505.98333740234375 197.20217895507812 530.8859252929688 174.32345581054688 562.6094970703125 158.0481414794922 C 533.2888793945312 177.7272186279297 530.4906616210938 179.89349365234375 539.0643920898438 166.1898651123047 C 599.7637939453125 149.50189208984375 586.5371704101562 138.5318603515625 581.7393188476562 107.8525619506836" stroke-width="6.0" fill="none" stroke="rgb(0, 0, 0)" stroke-opacity="0.4926246" stroke-linecap="round" stroke-linejoin="round"/>
    <path d="M 39.88628387451172 492.78729248046875 C 72.8664779663086 541.0509643554688 77.87772369384766 564.5509033203125 82.87236022949219 534.9700317382812 C 31.84661102294922 461.0413818359375 36.7672119140625 410.6073913574219 88.09880828857422 499.6105041503906 C 174.2034912109375 470.9843444824219 83.96037292480469 422.44232177734375 107.9808120727539 473.7212219238281 C 142.2422637939453 547.3417358398438 140.92453002929688 567.8124389648438 129.84237670898438 512.8214721679688" stroke-width="6.0" fill="none" stroke="rgb(0, 0, 0)" stroke-opacity="0.18980856" stroke-linecap="round" stroke-linejoin="round"/>
    <path d="M 63.75056076049805 531.0667724609375 C 68.15779876708984 555.0804443359375 85.67713928222656 531.2905883789062 63.40401840209961 548.575927734375 C 51.971580505371094 549.461669921875 51.81463623046875 541.1085815429688 56.138893127441406 472.3472900390625 C 53.488521575927734 485.26513671875 33.26618576049805 483.5789794921875 64.85693359375 470.99005126953125 C 80.56446838378906 427.5881652832031 59.454776763916016 385.99334716796875 54.78372573852539 381.6517333984375" stroke-width="6.0" fill="none" stroke="rgb(0, 0, 0)" stroke-opacity="0.02578015" stroke-linecap="round" stroke-linejoin="round"/>
    <path d="M -12.223916053771973 464.344482421875 C -23.744403839111328 479.7726135253906 -42.46808624267578 451.5210266113281 -0.6406543850898743 448.10601806640625 C 33.53693389892578 419.1463623046875 50.16334915161133 415.4521789550781 50.5643196105957 406.34417724609375 C 76.17717742919922 437.1389465332031 55.24057388305664 426.8863525390625 73.2424545288086 421.3898010253906 C 66.05158233642578 411.4137268066406 76.70354461669922 423.3797302246094 80.97428894042969 426.823974609375" stroke-width="6.0" fill="none" stroke="rgb(0, 0, 0)" stroke-opacity="0.9097008" stroke-linecap="round" stroke-linejoin="round"/>
    <path d="M 71.33396911621094 21.73975372314453 C 59.92061996459961 10.008339881896973 59.19975280761719 2.650489330291748 60.2135124206543 4.906419277191162 C 73.80602264404297 22.6043758392334 91.1132583618164 52.51846694946289 100.96591186523438 65.70465087890625 C 113.26690673828125 81.52030181884766 82.97490692138672 95.1419906616211 77.65955352783203 66.11482238769531 C 61.931915283203125 40.02289962768555 54.393341064453125 29.507261276245117 41.39247131347656 7.61198091506958" stroke-width="6.0" fill="none" stroke="rgb(0, 0, 0)" stroke-opacity="0.66510785" stroke-linecap="round" stroke-linejoin="round"/>
    <path d="M 265.4417419433594 72.30512237548828 C 242.32164001464844 59.07404708862305 256.9100646972656 48.194679260253906 292.692626953125 43.19172286987305 C 268.6919860839844 48.02733612060547 246.92234802246094 46.82514953613281 291.0758972167969 47.15283203125 C 282.0426025390625 72.8231430053711 240.21234130859375 71.40399932861328 269.1839294433594 96.47340393066406 C 322.4848937988281 92.84625244140625 322.939208984375 97.9625015258789 323.6477966308594 108.48265075683594" stroke-width="6.0" fill="none" stroke="rgb(0, 0, 0)" stroke-opacity="0.10821838" stroke-linecap="round" stroke-linejoin="round"/>
    <path d="M 501.9192199707031 279.9878845214844 C 587.97314453125 299.01678466796875 602.9188842773438 303.0833740234375 607.7474975585938 288.2380065917969 C 581.095703125 306.197265625 554.2581787109375 324.815673828125 584.0521240234375 303.59149169921875 C 594.8968505859375 287.5845947265625 591.6342163085938 301.1391906738281 547.369873046875 321.39239501953125 C 499.0613098144531 345.4360656738281 470.485107421875 330.828369140625 403.8238525390625 292.25384521484375" stroke-width="6.0" fill="none" stroke="rgb(0, 0, 0)" stroke-opacity="0.21513288" stroke-linecap="round" stroke-linejoin="round"/>
    <path d="M 287.9728698730469 229.67575073242188 C 266.1258239746094 251.8956298828125 293.3899841308594 235.1085968017578 299.4046936035156 220.31573486328125 C 242.9825897216797 267.4650573730469 234.87684631347656 231.39730834960938 232.23553466796875 215.90423583984375 C 296.755615234375 231.0994415283203 293.08154296875 221.68032836914062 295.1993103027344 188.3603057861328 C 316.6050720214844 199.00955200195312 324.5674133300781 170.4414520263672 292.49066162109375 98.73099517822266" stroke-width="6.0" fill="none" stroke="rgb(0, 0, 0)" stroke-opacity="0.007687086" stroke-linecap="round" stroke-linejoin="round"/>
    <path d="M 187.6407012939453 138.57366943359375 C 177.29449462890625 150.17955017089844 180.67953491210938 137.9742431640625 211.80416870117188 116.88613891601562 C 201.56588745117188 132.2552032470703 202.66799926757812 122.8757553100586 221.92645263671875 108.22476959228516 C 228.77915954589844 97.8127670288086 233.28831481933594 97.06930541992188 243.11737060546875 89.43856048583984 C 222.34506225585938 67.26979064941406 219.56919860839844 56.35045623779297 216.6060028076172 53.93644714355469" stroke-width="6.0" fill="none" stroke="rgb(0, 0, 0)" stroke-opacity="0.80132216" stroke-linecap="round" stroke-linejoin="round"/>
    <path d="M 341.33734130859375 466.0816650390625 C 420.8581848144531 464.5544128417969 401.88616943359375 441.4508972167969 425.8876953125 432.1493835449219 C 420.51434326171875 449.0340881347656 410.1819152832031 418.0851135253906 412.8283996582031 407.9217834472656 C 342.8020935058594 403.36456298828125 383.7998046875 412.090576171875 439.6717224121094 445.3490295410156 C 452.3625793457031 422.6921081542969 415.7384338378906 394.2317199707031 405.5517272949219 417.42425537109375" stroke-width="6.0" fill="none" stroke="rgb(0, 0, 0)" stroke-opacity="0.655509" stroke-linecap="round" stroke-linejoin="round"/>
    <path d="M 93.40023040771484 478.8253173828125 C 96.16802978515625 460.83807373046875 64.53300476074219 466.51043701171875 109.86738586425781 462.8398742675781 C 134.90135192871094 425.77178955078125 167.6845703125 541.0045776367188 168.86448669433594 574.943603515625 C 100.59941864013672 485.87554931640625 101.7897720336914 470.1331481933594 137.80303955078125 423.30340576171875 C 96.85931396484375 419.9664001464844 155.56640625 420.2538757324219 216.75254821777344 356.03558349609375" stroke-width="6.0" fill="none" stroke="rgb(0, 0, 0)" stroke-opacity="0.6150084" stroke-linecap="round" stroke-linejoin="round"/>
    <path d="M 286.8653259277344 322.2842102050781 C 361.6271667480469 288.329833984375 442.29364013671875 280.8998718261719 326.2281188964844 320.47906494140625 C 254.534912109375 344.6856994628906 306.3630676269531 319.86920166015625 289.70806884765625 302.080322265625 C 275.5030517578125 298.19073486328125 278.0927429199219 284.4877624511719 277.226806640625 284.0063781738281 C 293.7754821777344 275.96160888671875 295.7733154296875 272.9869079589844 230.8043212890625 312.27581787109375" stroke-width="6.0" fill="none" stroke="rgb(0, 0, 0)" stroke-opacity="0.33836713" stroke-linecap="round" stroke-linejoin="round"/>
    <path d="M 346.2947692871094 537.5640258789062 C 355.5396423339844 450.8650207519531 323.7220153808594 476.4087829589844 341.0303649902344 475.94683837890625 C 330.200927734375 545.6377563476562 340.67889404296875 529.0628051757812 313.7605895996094 419.10418701171875 C 380.9154357910156 518.9866943359375 368.4961242675781 537.1410522460938 346.8972473144531 493.0680847167969 C 380.8065490722656 495.1299133300781 374.912841796875 550.6870727539062 392.8021545410156 548.0135498046875" stroke-width="6.0" fill="none" stroke="rgb(0, 0, 0)" stroke-opacity="0.73877466" stroke-linecap="round" stroke-linejoin="round"/>
    <path d="M 426.55645751953125 359.1733703613281 C 514.3906860351562 343.8940734863281 463.6206970214844 350.07110595703125 471.8910217285156 300.5822448730469 C 531.0364379882812 279.986572265625 511.9690246582031 246.80186462402344 400.10986328125 285.2467041015625 C 329.2599792480469 301.3227233886719 414.5509338378906 282.8514709472656 394.52581787109375 285.3215637207031 C 368.1639404296875 319.1512451171875 352.732421875 303.90155029296875 441.7944641113281 283.2767028808594" stroke-width="6.0" fill="none" stroke="rgb(0, 0, 0)" stroke-opacity="0.8090437" stroke-linecap="round" stroke-linejoin="round"/>
    <path d="M 135.6473846435547 219.58157348632812 C 91.13350677490234 254.53834533691406 91.70728302001953 255.7367401123047 76.42597198486328 269.69281005859375 C 58.67363739013672 273.5364685058594 77.12677764892578 274.0536804199219 91.22227478027344 317.6177673339844 C 38.234256744384766 349.525390625 59.55567932128906 331.4866638183594 63.777183532714844 338.25518798828125 C 56.671417236328125 333.6690673828125 86.90567016601562 330.1141662597656 71.5519027709961 312.90582275390625" stroke-width="6.0" fill="none" stroke="rgb(0, 0, 0)" stroke-opacity="0.641179" stroke-linecap="round" stroke-linejoin="round"/>
    <path d="M 575.0780029296875 309.9298400878906 C 470.7990417480469 352.4632263183594 501.0267028808594 317.2478332519531 543.6162109375 323.99908447265625 C 566.298828125 350.4085388183594 580.8795166015625 325.3575439453125 569.0137939453125 296.089599609375 C 553.8453369140625 295.1485595703125 516.8800048828125 310.86370849609375 466.5593566894531 352.3697509765625 C 474.0540771484375 301.6167297363281 534.5526733398438 295.3496398925781 590.265869140625 301.0499572753906" stroke-width="6.0" fill="none" stroke="rgb(0, 0, 0)" stroke-opacity="0.13759959" stroke-linecap="round" stroke-linejoin="round"/>
    <path d="M 181.97193908691406 548.9177856445312 C 243.99411010742188 491.38995361328125 215.88185119628906 529.5932006835938 174.2707977294922 413.4665222167969 C 93.35233306884766 443.773681640625 92.71149444580078 473.2950744628906 146.7169647216797 544.7005004882812 C 159.5047607421875 500.9530944824219 118.28225708007812 462.8658142089844 99.02237701416016 447.9839172363281 C 125.49051666259766 487.1711120605469 114.18663787841797 461.6620178222656 133.2896270751953 510.3646240234375" stroke-width="6.0" fill="none" stroke="rgb(0, 0, 0)" stroke-opacity="0.14357685" stroke-linecap="round" stroke-linejoin="round"/>
    <path d="M 206.91110229492188 390.6072998046875 C 227.09564208984375 351.718994140625 221.49099731445312 353.70318603515625 267.6800231933594 334.31170654296875 C 275.6020812988281 336.4032287597656 316.666015625 360.8367919921875 332.32269287109375 379.19287109375 C 286.0997009277344 351.1246643066406 265.5481262207031 334.01031494140625 326.01690673828125 319.7880859375 C 375.4499206542969 303.1018371582031 351.8537902832031 310.32049560546875 329.3240966796875 319.75213623046875" stroke-width="6.0" fill="none" stroke="rgb(0, 0, 0)" stroke-opacity="0.5460138" stroke-linecap="round" stroke-linejoin="round"/>
    <path d="M 459.89129638671875 142.24765014648438 C 504.7904968261719 110.97367095947266 511.64813232421875 108.6710433959961 551.4168090820312 77.9263916015625 C 595.9925537109375 69.3577880859375 579.8951416015625 89.44520568847656 569.755615234375 50.19041061401367 C 562.6363525390625 77.00663757324219 568.5384521484375 48.977455139160156 572.0299072265625 65.9660415649414 C 560.4415893554688 32.50823974609375 574.1072387695312 65.09595489501953 569.9262084960938 60.91436767578125" stroke-width="6.0" fill="none" stroke="rgb(0, 0, 0)" stroke-opacity="0.36801916" stroke-linecap="round" stroke-linejoin="round"/>
    <path d="M 475.4982604980469 464.61065673828125 C 567.3621215820312 438.83282470703125 619.653564453125 428.7386169433594 541.4317016601562 450.091796875 C 596.0010986328125 479.406982421875 617.0447998046875 413.46240234375 586.1069946289062 446.77313232421875 C 583.0906372070312 420.1673583984375 565.4004516601562 456.6699523925781 544.1831665039062 479.9359436035156 C 548.84814453125 463.5618896484375 524.4063720703125 451.4457702636719 601.7488403320312 431.6135559082031" stroke-width="6.0" fill="none" stroke="rgb(0, 0, 0)" stroke-opacity="0.9981506" stroke-linecap="round" stroke-linejoin="round"/>
    <path d="M 150.27880859375 485.2825012207031 C 187.08201599121094 572.2379760742188 195.2539520263672 583.5262451171875 230.00396728515625 516.1473388671875 C 209.75987243652344 499.606689453125 223.62814331054688 500.3510437011719 210.31582641601562 521.6159057617188 C 230.64051818847656 493.74700927734375 208.5663604736328 520.1970825195312 198.29551696777344 526.1773071289062 C 286.9997253417969 527.473388671875 326.2621765136719 535.634521484375 342.4364929199219 506.6432800292969" stroke-width="6.0" fill="none" stroke="rgb(0, 0, 0)" stroke-opacity="0.64956075" stroke-linecap="round" stroke-linejoin="round"/>
    <path d="M 155.73541259765625 73.07557678222656 C 153.63812255859375 73.0097885131836 158.81680297851562 75.61698913574219 165.8760986328125 87.3914794921875 C 155.2621612548828 104.25171661376953 123.88589477539062 119.15180969238281 188.10389709472656 70.32745361328125 C 214.75257873535156 35.395355224609375 230.84515380859375 46.213348388671875 235.38087463378906 101.36540222167969 C 210.73609924316406 104.66227722167969 213.04844665527344 122.72354125976562 219.40115356445312 111.31864166259766" stroke-width="6.0" fill="none" stroke="rgb(0, 0, 0)" stroke-opacity="0.85136205" stroke-linecap="round" stroke-linejoin="round"/>
    <path d="M 382.70001220703125 549.848388671875 C 501.0595397949219 538.013427734375 489.64324951171875 529.5467529296875 440.75634765625 521.6683349609375 C 443.7172546386719 521.2261352539062 431.723388671875 521.952880859375 468.8109436035156 503.1896667480469 C 509.53399658203125 422.2633361816406 466.34075927734375 469.2497863769531 437.60894775390625 523.7872924804688 C 500.1897277832031 534.8682861328125 426.9320373535156 549.22802734375 469.62774658203125 536.2443237304688" stroke-width="6.0" fill="none" stroke="rgb(0, 0, 0)" stroke-opacity="0.68010896" stroke-linecap="round" stroke-linejoin="round"/>
    <path d="M 187.3468017578125 554.2322998046875 C 238.4403533935547 551.1358642578125 218.26425170898438 556.584228515625 177.92201232910156 582.9734497070312 C 172.18299865722656 509.6905517578125 153.97442626953125 495.63995361328125 129.06857299804688 517.3472290039062 C 143.39956665039062 588.7706909179688 192.8511505126953 593.5785522460938 220.33120727539062 597.604248046875 C 153.20315551757812 636.7504272460938 138.2790985107422 626.1464233398438 138.7814178466797 623.666748046875" stroke-width="6.0" fill="none" stroke="rgb(0, 0, 0)" stroke-opacity="0.941607" stroke-linecap="round" stroke-linejoin="round"/>
    <path d="M 81.00525665283203 395.25048828125 C 122.11640930175781 371.0237731933594 144.50698852539062 357.53765869140625 148.2394256591797 408.50225830078125 C 145.25523376464844 417.4366149902344 97.73955535888672 379.7478942871094 132.60052490234375 367.0937805175781 C 158.78610229492188 448.80596923828125 173.49266052246094 442.40447998046875 199.45391845703125 410.023681640625 C 251.0178985595703 319.4692077636719 273.1995849609375 292.0046691894531 173.23184204101562 346.4500732421875" stroke-width="6.0" fill="none" stroke="rgb(0, 0, 0)" stroke-opacity="0.48425114" stroke-linecap="round" stroke-linejoin="round"/>
    <path d="M 128.8052520751953 369.9335021972656 C 105.67489624023438 383.548828125 90.72789764404297 386.0555114746094 170.99234008789062 349.3560485839844 C 179.26419067382812 345.1115417480469 134.84664916992188 368.0530090332031 127.69156646728516 366.9046325683594 C 115.50518798828125 310.5278625488281 97.00116729736328 349.65386962890625 50.59645462036133 369.8869934082031 C 52.7960205078125 369.2373352050781 50.862361907958984 371.3232421875 24.62197494506836 389.681396484375" stroke-width="6.0" fill="none" stroke="rgb(0, 0, 0)" stroke-opacity="0.51472485" stroke-linecap="round" stroke-linejoin="round"/>
    <path d="M 361.4042053222656 168.5547637939453 C 284.5809631347656 221.52085876464844 253.84303283691406 239.5697479248047 243.09913635253906 247.41912841796875 C 246.93905639648438 241.61627197265625 258.88153076171875 239.2561798095703 291.484619140625 215.17520141601562 C 297.50030517578125 209.43069458007812 307.07537841796875 214.59910583496094 306.7869873046875 228.15293884277344 C 327.3607482910156 252.03195190429688 308.2586364746094 243.53192138671875 245.79864501953125 287.30230712890625" stroke-width="6.0" fill="none" stroke="rgb(0, 0, 0)" stroke-opacity="0.7644041" stroke-linecap="round" stroke-linejoin="round"/>
    <path d="M 197.4830322265625 569.3619995117188 C 161.1392364501953 544.4585571289062 175.08767700195312 553.651123046875 218.09442138671875 513.5361938476562 C 234.93077087402344 512.4833374023438 198.9406280517578 507.9464111328125 209.6720428466797 519.815673828125 C 293.7279968261719 512.4907836914062 309.3065490722656 551.0309448242188 265.60498046875 553.9249267578125 C 171.09693908691406 546.0441284179688 135.14599609375 594.09912109375 206.27252197265625 557.1107177734375" stroke-width="6.0" fill="none" stroke="rgb(0, 0, 0)" stroke-opacity="0.33637345" stroke-linecap="round" stroke-linejoin="round"/>
    <path d="M 532.6758422851562 338.84063720703125 C 580.96923828125 351.1615905761719 590.00537109375 314.0010986328125 561.1702880859375 306.8382873535156 C 553.1416015625 304.6530456542969 538.73974609375 351.8590393066406 516.7764892578125 377.4265441894531 C 540.363525390625 431.2872009277344 572.8875122070312 387.7424011230469 598.7783813476562 366.7890625 C 618.5040283203125 426.3217468261719 597.6521606445312 416.97027587890625 625.3766479492188 411.57659912109375" stroke-width="6.0" fill="none" stroke="rgb(0, 0, 0)" stroke-opacity="0.031570513" stroke-linecap="round" stroke-linejoin="round"/>
    <path d="M 577.7012329101562 34.689212799072266 C 553.6724243164062 54.248470306396484 534.0567626953125 67.87483978271484 544.5430297851562 62.80487823486328 C 525.3660888671875 71.17451477050781 559.3110961914062 59.52473831176758 553.5926513671875 54.770179748535156 C 530.1981201171875 74.1661376953125 521.955078125 74.98834228515625 522.1941528320312 78.27613067626953 C 547.400634765625 57.86651611328125 551.203125 50.50869369506836 569.5514526367188 97.66205596923828" stroke-width="6.0" fill="none" stroke="rgb(0, 0, 0)" stroke-opacity="0.6100766" stroke-linecap="round" stroke-linejoin="round"/>
    <path d="M 154.74835205078125 146.9140167236328 C 158.66937255859375 165.98153686523438 181.41139221191406 151.6394500732422 190.71792602539062 130.72613525390625 C 191.4055633544922 140.4067840576172 176.7383270263672 146.9755859375 189.16871643066406 134.3214111328125 C 164.9508056640625 158.96243286132812 152.3266143798828 161.20669555664062 171.37203979492188 160.39939880371094 C 155.14401245117188 154.9280548095703 162.26351928710938 155.52423095703125 158.00933837890625 155.4622802734375" stroke-width="6.0" fill="none" stroke="rgb(0, 0, 0)" stroke-opacity="0.25644398" stroke-linecap="round" stroke-linejoin="round"/>
    <path d="M 312.3116760253906 139.9599609375 C 316.4651794433594 142.2063446044922 288.8544006347656 143.83314514160156 300.20989990234375 148.7917022705078 C 292.7626647949219 146.72283935546875 285.8832702636719 156.52621459960938 312.3730773925781 140.44703674316406 C 316.15679931640625 143.1948699951172 318.9903869628906 154.36558532714844 329.822509765625 167.55824279785156 C 315.6059265136719 151.15652465820312 305.1060791015625 127.3000717163086 307.0911865234375 132.55093383789062" stroke-width="6.0" fill="none" stroke="rgb(0, 0, 0)" stroke-opacity="0.3211677" stroke-linecap="round" stroke-linejoin="round"/>
    <path d="M 401.2470703125 544.6154174804688 C 327.1263427734375 589.3839111328125 350.7110290527344 565.6100463867188 435.2689514160156 602.1585083007812 C 429.8191223144531 686.26416015625 415.6518859863281 717.7067260742188 443.1563720703125 699.2584838867188 C 381.82025146484375 655.52001953125 409.5481262207031 681.0823974609375 432.1527099609375 651.6383666992188 C 436.2304382324219 628.076416015625 465.2100524902344 615.1502075195312 494.5560302734375 617.7482299804688" stroke-width="6.0" fill="none" stroke="rgb(0, 0, 0)" stroke-opacity="0.49391243" stroke-linecap="round" stroke-linejoin="round"/>
    <path d="M 548.40625 479.43511962890625 C 481.65289306640625 499.5661315917969 455.5245666503906 508.2508544921875 475.617919921875 493.2649230957031 C 500.3984680175781 492.44140625 530.1519775390625 471.0015563964844 572.23681640625 443.56060791015625 C 559.9091796875 466.4678039550781 550.330322265625 460.0792541503906 511.2331237792969 486.9198913574219 C 593.3192138671875 469.1367492675781 568.0159301757812 430.66162109375 488.80828857421875 477.0341491699219" stroke-width="6.0" fill="none" stroke="rgb(0, 0, 0)" stroke-opacity="0.75375664" stroke-linecap="round" stroke-linejoin="round"/>
    <path d="M 584.8248901367188 103.57991027832031 C 565.3963623046875 117.64219665527344 585.1196899414062 103.16839599609375 594.0391235351562 98.93061828613281 C 577.0755615234375 109.35923767089844 556.7750244140625 123.28646850585938 544.314208984375 127.59290313720703 C 526.5966186523438 142.84710693359375 505.07568359375 149.60916137695312 528.9325561523438 144.17308044433594 C 498.62847900390625 154.42889404296875 493.8232727050781 161.18324279785156 456.7908935546875 183.6094970703125" stroke-width="6.0" fill="none" stroke="rgb(0, 0, 0)" stroke-opacity="0.53751767" stroke-linecap="round" stroke-linejoin="round"/>
    <path d="M 368.898681640625 139.78543090820312 C 367.5778503417969 134.06809997558594 385.1723327636719 150.95884704589844 369.06060791015625 136.60450744628906 C 327.84490966796875 131.16232299804688 328.7085266113281 135.02857971191406 358.86566162109375 135.80467224121094 C 358.14404296875 136.33103942871094 331.4867858886719 130.21295166015625 328.587158203125 139.47235107421875 C 335.9464111328125 133.7819061279297 332.1659240722656 125.1126708984375 309.92913818359375 137.00555419921875" stroke-width="6.0" fill="none" stroke="rgb(0, 0, 0)" stroke-opacity="0.05773678" stroke-linecap="round" stroke-linejoin="round"/>
    <path d="M 290.836669921875 490.7200927734375 C 290.43194580078125 458.64483642578125 255.67730712890625 488.400634765625 296.9803466796875 432.7177734375 C 331.41033935546875 414.3038635253906 318.21014404296875 424.34600830078125 278.87225341796875 480.2982482910156 C 293.9577331542969 548.6084594726562 309.4918518066406 555.654541015625 313.3666076660156 514.84716796875 C 299.6560363769531 531.05322265625 328.92864990234375 558.1307373046875 387.1743469238281 557.730224609375" stroke-width="6.0" fill="none" stroke="rgb(0, 0, 0)" stroke-opacity="0.6827304" stroke-linecap="round" stroke-linejoin="round"/>
    <path d="M 384.7181396484375 354.93951416015625 C 446.6539306640625 305.6512756347656 416.5578918457031 296.2071228027344 431.6905822753906 275.9097595214844 C 359.4811096191406 301.9200744628906 328.74169921875 285.2330627441406 321.9877624511719 298.0366516113281 C 350.717041015625 311.0506896972656 303.8965759277344 286.1585998535156 291.69512939453125 317.94134521484375 C 292.3641052246094 309.3418273925781 312.24798583984375 308.2694396972656 423.877197265625 316.710205078125" stroke-width="6.0" fill="none" stroke="rgb(0, 0, 0)" stroke-opacity="0.015645796" stroke-linecap="round" stroke-linejoin="round"/>
    <path d="M 115.16827392578125 61.654571533203125 C 107.40693664550781 67.50540161132812 130.0369415283203 50.48225021362305 174.50570678710938 -2.0226781368255615 C 173.5029296875 -53.90194320678711 192.52732849121094 -66.7393569946289 186.7611083984375 -52.722137451171875 C 147.35829162597656 -8.868727684020996 136.4925079345703 -2.993666887283325 146.84442138671875 -13.753759384155273 C 134.95028686523438 -35.15813446044922 144.5630340576172 -51.89556884765625 132.5930938720703 -78.23811340332031" stroke-width="6.0" fill="none" stroke="rgb(0, 0, 0)" stroke-opacity="0.94852024" stroke-linecap="round" stroke-linejoin="round"/>
    <path d="M 572.5210571289062 547.0018920898438 C 561.2763671875 545.0553588867188 562.9047241210938 535.6365356445312 550.1943359375 539.197021484375 C 546.3975830078125 537.5264892578125 533.6428833007812 541.9539794921875 578.6061401367188 544.3150634765625 C 561.0985717773438 550.2048950195312 576.4940795898438 546.9563598632812 636.9960327148438 563.291015625 C 611.031982421875 681.4607543945312 611.7545776367188 649.6984252929688 587.4671020507812 616.1682739257812" stroke-width="6.0" fill="none" stroke="rgb(0, 0, 0)" stroke-opacity="0.64670587" stroke-linecap="round" stroke-linejoin="round"/>
    <path d="M 556.1077880859375 474.72113037109375 C 501.14434814453125 521.6089477539062 389.66448974609375 500.4237976074219 468.333984375 535.8114013671875 C 555.454345703125 513.2577514648438 559.3965454101562 507.62506103515625 545.0961303710938 518.8755493164062 C 587.674560546875 492.62835693359375 587.3244018554688 458.7086181640625 622.3576049804688 496.91680908203125 C 615.240966796875 526.146728515625 613.9761962890625 510.7023620605469 620.2402954101562 492.97314453125" stroke-width="6.0" fill="none" stroke="rgb(0, 0, 0)" stroke-opacity="0.91512644" stroke-linecap="round" stroke-linejoin="round"/>
    <path d="M 385.3450622558594 455.33154296875 C 307.6687927246094 459.0473937988281 361.487060546875 444.4571228027344 284.2271423339844 414.72576904296875 C 270.70281982421875 485.06573486328125 300.77410888671875 485.49517822265625 354.5394287109375 500.4013671875 C 319.7619323730469 483.5086364746094 254.06192016601562 453.87548828125 306.6700439453125 527.3344116210938 C 315.9972839355469 525.0205078125 303.7850036621094 525.9927368164062 222.4643096923828 498.78155517578125" stroke-width="6.0" fill="none" stroke="rgb(0, 0, 0)" stroke-opacity="0.4993015" stroke-linecap="round" stroke-linejoin="round"/>
    <path d="M 449.2440185546875 442.48760986328125 C 392.720947265625 427.4843444824219 377.1639099121094 401.7852783203125 412.70867919921875 425.93572998046875 C 469.2342529296875 416.8787536621094 496.4622497558594 443.4528503417969 464.4888000488281 415.4739990234375 C 402.4041748046875 386.41143798828125 363.3011474609375 416.5157470703125 430.77032470703125 435.6122741699219 C 474.1686096191406 436.2502746582031 524.4616088867188 417.74908447265625 617.7987060546875 391.30999755859375" stroke-width="6.0" fill="none" stroke="rgb(0, 0, 0)" stroke-opacity="0.5057329" stroke-linecap="round" stroke-linejoin="round"/>
    <path d="M 175.417236328125 402.98016357421875 C 278.9234313964844 404.53387451171875 282.8598937988281 365.6486511230469 213.39190673828125 392.0638732910156 C 197.982421875 390.2378234863281 141.68601989746094 403.88885498046875 101.30375671386719 443.4024963378906 C 111.60035705566406 522.4642333984375 141.7318115234375 494.69622802734375 99.20963287353516 456.29461669921875 C 104.50375366210938 417.2394714355469 149.94898986816406 408.560302734375 197.5429229736328 380.8583984375" stroke-width="6.0" fill="none" stroke="rgb(0, 0, 0)" stroke-opacity="0.4060274" stroke-linecap="round" stroke-linejoin="round"/>
    <path d="M 354.20379638671875 609.7711791992188 C 335.75372314453125 625.7234497070312 349.3321533203125 627.04541015625 340.97576904296875 684.974853515625 C 315.7901611328125 667.8548583984375 327.9197692871094 615.2008056640625 348.4987487792969 573.48046875 C 359.859619140625 569.501953125 353.6037902832031 565.4057006835938 360.4614562988281 576.6406860351562 C 314.22930908203125 544.3388671875 293.7095642089844 533.6102905273438 351.3839416503906 515.4848022460938" stroke-width="6.0" fill="none" stroke="rgb(0, 0, 0)" stroke-opacity="0.04656197" stroke-linecap="round" stroke-linejoin="round"/>
    <path d="M 92.79488372802734 558.1331787109375 C 123.99618530273438 574.7005615234375 140.56700134277344 578.0955200195312 162.31788635253906 592.7460327148438 C 39.404293060302734 637.5294189453125 53.92540740966797 634.1524047851562 31.361042022705078 614.6561279296875 C 12.211040496826172 627.1065063476562 1.7419413328170776 646.8884887695312 -10.293305397033691 660.5728759765625 C -31.909624099731445 689.8714599609375 -18.459808349609375 689.9190063476562 9.999591827392578 663.140869140625" stroke-width="6.0" fill="none" stroke="rgb(0, 0, 0)" stroke-opacity="0.43708825" stroke-linecap="round" stroke-linejoin="round"/>
    <path d="M 510.73223876953125 232.7620849609375 C 518.0576782226562 260.67950439453125 517.6423950195312 285.7243957519531 506.9798278808594 263.3349914550781 C 555.2581176757812 265.111083984375 549.6097412109375 296.28631591796875 503.98095703125 283.6722106933594 C 527.729248046875 213.63421630859375 495.4848937988281 211.33737182617188 524.5736694335938 215.06629943847656 C 531.6407470703125 286.5239562988281 537.344970703125 309.7729797363281 545.3004150390625 246.48568725585938" stroke-width="6.0" fill="none" stroke="rgb(0, 0, 0)" stroke-opacity="0.0051952223" stroke-linecap="round" stroke-linejoin="round"/>
    <path d="M 200.69264221191406 210.2377471923828 C 196.81768798828125 191.15496826171875 204.64195251464844 176.0995330810547 151.41485595703125 187.7433319091797 C 102.83522033691406 200.7435302734375 96.71897888183594 205.6825408935547 109.29911041259766 215.63629150390625 C 110.85745239257812 189.6517333984375 72.42424011230469 209.4743194580078 65.39192962646484 215.32591247558594 C 112.4845199584961 179.61553955078125 126.3122787475586 166.8955078125 66.59007263183594 213.6250457763672" stroke-width="6.0" fill="none" stroke="rgb(0, 0, 0)" stroke-opacity="0.06326715" stroke-linecap="round" stroke-linejoin="round"/>
  </g>
</svg>
