<?xml version="1.0" ?>
<svg xmlns="http://www.w3.org/2000/svg" version="1.1" width="600" height="600">
  <defs/>
  <g>
    <path d="M 216.46865844726562 293.5303955078125 C 166.97653198242188 309.1174011230469 189.70152282714844 233.11920166015625 264.3944091796875 224.21270751953125 C 313.2380065917969 230.50819396972656 240.30833435058594 238.3404998779297 222.90281677246094 256.930908203125 C 231.67311096191406 272.6147155761719 208.54917907714844 234.9876251220703 259.2015075683594 299.261474609375 C 206.77908325195312 239.03805541992188 222.52499389648438 234.9744415283203 263.50238037109375 304.2383117675781" stroke-width="6.0" fill="none" stroke="rgb(0, 0, 0)" stroke-opacity="0.9687252" stroke-linecap="round" stroke-linejoin="round"/>
    <path d="M 243.35076904296875 475.94488525390625 C 185.82652282714844 414.1789855957031 178.40835571289062 391.6594543457031 140.62271118164062 339.5487365722656 C 157.121826171875 323.4312744140625 187.7962188720703 371.3310546875 216.0446014404297 398.4470520019531 C 288.2030334472656 480.84722900390625 337.44329833984375 489.5740051269531 246.39108276367188 414.04248046875 C 258.7995300292969 426.7616882324219 249.63221740722656 416.7660827636719 350.7511901855469 438.27142333984375" stroke-width="6.0" fill="none" stroke="rgb(0, 0, 0)" stroke-opacity="0.658663" stroke-linecap="round" stroke-linejoin="round"/>
    <path d="M 426.4342346191406 446.7325439453125 C 425.9866638183594 448.5577087402344 411.1815185546875 441.51708984375 467.9188232421875 473.3031921386719 C 498.0174255371094 488.8819274902344 514.7942504882812 490.4013671875 490.1193542480469 490.9923400878906 C 497.58489990234375 491.09246826171875 482.28265380859375 489.0028076171875 487.30419921875 481.53857421875 C 500.7315979003906 490.8006591796875 486.1396179199219 481.85675048828125 527.7330932617188 501.4952392578125" stroke-width="6.0" fill="none" stroke="rgb(0, 0, 0)" stroke-opacity="0.43045554" stroke-linecap="round" stroke-linejoin="round"/>
    <path d="M -1.6327582597732544 173.05389404296875 C 81.62403869628906 176.2888641357422 46.322364807128906 162.51144409179688 -19.626344680786133 169.11851501464844 C -2.746250867843628 166.68820190429688 -6.771605968475342 169.39010620117188 -36.985469818115234 143.00820922851562 C -16.522409439086914 148.4952850341797 -33.725311279296875 180.2278289794922 -51.047760009765625 172.98863220214844 C -55.867557525634766 151.90916442871094 -56.89199447631836 150.47891235351562 -60.6020393371582 162.2847137451172" stroke-width="6.0" fill="none" stroke="rgb(0, 0, 0)" stroke-opacity="0.31890947" stroke-linecap="round" stroke-linejoin="round"/>
    <path d="M 188.1162872314453 464.1217041015625 C 228.71292114257812 516.6431884765625 200.81329345703125 464.6440734863281 138.78720092773438 508.3948059082031 C 116.10052490234375 514.9378662109375 114.23410034179688 522.3492431640625 137.8282470703125 510.40472412109375 C 111.12976837158203 434.5841979980469 135.42071533203125 465.5518798828125 117.73627471923828 475.710693359375 C 90.37805938720703 496.4107666015625 62.698612213134766 505.3790588378906 23.090415954589844 540.9324340820312" stroke-width="6.0" fill="none" stroke="rgb(0, 0, 0)" stroke-opacity="0.80872977" stroke-linecap="round" stroke-linejoin="round"/>
    <path d="M 55.81931686401367 27.41777229309082 C 42.530120849609375 18.136333465576172 42.56524658203125 34.49473571777344 11.022614479064941 54.965782165527344 C 10.150837898254395 45.468849182128906 23.229642868041992 36.87495422363281 22.02865219116211 37.18630599975586 C 32.59622573852539 30.77362632751465 31.980995178222656 38.67799377441406 17.24828338623047 36.879520416259766 C 28.722881317138672 36.40576934814453 38.58982849121094 28.795394897460938 -13.149834632873535 71.5962142944336" stroke-width="6.0" fill="none" stroke="rgb(0, 0, 0)" stroke-opacity="0.51082486" stroke-linecap="round" stroke-linejoin="round"/>
    <path d="M 244.59088134765625 80.91938781738281 C 302.1421813964844 88.07891845703125 312.4758605957031 83.90926361083984 268.3537902832031 80.7447280883789 C 261.7630615234375 107.0657730102539 244.15859985351562 112.19073486328125 238.487060546875 59.156005859375 C 248.56272888183594 27.238611221313477 238.02618408203125 49.294376373291016 230.80433654785156 40.39201736450195 C 211.4943084716797 89.83383178710938 215.98414611816406 154.47933959960938 247.24806213378906 103.72374725341797" stroke-width="6.0" fill="none" stroke="rgb(0, 0, 0)" stroke-opacity="0.030860705" stroke-linecap="round" stroke-linejoin="round"/>
    <path d="M 555.057861328125 160.3962860107422 C 451.58856201171875 191.65455627441406 433.2135009765625 188.5181121826172 467.6800537109375 183.25184631347656 C 472.2326965332031 179.0260009765625 464.587646484375 192.5054168701172 457.6161193847656 191.67416381835938 C 493.1708984375 183.49032592773438 512.563720703125 173.82286071777344 517.07568359375 168.7239227294922 C 531.4934692382812 200.0295867919922 476.3115539550781 198.52964782714844 600.0930786132812 167.80381774902344" stroke-width="6.0" fill="none" stroke="rgb(0, 0, 0)" stroke-opacity="0.8167286" stroke-linecap="round" stroke-linejoin="round"/>
    <path d="M 240.55877685546875 607.1192016601562 C 237.0231170654297 603.0731811523438 248.59249877929688 632.5177001953125 334.0936279296875 602.3572998046875 C 325.4320373535156 579.4163208007812 289.9173278808594 547.052734375 290.6751403808594 536.6239013671875 C 272.7362365722656 515.9913940429688 262.24078369140625 493.9947814941406 255.28811645507812 496.5098571777344 C 260.53564453125 495.90081787109375 275.6641845703125 533.9197387695312 290.9322509765625 545.075927734375" stroke-width="6.0" fill="none" stroke="rgb(0, 0, 0)" stroke-opacity="0.785691" stroke-linecap="round" stroke-linejoin="round"/>
    <path d="M 576.9441528320312 531.8748779296875 C 591.8395385742188 532.5689697265625 601.1404418945312 542.258544921875 646.802734375 552.826171875 C 639.1290283203125 601.9269409179688 644.2903442382812 611.981201171875 620.3673095703125 601.12451171875 C 606.23095703125 595.8853759765625 629.0384521484375 571.4710083007812 629.9752807617188 558.1646118164062 C 656.1554565429688 550.308837890625 683.1707153320312 539.9462280273438 653.319091796875 556.3943481445312" stroke-width="6.0" fill="none" stroke="rgb(0, 0, 0)" stroke-opacity="0.732724" stroke-linecap="round" stroke-linejoin="round"/>
    <path d="M 511.6716613769531 300.199951171875 C 473.7720642089844 231.35498046875 466.27740478515625 234.79330444335938 345.2665100097656 249.0723114013672 C 384.66778564453125 267.7518310546875 464.6421203613281 260.5931396484375 433.68988037109375 235.48751831054688 C 366.26690673828125 271.8567199707031 397.28717041015625 257.760009765625 410.93011474609375 166.25955200195312 C 386.6908874511719 143.43963623046875 409.65240478515625 165.52349853515625 412.5647277832031 201.11285400390625" stroke-width="6.0" fill="none" stroke="rgb(0, 0, 0)" stroke-opacity="0.2023182" stroke-linecap="round" stroke-linejoin="round"/>
    <path d="M 432.39947509765625 61.930118560791016 C 424.15338134765625 64.15721130371094 460.4635314941406 57.168025970458984 475.685791015625 50.43260192871094 C 445.48675537109375 57.790462493896484 422.5096130371094 54.58281326293945 436.99871826171875 69.40824127197266 C 436.7686462402344 73.09776306152344 438.3415222167969 58.496620178222656 432.46337890625 37.2208251953125 C 448.43841552734375 95.83563995361328 425.08563232421875 86.79141998291016 372.77545166015625 116.17870330810547" stroke-width="6.0" fill="none" stroke="rgb(0, 0, 0)" stroke-opacity="0.42231393" stroke-linecap="round" stroke-linejoin="round"/>
    <path d="M 137.820556640625 66.34246826171875 C 86.89093780517578 34.74766540527344 50.44800567626953 28.86713981628418 44.64250946044922 19.815364837646484 C 36.26252365112305 22.473405838012695 47.01944351196289 23.931974411010742 65.5816879272461 66.7715835571289 C 15.076358795166016 109.34728240966797 19.63735008239746 143.79364013671875 2.04067063331604 106.51372528076172 C -7.890678882598877 115.02019500732422 -4.004051208496094 70.3622817993164 -17.82526206970215 37.432228088378906" stroke-width="6.0" fill="none" stroke="rgb(0, 0, 0)" stroke-opacity="0.5895739" stroke-linecap="round" stroke-linejoin="round"/>
    <path d="M 218.51910400390625 505.8757629394531 C 242.89425659179688 549.0374145507812 246.06373596191406 540.2594604492188 245.97018432617188 545.63623046875 C 232.1291961669922 515.1865844726562 204.57073974609375 526.072021484375 187.55343627929688 529.8051147460938 C 189.87623596191406 531.9757080078125 231.0984649658203 527.59765625 249.66748046875 532.5723876953125 C 230.4646759033203 530.2930297851562 228.00326538085938 531.677490234375 261.7347717285156 571.4532470703125" stroke-width="6.0" fill="none" stroke="rgb(0, 0, 0)" stroke-opacity="0.97769696" stroke-linecap="round" stroke-linejoin="round"/>
    <path d="M 634.1426391601562 587.8574829101562 C 607.4304809570312 583.1827392578125 603.3154296875 585.5499267578125 644.45458984375 552.6483154296875 C 652.5023193359375 567.8233032226562 611.1952514648438 552.8443603515625 572.2590942382812 524.14599609375 C 571.9817504882812 530.7206420898438 599.8778076171875 545.4981079101562 589.0249633789062 536.2759399414062 C 590.5955810546875 545.7788696289062 578.7894287109375 528.9122314453125 517.2677001953125 499.8567810058594" stroke-width="6.0" fill="none" stroke="rgb(0, 0, 0)" stroke-opacity="0.5113047" stroke-linecap="round" stroke-linejoin="round"/>
    <path d="M 124.290283203125 470.88092041015625 C 169.33157348632812 452.8497314453125 163.82989501953125 451.84124755859375 204.6281280517578 457.4136962890625 C 189.67205810546875 450.0208435058594 212.65090942382812 465.06903076171875 190.23699951171875 459.830810546875 C 206.71682739257812 452.4734191894531 155.13540649414062 462.30804443359375 223.55125427246094 461.37237548828125 C 308.9368896484375 535.9833984375 252.95260620117188 569.3974609375 210.86981201171875 496.8088684082031" stroke-width="6.0" fill="none" stroke="rgb(0, 0, 0)" stroke-opacity="0.72076553" stroke-linecap="round" stroke-linejoin="round"/>
    <path d="M 103.04926300048828 106.89384460449219 C 84.97666931152344 106.45419311523438 100.140625 108.16515350341797 67.99083709716797 83.01419067382812 C 120.67671966552734 74.19645690917969 139.33450317382812 91.70081329345703 77.71851348876953 74.06165313720703 C 57.03017807006836 63.426815032958984 90.19335174560547 87.81021118164062 49.170162200927734 48.705955505371094 C 43.497371673583984 17.461637496948242 47.47679901123047 21.200857162475586 9.671415328979492 48.73245620727539" stroke-width="6.0" fill="none" stroke="rgb(0, 0, 0)" stroke-opacity="0.24455145" stroke-linecap="round" stroke-linejoin="round"/>
    <path d="M 346.3092956542969 270.95050048828125 C 190.29051208496094 240.38323974609375 214.7984619140625 265.69720458984375 287.8258361816406 255.5622100830078 C 351.7562255859375 286.17626953125 296.7129821777344 319.0940246582031 255.44561767578125 286.6273193359375 C 286.4480285644531 250.8545684814453 332.85882568359375 197.45062255859375 330.82122802734375 298.7242126464844 C 470.2546081542969 248.4371795654297 472.2216796875 246.12359619140625 334.36358642578125 212.75856018066406" stroke-width="6.0" fill="none" stroke="rgb(0, 0, 0)" stroke-opacity="0.5530914" stroke-linecap="round" stroke-linejoin="round"/>
    <path d="M 28.17782211303711 178.25682067871094 C 56.6314697265625 165.91256713867188 39.70457458496094 150.24893188476562 31.5488224029541 138.10145568847656 C 105.42601013183594 125.92692565917969 91.04485321044922 124.80223083496094 67.5519027709961 68.137939453125 C 54.08572769165039 87.62364959716797 59.48271179199219 82.08599853515625 26.54988670349121 97.67135620117188 C 17.601062774658203 129.7487030029297 54.32743453979492 139.16604614257812 24.670400619506836 118.76573181152344" stroke-width="6.0" fill="none" stroke="rgb(0, 0, 0)" stroke-opacity="0.2381676" stroke-linecap="round" stroke-linejoin="round"/>
    <path d="M 270.2377014160156 50.487186431884766 C 285.4981384277344 39.66440200805664 304.8879089355469 26.04049301147461 321.4239196777344 26.67925453186035 C 302.2901916503906 38.82316589355469 347.09368896484375 21.2353458404541 342.8802185058594 23.827791213989258 C 384.9744567871094 11.763314247131348 395.07086181640625 7.38361930847168 430.29547119140625 7.671723365783691 C 385.3713684082031 -43.72890853881836 403.85858154296875 -32.26218795776367 414.2868347167969 -39.50054931640625" stroke-width="6.0" fill="none" stroke="rgb(0, 0, 0)" stroke-opacity="0.27195588" stroke-linecap="round" stroke-linejoin="round"/>
    <path d="M 69.50979614257812 67.71744537353516 C 76.83808898925781 77.99333190917969 68.24222564697266 75.7337875366211 23.607892990112305 102.89683532714844 C 32.47488021850586 195.25958251953125 -5.10306453704834 186.64300537109375 -40.9818115234375 142.78463745117188 C -18.05232048034668 105.59088897705078 10.529729843139648 139.6138458251953 -19.314428329467773 161.49066162109375 C -29.46172523498535 113.13890075683594 -44.568599700927734 104.48346710205078 -43.761016845703125 115.11446380615234" stroke-width="6.0" fill="none" stroke="rgb(0, 0, 0)" stroke-opacity="0.2601668" stroke-linecap="round" stroke-linejoin="round"/>
    <path d="M 617.7286376953125 13.570462226867676 C 600.06103515625 10.075373649597168 605.6138916015625 5.598421573638916 636.7985229492188 32.98110580444336 C 613.245849609375 -5.151210308074951 591.9607543945312 -1.6587578058242798 555.62646484375 24.672945022583008 C 557.8977661132812 10.19128704071045 563.6774291992188 42.742164611816406 556.3825073242188 25.596153259277344 C 551.4544677734375 28.256370544433594 566.5888671875 87.11500549316406 563.0133056640625 69.83269500732422" stroke-width="6.0" fill="none" stroke="rgb(0, 0, 0)" stroke-opacity="0.8293562" stroke-linecap="round" stroke-linejoin="round"/>
    <path d="M 181.85275268554688 -6.2368974685668945 C 182.925048828125 -6.0098066329956055 181.83567810058594 0.685644268989563 181.4261016845703 -43.814292907714844 C 210.60800170898438 -20.600248336791992 195.8477020263672 -35.463218688964844 177.83633422851562 -16.963176727294922 C 147.4685821533203 -11.479273796081543 132.21568298339844 -23.772964477539062 126.9352035522461 -20.731645584106445 C 100.59394836425781 -33.94508361816406 78.82810974121094 -51.97761535644531 101.90725708007812 -50.428775787353516" stroke-width="6.0" fill="none" stroke="rgb(0, 0, 0)" stroke-opacity="0.6307544" stroke-linecap="round" stroke-linejoin="round"/>
    <path d="M 526.8343505859375 477.00482177734375 C 557.6497192382812 495.1565246582031 543.066650390625 507.3984680175781 531.8895263671875 512.4580688476562 C 523.2658081054688 500.00128173828125 517.2720336914062 498.2988586425781 497.5162353515625 491.2884826660156 C 545.2220458984375 508.3794860839844 561.09033203125 519.2433471679688 512.763671875 497.4829406738281 C 530.186767578125 500.6675109863281 539.87255859375 522.4161987304688 566.1914672851562 519.976806640625" stroke-width="6.0" fill="none" stroke="rgb(0, 0, 0)" stroke-opacity="0.055908658" stroke-linecap="round" stroke-linejoin="round"/>
    <path d="M 606.6064453125 136.50880432128906 C 624.479736328125 145.29808044433594 610.3049926757812 171.67633056640625 628.923583984375 153.8917236328125 C 636.17822265625 168.78236389160156 648.035888671875 193.62115478515625 619.728271484375 205.65481567382812 C 646.5817260742188 209.47120666503906 650.3682861328125 190.7652130126953 679.648681640625 213.6627960205078 C 679.1822509765625 202.2059783935547 678.6084594726562 177.62142944335938 662.5658569335938 160.74996948242188" stroke-width="6.0" fill="none" stroke="rgb(0, 0, 0)" stroke-opacity="0.5264485" stroke-linecap="round" stroke-linejoin="round"/>
    <path d="M -59.545536041259766 545.3313598632812 C -85.23556518554688 501.3584289550781 -45.95560073852539 516.7863159179688 14.32198715209961 536.5852661132812 C 16.615201950073242 549.3599853515625 17.96424102783203 551.4430541992188 53.772369384765625 549.2114868164062 C 27.319625854492188 552.8373413085938 47.3404426574707 552.667236328125 53.12874221801758 549.3650512695312 C 31.386920928955078 559.8960571289062 13.53693962097168 549.2739868164062 32.44670867919922 552.6142578125" stroke-width="6.0" fill="none" stroke="rgb(0, 0, 0)" stroke-opacity="0.17420267" stroke-linecap="round" stroke-linejoin="round"/>
    <path d="M 608.4191284179688 392.65716552734375 C 676.319580078125 406.5782775878906 649.958740234375 413.7427673339844 608.0055541992188 401.52197265625 C 593.168701171875 403.9794921875 634.3981323242188 414.0799255371094 681.2144775390625 406.5821533203125 C 652.5104370117188 453.07745361328125 624.453369140625 459.2207946777344 649.7156982421875 487.272705078125 C 632.9694213867188 491.2057189941406 659.170654296875 469.644287109375 673.8912963867188 453.9240417480469" stroke-width="6.0" fill="none" stroke="rgb(0, 0, 0)" stroke-opacity="0.9823797" stroke-linecap="round" stroke-linejoin="round"/>
    <path d="M 108.78484344482422 527.1966552734375 C 82.1054458618164 543.1945190429688 78.52825164794922 548.629150390625 116.71538543701172 519.6295166015625 C 121.4389419555664 465.4219970703125 102.5411605834961 465.9210510253906 35.588661193847656 527.8966064453125 C -33.77843475341797 552.6197509765625 6.660711765289307 538.1973876953125 42.176116943359375 525.73681640625 C 26.2315731048584 532.4635620117188 47.768672943115234 515.7996826171875 73.1982421875 490.501953125" stroke-width="6.0" fill="none" stroke="rgb(0, 0, 0)" stroke-opacity="0.07370939" stroke-linecap="round" stroke-linejoin="round"/>
    <path d="M 513.7913208007812 191.12710571289062 C 486.5150451660156 196.31224060058594 473.7437438964844 198.96630859375 453.9126892089844 204.82740783691406 C 450.43792724609375 214.78099060058594 387.0417175292969 212.47994995117188 443.9384460449219 244.13587951660156 C 429.41473388671875 254.7245635986328 407.6097106933594 272.34234619140625 366.9898376464844 273.7624816894531 C 273.8625183105469 257.3642272949219 293.0847473144531 262.83905029296875 409.7680969238281 273.7392883300781" stroke-width="6.0" fill="none" stroke="rgb(0, 0, 0)" stroke-opacity="0.28152308" stroke-linecap="round" stroke-linejoin="round"/>
    <path d="M 164.10569763183594 27.459117889404297 C 169.61399841308594 39.12308883666992 160.8985595703125 26.959247589111328 167.57884216308594 32.63459014892578 C 160.7375030517578 17.242578506469727 125.25784301757812 -12.065356254577637 112.736328125 -58.735774993896484 C 55.850242614746094 -4.054248809814453 62.6809196472168 0.7093266844749451 27.61056137084961 -16.640392303466797 C -2.379204511642456 -14.087972640991211 -31.631113052368164 1.104215383529663 -43.76596450805664 -0.7716475129127502" stroke-width="6.0" fill="none" stroke="rgb(0, 0, 0)" stroke-opacity="0.26329598" stroke-linecap="round" stroke-linejoin="round"/>
    <path d="M 220.72329711914062 143.019287109375 C 294.2128601074219 127.72673797607422 288.2226867675781 125.63280487060547 337.591064453125 111.6956787109375 C 321.5511474609375 82.04838562011719 333.14862060546875 77.28750610351562 339.8769836425781 139.6067657470703 C 311.3218078613281 190.87648010253906 310.16339111328125 190.6529083251953 294.1903991699219 211.6969757080078 C 228.6070556640625 245.52459716796875 206.8399658203125 227.9447479248047 332.5892639160156 212.04978942871094" stroke-width="6.0" fill="none" stroke="rgb(0, 0, 0)" stroke-opacity="0.6775349" stroke-linecap="round" stroke-linejoin="round"/>
    <path d="M 397.57476806640625 51.840206146240234 C 397.4700927734375 57.754905700683594 402.40252685546875 94.98326873779297 431.2317199707031 61.58614730834961 C 435.7419738769531 70.9247817993164 444.1712646484375 100.57402038574219 454.05889892578125 143.7574920654297 C 445.65386962890625 136.17027282714844 456.7943115234375 144.99319458007812 459.5962219238281 187.31146240234375 C 450.38580322265625 144.24412536621094 447.7334899902344 149.6011199951172 454.343017578125 163.42404174804688" stroke-width="6.0" fill="none" stroke="rgb(0, 0, 0)" stroke-opacity="0.522562" stroke-linecap="round" stroke-linejoin="round"/>
    <path d="M 221.73851013183594 254.8667755126953 C 198.86248779296875 232.79791259765625 247.13633728027344 257.74652099609375 274.1873779296875 300.0830383300781 C 232.38368225097656 265.1942443847656 225.49026489257812 243.51661682128906 245.080322265625 274.619384765625 C 283.3027038574219 329.0643005371094 240.66612243652344 302.2957458496094 174.69308471679688 256.569091796875 C 209.7458953857422 217.86231994628906 306.4388732910156 236.30526733398438 325.27734375 218.93902587890625" stroke-width="6.0" fill="none" stroke="rgb(0, 0, 0)" stroke-opacity="0.92083496" stroke-linecap="round" stroke-linejoin="round"/>
    <path d="M 463.5713195800781 55.09527587890625 C 566.5064697265625 0.6676731109619141 562.6806030273438 -2.245382785797119 591.217529296875 -12.608255386352539 C 587.4103393554688 -54.470314025878906 609.8724365234375 -51.8806037902832 626.08154296875 -63.515380859375 C 620.9967041015625 -54.73851776123047 602.2728271484375 -72.05508422851562 621.7109985351562 -57.5984001159668 C 637.2805786132812 -35.56706237792969 656.5416259765625 -34.65087890625 636.0800170898438 -45.983489990234375" stroke-width="6.0" fill="none" stroke="rgb(0, 0, 0)" stroke-opacity="0.5067953" stroke-linecap="round" stroke-linejoin="round"/>
    <path d="M 30.080123901367188 525.4016723632812 C 98.53035736083984 480.292724609375 80.80113220214844 490.8172607421875 136.1017303466797 469.6717834472656 C 169.7877960205078 462.5943298339844 113.9648208618164 471.5186767578125 158.94317626953125 454.17633056640625 C 213.37998962402344 467.84649658203125 173.9340057373047 457.401123046875 154.22520446777344 408.0137939453125 C 197.75343322753906 420.4646911621094 165.00152587890625 400.2889099121094 100.09036254882812 419.1788024902344" stroke-width="6.0" fill="none" stroke="rgb(0, 0, 0)" stroke-opacity="0.6888505" stroke-linecap="round" stroke-linejoin="round"/>
    <path d="M 212.06350708007812 197.0061798095703 C 71.45945739746094 245.4510955810547 103.59393310546875 262.52166748046875 136.3379364013672 285.44122314453125 C 145.0689239501953 282.9834899902344 138.16920471191406 327.2139587402344 162.05258178710938 287.93951416015625 C 209.41348266601562 281.8981628417969 213.56736755371094 214.16207885742188 194.12132263183594 276.94635009765625 C 177.9534454345703 293.7746887207031 179.15420532226562 291.7025451660156 233.6875457763672 289.07452392578125" stroke-width="6.0" fill="none" stroke="rgb(0, 0, 0)" stroke-opacity="0.25199872" stroke-linecap="round" stroke-linejoin="round"/>
    <path d="M 234.74868774414062 381.0679016113281 C 294.0260925292969 373.7543640136719 280.4515686035156 423.6182861328125 275.88580322265625 422.9175109863281 C 257.9076843261719 421.4327697753906 266.3459777832031 460.6636657714844 244.61805725097656 355.2881164550781 C 286.8468017578125 370.5699157714844 249.52272033691406 433.61932373046875 264.89874267578125 415.4317626953125 C 295.3955383300781 366.46527099609375 314.58135986328125 409.1791076660156 383.6448669433594 431.8179931640625" stroke-width="6.0" fill="none" stroke="rgb(0, 0, 0)" stroke-opacity="0.6000333" stroke-linecap="round" stroke-linejoin="round"/>
    <path d="M 326.1143798828125 400.4174499511719 C 348.1474304199219 372.9727783203125 465.578369140625 395.88134765625 474.85791015625 376.15545654296875 C 314.6315612792969 398.7511291503906 273.6874694824219 371.6046142578125 448.353271484375 381.7583312988281 C 517.46240234375 355.01507568359375 518.5029296875 376.496337890625 468.5393371582031 394.9454040527344 C 514.9430541992188 369.70562744140625 501.7961730957031 384.3455810546875 372.58807373046875 435.9385070800781" stroke-width="6.0" fill="none" stroke="rgb(0, 0, 0)" stroke-opacity="0.8083439" stroke-linecap="round" stroke-linejoin="round"/>
    <path d="M 493.6268005371094 77.46666717529297 C 507.385009765625 127.6272964477539 477.5753479003906 119.76883697509766 474.8255615234375 54.57829284667969 C 459.30999755859375 48.235015869140625 452.51470947265625 55.18599319458008 481.2322998046875 59.35335159301758 C 494.6155090332031 51.960601806640625 533.8132934570312 31.07220458984375 587.4754638671875 11.394817352294922 C 601.8216552734375 -7.657017230987549 587.1839599609375 -53.482200622558594 620.4730834960938 -73.55154418945312" stroke-width="6.0" fill="none" stroke="rgb(0, 0, 0)" stroke-opacity="0.2002966" stroke-linecap="round" stroke-linejoin="round"/>
    <path d="M 173.3173828125 315.03033447265625 C 238.30203247070312 396.1855163574219 321.49725341796875 376.01983642578125 275.3812561035156 372.0981140136719 C 239.18775939941406 338.8049011230469 241.48007202148438 365.0671691894531 264.1010437011719 378.7603454589844 C 220.26119995117188 356.9255065917969 241.86688232421875 314.3290710449219 220.6889190673828 335.9853820800781 C 239.71206665039062 404.1983947753906 287.2847900390625 352.6588134765625 229.9219207763672 318.1005859375" stroke-width="6.0" fill="none" stroke="rgb(0, 0, 0)" stroke-opacity="0.3731014" stroke-linecap="round" stroke-linejoin="round"/>
    <path d="M -9.241943359375 259.3045349121094 C 60.84566879272461 183.9574737548828 79.62648010253906 216.70510864257812 61.17815017700195 188.91439819335938 C 37.59636688232422 156.6249542236328 67.92884063720703 174.17332458496094 -21.145044326782227 169.8330841064453 C 3.5003743171691895 178.77378845214844 -2.843860626220703 181.1358642578125 25.393583297729492 225.52334594726562 C 94.23898315429688 189.95399475097656 134.14501953125 165.70858764648438 -0.4902479946613312 230.53553771972656" stroke-width="6.0" fill="none" stroke="rgb(0, 0, 0)" stroke-opacity="0.9182054" stroke-linecap="round" stroke-linejoin="round"/>
    <path d="M 240.76318359375 129.14349365234375 C 243.9048309326172 79.55220031738281 308.14910888671875 71.60822296142578 301.48492431640625 103.61756134033203 C 339.5142517089844 100.24285125732422 343.3463439941406 85.97404479980469 280.6998596191406 48.13920593261719 C 273.5094909667969 41.849239349365234 324.082275390625 27.248825073242188 372.8614196777344 14.072999000549316 C 400.90606689453125 10.687442779541016 402.1055603027344 12.448328971862793 389.68377685546875 14.398377418518066" stroke-width="6.0" fill="none" stroke="rgb(0, 0, 0)" stroke-opacity="0.30111647" stroke-linecap="round" stroke-linejoin="round"/>
    <path d="M 461.8126220703125 407.2384948730469 C 365.4465026855469 452.4829406738281 367.85662841796875 453.8992614746094 281.8129577636719 421.3121643066406 C 263.6039123535156 437.9057922363281 296.450439453125 401.0178527832031 259.0763244628906 350.9626770019531 C 223.2760772705078 282.06500244140625 240.41722106933594 289.7698669433594 339.3533935546875 390.36492919921875 C 270.7687683105469 487.13189697265625 277.0488586425781 382.81170654296875 237.00564575195312 329.1484680175781" stroke-width="6.0" fill="none" stroke="rgb(0, 0, 0)" stroke-opacity="0.83523214" stroke-linecap="round" stroke-linejoin="round"/>
    <path d="M 367.5115966796875 109.02882385253906 C 340.83294677734375 104.86598205566406 389.9357604980469 93.006103515625 440.5428771972656 59.05723571777344 C 467.02545166015625 44.995338439941406 434.6007080078125 65.4376449584961 445.9640808105469 -21.438838958740234 C 391.0365905761719 11.670219421386719 364.9111022949219 8.758222579956055 321.54315185546875 24.445697784423828 C 302.8487548828125 31.885934829711914 313.8681640625 24.334592819213867 295.76470947265625 39.72822952270508" stroke-width="6.0" fill="none" stroke="rgb(0, 0, 0)" stroke-opacity="0.62180704" stroke-linecap="round" stroke-linejoin="round"/>
    <path d="M 517.061279296875 43.52339553833008 C 565.6133422851562 14.210456848144531 561.2185668945312 31.797712326049805 559.2830200195312 27.653430938720703 C 565.5230712890625 56.07368850708008 579.9374389648438 88.57145690917969 566.1924438476562 74.62238311767578 C 489.0605773925781 110.76979064941406 478.0842590332031 115.07617950439453 486.0220947265625 109.42943572998047 C 485.1234436035156 108.4121322631836 481.23187255859375 103.00585174560547 483.23846435546875 105.3367691040039" stroke-width="6.0" fill="none" stroke="rgb(0, 0, 0)" stroke-opacity="0.8385365" stroke-linecap="round" stroke-linejoin="round"/>
    <path d="M 558.5819702148438 80.55934143066406 C 628.5308227539062 52.93492126464844 637.0919799804688 40.5535888671875 630.2401123046875 8.968334197998047 C 630.3978881835938 -2.2024712562561035 647.8087768554688 2.393554210662842 643.910400390625 38.44955825805664 C 632.0816650390625 51.02851104736328 633.4678955078125 63.06332015991211 615.00048828125 66.1813735961914 C 599.6281127929688 57.13536834716797 609.9190673828125 50.49350357055664 629.9575805664062 54.386558532714844" stroke-width="6.0" fill="none" stroke="rgb(0, 0, 0)" stroke-opacity="0.9877916" stroke-linecap="round" stroke-linejoin="round"/>
    <path d="M 46.73185348510742 400.91888427734375 C 29.830141067504883 472.2700500488281 50.865386962890625 477.7223815917969 2.034696102142334 440.7091369628906 C 2.46518611907959 532.628662109375 0.4769648611545563 504.7159423828125 4.435757637023926 461.27862548828125 C -41.748931884765625 431.54425048828125 -23.95889663696289 428.7855224609375 -2.5955023765563965 425.6568603515625 C -25.473472595214844 425.49957275390625 -16.27109146118164 401.658203125 -21.530780792236328 405.0860290527344" stroke-width="6.0" fill="none" stroke="rgb(0, 0, 0)" stroke-opacity="0.00016971548" stroke-linecap="round" stroke-linejoin="round"/>
    <path d="M 49.478614807128906 362.6294860839844 C 66.09652709960938 349.1065979003906 73.5322494506836 340.8661804199219 64.80506896972656 318.7735290527344 C 31.867549896240234 305.26861572265625 7.809966087341309 307.92926025390625 20.704679489135742 305.56317138671875 C 5.459794998168945 305.54046630859375 19.882158279418945 299.54278564453125 48.90508270263672 319.8219299316406 C 46.42237854003906 292.1392822265625 95.16606903076172 293.34259033203125 115.31819915771484 340.29034423828125" stroke-width="6.0" fill="none" stroke="rgb(0, 0, 0)" stroke-opacity="0.04577811" stroke-linecap="round" stroke-linejoin="round"/>
    <path d="M 151.43490600585938 123.83317565917969 C 104.65736389160156 122.36273193359375 82.6794662475586 109.8178482055664 68.10166931152344 132.95364379882812 C 80.2041244506836 129.82717895507812 74.39057159423828 121.81094360351562 41.519981384277344 146.0795135498047 C 57.95319747924805 186.43563842773438 64.00947570800781 195.21827697753906 59.53638458251953 189.8381805419922 C 126.24922180175781 160.0614776611328 113.97952270507812 168.17552185058594 106.77890014648438 174.7885284423828" stroke-width="6.0" fill="none" stroke="rgb(0, 0, 0)" stroke-opacity="0.8388161" stroke-linecap="round" stroke-linejoin="round"/>
    <path d="M 260.65240478515625 301.0130615234375 C 414.8986511230469 296.8983459472656 364.9433288574219 253.75173950195312 457.4580993652344 309.9448547363281 C 567.02099609375 381.8008117675781 489.7312316894531 358.277587890625 295.6624755859375 344.7209777832031 C 313.7364807128906 352.5403747558594 337.847412109375 378.29833984375 331.7286071777344 352.57904052734375 C 278.0851135253906 337.8363037109375 311.8085632324219 375.7835388183594 392.60516357421875 387.5433349609375" stroke-width="6.0" fill="none" stroke="rgb(0, 0, 0)" stroke-opacity="0.71187437" stroke-linecap="round" stroke-linejoin="round"/>
    <path d="M 524.0524291992188 344.476806640625 C 513.17822265625 375.8172302246094 495.78570556640625 365.4387512207031 500.7218933105469 399.0517883300781 C 499.7745056152344 439.2493591308594 547.5904541015625 432.3529968261719 522.889892578125 446.0748596191406 C 539.3787231445312 431.681640625 522.5487670898438 443.080810546875 532.6463012695312 428.8174133300781 C 571.5703125 405.3758544921875 583.5889892578125 443.98846435546875 583.117919921875 444.9894104003906" stroke-width="6.0" fill="none" stroke="rgb(0, 0, 0)" stroke-opacity="0.14532672" stroke-linecap="round" stroke-linejoin="round"/>
    <path d="M 408.0153503417969 99.31257629394531 C 430.3155517578125 83.75347137451172 439.3805847167969 81.07866668701172 425.5980224609375 85.67273712158203 C 400.65301513671875 100.15760040283203 363.52569580078125 115.3049087524414 373.2665710449219 109.27277374267578 C 394.50360107421875 178.9833221435547 386.1484069824219 219.7318878173828 408.2125244140625 235.84661865234375 C 455.8539123535156 193.9121551513672 442.2287902832031 237.6887664794922 412.19427490234375 232.68946838378906" stroke-width="6.0" fill="none" stroke="rgb(0, 0, 0)" stroke-opacity="0.97582275" stroke-linecap="round" stroke-linejoin="round"/>
    <path d="M 205.489990234375 368.76220703125 C 103.96243286132812 302.98388671875 112.02835083007812 321.0189514160156 220.11770629882812 381.9293212890625 C 244.55616760253906 321.8120422363281 199.63877868652344 330.3727111816406 229.6149444580078 384.73095703125 C 278.36126708984375 470.76025390625 262.5888366699219 393.0513916015625 257.1541442871094 375.2590026855469 C 240.54640197753906 382.6411437988281 195.2504425048828 314.64532470703125 247.03359985351562 308.260009765625" stroke-width="6.0" fill="none" stroke="rgb(0, 0, 0)" stroke-opacity="0.58398604" stroke-linecap="round" stroke-linejoin="round"/>
    <path d="M 133.62313842773438 173.22128295898438 C 166.32984924316406 161.45657348632812 172.24485778808594 153.38995361328125 134.49188232421875 167.5105743408203 C 131.3350372314453 178.7421875 141.74082946777344 165.17506408691406 90.58393859863281 189.8323211669922 C 129.08163452148438 188.4583740234375 97.08673095703125 144.75503540039062 104.23177337646484 160.31065368652344 C 99.65800476074219 151.35647583007812 87.02320861816406 98.45443725585938 78.41152954101562 125.39441680908203" stroke-width="6.0" fill="none" stroke="rgb(0, 0, 0)" stroke-opacity="0.21844529" stroke-linecap="round" stroke-linejoin="round"/>
    <path d="M 454.61187744140625 326.24713134765625 C 513.7400512695312 362.28179931640625 503.99664306640625 327.1394958496094 516.431884765625 290.3316650390625 C 599.0215454101562 293.90606689453125 584.4365234375 282.08978271484375 585.4110107421875 327.9206848144531 C 563.2943725585938 335.887451171875 510.3299255371094 337.0023193359375 529.229736328125 294.6341552734375 C 663.837890625 295.8853454589844 714.38232421875 321.35943603515625 673.7402954101562 353.59442138671875" stroke-width="6.0" fill="none" stroke="rgb(0, 0, 0)" stroke-opacity="0.1925124" stroke-linecap="round" stroke-linejoin="round"/>
    <path d="M 327.9520568847656 602.1954956054688 C 316.1219177246094 579.660888671875 276.56231689453125 537.75732421875 291.4450378417969 537.4420166015625 C 336.6898498535156 600.037353515625 340.0706787109375 589.3760986328125 330.6072998046875 597.321533203125 C 342.6842346191406 682.7816162109375 353.33197021484375 698.4647827148438 382.1696472167969 577.7337036132812 C 379.43951416015625 565.1319580078125 347.354736328125 541.3711547851562 349.79095458984375 544.4215698242188" stroke-width="6.0" fill="none" stroke="rgb(0, 0, 0)" stroke-opacity="0.5749623" stroke-linecap="round" stroke-linejoin="round"/>
    <path d="M 92.64056396484375 168.99684143066406 C 131.20921325683594 169.03671264648438 134.0593719482422 163.06390380859375 150.0463409423828 163.80641174316406 C 109.54844665527344 172.4814910888672 163.23155212402344 163.59100341796875 240.1973419189453 139.3492889404297 C 213.20542907714844 33.4785270690918 251.6910400390625 2.7709758281707764 177.84495544433594 48.624916076660156 C 177.88377380371094 137.0554656982422 164.9880828857422 98.12010192871094 215.15602111816406 86.91018676757812" stroke-width="6.0" fill="none" stroke="rgb(0, 0, 0)" stroke-opacity="0.39099255" stroke-linecap="round" stroke-linejoin="round"/>
    <path d="M 460.4535827636719 241.6516876220703 C 486.30267333984375 261.7902526855469 542.8707885742188 290.112060546875 538.8516235351562 329.54058837890625 C 496.1756591796875 385.5814514160156 464.40814208984375 413.39013671875 469.1028747558594 370.80072021484375 C 516.9948120117188 363.04425048828125 526.0888061523438 300.962890625 521.619140625 325.9766845703125 C 537.7244262695312 278.06231689453125 548.3128051757812 328.84844970703125 487.70416259765625 263.74346923828125" stroke-width="6.0" fill="none" stroke="rgb(0, 0, 0)" stroke-opacity="0.8347484" stroke-linecap="round" stroke-linejoin="round"/>
    <path d="M 147.651611328125 99.64962768554688 C 167.66297912597656 162.5313720703125 151.26602172851562 156.89671325683594 168.98777770996094 133.59259033203125 C 189.03819274902344 183.99659729003906 174.83412170410156 169.517578125 170.08912658691406 126.92694854736328 C 152.31277465820312 97.730224609375 178.9633026123047 110.36235809326172 183.27369689941406 93.64633178710938 C 174.96009826660156 93.92208099365234 180.23309326171875 100.69343566894531 183.21221923828125 78.8161849975586" stroke-width="6.0" fill="none" stroke="rgb(0, 0, 0)" stroke-opacity="0.36449343" stroke-linecap="round" stroke-linejoin="round"/>
    <path d="M 242.72610473632812 230.07803344726562 C 117.0433349609375 273.72039794921875 113.05304718017578 252.76365661621094 137.45602416992188 304.0697021484375 C 146.1873016357422 367.2658996582031 200.4615020751953 335.2783203125 152.33531188964844 261.8475341796875 C 108.6915512084961 246.5015411376953 132.45050048828125 339.2207946777344 154.3305206298828 354.99041748046875 C 145.52493286132812 275.0118713378906 131.18423461914062 274.61102294921875 127.32418060302734 277.3818054199219" stroke-width="6.0" fill="none" stroke="rgb(0, 0, 0)" stroke-opacity="0.5071783" stroke-linecap="round" stroke-linejoin="round"/>
    <path d="M 22.67121124267578 372.8905334472656 C 34.460289001464844 348.607421875 86.16526794433594 332.07745361328125 105.23884582519531 409.8255615234375 C 64.55098724365234 439.1813659667969 52.883270263671875 429.38922119140625 46.36198043823242 397.92431640625 C 22.68411636352539 371.3172607421875 -25.84360122680664 349.1369323730469 -4.899157524108887 323.0790100097656 C 70.53085327148438 341.39312744140625 87.10782623291016 364.487548828125 109.90889739990234 429.4542541503906" stroke-width="6.0" fill="none" stroke="rgb(0, 0, 0)" stroke-opacity="0.17914519" stroke-linecap="round" stroke-linejoin="round"/>
    <path d="M 608.436279296875 353.3732604980469 C 669.2240600585938 366.4333190917969 660.3120727539062 406.9449462890625 639.8714599609375 350.0237121582031 C 570.3063354492188 325.46661376953125 520.79150390625 341.6699523925781 530.3519897460938 296.4103088378906 C 526.8928833007812 326.0187072753906 496.6661376953125 369.1654357910156 501.54547119140625 380.12353515625 C 436.0345764160156 409.2319030761719 488.2423400878906 399.6482849121094 528.7069091796875 346.6802978515625" stroke-width="6.0" fill="none" stroke="rgb(0, 0, 0)" stroke-opacity="0.6536753" stroke-linecap="round" stroke-linejoin="round"/>
    <path d="M 217.4987335205078 379.9301452636719 C 273.54168701171875 355.5281677246094 230.45492553710938 359.9557189941406 243.86550903320312 398.59381103515625 C 277.5777587890625 446.2524719238281 279.7817077636719 440.5690612792969 259.39105224609375 395.36279296875 C 243.82899475097656 315.5461730957031 213.05885314941406 287.03192138671875 221.8712158203125 378.49395751953125 C 232.48573303222656 312.76763916015625 217.867431640625 320.29931640625 249.81491088867188 341.93585205078125" stroke-width="6.0" fill="none" stroke="rgb(0, 0, 0)" stroke-opacity="0.47881463" stroke-linecap="round" stroke-linejoin="round"/>
    <path d="M 138.55093383789062 72.64936828613281 C 133.1912384033203 100.54036712646484 173.3673553466797 91.49810791015625 108.5490951538086 77.49647521972656 C 60.7361946105957 65.50218200683594 62.00690841674805 65.31554412841797 19.966341018676758 105.758056640625 C 1.4896475076675415 56.89765930175781 -1.9779008626937866 48.14409255981445 -8.41638469696045 76.04039001464844 C -64.61544036865234 127.14884185791016 -1.3233765363693237 138.97442626953125 47.845611572265625 144.16090393066406" stroke-width="6.0" fill="none" stroke="rgb(0, 0, 0)" stroke-opacity="0.6008387" stroke-linecap="round" stroke-linejoin="round"/>
  </g>
</svg>
