<?xml version="1.0" ?>
<svg xmlns="http://www.w3.org/2000/svg" version="1.1" width="600" height="600">
  <defs/>
  <g>
    <path d="M 498.6020812988281 -6.044961452484131 C 552.5482177734375 -1.9059034585952759 543.2593383789062 -13.587347030639648 533.82763671875 19.79189682006836 C 575.9395751953125 49.99276351928711 544.237548828125 20.643903732299805 559.089599609375 47.06000900268555 C 561.2373657226562 44.74777603149414 548.240234375 63.065101623535156 556.6095581054688 43.0300407409668 C 556.71923828125 34.90576171875 554.53759765625 50.4023551940918 564.3528442382812 54.13640213012695" stroke-width="6.0" fill="none" stroke="rgb(0, 0, 0)" stroke-opacity="0.9058167" stroke-linecap="round" stroke-linejoin="round"/>
    <path d="M 86.56053161621094 118.61603546142578 C -14.507604598999023 99.99429321289062 -19.60936737060547 90.51810455322266 13.86921215057373 105.88711547851562 C 8.70604419708252 43.12333297729492 -5.271464824676514 43.4140625 46.51412582397461 60.82290267944336 C 83.6158676147461 67.08032989501953 85.60536193847656 87.80330657958984 82.79074096679688 45.60639953613281 C 78.70895385742188 72.90320587158203 83.39832305908203 87.74900817871094 84.31881713867188 117.13680267333984" stroke-width="6.0" fill="none" stroke="rgb(0, 0, 0)" stroke-opacity="0.40719503" stroke-linecap="round" stroke-linejoin="round"/>
    <path d="M 182.3160858154297 529.4771728515625 C 217.28759765625 576.6321411132812 211.15847778320312 563.6348876953125 190.32127380371094 569.816650390625 C 180.6859130859375 588.1869506835938 211.09603881835938 617.1396484375 186.66725158691406 663.6430053710938 C 204.88221740722656 600.6613159179688 199.6127471923828 597.6737670898438 188.68968200683594 639.919677734375 C 168.47731018066406 622.6385498046875 134.36328125 595.5587768554688 152.9521484375 618.1234130859375" stroke-width="6.0" fill="none" stroke="rgb(0, 0, 0)" stroke-opacity="0.61746067" stroke-linecap="round" stroke-linejoin="round"/>
    <path d="M 72.63866424560547 314.5946960449219 C 148.8776397705078 404.54400634765625 157.47616577148438 444.17950439453125 122.87789916992188 347.3681335449219 C 147.06752014160156 316.5220031738281 103.23493194580078 314.6102600097656 73.03803253173828 337.268798828125 C 113.34461975097656 399.83880615234375 85.55350494384766 371.9154052734375 55.62454605102539 357.8738708496094 C 96.08798217773438 393.2329406738281 59.27769088745117 422.037841796875 35.25353240966797 356.4771728515625" stroke-width="6.0" fill="none" stroke="rgb(0, 0, 0)" stroke-opacity="0.2880635" stroke-linecap="round" stroke-linejoin="round"/>
    <path d="M 460.36126708984375 484.37213134765625 C 379.026611328125 507.3184814453125 320.78656005859375 506.5198669433594 277.31402587890625 541.8119506835938 C 356.94281005859375 522.3453369140625 360.8500671386719 497.4358215332031 373.0771789550781 505.0146179199219 C 298.56982421875 509.1141662597656 288.13818359375 523.1998901367188 275.90032958984375 540.8360595703125 C 240.71189880371094 564.2750854492188 271.64984130859375 558.64697265625 325.07342529296875 535.8231811523438" stroke-width="6.0" fill="none" stroke="rgb(0, 0, 0)" stroke-opacity="0.65484214" stroke-linecap="round" stroke-linejoin="round"/>
    <path d="M 606.8992919921875 133.57940673828125 C 622.3892822265625 109.81591033935547 601.5784912109375 92.59419250488281 608.8456420898438 103.99954986572266 C 609.4893798828125 87.80449676513672 614.5382690429688 77.38736724853516 606.3170166015625 100.00235748291016 C 605.863525390625 121.0490951538086 625.7691650390625 105.82769012451172 618.93603515625 92.11312866210938 C 606.3765258789062 109.47052001953125 622.7733154296875 127.05725860595703 624.0955810546875 134.97927856445312" stroke-width="6.0" fill="none" stroke="rgb(0, 0, 0)" stroke-opacity="0.49969494" stroke-linecap="round" stroke-linejoin="round"/>
    <path d="M 431.2092590332031 232.22512817382812 C 454.17767333984375 153.35020446777344 462.3517150878906 162.3107452392578 458.4386901855469 162.7901611328125 C 458.7801513671875 178.45596313476562 495.1512145996094 178.04281616210938 519.5051879882812 185.14974975585938 C 532.8643188476562 197.34364318847656 501.858642578125 172.3079376220703 500.2064514160156 178.12071228027344 C 511.5187072753906 198.68772888183594 500.36541748046875 158.8988494873047 461.354248046875 172.27134704589844" stroke-width="6.0" fill="none" stroke="rgb(0, 0, 0)" stroke-opacity="0.6617721" stroke-linecap="round" stroke-linejoin="round"/>
    <path d="M 154.05599975585938 352.2113342285156 C 105.58601379394531 308.1412353515625 97.80967712402344 271.0956115722656 44.36923599243164 261.3828430175781 C 37.67819595336914 271.1477355957031 48.346744537353516 247.7626953125 55.6630744934082 287.23626708984375 C 80.89276885986328 251.76055908203125 98.67668151855469 229.7801513671875 111.34620666503906 208.7872314453125 C 172.2027587890625 206.27197265625 196.65321350097656 237.30731201171875 150.4259796142578 198.61593627929688" stroke-width="6.0" fill="none" stroke="rgb(0, 0, 0)" stroke-opacity="0.943338" stroke-linecap="round" stroke-linejoin="round"/>
    <path d="M 572.98828125 275.8769226074219 C 443.6847839355469 242.80442810058594 401.1322937011719 235.0995635986328 401.7558288574219 230.68992614746094 C 409.42041015625 247.8812255859375 389.11004638671875 223.68453979492188 445.52471923828125 243.393798828125 C 438.05908203125 334.218017578125 458.9908447265625 272.4576110839844 343.43548583984375 254.50404357910156 C 264.9822998046875 202.27210998535156 289.0705261230469 206.9781036376953 429.8141174316406 243.6211395263672" stroke-width="6.0" fill="none" stroke="rgb(0, 0, 0)" stroke-opacity="0.78680617" stroke-linecap="round" stroke-linejoin="round"/>
    <path d="M 317.4193115234375 325.9147033691406 C 322.1630859375 329.6987609863281 299.61138916015625 302.459716796875 358.16357421875 369.49896240234375 C 314.73388671875 378.05780029296875 238.26560974121094 383.2480773925781 241.8878173828125 371.9176025390625 C 242.15570068359375 326.64599609375 230.44537353515625 371.4634704589844 211.8232879638672 366.1791687011719 C 229.45635986328125 371.4559631347656 266.333984375 389.0400695800781 257.2568054199219 380.89306640625" stroke-width="6.0" fill="none" stroke="rgb(0, 0, 0)" stroke-opacity="0.7774332" stroke-linecap="round" stroke-linejoin="round"/>
    <path d="M 526.5089111328125 179.66348266601562 C 479.5526428222656 170.35916137695312 392.2141418457031 155.00677490234375 384.7863464355469 158.9201202392578 C 481.29986572265625 177.4072265625 464.8285827636719 173.07823181152344 439.9424133300781 160.55540466308594 C 397.24542236328125 156.913330078125 398.3944396972656 156.2835693359375 456.568603515625 168.03164672851562 C 427.5577392578125 168.16128540039062 445.65478515625 173.8189697265625 498.4794921875 177.96923828125" stroke-width="6.0" fill="none" stroke="rgb(0, 0, 0)" stroke-opacity="0.7907093" stroke-linecap="round" stroke-linejoin="round"/>
    <path d="M 303.0506896972656 516.4489135742188 C 250.94247436523438 454.6279602050781 222.87059020996094 420.7623291015625 174.58045959472656 371.7317810058594 C 164.26039123535156 385.45159912109375 167.0714874267578 465.0073547363281 225.2589569091797 484.50396728515625 C 223.3355255126953 474.7853088378906 180.83177185058594 433.95111083984375 162.06060791015625 403.6495666503906 C 129.3664093017578 359.6627502441406 139.85499572753906 415.2191467285156 170.29193115234375 493.9067687988281" stroke-width="6.0" fill="none" stroke="rgb(0, 0, 0)" stroke-opacity="0.5525751" stroke-linecap="round" stroke-linejoin="round"/>
    <path d="M 240.61839294433594 214.81246948242188 C 223.55230712890625 202.434814453125 221.6501007080078 214.17323303222656 214.38096618652344 197.8857421875 C 223.6831817626953 120.10184478759766 224.14395141601562 126.16098022460938 215.11569213867188 171.7073974609375 C 226.48822021484375 212.8340301513672 172.48245239257812 196.0676727294922 119.84693908691406 198.98399353027344 C 67.5632553100586 214.83001708984375 67.31077575683594 242.46890258789062 268.9252014160156 218.62274169921875" stroke-width="6.0" fill="none" stroke="rgb(0, 0, 0)" stroke-opacity="0.4126418" stroke-linecap="round" stroke-linejoin="round"/>
    <path d="M 436.9619445800781 286.28692626953125 C 484.60418701171875 331.26007080078125 482.7768859863281 328.7637634277344 455.14019775390625 323.1226806640625 C 492.5340576171875 358.4071044921875 488.48956298828125 366.9608459472656 436.4884948730469 320.22735595703125 C 388.579833984375 288.11383056640625 405.8197326660156 292.7879943847656 402.74755859375 324.7091979980469 C 295.64617919921875 305.10040283203125 286.1435546875 298.20245361328125 280.5124816894531 275.77764892578125" stroke-width="6.0" fill="none" stroke="rgb(0, 0, 0)" stroke-opacity="0.7559631" stroke-linecap="round" stroke-linejoin="round"/>
    <path d="M 422.4297180175781 73.0866470336914 C 443.6357116699219 26.705917358398438 435.7373046875 52.730411529541016 378.9570007324219 -0.7896803021430969 C 382.2127685546875 -81.12505340576172 376.66357421875 -120.51155853271484 402.087646484375 -91.04542541503906 C 445.8114318847656 -22.9085693359375 425.66217041015625 -40.141868591308594 427.8359375 -15.229829788208008 C 442.4912109375 -28.34480094909668 445.8669738769531 -27.69202423095703 425.458740234375 -45.59687042236328" stroke-width="6.0" fill="none" stroke="rgb(0, 0, 0)" stroke-opacity="0.6076185" stroke-linecap="round" stroke-linejoin="round"/>
    <path d="M 292.5308532714844 209.09710693359375 C 162.6914520263672 181.98390197753906 140.59417724609375 172.98117065429688 163.14031982421875 179.02200317382812 C 168.22787475585938 117.20854949951172 158.8052215576172 121.22737121582031 165.17283630371094 128.84503173828125 C 199.68162536621094 138.9899444580078 223.2335205078125 136.6931610107422 276.3805236816406 142.5926055908203 C 365.0235290527344 157.57525634765625 312.2124938964844 155.5054473876953 221.28585815429688 143.18798828125" stroke-width="6.0" fill="none" stroke="rgb(0, 0, 0)" stroke-opacity="0.8843804" stroke-linecap="round" stroke-linejoin="round"/>
    <path d="M 158.94271850585938 352.6088562011719 C 143.8534393310547 270.0350036621094 141.0882110595703 262.20904541015625 97.33340454101562 232.68820190429688 C 155.00222778320312 244.467529296875 155.60374450683594 276.2637634277344 172.72972106933594 327.31231689453125 C 180.78028869628906 365.78582763671875 233.9534149169922 364.15234375 138.599365234375 353.27532958984375 C 100.9022445678711 312.0118408203125 72.51460266113281 271.07562255859375 52.359130859375 205.52182006835938" stroke-width="6.0" fill="none" stroke="rgb(0, 0, 0)" stroke-opacity="0.4450606" stroke-linecap="round" stroke-linejoin="round"/>
    <path d="M 421.6469421386719 506.8171081542969 C 365.8081970214844 522.609130859375 431.9842529296875 526.8667602539062 436.7212829589844 487.9507141113281 C 364.54400634765625 547.3980102539062 359.6800842285156 548.1688842773438 411.6598205566406 510.678955078125 C 436.0675354003906 524.6441040039062 506.2160949707031 559.3162231445312 509.5643310546875 563.8229370117188 C 508.9904479980469 663.39306640625 573.4547729492188 731.0537719726562 559.8993530273438 710.356689453125" stroke-width="6.0" fill="none" stroke="rgb(0, 0, 0)" stroke-opacity="0.72480905" stroke-linecap="round" stroke-linejoin="round"/>
    <path d="M 250.8027801513672 562.7105712890625 C 273.1180725097656 585.789794921875 257.25 552.3697509765625 225.30564880371094 532.6243286132812 C 216.9718780517578 522.278564453125 175.42564392089844 500.8123474121094 188.94813537597656 512.130859375 C 190.39602661132812 423.2307434082031 172.0767364501953 488.0135192871094 199.30860900878906 532.8370971679688 C 238.34710693359375 514.7557373046875 250.7644500732422 482.77459716796875 239.4114227294922 512.4642944335938" stroke-width="6.0" fill="none" stroke="rgb(0, 0, 0)" stroke-opacity="0.18806982" stroke-linecap="round" stroke-linejoin="round"/>
    <path d="M 401.6253356933594 516.899169921875 C 479.6325988769531 474.64581298828125 470.5326843261719 478.2381286621094 484.4742431640625 475.7618713378906 C 466.14703369140625 475.5302734375 480.2663879394531 474.7174987792969 485.72930908203125 462.98358154296875 C 474.7383117675781 469.75067138671875 484.2030029296875 475.70526123046875 472.7160339355469 477.4328308105469 C 449.07513427734375 491.8601989746094 436.9338684082031 504.556884765625 392.2562255859375 527.9650268554688" stroke-width="6.0" fill="none" stroke="rgb(0, 0, 0)" stroke-opacity="0.7673133" stroke-linecap="round" stroke-linejoin="round"/>
    <path d="M 45.214317321777344 316.8443298339844 C 112.70426940917969 419.1553955078125 117.63431549072266 426.9134826660156 108.38421630859375 423.4562683105469 C 138.38125610351562 428.9664611816406 116.05797576904297 441.9833984375 121.80216979980469 410.0893249511719 C 112.80264282226562 420.427001953125 135.24209594726562 497.3892517089844 133.5636749267578 471.3917236328125 C 119.21282958984375 467.2013244628906 138.27586364746094 474.141845703125 185.1200408935547 531.94873046875" stroke-width="6.0" fill="none" stroke="rgb(0, 0, 0)" stroke-opacity="0.8246855" stroke-linecap="round" stroke-linejoin="round"/>
    <path d="M 175.21400451660156 512.2267456054688 C 232.7506103515625 560.14306640625 253.2010955810547 575.0706787109375 253.22607421875 565.5166625976562 C 245.69796752929688 541.11181640625 291.1640625 558.632080078125 303.9507141113281 515.8670043945312 C 245.1217041015625 549.294921875 243.10951232910156 593.3275146484375 307.64959716796875 569.457275390625 C 356.380615234375 599.5350341796875 360.727294921875 613.8661499023438 338.94378662109375 618.3552856445312" stroke-width="6.0" fill="none" stroke="rgb(0, 0, 0)" stroke-opacity="0.45365408" stroke-linecap="round" stroke-linejoin="round"/>
    <path d="M 565.55810546875 492.42816162109375 C 490.2254943847656 447.90533447265625 476.2015686035156 458.6413269042969 494.0671691894531 464.01361083984375 C 442.2023620605469 497.46405029296875 398.6558837890625 494.25885009765625 440.0452575683594 494.9905700683594 C 461.099853515625 521.6607666015625 426.2820739746094 485.15887451171875 380.2760314941406 503.9925842285156 C 373.7761535644531 497.8848876953125 361.24951171875 503.3533935546875 358.2382507324219 514.6129760742188" stroke-width="6.0" fill="none" stroke="rgb(0, 0, 0)" stroke-opacity="0.4030008" stroke-linecap="round" stroke-linejoin="round"/>
    <path d="M 343.8430480957031 150.263671875 C 395.8677673339844 162.3544158935547 419.7938232421875 165.32667541503906 416.6385498046875 161.64907836914062 C 414.31231689453125 156.4315948486328 356.5758972167969 153.6895294189453 305.3958435058594 147.29200744628906 C 360.4593505859375 158.2823028564453 382.7668762207031 144.2630157470703 352.038818359375 154.83111572265625 C 404.3055725097656 154.6865692138672 393.0582275390625 151.90859985351562 315.2710266113281 148.02432250976562" stroke-width="6.0" fill="none" stroke="rgb(0, 0, 0)" stroke-opacity="0.90587544" stroke-linecap="round" stroke-linejoin="round"/>
    <path d="M 344.4251403808594 288.3084716796875 C 228.7666778564453 344.20672607421875 233.7595977783203 352.6441650390625 250.51600646972656 365.5752258300781 C 243.27047729492188 358.4580993652344 194.7621612548828 373.38348388671875 302.9693298339844 379.0202941894531 C 235.80194091796875 378.7490539550781 165.20382690429688 359.2752685546875 255.93338012695312 362.64208984375 C 213.50796508789062 364.473388671875 233.24203491210938 378.4569396972656 275.1678161621094 377.302978515625" stroke-width="6.0" fill="none" stroke="rgb(0, 0, 0)" stroke-opacity="0.92498046" stroke-linecap="round" stroke-linejoin="round"/>
    <path d="M 378.67279052734375 49.11191940307617 C 384.4215087890625 32.09213638305664 389.6261291503906 53.77835464477539 396.5308837890625 -22.58355712890625 C 296.0140380859375 -4.315496921539307 241.50682067871094 1.3632242679595947 280.4549560546875 -7.683518886566162 C 373.3153076171875 -39.001625061035156 389.9377746582031 -20.624509811401367 417.1935119628906 -7.404748916625977 C 389.4030456542969 -25.586090087890625 378.45758056640625 -13.166284561157227 396.0823669433594 -26.503189086914062" stroke-width="6.0" fill="none" stroke="rgb(0, 0, 0)" stroke-opacity="0.44466642" stroke-linecap="round" stroke-linejoin="round"/>
    <path d="M 446.9541320800781 504.55718994140625 C 383.0561218261719 530.9744262695312 407.1376037597656 530.7987670898438 422.13226318359375 491.20111083984375 C 347.925048828125 532.672607421875 295.03179931640625 530.5596313476562 329.8616943359375 558.8355102539062 C 380.44464111328125 534.2069091796875 359.69036865234375 548.4530029296875 276.5648498535156 577.0828857421875 C 214.44345092773438 554.9768676757812 257.8626403808594 562.6959838867188 341.0602722167969 524.8770751953125" stroke-width="6.0" fill="none" stroke="rgb(0, 0, 0)" stroke-opacity="0.875533" stroke-linecap="round" stroke-linejoin="round"/>
    <path d="M 104.67333221435547 122.38848114013672 C 130.31825256347656 107.3543472290039 126.79544067382812 191.58843994140625 118.01033782958984 164.15603637695312 C 30.68116569519043 139.44366455078125 36.914459228515625 135.0612030029297 30.650482177734375 137.58682250976562 C -32.71527099609375 123.49327087402344 -33.26939010620117 98.0125732421875 -49.19633102416992 110.2667465209961 C -15.288400650024414 114.45967102050781 -18.156179428100586 78.27938079833984 -5.781069278717041 44.17140579223633" stroke-width="6.0" fill="none" stroke="rgb(0, 0, 0)" stroke-opacity="0.92073166" stroke-linecap="round" stroke-linejoin="round"/>
    <path d="M 574.5739135742188 411.5696716308594 C 506.0338134765625 383.637939453125 541.468505859375 367.8289794921875 485.6948547363281 459.7540283203125 C 474.49395751953125 491.0105285644531 458.41693115234375 442.10784912109375 476.8864440917969 475.8830261230469 C 449.8481750488281 507.2333068847656 494.64837646484375 472.1642761230469 449.4346618652344 503.63983154296875 C 491.2685852050781 454.3193359375 510.6496276855469 442.2748718261719 450.4480895996094 497.4812927246094" stroke-width="6.0" fill="none" stroke="rgb(0, 0, 0)" stroke-opacity="0.8706687" stroke-linecap="round" stroke-linejoin="round"/>
    <path d="M 515.2738647460938 -0.8640368580818176 C 495.8488464355469 50.57185363769531 483.7646789550781 82.1406478881836 470.8689270019531 121.6778564453125 C 464.064208984375 116.15621948242188 475.1596374511719 162.55874633789062 448.1560363769531 147.35421752929688 C 458.4723815917969 105.83975219726562 430.35113525390625 166.75575256347656 450.6357116699219 170.18692016601562 C 472.31097412109375 129.9016876220703 481.2833251953125 102.79904174804688 475.92626953125 117.44502258300781" stroke-width="6.0" fill="none" stroke="rgb(0, 0, 0)" stroke-opacity="0.39326733" stroke-linecap="round" stroke-linejoin="round"/>
    <path d="M 250.56385803222656 441.2345275878906 C 291.451171875 501.8813171386719 314.58319091796875 513.2406616210938 277.068603515625 441.396240234375 C 267.37750244140625 482.3492736816406 290.6669921875 479.2425231933594 377.3424987792969 465.7076110839844 C 386.54071044921875 539.4252319335938 331.20440673828125 508.4475402832031 295.8422546386719 535.6766357421875 C 345.3251037597656 542.9971923828125 333.4754333496094 528.9421997070312 291.4363098144531 509.0560302734375" stroke-width="6.0" fill="none" stroke="rgb(0, 0, 0)" stroke-opacity="0.28894696" stroke-linecap="round" stroke-linejoin="round"/>
    <path d="M 220.77981567382812 192.3746795654297 C 313.47406005859375 230.57725524902344 305.642822265625 231.38262939453125 337.0143737792969 249.80282592773438 C 357.37139892578125 268.19110107421875 347.9536437988281 259.2371826171875 356.5215148925781 265.9469909667969 C 360.91424560546875 244.92576599121094 386.03204345703125 219.08062744140625 355.8505859375 229.2223663330078 C 367.0129699707031 231.98680114746094 371.08599853515625 199.2139129638672 386.4429016113281 167.02035522460938" stroke-width="6.0" fill="none" stroke="rgb(0, 0, 0)" stroke-opacity="0.87614566" stroke-linecap="round" stroke-linejoin="round"/>
    <path d="M 409.0386047363281 153.33798217773438 C 357.4383544921875 150.17185974121094 366.816650390625 163.68580627441406 363.94677734375 152.54547119140625 C 365.8058166503906 163.38389587402344 391.36395263671875 147.28904724121094 396.21954345703125 162.21205139160156 C 377.529296875 138.6573944091797 361.325927734375 157.0357666015625 357.4317932128906 184.81275939941406 C 340.6264953613281 263.5177001953125 313.177001953125 233.14434814453125 405.4483642578125 299.3262939453125" stroke-width="6.0" fill="none" stroke="rgb(0, 0, 0)" stroke-opacity="0.5674536" stroke-linecap="round" stroke-linejoin="round"/>
    <path d="M 151.33053588867188 38.89881896972656 C 156.3668212890625 135.9627227783203 130.79806518554688 166.02857971191406 132.9082489013672 94.78717041015625 C 131.062255859375 -47.5390739440918 121.46414184570312 -63.2218132019043 124.59674072265625 -86.85784912109375 C 136.79002380371094 -27.057157516479492 153.822265625 -1.5122885704040527 165.0257110595703 -19.218725204467773 C 188.50440979003906 -15.22468376159668 159.0957794189453 -24.96833038330078 166.55738830566406 -38.33789825439453" stroke-width="6.0" fill="none" stroke="rgb(0, 0, 0)" stroke-opacity="0.42980266" stroke-linecap="round" stroke-linejoin="round"/>
    <path d="M 125.19551086425781 317.4376220703125 C 171.79551696777344 346.5525207519531 133.17503356933594 354.7179260253906 112.80023956298828 365.7568664550781 C 145.3941650390625 351.46527099609375 145.98570251464844 360.11676025390625 116.0370864868164 375.3448791503906 C 141.81796264648438 378.0854187011719 188.83717346191406 410.6083068847656 143.42730712890625 435.99560546875 C 63.87384796142578 396.24285888671875 63.15739059448242 363.20635986328125 129.8179931640625 394.23675537109375" stroke-width="6.0" fill="none" stroke="rgb(0, 0, 0)" stroke-opacity="0.22034162" stroke-linecap="round" stroke-linejoin="round"/>
    <path d="M 165.3249053955078 135.12762451171875 C 35.00852584838867 111.09266662597656 56.957271575927734 98.63162231445312 57.863399505615234 142.76641845703125 C -10.319083213806152 139.20751953125 39.55073928833008 113.51294708251953 5.8588361740112305 98.65403747558594 C -3.6341335773468018 159.37013244628906 -8.057557106018066 203.128173828125 -25.031213760375977 190.79904174804688 C -5.212911605834961 153.70973205566406 -14.549032211303711 149.2113494873047 46.4150276184082 177.69654846191406" stroke-width="6.0" fill="none" stroke="rgb(0, 0, 0)" stroke-opacity="0.37296104" stroke-linecap="round" stroke-linejoin="round"/>
    <path d="M 477.4503479003906 326.51751708984375 C 530.336181640625 389.1311340332031 511.5393371582031 372.12060546875 476.73663330078125 342.4284973144531 C 427.227294921875 316.8008728027344 396.4247131347656 317.86480712890625 384.0824279785156 308.4976806640625 C 452.42242431640625 273.060546875 436.3213806152344 292.0786437988281 462.44390869140625 313.4581298828125 C 443.405517578125 279.69482421875 458.95245361328125 299.543212890625 454.5758972167969 308.42132568359375" stroke-width="6.0" fill="none" stroke="rgb(0, 0, 0)" stroke-opacity="0.25492573" stroke-linecap="round" stroke-linejoin="round"/>
    <path d="M 120.6844253540039 202.8384246826172 C 165.95037841796875 209.47259521484375 88.58979034423828 182.29238891601562 112.50138854980469 242.55165100097656 C 144.02069091796875 294.152587890625 174.22230529785156 257.0452575683594 289.66851806640625 241.6107940673828 C 372.5630798339844 229.95225524902344 336.3115234375 209.23965454101562 179.76820373535156 192.3479461669922 C 243.4599609375 266.4091491699219 286.92828369140625 260.433837890625 308.020263671875 214.3979949951172" stroke-width="6.0" fill="none" stroke="rgb(0, 0, 0)" stroke-opacity="0.31159836" stroke-linecap="round" stroke-linejoin="round"/>
    <path d="M 366.8362121582031 156.6362762451172 C 266.9408874511719 150.23365783691406 301.1790466308594 150.1077117919922 307.2757873535156 142.62655639648438 C 259.2416076660156 154.8951416015625 290.93804931640625 226.02151489257812 277.2942199707031 205.15391540527344 C 281.587158203125 200.56752014160156 245.19248962402344 222.3905792236328 269.2812805175781 151.9857635498047 C 300.46295166015625 140.31423950195312 319.0440979003906 147.71556091308594 311.7452697753906 174.96563720703125" stroke-width="6.0" fill="none" stroke="rgb(0, 0, 0)" stroke-opacity="0.24564654" stroke-linecap="round" stroke-linejoin="round"/>
    <path d="M 114.44061279296875 544.1212158203125 C 71.15994262695312 472.3507080078125 50.073795318603516 445.74853515625 24.611059188842773 387.6978759765625 C -114.85305786132812 416.9285888671875 -117.60330200195312 454.71405029296875 -94.32293701171875 466.48040771484375 C -76.46549987792969 482.6417236328125 -95.95679473876953 459.23431396484375 -111.06391143798828 467.6424865722656 C -95.7930908203125 441.6669006347656 -103.1475830078125 411.70135498046875 -105.501220703125 429.6316223144531" stroke-width="6.0" fill="none" stroke="rgb(0, 0, 0)" stroke-opacity="0.6775254" stroke-linecap="round" stroke-linejoin="round"/>
    <path d="M 364.5779113769531 368.59515380859375 C 232.0115966796875 362.36962890625 251.1879119873047 354.3604736328125 237.68251037597656 372.1872253417969 C 235.14190673828125 369.05908203125 255.87155151367188 379.69378662109375 294.73870849609375 374.6366882324219 C 314.5756530761719 377.5964660644531 314.5575866699219 378.5572204589844 244.79684448242188 349.5572204589844 C 221.35679626464844 365.6044616699219 231.01904296875 363.4753112792969 235.78851318359375 363.15863037109375" stroke-width="6.0" fill="none" stroke="rgb(0, 0, 0)" stroke-opacity="0.016041541" stroke-linecap="round" stroke-linejoin="round"/>
    <path d="M 204.01377868652344 367.0481872558594 C 182.7582244873047 346.5022888183594 224.70008850097656 378.12762451171875 238.12826538085938 371.67059326171875 C 242.84291076660156 380.765380859375 254.69956970214844 367.8459777832031 227.6853485107422 358.5600891113281 C 227.75779724121094 486.3948059082031 244.2104034423828 425.10736083984375 215.87869262695312 415.3448791503906 C 169.59585571289062 477.7491149902344 192.6510009765625 438.49652099609375 164.54608154296875 406.6128845214844" stroke-width="6.0" fill="none" stroke="rgb(0, 0, 0)" stroke-opacity="0.653432" stroke-linecap="round" stroke-linejoin="round"/>
    <path d="M 348.5127258300781 357.8040771484375 C 238.8241424560547 358.77557373046875 233.30023193359375 369.474365234375 232.90899658203125 356.95550537109375 C 264.72808837890625 366.6377258300781 336.5475769042969 373.892822265625 383.3130187988281 324.89520263671875 C 346.93511962890625 356.9961242675781 303.0003662109375 319.69110107421875 286.5022888183594 284.3861389160156 C 285.7633056640625 281.8153991699219 297.8638610839844 297.9883117675781 255.3798065185547 254.6930694580078" stroke-width="6.0" fill="none" stroke="rgb(0, 0, 0)" stroke-opacity="0.5169975" stroke-linecap="round" stroke-linejoin="round"/>
    <path d="M 17.90646743774414 202.51084899902344 C 47.16576385498047 181.3600311279297 61.44437789916992 248.39122009277344 83.03043365478516 267.1129455566406 C 14.859736442565918 339.1435852050781 70.41910552978516 352.9030456542969 47.451271057128906 321.23895263671875 C 81.20388793945312 208.4951629638672 39.097835540771484 251.6667022705078 54.467525482177734 347.5119934082031 C 2.8377368450164795 244.7711181640625 11.698677062988281 246.18045043945312 13.320792198181152 289.42633056640625" stroke-width="6.0" fill="none" stroke="rgb(0, 0, 0)" stroke-opacity="0.41758904" stroke-linecap="round" stroke-linejoin="round"/>
    <path d="M 477.3912048339844 53.37195587158203 C 473.9474182128906 62.133480072021484 483.66400146484375 44.399208068847656 462.89813232421875 73.15473937988281 C 477.73785400390625 73.01710510253906 470.38641357421875 49.841793060302734 470.8609313964844 76.06543731689453 C 455.73382568359375 112.54891204833984 450.1524658203125 151.8947296142578 482.96026611328125 95.11565399169922 C 532.3994140625 81.1884765625 474.42938232421875 122.24165344238281 477.78759765625 175.9192352294922" stroke-width="6.0" fill="none" stroke="rgb(0, 0, 0)" stroke-opacity="0.33059987" stroke-linecap="round" stroke-linejoin="round"/>
    <path d="M 386.041015625 310.3943786621094 C 425.02252197265625 318.4049987792969 433.52435302734375 327.3509826660156 441.073974609375 367.2159423828125 C 480.7920227050781 384.6893005371094 458.5454406738281 403.1923522949219 496.787841796875 357.4336853027344 C 525.37548828125 370.16339111328125 485.1270446777344 391.38214111328125 509.0263671875 359.6402893066406 C 524.8657836914062 408.34063720703125 521.1768798828125 389.3399658203125 503.2541809082031 366.1380310058594" stroke-width="6.0" fill="none" stroke="rgb(0, 0, 0)" stroke-opacity="0.15325825" stroke-linecap="round" stroke-linejoin="round"/>
    <path d="M 123.98026275634766 400.6828918457031 C 63.414955139160156 339.55133056640625 61.76420593261719 308.56085205078125 10.518078804016113 217.86080932617188 C -1.4008148908615112 282.1219787597656 33.35810470581055 316.343994140625 24.2332763671875 306.61865234375 C 41.91403579711914 250.0228271484375 -19.14929962158203 217.59011840820312 23.049985885620117 201.27145385742188 C 81.04928588867188 183.84432983398438 52.78251647949219 240.9301300048828 96.06328582763672 288.1717834472656" stroke-width="6.0" fill="none" stroke="rgb(0, 0, 0)" stroke-opacity="0.84945005" stroke-linecap="round" stroke-linejoin="round"/>
    <path d="M 153.10035705566406 372.46356201171875 C 119.56695556640625 373.35986328125 102.19986724853516 367.55865478515625 85.4458236694336 332.9906005859375 C 136.25689697265625 312.8761291503906 111.74088287353516 309.6201477050781 111.55724334716797 314.14788818359375 C 141.8327178955078 337.4523010253906 166.39608764648438 268.90472412109375 172.93472290039062 263.38604736328125 C 205.4227294921875 242.0827178955078 208.38510131835938 243.77308654785156 186.48756408691406 250.24874877929688" stroke-width="6.0" fill="none" stroke="rgb(0, 0, 0)" stroke-opacity="0.04042983" stroke-linecap="round" stroke-linejoin="round"/>
    <path d="M 577.6494140625 195.151123046875 C 434.07855224609375 159.18846130371094 530.9136962890625 184.0222625732422 606.6126098632812 207.15113830566406 C 546.6180419921875 191.34756469726562 604.6676025390625 200.1604461669922 635.0863037109375 222.97918701171875 C 618.7868041992188 217.76446533203125 582.1395263671875 189.2270965576172 569.7255859375 191.09048461914062 C 500.2843933105469 169.72203063964844 512.71240234375 183.69921875 516.2906494140625 179.88449096679688" stroke-width="6.0" fill="none" stroke="rgb(0, 0, 0)" stroke-opacity="0.85215646" stroke-linecap="round" stroke-linejoin="round"/>
    <path d="M 368.99810791015625 468.8104553222656 C 481.947998046875 444.2845764160156 452.2358703613281 463.7590026855469 469.70977783203125 436.0186462402344 C 507.0702209472656 366.5572204589844 517.6009521484375 382.6397705078125 473.81756591796875 348.7542419433594 C 438.0885009765625 323.7181396484375 420.26629638671875 304.6327209472656 386.6255187988281 291.8680114746094 C 412.620361328125 314.7842102050781 399.4056396484375 337.98370361328125 359.3305358886719 366.3561096191406" stroke-width="6.0" fill="none" stroke="rgb(0, 0, 0)" stroke-opacity="0.7186405" stroke-linecap="round" stroke-linejoin="round"/>
    <path d="M 232.87078857421875 117.9190673828125 C 205.57553100585938 100.34920501708984 316.0474853515625 105.24476623535156 345.8875732421875 96.8658447265625 C 376.14727783203125 -37.36551284790039 386.7817687988281 -12.814393043518066 308.98797607421875 -2.76642107963562 C 298.90032958984375 -66.3973388671875 281.0600280761719 -85.69133758544922 286.4767150878906 -56.07346725463867 C 275.40789794921875 -18.373271942138672 253.38209533691406 -28.75878143310547 281.3839111328125 -33.417877197265625" stroke-width="6.0" fill="none" stroke="rgb(0, 0, 0)" stroke-opacity="0.31478837" stroke-linecap="round" stroke-linejoin="round"/>
    <path d="M 558.7840576171875 324.85009765625 C 574.4036254882812 329.37158203125 586.4840698242188 336.2707214355469 572.988525390625 333.05615234375 C 577.1152954101562 305.2863464355469 621.0488891601562 313.4950256347656 645.1925659179688 355.02801513671875 C 656.2567138671875 340.8208923339844 651.3289794921875 357.0724792480469 659.2212524414062 369.75439453125 C 677.2337646484375 362.1358337402344 647.3980102539062 361.1037292480469 666.8573608398438 361.1683349609375" stroke-width="6.0" fill="none" stroke="rgb(0, 0, 0)" stroke-opacity="0.21106176" stroke-linecap="round" stroke-linejoin="round"/>
    <path d="M 174.46669006347656 354.1212158203125 C 246.81956481933594 364.030029296875 254.12237548828125 373.73016357421875 248.5656280517578 371.3109130859375 C 262.15032958984375 392.17669677734375 289.20245361328125 437.1609802246094 288.9602355957031 444.6129150390625 C 239.90565490722656 446.1732177734375 245.000244140625 456.6352844238281 238.24859619140625 444.3958740234375 C 297.14642333984375 434.8318786621094 288.2973937988281 435.10858154296875 309.21490478515625 500.1593017578125" stroke-width="6.0" fill="none" stroke="rgb(0, 0, 0)" stroke-opacity="0.6087605" stroke-linecap="round" stroke-linejoin="round"/>
    <path d="M 210.49464416503906 195.9870147705078 C 126.7149887084961 196.69473266601562 51.32729721069336 205.89944458007812 102.30016326904297 207.765625 C 169.6503143310547 187.84706115722656 157.02841186523438 194.69686889648438 108.63217163085938 212.01089477539062 C 66.99175262451172 191.65228271484375 35.399391174316406 197.47036743164062 59.95545196533203 208.80355834960938 C 69.29100036621094 215.55447387695312 89.06414031982422 238.70709228515625 55.517730712890625 279.4425964355469" stroke-width="6.0" fill="none" stroke="rgb(0, 0, 0)" stroke-opacity="0.64001966" stroke-linecap="round" stroke-linejoin="round"/>
    <path d="M 229.67535400390625 365.67645263671875 C 228.478759765625 380.1624450683594 194.1085662841797 359.5111083984375 135.5573272705078 357.8092041015625 C 124.71088409423828 511.3171691894531 154.61187744140625 405.39410400390625 90.37329864501953 340.24896240234375 C 92.94512939453125 295.6027526855469 160.5827178955078 333.8060302734375 121.09262084960938 326.642578125 C 156.19342041015625 362.990966796875 140.11907958984375 331.2503967285156 117.11656951904297 401.92950439453125" stroke-width="6.0" fill="none" stroke="rgb(0, 0, 0)" stroke-opacity="0.20409332" stroke-linecap="round" stroke-linejoin="round"/>
    <path d="M 81.40998077392578 38.724647521972656 C 111.56498718261719 30.70253562927246 130.49159240722656 8.032458305358887 143.7428436279297 17.609947204589844 C 163.98280334472656 26.148937225341797 140.4171600341797 15.940290451049805 215.19253540039062 47.16718292236328 C 203.5206298828125 246.0831756591797 195.20802307128906 206.2015838623047 105.0428466796875 175.8880615234375 C 56.02825164794922 153.3944549560547 41.72916030883789 153.10963439941406 28.052349090576172 148.31491088867188" stroke-width="6.0" fill="none" stroke="rgb(0, 0, 0)" stroke-opacity="0.78900003" stroke-linecap="round" stroke-linejoin="round"/>
    <path d="M 180.89007568359375 313.782958984375 C 180.0687255859375 319.9129638671875 202.2965087890625 316.3944091796875 211.09237670898438 318.86456298828125 C 260.1065673828125 332.6986999511719 236.5872039794922 333.52008056640625 232.34640502929688 326.237548828125 C 188.19290161132812 312.20855712890625 188.0226287841797 314.56890869140625 164.8006134033203 316.79901123046875 C 192.11959838867188 351.30322265625 161.86073303222656 386.8423767089844 154.90362548828125 325.49981689453125" stroke-width="6.0" fill="none" stroke="rgb(0, 0, 0)" stroke-opacity="0.63748926" stroke-linecap="round" stroke-linejoin="round"/>
    <path d="M 515.1043090820312 418.80523681640625 C 462.1777038574219 507.7897644042969 439.8514404296875 498.8450927734375 443.5648193359375 487.08746337890625 C 487.83404541015625 474.1311340332031 500.7919921875 451.2274169921875 456.53289794921875 500.4156494140625 C 400.30438232421875 491.0059509277344 444.8070068359375 488.6090393066406 469.9035339355469 476.4903259277344 C 526.3826293945312 453.3659973144531 478.2362060546875 377.0779113769531 559.4379272460938 430.4102783203125" stroke-width="6.0" fill="none" stroke="rgb(0, 0, 0)" stroke-opacity="0.5614123" stroke-linecap="round" stroke-linejoin="round"/>
    <path d="M 97.05729675292969 99.27442932128906 C 101.75646209716797 145.20669555664062 81.75811004638672 118.14720153808594 85.99535369873047 90.737548828125 C 76.48314666748047 107.0301284790039 89.34886932373047 110.12621307373047 84.06613159179688 117.93701934814453 C 15.394918441772461 98.00595092773438 33.804988861083984 126.74781036376953 21.552661895751953 54.80885696411133 C 1.4690674543380737 48.75898361206055 12.910294532775879 58.782127380371094 29.57769012451172 58.039920806884766" stroke-width="6.0" fill="none" stroke="rgb(0, 0, 0)" stroke-opacity="0.30838513" stroke-linecap="round" stroke-linejoin="round"/>
    <path d="M 236.2290496826172 16.662975311279297 C 240.03884887695312 13.952662467956543 224.77212524414062 29.00924301147461 252.670166015625 6.417634010314941 C 306.0240478515625 -5.666988372802734 290.7377624511719 -24.392776489257812 257.3656311035156 4.997819423675537 C 220.3417510986328 17.822359085083008 245.8658905029297 33.142982482910156 235.83432006835938 15.547532081604004 C 237.75149536132812 23.258689880371094 227.87521362304688 65.12015533447266 230.62742614746094 106.21239471435547" stroke-width="6.0" fill="none" stroke="rgb(0, 0, 0)" stroke-opacity="0.6904822" stroke-linecap="round" stroke-linejoin="round"/>
    <path d="M 161.17666625976562 291.8227844238281 C 178.54592895507812 372.9995422363281 176.75909423828125 347.7460021972656 180.31439208984375 352.50048828125 C 175.8363800048828 334.7153625488281 163.53050231933594 298.028564453125 153.49029541015625 283.60687255859375 C 163.07949829101562 276.773193359375 140.2868194580078 264.569091796875 178.33387756347656 261.7503356933594 C 232.9371337890625 261.9892272949219 251.55850219726562 263.41925048828125 269.8045349121094 276.46978759765625" stroke-width="6.0" fill="none" stroke="rgb(0, 0, 0)" stroke-opacity="0.5690152" stroke-linecap="round" stroke-linejoin="round"/>
    <path d="M 521.7103271484375 386.6532287597656 C 455.7434997558594 289.7268371582031 411.55291748046875 268.6611022949219 554.71435546875 323.41180419921875 C 567.589111328125 401.89837646484375 509.2972106933594 351.4473876953125 511.50244140625 379.4548034667969 C 508.42138671875 371.5282287597656 486.3933410644531 329.1094055175781 489.2398376464844 356.71478271484375 C 507.66534423828125 360.3082275390625 517.5408935546875 356.1400146484375 487.338134765625 401.746337890625" stroke-width="6.0" fill="none" stroke="rgb(0, 0, 0)" stroke-opacity="0.28766274" stroke-linecap="round" stroke-linejoin="round"/>
    <path d="M 135.3656463623047 461.2318420410156 C 131.1748046875 512.7080688476562 198.41909790039062 518.1488037109375 163.2852783203125 501.0070495605469 C 175.62803649902344 465.1726379394531 163.18807983398438 429.6932067871094 143.08082580566406 397.3000793457031 C 147.97047424316406 399.83575439453125 142.858642578125 468.8416748046875 137.23773193359375 474.1551513671875 C 152.3480224609375 418.9845275878906 146.0185089111328 454.4128112792969 161.47572326660156 508.4403076171875" stroke-width="6.0" fill="none" stroke="rgb(0, 0, 0)" stroke-opacity="0.7172365" stroke-linecap="round" stroke-linejoin="round"/>
    <path d="M 513.1077270507812 -52.112117767333984 C 502.9805603027344 -36.85849380493164 488.2593994140625 24.26021385192871 472.12493896484375 67.07662963867188 C 485.1122131347656 30.130985260009766 492.5114440917969 21.256900787353516 495.2874755859375 8.196556091308594 C 490.06280517578125 11.682323455810547 497.4430847167969 12.093988418579102 493.23321533203125 -0.6521208882331848 C 493.8932189941406 0.7585501670837402 494.3146057128906 -7.910974502563477 498.19171142578125 -37.2200927734375" stroke-width="6.0" fill="none" stroke="rgb(0, 0, 0)" stroke-opacity="0.7813931" stroke-linecap="round" stroke-linejoin="round"/>
  </g>
</svg>
