<?xml version="1.0" ?>
<svg xmlns="http://www.w3.org/2000/svg" version="1.1" width="600" height="600">
  <defs/>
  <g>
    <path d="M 380.90826416015625 449.4634704589844 C 372.210205078125 454.67529296875 351.875 478.333740234375 404.1327819824219 427.2336730957031 C 465.7402648925781 372.3687438964844 477.0409851074219 345.8962097167969 488.1974792480469 350.81011962890625 C 470.84344482421875 348.8348388671875 498.4654541015625 340.6163330078125 516.4346313476562 313.57562255859375 C 524.240234375 313.2411193847656 505.80010986328125 316.017578125 537.4741821289062 317.1604309082031" stroke-width="6.0" fill="none" stroke="rgb(0, 0, 0)" stroke-opacity="0.9864931" stroke-linecap="round" stroke-linejoin="round"/>
    <path d="M 364.9299621582031 398.12176513671875 C 320.90057373046875 436.2953796386719 362.24835205078125 427.760986328125 246.65919494628906 435.3712158203125 C 278.71099853515625 394.4803161621094 310.86102294921875 398.275146484375 334.2898254394531 386.852294921875 C 400.8496398925781 290.5473937988281 364.4660339355469 330.8251647949219 340.910888671875 352.9466247558594 C 306.467529296875 384.1475830078125 347.3101806640625 382.66412353515625 392.0945739746094 300.7186584472656" stroke-width="6.0" fill="none" stroke="rgb(0, 0, 0)" stroke-opacity="0.9586215" stroke-linecap="round" stroke-linejoin="round"/>
    <path d="M 215.371337890625 419.2325439453125 C 161.17124938964844 424.48724365234375 151.14697265625 426.4932556152344 134.11106872558594 399.7619934082031 C 40.373287200927734 348.8832702636719 117.61871337890625 362.13189697265625 151.6444854736328 404.3799133300781 C 297.5631103515625 407.28570556640625 314.9989013671875 402.26123046875 227.82049560546875 412.7695007324219 C 264.7991943359375 451.9319763183594 260.4903259277344 458.43450927734375 212.53213500976562 419.67333984375" stroke-width="6.0" fill="none" stroke="rgb(0, 0, 0)" stroke-opacity="0.43082318" stroke-linecap="round" stroke-linejoin="round"/>
    <path d="M 395.5206298828125 403.6249084472656 C 331.9966125488281 456.1485290527344 209.50840759277344 452.7244873046875 220.3271942138672 415.531005859375 C 340.2554016113281 376.95947265625 309.9450988769531 392.3915100097656 311.4644775390625 441.3298645019531 C 366.45306396484375 442.01654052734375 337.8338317871094 434.2257080078125 327.8341064453125 429.5217590332031 C 362.8113098144531 444.64849853515625 366.398193359375 427.3395080566406 310.5717468261719 429.6700439453125" stroke-width="6.0" fill="none" stroke="rgb(0, 0, 0)" stroke-opacity="0.611774" stroke-linecap="round" stroke-linejoin="round"/>
    <path d="M -8.022747993469238 156.7720184326172 C 36.044612884521484 138.64892578125 75.07614135742188 120.758056640625 118.74574279785156 98.94071960449219 C 132.84510803222656 128.2224884033203 143.34848022460938 159.99447631835938 153.7864532470703 189.6886444091797 C 81.5088882446289 205.38818359375 63.160701751708984 207.24380493164062 23.59265899658203 219.0166473388672 C -59.96794891357422 231.53297424316406 -31.285842895507812 234.13888549804688 12.006591796875 195.5456085205078" stroke-width="6.0" fill="none" stroke="rgb(0, 0, 0)" stroke-opacity="0.7389007" stroke-linecap="round" stroke-linejoin="round"/>
    <path d="M 622.3601684570312 366.8980407714844 C 609.3441162109375 352.14263916015625 611.9739990234375 341.8055114746094 614.9404296875 296.8660888671875 C 610.1365966796875 257.9475402832031 594.1240234375 184.17185974121094 617.6187744140625 242.64317321777344 C 573.0398559570312 264.81536865234375 534.6509399414062 267.1791076660156 485.4428405761719 253.89198303222656 C 632.8661499023438 240.4298858642578 666.873046875 263.823486328125 620.1065063476562 281.877197265625" stroke-width="6.0" fill="none" stroke="rgb(0, 0, 0)" stroke-opacity="0.17137516" stroke-linecap="round" stroke-linejoin="round"/>
    <path d="M 27.930017471313477 82.6053695678711 C 33.41080856323242 68.933837890625 7.6573896408081055 76.21568298339844 -59.56664276123047 79.08831787109375 C -12.788305282592773 86.61532592773438 -32.81695556640625 99.43714904785156 -19.99361801147461 122.46686553955078 C -18.14166831970215 146.52169799804688 -12.640693664550781 174.23516845703125 -7.503465175628662 164.0381317138672 C -10.32015609741211 183.7646484375 -4.663980007171631 193.39566040039062 -21.72872543334961 190.33917236328125" stroke-width="6.0" fill="none" stroke="rgb(0, 0, 0)" stroke-opacity="0.17213501" stroke-linecap="round" stroke-linejoin="round"/>
    <path d="M 491.2902526855469 265.94317626953125 C 462.5777282714844 300.37652587890625 470.3704528808594 281.4862976074219 530.238037109375 232.8594512939453 C 522.4024658203125 246.41542053222656 505.4587097167969 233.91619873046875 485.7991638183594 270.4811706542969 C 497.0635070800781 245.449462890625 507.90478515625 253.8067169189453 524.002197265625 173.5562744140625 C 551.6187133789062 214.35360717773438 540.8939819335938 247.7196807861328 499.3223876953125 252.15367126464844" stroke-width="6.0" fill="none" stroke="rgb(0, 0, 0)" stroke-opacity="0.87579906" stroke-linecap="round" stroke-linejoin="round"/>
    <path d="M 434.0110168457031 138.9449005126953 C 395.0299377441406 141.5001983642578 399.6070251464844 128.77867126464844 473.9822998046875 119.61123657226562 C 467.6565246582031 120.55802154541016 466.0132751464844 176.46885681152344 450.8611145019531 62.66797637939453 C 447.95416259765625 36.378387451171875 430.3548583984375 57.5536994934082 457.4098815917969 50.991756439208984 C 424.4342346191406 64.28235626220703 396.64154052734375 72.99220275878906 365.599365234375 82.76708984375" stroke-width="6.0" fill="none" stroke="rgb(0, 0, 0)" stroke-opacity="0.4608992" stroke-linecap="round" stroke-linejoin="round"/>
    <path d="M 417.2012634277344 534.34521484375 C 423.0552062988281 533.9617919921875 393.6945495605469 506.16607666015625 405.97674560546875 493.42047119140625 C 419.3771057128906 499.91326904296875 397.5071105957031 481.2474365234375 409.3658447265625 440.5154724121094 C 399.8772888183594 451.24114990234375 399.3835144042969 435.9367370605469 470.07196044921875 459.0809020996094 C 460.7026062011719 448.6314392089844 450.5857238769531 486.6191711425781 454.1337585449219 491.7365417480469" stroke-width="6.0" fill="none" stroke="rgb(0, 0, 0)" stroke-opacity="0.31284404" stroke-linecap="round" stroke-linejoin="round"/>
    <path d="M 354.4977111816406 469.53863525390625 C 356.2181396484375 489.7576904296875 345.2979431152344 455.087646484375 339.570556640625 441.9963073730469 C 373.9362487792969 407.5511779785156 385.6662292480469 411.7751770019531 409.1508483886719 395.6427001953125 C 428.3033752441406 398.74298095703125 399.03021240234375 406.40362548828125 416.5666198730469 351.46075439453125 C 442.0223693847656 300.2315368652344 452.5382995605469 194.21836853027344 460.6024475097656 268.3796081542969" stroke-width="6.0" fill="none" stroke="rgb(0, 0, 0)" stroke-opacity="0.34535217" stroke-linecap="round" stroke-linejoin="round"/>
    <path d="M 195.42037963867188 229.65274047851562 C 193.12521362304688 153.44955444335938 185.0435028076172 183.59178161621094 184.25595092773438 201.72073364257812 C 191.61866760253906 184.70750427246094 122.17707061767578 200.6830596923828 91.67059326171875 196.2931365966797 C 138.02699279785156 197.6875457763672 108.2072525024414 199.25013732910156 127.79995727539062 174.5174102783203 C 138.37730407714844 192.4134521484375 160.4122772216797 168.0087127685547 172.06199645996094 188.22154235839844" stroke-width="6.0" fill="none" stroke="rgb(0, 0, 0)" stroke-opacity="0.016994363" stroke-linecap="round" stroke-linejoin="round"/>
    <path d="M 372.9659423828125 418.89166259765625 C 419.45947265625 411.5032653808594 358.21588134765625 431.01373291015625 317.384033203125 346.76171875 C 319.745849609375 310.3825988769531 406.4942932128906 329.6796875 353.395263671875 312.7303466796875 C 352.24945068359375 344.5881042480469 322.9676818847656 352.2868957519531 294.7335510253906 368.4625244140625 C 290.3108825683594 403.874755859375 307.3864440917969 356.1375732421875 314.8985900878906 358.5371398925781" stroke-width="6.0" fill="none" stroke="rgb(0, 0, 0)" stroke-opacity="0.06416592" stroke-linecap="round" stroke-linejoin="round"/>
    <path d="M 169.1487274169922 136.42764282226562 C 156.9872283935547 95.1417236328125 157.369140625 89.03105926513672 148.94647216796875 66.6119155883789 C 146.7464599609375 100.486083984375 154.08465576171875 70.4825210571289 135.6997528076172 44.83830261230469 C 75.78971862792969 59.4996223449707 110.7412338256836 70.07350158691406 108.96237182617188 84.93356323242188 C 161.9510498046875 55.634193420410156 146.1169891357422 80.7687759399414 148.51686096191406 79.95951843261719" stroke-width="6.0" fill="none" stroke="rgb(0, 0, 0)" stroke-opacity="0.38988087" stroke-linecap="round" stroke-linejoin="round"/>
    <path d="M 173.86550903320312 455.70855712890625 C 176.7982940673828 451.52520751953125 176.69566345214844 449.40460205078125 174.1753387451172 455.76300048828125 C 155.45492553710938 465.1936950683594 115.66179656982422 494.10711669921875 133.99325561523438 490.59381103515625 C 152.05209350585938 511.3875732421875 177.23849487304688 513.7263793945312 110.93281555175781 475.0650329589844 C 126.1013412475586 474.79473876953125 166.86805725097656 515.4183349609375 175.22474670410156 517.72900390625" stroke-width="6.0" fill="none" stroke="rgb(0, 0, 0)" stroke-opacity="0.5560903" stroke-linecap="round" stroke-linejoin="round"/>
    <path d="M 317.72576904296875 122.55223083496094 C 357.80267333984375 128.87571716308594 384.9898681640625 124.20706176757812 439.56561279296875 63.04903793334961 C 458.77874755859375 61.7449951171875 448.7234802246094 48.02290344238281 449.1658630371094 -36.09747314453125 C 442.4347229003906 -22.873062133789062 457.94610595703125 -33.88691711425781 478.9635009765625 -45.238948822021484 C 470.9645690917969 -29.532743453979492 464.6477966308594 -46.22001266479492 443.13275146484375 -70.0894775390625" stroke-width="6.0" fill="none" stroke="rgb(0, 0, 0)" stroke-opacity="0.09457489" stroke-linecap="round" stroke-linejoin="round"/>
    <path d="M 396.1025695800781 297.4886169433594 C 383.2677307128906 319.539306640625 324.8750915527344 324.2503356933594 317.28521728515625 360.5087585449219 C 375.05572509765625 313.4306640625 385.31561279296875 324.3746032714844 306.6348571777344 329.2970275878906 C 336.0799255371094 364.46820068359375 338.7294006347656 402.6416320800781 369.4244079589844 400.1279602050781 C 344.6478271484375 394.4809875488281 299.3168640136719 403.8815612792969 350.06878662109375 400.20709228515625" stroke-width="6.0" fill="none" stroke="rgb(0, 0, 0)" stroke-opacity="0.4071975" stroke-linecap="round" stroke-linejoin="round"/>
    <path d="M 367.34442138671875 487.4118957519531 C 361.52581787109375 483.3821716308594 341.0506591796875 479.47052001953125 355.9665832519531 478.6230163574219 C 342.0458679199219 483.3621520996094 349.9596862792969 477.264404296875 308.56427001953125 509.9441223144531 C 332.3861389160156 497.505126953125 302.636474609375 518.4012451171875 294.2119445800781 527.1221313476562 C 342.6643371582031 476.434326171875 360.8597412109375 468.46954345703125 317.6413269042969 502.314697265625" stroke-width="6.0" fill="none" stroke="rgb(0, 0, 0)" stroke-opacity="0.21370177" stroke-linecap="round" stroke-linejoin="round"/>
    <path d="M 251.16671752929688 449.06451416015625 C 216.93800354003906 420.7786865234375 205.3973388671875 418.4151916503906 153.579833984375 425.2958984375 C 144.9146270751953 412.9103698730469 150.77426147460938 427.5372619628906 160.15017700195312 400.82830810546875 C 229.87796020507812 404.7746276855469 270.3799743652344 422.2098083496094 221.0377655029297 402.9944152832031 C 329.71160888671875 385.4148864746094 353.3062438964844 385.47161865234375 229.54576110839844 431.75872802734375" stroke-width="6.0" fill="none" stroke="rgb(0, 0, 0)" stroke-opacity="0.41826898" stroke-linecap="round" stroke-linejoin="round"/>
    <path d="M 53.939205169677734 588.4646606445312 C 72.67198944091797 581.3143310546875 46.26576614379883 565.5899047851562 67.1375503540039 613.3052368164062 C 92.03669738769531 605.696044921875 115.1096420288086 595.863525390625 101.69947052001953 618.3171997070312 C 65.99317169189453 610.660888671875 34.720726013183594 611.4135131835938 74.84685516357422 595.1849365234375 C 57.37858200073242 573.8026123046875 2.3013505935668945 563.7242431640625 15.820123672485352 575.0460815429688" stroke-width="6.0" fill="none" stroke="rgb(0, 0, 0)" stroke-opacity="0.2031822" stroke-linecap="round" stroke-linejoin="round"/>
    <path d="M 257.3104553222656 575.5579833984375 C 234.28623962402344 565.7269287109375 180.42039489746094 518.3344116210938 201.8426513671875 530.9564208984375 C 258.906494140625 508.55181884765625 211.16293334960938 506.0679931640625 201.99929809570312 499.3905029296875 C 206.45851135253906 486.51385498046875 176.36070251464844 515.32763671875 176.96392822265625 515.82861328125 C 189.4629669189453 500.4508972167969 196.84169006347656 488.9982604980469 256.8556213378906 529.8839111328125" stroke-width="6.0" fill="none" stroke="rgb(0, 0, 0)" stroke-opacity="0.29040083" stroke-linecap="round" stroke-linejoin="round"/>
    <path d="M 548.8583984375 47.610904693603516 C 574.37548828125 46.54103469848633 574.3151245117188 90.40882873535156 644.2899780273438 82.70606994628906 C 607.0814208984375 184.3573455810547 601.9644775390625 228.8091278076172 603.8400268554688 220.0133819580078 C 615.5067749023438 128.09255981445312 648.0044555664062 94.10655975341797 588.6649169921875 90.50725555419922 C 616.6094360351562 101.86427307128906 644.1133422851562 108.25957489013672 661.2322387695312 99.81149291992188" stroke-width="6.0" fill="none" stroke="rgb(0, 0, 0)" stroke-opacity="0.06483993" stroke-linecap="round" stroke-linejoin="round"/>
    <path d="M 154.73255920410156 371.8373107910156 C 142.80592346191406 369.6505432128906 183.2503662109375 362.64227294921875 150.29632568359375 358.1363830566406 C 112.14940643310547 421.966796875 172.23553466796875 400.161865234375 337.8023376464844 395.3758544921875 C 387.8609924316406 396.2810363769531 317.0019836425781 398.7921447753906 248.99990844726562 418.5474853515625 C 338.242919921875 412.58062744140625 379.00225830078125 394.609619140625 340.6866455078125 387.990478515625" stroke-width="6.0" fill="none" stroke="rgb(0, 0, 0)" stroke-opacity="0.7835308" stroke-linecap="round" stroke-linejoin="round"/>
    <path d="M 323.2904052734375 338.6252136230469 C 332.8041687011719 323.9566955566406 349.1291809082031 321.36322021484375 337.0517578125 398.2305908203125 C 374.18902587890625 402.2581481933594 381.66375732421875 433.1733703613281 391.96612548828125 384.4730529785156 C 424.99908447265625 341.6452941894531 416.0641784667969 373.5811462402344 400.61993408203125 442.7147521972656 C 401.3299865722656 466.0068359375 397.2505187988281 445.4311218261719 418.716796875 446.8035583496094" stroke-width="6.0" fill="none" stroke="rgb(0, 0, 0)" stroke-opacity="0.15500082" stroke-linecap="round" stroke-linejoin="round"/>
    <path d="M 313.55706787109375 323.15997314453125 C 394.0893859863281 299.98760986328125 426.684814453125 290.293701171875 427.5660095214844 292.539794921875 C 430.3008117675781 285.6370544433594 444.90277099609375 242.04693603515625 446.7543029785156 263.383544921875 C 416.9612121582031 282.9822998046875 396.9567565917969 427.89404296875 442.847900390625 378.2366027832031 C 468.099365234375 287.1869201660156 448.3908996582031 220.7860107421875 454.5306091308594 314.0039978027344" stroke-width="6.0" fill="none" stroke="rgb(0, 0, 0)" stroke-opacity="0.9815981" stroke-linecap="round" stroke-linejoin="round"/>
    <path d="M 516.0202026367188 316.7206115722656 C 542.03125 273.5734558105469 556.7028198242188 303.8228759765625 554.8350219726562 293.1727294921875 C 564.6556396484375 298.8813781738281 566.8614501953125 296.59185791015625 543.1937866210938 298.3735656738281 C 544.3054809570312 263.4044494628906 618.6712646484375 228.5023193359375 671.6423950195312 309.7161865234375 C 569.0684204101562 333.3990173339844 531.6575317382812 305.9681701660156 555.1519775390625 317.5134582519531" stroke-width="6.0" fill="none" stroke="rgb(0, 0, 0)" stroke-opacity="0.3368525" stroke-linecap="round" stroke-linejoin="round"/>
    <path d="M 549.2374877929688 75.71460723876953 C 580.8705444335938 88.55555725097656 568.5432739257812 89.289306640625 583.8381958007812 95.1832504272461 C 614.8609008789062 94.50794982910156 651.7839965820312 109.98013305664062 680.3934326171875 84.63614654541016 C 654.0881958007812 41.576210021972656 664.151123046875 42.41012954711914 670.1747436523438 66.85047149658203 C 663.5318603515625 96.757080078125 640.5388793945312 125.53611755371094 633.7701416015625 107.65962982177734" stroke-width="6.0" fill="none" stroke="rgb(0, 0, 0)" stroke-opacity="0.08121411" stroke-linecap="round" stroke-linejoin="round"/>
    <path d="M 84.04014587402344 356.3049011230469 C 119.90092468261719 418.39794921875 123.96849822998047 390.63311767578125 107.76004791259766 362.4454040527344 C 78.74298858642578 303.69219970703125 73.4616470336914 315.5212097167969 120.1571044921875 286.29254150390625 C 194.23175048828125 259.5202331542969 276.4049377441406 253.07412719726562 216.93348693847656 246.47511291503906 C 148.44775390625 215.38818359375 206.90350341796875 178.5109100341797 155.6717987060547 199.06509399414062" stroke-width="6.0" fill="none" stroke="rgb(0, 0, 0)" stroke-opacity="0.4952688" stroke-linecap="round" stroke-linejoin="round"/>
    <path d="M 293.19940185546875 166.9321746826172 C 256.7353820800781 193.688232421875 302.5199890136719 181.17774963378906 332.6473693847656 183.9667510986328 C 306.2786865234375 252.9163360595703 317.2886962890625 255.6487579345703 211.3370819091797 233.1656036376953 C 191.23519897460938 239.984130859375 231.98704528808594 251.22410583496094 289.2674560546875 254.15245056152344 C 321.3982849121094 240.26931762695312 360.79608154296875 212.0600128173828 391.32763671875 205.84266662597656" stroke-width="6.0" fill="none" stroke="rgb(0, 0, 0)" stroke-opacity="0.26279908" stroke-linecap="round" stroke-linejoin="round"/>
    <path d="M 533.5933227539062 120.71653747558594 C 588.1331787109375 114.49317932128906 561.32421875 104.90963745117188 566.6674194335938 139.2342987060547 C 507.8872375488281 152.25616455078125 545.8377075195312 145.37098693847656 546.0115356445312 176.45697021484375 C 537.8984375 208.48561096191406 549.4791870117188 189.30178833007812 538.4256591796875 224.64907836914062 C 516.6480102539062 200.85464477539062 528.0181884765625 210.0801239013672 546.2247924804688 178.42181396484375" stroke-width="6.0" fill="none" stroke="rgb(0, 0, 0)" stroke-opacity="0.46772772" stroke-linecap="round" stroke-linejoin="round"/>
    <path d="M 256.9584655761719 574.3809204101562 C 303.78900146484375 608.5948486328125 318.7708435058594 604.9100341796875 341.8858642578125 607.4540405273438 C 379.84649658203125 618.8302001953125 308.0802307128906 625.1492309570312 335.4349670410156 578.0751342773438 C 301.8785705566406 556.1538696289062 293.27874755859375 556.2850341796875 273.2984619140625 542.1129150390625 C 238.9097442626953 565.1492919921875 256.8631896972656 543.7532958984375 302.7332458496094 580.1593017578125" stroke-width="6.0" fill="none" stroke="rgb(0, 0, 0)" stroke-opacity="0.90504277" stroke-linecap="round" stroke-linejoin="round"/>
    <path d="M 452.4843444824219 262.59307861328125 C 423.48968505859375 319.9536437988281 423.6868896484375 382.18096923828125 441.0279235839844 385.5063781738281 C 431.4202880859375 330.1720275878906 436.3740234375 288.6673583984375 442.13330078125 328.9232482910156 C 484.530029296875 287.1688232421875 453.4515686035156 304.9603576660156 447.51043701171875 329.0957336425781 C 435.2877502441406 326.5332336425781 422.8899230957031 313.40301513671875 447.0996398925781 366.4128723144531" stroke-width="6.0" fill="none" stroke="rgb(0, 0, 0)" stroke-opacity="0.87664306" stroke-linecap="round" stroke-linejoin="round"/>
    <path d="M 515.2373046875 95.79193115234375 C 517.0411987304688 124.78780364990234 523.4774780273438 125.45539855957031 503.1883850097656 150.4372100830078 C 502.6468811035156 150.8137969970703 502.6049499511719 153.29701232910156 486.2984924316406 138.40057373046875 C 564.7136840820312 150.34254455566406 535.0454711914062 130.32164001464844 537.07177734375 132.04534912109375 C 549.3171997070312 148.79319763183594 572.666259765625 135.73794555664062 444.8971252441406 124.35203552246094" stroke-width="6.0" fill="none" stroke="rgb(0, 0, 0)" stroke-opacity="0.5406206" stroke-linecap="round" stroke-linejoin="round"/>
    <path d="M 82.01074981689453 447.0638122558594 C 53.32238006591797 422.97467041015625 40.6306037902832 417.305908203125 69.16401672363281 440.20538330078125 C 62.46345138549805 442.66644287109375 91.15925598144531 461.9692077636719 99.88890075683594 451.4068603515625 C 62.59324645996094 465.73760986328125 17.036020278930664 494.7554016113281 14.961472511291504 491.6377258300781 C 28.0327205657959 488.9590148925781 30.37076187133789 488.42364501953125 85.30606079101562 461.8152770996094" stroke-width="6.0" fill="none" stroke="rgb(0, 0, 0)" stroke-opacity="0.59063274" stroke-linecap="round" stroke-linejoin="round"/>
    <path d="M 500.50360107421875 201.9835662841797 C 410.7494812011719 218.79026794433594 426.12005615234375 198.8321990966797 425.9085998535156 163.49285888671875 C 497.3628845214844 129.3740692138672 447.10968017578125 118.45789337158203 406.5360412597656 140.25950622558594 C 548.6926879882812 134.70144653320312 519.034912109375 165.3173828125 513.6976318359375 83.16339874267578 C 504.8106994628906 23.588321685791016 486.35479736328125 59.59724426269531 571.5094604492188 20.07333755493164" stroke-width="6.0" fill="none" stroke="rgb(0, 0, 0)" stroke-opacity="0.629516" stroke-linecap="round" stroke-linejoin="round"/>
    <path d="M 409.7299499511719 189.97299194335938 C 418.078369140625 159.4209747314453 397.0229797363281 162.03465270996094 390.6683044433594 186.3371124267578 C 413.94708251953125 154.94619750976562 385.280517578125 197.1634979248047 406.32965087890625 199.5505828857422 C 380.86761474609375 242.2721405029297 409.2765197753906 250.2816162109375 404.0518493652344 164.50022888183594 C 413.8585510253906 190.5963134765625 358.6043395996094 238.12664794921875 446.89837646484375 235.22557067871094" stroke-width="6.0" fill="none" stroke="rgb(0, 0, 0)" stroke-opacity="0.5321973" stroke-linecap="round" stroke-linejoin="round"/>
    <path d="M 239.354736328125 52.758522033691406 C 263.21881103515625 128.110595703125 291.65777587890625 157.27273559570312 257.7477111816406 161.49172973632812 C 195.9998016357422 197.47235107421875 197.4337921142578 238.9473114013672 169.85205078125 130.74314880371094 C 233.21847534179688 106.94329071044922 213.58863830566406 111.42405700683594 221.41104125976562 134.72886657714844 C 240.53929138183594 203.10073852539062 235.22789001464844 165.24713134765625 281.8487243652344 150.0135040283203" stroke-width="6.0" fill="none" stroke="rgb(0, 0, 0)" stroke-opacity="0.7276886" stroke-linecap="round" stroke-linejoin="round"/>
    <path d="M 203.00015258789062 205.7807159423828 C 126.93437957763672 234.8365020751953 104.25669860839844 259.1038513183594 130.69444274902344 278.6346130371094 C 68.3726577758789 298.1662902832031 123.0421371459961 317.1907043457031 112.6007080078125 265.2524108886719 C 86.6823501586914 305.5656433105469 92.81890869140625 298.47900390625 83.39865112304688 314.8231506347656 C 121.54562377929688 350.1951599121094 117.09589385986328 432.3876647949219 189.54823303222656 422.5365905761719" stroke-width="6.0" fill="none" stroke="rgb(0, 0, 0)" stroke-opacity="0.9406052" stroke-linecap="round" stroke-linejoin="round"/>
    <path d="M 333.3652038574219 557.216064453125 C 340.60162353515625 554.0761108398438 323.14288330078125 540.95458984375 310.7705383300781 530.53515625 C 335.9481201171875 542.51611328125 342.3255310058594 541.4744262695312 317.3749694824219 604.1422729492188 C 315.3997497558594 633.1099243164062 292.5428161621094 654.4329223632812 269.78363037109375 662.626953125 C 260.19708251953125 669.05517578125 271.38330078125 645.1883544921875 293.01031494140625 671.5631103515625" stroke-width="6.0" fill="none" stroke="rgb(0, 0, 0)" stroke-opacity="0.10621063" stroke-linecap="round" stroke-linejoin="round"/>
    <path d="M 494.5271301269531 208.40341186523438 C 405.41351318359375 232.5633087158203 399.3378601074219 249.04161071777344 369.9087219238281 233.44259643554688 C 402.93572998046875 229.38348388671875 374.15289306640625 261.0876159667969 390.0481262207031 228.9176483154297 C 352.58245849609375 264.24249267578125 282.5916442871094 257.3388671875 282.49468994140625 257.0210876464844 C 405.168212890625 249.23228454589844 380.25006103515625 240.38232421875 394.74761962890625 196.5423126220703" stroke-width="6.0" fill="none" stroke="rgb(0, 0, 0)" stroke-opacity="0.7046861" stroke-linecap="round" stroke-linejoin="round"/>
    <path d="M 418.3040771484375 166.92404174804688 C 370.0129089355469 153.81869506835938 321.1069030761719 159.83895874023438 285.02886962890625 158.71755981445312 C 288.7183532714844 162.21690368652344 284.8907470703125 180.0469970703125 282.29119873046875 199.13758850097656 C 283.9085693359375 160.47372436523438 298.4534912109375 156.05654907226562 263.0397033691406 161.2267303466797 C 278.63336181640625 147.11122131347656 313.4093322753906 134.96263122558594 431.61883544921875 138.56716918945312" stroke-width="6.0" fill="none" stroke="rgb(0, 0, 0)" stroke-opacity="0.64331204" stroke-linecap="round" stroke-linejoin="round"/>
    <path d="M 62.51938247680664 575.2744140625 C 71.50532531738281 555.2579345703125 76.08959197998047 549.5730590820312 71.94515991210938 557.1334838867188 C 76.06934356689453 554.3223266601562 76.61681365966797 551.4139404296875 55.21957778930664 546.3814697265625 C 50.61233139038086 544.58837890625 41.394309997558594 542.2365112304688 38.909873962402344 536.5469360351562 C 42.670448303222656 540.2254638671875 33.97058868408203 537.1727294921875 28.102005004882812 552.9415283203125" stroke-width="6.0" fill="none" stroke="rgb(0, 0, 0)" stroke-opacity="0.42815176" stroke-linecap="round" stroke-linejoin="round"/>
    <path d="M -18.046518325805664 177.38931274414062 C 43.8271598815918 135.47756958007812 39.00831985473633 156.7899932861328 21.69623565673828 146.7761993408203 C 51.25053787231445 139.03623962402344 48.96057891845703 132.79612731933594 53.23500442504883 138.3124237060547 C 55.82878494262695 117.58214569091797 72.42491912841797 180.29310607910156 82.72383117675781 201.03651428222656 C 81.12764739990234 219.9720916748047 65.45877075195312 198.8880615234375 81.19235229492188 206.31039428710938" stroke-width="6.0" fill="none" stroke="rgb(0, 0, 0)" stroke-opacity="0.9676344" stroke-linecap="round" stroke-linejoin="round"/>
    <path d="M 490.2349548339844 212.3607177734375 C 434.89923095703125 222.29940795898438 456.28662109375 245.15028381347656 466.79693603515625 298.45904541015625 C 437.3955383300781 221.87069702148438 449.22900390625 212.62112426757812 474.9654846191406 185.46011352539062 C 555.1492309570312 207.49905395507812 545.9613037109375 246.3787078857422 507.620361328125 244.57078552246094 C 524.5159301757812 241.02529907226562 524.9917602539062 170.31138610839844 491.85888671875 206.8050079345703" stroke-width="6.0" fill="none" stroke="rgb(0, 0, 0)" stroke-opacity="0.18214904" stroke-linecap="round" stroke-linejoin="round"/>
    <path d="M 92.3979263305664 208.56016540527344 C 139.5864715576172 203.23831176757812 125.01229858398438 202.42108154296875 124.15046691894531 153.52613830566406 C 129.66868591308594 213.4480743408203 127.31990051269531 202.2210235595703 112.0583267211914 205.143310546875 C 104.34416198730469 196.9752197265625 143.59515380859375 214.96714782714844 150.57412719726562 187.3717041015625 C 145.59115600585938 209.86636352539062 103.86111450195312 202.45265197753906 5.526275634765625 226.74188232421875" stroke-width="6.0" fill="none" stroke="rgb(0, 0, 0)" stroke-opacity="0.52582765" stroke-linecap="round" stroke-linejoin="round"/>
    <path d="M 500.57269287109375 115.33702087402344 C 501.287353515625 124.39884948730469 489.6727600097656 120.79271697998047 506.5650634765625 121.11481475830078 C 454.4578857421875 118.55614471435547 401.886474609375 129.45120239257812 395.4667663574219 143.8185577392578 C 375.33642578125 60.30524826049805 373.8910827636719 28.175567626953125 361.5471496582031 7.777886867523193 C 346.0988464355469 11.426051139831543 378.9770812988281 6.6127519607543945 289.1953430175781 42.37101364135742" stroke-width="6.0" fill="none" stroke="rgb(0, 0, 0)" stroke-opacity="0.45602748" stroke-linecap="round" stroke-linejoin="round"/>
    <path d="M 449.27557373046875 534.9603271484375 C 451.0812683105469 544.1724853515625 445.402099609375 539.19775390625 463.8974609375 547.0999755859375 C 477.3970031738281 543.0528564453125 489.9181213378906 560.693603515625 487.365478515625 553.3822631835938 C 543.7305908203125 568.6909790039062 561.5759887695312 578.4463500976562 567.8087768554688 598.6464233398438 C 608.7631225585938 604.3788452148438 567.6631469726562 609.7496337890625 454.4322204589844 616.3565673828125" stroke-width="6.0" fill="none" stroke="rgb(0, 0, 0)" stroke-opacity="0.06332193" stroke-linecap="round" stroke-linejoin="round"/>
    <path d="M 422.6296081542969 172.16372680664062 C 439.53570556640625 148.6456298828125 447.12261962890625 136.27728271484375 471.72076416015625 187.1061553955078 C 485.92205810546875 142.42129516601562 526.6092529296875 124.54084014892578 551.6093139648438 167.6947021484375 C 471.7207946777344 232.78628540039062 490.1242370605469 254.08969116210938 532.6076049804688 236.48184204101562 C 505.704833984375 271.2295837402344 528.480224609375 260.2635498046875 533.3605346679688 171.60646057128906" stroke-width="6.0" fill="none" stroke="rgb(0, 0, 0)" stroke-opacity="0.65331966" stroke-linecap="round" stroke-linejoin="round"/>
    <path d="M 455.32440185546875 133.9091033935547 C 466.41131591796875 158.1588134765625 440.3414306640625 141.6182403564453 429.20428466796875 165.13751220703125 C 419.06195068359375 163.65663146972656 417.80169677734375 207.62078857421875 407.3802795410156 238.43670654296875 C 372.0713806152344 235.8606719970703 338.5624084472656 206.0413360595703 410.5791320800781 210.7292938232422 C 414.8931579589844 242.58177185058594 403.1310729980469 235.71856689453125 352.56805419921875 249.0923614501953" stroke-width="6.0" fill="none" stroke="rgb(0, 0, 0)" stroke-opacity="0.86061424" stroke-linecap="round" stroke-linejoin="round"/>
    <path d="M 313.92071533203125 135.11874389648438 C 283.44036865234375 31.777023315429688 295.204833984375 -8.462213516235352 234.70240783691406 54.78529357910156 C 261.82330322265625 67.26346588134766 225.9589385986328 48.00486755371094 237.76483154296875 36.79352569580078 C 229.6140594482422 47.999359130859375 245.16342163085938 32.75944519042969 233.85723876953125 39.39516830444336 C 263.0454406738281 32.545475006103516 294.1527099609375 14.752264022827148 273.4184265136719 21.645389556884766" stroke-width="6.0" fill="none" stroke="rgb(0, 0, 0)" stroke-opacity="0.5479795" stroke-linecap="round" stroke-linejoin="round"/>
    <path d="M 120.2138900756836 513.4839477539062 C 103.26446533203125 527.4959716796875 70.48583221435547 550.7938232421875 103.24923706054688 556.3917236328125 C 103.11698150634766 557.0084228515625 94.93206024169922 551.0971069335938 141.13238525390625 564.98486328125 C 116.1586685180664 561.114501953125 117.5927963256836 559.6314697265625 95.70362091064453 556.114501953125 C 101.648681640625 556.2432861328125 133.15245056152344 560.0574951171875 100.83167266845703 554.865966796875" stroke-width="6.0" fill="none" stroke="rgb(0, 0, 0)" stroke-opacity="0.30210352" stroke-linecap="round" stroke-linejoin="round"/>
    <path d="M 556.7909545898438 383.26129150390625 C 560.1996459960938 372.8421630859375 558.9271240234375 378.523681640625 545.4603881835938 396.34112548828125 C 553.4017333984375 388.0548095703125 538.313232421875 405.6616516113281 555.8013305664062 381.9554443359375 C 546.434814453125 393.9976806640625 557.726318359375 379.7580871582031 560.2850341796875 376.9804382324219 C 552.8203735351562 389.5038146972656 544.5206909179688 390.78717041015625 556.5889282226562 383.63726806640625" stroke-width="6.0" fill="none" stroke="rgb(0, 0, 0)" stroke-opacity="0.61208016" stroke-linecap="round" stroke-linejoin="round"/>
    <path d="M 79.13542938232422 -74.51140594482422 C 77.65010070800781 -32.613014221191406 85.87891387939453 27.99397087097168 62.122013092041016 13.961277961730957 C 9.893305778503418 39.20100402832031 30.159685134887695 24.86041831970215 44.43079376220703 -36.98660659790039 C 22.344255447387695 -24.071638107299805 19.964941024780273 -26.07847023010254 29.575910568237305 -52.868263244628906 C 35.9261474609375 -38.106998443603516 11.280344009399414 -61.34442138671875 5.4421210289001465 -83.57427215576172" stroke-width="6.0" fill="none" stroke="rgb(0, 0, 0)" stroke-opacity="0.18070698" stroke-linecap="round" stroke-linejoin="round"/>
    <path d="M 11.369410514831543 398.73431396484375 C 66.08904266357422 438.90338134765625 90.63896942138672 463.7646179199219 130.81959533691406 487.9107360839844 C 98.70369720458984 472.9574279785156 82.81938171386719 441.3505859375 81.4943618774414 449.3221435546875 C 96.59600830078125 468.8578186035156 92.60485076904297 458.9410095214844 125.99150085449219 485.8186340332031 C 155.06947326660156 507.8743896484375 144.76019287109375 493.6376953125 93.4384994506836 456.6321716308594" stroke-width="6.0" fill="none" stroke="rgb(0, 0, 0)" stroke-opacity="0.789837" stroke-linecap="round" stroke-linejoin="round"/>
    <path d="M 416.96405029296875 378.754150390625 C 395.14288330078125 431.2919006347656 330.0352478027344 391.8852233886719 305.34649658203125 323.1039733886719 C 357.0691833496094 370.3393859863281 352.09576416015625 370.1593017578125 432.0940856933594 307.4242248535156 C 452.1689758300781 353.8245544433594 460.11102294921875 387.7940368652344 456.6403503417969 315.4035339355469 C 487.8874206542969 265.7161865234375 492.36285400390625 254.61337280273438 460.9176330566406 310.394775390625" stroke-width="6.0" fill="none" stroke="rgb(0, 0, 0)" stroke-opacity="0.49655807" stroke-linecap="round" stroke-linejoin="round"/>
    <path d="M 76.59223937988281 87.05782318115234 C 73.62831115722656 77.12762451171875 26.325515747070312 51.06678771972656 33.10761642456055 33.573516845703125 C 37.47607421875 43.50223922729492 40.73440170288086 1.3979198932647705 42.18471145629883 -42.22820281982422 C 46.59474563598633 11.886340141296387 13.124773025512695 44.73350524902344 34.73069381713867 43.352867126464844 C 40.926090240478516 -36.73175811767578 53.80128479003906 -22.70342445373535 -13.79544448852539 -0.17004980146884918" stroke-width="6.0" fill="none" stroke="rgb(0, 0, 0)" stroke-opacity="0.06151856" stroke-linecap="round" stroke-linejoin="round"/>
    <path d="M 439.1338195800781 532.5238647460938 C 451.0306396484375 546.9827270507812 443.2264709472656 522.0657958984375 423.550048828125 552.4077758789062 C 365.3601379394531 608.075927734375 363.6372375488281 604.0103149414062 413.9114074707031 604.1494140625 C 409.0621337890625 606.2166137695312 391.6285400390625 618.96533203125 377.61529541015625 604.372802734375 C 356.4882507324219 613.1796875 380.96710205078125 607.5121459960938 380.75030517578125 632.3644409179688" stroke-width="6.0" fill="none" stroke="rgb(0, 0, 0)" stroke-opacity="0.6398387" stroke-linecap="round" stroke-linejoin="round"/>
    <path d="M 189.41436767578125 506.2230224609375 C 195.95477294921875 483.9530029296875 204.71168518066406 513.1787719726562 208.3346405029297 500.6795959472656 C 232.67059326171875 506.3503723144531 204.7028045654297 487.871826171875 181.03346252441406 510.94775390625 C 181.26776123046875 510.4322509765625 164.66595458984375 506.1227111816406 178.85971069335938 527.08447265625 C 201.02174377441406 526.8648681640625 145.3180694580078 504.44537353515625 143.69297790527344 496.1923522949219" stroke-width="6.0" fill="none" stroke="rgb(0, 0, 0)" stroke-opacity="0.10037719" stroke-linecap="round" stroke-linejoin="round"/>
    <path d="M 268.5614929199219 441.7209777832031 C 217.42640686035156 464.2642822265625 231.5897674560547 449.86871337890625 257.23260498046875 442.45477294921875 C 235.36221313476562 446.4559326171875 234.97280883789062 438.666259765625 238.48989868164062 446.33074951171875 C 265.50750732421875 451.70916748046875 263.21685791015625 412.8941955566406 220.9282989501953 397.5350036621094 C 120.39073944091797 396.3459167480469 108.35232543945312 387.1350402832031 159.15530395507812 357.9434814453125" stroke-width="6.0" fill="none" stroke="rgb(0, 0, 0)" stroke-opacity="0.5306941" stroke-linecap="round" stroke-linejoin="round"/>
    <path d="M 137.05352783203125 200.49771118164062 C 246.48721313476562 176.69760131835938 247.50909423828125 201.9784393310547 213.8318634033203 120.65563201904297 C 109.9344482421875 151.578857421875 126.4639892578125 147.44517517089844 206.91683959960938 115.78040313720703 C 184.39764404296875 39.22528076171875 202.6781768798828 32.18309783935547 138.5487518310547 52.34392166137695 C 161.7191925048828 40.603302001953125 177.35369873046875 62.80241012573242 163.54173278808594 57.531734466552734" stroke-width="6.0" fill="none" stroke="rgb(0, 0, 0)" stroke-opacity="0.43747488" stroke-linecap="round" stroke-linejoin="round"/>
    <path d="M 212.1748504638672 501.7705383300781 C 178.41883850097656 493.4776611328125 158.19677734375 530.21728515625 205.4114532470703 541.4144287109375 C 221.8297576904297 565.6924438476562 202.2589874267578 543.72802734375 162.96376037597656 512.1577758789062 C 161.04324340820312 502.8756103515625 178.98953247070312 518.3494873046875 207.0678253173828 541.6992797851562 C 154.8016357421875 514.7022705078125 132.75213623046875 487.46905517578125 115.10550689697266 480.2991943359375" stroke-width="6.0" fill="none" stroke="rgb(0, 0, 0)" stroke-opacity="0.9414766" stroke-linecap="round" stroke-linejoin="round"/>
    <path d="M 9.085888862609863 390.2420654296875 C 88.93396759033203 457.6263732910156 92.33332824707031 452.6679992675781 36.335594177246094 418.15960693359375 C 71.9982681274414 401.4963684082031 128.7707061767578 388.8953552246094 94.23831939697266 366.62213134765625 C 78.86656188964844 329.45538330078125 135.86582946777344 367.8199462890625 154.77597045898438 422.94061279296875 C 142.2980194091797 419.0642395019531 153.69944763183594 403.16363525390625 147.77572631835938 415.9600830078125" stroke-width="6.0" fill="none" stroke="rgb(0, 0, 0)" stroke-opacity="0.6851557" stroke-linecap="round" stroke-linejoin="round"/>
    <path d="M 442.8022155761719 305.326904296875 C 503.4594421386719 218.1703338623047 496.0635986328125 212.28482055664062 546.24072265625 148.4791259765625 C 460.73681640625 152.1504669189453 498.1663818359375 154.52735900878906 456.951416015625 138.85421752929688 C 430.8213806152344 138.44203186035156 439.82720947265625 138.6212615966797 455.03936767578125 135.73391723632812 C 487.1783447265625 185.7244415283203 502.1051025390625 140.81954956054688 431.25408935546875 229.45460510253906" stroke-width="6.0" fill="none" stroke="rgb(0, 0, 0)" stroke-opacity="0.9110708" stroke-linecap="round" stroke-linejoin="round"/>
    <path d="M 85.7272720336914 249.57763671875 C 87.34330749511719 249.49172973632812 79.4074935913086 256.6169128417969 85.705322265625 250.7903289794922 C 99.15461730957031 248.8119354248047 106.5073013305664 221.90847778320312 80.55071258544922 234.6994171142578 C -28.37325668334961 260.0224914550781 -22.49778938293457 258.4271545410156 -7.287600994110107 349.12939453125 C -3.324080228805542 397.5435791015625 -3.929677963256836 385.2838439941406 96.65864562988281 345.8960876464844" stroke-width="6.0" fill="none" stroke="rgb(0, 0, 0)" stroke-opacity="0.59547395" stroke-linecap="round" stroke-linejoin="round"/>
  </g>
</svg>
