<?xml version="1.0" ?>
<svg xmlns="http://www.w3.org/2000/svg" version="1.1" width="600" height="600">
  <defs/>
  <g>
    <path d="M 232.34182739257812 96.79522705078125 C 221.46554565429688 127.79988861083984 250.9260711669922 126.20775604248047 248.3382110595703 99.5459213256836 C 241.36929321289062 54.463802337646484 210.83029174804688 98.10786437988281 204.76649475097656 73.34615325927734 C 200.11569213867188 36.05547332763672 147.2891845703125 52.26988983154297 134.6762237548828 103.97834014892578 C 132.75936889648438 198.65725708007812 132.16571044921875 148.947998046875 218.48133850097656 115.1136703491211" stroke-width="6.0" fill="none" stroke="rgb(0, 0, 0)" stroke-opacity="0.12753469" stroke-linecap="round" stroke-linejoin="round"/>
    <path d="M 387.8197021484375 47.41069412231445 C 378.6129455566406 26.219642639160156 382.5677490234375 39.72855758666992 392.01776123046875 94.25829315185547 C 328.8894348144531 126.20907592773438 340.109130859375 117.63172912597656 331.168212890625 123.07836151123047 C 343.0663757324219 175.41720581054688 335.22882080078125 194.5657501220703 350.1434020996094 189.6448516845703 C 336.39373779296875 189.747802734375 301.6169738769531 137.17813110351562 277.1938781738281 148.25836181640625" stroke-width="6.0" fill="none" stroke="rgb(0, 0, 0)" stroke-opacity="0.31926483" stroke-linecap="round" stroke-linejoin="round"/>
    <path d="M 151.98057556152344 284.78485107421875 C 185.8462677001953 254.81893920898438 189.36708068847656 256.4851989746094 226.9651336669922 239.3174591064453 C 254.77432250976562 218.25582885742188 263.1329040527344 212.7050018310547 349.1062927246094 188.78530883789062 C 374.928955078125 218.73333740234375 312.07843017578125 206.236328125 248.34275817871094 231.38107299804688 C 265.1555480957031 215.15135192871094 237.9293212890625 232.92938232421875 263.3492736816406 212.94215393066406" stroke-width="6.0" fill="none" stroke="rgb(0, 0, 0)" stroke-opacity="0.9764806" stroke-linecap="round" stroke-linejoin="round"/>
    <path d="M 468.8125915527344 366.12890625 C 495.2707214355469 340.0484924316406 524.6836547851562 310.96624755859375 554.88818359375 304.8898620605469 C 475.8495788574219 356.85272216796875 423.6484069824219 423.84930419921875 437.1993408203125 351.88385009765625 C 380.1587829589844 275.21002197265625 451.1656799316406 315.8846740722656 453.0290222167969 344.51043701171875 C 395.1286315917969 320.93255615234375 393.3503723144531 395.901611328125 444.16033935546875 417.634033203125" stroke-width="6.0" fill="none" stroke="rgb(0, 0, 0)" stroke-opacity="0.8772913" stroke-linecap="round" stroke-linejoin="round"/>
    <path d="M 371.0121765136719 386.9870910644531 C 398.9411926269531 515.705810546875 393.9964904785156 425.5557861328125 365.2293701171875 365.52276611328125 C 369.0601806640625 380.5067138671875 382.8786315917969 369.1399841308594 395.9706115722656 379.3197021484375 C 402.39337158203125 296.4209289550781 382.5656433105469 280.86956787109375 444.416259765625 316.51116943359375 C 428.13555908203125 258.7678527832031 346.4571228027344 300.46429443359375 375.2832946777344 427.8693542480469" stroke-width="6.0" fill="none" stroke="rgb(0, 0, 0)" stroke-opacity="0.8787895" stroke-linecap="round" stroke-linejoin="round"/>
    <path d="M 104.55513000488281 101.65391540527344 C 110.33670806884766 100.01203155517578 102.78604888916016 97.2093734741211 100.9609603881836 79.64736938476562 C 103.45573425292969 94.34369659423828 103.38339233398438 92.2947998046875 100.44393157958984 78.10923767089844 C 103.7977066040039 92.71273803710938 106.59919738769531 86.89852905273438 97.29849243164062 70.36222076416016 C 104.79727172851562 94.55426788330078 102.34174346923828 88.1038589477539 104.18933868408203 97.95545959472656" stroke-width="6.0" fill="none" stroke="rgb(0, 0, 0)" stroke-opacity="0.8014383" stroke-linecap="round" stroke-linejoin="round"/>
    <path d="M 555.834228515625 486.4312744140625 C 566.6810913085938 493.001708984375 562.2804565429688 483.3576965332031 546.7977294921875 477.94921875 C 559.7999877929688 488.41058349609375 554.2953491210938 481.2539978027344 579.990234375 497.46075439453125 C 543.7471313476562 474.21343994140625 519.8133544921875 466.7287902832031 537.984619140625 474.93853759765625 C 523.881591796875 465.20123291015625 522.55810546875 469.2665100097656 517.0127563476562 460.516845703125" stroke-width="6.0" fill="none" stroke="rgb(0, 0, 0)" stroke-opacity="0.38296977" stroke-linecap="round" stroke-linejoin="round"/>
    <path d="M 3.4069340229034424 381.6236572265625 C 11.868500709533691 378.4891662597656 -11.144209861755371 391.7141418457031 -34.551883697509766 378.31280517578125 C -3.049854040145874 401.5618591308594 -5.07269811630249 382.9365539550781 -24.151561737060547 390.30499267578125 C -12.931876182556152 391.6598815917969 24.009408950805664 377.64886474609375 81.54545593261719 323.5661315917969 C 78.54560852050781 321.28363037109375 58.25137710571289 356.466552734375 19.11653709411621 389.3673400878906" stroke-width="6.0" fill="none" stroke="rgb(0, 0, 0)" stroke-opacity="0.5488043" stroke-linecap="round" stroke-linejoin="round"/>
    <path d="M 407.1177673339844 444.2962341308594 C 317.1510925292969 478.38128662109375 342.16033935546875 458.62469482421875 410.50518798828125 457.1500549316406 C 383.6549072265625 381.70538330078125 352.6797180175781 438.08837890625 400.5138244628906 455.8979187011719 C 366.5895080566406 367.1804504394531 357.687744140625 353.2567443847656 385.2146911621094 347.9101257324219 C 334.6771545410156 366.6148376464844 359.32733154296875 364.7486877441406 283.9100646972656 402.8980712890625" stroke-width="6.0" fill="none" stroke="rgb(0, 0, 0)" stroke-opacity="0.41218802" stroke-linecap="round" stroke-linejoin="round"/>
    <path d="M 107.41944885253906 562.9035034179688 C 110.71038055419922 551.3501586914062 107.54415893554688 568.079833984375 113.34076690673828 532.3800048828125 C 115.6324234008789 495.660888671875 109.79401397705078 502.9162902832031 81.9633560180664 499.9864807128906 C 193.2630157470703 502.24884033203125 168.58636474609375 507.04248046875 125.75177764892578 499.0077819824219 C 126.90909576416016 501.98907470703125 112.8896484375 500.7630920410156 125.91527557373047 503.1297302246094" stroke-width="6.0" fill="none" stroke="rgb(0, 0, 0)" stroke-opacity="0.32694876" stroke-linecap="round" stroke-linejoin="round"/>
    <path d="M 338.0139465332031 48.01774978637695 C 334.3246765136719 121.46263885498047 319.4765319824219 150.12481689453125 347.82110595703125 180.4355926513672 C 393.62127685546875 143.79248046875 447.19683837890625 178.35987854003906 424.5158386230469 160.97625732421875 C 317.3204650878906 149.06988525390625 347.719970703125 118.937744140625 367.755615234375 104.22747039794922 C 336.16510009765625 126.63655090332031 298.9796447753906 133.14112854003906 277.7237854003906 116.96961975097656" stroke-width="6.0" fill="none" stroke="rgb(0, 0, 0)" stroke-opacity="0.012369854" stroke-linecap="round" stroke-linejoin="round"/>
    <path d="M 87.98766326904297 504.51129150390625 C 58.16584396362305 490.2861633300781 63.16922378540039 492.5531005859375 53.40605545043945 515.8624267578125 C 47.120975494384766 555.1748657226562 45.66042709350586 549.6668701171875 44.31182861328125 556.6988525390625 C 43.064815521240234 549.95068359375 48.33216094970703 543.0804443359375 49.83584213256836 531.88134765625 C 46.4980354309082 539.750244140625 42.67973709106445 547.640380859375 43.068302154541016 555.9263916015625" stroke-width="6.0" fill="none" stroke="rgb(0, 0, 0)" stroke-opacity="0.63448054" stroke-linecap="round" stroke-linejoin="round"/>
    <path d="M 330.6716613769531 375.3389892578125 C 368.1158752441406 354.52008056640625 402.27471923828125 333.2308654785156 375.0406494140625 344.265869140625 C 364.75982666015625 396.0249938964844 417.6761779785156 455.10821533203125 396.4314880371094 363.63787841796875 C 368.6596374511719 363.2760009765625 357.4957580566406 363.9157409667969 402.31243896484375 293.57122802734375 C 443.1535339355469 292.7868347167969 472.076904296875 320.1354675292969 406.7018127441406 365.8514099121094" stroke-width="6.0" fill="none" stroke="rgb(0, 0, 0)" stroke-opacity="0.8143755" stroke-linecap="round" stroke-linejoin="round"/>
    <path d="M 429.2215576171875 437.8603820800781 C 398.8079528808594 458.4184265136719 406.35028076171875 471.1001892089844 451.43475341796875 460.992431640625 C 449.27154541015625 426.61651611328125 440.8206787109375 419.7032165527344 495.9123840332031 450.5588073730469 C 540.4412841796875 470.6610412597656 533.7186889648438 483.4895324707031 523.1397705078125 459.23828125 C 536.5454711914062 475.1363525390625 511.69036865234375 462.9701843261719 521.4053344726562 481.9179992675781" stroke-width="6.0" fill="none" stroke="rgb(0, 0, 0)" stroke-opacity="0.10339806" stroke-linecap="round" stroke-linejoin="round"/>
    <path d="M 346.5373229980469 546.0183715820312 C 283.4559631347656 469.0719909667969 289.21319580078125 485.2575988769531 398.5631408691406 453.41168212890625 C 387.8474426269531 437.862548828125 365.8779602050781 469.0904846191406 381.5979919433594 445.51580810546875 C 348.2923583984375 369.6077880859375 409.2154235839844 351.9201354980469 454.1764221191406 417.7806396484375 C 413.9319763183594 486.7093505859375 372.8487548828125 428.46746826171875 370.4768371582031 341.76116943359375" stroke-width="6.0" fill="none" stroke="rgb(0, 0, 0)" stroke-opacity="0.42638153" stroke-linecap="round" stroke-linejoin="round"/>
    <path d="M 278.4412536621094 57.38869857788086 C 290.70343017578125 106.82476043701172 291.1059265136719 121.00016784667969 305.8453674316406 187.16844177246094 C 324.3166198730469 177.5236358642578 395.9854736328125 162.5019073486328 361.8985900878906 149.20103454589844 C 370.12786865234375 119.36835479736328 348.51416015625 122.81348419189453 389.93341064453125 123.681396484375 C 447.7205505371094 160.6978302001953 421.42071533203125 143.5808868408203 447.5251159667969 99.1531753540039" stroke-width="6.0" fill="none" stroke="rgb(0, 0, 0)" stroke-opacity="0.4146034" stroke-linecap="round" stroke-linejoin="round"/>
    <path d="M 483.787353515625 170.29766845703125 C 477.4805908203125 172.79461669921875 496.9313049316406 177.5360870361328 509.95501708984375 191.52171325683594 C 542.97314453125 178.28857421875 535.4391479492188 156.8535919189453 570.2496948242188 161.54757690429688 C 557.9364624023438 138.17112731933594 549.3951416015625 194.8699188232422 503.32574462890625 176.23023986816406 C 451.0997619628906 171.18319702148438 514.1732788085938 166.42431640625 622.9375 145.50132751464844" stroke-width="6.0" fill="none" stroke="rgb(0, 0, 0)" stroke-opacity="0.74765885" stroke-linecap="round" stroke-linejoin="round"/>
    <path d="M 566.2525024414062 60.676509857177734 C 560.6323852539062 65.93028259277344 562.8411254882812 47.43340301513672 572.928955078125 96.65306091308594 C 568.874755859375 94.86878204345703 572.91162109375 98.7688217163086 630.3287353515625 75.66666412353516 C 560.3076782226562 49.70865249633789 595.2213134765625 60.972900390625 586.757568359375 76.02567291259766 C 547.013427734375 55.658687591552734 560.2635498046875 63.204036712646484 601.2703857421875 40.96840286254883" stroke-width="6.0" fill="none" stroke="rgb(0, 0, 0)" stroke-opacity="0.9605404" stroke-linecap="round" stroke-linejoin="round"/>
    <path d="M 17.85830307006836 477.2137145996094 C 77.47367095947266 440.5642395019531 66.74993896484375 440.23583984375 49.8741340637207 425.6475830078125 C -2.6808722019195557 392.3077087402344 -12.90926456451416 391.329345703125 36.94662094116211 375.4285583496094 C 9.063932418823242 385.2810363769531 -24.206510543823242 383.1921691894531 60.39057540893555 448.9742736816406 C 79.96493530273438 456.3329162597656 74.55550384521484 433.23834228515625 42.05109786987305 461.7247009277344" stroke-width="6.0" fill="none" stroke="rgb(0, 0, 0)" stroke-opacity="0.9479908" stroke-linecap="round" stroke-linejoin="round"/>
    <path d="M 349.6085205078125 465.3380432128906 C 222.1827850341797 518.4624633789062 207.34124755859375 536.5266723632812 277.2030944824219 482.1225891113281 C 323.8469543457031 442.1127624511719 299.4021301269531 462.93487548828125 264.87860107421875 475.81878662109375 C 221.65968322753906 442.1913757324219 260.5238342285156 486.9740295410156 205.8020782470703 437.34173583984375 C 246.1292266845703 411.4931335449219 241.2908477783203 441.9305725097656 312.7239990234375 460.3384704589844" stroke-width="6.0" fill="none" stroke="rgb(0, 0, 0)" stroke-opacity="0.70498425" stroke-linecap="round" stroke-linejoin="round"/>
    <path d="M 234.52908325195312 554.1138305664062 C 238.69068908691406 552.3697509765625 235.4481201171875 553.4244995117188 222.1598663330078 516.6063232421875 C 209.506591796875 496.6741943359375 218.6322479248047 515.6815795898438 242.18661499023438 506.90924072265625 C 177.4027099609375 504.7035827636719 205.8927001953125 516.6765747070312 200.95204162597656 448.4633483886719 C 277.29815673828125 479.3518371582031 263.5697021484375 482.8034973144531 204.74560546875 430.24285888671875" stroke-width="6.0" fill="none" stroke="rgb(0, 0, 0)" stroke-opacity="0.6647399" stroke-linecap="round" stroke-linejoin="round"/>
    <path d="M 565.806884765625 196.74322509765625 C 553.874755859375 281.5592041015625 531.3693237304688 330.57354736328125 558.1622924804688 204.44546508789062 C 588.1653442382812 206.70298767089844 554.1486206054688 192.58554077148438 509.48309326171875 198.4419403076172 C 427.1611328125 226.68348693847656 456.4826354980469 251.41580200195312 503.82354736328125 228.37110900878906 C 419.1527099609375 219.54310607910156 442.3209533691406 252.8446502685547 457.4695739746094 261.9635314941406" stroke-width="6.0" fill="none" stroke="rgb(0, 0, 0)" stroke-opacity="0.68463254" stroke-linecap="round" stroke-linejoin="round"/>
    <path d="M 101.69236755371094 98.51061248779297 C 111.81932830810547 115.0186996459961 122.70841979980469 135.5861053466797 107.53736114501953 121.12703704833984 C 104.6982192993164 135.4626922607422 142.35345458984375 127.52421569824219 135.5169677734375 127.51490020751953 C 148.2026824951172 156.4249267578125 163.3912811279297 186.06307983398438 156.77488708496094 169.38401794433594 C 159.61717224121094 185.20602416992188 191.49908447265625 163.33206176757812 201.7095947265625 158.93186950683594" stroke-width="6.0" fill="none" stroke="rgb(0, 0, 0)" stroke-opacity="0.07645657" stroke-linecap="round" stroke-linejoin="round"/>
    <path d="M 505.466064453125 319.2712097167969 C 431.90740966796875 381.9586181640625 467.31878662109375 411.1076354980469 451.80548095703125 415.4742431640625 C 416.57550048828125 377.15533447265625 412.7525634765625 362.8680419921875 405.4288635253906 293.2923583984375 C 486.5460510253906 325.6616516113281 429.64715576171875 340.3335266113281 404.8880615234375 420.7193603515625 C 419.8388977050781 383.6559143066406 408.0168762207031 324.1648254394531 448.47998046875 394.02728271484375" stroke-width="6.0" fill="none" stroke="rgb(0, 0, 0)" stroke-opacity="0.9744807" stroke-linecap="round" stroke-linejoin="round"/>
    <path d="M 380.8902893066406 467.6069030761719 C 427.6594543457031 449.2361145019531 442.1925964355469 443.7089538574219 426.70172119140625 488.332275390625 C 357.3358154296875 474.97802734375 364.93524169921875 439.8254089355469 427.666748046875 443.2691955566406 C 438.4942932128906 501.9563293457031 430.14056396484375 468.85089111328125 420.7484130859375 465.91302490234375 C 398.3515319824219 457.31982421875 408.5086669921875 455.46502685546875 443.46466064453125 437.1315002441406" stroke-width="6.0" fill="none" stroke="rgb(0, 0, 0)" stroke-opacity="0.031096749" stroke-linecap="round" stroke-linejoin="round"/>
    <path d="M 356.8037109375 273.5312805175781 C 428.5038146972656 284.7314453125 247.8043212890625 342.2098388671875 205.04737854003906 414.39892578125 C 280.344970703125 411.0505065917969 270.06494140625 387.4474182128906 206.0013427734375 414.4759826660156 C 148.24708557128906 426.2899475097656 162.40745544433594 430.8107604980469 224.90977478027344 444.17144775390625 C 145.83546447753906 448.36480712890625 122.6977310180664 444.7547912597656 249.1503143310547 428.3729553222656" stroke-width="6.0" fill="none" stroke="rgb(0, 0, 0)" stroke-opacity="0.67753094" stroke-linecap="round" stroke-linejoin="round"/>
    <path d="M 254.78973388671875 508.69580078125 C 297.1943054199219 497.1995849609375 330.6324768066406 473.0785217285156 360.8107604980469 455.1352844238281 C 411.50506591796875 465.2679748535156 407.556640625 435.34124755859375 423.909912109375 407.7794494628906 C 388.7569885253906 338.9635925292969 420.23175048828125 416.9632873535156 369.7584533691406 456.41937255859375 C 366.35137939453125 455.79864501953125 408.4703674316406 397.94110107421875 384.1612854003906 454.2186279296875" stroke-width="6.0" fill="none" stroke="rgb(0, 0, 0)" stroke-opacity="0.68808264" stroke-linecap="round" stroke-linejoin="round"/>
    <path d="M 240.7404022216797 240.78298950195312 C 193.50022888183594 280.66827392578125 163.23330688476562 287.38671875 150.6887969970703 290.1747741699219 C 148.04766845703125 300.1710205078125 149.629638671875 301.1012878417969 155.15945434570312 286.59197998046875 C 187.3041534423828 277.0313720703125 253.3496856689453 292.8329772949219 253.4379425048828 293.3662109375 C 153.1583251953125 296.9061584472656 158.89295959472656 308.30419921875 134.6208038330078 211.85427856445312" stroke-width="6.0" fill="none" stroke="rgb(0, 0, 0)" stroke-opacity="0.4631859" stroke-linecap="round" stroke-linejoin="round"/>
    <path d="M 584.1668701171875 116.65396118164062 C 462.6990661621094 149.19342041015625 414.1282958984375 163.3897705078125 390.4876403808594 170.11105346679688 C 394.65911865234375 85.39087677001953 347.3373107910156 115.48970031738281 374.536865234375 175.50779724121094 C 353.70574951171875 191.41513061523438 438.5688171386719 161.04144287109375 498.48492431640625 162.52517700195312 C 448.5153503417969 187.21612548828125 422.88946533203125 162.96189880371094 403.0694885253906 253.6849365234375" stroke-width="6.0" fill="none" stroke="rgb(0, 0, 0)" stroke-opacity="0.80279905" stroke-linecap="round" stroke-linejoin="round"/>
    <path d="M 202.20579528808594 440.1545715332031 C 264.0267333984375 414.4424743652344 320.384033203125 394.7684631347656 278.74462890625 383.42547607421875 C 293.0680236816406 350.6788635253906 317.7914733886719 348.02667236328125 356.9809875488281 297.47021484375 C 264.8618469238281 307.7257080078125 314.667724609375 297.9357604980469 320.7012939453125 278.0148620605469 C 313.0674133300781 275.1919250488281 359.17156982421875 279.1666259765625 475.7728576660156 225.31640625" stroke-width="6.0" fill="none" stroke="rgb(0, 0, 0)" stroke-opacity="0.36720374" stroke-linecap="round" stroke-linejoin="round"/>
    <path d="M 84.20061492919922 450.05889892578125 C 58.748741149902344 423.3387145996094 39.15660858154297 422.1745300292969 3.1668622493743896 443.6249084472656 C -70.77469635009766 486.3049011230469 -48.58885192871094 487.9668884277344 -58.96994400024414 527.0640869140625 C -10.025339126586914 555.6559448242188 -27.426244735717773 533.9402465820312 -51.94166564941406 542.9044799804688 C -72.65151977539062 520.3128051757812 -53.35437774658203 505.7828674316406 -45.135128021240234 482.595458984375" stroke-width="6.0" fill="none" stroke="rgb(0, 0, 0)" stroke-opacity="0.83596724" stroke-linecap="round" stroke-linejoin="round"/>
    <path d="M 568.5109252929688 424.2626037597656 C 442.3184509277344 372.28851318359375 435.4612731933594 376.03887939453125 481.61077880859375 358.79095458984375 C 537.6812133789062 311.388916015625 532.2444458007812 342.2713317871094 515.2700805664062 309.9542541503906 C 529.24169921875 292.0588073730469 583.39453125 241.9234619140625 607.0064086914062 265.6955261230469 C 516.6781616210938 325.464111328125 532.7108154296875 293.60858154296875 617.2617797851562 289.99322509765625" stroke-width="6.0" fill="none" stroke="rgb(0, 0, 0)" stroke-opacity="0.8325193" stroke-linecap="round" stroke-linejoin="round"/>
    <path d="M 18.552825927734375 408.1593322753906 C 16.50392723083496 429.2515869140625 44.48208236694336 439.6700744628906 129.72047424316406 432.711669921875 C 93.11750793457031 456.991943359375 130.7539825439453 440.85906982421875 134.2827911376953 461.16900634765625 C 173.3124542236328 427.5170593261719 258.1022644042969 423.2456359863281 245.3433074951172 428.70599365234375 C 142.39169311523438 434.694091796875 76.15721893310547 435.3488464355469 139.2091064453125 443.4986267089844" stroke-width="6.0" fill="none" stroke="rgb(0, 0, 0)" stroke-opacity="0.96748704" stroke-linecap="round" stroke-linejoin="round"/>
    <path d="M 100.42424774169922 77.83634948730469 C 100.76412963867188 82.97639465332031 111.0449447631836 112.18444061279297 111.9093246459961 126.35014343261719 C 124.21941375732422 167.38241577148438 137.34378051757812 212.4840087890625 131.34210205078125 208.99288940429688 C 79.5525894165039 215.38978576660156 81.35862731933594 221.35726928710938 100.09617614746094 214.50885009765625 C 59.77958297729492 214.5923309326172 59.32548522949219 220.0503692626953 65.94689178466797 216.74855041503906" stroke-width="6.0" fill="none" stroke="rgb(0, 0, 0)" stroke-opacity="0.78836256" stroke-linecap="round" stroke-linejoin="round"/>
    <path d="M 523.2318115234375 543.4759521484375 C 508.87689208984375 534.7918090820312 517.237548828125 533.7806396484375 519.9138793945312 536.1126098632812 C 501.3546142578125 524.2018432617188 510.2016906738281 532.4576416015625 510.7471923828125 529.607666015625 C 487.6248474121094 509.72607421875 485.84246826171875 514.2427978515625 494.5390319824219 518.5062866210938 C 510.84521484375 530.1591186523438 517.1753540039062 536.48876953125 516.2265625 535.4639892578125" stroke-width="6.0" fill="none" stroke="rgb(0, 0, 0)" stroke-opacity="0.80232686" stroke-linecap="round" stroke-linejoin="round"/>
    <path d="M 329.7690734863281 344.6404724121094 C 347.2676086425781 362.41357421875 364.154052734375 369.8623046875 396.5404357910156 372.51812744140625 C 370.63897705078125 381.3979187011719 316.79876708984375 349.72137451171875 322.0929870605469 321.4855651855469 C 304.6171875 330.4788818359375 328.7074890136719 301.8069763183594 324.569580078125 337.6131591796875 C 256.71649169921875 366.4436950683594 198.45925903320312 419.71600341796875 269.3307189941406 385.0921630859375" stroke-width="6.0" fill="none" stroke="rgb(0, 0, 0)" stroke-opacity="0.14133544" stroke-linecap="round" stroke-linejoin="round"/>
    <path d="M 375.24737548828125 172.74172973632812 C 367.03076171875 161.89471435546875 361.7777404785156 158.13714599609375 372.6026306152344 182.90647888183594 C 323.66522216796875 188.61212158203125 355.067138671875 212.62399291992188 329.5246276855469 122.0566177368164 C 281.3376159667969 147.58505249023438 295.0138244628906 121.64874267578125 308.1036071777344 197.261474609375 C 245.41281127929688 247.1871337890625 235.35704040527344 216.4993896484375 421.60052490234375 198.6534423828125" stroke-width="6.0" fill="none" stroke="rgb(0, 0, 0)" stroke-opacity="0.45992917" stroke-linecap="round" stroke-linejoin="round"/>
    <path d="M 388.3009033203125 95.93562316894531 C 400.8623352050781 89.8130111694336 402.0219421386719 93.15778350830078 405.94879150390625 87.91535949707031 C 442.0362243652344 74.03811645507812 481.99676513671875 56.73447799682617 490.2689514160156 47.163326263427734 C 498.9203796386719 121.22900390625 518.8983154296875 147.55905151367188 472.58111572265625 146.4306182861328 C 462.4537658691406 162.7516632080078 477.0447998046875 171.39492797851562 510.08514404296875 197.93568420410156" stroke-width="6.0" fill="none" stroke="rgb(0, 0, 0)" stroke-opacity="0.4394489" stroke-linecap="round" stroke-linejoin="round"/>
    <path d="M 63.15138244628906 150.4709930419922 C 66.39788818359375 152.00924682617188 66.31644439697266 137.6399383544922 56.67526626586914 152.6158447265625 C 37.0066032409668 138.4238739013672 -10.571249008178711 151.7424774169922 -26.020389556884766 157.0256805419922 C -30.111515045166016 201.67071533203125 -8.762701988220215 233.51010131835938 -5.03058385848999 233.5831298828125 C -32.726097106933594 222.6468505859375 -65.07921600341797 220.02305603027344 -68.41837310791016 184.98878479003906" stroke-width="6.0" fill="none" stroke="rgb(0, 0, 0)" stroke-opacity="0.122769624" stroke-linecap="round" stroke-linejoin="round"/>
    <path d="M -2.804661750793457 -19.840843200683594 C -18.712228775024414 18.288530349731445 -25.6978702545166 47.11039352416992 -36.781185150146484 55.194217681884766 C -45.72113037109375 48.56422424316406 -55.4105339050293 39.95465087890625 -37.82204055786133 65.87825775146484 C -9.18387508392334 92.72063446044922 -12.642671585083008 118.59578704833984 -17.442731857299805 117.48693084716797 C -31.068281173706055 99.8636245727539 -48.456539154052734 111.81632995605469 -65.4351577758789 126.93683624267578" stroke-width="6.0" fill="none" stroke="rgb(0, 0, 0)" stroke-opacity="0.8199196" stroke-linecap="round" stroke-linejoin="round"/>
    <path d="M 542.3770751953125 316.6817626953125 C 615.1495361328125 252.49737548828125 616.2365112304688 292.07958984375 621.0955200195312 338.4436950683594 C 567.8209838867188 210.93765258789062 626.7217407226562 205.53887939453125 583.941650390625 284.8598327636719 C 612.4749145507812 302.7144775390625 576.015869140625 237.49295043945312 611.59326171875 187.12374877929688 C 682.571044921875 153.4405059814453 684.7559814453125 174.88523864746094 673.36572265625 250.18319702148438" stroke-width="6.0" fill="none" stroke="rgb(0, 0, 0)" stroke-opacity="0.92644477" stroke-linecap="round" stroke-linejoin="round"/>
    <path d="M 184.6167755126953 506.73577880859375 C 110.18495178222656 507.00592041015625 165.63250732421875 503.1687927246094 203.91729736328125 513.6198120117188 C 211.83804321289062 492.229248046875 112.51663970947266 525.2152099609375 27.367517471313477 485.73516845703125 C 151.7681427001953 530.7340698242188 206.46334838867188 498.1420593261719 172.1782684326172 506.2474060058594 C 116.83108520507812 499.32830810546875 111.7932357788086 498.72857666015625 111.527099609375 527.168212890625" stroke-width="6.0" fill="none" stroke="rgb(0, 0, 0)" stroke-opacity="0.9413415" stroke-linecap="round" stroke-linejoin="round"/>
    <path d="M 442.9198303222656 269.7799072265625 C 424.7144470214844 335.7863464355469 395.7779541015625 266.45556640625 458.0782470703125 362.0320739746094 C 395.2225036621094 397.6929016113281 393.3119812011719 374.80841064453125 439.4620056152344 378.7989501953125 C 430.5198974609375 349.7921447753906 368.1302795410156 293.5957336425781 370.3522644042969 350.9236145019531 C 371.4013977050781 462.5618896484375 387.9733581542969 499.5063781738281 391.4289245605469 377.220458984375" stroke-width="6.0" fill="none" stroke="rgb(0, 0, 0)" stroke-opacity="0.17998768" stroke-linecap="round" stroke-linejoin="round"/>
    <path d="M 392.0393981933594 373.5870056152344 C 331.4977111816406 375.4138488769531 319.39923095703125 355.2798767089844 316.1537780761719 319.7535400390625 C 278.2135009765625 345.898681640625 270.7095031738281 351.6955871582031 332.1158752441406 322.8199768066406 C 320.2638854980469 338.7569274902344 293.0781555175781 360.5826416015625 267.63037109375 390.5231628417969 C 281.1855163574219 373.4483947753906 269.2916564941406 303.07196044921875 262.7106628417969 399.4564208984375" stroke-width="6.0" fill="none" stroke="rgb(0, 0, 0)" stroke-opacity="0.46485695" stroke-linecap="round" stroke-linejoin="round"/>
    <path d="M -7.925343036651611 579.214111328125 C 2.8794543743133545 582.1109008789062 -17.326045989990234 545.54541015625 -18.48887062072754 530.8585815429688 C -10.46596622467041 530.1057739257812 -6.339016914367676 552.9482421875 -16.159574508666992 566.267333984375 C -22.898881912231445 595.3890991210938 -17.63681983947754 599.8915405273438 -41.81886291503906 590.0070190429688 C -54.0182991027832 609.7377319335938 -57.75401306152344 633.8131713867188 -64.3044204711914 641.1345825195312" stroke-width="6.0" fill="none" stroke="rgb(0, 0, 0)" stroke-opacity="0.6771546" stroke-linecap="round" stroke-linejoin="round"/>
    <path d="M 107.97295379638672 99.03446197509766 C 100.95014190673828 72.09352111816406 91.82398986816406 55.62314224243164 103.9313735961914 84.11849212646484 C 114.55823516845703 110.02607727050781 88.99617767333984 95.117431640625 69.99285888671875 101.9094467163086 C 9.690897941589355 92.30394744873047 -17.34320640563965 88.64286041259766 -57.557098388671875 96.71617126464844 C -0.5323507189750671 96.28962707519531 -21.03401756286621 125.2535171508789 -13.9501371383667 155.33932495117188" stroke-width="6.0" fill="none" stroke="rgb(0, 0, 0)" stroke-opacity="0.10661918" stroke-linecap="round" stroke-linejoin="round"/>
    <path d="M 465.0018005371094 607.1392211914062 C 503.76953125 604.4435424804688 502.80511474609375 622.986572265625 502.1387023925781 639.4782104492188 C 480.3884582519531 650.4747314453125 475.5563659667969 651.1193237304688 495.593505859375 677.2793579101562 C 519.495849609375 704.0941772460938 521.4697265625 700.8853149414062 528.705322265625 728.3494262695312 C 503.8679504394531 722.0669555664062 522.5307006835938 718.2721557617188 530.9970703125 746.9724731445312" stroke-width="6.0" fill="none" stroke="rgb(0, 0, 0)" stroke-opacity="0.2896969" stroke-linecap="round" stroke-linejoin="round"/>
    <path d="M 131.23570251464844 260.8537292480469 C 20.58082389831543 282.4676513671875 7.683967590332031 289.2178039550781 50.46554183959961 279.4451904296875 C 26.76892852783203 203.76519775390625 25.569976806640625 191.64785766601562 11.951345443725586 160.24085998535156 C -92.64466857910156 259.20672607421875 -96.18545532226562 233.46951293945312 -84.77616119384766 256.2432861328125 C 9.237695693969727 313.0234375 -16.528400421142578 322.2160339355469 -30.07597541809082 322.0555725097656" stroke-width="6.0" fill="none" stroke="rgb(0, 0, 0)" stroke-opacity="0.5891805" stroke-linecap="round" stroke-linejoin="round"/>
    <path d="M 235.20880126953125 59.75753402709961 C 218.0321044921875 39.712215423583984 224.93505859375 8.162748336791992 252.25279235839844 40.24180221557617 C 247.3626708984375 51.32997131347656 244.84925842285156 28.43943977355957 259.6067199707031 94.96913146972656 C 276.8462829589844 164.67103576660156 277.9743347167969 196.85125732421875 291.17132568359375 214.4932403564453 C 343.91339111328125 204.25538635253906 301.92431640625 202.2044677734375 370.3528747558594 188.93321228027344" stroke-width="6.0" fill="none" stroke="rgb(0, 0, 0)" stroke-opacity="0.2491681" stroke-linecap="round" stroke-linejoin="round"/>
    <path d="M 39.63728332519531 488.7519836425781 C 1.011002540588379 472.144775390625 7.6972880363464355 450.53106689453125 -39.38045120239258 421.02398681640625 C 15.057958602905273 363.0449523925781 -3.918513059616089 373.12322998046875 19.873498916625977 431.7674865722656 C 77.72904205322266 425.0275573730469 89.4326400756836 481.8965148925781 6.456667900085449 394.65667724609375 C 2.7485809326171875 395.489013671875 49.558773040771484 321.78387451171875 141.9360809326172 279.60894775390625" stroke-width="6.0" fill="none" stroke="rgb(0, 0, 0)" stroke-opacity="0.82115364" stroke-linecap="round" stroke-linejoin="round"/>
    <path d="M 547.6937255859375 498.6241760253906 C 560.7836303710938 475.7519836425781 578.6234741210938 494.9644775390625 551.9373168945312 487.7841796875 C 558.2213745117188 509.77880859375 554.7507934570312 509.1610412597656 556.5432739257812 501.2826232910156 C 549.2532958984375 506.78717041015625 542.0048828125 519.0406494140625 558.0938110351562 486.3916931152344 C 584.634033203125 494.440673828125 557.3851318359375 499.60968017578125 624.9277954101562 492.2582702636719" stroke-width="6.0" fill="none" stroke="rgb(0, 0, 0)" stroke-opacity="0.05088172" stroke-linecap="round" stroke-linejoin="round"/>
    <path d="M 96.79871368408203 456.1846618652344 C 81.08245086669922 459.2759094238281 157.79446411132812 461.50341796875 231.9752960205078 455.3968811035156 C 213.9681854248047 423.763427734375 211.4462432861328 452.40380859375 163.9307098388672 436.37957763671875 C 135.36961364746094 447.0912170410156 190.41355895996094 465.3035888671875 211.43063354492188 461.1957092285156 C 199.14549255371094 420.55084228515625 229.67068481445312 414.6235656738281 298.58154296875 459.82696533203125" stroke-width="6.0" fill="none" stroke="rgb(0, 0, 0)" stroke-opacity="0.42908254" stroke-linecap="round" stroke-linejoin="round"/>
    <path d="M 385.7790222167969 178.85049438476562 C 357.79119873046875 185.46241760253906 329.96636962890625 193.30332946777344 323.85260009765625 197.3792724609375 C 354.8739929199219 177.1303253173828 369.4122619628906 222.2368621826172 295.884521484375 214.34535217285156 C 289.8645324707031 156.7030487060547 273.46099853515625 121.9186019897461 267.8635559082031 68.43731689453125 C 301.9917907714844 40.751014709472656 288.8565368652344 70.06183624267578 299.4376220703125 167.87925720214844" stroke-width="6.0" fill="none" stroke="rgb(0, 0, 0)" stroke-opacity="0.12267297" stroke-linecap="round" stroke-linejoin="round"/>
    <path d="M 311.5138854980469 0.26220643520355225 C 320.60162353515625 2.0237276554107666 323.2243347167969 39.66283416748047 316.89788818359375 1.0099989175796509 C 324.02685546875 84.85377502441406 330.5757751464844 103.69409942626953 341.5675048828125 95.81993103027344 C 339.4193115234375 35.281036376953125 325.6690368652344 -1.3102383613586426 325.0771179199219 16.925647735595703 C 364.0403137207031 25.44968032836914 345.1655578613281 16.303817749023438 362.1346740722656 86.86868286132812" stroke-width="6.0" fill="none" stroke="rgb(0, 0, 0)" stroke-opacity="0.08451897" stroke-linecap="round" stroke-linejoin="round"/>
    <path d="M 35.46541213989258 421.4969482421875 C 60.7984733581543 432.35101318359375 77.94942474365234 441.4170837402344 93.86896514892578 440.90771484375 C 33.538570404052734 451.483642578125 47.754180908203125 449.7852478027344 166.35377502441406 436.1456604003906 C 284.5332336425781 442.2179870605469 211.54144287109375 470.0782775878906 52.650638580322266 451.9452819824219 C 276.5394592285156 472.26177978515625 312.2343444824219 448.4934387207031 65.42344665527344 449.2139587402344" stroke-width="6.0" fill="none" stroke="rgb(0, 0, 0)" stroke-opacity="0.9265736" stroke-linecap="round" stroke-linejoin="round"/>
    <path d="M 42.77134323120117 223.9964141845703 C 38.99610900878906 245.68019104003906 15.727554321289062 230.14846801757812 48.341796875 219.59715270996094 C 23.068925857543945 231.69033813476562 31.127525329589844 236.0695343017578 -23.17238998413086 229.0785675048828 C -7.292871952056885 228.5327911376953 9.53361988067627 238.27658081054688 31.871549606323242 225.3343963623047 C 64.16478729248047 223.29412841796875 72.1159896850586 191.45870971679688 69.31800079345703 246.2017059326172" stroke-width="6.0" fill="none" stroke="rgb(0, 0, 0)" stroke-opacity="0.06170347" stroke-linecap="round" stroke-linejoin="round"/>
    <path d="M 462.50201416015625 92.09502410888672 C 468.0758056640625 148.8698272705078 475.4330749511719 120.36372375488281 419.5701599121094 143.26779174804688 C 411.71875 136.85079956054688 411.3624267578125 90.9986343383789 444.3440246582031 104.10427856445312 C 459.5990905761719 161.6263885498047 463.9809265136719 174.3851776123047 427.27459716796875 172.14642333984375 C 413.06011962890625 66.46873474121094 413.77154541015625 49.629791259765625 407.5871887207031 38.665977478027344" stroke-width="6.0" fill="none" stroke="rgb(0, 0, 0)" stroke-opacity="0.31978256" stroke-linecap="round" stroke-linejoin="round"/>
    <path d="M -0.6927703619003296 153.96542358398438 C -2.781768321990967 150.33169555664062 36.49462127685547 148.80224609375 76.92241668701172 148.2406005859375 C 77.41448974609375 163.387939453125 75.57612609863281 148.70950317382812 66.31804656982422 110.26995849609375 C 68.43449401855469 124.01971435546875 69.5733642578125 120.01692199707031 65.596435546875 106.62122344970703 C 71.80638122558594 136.28240966796875 88.125732421875 188.42359924316406 108.5179443359375 258.0098571777344" stroke-width="6.0" fill="none" stroke="rgb(0, 0, 0)" stroke-opacity="0.6570501" stroke-linecap="round" stroke-linejoin="round"/>
    <path d="M 119.61250305175781 501.5694580078125 C 116.12810516357422 505.0771789550781 110.30697631835938 507.7706604003906 112.68537902832031 497.7055358886719 C 132.5043182373047 502.9800109863281 136.5679473876953 498.8541564941406 110.24565887451172 508.8586730957031 C 121.13555145263672 509.37774658203125 103.21769714355469 483.32562255859375 112.14925384521484 509.6988525390625 C 116.28734588623047 539.4606323242188 117.67633056640625 524.9464111328125 120.30376434326172 504.98394775390625" stroke-width="6.0" fill="none" stroke="rgb(0, 0, 0)" stroke-opacity="0.16812065" stroke-linecap="round" stroke-linejoin="round"/>
    <path d="M 133.17958068847656 458.9802551269531 C 143.70135498046875 453.9591979980469 131.1410369873047 468.4560546875 117.1698989868164 442.31976318359375 C 167.7823486328125 442.5356750488281 142.3043670654297 441.9965515136719 130.8231201171875 450.0441589355469 C 96.56670379638672 503.2492980957031 61.64972686767578 499.29571533203125 117.28103637695312 501.4198913574219 C 114.14498901367188 496.2660217285156 108.14517211914062 548.1189575195312 111.49134826660156 527.4279174804688" stroke-width="6.0" fill="none" stroke="rgb(0, 0, 0)" stroke-opacity="0.74120593" stroke-linecap="round" stroke-linejoin="round"/>
    <path d="M 508.4211120605469 529.6920166015625 C 504.1735534667969 526.506591796875 511.3591003417969 530.2269897460938 528.319580078125 544.1817626953125 C 514.5933227539062 533.6044921875 511.07281494140625 534.22802734375 533.7611694335938 552.5122680664062 C 528.6329345703125 547.4907836914062 531.6534423828125 546.0339965820312 539.6823120117188 551.1557006835938 C 513.3568115234375 534.3438720703125 489.8079833984375 518.5270385742188 493.8052673339844 519.720703125" stroke-width="6.0" fill="none" stroke="rgb(0, 0, 0)" stroke-opacity="0.9854111" stroke-linecap="round" stroke-linejoin="round"/>
    <path d="M 310.1501159667969 280.59307861328125 C 168.2581024169922 303.3801574707031 145.3734588623047 286.6484375 142.7506561279297 282.29541015625 C 187.8108367919922 278.54156494140625 185.76812744140625 249.2111053466797 211.5951385498047 248.66958618164062 C 167.7667999267578 256.1064453125 153.7036590576172 240.5146942138672 167.67218017578125 276.7439880371094 C 182.52879333496094 269.5511169433594 224.53634643554688 232.70431518554688 253.49697875976562 222.70941162109375" stroke-width="6.0" fill="none" stroke="rgb(0, 0, 0)" stroke-opacity="0.9547628" stroke-linecap="round" stroke-linejoin="round"/>
    <path d="M 435.91888427734375 422.7242736816406 C 370.8560791015625 460.85797119140625 333.2809143066406 462.9165954589844 382.4569091796875 442.1224670410156 C 382.9153747558594 431.517578125 354.039306640625 362.9781799316406 385.69927978515625 354.51556396484375 C 339.0639343261719 384.0682373046875 384.5762634277344 354.8052673339844 339.78082275390625 384.2585144042969 C 373.67987060546875 375.5766296386719 375.8620300292969 339.57440185546875 394.90313720703125 303.8364562988281" stroke-width="6.0" fill="none" stroke="rgb(0, 0, 0)" stroke-opacity="0.6430693" stroke-linecap="round" stroke-linejoin="round"/>
    <path d="M 351.8276672363281 189.40431213378906 C 303.8100280761719 199.26263427734375 263.55322265625 178.1461181640625 234.1758270263672 175.0302734375 C 276.6860046386719 171.31381225585938 236.61415100097656 163.29315185546875 176.15040588378906 200.7299346923828 C 171.2480010986328 238.662109375 239.4268341064453 199.14202880859375 263.40863037109375 184.71778869628906 C 251.96151733398438 114.46410369873047 271.3220520019531 142.18409729003906 199.6744384765625 153.93035888671875" stroke-width="6.0" fill="none" stroke="rgb(0, 0, 0)" stroke-opacity="0.06897413" stroke-linecap="round" stroke-linejoin="round"/>
  </g>
</svg>
