<?xml version="1.0" ?>
<svg xmlns="http://www.w3.org/2000/svg" version="1.1" width="600" height="600">
  <defs/>
  <g>
    <path d="M 531.1707153320312 457.5174865722656 C 533.9886474609375 315.5662841796875 562.8035888671875 337.3540954589844 495.8769836425781 434.1256408691406 C 528.359619140625 473.345458984375 519.581298828125 518.4970703125 522.2655029296875 519.1463012695312 C 557.1527099609375 502.01617431640625 535.78515625 472.0604553222656 548.1509399414062 427.3132019042969 C 585.7838745117188 365.0300598144531 615.8223266601562 421.80908203125 603.725830078125 303.534912109375" stroke-width="6.0" fill="none" stroke="rgb(0, 0, 0)" stroke-opacity="0.3548871" stroke-linecap="round" stroke-linejoin="round"/>
    <path d="M 321.30169677734375 469.5018005371094 C 329.0691223144531 491.4029235839844 257.6634826660156 491.29681396484375 218.65916442871094 495.629150390625 C 317.3604736328125 482.5284729003906 290.3419494628906 512.1153564453125 288.75494384765625 492.1892395019531 C 326.6111145019531 521.6866455078125 359.2189025878906 541.9293212890625 368.3041076660156 473.2108459472656 C 322.40777587890625 481.1494140625 267.9482116699219 481.5209045410156 132.36463928222656 480.2607421875" stroke-width="6.0" fill="none" stroke="rgb(0, 0, 0)" stroke-opacity="0.1419238" stroke-linecap="round" stroke-linejoin="round"/>
    <path d="M -11.441180229187012 408.8741149902344 C -7.642795085906982 388.4696350097656 -23.835790634155273 411.61566162109375 -38.29119873046875 423.06500244140625 C -54.12849807739258 393.4588317871094 -37.88125228881836 381.4378967285156 -57.21025848388672 410.6714782714844 C -52.75716018676758 423.6380310058594 -37.283531188964844 410.36053466796875 -50.399131774902344 413.4925537109375 C -74.98191833496094 406.25262451171875 -70.34881591796875 397.4001159667969 -63.70090866088867 374.469482421875" stroke-width="6.0" fill="none" stroke="rgb(0, 0, 0)" stroke-opacity="0.6448614" stroke-linecap="round" stroke-linejoin="round"/>
    <path d="M 138.1748809814453 504.13922119140625 C 117.59832763671875 513.9244384765625 90.20530700683594 547.595703125 75.29691314697266 575.7122802734375 C 74.46512603759766 578.1152954101562 69.61463165283203 591.3735961914062 81.12065887451172 567.5147094726562 C 90.29183959960938 561.710693359375 81.4716796875 557.5018310546875 67.78610229492188 596.3939208984375 C 87.3570785522461 658.3536987304688 87.07230377197266 657.6528930664062 96.4505386352539 645.6089477539062" stroke-width="6.0" fill="none" stroke="rgb(0, 0, 0)" stroke-opacity="0.57966435" stroke-linecap="round" stroke-linejoin="round"/>
    <path d="M 136.16656494140625 336.0625305175781 C 153.3905029296875 402.28741455078125 168.5314178466797 354.5565185546875 119.9256362915039 393.8961181640625 C 129.6132049560547 384.06207275390625 89.03451538085938 381.1834411621094 99.32540130615234 381.20599365234375 C 124.45140838623047 390.2855529785156 159.54969787597656 360.9662780761719 139.4228515625 341.59210205078125 C 105.2386245727539 355.8624267578125 91.32479858398438 411.0025634765625 121.87174987792969 369.13250732421875" stroke-width="6.0" fill="none" stroke="rgb(0, 0, 0)" stroke-opacity="0.79288995" stroke-linecap="round" stroke-linejoin="round"/>
    <path d="M 575.1513061523438 310.0296630859375 C 608.2566528320312 226.99147033691406 594.8707275390625 334.8498229980469 597.9454956054688 324.3851318359375 C 592.9728393554688 375.0516052246094 601.5908813476562 412.94891357421875 585.2009887695312 390.8809509277344 C 584.8741455078125 351.9934997558594 588.6593627929688 300.3233337402344 610.2213134765625 284.4070129394531 C 655.9869995117188 353.9353332519531 677.6321411132812 369.3905029296875 708.3917236328125 363.7304382324219" stroke-width="6.0" fill="none" stroke="rgb(0, 0, 0)" stroke-opacity="0.8321143" stroke-linecap="round" stroke-linejoin="round"/>
    <path d="M 493.6195983886719 -37.389678955078125 C 493.04656982421875 -2.0235235691070557 480.5024108886719 1.8032907247543335 478.8510437011719 -8.565448760986328 C 513.6348876953125 -5.7475433349609375 546.3119506835938 -20.40563201904297 529.43701171875 -22.35738754272461 C 520.9678955078125 -22.19292449951172 515.3054809570312 -12.68578052520752 531.2860107421875 -6.77738618850708 C 487.3685302734375 -23.974727630615234 478.6972351074219 -33.23090362548828 459.645751953125 -4.695883750915527" stroke-width="6.0" fill="none" stroke="rgb(0, 0, 0)" stroke-opacity="0.050195597" stroke-linecap="round" stroke-linejoin="round"/>
    <path d="M -9.674703598022461 21.89608383178711 C -18.766145706176758 21.9466552734375 -8.461175918579102 -4.774669170379639 -19.756595611572266 -1.6722676753997803 C -24.37703514099121 2.6683542728424072 -13.06845474243164 0.05180723965167999 16.234256744384766 -19.14624786376953 C 8.099035263061523 -17.39971351623535 -15.919535636901855 -10.180281639099121 -32.59848403930664 -18.724010467529297 C -60.80063247680664 -13.777621269226074 -68.59873962402344 10.380752563476562 -58.89541244506836 -17.7982177734375" stroke-width="6.0" fill="none" stroke="rgb(0, 0, 0)" stroke-opacity="0.113802455" stroke-linecap="round" stroke-linejoin="round"/>
    <path d="M 204.0599365234375 201.54017639160156 C 195.9961700439453 167.9207763671875 238.37362670898438 154.29083251953125 179.16770935058594 124.82362365722656 C 137.56576538085938 182.76318359375 176.14877319335938 204.52467346191406 128.80715942382812 177.1513214111328 C 81.45513916015625 181.8473663330078 36.73482131958008 230.3599090576172 82.8997573852539 260.939453125 C 91.20027923583984 281.19976806640625 81.81147003173828 321.6709289550781 93.13314819335938 323.3495178222656" stroke-width="6.0" fill="none" stroke="rgb(0, 0, 0)" stroke-opacity="0.21311001" stroke-linecap="round" stroke-linejoin="round"/>
    <path d="M 154.7976531982422 491.7945251464844 C 82.3899154663086 455.76251220703125 89.11094665527344 453.4345703125 101.852294921875 467.267822265625 C 78.54666137695312 388.0613708496094 77.50276184082031 422.4846496582031 157.11618041992188 466.2012634277344 C 122.59696960449219 467.9169921875 197.15699768066406 501.15447998046875 189.43968200683594 496.8541564941406 C 183.0025177001953 507.625732421875 163.62777709960938 477.8855285644531 119.94804382324219 467.3235778808594" stroke-width="6.0" fill="none" stroke="rgb(0, 0, 0)" stroke-opacity="0.42635608" stroke-linecap="round" stroke-linejoin="round"/>
    <path d="M 258.2700500488281 158.67576599121094 C 274.2204284667969 127.92523193359375 261.8428955078125 124.43083190917969 224.34605407714844 119.71285247802734 C 252.93002319335938 122.16109466552734 248.32933044433594 126.19414520263672 229.0002899169922 118.83403015136719 C 223.76641845703125 77.86978149414062 237.6719207763672 71.52578735351562 245.3894500732422 110.1674575805664 C 281.1366882324219 119.93345642089844 284.1882019042969 119.1224594116211 297.9500732421875 93.64666748046875" stroke-width="6.0" fill="none" stroke="rgb(0, 0, 0)" stroke-opacity="0.81269985" stroke-linecap="round" stroke-linejoin="round"/>
    <path d="M 303.4479675292969 478.973388671875 C 156.86001586914062 483.0582275390625 215.56910705566406 480.9367980957031 196.5312957763672 498.25665283203125 C 331.56927490234375 497.9083557128906 402.24688720703125 461.6936340332031 411.9149169921875 511.617431640625 C 275.4112854003906 518.4498291015625 302.8050231933594 510.3199462890625 280.4888916015625 476.2789001464844 C 270.99212646484375 512.2518920898438 318.87567138671875 533.7952270507812 323.4539489746094 515.015380859375" stroke-width="6.0" fill="none" stroke="rgb(0, 0, 0)" stroke-opacity="0.87672734" stroke-linecap="round" stroke-linejoin="round"/>
    <path d="M 337.61639404296875 389.11566162109375 C 389.5776672363281 374.7739562988281 366.547119140625 410.93878173828125 403.076416015625 445.00360107421875 C 456.0231018066406 413.7058410644531 457.8116455078125 350.0894775390625 450.4530334472656 392.693359375 C 496.8797302246094 358.66925048828125 453.4114990234375 376.1368713378906 432.6906433105469 393.9964904785156 C 360.4407653808594 389.7708740234375 361.0464172363281 387.7622375488281 263.05816650390625 399.9829406738281" stroke-width="6.0" fill="none" stroke="rgb(0, 0, 0)" stroke-opacity="0.49190456" stroke-linecap="round" stroke-linejoin="round"/>
    <path d="M 319.5960388183594 516.8148193359375 C 257.6465759277344 502.4664306640625 268.48785400390625 453.96240234375 328.9892272949219 506.51507568359375 C 323.24053955078125 466.71124267578125 378.25592041015625 465.2513122558594 375.43206787109375 470.89166259765625 C 282.14337158203125 482.4560852050781 257.4662780761719 476.2862548828125 380.2096252441406 472.15460205078125 C 419.58978271484375 423.5165100097656 455.82269287109375 414.7913513183594 438.9335021972656 377.2904052734375" stroke-width="6.0" fill="none" stroke="rgb(0, 0, 0)" stroke-opacity="0.41070703" stroke-linecap="round" stroke-linejoin="round"/>
    <path d="M 132.1709442138672 374.26092529296875 C 129.002685546875 344.1417236328125 117.88478088378906 317.49237060546875 174.89584350585938 373.0583801269531 C 189.49559020996094 376.2684631347656 223.0455780029297 335.8814392089844 267.1705627441406 327.0623779296875 C 167.31602478027344 293.5821838378906 168.1031036376953 321.31689453125 147.3600616455078 328.4462890625 C 105.71554565429688 250.44920349121094 169.7688751220703 241.96522521972656 245.9147491455078 291.7743835449219" stroke-width="6.0" fill="none" stroke="rgb(0, 0, 0)" stroke-opacity="0.3914339" stroke-linecap="round" stroke-linejoin="round"/>
    <path d="M 403.9421081542969 406.6144104003906 C 363.9408264160156 380.3089294433594 357.2764587402344 354.2564697265625 391.6280822753906 434.11688232421875 C 429.1833190917969 393.208984375 452.30242919921875 393.073974609375 491.12066650390625 373.9915466308594 C 461.3053894042969 358.22857666015625 408.49517822265625 392.7109069824219 404.7315979003906 379.1644592285156 C 458.7928161621094 419.8650817871094 385.2014465332031 432.03125 409.2037048339844 392.528076171875" stroke-width="6.0" fill="none" stroke="rgb(0, 0, 0)" stroke-opacity="0.48319283" stroke-linecap="round" stroke-linejoin="round"/>
    <path d="M 422.65228271484375 251.0380401611328 C 499.77874755859375 252.4505157470703 520.9561767578125 250.03326416015625 511.1109924316406 257.8900451660156 C 506.330810546875 246.35096740722656 430.08502197265625 259.3349914550781 470.07830810546875 252.6736602783203 C 455.14788818359375 248.6177215576172 442.4084777832031 249.4405975341797 484.83709716796875 251.87232971191406 C 470.9381103515625 251.09249877929688 560.4763793945312 252.549560546875 405.4299621582031 247.16067504882812" stroke-width="6.0" fill="none" stroke="rgb(0, 0, 0)" stroke-opacity="0.89530724" stroke-linecap="round" stroke-linejoin="round"/>
    <path d="M 409.5933532714844 27.975000381469727 C 392.22698974609375 35.09210968017578 423.926513671875 19.445531845092773 420.2972717285156 45.34807586669922 C 470.4266662597656 32.967464447021484 471.82440185546875 57.059104919433594 482.0277404785156 66.12432098388672 C 476.89544677734375 99.92635345458984 470.87689208984375 102.90982818603516 474.73175048828125 90.1882095336914 C 487.9533996582031 42.88146209716797 450.21142578125 44.60462951660156 447.5469055175781 45.974151611328125" stroke-width="6.0" fill="none" stroke="rgb(0, 0, 0)" stroke-opacity="0.82380253" stroke-linecap="round" stroke-linejoin="round"/>
    <path d="M 22.656391143798828 38.235694885253906 C 69.98480987548828 15.094772338867188 97.10852813720703 24.979631423950195 111.63921356201172 37.6888313293457 C 114.47513580322266 80.6586685180664 83.28243255615234 74.66351318359375 57.85138702392578 118.8012924194336 C 56.6619987487793 119.22224426269531 74.31942749023438 100.77753448486328 68.59117126464844 103.94722747802734 C 80.3094711303711 88.01798248291016 121.3981704711914 41.1012077331543 193.93643188476562 39.08979797363281" stroke-width="6.0" fill="none" stroke="rgb(0, 0, 0)" stroke-opacity="0.7462103" stroke-linecap="round" stroke-linejoin="round"/>
    <path d="M 222.1559600830078 626.120849609375 C 208.7685546875 608.171630859375 229.47055053710938 597.492431640625 229.879638671875 630.1646728515625 C 252.59930419921875 612.8847045898438 236.09027099609375 632.4862060546875 228.3561248779297 649.6608276367188 C 258.01690673828125 674.4625854492188 251.24954223632812 660.5564575195312 258.00146484375 664.10546875 C 283.88836669921875 683.268310546875 303.2297668457031 707.62890625 324.95538330078125 707.5099487304688" stroke-width="6.0" fill="none" stroke="rgb(0, 0, 0)" stroke-opacity="0.09690086" stroke-linecap="round" stroke-linejoin="round"/>
    <path d="M 494.2886657714844 507.8330993652344 C 558.7813110351562 530.0850830078125 522.0209350585938 496.6666259765625 482.4492492675781 501.933837890625 C 507.78680419921875 525.6153564453125 549.7771606445312 463.9090576171875 474.8744812011719 503.2908020019531 C 548.2389526367188 504.21966552734375 556.7415161132812 524.359375 490.9499206542969 518.7772216796875 C 486.9801330566406 522.0505981445312 463.389404296875 550.1683349609375 456.1995544433594 585.3201293945312" stroke-width="6.0" fill="none" stroke="rgb(0, 0, 0)" stroke-opacity="0.6092203" stroke-linecap="round" stroke-linejoin="round"/>
    <path d="M 531.4088745117188 441.4873962402344 C 571.1188354492188 431.3387756347656 557.9596557617188 396.9237365722656 540.4815673828125 364.5710754394531 C 569.8890991210938 352.49505615234375 581.3765258789062 413.9455261230469 507.11932373046875 415.00555419921875 C 454.291015625 471.2093200683594 388.3448486328125 475.2373046875 446.27386474609375 432.91162109375 C 447.3144226074219 316.31304931640625 447.0267333984375 309.5865173339844 447.1796875 376.64532470703125" stroke-width="6.0" fill="none" stroke="rgb(0, 0, 0)" stroke-opacity="0.004383055" stroke-linecap="round" stroke-linejoin="round"/>
    <path d="M 586.1331787109375 15.269227027893066 C 616.7548217773438 26.470195770263672 611.816162109375 70.43980407714844 589.760498046875 85.4329605102539 C 614.935791015625 61.164215087890625 618.1203002929688 51.30891036987305 642.162353515625 59.99195861816406 C 619.3142700195312 31.000276565551758 605.4342041015625 30.348373413085938 609.6177978515625 9.135464668273926 C 606.7132568359375 1.2959285974502563 622.2080688476562 12.435279846191406 607.8318481445312 38.322776794433594" stroke-width="6.0" fill="none" stroke="rgb(0, 0, 0)" stroke-opacity="0.96205616" stroke-linecap="round" stroke-linejoin="round"/>
    <path d="M 213.35174560546875 153.23411560058594 C 220.0586700439453 154.49551391601562 204.5542755126953 152.7046356201172 206.48231506347656 134.04342651367188 C 198.85345458984375 154.41732788085938 223.27639770507812 131.01979064941406 173.53431701660156 130.53758239746094 C 144.17723083496094 175.02542114257812 169.92071533203125 193.6717071533203 179.38845825195312 203.69894409179688 C 173.10789489746094 194.78343200683594 163.37319946289062 189.24588012695312 160.4940948486328 185.19871520996094" stroke-width="6.0" fill="none" stroke="rgb(0, 0, 0)" stroke-opacity="0.7131849" stroke-linecap="round" stroke-linejoin="round"/>
    <path d="M 516.8925170898438 322.8365173339844 C 490.9129638671875 215.37351989746094 475.9305114746094 231.134033203125 495.4608459472656 321.2685241699219 C 458.48724365234375 336.2980651855469 371.8292541503906 307.116943359375 428.7264709472656 392.06097412109375 C 413.92987060546875 384.4274597167969 401.05267333984375 423.8983459472656 439.5992126464844 406.60382080078125 C 397.7998046875 431.26434326171875 406.63543701171875 431.6822509765625 379.04681396484375 386.30303955078125" stroke-width="6.0" fill="none" stroke="rgb(0, 0, 0)" stroke-opacity="0.85077107" stroke-linecap="round" stroke-linejoin="round"/>
    <path d="M 309.76629638671875 209.6521759033203 C 243.32559204101562 231.35935974121094 266.86553955078125 259.3234558105469 289.5410461425781 187.3363494873047 C 303.2693786621094 176.88925170898438 304.8442077636719 178.25228881835938 322.1108703613281 159.3269500732422 C 313.652099609375 163.04933166503906 337.06085205078125 144.00973510742188 334.0148620605469 130.22396850585938 C 332.6300048828125 140.75234985351562 326.629150390625 147.70745849609375 328.20758056640625 145.6115264892578" stroke-width="6.0" fill="none" stroke="rgb(0, 0, 0)" stroke-opacity="0.084038086" stroke-linecap="round" stroke-linejoin="round"/>
    <path d="M 186.1700439453125 449.4625244140625 C 176.48883056640625 475.0703430175781 154.0228729248047 490.8493347167969 204.1632537841797 511.115234375 C 209.079345703125 417.98553466796875 227.72708129882812 365.7478942871094 220.6160888671875 407.7181701660156 C 202.68545532226562 476.3811340332031 191.789306640625 444.5578308105469 189.23992919921875 397.6038513183594 C 210.7752227783203 395.1577453613281 186.892333984375 383.3028564453125 211.30943298339844 397.9830017089844" stroke-width="6.0" fill="none" stroke="rgb(0, 0, 0)" stroke-opacity="0.007834809" stroke-linecap="round" stroke-linejoin="round"/>
    <path d="M 125.69007873535156 477.880126953125 C 81.67256164550781 493.17254638671875 67.94361114501953 487.7271728515625 65.5429916381836 469.4312744140625 C 67.78108215332031 491.0227966308594 74.99189758300781 472.3039855957031 62.66414260864258 482.5780334472656 C 61.69824981689453 465.32611083984375 52.569095611572266 458.2351379394531 76.93244934082031 485.8263854980469 C 128.98141479492188 480.0076599121094 119.0315933227539 397.7267150878906 104.23186492919922 418.81671142578125" stroke-width="6.0" fill="none" stroke="rgb(0, 0, 0)" stroke-opacity="0.042824376" stroke-linecap="round" stroke-linejoin="round"/>
    <path d="M 93.82675170898438 208.6478729248047 C 99.57601928710938 194.4786376953125 99.92330932617188 187.51930236816406 124.97367858886719 176.4726104736328 C 162.80844116210938 183.95787048339844 175.1986846923828 188.31829833984375 179.25247192382812 198.60964965820312 C 152.5679473876953 176.65176391601562 135.74176025390625 184.1267852783203 139.97833251953125 178.2512969970703 C 160.6791534423828 185.126220703125 136.04212951660156 182.36952209472656 140.801025390625 218.79664611816406" stroke-width="6.0" fill="none" stroke="rgb(0, 0, 0)" stroke-opacity="0.099275604" stroke-linecap="round" stroke-linejoin="round"/>
    <path d="M 489.47259521484375 252.7279815673828 C 308.9681091308594 248.70303344726562 338.92901611328125 253.1214599609375 423.4612731933594 270.3509826660156 C 420.50933837890625 298.8287353515625 385.9540710449219 291.411376953125 398.5372619628906 346.83447265625 C 375.5809631347656 353.7950134277344 392.2865905761719 315.096435546875 415.42364501953125 348.0124816894531 C 411.47442626953125 389.15277099609375 427.3211364746094 381.64019775390625 331.5418395996094 389.0755615234375" stroke-width="6.0" fill="none" stroke="rgb(0, 0, 0)" stroke-opacity="0.48634362" stroke-linecap="round" stroke-linejoin="round"/>
    <path d="M 15.32249927520752 429.0359802246094 C -8.610787391662598 457.0297546386719 8.253293991088867 523.0936279296875 -6.930415153503418 393.0390930175781 C 34.125553131103516 417.8001708984375 44.71043395996094 381.32305908203125 77.6820297241211 349.9507141113281 C 47.06588363647461 324.84271240234375 99.76507568359375 314.2073059082031 41.01118469238281 279.65020751953125 C 30.01425552368164 254.4156951904297 41.91703796386719 232.20228576660156 64.25656127929688 238.45660400390625" stroke-width="6.0" fill="none" stroke="rgb(0, 0, 0)" stroke-opacity="0.88503116" stroke-linecap="round" stroke-linejoin="round"/>
    <path d="M 194.58114624023438 511.50238037109375 C 179.75355529785156 521.2118530273438 169.0587615966797 572.7611694335938 177.4966278076172 535.1765747070312 C 168.24343872070312 570.359375 174.24209594726562 594.992919921875 202.63829040527344 588.55810546875 C 192.1313934326172 661.1156616210938 187.540771484375 660.9905395507812 192.63658142089844 636.3724975585938 C 187.99940490722656 607.242919921875 208.701171875 605.8958740234375 176.4766082763672 606.4160766601562" stroke-width="6.0" fill="none" stroke="rgb(0, 0, 0)" stroke-opacity="0.32017642" stroke-linecap="round" stroke-linejoin="round"/>
    <path d="M 355.1824951171875 513.3900146484375 C 465.90185546875 510.13726806640625 424.5928039550781 499.1797790527344 316.9928894042969 524.2785034179688 C 457.25360107421875 525.8858032226562 401.30352783203125 517.9331665039062 397.597412109375 526.5307006835938 C 425.6343688964844 482.5000915527344 342.9270935058594 443.65478515625 391.4654541015625 498.5399475097656 C 417.1497802734375 540.5090942382812 399.2077941894531 527.5926513671875 498.63006591796875 494.27825927734375" stroke-width="6.0" fill="none" stroke="rgb(0, 0, 0)" stroke-opacity="0.95045656" stroke-linecap="round" stroke-linejoin="round"/>
    <path d="M 90.77262115478516 399.50421142578125 C 79.26909637451172 438.05474853515625 82.78668975830078 381.5585021972656 144.02609252929688 350.0844421386719 C 131.58839416503906 401.35748291015625 100.91092681884766 397.3739318847656 83.55682373046875 415.3106384277344 C 125.57884216308594 438.30096435546875 87.91954040527344 489.2690734863281 58.55972671508789 415.0928955078125 C 62.62881851196289 379.10711669921875 46.19111251831055 372.0615539550781 44.8252067565918 378.75885009765625" stroke-width="6.0" fill="none" stroke="rgb(0, 0, 0)" stroke-opacity="0.30890784" stroke-linecap="round" stroke-linejoin="round"/>
    <path d="M -14.295981407165527 568.613525390625 C -15.185463905334473 584.44287109375 -17.120359420776367 605.31640625 3.1374974250793457 528.9934692382812 C -0.10396517813205719 550.08251953125 23.741531372070312 583.1265258789062 33.99903869628906 556.7645874023438 C 36.47978210449219 555.9894409179688 34.19131088256836 560.1160888671875 25.222270965576172 566.6015014648438 C 48.450435638427734 565.9049682617188 54.00486755371094 556.79052734375 66.06085205078125 530.181396484375" stroke-width="6.0" fill="none" stroke="rgb(0, 0, 0)" stroke-opacity="0.5725538" stroke-linecap="round" stroke-linejoin="round"/>
    <path d="M -6.341946125030518 345.0364990234375 C -5.244192600250244 341.1989440917969 -15.88657283782959 306.021484375 -21.012802124023438 256.02239990234375 C -10.605635643005371 260.0439453125 -36.20494079589844 259.2995910644531 -40.241329193115234 284.5347900390625 C -49.227020263671875 286.0335693359375 -46.97422409057617 269.15142822265625 -62.7784538269043 247.2489471435547 C -80.6051254272461 249.4324188232422 -65.56768035888672 250.91664123535156 -87.2980728149414 242.40573120117188" stroke-width="6.0" fill="none" stroke="rgb(0, 0, 0)" stroke-opacity="0.8811727" stroke-linecap="round" stroke-linejoin="round"/>
    <path d="M 298.546142578125 329.99090576171875 C 240.8100128173828 329.446533203125 198.08360290527344 308.4764709472656 237.78118896484375 280.754150390625 C 222.9136505126953 325.3190002441406 237.9288787841797 325.61376953125 222.67926025390625 312.5541076660156 C 250.9141082763672 333.4476318359375 258.24530029296875 332.28265380859375 352.1508483886719 340.3598327636719 C 326.4649353027344 314.738037109375 290.77557373046875 322.556640625 184.005615234375 309.8948059082031" stroke-width="6.0" fill="none" stroke="rgb(0, 0, 0)" stroke-opacity="0.41259068" stroke-linecap="round" stroke-linejoin="round"/>
    <path d="M 194.96983337402344 259.10845947265625 C 191.87213134765625 236.91619873046875 207.49609375 220.16177368164062 208.1415252685547 219.49432373046875 C 230.58551025390625 188.44131469726562 243.8471221923828 211.70022583007812 236.27963256835938 216.3502655029297 C 250.09368896484375 198.33599853515625 269.58837890625 204.72857666015625 270.0523376464844 223.32293701171875 C 268.07281494140625 202.95005798339844 248.35142517089844 205.54702758789062 238.39263916015625 210.35247802734375" stroke-width="6.0" fill="none" stroke="rgb(0, 0, 0)" stroke-opacity="0.7271788" stroke-linecap="round" stroke-linejoin="round"/>
    <path d="M 484.695068359375 435.8792724609375 C 535.4868774414062 493.0895690917969 489.71923828125 399.4567565917969 539.806396484375 347.54150390625 C 553.5633544921875 384.686279296875 549.4103393554688 465.6690368652344 542.1151123046875 495.82391357421875 C 533.150390625 492.4241943359375 526.534423828125 412.1778869628906 529.452392578125 429.4210510253906 C 535.2527465820312 438.9039611816406 595.101318359375 376.15582275390625 590.1970825195312 314.92230224609375" stroke-width="6.0" fill="none" stroke="rgb(0, 0, 0)" stroke-opacity="0.6787556" stroke-linecap="round" stroke-linejoin="round"/>
    <path d="M 281.6056213378906 545.3408203125 C 255.4434356689453 579.3403930664062 219.54653930664062 584.6703491210938 202.209716796875 577.9706420898438 C 196.9341583251953 601.224853515625 204.5205078125 613.40185546875 230.61685180664062 642.5234375 C 264.1424865722656 604.5963134765625 252.74917602539062 609.1148071289062 241.14552307128906 619.403076171875 C 231.451416015625 644.4599609375 241.8736572265625 669.3323974609375 215.52598571777344 658.5252075195312" stroke-width="6.0" fill="none" stroke="rgb(0, 0, 0)" stroke-opacity="0.1924637" stroke-linecap="round" stroke-linejoin="round"/>
    <path d="M 215.05783081054688 312.0875244140625 C 321.106201171875 260.4070739746094 308.8240966796875 251.44024658203125 400.5268859863281 252.15806579589844 C 475.6746520996094 240.5805206298828 438.8695983886719 278.56640625 362.0462951660156 266.5718994140625 C 408.8478698730469 252.7657012939453 433.2270202636719 257.7471008300781 445.0052490234375 324.8516540527344 C 249.67996215820312 329.2171630859375 194.14971923828125 332.7334289550781 335.5584411621094 266.788818359375" stroke-width="6.0" fill="none" stroke="rgb(0, 0, 0)" stroke-opacity="0.96442825" stroke-linecap="round" stroke-linejoin="round"/>
    <path d="M 435.0457763671875 517.3751220703125 C 423.72796630859375 521.7661743164062 462.116943359375 510.1836853027344 519.7752685546875 485.4361877441406 C 497.63970947265625 500.1126403808594 440.3254699707031 523.7373046875 367.61114501953125 523.4763793945312 C 388.33966064453125 492.03106689453125 413.74078369140625 468.2823181152344 355.56256103515625 486.4797668457031 C 341.3026428222656 502.00787353515625 303.827880859375 467.8482971191406 375.0972900390625 471.8153991699219" stroke-width="6.0" fill="none" stroke="rgb(0, 0, 0)" stroke-opacity="0.49888623" stroke-linecap="round" stroke-linejoin="round"/>
    <path d="M 382.62628173828125 151.28085327148438 C 404.060546875 171.24673461914062 417.4599914550781 165.39173889160156 422.14556884765625 159.80113220214844 C 412.4473876953125 160.9238739013672 414.8082275390625 161.8026123046875 428.6866455078125 154.79010009765625 C 418.8877868652344 156.52565002441406 438.78216552734375 153.0446014404297 441.1772155761719 142.02804565429688 C 439.9146728515625 137.13302612304688 447.4638671875 135.25067138671875 437.3462219238281 142.5790252685547" stroke-width="6.0" fill="none" stroke="rgb(0, 0, 0)" stroke-opacity="0.5590364" stroke-linecap="round" stroke-linejoin="round"/>
    <path d="M 173.1473846435547 116.48330688476562 C 177.33375549316406 115.86415100097656 196.2408447265625 110.03306579589844 204.3712615966797 92.75371551513672 C 188.9427490234375 115.42826843261719 179.32180786132812 114.47356414794922 156.5024871826172 123.07830810546875 C 129.03746032714844 143.2892303466797 125.77391052246094 139.02513122558594 124.50416564941406 140.828125 C 146.21774291992188 137.10757446289062 135.87176513671875 137.91766357421875 132.87782287597656 138.284423828125" stroke-width="6.0" fill="none" stroke="rgb(0, 0, 0)" stroke-opacity="0.2610423" stroke-linecap="round" stroke-linejoin="round"/>
    <path d="M 178.02407836914062 541.7413330078125 C 173.03195190429688 567.8382568359375 176.86953735351562 574.0174560546875 173.46536254882812 565.6104736328125 C 171.27438354492188 530.9788818359375 181.95120239257812 539.3567504882812 186.1227264404297 519.9558715820312 C 180.6749267578125 528.2694091796875 175.107177734375 542.1073608398438 184.85598754882812 529.2762451171875 C 178.95968627929688 534.1072387695312 172.79962158203125 533.0707397460938 177.86338806152344 540.0712890625" stroke-width="6.0" fill="none" stroke="rgb(0, 0, 0)" stroke-opacity="0.32614657" stroke-linecap="round" stroke-linejoin="round"/>
    <path d="M -37.53237533569336 291.0106506347656 C 6.035099983215332 310.4322204589844 -4.550034999847412 305.29010009765625 -18.6318359375 277.161865234375 C -31.768718719482422 268.279541015625 -23.525480270385742 243.95921325683594 -13.925061225891113 218.68292236328125 C -28.56340980529785 234.77294921875 -0.08277181535959244 235.08616638183594 -17.0382080078125 232.95013427734375 C 11.257054328918457 206.06109619140625 -15.248567581176758 227.40513610839844 -18.611658096313477 234.70809936523438" stroke-width="6.0" fill="none" stroke="rgb(0, 0, 0)" stroke-opacity="0.94700193" stroke-linecap="round" stroke-linejoin="round"/>
    <path d="M 386.1401062011719 393.1510925292969 C 476.62298583984375 400.09722900390625 438.264404296875 363.45587158203125 369.68560791015625 391.57440185546875 C 428.29388427734375 426.16156005859375 473.82568359375 367.4671630859375 461.0548095703125 375.6146545410156 C 487.3005065917969 343.1805114746094 537.4855346679688 318.36639404296875 527.7606811523438 314.4845886230469 C 491.4820251464844 339.2938537597656 484.72674560546875 311.3737487792969 486.5945739746094 275.1612548828125" stroke-width="6.0" fill="none" stroke="rgb(0, 0, 0)" stroke-opacity="0.49463198" stroke-linecap="round" stroke-linejoin="round"/>
    <path d="M 191.3444366455078 445.4393615722656 C 193.51156616210938 458.840087890625 242.47927856445312 408.039794921875 191.14163208007812 436.62078857421875 C 163.83203125 530.9479370117188 146.54751586914062 494.5654602050781 143.37411499023438 459.5674743652344 C 191.37957763671875 482.255126953125 147.7932891845703 478.1886291503906 253.94448852539062 483.1058654785156 C 250.53587341308594 482.5953369140625 229.66067504882812 543.0703735351562 103.33586120605469 455.1047058105469" stroke-width="6.0" fill="none" stroke="rgb(0, 0, 0)" stroke-opacity="0.9179392" stroke-linecap="round" stroke-linejoin="round"/>
    <path d="M 87.44642639160156 407.2605895996094 C 114.9874038696289 351.6120910644531 141.51234436035156 333.7799072265625 120.62887573242188 373.453857421875 C 185.36842346191406 388.63006591796875 162.31536865234375 329.4787902832031 112.48338317871094 362.7507019042969 C 65.79906463623047 448.5291442871094 86.048095703125 387.65277099609375 103.9425048828125 453.7875671386719 C 105.4933090209961 455.0274658203125 77.68582916259766 414.895263671875 61.87322235107422 479.0193786621094" stroke-width="6.0" fill="none" stroke="rgb(0, 0, 0)" stroke-opacity="0.74944013" stroke-linecap="round" stroke-linejoin="round"/>
    <path d="M 532.1973876953125 158.80567932128906 C 578.7169189453125 130.16563415527344 631.6068115234375 138.92018127441406 595.19921875 177.13092041015625 C 569.5166625976562 187.08746337890625 570.0138549804688 207.4176788330078 586.62353515625 225.33261108398438 C 614.748779296875 246.30874633789062 633.1190795898438 252.47528076171875 604.3082275390625 227.30564880371094 C 602.70751953125 224.23338317871094 629.404541015625 191.29388427734375 648.14990234375 203.694580078125" stroke-width="6.0" fill="none" stroke="rgb(0, 0, 0)" stroke-opacity="0.19328105" stroke-linecap="round" stroke-linejoin="round"/>
    <path d="M 423.8365173339844 25.55611228942871 C 444.3531188964844 9.546683311462402 463.2180480957031 10.563511848449707 477.5216979980469 28.793119430541992 C 450.5699768066406 4.230578899383545 473.0162658691406 16.616960525512695 478.46771240234375 31.613880157470703 C 469.72906494140625 19.0500431060791 466.9732971191406 11.843939781188965 435.6116027832031 14.881341934204102 C 464.6248779296875 13.39709758758545 453.0385437011719 11.248275756835938 466.3594055175781 17.617856979370117" stroke-width="6.0" fill="none" stroke="rgb(0, 0, 0)" stroke-opacity="0.26014742" stroke-linecap="round" stroke-linejoin="round"/>
    <path d="M 488.8406982421875 373.8084716796875 C 392.4925842285156 368.8150329589844 424.3395080566406 406.2243957519531 412.03326416015625 324.4858093261719 C 449.9737854003906 290.474853515625 490.80596923828125 306.42144775390625 486.95843505859375 263.0419006347656 C 476.5091247558594 250.5065155029297 485.1179504394531 280.8070068359375 488.77532958984375 322.6405944824219 C 531.86279296875 320.1822509765625 520.0758666992188 343.162841796875 506.5401611328125 287.20703125" stroke-width="6.0" fill="none" stroke="rgb(0, 0, 0)" stroke-opacity="0.5746994" stroke-linecap="round" stroke-linejoin="round"/>
    <path d="M 570.5722045898438 491.39630126953125 C 606.2066650390625 408.74151611328125 641.921142578125 399.74285888671875 584.5814819335938 444.75140380859375 C 574.2445678710938 507.6798400878906 568.5785522460938 529.0322875976562 573.5838623046875 564.0798950195312 C 572.6689453125 541.826416015625 580.5256958007812 559.2921142578125 580.7495727539062 571.2830200195312 C 581.9693603515625 550.90576171875 610.21630859375 598.5587158203125 628.9307861328125 609.9686889648438" stroke-width="6.0" fill="none" stroke="rgb(0, 0, 0)" stroke-opacity="0.2738888" stroke-linecap="round" stroke-linejoin="round"/>
    <path d="M 520.7071533203125 256.92352294921875 C 425.60723876953125 242.3818359375 468.3694763183594 253.99220275878906 531.2907104492188 252.57244873046875 C 556.4459228515625 343.8096923828125 542.3005981445312 311.6228942871094 519.0892944335938 264.2658996582031 C 494.9632568359375 247.28236389160156 509.56732177734375 275.67022705078125 500.451171875 266.82550048828125 C 507.2300720214844 252.1190948486328 496.5195007324219 260.9981689453125 603.7283325195312 279.2574462890625" stroke-width="6.0" fill="none" stroke="rgb(0, 0, 0)" stroke-opacity="0.36275345" stroke-linecap="round" stroke-linejoin="round"/>
    <path d="M 238.35614013671875 89.79701232910156 C 238.4583740234375 97.46992492675781 243.50999450683594 75.07783508300781 239.36439514160156 76.21481323242188 C 247.18588256835938 67.4484634399414 240.91441345214844 72.7005844116211 241.836181640625 67.95040130615234 C 241.73448181152344 89.43006896972656 225.89051818847656 75.07078552246094 277.98358154296875 14.072830200195312 C 367.7558288574219 -39.823081970214844 393.970703125 14.002220153808594 327.69293212890625 96.88430786132812" stroke-width="6.0" fill="none" stroke="rgb(0, 0, 0)" stroke-opacity="0.33441493" stroke-linecap="round" stroke-linejoin="round"/>
    <path d="M 489.0343933105469 499.05181884765625 C 483.1481018066406 508.8946533203125 483.10260009765625 520.0996704101562 483.607666015625 500.44952392578125 C 507.2122497558594 491.8269958496094 505.96173095703125 511.51544189453125 541.5853881835938 519.209228515625 C 473.9413757324219 506.5986328125 497.69171142578125 525.7962036132812 478.99212646484375 509.4485778808594 C 511.30328369140625 488.38177490234375 563.97314453125 472.92486572265625 511.8950500488281 472.92254638671875" stroke-width="6.0" fill="none" stroke="rgb(0, 0, 0)" stroke-opacity="0.22025377" stroke-linecap="round" stroke-linejoin="round"/>
    <path d="M 531.6243896484375 301.42852783203125 C 448.25762939453125 258.31304931640625 399.28448486328125 208.4864959716797 467.4725646972656 232.7293243408203 C 530.2872314453125 287.5778503417969 546.2263793945312 237.30880737304688 518.4221801757812 261.26934814453125 C 493.88018798828125 261.86883544921875 509.2165832519531 280.2834167480469 497.59332275390625 267.74066162109375 C 526.6327514648438 261.01666259765625 534.9269409179688 239.62200927734375 574.806884765625 265.7254943847656" stroke-width="6.0" fill="none" stroke="rgb(0, 0, 0)" stroke-opacity="0.018398885" stroke-linecap="round" stroke-linejoin="round"/>
    <path d="M 391.5067443847656 318.6440734863281 C 422.8432312011719 288.9564208984375 415.4937744140625 299.4875183105469 384.6604919433594 323.5041198730469 C 462.33123779296875 321.9501037597656 459.341552734375 336.5341796875 371.42266845703125 331.2405700683594 C 405.45172119140625 347.7472229003906 439.44964599609375 322.0652160644531 423.9059753417969 325.2317199707031 C 380.37615966796875 335.45245361328125 408.6496887207031 309.54248046875 372.95263671875 383.2425231933594" stroke-width="6.0" fill="none" stroke="rgb(0, 0, 0)" stroke-opacity="0.25734347" stroke-linecap="round" stroke-linejoin="round"/>
    <path d="M 437.989501953125 419.2430419921875 C 506.9693298339844 359.9190368652344 538.8028564453125 353.9173278808594 540.2669067382812 336.50860595703125 C 539.3322143554688 291.4476623535156 575.5827026367188 263.03961181640625 495.0065612792969 252.05682373046875 C 553.74462890625 335.7416687011719 506.39447021484375 281.23529052734375 575.4081420898438 288.7402648925781 C 622.6962890625 331.61346435546875 461.83624267578125 284.51385498046875 541.1898803710938 338.4490966796875" stroke-width="6.0" fill="none" stroke="rgb(0, 0, 0)" stroke-opacity="0.81309795" stroke-linecap="round" stroke-linejoin="round"/>
    <path d="M 425.1748046875 275.834716796875 C 402.6288757324219 260.96697998046875 375.65997314453125 243.7850341796875 308.7699890136719 313.376220703125 C 312.24835205078125 357.4330749511719 417.445068359375 326.2008972167969 339.6604919433594 327.5259704589844 C 331.7387390136719 312.07366943359375 383.29266357421875 275.437255859375 387.9398193359375 255.16648864746094 C 383.8571472167969 299.06854248046875 365.209716796875 305.3877868652344 295.68829345703125 323.7283935546875" stroke-width="6.0" fill="none" stroke="rgb(0, 0, 0)" stroke-opacity="0.44009793" stroke-linecap="round" stroke-linejoin="round"/>
    <path d="M -15.558262825012207 285.7987976074219 C 4.554646968841553 300.1683349609375 -3.3178040981292725 291.9398498535156 17.14310646057129 275.0216979980469 C -6.646308422088623 281.6319580078125 -0.009498580358922482 310.72576904296875 -3.8900504112243652 298.56256103515625 C -52.41240310668945 311.88714599609375 -58.15679931640625 293.97906494140625 -28.46807289123535 279.2943420410156 C -9.972555160522461 229.7440643310547 -40.69852066040039 249.56398010253906 -6.7522172927856445 256.7520446777344" stroke-width="6.0" fill="none" stroke="rgb(0, 0, 0)" stroke-opacity="0.6781564" stroke-linecap="round" stroke-linejoin="round"/>
    <path d="M 403.1412353515625 497.6708679199219 C 353.2109375 516.0995483398438 415.4571533203125 499.9892578125 396.7353515625 521.3214721679688 C 424.6070251464844 505.2817077636719 342.5665283203125 499.8768310546875 366.59185791015625 467.74066162109375 C 356.712646484375 466.1344299316406 296.0500793457031 480.7741394042969 295.02001953125 470.26483154296875 C 332.9888610839844 500.450927734375 327.65155029296875 487.9403076171875 286.80584716796875 543.069091796875" stroke-width="6.0" fill="none" stroke="rgb(0, 0, 0)" stroke-opacity="0.011649163" stroke-linecap="round" stroke-linejoin="round"/>
    <path d="M 250.9093780517578 329.8608703613281 C 393.0716552734375 343.3214111328125 442.2796936035156 325.23333740234375 394.5750732421875 337.3172607421875 C 293.1790466308594 342.0639953613281 224.74403381347656 323.34619140625 327.9981994628906 325.0495910644531 C 221.56578063964844 303.7118225097656 188.17820739746094 332.93060302734375 344.7120666503906 329.88958740234375 C 400.6103210449219 326.4571838378906 369.8073425292969 329.7299499511719 419.04803466796875 277.313720703125" stroke-width="6.0" fill="none" stroke="rgb(0, 0, 0)" stroke-opacity="0.58979595" stroke-linecap="round" stroke-linejoin="round"/>
    <path d="M 485.0998229980469 503.5585632324219 C 535.9296875 520.3674926757812 534.5269165039062 522.4957885742188 510.7055969238281 473.1488037109375 C 510.2060546875 551.96044921875 514.97705078125 529.2068481445312 519.3712768554688 408.3460388183594 C 497.38092041015625 522.3026123046875 517.2926635742188 517.720947265625 481.0787048339844 502.9833984375 C 484.95074462890625 521.6974487304688 538.630859375 537.0010986328125 517.7412109375 467.9251403808594" stroke-width="6.0" fill="none" stroke="rgb(0, 0, 0)" stroke-opacity="0.74139494" stroke-linecap="round" stroke-linejoin="round"/>
  </g>
</svg>
