<?xml version="1.0" ?>
<svg xmlns="http://www.w3.org/2000/svg" version="1.1" width="600" height="600">
  <defs/>
  <g>
    <path d="M 413.02227783203125 149.97019958496094 C 414.8333435058594 123.83575439453125 393.6676940917969 119.64917755126953 345.8680114746094 86.2039566040039 C 338.91082763671875 89.0055160522461 334.5919494628906 128.0049591064453 312.1396179199219 88.42070770263672 C 311.4602355957031 86.76134490966797 306.2829284667969 68.09783935546875 341.7007141113281 109.20380401611328 C 285.7835388183594 119.63777923583984 323.22271728515625 75.81575012207031 315.9379577636719 166.5913848876953" stroke-width="6.486812591552734" fill="none" stroke="rgb(0, 0, 0)" stroke-opacity="0.79440355" stroke-linecap="round" stroke-linejoin="round"/>
    <path d="M 594.5737915039062 281.8563232421875 C 552.06298828125 337.831787109375 557.5267333984375 314.4782409667969 562.6249389648438 344.20062255859375 C 541.4397583007812 318.194091796875 537.63623046875 321.879638671875 526.534912109375 323.6861267089844 C 515.5960083007812 317.02618408203125 504.7830810546875 316.24884033203125 446.7771301269531 307.39678955078125 C 433.66595458984375 310.5155029296875 442.505859375 333.5565185546875 444.0244445800781 333.6971130371094" stroke-width="2.656846523284912" fill="none" stroke="rgb(0, 0, 0)" stroke-opacity="1.0" stroke-linecap="round" stroke-linejoin="round"/>
    <path d="M 369.683349609375 196.680419921875 C 421.537841796875 175.44223022460938 478.4215393066406 251.02182006835938 417.397705078125 272.4328308105469 C 430.2414245605469 179.5440216064453 396.9481506347656 177.76243591308594 407.9007568359375 125.77533721923828 C 369.651611328125 85.52101135253906 307.0739440917969 89.156494140625 269.94635009765625 151.20516967773438 C 268.3984375 217.90411376953125 269.4960021972656 265.3223876953125 289.93505859375 153.80825805664062" stroke-width="11.67910099029541" fill="none" stroke="rgb(0, 0, 0)" stroke-opacity="0.27358583" stroke-linecap="round" stroke-linejoin="round"/>
    <path d="M 153.6653289794922 416.75689697265625 C 154.1679229736328 413.4112243652344 177.838134765625 468.6319274902344 139.4513397216797 424.21923828125 C 127.11621856689453 361.8692932128906 119.14196014404297 361.2929992675781 129.95211791992188 347.0781555175781 C 100.22286224365234 364.9588623046875 126.90606689453125 362.81658935546875 178.22369384765625 356.12322998046875 C 151.58578491210938 358.5014953613281 167.33889770507812 353.5335693359375 162.01104736328125 452.621337890625" stroke-width="2.0" fill="none" stroke="rgb(0, 0, 0)" stroke-opacity="0.16022103" stroke-linecap="round" stroke-linejoin="round"/>
    <path d="M 550.7464599609375 592.5725708007812 C 534.1107177734375 449.55517578125 509.4209899902344 468.5525817871094 561.4721069335938 461.5281066894531 C 607.06689453125 520.9276733398438 625.3143310546875 532.0889282226562 633.0742797851562 545.5527954101562 C 613.0143432617188 523.5680541992188 606.077392578125 507.0212097167969 605.5142211914062 529.935791015625 C 627.4263916015625 534.3667602539062 604.6865234375 525.8214111328125 610.4277954101562 527.0391845703125" stroke-width="5.073505878448486" fill="none" stroke="rgb(0, 0, 0)" stroke-opacity="0.35360047" stroke-linecap="round" stroke-linejoin="round"/>
    <path d="M 40.6782112121582 675.9985961914062 C 27.456764221191406 647.818115234375 16.757352828979492 599.0203247070312 28.58956527709961 538.2456665039062 C 3.4352879524230957 531.6543579101562 -11.168717384338379 523.5140380859375 -20.085939407348633 506.0256652832031 C 21.77902603149414 537.9122314453125 12.2353515625 546.825927734375 -7.989866256713867 520.8834228515625 C 9.66582202911377 530.332275390625 34.49664306640625 562.4141845703125 16.63034439086914 528.7499389648438" stroke-width="2.0" fill="none" stroke="rgb(0, 0, 0)" stroke-opacity="0.7905045" stroke-linecap="round" stroke-linejoin="round"/>
    <path d="M 608.5450439453125 228.76290893554688 C 594.4656982421875 226.12696838378906 612.333984375 217.08135986328125 606.3694458007812 207.9978790283203 C 608.9370727539062 198.4536590576172 617.4642333984375 225.51780700683594 613.1138305664062 249.60264587402344 C 606.14990234375 232.6251220703125 630.1271362304688 247.2611083984375 649.3386840820312 243.214599609375 C 636.3103637695312 271.71826171875 629.3719482421875 272.6593017578125 613.9468383789062 250.00909423828125" stroke-width="2.0" fill="none" stroke="rgb(0, 0, 0)" stroke-opacity="0.96189713" stroke-linecap="round" stroke-linejoin="round"/>
    <path d="M 144.34568786621094 86.63178253173828 C 149.63319396972656 114.66156005859375 138.89906311035156 98.69498443603516 139.869873046875 86.43656158447266 C 168.15907287597656 85.47721862792969 150.0570526123047 76.48455810546875 144.86199951171875 96.15396881103516 C 141.35511779785156 109.4588851928711 143.0507354736328 128.88722229003906 138.45594787597656 100.08396911621094 C 139.97923278808594 102.61640167236328 135.59872436523438 125.3799057006836 132.36231994628906 145.31024169921875" stroke-width="7.375828742980957" fill="none" stroke="rgb(0, 0, 0)" stroke-opacity="0.5176702" stroke-linecap="round" stroke-linejoin="round"/>
    <path d="M 304.00146484375 451.97869873046875 C 312.0855407714844 459.0893859863281 308.8351745605469 474.713623046875 296.8407897949219 445.936767578125 C 318.83929443359375 460.58642578125 314.716796875 481.801025390625 310.4200439453125 478.9977111816406 C 309.2983703613281 476.34588623046875 328.9608459472656 451.49359130859375 331.26806640625 398.5038146972656 C 267.79254150390625 425.63531494140625 319.4347229003906 423.971923828125 320.7698059082031 345.3480529785156" stroke-width="11.902215003967285" fill="none" stroke="rgb(0, 0, 0)" stroke-opacity="0.121823445" stroke-linecap="round" stroke-linejoin="round"/>
    <path d="M 86.39644622802734 204.3177490234375 C 83.1771469116211 208.06661987304688 57.48622131347656 216.3479766845703 87.71515655517578 199.798828125 C 76.20428466796875 218.61358642578125 93.67100524902344 206.79965209960938 70.8993148803711 203.4752655029297 C 69.23997497558594 220.40792846679688 59.282291412353516 216.6583709716797 73.03632354736328 207.28697204589844 C 45.55906295776367 222.3411407470703 83.51570892333984 212.3662109375 73.27210235595703 201.20440673828125" stroke-width="2.24565052986145" fill="none" stroke="rgb(0, 0, 0)" stroke-opacity="0.71012896" stroke-linecap="round" stroke-linejoin="round"/>
    <path d="M 560.8572998046875 -6.6996750831604 C 524.38525390625 -16.737485885620117 516.0944213867188 -29.387332916259766 533.3373413085938 -50.08949661254883 C 572.928466796875 -37.24684143066406 543.0869140625 -16.609342575073242 538.7571411132812 -45.2299919128418 C 544.750732421875 -65.24082946777344 548.5498657226562 -44.75765609741211 524.0700073242188 -59.49259948730469 C 516.8345336914062 -50.920902252197266 499.5682373046875 -31.0861759185791 490.2275695800781 -4.933757305145264" stroke-width="8.199484825134277" fill="none" stroke="rgb(0, 0, 0)" stroke-opacity="0.13324407" stroke-linecap="round" stroke-linejoin="round"/>
    <path d="M 394.4976806640625 224.54693603515625 C 411.2156066894531 258.38641357421875 418.9153747558594 278.5904541015625 403.24993896484375 266.64337158203125 C 441.6114196777344 286.2958068847656 426.6273193359375 312.1327819824219 408.494873046875 303.7518005371094 C 400.03582763671875 292.0404357910156 410.8638610839844 286.7110595703125 388.3429260253906 295.45526123046875 C 381.64752197265625 293.8620910644531 374.51806640625 304.6310729980469 381.4067077636719 296.0417785644531" stroke-width="2.669468402862549" fill="none" stroke="rgb(0, 0, 0)" stroke-opacity="0.42793617" stroke-linecap="round" stroke-linejoin="round"/>
    <path d="M 558.3562622070312 191.68006896972656 C 533.1697998046875 179.72230529785156 544.2681274414062 172.84608459472656 524.1357421875 154.5010223388672 C 463.5242614746094 160.67767333984375 484.2915954589844 172.75933837890625 465.9964904785156 144.9158935546875 C 383.4657897949219 139.77003479003906 383.0110168457031 136.58718872070312 458.036376953125 111.78348541259766 C 490.2875061035156 116.03077697753906 478.3919982910156 140.33999633789062 512.8432006835938 128.9455108642578" stroke-width="2.0" fill="none" stroke="rgb(0, 0, 0)" stroke-opacity="0.7309074" stroke-linecap="round" stroke-linejoin="round"/>
    <path d="M 214.8291473388672 253.64369201660156 C 198.60943603515625 356.4368591308594 132.43026733398438 325.45556640625 200.86648559570312 290.5702209472656 C 237.48048400878906 248.70204162597656 225.84149169921875 244.28794860839844 183.96096801757812 298.17584228515625 C 158.85690307617188 323.9162292480469 198.28939819335938 300.5945129394531 222.65859985351562 241.40809631347656 C 155.62989807128906 252.96434020996094 184.97177124023438 253.14193725585938 150.57354736328125 337.24908447265625" stroke-width="4.9037861824035645" fill="none" stroke="rgb(0, 0, 0)" stroke-opacity="0.9560627" stroke-linecap="round" stroke-linejoin="round"/>
    <path d="M 558.0831909179688 8.426094055175781 C 588.95263671875 72.75830078125 589.7906494140625 98.06021118164062 591.9520874023438 64.52447509765625 C 600.2360229492188 -21.944778442382812 592.4675903320312 32.27278137207031 606.7466430664062 -24.037601470947266 C 623.6141357421875 -6.297753810882568 560.1397705078125 -7.295458793640137 584.2654418945312 -24.84840202331543 C 584.5277099609375 59.68802261352539 626.6972045898438 7.925777912139893 597.1375732421875 -28.374271392822266" stroke-width="6.309433460235596" fill="none" stroke="rgb(0, 0, 0)" stroke-opacity="0.6206043" stroke-linecap="round" stroke-linejoin="round"/>
    <path d="M 110.14958953857422 72.8003921508789 C 110.31493377685547 73.4072494506836 126.50735473632812 73.58724975585938 119.781494140625 43.46208572387695 C 103.00044250488281 27.292354583740234 137.2257537841797 45.90036392211914 97.47891235351562 51.54300308227539 C 100.79435729980469 45.479698181152344 107.08745574951172 49.75897216796875 61.57073974609375 78.8938217163086 C 62.110877990722656 84.12236785888672 50.09615707397461 81.34138488769531 64.02857208251953 82.05924224853516" stroke-width="4.292994499206543" fill="none" stroke="rgb(0, 0, 0)" stroke-opacity="0.3155109" stroke-linecap="round" stroke-linejoin="round"/>
    <path d="M 353.2311706542969 292.81640625 C 413.0650634765625 368.363525390625 384.243896484375 389.3425598144531 364.31610107421875 452.2088623046875 C 369.9648132324219 354.74407958984375 373.68841552734375 370.3123474121094 392.5088195800781 443.4475402832031 C 393.5682373046875 400.768310546875 384.7881774902344 421.2857666015625 401.5265197753906 467.55010986328125 C 405.2027282714844 435.616455078125 408.7169494628906 438.44964599609375 389.8232727050781 393.08209228515625" stroke-width="12.0" fill="none" stroke="rgb(0, 0, 0)" stroke-opacity="0.47691897" stroke-linecap="round" stroke-linejoin="round"/>
    <path d="M 428.83984375 249.6974334716797 C 335.2753601074219 168.30078125 343.65777587890625 151.5283966064453 341.2193603515625 136.74533081054688 C 301.01959228515625 181.373046875 296.26995849609375 151.8103790283203 306.4524841308594 103.6874008178711 C 285.0443115234375 121.73555755615234 289.4893493652344 136.56130981445312 285.64447021484375 143.54531860351562 C 264.75970458984375 159.2241668701172 288.2078552246094 105.3272705078125 319.06219482421875 180.27151489257812" stroke-width="3.6744260787963867" fill="none" stroke="rgb(0, 0, 0)" stroke-opacity="0.6256486" stroke-linecap="round" stroke-linejoin="round"/>
    <path d="M 118.01274108886719 523.2930908203125 C 146.3140869140625 497.9924621582031 162.2774200439453 464.8594665527344 141.2655792236328 435.5870361328125 C 141.2105255126953 490.9421081542969 109.4968032836914 490.0682373046875 145.79983520507812 489.8108215332031 C 142.3282470703125 530.5380859375 166.45211791992188 555.5794067382812 155.37095642089844 474.1018371582031 C 157.61912536621094 424.2951965332031 192.6665802001953 476.8011169433594 198.82594299316406 544.4796142578125" stroke-width="12.0" fill="none" stroke="rgb(0, 0, 0)" stroke-opacity="0.86401534" stroke-linecap="round" stroke-linejoin="round"/>
    <path d="M 594.5737915039062 281.8563232421875 C 552.06298828125 337.831787109375 557.5267333984375 314.4782409667969 562.6249389648438 344.20062255859375 C 541.4397583007812 318.194091796875 537.63623046875 321.879638671875 526.534912109375 323.6861267089844 C 515.5960083007812 317.02618408203125 504.7830810546875 316.24884033203125 446.7771301269531 307.39678955078125 C 433.66595458984375 310.5155029296875 442.505859375 333.5565185546875 444.0244445800781 333.6971130371094" stroke-width="2.656846523284912" fill="none" stroke="rgb(0, 0, 0)" stroke-opacity="1.0" stroke-linecap="round" stroke-linejoin="round"/>
    <path d="M 452.9853820800781 418.9404296875 C 402.9739685058594 379.7580871582031 396.0204772949219 387.5239562988281 410.1592102050781 362.3104553222656 C 432.3871765136719 320.6131591796875 430.41217041015625 309.134033203125 433.9786376953125 310.1734619140625 C 428.76080322265625 329.55487060546875 431.7237548828125 319.3650207519531 441.9220886230469 303.1415710449219 C 441.424072265625 309.27020263671875 417.8439636230469 306.4801940917969 447.3070373535156 299.0975036621094" stroke-width="9.703142166137695" fill="none" stroke="rgb(0, 0, 0)" stroke-opacity="0.5997126" stroke-linecap="round" stroke-linejoin="round"/>
    <path d="M 377.2485046386719 406.1453857421875 C 310.99468994140625 427.3603820800781 272.9245910644531 410.40118408203125 281.4163818359375 408.39300537109375 C 293.8463134765625 417.3470458984375 372.77252197265625 404.1462097167969 370.3086853027344 410.1683044433594 C 398.033203125 451.6060791015625 388.60479736328125 418.83349609375 359.8315734863281 428.1535949707031 C 384.5633239746094 462.44927978515625 396.4342956542969 509.3724365234375 410.44671630859375 495.7208557128906" stroke-width="7.048063278198242" fill="none" stroke="rgb(0, 0, 0)" stroke-opacity="0.28447798" stroke-linecap="round" stroke-linejoin="round"/>
    <path d="M 66.59236145019531 23.28483009338379 C 32.617469787597656 3.325356960296631 28.077709197998047 5.888339996337891 26.633756637573242 3.022627115249634 C 124.35615539550781 -16.519649505615234 139.73219299316406 -38.61250686645508 112.46610260009766 -36.09370803833008 C 107.42906951904297 -36.78142547607422 119.72064208984375 -15.440567016601562 163.18812561035156 -5.289921760559082 C 152.1123504638672 -19.83922004699707 156.87545776367188 -4.758318901062012 150.6539764404297 -6.7131781578063965" stroke-width="5.229182243347168" fill="none" stroke="rgb(0, 0, 0)" stroke-opacity="0.9228195" stroke-linecap="round" stroke-linejoin="round"/>
    <path d="M 129.86660766601562 466.2547302246094 C 212.53579711914062 441.65850830078125 232.0515899658203 394.14276123046875 187.73159790039062 431.864990234375 C 126.99571228027344 432.08349609375 165.27816772460938 468.60565185546875 175.63784790039062 454.97515869140625 C 189.57550048828125 407.0072937011719 168.28286743164062 401.6195373535156 139.76132202148438 476.10968017578125 C 157.1749725341797 493.2419128417969 154.54397583007812 416.65936279296875 142.5523223876953 431.9956970214844" stroke-width="11.369096755981445" fill="none" stroke="rgb(0, 0, 0)" stroke-opacity="0.12144287" stroke-linecap="round" stroke-linejoin="round"/>
    <path d="M 413.3230895996094 528.5966186523438 C 381.5617980957031 456.6798400878906 421.6025695800781 485.6925048828125 417.8306579589844 530.9374389648438 C 430.367431640625 508.1023864746094 454.72857666015625 550.357177734375 442.9220886230469 531.1458129882812 C 429.4282531738281 572.58837890625 454.97296142578125 599.5022583007812 453.7414245605469 633.8145141601562 C 447.7954406738281 563.6983642578125 436.85699462890625 571.5225219726562 450.6565856933594 618.2464599609375" stroke-width="4.0906291007995605" fill="none" stroke="rgb(0, 0, 0)" stroke-opacity="0.1810452" stroke-linecap="round" stroke-linejoin="round"/>
    <path d="M 291.5234375 247.233154296875 C 228.29917907714844 220.18145751953125 234.19215393066406 224.9072265625 271.9213562011719 238.11273193359375 C 284.109619140625 221.28732299804688 294.36895751953125 235.40252685546875 242.47027587890625 253.32388305664062 C 242.61170959472656 263.1959228515625 252.85194396972656 212.44378662109375 260.43841552734375 141.4532470703125 C 321.9577331542969 105.19110870361328 292.8349914550781 181.48806762695312 346.7015686035156 220.0084228515625" stroke-width="2.996088743209839" fill="none" stroke="rgb(0, 0, 0)" stroke-opacity="0.46001655" stroke-linecap="round" stroke-linejoin="round"/>
    <path d="M 127.27618408203125 66.6506118774414 C 130.27635192871094 57.83515930175781 118.12872314453125 78.94377136230469 148.63134765625 83.96053314208984 C 154.15504455566406 80.26084899902344 148.90283203125 74.15975189208984 192.87985229492188 39.63032531738281 C 156.3336944580078 4.962479591369629 132.83224487304688 -7.708458423614502 102.96092987060547 -5.414880752563477 C 100.23389434814453 -18.992597579956055 88.07902526855469 -23.227174758911133 109.54801940917969 -36.19865036010742" stroke-width="3.8893511295318604" fill="none" stroke="rgb(0, 0, 0)" stroke-opacity="0.4920177" stroke-linecap="round" stroke-linejoin="round"/>
    <path d="M 247.50318908691406 191.3323516845703 C 233.39453125 262.4890441894531 258.8852844238281 221.450439453125 251.55384826660156 188.40797424316406 C 310.23529052734375 138.05978393554688 260.08245849609375 154.4492950439453 254.91441345214844 181.8753204345703 C 248.26776123046875 173.4381103515625 271.89776611328125 177.86087036132812 300.64739990234375 114.34893035888672 C 216.28660583496094 78.09896850585938 219.431396484375 95.23899841308594 228.7738494873047 85.7260513305664" stroke-width="8.25705337524414" fill="none" stroke="rgb(0, 0, 0)" stroke-opacity="0.7026021" stroke-linecap="round" stroke-linejoin="round"/>
    <path d="M 554.8960571289062 141.74916076660156 C 583.2145385742188 106.64030456542969 540.383544921875 147.5006561279297 575.8822631835938 109.02745819091797 C 605.925048828125 90.4756088256836 599.7362670898438 142.28903198242188 580.3598022460938 144.23851013183594 C 530.1577758789062 104.45266723632812 550.814453125 146.8706817626953 578.699462890625 151.90223693847656 C 600.2603149414062 116.08919525146484 590.4417724609375 39.497711181640625 590.2056884765625 102.0131607055664" stroke-width="3.0671920776367188" fill="none" stroke="rgb(0, 0, 0)" stroke-opacity="0.082543135" stroke-linecap="round" stroke-linejoin="round"/>
    <path d="M 303.5998229980469 375.04217529296875 C 351.8333740234375 380.4742431640625 338.1147155761719 331.8888854980469 350.53741455078125 385.39447021484375 C 353.57196044921875 393.6016845703125 375.7845153808594 397.4405517578125 341.7326354980469 347.4046630859375 C 306.3476867675781 267.9571533203125 307.14569091796875 238.0276336669922 387.8693542480469 298.4486083984375 C 379.22552490234375 334.22662353515625 412.41143798828125 300.1842346191406 431.1088562011719 297.59063720703125" stroke-width="2.0" fill="none" stroke="rgb(0, 0, 0)" stroke-opacity="0.19354202" stroke-linecap="round" stroke-linejoin="round"/>
    <path d="M 131.14842224121094 488.90997314453125 C 166.08392333984375 497.10400390625 165.4720916748047 491.9407043457031 150.2334442138672 539.5947875976562 C 162.54254150390625 639.0068969726562 137.5093994140625 666.3040161132812 136.00868225097656 640.8408203125 C 95.4079818725586 625.4718017578125 81.3168716430664 651.1846923828125 80.55008697509766 688.4901733398438 C 48.30158233642578 661.6033325195312 48.53582763671875 650.715576171875 44.663509368896484 612.241943359375" stroke-width="12.0" fill="none" stroke="rgb(0, 0, 0)" stroke-opacity="0.37008145" stroke-linecap="round" stroke-linejoin="round"/>
    <path d="M 123.98367309570312 481.1250915527344 C 89.97520446777344 510.0953369140625 74.60958099365234 503.0118713378906 57.735294342041016 499.421630859375 C 74.18523406982422 482.00250244140625 71.2188949584961 512.2842407226562 111.5801773071289 488.50604248046875 C 187.48548889160156 480.76434326171875 157.15025329589844 503.45855712890625 71.16773986816406 534.205322265625 C 28.843639373779297 512.8301391601562 67.45054626464844 521.1510009765625 118.55220794677734 510.6562805175781" stroke-width="4.21474552154541" fill="none" stroke="rgb(0, 0, 0)" stroke-opacity="0.5241471" stroke-linecap="round" stroke-linejoin="round"/>
    <path d="M 390.2051696777344 367.3153991699219 C 372.0682067871094 419.86199951171875 337.6124572753906 447.8694152832031 298.881591796875 411.7608642578125 C 260.1943664550781 377.4120788574219 247.04617309570312 377.1059265136719 258.2189025878906 445.9491882324219 C 234.210693359375 443.9468994140625 261.20489501953125 453.8008728027344 255.51800537109375 358.09576416015625 C 223.9198455810547 358.5600891113281 255.18125915527344 421.40936279296875 277.54046630859375 390.6831970214844" stroke-width="12.0" fill="none" stroke="rgb(0, 0, 0)" stroke-opacity="0.37674785" stroke-linecap="round" stroke-linejoin="round"/>
    <path d="M -4.560258388519287 390.04742431640625 C -39.84911346435547 400.2716369628906 -51.78269577026367 421.6665344238281 -33.068115234375 406.9452209472656 C -59.0668830871582 419.448974609375 -49.679561614990234 405.3333740234375 -48.5362663269043 430.8048400878906 C -55.041015625 399.15496826171875 -26.566547393798828 387.3468933105469 -16.011388778686523 432.16046142578125 C -1.5389472246170044 455.33367919921875 36.87881088256836 434.8604431152344 36.24142837524414 384.4888916015625" stroke-width="2.982250213623047" fill="none" stroke="rgb(0, 0, 0)" stroke-opacity="0.65844226" stroke-linecap="round" stroke-linejoin="round"/>
    <path d="M 439.0809631347656 265.9797058105469 C 440.1317138671875 198.8978271484375 451.092041015625 228.4512481689453 444.7330017089844 270.4637145996094 C 443.175048828125 210.66903686523438 436.97705078125 210.90283203125 442.37017822265625 241.42433166503906 C 426.0849609375 227.14230346679688 437.0155944824219 186.37969970703125 466.92083740234375 193.4991912841797 C 493.18133544921875 255.7449951171875 503.9435729980469 233.56675720214844 484.9365234375 253.90414428710938" stroke-width="8.529699325561523" fill="none" stroke="rgb(0, 0, 0)" stroke-opacity="0.55573267" stroke-linecap="round" stroke-linejoin="round"/>
    <path d="M 163.5065460205078 320.28369140625 C 187.45001220703125 241.33692932128906 252.63133239746094 221.56680297851562 236.4820098876953 252.2852020263672 C 221.11326599121094 238.36671447753906 233.70736694335938 271.08843994140625 237.4883270263672 218.13229370117188 C 250.43157958984375 235.37022399902344 221.54208374023438 271.8836975097656 217.6702423095703 290.44873046875 C 201.48289489746094 299.73394775390625 213.6260986328125 258.56854248046875 251.0863800048828 194.4370574951172" stroke-width="3.3208885192871094" fill="none" stroke="rgb(0, 0, 0)" stroke-opacity="0.9334607" stroke-linecap="round" stroke-linejoin="round"/>
    <path d="M 252.97247314453125 97.21859741210938 C 288.39013671875 96.14619445800781 272.963623046875 35.76744079589844 314.4752197265625 130.2824249267578 C 288.159912109375 137.24447631835938 313.46002197265625 122.08346557617188 351.953125 116.05296325683594 C 368.9800720214844 54.51067352294922 348.94964599609375 78.8748779296875 297.7361755371094 95.45157623291016 C 333.4993591308594 145.21905517578125 297.01763916015625 116.11149597167969 267.5033264160156 97.7919921875" stroke-width="2.0512285232543945" fill="none" stroke="rgb(0, 0, 0)" stroke-opacity="0.18456036" stroke-linecap="round" stroke-linejoin="round"/>
    <path d="M 245.3749542236328 -14.294694900512695 C 245.38377380371094 2.6999287605285645 225.66114807128906 -22.18083381652832 235.15023803710938 -30.8104190826416 C 222.14926147460938 -17.950824737548828 236.58547973632812 -20.874643325805664 201.5803985595703 -34.31950378417969 C 193.92886352539062 -24.329185485839844 225.507568359375 -39.825950622558594 238.92918395996094 -12.97999382019043 C 236.40380859375 -19.34956932067871 264.67669677734375 -5.566601753234863 252.0533905029297 -4.770687580108643" stroke-width="2.0" fill="none" stroke="rgb(0, 0, 0)" stroke-opacity="0.7771937" stroke-linecap="round" stroke-linejoin="round"/>
    <path d="M 216.6389923095703 272.1878356933594 C 208.52784729003906 375.6454162597656 221.77261352539062 319.61639404296875 232.9444580078125 444.2507019042969 C 165.846435546875 425.3199157714844 140.16793823242188 372.7401428222656 188.55970764160156 432.2333068847656 C 219.94692993164062 477.7486877441406 150.1709442138672 464.49847412109375 142.45932006835938 420.5554504394531 C 131.39199829101562 404.4616394042969 99.14673614501953 304.8345947265625 163.92999267578125 258.1693115234375" stroke-width="4.4036760330200195" fill="none" stroke="rgb(0, 0, 0)" stroke-opacity="0.44879392" stroke-linecap="round" stroke-linejoin="round"/>
    <path d="M 423.3160095214844 262.59832763671875 C 418.4259033203125 209.5559539794922 401.03741455078125 229.94503784179688 407.16925048828125 260.22064208984375 C 437.7712097167969 253.00677490234375 449.5072021484375 257.51434326171875 418.1260681152344 265.9780578613281 C 435.071533203125 285.9759521484375 460.7328796386719 245.24969482421875 433.30548095703125 217.4121856689453 C 445.6617431640625 271.79669189453125 432.7107849121094 283.2646179199219 410.32952880859375 240.7688751220703" stroke-width="10.915212631225586" fill="none" stroke="rgb(0, 0, 0)" stroke-opacity="0.34747916" stroke-linecap="round" stroke-linejoin="round"/>
    <path d="M 303.18670654296875 114.23735046386719 C 225.31561279296875 92.04154205322266 241.06788635253906 90.11402893066406 225.9654541015625 70.98041534423828 C 230.96400451660156 104.94283294677734 214.55043029785156 74.59187316894531 197.34536743164062 85.61583709716797 C 191.918212890625 51.17866516113281 196.65109252929688 35.66228485107422 206.92996215820312 59.745994567871094 C 197.4617156982422 48.8745231628418 209.75592041015625 39.816612243652344 220.91925048828125 -11.27386474609375" stroke-width="4.038078308105469" fill="none" stroke="rgb(0, 0, 0)" stroke-opacity="0.2883885" stroke-linecap="round" stroke-linejoin="round"/>
    <path d="M 57.48649215698242 217.77499389648438 C 73.5972671508789 222.7825164794922 113.0753173828125 258.14447021484375 124.63938903808594 232.11700439453125 C 125.52427673339844 190.89730834960938 126.8798828125 234.57595825195312 125.220703125 194.2481231689453 C 133.1977081298828 139.6369171142578 139.2700958251953 122.77578735351562 136.36683654785156 129.0399169921875 C 95.524658203125 130.490478515625 119.04639434814453 132.0450897216797 114.94237518310547 126.73168182373047" stroke-width="4.34164571762085" fill="none" stroke="rgb(0, 0, 0)" stroke-opacity="0.32505548" stroke-linecap="round" stroke-linejoin="round"/>
    <path d="M 417.76220703125 510.70263671875 C 462.7184753417969 615.3353271484375 466.26666259765625 648.914306640625 475.8172607421875 634.875 C 398.12811279296875 620.7258911132812 392.91400146484375 624.192138671875 370.7500305175781 642.8696899414062 C 352.1383972167969 670.34375 378.55267333984375 670.3408203125 381.93951416015625 668.8113403320312 C 393.82550048828125 655.8339233398438 379.1978759765625 637.18505859375 382.00274658203125 649.4375" stroke-width="11.929048538208008" fill="none" stroke="rgb(0, 0, 0)" stroke-opacity="0.78165025" stroke-linecap="round" stroke-linejoin="round"/>
    <path d="M 60.762245178222656 163.3765869140625 C 67.00881958007812 122.4813232421875 67.82820892333984 119.42015838623047 61.33509826660156 152.46304321289062 C 43.67129898071289 190.1207733154297 60.0396728515625 221.36346435546875 8.278414726257324 210.62425231933594 C -42.83420181274414 270.6872253417969 -35.63829803466797 242.1632843017578 -5.725961685180664 204.63711547851562 C -35.15949249267578 164.19081115722656 -45.63795852661133 163.1077117919922 -23.977523803710938 193.47061157226562" stroke-width="12.0" fill="none" stroke="rgb(0, 0, 0)" stroke-opacity="0.594356" stroke-linecap="round" stroke-linejoin="round"/>
    <path d="M 284.8927917480469 444.9256896972656 C 290.31976318359375 354.2236328125 346.4186096191406 381.57501220703125 374.4587097167969 408.65325927734375 C 312.1354675292969 389.2926940917969 345.6343078613281 386.28106689453125 340.7908935546875 276.0464172363281 C 285.021484375 282.5492858886719 326.4288024902344 362.8611145019531 282.75872802734375 360.8052673339844 C 285.67926025390625 350.3951110839844 268.7372131347656 378.4897155761719 265.5575256347656 278.5255126953125" stroke-width="9.347208023071289" fill="none" stroke="rgb(0, 0, 0)" stroke-opacity="0.103829004" stroke-linecap="round" stroke-linejoin="round"/>
    <path d="M 400.71337890625 -5.400468826293945 C 390.83978271484375 -0.33469218015670776 403.244140625 -15.4802885055542 425.7337646484375 -13.926864624023438 C 436.8690185546875 -26.55881690979004 419.53289794921875 -5.802905082702637 412.67352294921875 -16.656539916992188 C 414.3994140625 11.740175247192383 414.5545654296875 -6.980375289916992 408.0219421386719 -24.139007568359375 C 407.7418518066406 -2.449388027191162 415.7230529785156 -3.290268898010254 409.5912780761719 -10.703701972961426" stroke-width="2.0" fill="none" stroke="rgb(0, 0, 0)" stroke-opacity="0.4386081" stroke-linecap="round" stroke-linejoin="round"/>
    <path d="M 283.74725341796875 270.137451171875 C 328.60577392578125 349.8677062988281 368.1914367675781 348.40240478515625 339.3744812011719 440.8951721191406 C 356.23431396484375 268.95281982421875 394.0052795410156 285.2395935058594 391.8590087890625 408.7921142578125 C 347.885498046875 412.5679016113281 347.7335205078125 400.67572021484375 369.95281982421875 461.0249328613281 C 387.05621337890625 478.79266357421875 351.44952392578125 444.53839111328125 329.63250732421875 356.9492492675781" stroke-width="3.4093730449676514" fill="none" stroke="rgb(0, 0, 0)" stroke-opacity="0.8051067" stroke-linecap="round" stroke-linejoin="round"/>
    <path d="M 450.2901611328125 100.30136108398438 C 436.835693359375 133.45089721679688 417.0935363769531 116.37791442871094 472.5067443847656 110.31405639648438 C 512.9120483398438 122.73638916015625 453.45684814453125 137.06898498535156 475.4768981933594 139.02935791015625 C 490.53851318359375 138.56011962890625 451.09039306640625 105.5670166015625 393.4627990722656 139.1486053466797 C 400.71368408203125 201.32371520996094 430.1993713378906 180.93350219726562 487.9253845214844 185.4081573486328" stroke-width="2.0751194953918457" fill="none" stroke="rgb(0, 0, 0)" stroke-opacity="0.05740321" stroke-linecap="round" stroke-linejoin="round"/>
    <path d="M 594.5737915039062 281.8563232421875 C 552.06298828125 337.831787109375 557.5267333984375 314.4782409667969 562.6249389648438 344.20062255859375 C 541.4397583007812 318.194091796875 537.63623046875 321.879638671875 526.534912109375 323.6861267089844 C 515.5960083007812 317.02618408203125 504.7830810546875 316.24884033203125 446.7771301269531 307.39678955078125 C 433.66595458984375 310.5155029296875 442.505859375 333.5565185546875 444.0244445800781 333.6971130371094" stroke-width="2.656846523284912" fill="none" stroke="rgb(0, 0, 0)" stroke-opacity="1.0" stroke-linecap="round" stroke-linejoin="round"/>
    <path d="M 589.3582153320312 126.6495590209961 C 583.7576293945312 92.95828247070312 598.5287475585938 88.9869613647461 583.4363403320312 148.15406799316406 C 592.0224609375 162.7490997314453 592.075439453125 207.86477661132812 597.8418579101562 240.35519409179688 C 600.5903930664062 211.345947265625 598.78369140625 213.0789337158203 600.5845947265625 207.4151611328125 C 609.4951782226562 222.3682403564453 597.2886962890625 211.6466827392578 620.3257446289062 197.017578125" stroke-width="2.4646847248077393" fill="none" stroke="rgb(0, 0, 0)" stroke-opacity="0.5391804" stroke-linecap="round" stroke-linejoin="round"/>
    <path d="M 503.0562438964844 237.7644805908203 C 474.87237548828125 257.1534423828125 502.2591247558594 201.8558807373047 456.0468444824219 226.09713745117188 C 426.0184326171875 251.60426330566406 405.5717468261719 270.127685546875 443.4775695800781 301.6676940917969 C 472.6216735839844 265.2525634765625 525.6985473632812 222.77369689941406 562.9395141601562 204.83181762695312 C 553.5813598632812 299.4335632324219 550.14794921875 326.7958679199219 558.1743774414062 334.2490234375" stroke-width="5.977144241333008" fill="none" stroke="rgb(0, 0, 0)" stroke-opacity="0.3883863" stroke-linecap="round" stroke-linejoin="round"/>
    <path d="M -12.680183410644531 412.969482421875 C -17.74903678894043 444.7944030761719 18.13524627685547 452.5528869628906 31.503137588500977 426.37200927734375 C 11.41796875 430.1101989746094 -7.20573616027832 463.4949951171875 9.98923397064209 472.34271240234375 C -5.139893054962158 450.099609375 -30.039993286132812 468.5700378417969 -21.39792823791504 447.1806945800781 C -19.413192749023438 427.15924072265625 -6.555730819702148 407.142333984375 -27.65497398376465 385.0043029785156" stroke-width="5.7809739112854" fill="none" stroke="rgb(0, 0, 0)" stroke-opacity="0.39736328" stroke-linecap="round" stroke-linejoin="round"/>
    <path d="M 10.920523643493652 505.9118347167969 C 18.682790756225586 498.1430358886719 -17.59864616394043 488.31732177734375 -69.61138153076172 530.8577270507812 C -34.86759567260742 556.7283325195312 -45.11274337768555 579.9735107421875 -45.52851104736328 582.2932739257812 C -25.322723388671875 595.4480590820312 -14.121294975280762 602.3435668945312 17.09775161743164 612.9764404296875 C 39.44401550292969 609.5084228515625 61.832000732421875 624.8733520507812 39.48286437988281 651.782958984375" stroke-width="2.0" fill="none" stroke="rgb(0, 0, 0)" stroke-opacity="0.34757945" stroke-linecap="round" stroke-linejoin="round"/>
    <path d="M 268.0087890625 99.5210952758789 C 280.7135314941406 67.61897277832031 286.3544921875 62.83598327636719 292.3819580078125 73.95542907714844 C 288.8998718261719 63.052398681640625 271.2511901855469 67.44794464111328 284.076171875 86.04351043701172 C 281.7828063964844 76.48896026611328 319.96905517578125 48.18709945678711 329.5044860839844 126.20062255859375 C 271.4394226074219 78.95152282714844 287.74658203125 79.85671997070312 268.07415771484375 87.48917388916016" stroke-width="3.012006998062134" fill="none" stroke="rgb(0, 0, 0)" stroke-opacity="0.39065337" stroke-linecap="round" stroke-linejoin="round"/>
    <path d="M 121.19429016113281 153.28282165527344 C 128.16885375976562 157.71231079101562 133.1006317138672 150.20127868652344 128.61865234375 149.48361206054688 C 132.95562744140625 189.34002685546875 125.31169128417969 191.33445739746094 67.78541564941406 204.3983917236328 C 50.7739143371582 240.44595336914062 117.68475341796875 238.01576232910156 102.80797576904297 248.85618591308594 C 68.4846420288086 267.66650390625 63.29025650024414 285.148193359375 63.17198944091797 324.5240478515625" stroke-width="4.3109283447265625" fill="none" stroke="rgb(0, 0, 0)" stroke-opacity="0.5272407" stroke-linecap="round" stroke-linejoin="round"/>
    <path d="M 32.30577850341797 69.50989532470703 C 32.262779235839844 74.31135559082031 43.748374938964844 93.27626037597656 14.358015060424805 75.55029296875 C 39.19084548950195 89.61348724365234 27.885297775268555 44.673553466796875 14.024162292480469 -10.067757606506348 C -23.587909698486328 14.699710845947266 -6.930021286010742 -14.994868278503418 -3.2367842197418213 -44.92719268798828 C 6.584413051605225 -4.611263751983643 36.767181396484375 -6.726770877838135 19.76905059814453 -8.503924369812012" stroke-width="2.1504011154174805" fill="none" stroke="rgb(0, 0, 0)" stroke-opacity="0.6451611" stroke-linecap="round" stroke-linejoin="round"/>
    <path d="M 221.09869384765625 599.2665405273438 C 186.06358337402344 510.9072265625 222.59925842285156 551.9945068359375 192.586181640625 488.03619384765625 C 192.6549530029297 416.590087890625 186.43386840820312 417.1791076660156 236.80690002441406 427.98077392578125 C 247.54624938964844 431.8793640136719 255.1810302734375 446.50030517578125 273.6341857910156 446.0707702636719 C 189.94639587402344 445.32598876953125 171.0976104736328 382.9929504394531 182.3720245361328 471.5426940917969" stroke-width="12.0" fill="none" stroke="rgb(0, 0, 0)" stroke-opacity="0.15148893" stroke-linecap="round" stroke-linejoin="round"/>
    <path d="M 350.2356872558594 257.9966125488281 C 357.6687316894531 365.9275817871094 401.616455078125 355.67681884765625 382.3793029785156 417.95721435546875 C 385.0297546386719 427.6940002441406 357.13909912109375 438.066162109375 302.0996398925781 417.19586181640625 C 380.6596374511719 406.1545104980469 389.27325439453125 380.5137939453125 301.80828857421875 391.26202392578125 C 352.51092529296875 435.10198974609375 383.2723083496094 452.8463134765625 362.077392578125 412.07928466796875" stroke-width="11.600460052490234" fill="none" stroke="rgb(0, 0, 0)" stroke-opacity="0.4215205" stroke-linecap="round" stroke-linejoin="round"/>
    <path d="M 411.4202575683594 203.9033203125 C 422.6429748535156 184.2165069580078 448.7179870605469 237.70057678222656 434.85931396484375 269.0690002441406 C 413.2274475097656 276.959228515625 399.8268127441406 245.4054412841797 415.91748046875 201.87945556640625 C 403.31695556640625 200.15765380859375 489.83203125 238.95932006835938 400.6866149902344 240.22027587890625 C 323.9358215332031 194.82345581054688 359.9793395996094 207.08572387695312 345.32806396484375 342.9732971191406" stroke-width="12.0" fill="none" stroke="rgb(0, 0, 0)" stroke-opacity="0.32266405" stroke-linecap="round" stroke-linejoin="round"/>
    <path d="M 558.2153930664062 -11.51733112335205 C 565.1666259765625 -2.943723678588867 536.5347290039062 -18.60683250427246 486.9019775390625 -46.850772857666016 C 470.7420654296875 31.245773315429688 470.5409851074219 -24.650012969970703 474.6611022949219 -1.8426743745803833 C 463.64056396484375 17.67291259765625 492.8006591796875 -21.239580154418945 469.8451232910156 -51.16438293457031 C 532.5856323242188 -29.288949966430664 569.36328125 -29.671159744262695 616.2760620117188 -2.159888982772827" stroke-width="2.0" fill="none" stroke="rgb(0, 0, 0)" stroke-opacity="0.97165996" stroke-linecap="round" stroke-linejoin="round"/>
    <path d="M 236.05859375 413.552001953125 C 227.5308074951172 374.8592224121094 226.62271118164062 422.5759582519531 264.2974853515625 449.63946533203125 C 253.30970764160156 335.6979675292969 237.2332000732422 411.2657165527344 295.5487365722656 419.4953308105469 C 352.0351257324219 481.8409729003906 320.5669250488281 525.3783569335938 316.01934814453125 502.9769287109375 C 281.0859069824219 465.4150695800781 257.8694763183594 425.138427734375 251.05995178222656 407.83392333984375" stroke-width="3.2809433937072754" fill="none" stroke="rgb(0, 0, 0)" stroke-opacity="0.860996" stroke-linecap="round" stroke-linejoin="round"/>
    <path d="M 413.3342590332031 526.7822875976562 C 436.5119934082031 558.7489013671875 439.6553649902344 569.6883544921875 436.1375427246094 521.8642578125 C 402.3615417480469 491.1449279785156 416.467041015625 445.9820861816406 393.93988037109375 439.3032531738281 C 437.6977233886719 444.9993896484375 363.3015441894531 407.4657897949219 327.496826171875 444.2131042480469 C 305.5517578125 412.9927978515625 375.6227111816406 445.0603332519531 379.84246826171875 399.3244323730469" stroke-width="11.81254768371582" fill="none" stroke="rgb(0, 0, 0)" stroke-opacity="0.8922432" stroke-linecap="round" stroke-linejoin="round"/>
    <path d="M 316.6913757324219 318.38177490234375 C 261.92901611328125 282.43878173828125 246.8251190185547 223.50335693359375 270.228271484375 157.29278564453125 C 277.7000732421875 318.6170654296875 295.6604309082031 296.73291015625 278.98876953125 129.7950897216797 C 248.11143493652344 226.67945861816406 213.8607940673828 286.37139892578125 197.24729919433594 252.41184997558594 C 252.9138641357422 232.55406188964844 231.73641967773438 240.92047119140625 196.05352783203125 268.3148193359375" stroke-width="4.897701740264893" fill="none" stroke="rgb(0, 0, 0)" stroke-opacity="0.77477485" stroke-linecap="round" stroke-linejoin="round"/>
    <path d="M 459.1666564941406 417.41204833984375 C 448.9564208984375 421.0447082519531 462.5114440917969 427.70458984375 477.2316589355469 433.6750793457031 C 495.6780090332031 440.6735534667969 535.0335083007812 468.0149230957031 530.24755859375 464.87347412109375 C 548.8775024414062 452.2008361816406 572.9564208984375 454.46319580078125 559.4603881835938 446.71673583984375 C 612.2877807617188 365.7977294921875 595.909423828125 412.43621826171875 561.9918823242188 344.490478515625" stroke-width="12.0" fill="none" stroke="rgb(0, 0, 0)" stroke-opacity="0.34940413" stroke-linecap="round" stroke-linejoin="round"/>
    <path d="M 358.4208984375 531.4580078125 C 330.626220703125 532.5519409179688 329.6358337402344 527.3292236328125 322.57952880859375 470.3180847167969 C 344.4481201171875 509.58758544921875 332.7786560058594 536.927490234375 349.1852111816406 552.4011840820312 C 391.7130126953125 640.0431518554688 366.6248779296875 641.7887573242188 359.3797607421875 533.7853393554688 C 342.9169616699219 562.9092407226562 381.3617248535156 554.48583984375 327.8067932128906 499.63909912109375" stroke-width="11.85079288482666" fill="none" stroke="rgb(0, 0, 0)" stroke-opacity="0.49761367" stroke-linecap="round" stroke-linejoin="round"/>
    <path d="M 52.253604888916016 293.49237060546875 C 61.692813873291016 297.0330810546875 19.94696807861328 286.3626708984375 16.46980094909668 294.4915466308594 C 8.842550277709961 294.1744689941406 3.698298692703247 283.1940612792969 40.03636932373047 295.8284606933594 C 74.20135498046875 293.2384338378906 50.608062744140625 262.2046813964844 46.1719856262207 215.1042022705078 C 56.68031311035156 205.7981414794922 31.71790313720703 221.0319366455078 35.177982330322266 194.44723510742188" stroke-width="4.463695049285889" fill="none" stroke="rgb(0, 0, 0)" stroke-opacity="0.21525362" stroke-linecap="round" stroke-linejoin="round"/>
    <path d="M 297.3398132324219 93.58379364013672 C 299.0669250488281 106.38214874267578 298.5411071777344 77.1531982421875 286.73126220703125 87.09066772460938 C 253.88162231445312 89.50473022460938 326.7606506347656 -5.023717880249023 307.00506591796875 5.206954002380371 C 223.65235900878906 52.264068603515625 215.23191833496094 51.60162353515625 198.77230834960938 81.89972686767578 C 214.58175659179688 71.34198760986328 216.15260314941406 100.92999267578125 197.57333374023438 83.6963882446289" stroke-width="2.612719774246216" fill="none" stroke="rgb(0, 0, 0)" stroke-opacity="0.6961366" stroke-linecap="round" stroke-linejoin="round"/>
    <path d="M 147.6116180419922 379.942138671875 C 117.16100311279297 309.1110534667969 158.4376220703125 345.4627685546875 231.19862365722656 339.7309265136719 C 221.92137145996094 373.6714782714844 180.4109649658203 388.82122802734375 193.3294219970703 368.5738830566406 C 175.25909423828125 399.9214782714844 170.59068298339844 414.7242126464844 197.45103454589844 441.32684326171875 C 260.3475036621094 443.18670654296875 290.5048522949219 432.34539794921875 296.2475891113281 457.6246337890625" stroke-width="2.7525196075439453" fill="none" stroke="rgb(0, 0, 0)" stroke-opacity="0.051136166" stroke-linecap="round" stroke-linejoin="round"/>
    <path d="M 594.5737915039062 281.8563232421875 C 552.06298828125 337.831787109375 557.5267333984375 314.4782409667969 562.6249389648438 344.20062255859375 C 541.4397583007812 318.194091796875 537.63623046875 321.879638671875 526.534912109375 323.6861267089844 C 515.5960083007812 317.02618408203125 504.7830810546875 316.24884033203125 446.7771301269531 307.39678955078125 C 433.66595458984375 310.5155029296875 442.505859375 333.5565185546875 444.0244445800781 333.6971130371094" stroke-width="2.656846523284912" fill="none" stroke="rgb(0, 0, 0)" stroke-opacity="1.0" stroke-linecap="round" stroke-linejoin="round"/>
    <path d="M 593.6273193359375 218.69583129882812 C 551.6211547851562 192.9429473876953 530.2039184570312 165.79339599609375 539.54736328125 178.47970581054688 C 516.3731079101562 172.6356201171875 516.26416015625 166.83494567871094 488.63641357421875 160.11781311035156 C 470.8560485839844 153.42300415039062 419.9587097167969 119.31090545654297 460.5542907714844 171.48855590820312 C 502.4200439453125 252.0086212158203 423.178466796875 242.73194885253906 406.06689453125 140.41119384765625" stroke-width="5.382380485534668" fill="none" stroke="rgb(0, 0, 0)" stroke-opacity="0.70068026" stroke-linecap="round" stroke-linejoin="round"/>
    <path d="M 340.859130859375 522.6395874023438 C 330.9928283691406 465.84716796875 328.3674621582031 477.5782165527344 297.51495361328125 463.6624755859375 C 296.4619445800781 467.07720947265625 310.6822509765625 461.127685546875 329.8271484375 490.0693359375 C 310.76971435546875 448.0538024902344 297.2046203613281 453.817626953125 356.798583984375 531.5928955078125 C 325.9124450683594 560.46875 343.7681579589844 537.0928344726562 329.11370849609375 499.90399169921875" stroke-width="7.865769386291504" fill="none" stroke="rgb(0, 0, 0)" stroke-opacity="0.77496153" stroke-linecap="round" stroke-linejoin="round"/>
    <path d="M 38.3916015625 95.52542877197266 C 18.002023696899414 84.93722534179688 30.729156494140625 89.41559600830078 2.2428641319274902 70.92005157470703 C 1.1715980768203735 85.51763153076172 2.710296392440796 45.34758377075195 2.484327793121338 -8.529439926147461 C -17.032386779785156 39.583011627197266 4.726936340332031 18.50183868408203 -22.049406051635742 44.995948791503906 C -10.37431812286377 70.5516357421875 -40.943748474121094 102.84778594970703 -6.65239953994751 134.181884765625" stroke-width="11.160089492797852" fill="none" stroke="rgb(0, 0, 0)" stroke-opacity="0.2177968" stroke-linecap="round" stroke-linejoin="round"/>
    <path d="M 450.7045593261719 127.66287231445312 C 436.1302490234375 134.68356323242188 409.27374267578125 134.6625518798828 370.0611877441406 86.94727325439453 C 309.1679992675781 77.32884216308594 366.880859375 98.20732116699219 395.2056579589844 83.08911895751953 C 379.34564208984375 120.04791259765625 395.20098876953125 85.0601577758789 369.1289367675781 88.21475982666016 C 374.1628723144531 94.22901916503906 389.7236328125 86.33997344970703 392.4407043457031 63.36545181274414" stroke-width="8.477459907531738" fill="none" stroke="rgb(0, 0, 0)" stroke-opacity="0.86861295" stroke-linecap="round" stroke-linejoin="round"/>
    <path d="M 539.0955810546875 426.25408935546875 C 551.0651245117188 434.5599365234375 519.8853759765625 421.682373046875 540.8117065429688 428.0547790527344 C 535.0160522460938 415.13653564453125 549.2958374023438 443.8731994628906 538.8892822265625 424.4093322753906 C 547.6321411132812 423.0956115722656 508.7846374511719 427.116455078125 540.1644897460938 424.70391845703125 C 546.9791870117188 434.82806396484375 528.2503662109375 419.77294921875 538.0948486328125 420.8024597167969" stroke-width="2.0" fill="none" stroke="rgb(0, 0, 0)" stroke-opacity="0.9041182" stroke-linecap="round" stroke-linejoin="round"/>
    <path d="M 62.210689544677734 291.6445007324219 C 59.573326110839844 324.53521728515625 51.83418273925781 342.16290283203125 41.291099548339844 360.27142333984375 C 46.95188522338867 360.0647888183594 49.97099685668945 310.01171875 57.44388961791992 297.9346008300781 C 75.69171905517578 279.2645568847656 66.06478881835938 281.9537353515625 104.23756408691406 244.36866760253906 C 64.87843322753906 220.3671112060547 37.69951248168945 217.08827209472656 70.33062744140625 210.94325256347656" stroke-width="7.8304877281188965" fill="none" stroke="rgb(0, 0, 0)" stroke-opacity="0.69000334" stroke-linecap="round" stroke-linejoin="round"/>
    <path d="M 94.15615844726562 401.2109375 C 32.54452133178711 433.41107177734375 13.981233596801758 436.5700378417969 -8.917851448059082 455.71075439453125 C 14.65623950958252 532.9378662109375 4.27285099029541 527.9651489257812 39.0958251953125 515.411865234375 C 82.16446685791016 542.462158203125 112.5135726928711 552.650390625 126.66664123535156 496.0623779296875 C 91.9505615234375 531.0913696289062 84.13499450683594 530.220947265625 56.57659912109375 517.8702392578125" stroke-width="4.211398124694824" fill="none" stroke="rgb(0, 0, 0)" stroke-opacity="0.59562737" stroke-linecap="round" stroke-linejoin="round"/>
    <path d="M 144.087646484375 436.800048828125 C 116.34172058105469 525.4821166992188 104.58980560302734 473.40423583984375 172.48890686035156 453.7455139160156 C 147.49423217773438 445.85693359375 157.94573974609375 449.61376953125 131.47369384765625 396.9254455566406 C 75.14012145996094 412.0523376464844 95.7388916015625 387.1546630859375 64.77422332763672 329.93603515625 C 34.45658493041992 348.8017578125 39.3495979309082 404.0308532714844 25.242136001586914 420.0459899902344" stroke-width="4.184343338012695" fill="none" stroke="rgb(0, 0, 0)" stroke-opacity="0.3297762" stroke-linecap="round" stroke-linejoin="round"/>
    <path d="M 51.74673080444336 90.53740692138672 C 70.38967895507812 76.91098022460938 44.19895553588867 89.51844024658203 41.00350570678711 100.44051361083984 C 40.21192169189453 104.75483703613281 24.463590621948242 85.34282684326172 73.73838806152344 130.75193786621094 C 54.72979736328125 124.62007141113281 91.44677734375 112.18782806396484 138.96047973632812 90.36958312988281 C 115.75116729736328 41.511287689208984 120.54328918457031 35.29813003540039 94.36085510253906 55.54167556762695" stroke-width="9.166891098022461" fill="none" stroke="rgb(0, 0, 0)" stroke-opacity="0.5853328" stroke-linecap="round" stroke-linejoin="round"/>
    <path d="M 72.4898910522461 21.570947647094727 C 114.69843292236328 47.53080749511719 122.00059509277344 42.38507843017578 169.1266632080078 38.905860900878906 C 159.01734924316406 30.496063232421875 166.90895080566406 46.698978424072266 152.4410400390625 37.699241638183594 C 185.68856811523438 36.2056770324707 190.08856201171875 34.97751235961914 179.92323303222656 49.31040573120117 C 209.91006469726562 -12.236502647399902 213.86245727539062 -2.8686561584472656 186.99143981933594 -6.512503623962402" stroke-width="9.01771354675293" fill="none" stroke="rgb(0, 0, 0)" stroke-opacity="0.29681587" stroke-linecap="round" stroke-linejoin="round"/>
    <path d="M 182.01947021484375 414.71649169921875 C 119.44181823730469 331.94598388671875 167.09701538085938 342.57080078125 178.26910400390625 309.8879699707031 C 216.70762634277344 259.9565734863281 191.57749938964844 306.7901916503906 179.53236389160156 326.447265625 C 157.908447265625 402.3996887207031 158.03273010253906 339.049072265625 180.35667419433594 325.9682922363281 C 184.81321716308594 288.49285888671875 192.4134979248047 315.4233703613281 139.48997497558594 321.550048828125" stroke-width="2.0" fill="none" stroke="rgb(0, 0, 0)" stroke-opacity="0.8912128" stroke-linecap="round" stroke-linejoin="round"/>
    <path d="M 193.5773468017578 451.0566101074219 C 113.26648712158203 463.5215759277344 150.78822326660156 467.5193786621094 165.0699920654297 505.73223876953125 C 146.65589904785156 523.7777709960938 144.95315551757812 479.0589294433594 141.99766540527344 426.7765808105469 C 161.8723602294922 450.5816345214844 167.14520263671875 498.58740234375 127.68770599365234 493.78631591796875 C 127.06572723388672 529.0686645507812 120.46421813964844 511.1676025390625 125.50802612304688 516.29296875" stroke-width="10.212923049926758" fill="none" stroke="rgb(0, 0, 0)" stroke-opacity="0.671434" stroke-linecap="round" stroke-linejoin="round"/>
    <path d="M 568.0756225585938 129.14279174804688 C 566.0288696289062 106.64106750488281 574.7017822265625 135.8411102294922 569.3164672851562 127.97151947021484 C 562.2703857421875 149.61380004882812 567.976318359375 117.05121612548828 561.6488037109375 134.1990509033203 C 595.8062744140625 126.18014526367188 543.9678344726562 123.40243530273438 582.4495239257812 132.2834930419922 C 564.2627563476562 132.3777313232422 563.0880737304688 129.3050994873047 572.0743408203125 127.6505126953125" stroke-width="3.788928985595703" fill="none" stroke="rgb(0, 0, 0)" stroke-opacity="0.85419106" stroke-linecap="round" stroke-linejoin="round"/>
    <path d="M 63.8072395324707 310.4074401855469 C 74.94080352783203 353.69635009765625 52.574893951416016 341.7632141113281 62.82047653198242 290.9244079589844 C 41.99530792236328 305.9723815917969 61.31434631347656 308.3095703125 53.05445098876953 284.7012634277344 C 51.619544982910156 314.60675048828125 56.93550109863281 311.9334716796875 61.25872802734375 305.8399658203125 C 70.96939086914062 307.36187744140625 57.84782409667969 331.8694152832031 62.74494934082031 323.8614807128906" stroke-width="2.870582342147827" fill="none" stroke="rgb(0, 0, 0)" stroke-opacity="0.27142638" stroke-linecap="round" stroke-linejoin="round"/>
    <path d="M 594.5737915039062 281.8563232421875 C 552.06298828125 337.831787109375 557.5267333984375 314.4782409667969 562.6249389648438 344.20062255859375 C 541.4397583007812 318.194091796875 537.63623046875 321.879638671875 526.534912109375 323.6861267089844 C 515.5960083007812 317.02618408203125 504.7830810546875 316.24884033203125 446.7771301269531 307.39678955078125 C 433.66595458984375 310.5155029296875 442.505859375 333.5565185546875 444.0244445800781 333.6971130371094" stroke-width="2.656846523284912" fill="none" stroke="rgb(0, 0, 0)" stroke-opacity="0.13026467" stroke-linecap="round" stroke-linejoin="round"/>
  </g>
</svg>
