<?xml version="1.0" ?>
<svg xmlns="http://www.w3.org/2000/svg" version="1.1" width="600" height="600">
  <defs/>
  <g>
    <path d="M 336.7488098144531 -17.714584350585938 C 360.07232666015625 -7.300889492034912 365.4700622558594 -13.608135223388672 319.8655700683594 -22.445913314819336 C 289.9385986328125 2.384880781173706 289.37322998046875 3.5277631282806396 306.5982360839844 -26.431541442871094 C 311.0980224609375 -15.557281494140625 312.5965576171875 -26.365583419799805 327.7456359863281 -33.3301887512207 C 331.8606872558594 -46.49699783325195 316.1521301269531 -22.69676399230957 293.9277038574219 -15.019598960876465" stroke-width="2.0" fill="none" stroke="rgb(0, 0, 0)" stroke-opacity="0.6422956" stroke-linecap="round" stroke-linejoin="round"/>
    <path d="M 559.6427612304688 606.05126953125 C 574.489990234375 593.4298706054688 564.5230712890625 614.0274047851562 573.2000732421875 623.721435546875 C 551.1864624023438 599.0279541015625 526.7431640625 617.5006103515625 546.814208984375 626.1280517578125 C 532.040771484375 649.2311401367188 547.6402587890625 643.7305297851562 546.8304443359375 668.2025146484375 C 522.32470703125 655.2779541015625 541.2973022460938 668.1334838867188 563.1806640625 654.3048095703125" stroke-width="2.220214366912842" fill="none" stroke="rgb(0, 0, 0)" stroke-opacity="0.48126447" stroke-linecap="round" stroke-linejoin="round"/>
    <path d="M 215.9081573486328 170.97715759277344 C 169.7176055908203 157.28211975097656 193.75439453125 200.45504760742188 185.64573669433594 150.69711303710938 C 219.77410888671875 200.49169921875 210.39622497558594 170.89425659179688 203.3656768798828 164.36476135253906 C 197.7542266845703 128.92149353027344 168.53744506835938 188.36569213867188 188.26034545898438 155.97720336914062 C 232.61322021484375 135.47134399414062 226.487060546875 79.49038696289062 294.5106506347656 113.6246337890625" stroke-width="2.3336198329925537" fill="none" stroke="rgb(0, 0, 0)" stroke-opacity="0.67286974" stroke-linecap="round" stroke-linejoin="round"/>
    <path d="M 450.2471618652344 237.93638610839844 C 426.88848876953125 186.82540893554688 384.914794921875 191.52780151367188 344.7101745605469 208.9674530029297 C 294.2353820800781 179.43035888671875 287.15234375 160.5274658203125 362.8992614746094 149.22366333007812 C 343.3323059082031 158.10548400878906 348.68603515625 153.37657165527344 316.5504455566406 133.64437866210938 C 248.971435546875 138.89537048339844 319.12213134765625 160.5229949951172 364.7994689941406 170.08755493164062" stroke-width="6.642971992492676" fill="none" stroke="rgb(0, 0, 0)" stroke-opacity="0.67684454" stroke-linecap="round" stroke-linejoin="round"/>
    <path d="M 611.5945434570312 315.5623779296875 C 623.7454223632812 284.1874084472656 632.241943359375 306.62701416015625 622.1688842773438 321.8758544921875 C 612.3132934570312 295.23541259765625 622.4591064453125 286.982421875 638.4378662109375 277.7747497558594 C 626.6219482421875 262.5274353027344 651.3765258789062 258.355224609375 629.867919921875 248.40773010253906 C 633.1416015625 277.4059753417969 655.0399780273438 295.28070068359375 642.7127685546875 300.7814025878906" stroke-width="9.021968841552734" fill="none" stroke="rgb(0, 0, 0)" stroke-opacity="1.0" stroke-linecap="round" stroke-linejoin="round"/>
    <path d="M 283.90191650390625 497.413330078125 C 238.4691619873047 563.1671752929688 255.35025024414062 601.0856323242188 276.2234191894531 590.8881225585938 C 274.0024108886719 589.5625610351562 271.48175048828125 615.0272216796875 258.6495056152344 621.7225952148438 C 267.279296875 604.640625 237.09341430664062 605.7058715820312 202.2878875732422 624.1946411132812 C 168.08218383789062 603.5162353515625 181.474609375 568.167236328125 209.72279357910156 520.8958740234375" stroke-width="2.0" fill="none" stroke="rgb(0, 0, 0)" stroke-opacity="0.22592638" stroke-linecap="round" stroke-linejoin="round"/>
    <path d="M 216.74444580078125 463.55511474609375 C 189.05441284179688 504.2767639160156 205.3604736328125 459.9834899902344 192.69093322753906 416.3532409667969 C 151.4308319091797 416.4622497558594 166.48013305664062 381.7598876953125 187.7141876220703 373.961669921875 C 198.29644775390625 429.0989990234375 180.05776977539062 427.6310729980469 191.2128448486328 404.66192626953125 C 169.27952575683594 424.8849182128906 170.5738983154297 396.6174621582031 213.52212524414062 458.559814453125" stroke-width="5.676252841949463" fill="none" stroke="rgb(0, 0, 0)" stroke-opacity="0.48494193" stroke-linecap="round" stroke-linejoin="round"/>
    <path d="M 442.4866943359375 447.352783203125 C 455.77008056640625 417.93951416015625 462.2380676269531 341.2248840332031 475.75396728515625 303.1372985839844 C 476.328369140625 440.78131103515625 457.0570373535156 423.32574462890625 469.1368713378906 305.8514099121094 C 468.89178466796875 221.8253631591797 426.5157775878906 266.9292297363281 408.0094299316406 344.6173095703125 C 385.20819091796875 337.6658020019531 416.4015197753906 298.5014953613281 409.25848388671875 416.04925537109375" stroke-width="4.287936210632324" fill="none" stroke="rgb(0, 0, 0)" stroke-opacity="0.8616724" stroke-linecap="round" stroke-linejoin="round"/>
    <path d="M 407.7679443359375 549.5018920898438 C 429.3091125488281 570.00537109375 445.5467529296875 596.1587524414062 476.6028137207031 594.5283813476562 C 451.1440124511719 622.3635864257812 444.71014404296875 649.9682006835938 472.71343994140625 644.1053466796875 C 486.3990783691406 606.568115234375 489.4333801269531 628.0440063476562 533.6070556640625 686.0528564453125 C 578.2293090820312 647.7611694335938 571.908203125 597.549072265625 545.9174194335938 576.435546875" stroke-width="2.048262119293213" fill="none" stroke="rgb(0, 0, 0)" stroke-opacity="0.07530993" stroke-linecap="round" stroke-linejoin="round"/>
    <path d="M 387.6688537597656 403.5479736328125 C 416.23406982421875 507.3611755371094 408.41448974609375 508.2339172363281 400.1790466308594 528.3907470703125 C 403.8695983886719 531.938232421875 384.45318603515625 493.12408447265625 398.7654724121094 472.5089111328125 C 428.4107360839844 400.02337646484375 447.3788146972656 422.5047912597656 391.5307922363281 401.24676513671875 C 337.5873718261719 384.7137756347656 355.3752136230469 333.7880554199219 391.3812255859375 398.4320983886719" stroke-width="12.0" fill="none" stroke="rgb(0, 0, 0)" stroke-opacity="0.65883607" stroke-linecap="round" stroke-linejoin="round"/>
    <path d="M 322.023681640625 211.98098754882812 C 363.9429931640625 233.5281219482422 366.8462219238281 298.8867492675781 327.6539001464844 282.68255615234375 C 348.94439697265625 277.6481628417969 357.1849060058594 240.5200653076172 312.3008728027344 208.54696655273438 C 298.310302734375 254.7774658203125 271.2735900878906 184.3177947998047 307.3587646484375 214.21595764160156 C 304.7738952636719 190.6510772705078 291.1977233886719 163.40504455566406 272.13427734375 178.36277770996094" stroke-width="11.731853485107422" fill="none" stroke="rgb(0, 0, 0)" stroke-opacity="0.638051" stroke-linecap="round" stroke-linejoin="round"/>
    <path d="M 209.81019592285156 460.32916259765625 C 251.8049774169922 466.43310546875 232.06451416015625 494.4848327636719 239.347412109375 488.2366943359375 C 225.0665740966797 497.5994567871094 220.7211151123047 491.0422058105469 208.4353790283203 468.3025817871094 C 224.66085815429688 515.85107421875 220.37571716308594 488.9247741699219 231.39840698242188 495.5439453125 C 210.58175659179688 474.3386535644531 246.7609405517578 487.0779113769531 238.5137481689453 496.0583801269531" stroke-width="8.833882331848145" fill="none" stroke="rgb(0, 0, 0)" stroke-opacity="0.144183" stroke-linecap="round" stroke-linejoin="round"/>
    <path d="M 299.2991027832031 220.55752563476562 C 277.6824951171875 157.22019958496094 297.2283935546875 185.526611328125 332.9180908203125 208.0711669921875 C 364.6094055175781 243.00848388671875 355.1360168457031 252.3704833984375 358.5064697265625 260.4812927246094 C 323.1408996582031 236.16615295410156 310.1382751464844 221.00099182128906 271.8323974609375 141.50807189941406 C 271.3330383300781 169.29689025878906 302.0911865234375 209.11441040039062 309.7538146972656 189.46534729003906" stroke-width="12.0" fill="none" stroke="rgb(0, 0, 0)" stroke-opacity="0.5056315" stroke-linecap="round" stroke-linejoin="round"/>
    <path d="M 140.87351989746094 204.09774780273438 C 212.03564453125 136.791015625 216.24806213378906 149.24386596679688 243.0067901611328 279.7123107910156 C 225.62657165527344 283.10418701171875 259.6711730957031 315.9453125 241.30374145507812 231.06797790527344 C 251.49658203125 175.85276794433594 244.3791046142578 214.87985229492188 225.4871826171875 230.7310333251953 C 204.54208374023438 169.26971435546875 218.3429718017578 201.4081268310547 226.455322265625 264.5110778808594" stroke-width="10.675680160522461" fill="none" stroke="rgb(0, 0, 0)" stroke-opacity="0.8001753" stroke-linecap="round" stroke-linejoin="round"/>
    <path d="M 81.44147491455078 457.9543151855469 C 69.12327575683594 464.5882568359375 100.70843505859375 463.3541564941406 57.59458923339844 457.2507629394531 C 29.503028869628906 483.8117370605469 38.01386642456055 477.5926513671875 22.717138290405273 469.6058044433594 C 95.0042724609375 489.4324645996094 59.883052825927734 490.5401611328125 52.02412414550781 499.82861328125 C -1.1904242038726807 471.1088562011719 -14.298690795898438 409.2019958496094 9.179178237915039 436.0089111328125" stroke-width="2.0" fill="none" stroke="rgb(0, 0, 0)" stroke-opacity="0.7311517" stroke-linecap="round" stroke-linejoin="round"/>
    <path d="M 611.2537231445312 81.45506286621094 C 592.012939453125 90.7309799194336 588.5155029296875 83.62257385253906 589.7496948242188 124.62494659423828 C 526.6361694335938 165.5401611328125 525.081298828125 149.94610595703125 560.1036987304688 128.93626403808594 C 551.7709350585938 116.25733947753906 560.4594116210938 134.72471618652344 578.3643188476562 135.92648315429688 C 614.4209594726562 118.27857971191406 598.9061889648438 134.79946899414062 614.3334350585938 143.5228271484375" stroke-width="2.0" fill="none" stroke="rgb(0, 0, 0)" stroke-opacity="0.32221887" stroke-linecap="round" stroke-linejoin="round"/>
    <path d="M -48.47879409790039 244.12579345703125 C 3.155025005340576 241.67691040039062 6.549073219299316 231.45062255859375 18.2341365814209 233.87413024902344 C 51.65176010131836 238.58920288085938 41.26913070678711 213.9566650390625 41.50581741333008 232.17276000976562 C 36.29108810424805 231.97630310058594 30.005826950073242 246.74468994140625 39.550533294677734 271.60321044921875 C 30.758935928344727 258.8654479980469 48.578392028808594 255.41973876953125 30.029836654663086 276.54461669921875" stroke-width="2.0" fill="none" stroke="rgb(0, 0, 0)" stroke-opacity="0.12683894" stroke-linecap="round" stroke-linejoin="round"/>
    <path d="M 225.00758361816406 381.37933349609375 C 295.98046875 317.7835998535156 238.076171875 389.432861328125 235.91067504882812 337.4387512207031 C 312.7737121582031 393.7076416015625 290.54058837890625 377.79736328125 326.7889404296875 330.30242919921875 C 344.9972839355469 326.6709289550781 353.0888366699219 304.874755859375 335.1949768066406 229.6739501953125 C 303.7470397949219 210.8494110107422 356.3343811035156 271.97442626953125 327.58282470703125 356.45660400390625" stroke-width="10.747522354125977" fill="none" stroke="rgb(0, 0, 0)" stroke-opacity="0.36692795" stroke-linecap="round" stroke-linejoin="round"/>
    <path d="M 262.95782470703125 522.318603515625 C 263.9200744628906 518.3568725585938 264.73748779296875 518.6987915039062 256.4713134765625 533.4202880859375 C 259.4090270996094 543.5751953125 249.4434356689453 524.4655151367188 265.7287902832031 517.2286987304688 C 244.59671020507812 569.2936401367188 221.63941955566406 581.476318359375 252.33424377441406 549.8671264648438 C 282.7679138183594 551.920166015625 261.89654541015625 608.2630004882812 221.2156982421875 633.1871337890625" stroke-width="2.0" fill="none" stroke="rgb(0, 0, 0)" stroke-opacity="0.5392424" stroke-linecap="round" stroke-linejoin="round"/>
    <path d="M 594.2993774414062 472.4444580078125 C 559.3536376953125 462.7003173828125 470.4049987792969 431.24713134765625 500.618896484375 485.2634582519531 C 549.4012451171875 493.95867919921875 510.37091064453125 484.2696533203125 546.2389526367188 458.64202880859375 C 516.7985229492188 471.923828125 519.9402465820312 461.7081604003906 530.8446044921875 456.0263977050781 C 490.4150390625 480.33673095703125 474.33599853515625 501.8366394042969 460.7950134277344 399.0582580566406" stroke-width="2.0" fill="none" stroke="rgb(0, 0, 0)" stroke-opacity="0.2653203" stroke-linecap="round" stroke-linejoin="round"/>
    <path d="M 495.985107421875 599.6181640625 C 502.271728515625 587.1578979492188 447.0976867675781 577.0087890625 436.7882385253906 610.4216918945312 C 475.4043884277344 649.7922973632812 446.0045166015625 623.3761596679688 442.635498046875 651.7276611328125 C 415.08587646484375 642.7868041992188 439.9764099121094 647.6832275390625 457.931396484375 635.9420166015625 C 485.7593994140625 664.7974243164062 505.0427551269531 675.8109130859375 532.289794921875 694.507568359375" stroke-width="3.958139419555664" fill="none" stroke="rgb(0, 0, 0)" stroke-opacity="0.93469596" stroke-linecap="round" stroke-linejoin="round"/>
    <path d="M 354.2570495605469 215.3870086669922 C 377.55023193359375 231.3240509033203 345.69146728515625 218.07261657714844 381.4520568847656 239.25733947753906 C 396.8150634765625 287.63250732421875 341.3609924316406 269.4196472167969 273.4166259765625 272.56402587890625 C 348.1928405761719 262.7621154785156 400.9403381347656 257.5256042480469 379.72900390625 286.81695556640625 C 388.7334899902344 290.4112854003906 441.54034423828125 310.0040588378906 436.44183349609375 275.5351257324219" stroke-width="7.31321382522583" fill="none" stroke="rgb(0, 0, 0)" stroke-opacity="0.123737246" stroke-linecap="round" stroke-linejoin="round"/>
    <path d="M 104.08356475830078 475.2045593261719 C 137.5592041015625 427.1775207519531 92.45143127441406 430.517333984375 75.85164642333984 376.171142578125 C 64.57862091064453 376.1510314941406 65.49703979492188 395.6046447753906 81.90296173095703 369.5402526855469 C 91.15298461914062 424.9365539550781 83.11247253417969 387.6139221191406 87.88629913330078 368.2832946777344 C 85.4824447631836 409.5034484863281 89.8327865600586 422.3915100097656 51.03464889526367 421.3921813964844" stroke-width="2.0" fill="none" stroke="rgb(0, 0, 0)" stroke-opacity="0.28525975" stroke-linecap="round" stroke-linejoin="round"/>
    <path d="M 463.19970703125 121.39519500732422 C 473.9804992675781 153.38043212890625 440.2571716308594 163.7924041748047 401.8123779296875 174.61228942871094 C 421.62591552734375 173.0286865234375 412.1293640136719 145.14259338378906 388.2606201171875 205.82310485839844 C 388.5083312988281 187.526123046875 434.25347900390625 132.48580932617188 388.08502197265625 197.92674255371094 C 470.5663146972656 222.435546875 513.6375732421875 229.50631713867188 455.7940979003906 271.7239990234375" stroke-width="2.447387218475342" fill="none" stroke="rgb(0, 0, 0)" stroke-opacity="0.1280346" stroke-linecap="round" stroke-linejoin="round"/>
    <path d="M 112.61408996582031 221.4284210205078 C 132.2958526611328 183.5609893798828 133.21751403808594 197.58419799804688 172.31036376953125 202.1994171142578 C 177.35108947753906 173.8839569091797 103.53854370117188 181.7362060546875 59.5599365234375 182.37277221679688 C 54.682857513427734 198.1385955810547 62.57907485961914 194.79139709472656 60.57561492919922 203.18841552734375 C 61.15179443359375 170.47457885742188 37.2657585144043 156.23703002929688 163.3978271484375 162.62060546875" stroke-width="2.0" fill="none" stroke="rgb(0, 0, 0)" stroke-opacity="0.1303289" stroke-linecap="round" stroke-linejoin="round"/>
    <path d="M 484.74603271484375 457.09588623046875 C 478.1087341308594 362.3544921875 480.37042236328125 414.2460021972656 499.6489562988281 463.2943420410156 C 543.2755737304688 461.3219299316406 514.82568359375 472.2200622558594 488.4342041015625 424.0242919921875 C 532.6388549804688 379.30450439453125 518.271484375 349.8059997558594 472.2987060546875 301.52947998046875 C 457.1766662597656 294.7052307128906 416.49237060546875 347.35162353515625 482.616943359375 366.35552978515625" stroke-width="2.272660970687866" fill="none" stroke="rgb(0, 0, 0)" stroke-opacity="0.3674299" stroke-linecap="round" stroke-linejoin="round"/>
    <path d="M 610.8668823242188 408.33502197265625 C 624.908935546875 459.7803649902344 642.7244262695312 445.1048583984375 632.6056518554688 436.0997009277344 C 611.9879760742188 458.8218994140625 641.582275390625 476.6632385253906 656.2290649414062 467.6255187988281 C 674.4867553710938 492.6708068847656 673.06396484375 510.1977233886719 657.8072509765625 489.0064697265625 C 661.6123657226562 466.7751770019531 645.8944091796875 495.11944580078125 635.8927612304688 508.69586181640625" stroke-width="8.911347389221191" fill="none" stroke="rgb(0, 0, 0)" stroke-opacity="0.9685402" stroke-linecap="round" stroke-linejoin="round"/>
    <path d="M 111.41266632080078 196.2227325439453 C 85.3796615600586 221.9215087890625 143.5252227783203 244.49923706054688 136.6267547607422 211.65257263183594 C 92.37345123291016 227.11875915527344 110.19823455810547 210.02659606933594 158.4585723876953 172.37823486328125 C 215.77728271484375 147.4211883544922 224.68894958496094 191.78146362304688 221.58438110351562 158.04263305664062 C 181.9093017578125 151.0873260498047 189.4632568359375 147.57611083984375 150.7016143798828 194.4623260498047" stroke-width="11.84023380279541" fill="none" stroke="rgb(0, 0, 0)" stroke-opacity="0.56588656" stroke-linecap="round" stroke-linejoin="round"/>
    <path d="M 68.66178894042969 224.06085205078125 C 65.24394989013672 235.3088836669922 34.6263313293457 240.82241821289062 15.320535659790039 224.8883056640625 C 20.506242752075195 178.040771484375 -9.584707260131836 206.16787719726562 -9.446011543273926 196.28768920898438 C -19.23357391357422 229.88026428222656 -37.36077880859375 235.39593505859375 -42.5666389465332 223.86398315429688 C -38.77592086791992 242.470458984375 -29.99906349182129 231.00364685058594 -21.81201171875 244.56114196777344" stroke-width="2.150608777999878" fill="none" stroke="rgb(0, 0, 0)" stroke-opacity="0.6371832" stroke-linecap="round" stroke-linejoin="round"/>
    <path d="M 484.4970703125 347.1080627441406 C 454.8622741699219 311.4277648925781 435.8628234863281 360.3090515136719 462.3231201171875 256.8538818359375 C 490.7277526855469 306.52630615234375 461.2872009277344 322.3061828613281 461.84002685546875 324.85589599609375 C 454.20404052734375 313.6799621582031 453.3538513183594 383.355712890625 459.4574890136719 396.57659912109375 C 450.2459716796875 333.2023620605469 471.64044189453125 329.10821533203125 457.2926330566406 322.3534240722656" stroke-width="3.457721471786499" fill="none" stroke="rgb(0, 0, 0)" stroke-opacity="0.5945493" stroke-linecap="round" stroke-linejoin="round"/>
    <path d="M 566.5218505859375 541.8619995117188 C 539.0527954101562 516.4891967773438 573.0858154296875 547.3148193359375 548.9705200195312 520.6551513671875 C 524.352783203125 522.8538818359375 558.4338989257812 515.4411010742188 551.7142944335938 530.3840942382812 C 529.3162231445312 513.8338012695312 538.0177001953125 524.7081909179688 560.4258422851562 530.057861328125 C 553.2841796875 519.63818359375 554.0455322265625 507.510986328125 563.780029296875 545.9324951171875" stroke-width="2.0011684894561768" fill="none" stroke="rgb(0, 0, 0)" stroke-opacity="0.40711" stroke-linecap="round" stroke-linejoin="round"/>
    <path d="M 285.7377624511719 378.0057373046875 C 352.80712890625 314.68792724609375 350.53656005859375 282.90850830078125 374.1172790527344 274.62322998046875 C 366.5973815917969 296.6017150878906 359.0701599121094 292.0444641113281 370.6195983886719 244.92140197753906 C 353.5226135253906 228.90493774414062 362.2986145019531 219.78224182128906 337.2242126464844 233.9071807861328 C 327.22210693359375 210.90606689453125 353.56048583984375 209.05686950683594 355.1287841796875 310.375732421875" stroke-width="12.0" fill="none" stroke="rgb(0, 0, 0)" stroke-opacity="0.70516855" stroke-linecap="round" stroke-linejoin="round"/>
    <path d="M 180.10360717773438 385.0063171386719 C 195.67092895507812 354.8141784667969 211.0325469970703 329.75421142578125 181.8517303466797 428.3774719238281 C 145.97457885742188 364.47515869140625 182.59214782714844 386.10845947265625 210.55860900878906 386.99267578125 C 242.0547637939453 375.1519775390625 202.84996032714844 398.28173828125 199.4600372314453 372.80230712890625 C 204.285400390625 372.9277038574219 189.0443878173828 401.3212585449219 209.21475219726562 366.7707214355469" stroke-width="7.241063117980957" fill="none" stroke="rgb(0, 0, 0)" stroke-opacity="0.46331275" stroke-linecap="round" stroke-linejoin="round"/>
    <path d="M 124.66095733642578 158.9442596435547 C 145.69874572753906 62.684715270996094 169.77655029296875 93.66314697265625 226.25498962402344 147.45504760742188 C 184.10354614257812 145.47125244140625 180.1718292236328 95.28715515136719 180.1925048828125 133.6842803955078 C 164.4867706298828 82.6656723022461 174.04940795898438 104.52455139160156 136.4912872314453 198.3723907470703 C 119.36270141601562 157.2401580810547 173.46676635742188 130.20468139648438 146.20144653320312 130.5921173095703" stroke-width="11.970947265625" fill="none" stroke="rgb(0, 0, 0)" stroke-opacity="0.8417134" stroke-linecap="round" stroke-linejoin="round"/>
    <path d="M 518.7584228515625 451.8119201660156 C 479.5027160644531 434.3900146484375 507.7251892089844 309.82086181640625 473.5917053222656 385.9621276855469 C 520.0989379882812 453.39337158203125 502.2213439941406 367.4636535644531 470.2882080078125 284.0046081542969 C 387.5054626464844 317.76531982421875 400.7445373535156 340.9449462890625 416.7623596191406 393.2581481933594 C 447.6825256347656 321.92266845703125 478.87890625 336.7952575683594 492.43829345703125 413.3035888671875" stroke-width="3.5466768741607666" fill="none" stroke="rgb(0, 0, 0)" stroke-opacity="0.62506944" stroke-linecap="round" stroke-linejoin="round"/>
    <path d="M 279.43145751953125 449.8127746582031 C 304.91497802734375 368.07647705078125 272.1182556152344 335.1317138671875 270.50018310546875 364.3808898925781 C 299.9940185546875 374.8568115234375 308.9620361328125 356.56341552734375 230.17706298828125 336.65216064453125 C 281.46905517578125 375.0120544433594 303.0850830078125 362.2585144042969 314.131103515625 330.707763671875 C 379.8573303222656 316.6582336425781 402.7822265625 297.2913818359375 323.43359375 254.60443115234375" stroke-width="11.993910789489746" fill="none" stroke="rgb(0, 0, 0)" stroke-opacity="0.30013952" stroke-linecap="round" stroke-linejoin="round"/>
    <path d="M 177.26353454589844 409.9671325683594 C 200.2789306640625 459.8790283203125 197.94874572753906 497.8841247558594 203.7470245361328 470.9466552734375 C 181.99163818359375 421.9209899902344 188.22792053222656 464.2229919433594 220.89999389648438 489.7747497558594 C 220.52474975585938 482.4070129394531 184.49293518066406 468.01617431640625 234.09861755371094 486.5671081542969 C 220.0823211669922 428.2527160644531 194.20138549804688 494.9183654785156 233.6050262451172 497.7877197265625" stroke-width="12.0" fill="none" stroke="rgb(0, 0, 0)" stroke-opacity="0.45596814" stroke-linecap="round" stroke-linejoin="round"/>
    <path d="M 166.92787170410156 184.31796264648438 C 119.70451354980469 162.2465057373047 93.05784606933594 208.8140106201172 139.18649291992188 118.54225158691406 C 73.64348602294922 119.28713989257812 68.24220275878906 119.01945495605469 109.59940338134766 53.8946533203125 C 57.185176849365234 -12.302696228027344 46.7918815612793 19.231409072875977 4.317674160003662 63.92379379272461 C 14.420661926269531 96.64802551269531 -17.11673355102539 107.40435028076172 -41.533878326416016 109.05606079101562" stroke-width="2.0" fill="none" stroke="rgb(0, 0, 0)" stroke-opacity="0.8477474" stroke-linecap="round" stroke-linejoin="round"/>
    <path d="M 478.6701965332031 250.3929443359375 C 476.3232421875 229.35931396484375 405.39874267578125 224.97373962402344 406.1096496582031 233.16168212890625 C 413.4566345214844 259.79425048828125 435.41876220703125 233.3072509765625 434.51446533203125 244.097412109375 C 434.1900634765625 293.4579162597656 431.8120422363281 273.8055114746094 416.380615234375 228.06796264648438 C 472.1394348144531 248.80972290039062 509.384765625 270.7564392089844 466.1901550292969 359.6225280761719" stroke-width="11.34035587310791" fill="none" stroke="rgb(0, 0, 0)" stroke-opacity="0.29377523" stroke-linecap="round" stroke-linejoin="round"/>
    <path d="M 242.04649353027344 -40.75954055786133 C 235.7393035888672 14.626729011535645 243.07949829101562 19.870269775390625 292.3092956542969 3.7281906604766846 C 283.3222961425781 21.7551326751709 215.6856231689453 11.120349884033203 252.41856384277344 14.828460693359375 C 208.6802520751953 60.21592330932617 264.07379150390625 92.99626159667969 316.6274719238281 61.363128662109375 C 314.02691650390625 74.60377502441406 313.0740661621094 33.226253509521484 343.0821228027344 51.43888473510742" stroke-width="2.0" fill="none" stroke="rgb(0, 0, 0)" stroke-opacity="0.08258105" stroke-linecap="round" stroke-linejoin="round"/>
    <path d="M 452.4985046386719 218.1389923095703 C 420.0861511230469 196.7801971435547 420.5555419921875 217.41635131835938 415.5200500488281 220.37481689453125 C 461.28656005859375 189.33360290527344 440.88995361328125 232.7749786376953 375.68768310546875 207.62403869628906 C 379.44537353515625 208.836669921875 348.2216491699219 196.3218231201172 312.14874267578125 163.20703125 C 404.5621337890625 159.4195098876953 406.0483703613281 134.54986572265625 391.13348388671875 157.11590576171875" stroke-width="2.0" fill="none" stroke="rgb(0, 0, 0)" stroke-opacity="0.24349156" stroke-linecap="round" stroke-linejoin="round"/>
    <path d="M 223.1949462890625 385.38446044921875 C 175.4346160888672 405.4189758300781 170.67225646972656 355.1328430175781 149.64630126953125 362.40582275390625 C 118.4120864868164 352.712158203125 179.90943908691406 317.1689147949219 135.30625915527344 328.41961669921875 C 128.67459106445312 373.8863525390625 90.86189270019531 345.468505859375 79.0657730102539 375.770751953125 C 94.08868408203125 339.23291015625 113.55299377441406 373.4154052734375 113.36751556396484 349.5962829589844" stroke-width="2.0" fill="none" stroke="rgb(0, 0, 0)" stroke-opacity="0.35618824" stroke-linecap="round" stroke-linejoin="round"/>
    <path d="M 82.49703216552734 111.95795440673828 C 97.55487060546875 114.99615478515625 72.90351867675781 129.3905487060547 77.59942626953125 136.04946899414062 C 65.35811614990234 127.20272827148438 44.817596435546875 169.00782775878906 63.876380920410156 136.30709838867188 C 102.93315887451172 125.59046936035156 93.96308898925781 184.11224365234375 102.40505981445312 205.40008544921875 C 110.15868377685547 167.3898468017578 139.01046752929688 141.0745849609375 109.90135192871094 185.22889709472656" stroke-width="2.0" fill="none" stroke="rgb(0, 0, 0)" stroke-opacity="0.89754856" stroke-linecap="round" stroke-linejoin="round"/>
    <path d="M 611.5945434570312 315.5623779296875 C 623.7454223632812 284.1874084472656 632.241943359375 306.62701416015625 622.1688842773438 321.8758544921875 C 612.3132934570312 295.23541259765625 622.4591064453125 286.982421875 638.4378662109375 277.7747497558594 C 626.6219482421875 262.5274353027344 651.3765258789062 258.355224609375 629.867919921875 248.40773010253906 C 633.1416015625 277.4059753417969 655.0399780273438 295.28070068359375 642.7127685546875 300.7814025878906" stroke-width="9.021968841552734" fill="none" stroke="rgb(0, 0, 0)" stroke-opacity="1.0" stroke-linecap="round" stroke-linejoin="round"/>
    <path d="M 41.652156829833984 402.23199462890625 C 73.20372772216797 381.72747802734375 43.99120330810547 401.2657165527344 65.55890655517578 388.5025939941406 C 65.13513946533203 392.4720153808594 31.971256256103516 394.3341369628906 36.15740203857422 386.22784423828125 C 36.07880783081055 414.2018737792969 70.74955749511719 395.895263671875 19.362464904785156 392.64312744140625 C 29.61964225769043 386.8844299316406 28.77007484436035 411.8909606933594 45.388763427734375 411.1986389160156" stroke-width="2.0" fill="none" stroke="rgb(0, 0, 0)" stroke-opacity="0.22735198" stroke-linecap="round" stroke-linejoin="round"/>
    <path d="M 150.02003479003906 78.67110443115234 C 140.16336059570312 41.170291900634766 162.5636749267578 119.3548583984375 222.9104461669922 87.4933090209961 C 125.58489227294922 77.31668090820312 129.83169555664062 82.33869171142578 175.05152893066406 84.17847442626953 C 177.00392150878906 17.686851501464844 189.96633911132812 95.92689514160156 186.04824829101562 109.78948211669922 C 165.8621063232422 97.45282745361328 213.80264282226562 171.98831176757812 215.36764526367188 205.01515197753906" stroke-width="10.426990509033203" fill="none" stroke="rgb(0, 0, 0)" stroke-opacity="0.9092795" stroke-linecap="round" stroke-linejoin="round"/>
    <path d="M 314.0859069824219 181.7242889404297 C 261.8333740234375 99.86026000976562 262.6597595214844 95.63101959228516 200.0895538330078 61.897361755371094 C 247.54495239257812 34.445953369140625 233.00506591796875 45.505523681640625 173.40811157226562 76.57454681396484 C 272.53900146484375 125.82978820800781 271.3753662109375 168.0057373046875 195.2269744873047 155.13185119628906 C 214.54412841796875 182.8371124267578 209.43447875976562 194.52117919921875 215.06472778320312 187.2283477783203" stroke-width="9.447127342224121" fill="none" stroke="rgb(0, 0, 0)" stroke-opacity="0.4792939" stroke-linecap="round" stroke-linejoin="round"/>
    <path d="M 458.5863952636719 434.3232421875 C 475.85760498046875 511.6370849609375 509.38140869140625 507.22930908203125 516.9852905273438 509.1117858886719 C 495.7967224121094 500.91595458984375 501.95709228515625 518.0422973632812 498.0098571777344 502.1841125488281 C 494.8912658691406 507.47216796875 526.7589721679688 502.6596374511719 524.9924926757812 526.7910766601562 C 545.9505615234375 520.8548583984375 569.0204467773438 542.0020751953125 565.0474243164062 544.9993896484375" stroke-width="2.0" fill="none" stroke="rgb(0, 0, 0)" stroke-opacity="0.26096845" stroke-linecap="round" stroke-linejoin="round"/>
    <path d="M 527.0819702148438 -4.124213695526123 C 563.834228515625 -4.91807222366333 560.7593994140625 -19.965261459350586 556.4188232421875 -40.64334487915039 C 497.7403564453125 23.44217300415039 490.6689758300781 6.674129009246826 552.36767578125 -5.3744940757751465 C 529.0286254882812 1.683293104171753 518.6638793945312 7.217249393463135 523.557861328125 7.671105861663818 C 475.2671203613281 -4.7595133781433105 486.443115234375 3.1789848804473877 455.7212829589844 69.42475128173828" stroke-width="2.0" fill="none" stroke="rgb(0, 0, 0)" stroke-opacity="0.4409286" stroke-linecap="round" stroke-linejoin="round"/>
    <path d="M 282.0185852050781 480.4479064941406 C 287.3679504394531 490.07623291015625 295.2061462402344 481.7909240722656 282.92718505859375 440.00006103515625 C 302.9285888671875 442.3255615234375 296.7784423828125 446.9747619628906 292.6597595214844 469.3605651855469 C 269.5863037109375 507.6016845703125 241.57533264160156 538.4600830078125 273.4603271484375 545.1688232421875 C 282.164306640625 487.0381164550781 280.93060302734375 479.23443603515625 296.2225646972656 462.752197265625" stroke-width="5.69677734375" fill="none" stroke="rgb(0, 0, 0)" stroke-opacity="0.27776802" stroke-linecap="round" stroke-linejoin="round"/>
    <path d="M 248.28311157226562 580.7274169921875 C 263.65130615234375 566.6279907226562 212.0761260986328 599.0537719726562 254.13670349121094 551.1254272460938 C 231.56784057617188 564.7106323242188 294.86285400390625 564.0679931640625 254.248779296875 583.11669921875 C 271.52349853515625 543.5127563476562 256.1524658203125 504.6534729003906 255.5084686279297 550.590087890625 C 281.3457336425781 521.3716430664062 292.6992492675781 520.2567138671875 254.52499389648438 557.4581909179688" stroke-width="9.516420364379883" fill="none" stroke="rgb(0, 0, 0)" stroke-opacity="0.6925771" stroke-linecap="round" stroke-linejoin="round"/>
    <path d="M 470.39569091796875 139.41839599609375 C 477.4587707519531 165.61631774902344 528.6896362304688 183.0568389892578 540.5602416992188 159.30551147460938 C 543.705078125 203.6604461669922 514.510498046875 162.57354736328125 533.778076171875 161.60289001464844 C 531.2489624023438 178.34425354003906 549.6055297851562 177.45953369140625 531.8904418945312 192.18759155273438 C 529.9068603515625 220.59823608398438 443.83099365234375 208.9190216064453 501.5705871582031 306.9868469238281" stroke-width="2.0" fill="none" stroke="rgb(0, 0, 0)" stroke-opacity="0.8383592" stroke-linecap="round" stroke-linejoin="round"/>
    <path d="M 577.6590576171875 57.2105712890625 C 605.4806518554688 6.175299167633057 560.1589965820312 24.394771575927734 542.185302734375 -57.0650520324707 C 491.50921630859375 12.106379508972168 481.5890808105469 -9.645757675170898 485.3045959472656 -32.620628356933594 C 510.5118713378906 6.587978363037109 504.1691589355469 0.5381636619567871 492.13751220703125 -40.99375534057617 C 497.8155212402344 -2.6324453353881836 489.2305603027344 2.9501793384552 475.39776611328125 16.730836868286133" stroke-width="2.0" fill="none" stroke="rgb(0, 0, 0)" stroke-opacity="0.8755293" stroke-linecap="round" stroke-linejoin="round"/>
    <path d="M 613.2389526367188 384.4056396484375 C 581.0491943359375 364.88671875 615.6023559570312 390.7427062988281 561.3569946289062 392.981201171875 C 559.607177734375 412.18536376953125 621.3137817382812 428.8607177734375 604.7304077148438 457.1319580078125 C 589.6066284179688 440.7246398925781 607.8703002929688 437.498046875 617.0388793945312 515.3995971679688 C 596.8231201171875 547.54443359375 560.9658203125 550.4559936523438 551.2517700195312 529.1514282226562" stroke-width="2.0" fill="none" stroke="rgb(0, 0, 0)" stroke-opacity="0.7174085" stroke-linecap="round" stroke-linejoin="round"/>
    <path d="M 289.9927062988281 -3.41963267326355 C 313.589111328125 2.6844370365142822 311.1306457519531 -20.371932983398438 306.6261291503906 -10.418898582458496 C 295.2604064941406 -39.314022064208984 297.69512939453125 -33.73466873168945 317.106201171875 -10.158404350280762 C 303.67181396484375 -30.7454833984375 319.38134765625 -4.742405891418457 342.91552734375 -25.33871078491211 C 340.2161865234375 0.14921459555625916 349.39349365234375 -15.699492454528809 334.4122009277344 -37.65520095825195" stroke-width="3.108341693878174" fill="none" stroke="rgb(0, 0, 0)" stroke-opacity="0.90625167" stroke-linecap="round" stroke-linejoin="round"/>
    <path d="M 409.8448486328125 169.63182067871094 C 355.84088134765625 239.04922485351562 422.89892578125 187.48410034179688 467.7580871582031 218.37030029296875 C 480.56591796875 240.0316619873047 470.30908203125 221.74729919433594 438.5541076660156 212.34654235839844 C 437.25701904296875 206.7350311279297 424.00225830078125 252.13604736328125 455.79949951171875 269.052001953125 C 444.07855224609375 202.0719451904297 417.8189392089844 207.8398895263672 492.8829040527344 259.2799072265625" stroke-width="2.2842442989349365" fill="none" stroke="rgb(0, 0, 0)" stroke-opacity="0.57524353" stroke-linecap="round" stroke-linejoin="round"/>
    <path d="M 97.54263305664062 469.4516296386719 C 115.59912109375 474.6358947753906 97.62373352050781 457.8249206542969 109.4953842163086 503.2646179199219 C 122.39838409423828 534.2401733398438 124.02220916748047 508.0740966796875 109.91836547851562 502.631103515625 C 90.63847351074219 481.13427734375 113.15218353271484 512.5455322265625 97.15594482421875 493.7560119628906 C 148.7244873046875 524.0296630859375 107.3558120727539 531.4019165039062 62.056671142578125 573.74951171875" stroke-width="2.0" fill="none" stroke="rgb(0, 0, 0)" stroke-opacity="0.09953808" stroke-linecap="round" stroke-linejoin="round"/>
    <path d="M 38.012325286865234 -26.743894577026367 C 13.858046531677246 -25.78412437438965 -19.906686782836914 2.4123871326446533 -25.899152755737305 31.067909240722656 C -23.0965576171875 26.626585006713867 -49.08753204345703 37.60831069946289 -63.067970275878906 42.148929595947266 C -51.67277526855469 58.417259216308594 -70.29391479492188 70.6136245727539 -45.531490325927734 94.70359802246094 C -46.85802459716797 75.10205078125 -35.26024627685547 64.19580078125 -28.24940299987793 67.35102081298828" stroke-width="6.351061820983887" fill="none" stroke="rgb(0, 0, 0)" stroke-opacity="0.12411695" stroke-linecap="round" stroke-linejoin="round"/>
    <path d="M -10.22330379486084 319.8160095214844 C -26.077621459960938 310.68035888671875 -26.76690673828125 322.81121826171875 -42.1972770690918 341.7456359863281 C -54.404075622558594 357.0396423339844 -68.64651489257812 385.9757385253906 -41.585811614990234 374.39105224609375 C -18.455123901367188 347.05511474609375 -23.503936767578125 335.9584045410156 -13.24423599243164 310.87176513671875 C -40.57380294799805 298.02001953125 -38.89254379272461 276.796875 -27.930971145629883 272.85162353515625" stroke-width="6.27544641494751" fill="none" stroke="rgb(0, 0, 0)" stroke-opacity="0.7446355" stroke-linecap="round" stroke-linejoin="round"/>
    <path d="M 623.109619140625 590.4404296875 C 539.6900024414062 592.8505859375 489.2597351074219 533.3199462890625 535.8757934570312 522.6288452148438 C 642.3854370117188 573.9019165039062 633.4459838867188 532.2088012695312 646.279296875 535.0718994140625 C 612.2659912109375 521.40087890625 612.0054931640625 499.13287353515625 589.3829956054688 542.5360107421875 C 538.1048583984375 532.0048217773438 529.110107421875 509.6759948730469 535.4974975585938 530.2537841796875" stroke-width="2.0" fill="none" stroke="rgb(0, 0, 0)" stroke-opacity="0.114633076" stroke-linecap="round" stroke-linejoin="round"/>
    <path d="M 467.19830322265625 253.91488647460938 C 430.11077880859375 242.8206787109375 441.994873046875 297.6339416503906 440.762451171875 211.65342712402344 C 452.4326171875 197.59730529785156 435.6175231933594 262.8805847167969 438.758544921875 361.56915283203125 C 454.72882080078125 304.16937255859375 446.2153015136719 283.6322326660156 459.01495361328125 235.26702880859375 C 454.03631591796875 222.41424560546875 395.1742248535156 188.2501983642578 417.77618408203125 241.16354370117188" stroke-width="11.448546409606934" fill="none" stroke="rgb(0, 0, 0)" stroke-opacity="0.6627791" stroke-linecap="round" stroke-linejoin="round"/>
    <path d="M 113.93036651611328 296.6630554199219 C 87.24832153320312 289.5971984863281 92.38831329345703 290.26617431640625 82.32444763183594 277.0496520996094 C 56.494136810302734 285.04986572265625 69.34752655029297 275.845947265625 54.12595748901367 292.70880126953125 C 55.964271545410156 336.80303955078125 53.57688522338867 288.1646423339844 54.2581901550293 292.09716796875 C 66.1289291381836 289.4037170410156 64.85636901855469 261.4866638183594 61.1221809387207 277.81201171875" stroke-width="2.0" fill="none" stroke="rgb(0, 0, 0)" stroke-opacity="0.3605693" stroke-linecap="round" stroke-linejoin="round"/>
    <path d="M 377.9805603027344 -9.253216743469238 C 365.9388122558594 -3.071314573287964 388.9991149902344 -6.901310443878174 396.46612548828125 -14.003952026367188 C 408.9871826171875 0.9014478921890259 393.26690673828125 -7.509507656097412 389.0262145996094 -15.001659393310547 C 382.226318359375 -25.1141414642334 382.827880859375 -32.66585922241211 380.7510986328125 -51.45997619628906 C 354.2231140136719 -47.046016693115234 339.0067443847656 -57.577056884765625 319.59576416015625 -60.91101837158203" stroke-width="2.9539072513580322" fill="none" stroke="rgb(0, 0, 0)" stroke-opacity="0.8421913" stroke-linecap="round" stroke-linejoin="round"/>
    <path d="M 475.6429748535156 345.9749450683594 C 469.3314514160156 378.15472412109375 472.7051696777344 436.5621032714844 462.8575439453125 347.2488708496094 C 452.7359313964844 433.2279357910156 468.40020751953125 466.82293701171875 491.545654296875 476.66778564453125 C 510.8861999511719 475.0840148925781 457.5314025878906 473.0502624511719 477.95501708984375 390.173583984375 C 441.72528076171875 476.7347717285156 487.0450439453125 439.59185791015625 481.1305847167969 326.9509582519531" stroke-width="2.296247720718384" fill="none" stroke="rgb(0, 0, 0)" stroke-opacity="0.91338205" stroke-linecap="round" stroke-linejoin="round"/>
    <path d="M 63.430049896240234 11.852922439575195 C 5.574436664581299 31.51289176940918 9.164115905761719 62.624114990234375 -21.475032806396484 73.75293731689453 C -31.998043060302734 68.45616912841797 -46.7844123840332 59.6314697265625 -70.79759216308594 86.31575775146484 C -48.05168151855469 98.28770446777344 -20.426044464111328 126.1675796508789 -6.393582820892334 98.2746810913086 C -9.693380355834961 114.63914489746094 -34.37079620361328 90.6747055053711 -34.9420166015625 71.69574737548828" stroke-width="6.671015739440918" fill="none" stroke="rgb(0, 0, 0)" stroke-opacity="0.13339373" stroke-linecap="round" stroke-linejoin="round"/>
    <path d="M 608.4852294921875 420.7782287597656 C 613.0805053710938 415.7744140625 609.2298583984375 396.2605895996094 625.3701171875 362.8703308105469 C 618.8309936523438 327.69927978515625 612.4212646484375 319.95611572265625 612.761962890625 330.259521484375 C 593.5204467773438 318.33795166015625 618.5841674804688 332.2557067871094 642.931396484375 303.94293212890625 C 606.1695556640625 302.1369323730469 626.1664428710938 289.98565673828125 610.7865600585938 287.27325439453125" stroke-width="5.926839351654053" fill="none" stroke="rgb(0, 0, 0)" stroke-opacity="0.6091274" stroke-linecap="round" stroke-linejoin="round"/>
    <path d="M 176.86203002929688 52.823673248291016 C 203.65203857421875 128.97113037109375 197.01080322265625 123.60848236083984 137.8321533203125 128.34756469726562 C 192.27383422851562 153.2633819580078 204.23634338378906 170.79774475097656 240.98532104492188 210.06690979003906 C 237.485107421875 191.99444580078125 210.29864501953125 119.67483520507812 207.6844482421875 84.04087829589844 C 263.96295166015625 120.88780975341797 263.6911315917969 128.3839874267578 289.9752197265625 186.7727508544922" stroke-width="11.866839408874512" fill="none" stroke="rgb(0, 0, 0)" stroke-opacity="0.24432465" stroke-linecap="round" stroke-linejoin="round"/>
    <path d="M 472.9690856933594 289.8599548339844 C 428.329833984375 379.2226867675781 433.451416015625 372.8430480957031 469.89996337890625 262.9566650390625 C 494.14971923828125 304.6369323730469 515.3534545898438 334.1673889160156 474.5746765136719 365.3761291503906 C 459.9862976074219 301.7854309082031 480.35296630859375 261.6287841796875 474.8307800292969 322.0530090332031 C 510.0155944824219 285.37451171875 442.4429626464844 262.7850036621094 454.85064697265625 302.79412841796875" stroke-width="3.0711419582366943" fill="none" stroke="rgb(0, 0, 0)" stroke-opacity="0.6647196" stroke-linecap="round" stroke-linejoin="round"/>
    <path d="M 559.4283447265625 137.19451904296875 C 569.2536010742188 136.3553924560547 574.811767578125 152.16961669921875 602.7579345703125 126.39407348632812 C 600.5674438476562 136.32371520996094 624.341796875 129.78427124023438 619.8198852539062 110.96678924560547 C 604.0504760742188 125.27570343017578 611.9038696289062 135.11729431152344 611.16796875 137.0542449951172 C 633.2015991210938 50.73361587524414 592.161865234375 87.23509216308594 579.1760864257812 50.73056411743164" stroke-width="2.0" fill="none" stroke="rgb(0, 0, 0)" stroke-opacity="0.94984627" stroke-linecap="round" stroke-linejoin="round"/>
    <path d="M 332.4638366699219 357.5091552734375 C 312.17938232421875 442.0545959472656 268.7992248535156 464.5282287597656 261.8027648925781 532.6456298828125 C 300.2131042480469 523.9131469726562 268.8779296875 490.14788818359375 257.00726318359375 544.4811401367188 C 252.84866333007812 536.99755859375 255.34548950195312 563.4718627929688 264.5611267089844 548.0171508789062 C 286.06646728515625 592.0534057617188 227.19760131835938 546.6130981445312 241.9039306640625 565.3192138671875" stroke-width="2.0" fill="none" stroke="rgb(0, 0, 0)" stroke-opacity="0.3836294" stroke-linecap="round" stroke-linejoin="round"/>
    <path d="M 547.2088012695312 -1.5366038084030151 C 496.63311767578125 20.522464752197266 493.68682861328125 1.9107441902160645 494.2305908203125 -4.813493728637695 C 493.2716064453125 -67.11348724365234 483.00958251953125 -29.161128997802734 470.5008239746094 -8.549165725708008 C 478.8382263183594 -28.615602493286133 474.722412109375 -25.313430786132812 454.534423828125 -28.239116668701172 C 456.3855285644531 -26.993406295776367 441.6222839355469 -10.317267417907715 431.42828369140625 -11.375553131103516" stroke-width="3.844813346862793" fill="none" stroke="rgb(0, 0, 0)" stroke-opacity="0.9785197" stroke-linecap="round" stroke-linejoin="round"/>
    <path d="M 389.13861083984375 78.24694061279297 C 352.6939392089844 124.68351745605469 385.7352600097656 120.10659790039062 245.48403930664062 95.92393493652344 C 272.28155517578125 54.88087844848633 342.4052429199219 95.3398666381836 285.7903747558594 94.87845611572266 C 327.397216796875 151.08551025390625 424.9549560546875 125.47669982910156 299.6528625488281 144.98779296875 C 334.0090026855469 206.73838806152344 322.8091125488281 182.0106658935547 416.41070556640625 208.40232849121094" stroke-width="2.4361109733581543" fill="none" stroke="rgb(0, 0, 0)" stroke-opacity="0.8353083" stroke-linecap="round" stroke-linejoin="round"/>
    <path d="M 152.5547332763672 128.96066284179688 C 159.9191436767578 140.12937927246094 99.79724884033203 134.18167114257812 81.6965103149414 90.78288269042969 C 132.90689086914062 68.85719299316406 120.68737030029297 58.02101516723633 113.04646301269531 22.547021865844727 C 157.2345428466797 59.211666107177734 151.29141235351562 74.67692565917969 146.3872833251953 85.75067901611328 C 137.92263793945312 6.373424053192139 104.74566650390625 22.544940948486328 88.58895111083984 -0.2757004499435425" stroke-width="2.017425537109375" fill="none" stroke="rgb(0, 0, 0)" stroke-opacity="0.31053752" stroke-linecap="round" stroke-linejoin="round"/>
    <path d="M 373.5042419433594 105.65455627441406 C 273.47137451171875 127.83883666992188 335.4966125488281 179.85708618164062 388.09625244140625 162.65757751464844 C 381.9073181152344 143.3077392578125 427.0953369140625 141.71414184570312 433.474853515625 160.1018829345703 C 445.1200866699219 169.99574279785156 459.4547119140625 162.84596252441406 438.63153076171875 160.0157012939453 C 418.10809326171875 157.00262451171875 427.93841552734375 153.39427185058594 412.1019592285156 155.02674865722656" stroke-width="2.0" fill="none" stroke="rgb(0, 0, 0)" stroke-opacity="0.17475948" stroke-linecap="round" stroke-linejoin="round"/>
    <path d="M 293.58599853515625 212.06553649902344 C 301.8294372558594 263.5975341796875 295.7051086425781 273.2253723144531 248.5119171142578 162.85134887695312 C 227.2648468017578 46.847530364990234 330.1153869628906 98.25282287597656 347.0662841796875 116.61600494384766 C 299.1488037109375 127.06944274902344 272.8993225097656 126.90582275390625 269.67340087890625 106.1077880859375 C 299.2579040527344 136.57533264160156 244.95037841796875 99.14069366455078 225.86819458007812 78.09178924560547" stroke-width="2.8323099613189697" fill="none" stroke="rgb(0, 0, 0)" stroke-opacity="0.28258887" stroke-linecap="round" stroke-linejoin="round"/>
    <path d="M 295.476806640625 462.0601806640625 C 284.07720947265625 473.9682312011719 299.18994140625 458.3160400390625 295.06304931640625 430.9949035644531 C 330.2701416015625 385.30181884765625 312.1056213378906 393.8686218261719 301.9140930175781 433.36004638671875 C 306.69427490234375 426.7374267578125 286.7326965332031 426.2596740722656 268.452880859375 457.0438232421875 C 281.4803466796875 517.3038940429688 294.0655822753906 477.1249694824219 299.11224365234375 439.7864990234375" stroke-width="7.439939022064209" fill="none" stroke="rgb(0, 0, 0)" stroke-opacity="0.29459324" stroke-linecap="round" stroke-linejoin="round"/>
    <path d="M 611.5945434570312 315.5623779296875 C 623.7454223632812 284.1874084472656 632.241943359375 306.62701416015625 622.1688842773438 321.8758544921875 C 612.3132934570312 295.23541259765625 622.4591064453125 286.982421875 638.4378662109375 277.7747497558594 C 626.6219482421875 262.5274353027344 651.3765258789062 258.355224609375 629.867919921875 248.40773010253906 C 633.1416015625 277.4059753417969 655.0399780273438 295.28070068359375 642.7127685546875 300.7814025878906" stroke-width="9.021968841552734" fill="none" stroke="rgb(0, 0, 0)" stroke-opacity="1.0" stroke-linecap="round" stroke-linejoin="round"/>
    <path d="M 156.1588592529297 88.53575897216797 C 120.52769470214844 137.6088409423828 145.72958374023438 101.13264465332031 152.1218719482422 80.36154174804688 C 198.5428924560547 71.01476287841797 154.3623046875 -1.5784348249435425 182.92979431152344 16.197059631347656 C 227.04254150390625 -36.11652374267578 248.42156982421875 -7.547565937042236 240.7270050048828 11.185076713562012 C 178.79966735839844 -15.578673362731934 164.98849487304688 -16.196044921875 180.09686279296875 -13.211240768432617" stroke-width="2.0" fill="none" stroke="rgb(0, 0, 0)" stroke-opacity="0.6072454" stroke-linecap="round" stroke-linejoin="round"/>
    <path d="M 373.7451171875 369.31396484375 C 412.17822265625 414.4085388183594 418.2349548339844 418.2680358886719 407.1036071777344 405.9141540527344 C 402.6632385253906 422.1728210449219 373.8555603027344 404.18035888671875 359.4698791503906 357.2968444824219 C 340.82598876953125 387.5135498046875 382.48486328125 358.4047546386719 381.87811279296875 348.1635437011719 C 302.0186767578125 378.9264221191406 337.7552795410156 368.53582763671875 361.6231384277344 301.1299133300781" stroke-width="6.662718772888184" fill="none" stroke="rgb(0, 0, 0)" stroke-opacity="0.66215754" stroke-linecap="round" stroke-linejoin="round"/>
    <path d="M 425.9748229980469 425.428466796875 C 424.6174621582031 358.8332214355469 468.6622619628906 351.0810852050781 413.7140197753906 375.52117919921875 C 416.1385192871094 432.6568603515625 386.6811828613281 450.6930847167969 398.4176330566406 424.9676818847656 C 423.5246887207031 450.2032165527344 418.1123352050781 444.689453125 371.1576232910156 402.1091003417969 C 359.15069580078125 320.7913818359375 371.0048522949219 354.9157409667969 408.9851379394531 457.09674072265625" stroke-width="8.94233512878418" fill="none" stroke="rgb(0, 0, 0)" stroke-opacity="0.6609268" stroke-linecap="round" stroke-linejoin="round"/>
    <path d="M 419.0281677246094 512.9263916015625 C 377.0740966796875 480.0105895996094 403.98101806640625 498.3541564941406 375.7353820800781 538.1644897460938 C 336.10443115234375 541.1923217773438 366.43670654296875 528.3878173828125 353.5433044433594 541.4960327148438 C 312.62579345703125 546.9442138671875 333.8533935546875 566.2952270507812 289.6452941894531 556.5457763671875 C 248.3542938232422 586.6998901367188 252.20079040527344 604.5587158203125 295.9151611328125 631.511474609375" stroke-width="2.3311731815338135" fill="none" stroke="rgb(0, 0, 0)" stroke-opacity="0.24542032" stroke-linecap="round" stroke-linejoin="round"/>
    <path d="M 611.5945434570312 315.5623779296875 C 623.7454223632812 284.1874084472656 632.241943359375 306.62701416015625 622.1688842773438 321.8758544921875 C 612.3132934570312 295.23541259765625 622.4591064453125 286.982421875 638.4378662109375 277.7747497558594 C 626.6219482421875 262.5274353027344 651.3765258789062 258.355224609375 629.867919921875 248.40773010253906 C 633.1416015625 277.4059753417969 655.0399780273438 295.28070068359375 642.7127685546875 300.7814025878906" stroke-width="9.021968841552734" fill="none" stroke="rgb(0, 0, 0)" stroke-opacity="1.0" stroke-linecap="round" stroke-linejoin="round"/>
    <path d="M 197.6847381591797 166.50482177734375 C 270.1752624511719 146.14187622070312 275.1453552246094 131.54298400878906 189.36572265625 88.50645446777344 C 172.16957092285156 26.98191261291504 233.37347412109375 53.957679748535156 239.8837432861328 61.02031326293945 C 178.25869750976562 89.24560546875 209.9663848876953 57.184513092041016 222.89889526367188 57.991477966308594 C 180.6842803955078 66.87342071533203 207.1521759033203 93.469482421875 286.2898864746094 63.14935302734375" stroke-width="2.0" fill="none" stroke="rgb(0, 0, 0)" stroke-opacity="0.7915342" stroke-linecap="round" stroke-linejoin="round"/>
    <path d="M 611.5945434570312 315.5623779296875 C 623.7454223632812 284.1874084472656 632.241943359375 306.62701416015625 622.1688842773438 321.8758544921875 C 612.3132934570312 295.23541259765625 622.4591064453125 286.982421875 638.4378662109375 277.7747497558594 C 626.6219482421875 262.5274353027344 651.3765258789062 258.355224609375 629.867919921875 248.40773010253906 C 633.1416015625 277.4059753417969 655.0399780273438 295.28070068359375 642.7127685546875 300.7814025878906" stroke-width="9.021968841552734" fill="none" stroke="rgb(0, 0, 0)" stroke-opacity="0.5607886" stroke-linecap="round" stroke-linejoin="round"/>
  </g>
</svg>
