<?xml version="1.0" ?>
<svg xmlns="http://www.w3.org/2000/svg" version="1.1" width="600" height="600">
  <defs/>
  <g>
    <path d="M 135.9451141357422 87.98518371582031 C 91.69715118408203 135.1005859375 64.96650695800781 159.85247802734375 116.53054809570312 139.22694396972656 C 176.68011474609375 124.11933135986328 187.79046630859375 106.56695556640625 136.17552185058594 81.53024291992188 C 178.65277099609375 49.60357666015625 206.68783569335938 87.33873748779297 126.05156707763672 85.2929916381836 C 89.63878631591797 137.00364685058594 115.35337829589844 109.14905548095703 222.2458953857422 140.92674255371094" stroke-width="11.57528305053711" fill="none" stroke="rgb(0, 0, 0)" stroke-opacity="0.7612877" stroke-linecap="round" stroke-linejoin="round"/>
    <path d="M 269.36309814453125 199.21119689941406 C 255.6435546875 157.2374725341797 249.41384887695312 162.50730895996094 250.8893585205078 173.19227600097656 C 256.4976806640625 169.47837829589844 228.4318389892578 126.15735626220703 221.74131774902344 113.9030990600586 C 158.33328247070312 137.31874084472656 146.2615509033203 138.10150146484375 206.8220977783203 180.12161254882812 C 235.96290588378906 230.7176971435547 230.97003173828125 193.0981903076172 256.21807861328125 224.39590454101562" stroke-width="7.435040473937988" fill="none" stroke="rgb(0, 0, 0)" stroke-opacity="0.92003083" stroke-linecap="round" stroke-linejoin="round"/>
    <path d="M 320.5656433105469 268.6327819824219 C 305.511962890625 172.54017639160156 266.24951171875 159.4330596923828 295.5113220214844 176.87191772460938 C 311.68438720703125 193.18768310546875 314.8223571777344 189.9742889404297 286.83935546875 163.5940399169922 C 272.4095764160156 155.1481170654297 282.5615539550781 129.02102661132812 265.33905029296875 104.83597564697266 C 225.55728149414062 54.43206024169922 230.73033142089844 67.09213256835938 192.99899291992188 120.14363098144531" stroke-width="6.828874111175537" fill="none" stroke="rgb(0, 0, 0)" stroke-opacity="0.5445144" stroke-linecap="round" stroke-linejoin="round"/>
    <path d="M 304.6729736328125 70.44263458251953 C 318.3059387207031 78.29137420654297 233.42510986328125 53.07933044433594 277.9794616699219 53.48423385620117 C 299.8646240234375 21.263591766357422 334.13995361328125 55.748023986816406 292.0704650878906 57.357791900634766 C 261.5662841796875 78.91594696044922 277.6814880371094 66.6576919555664 292.8191223144531 44.40644073486328 C 304.2402648925781 40.48115539550781 268.42706298828125 41.9253044128418 234.1891632080078 51.78996276855469" stroke-width="11.774298667907715" fill="none" stroke="rgb(0, 0, 0)" stroke-opacity="0.68406814" stroke-linecap="round" stroke-linejoin="round"/>
    <path d="M 66.21599578857422 133.58128356933594 C 88.53267669677734 155.13922119140625 60.19271469116211 130.59645080566406 47.5325927734375 125.33180236816406 C 56.48625183105469 124.70321655273438 73.16938781738281 136.2638397216797 97.7163314819336 180.39834594726562 C 76.44249725341797 270.5023498535156 64.8674545288086 274.5903015136719 93.47490692138672 223.96168518066406 C 69.689208984375 217.18878173828125 53.72672653198242 231.06643676757812 105.64866638183594 145.6560821533203" stroke-width="5.36317777633667" fill="none" stroke="rgb(0, 0, 0)" stroke-opacity="0.8604871" stroke-linecap="round" stroke-linejoin="round"/>
    <path d="M 504.7244567871094 36.97123336791992 C 465.63189697265625 6.426584243774414 417.4131164550781 0.6919944286346436 382.9962463378906 1.5921010971069336 C 440.8695373535156 -80.72618103027344 465.24761962890625 -66.60700225830078 485.9693603515625 -98.33148956298828 C 471.6786804199219 -76.57264709472656 471.2474670410156 -27.04562759399414 457.5238037109375 13.832109451293945 C 464.0326843261719 14.969071388244629 479.6828918457031 22.789871215820312 448.16888427734375 11.31929874420166" stroke-width="2.0" fill="none" stroke="rgb(0, 0, 0)" stroke-opacity="0.64003795" stroke-linecap="round" stroke-linejoin="round"/>
    <path d="M 536.8035888671875 396.0625305175781 C 503.6369934082031 452.9742126464844 450.89190673828125 433.93353271484375 401.1988830566406 373.1044921875 C 425.9601745605469 378.65203857421875 401.92169189453125 380.375 404.38348388671875 352.417236328125 C 369.5867919921875 349.1742858886719 384.8283996582031 302.5123596191406 384.66729736328125 342.5593566894531 C 380.2232360839844 339.6673889160156 426.6088562011719 304.820068359375 363.74127197265625 376.2618103027344" stroke-width="2.0" fill="none" stroke="rgb(0, 0, 0)" stroke-opacity="0.9235764" stroke-linecap="round" stroke-linejoin="round"/>
    <path d="M 233.649169921875 404.93621826171875 C 302.1560974121094 355.6765441894531 260.3561706542969 324.2294006347656 294.05810546875 346.0130920410156 C 309.1515808105469 304.9026184082031 236.69859313964844 336.3243713378906 293.4480895996094 326.36663818359375 C 256.2599792480469 298.8355712890625 230.777099609375 305.4255065917969 212.9113006591797 268.42413330078125 C 202.70968627929688 309.691650390625 199.9711151123047 309.0412902832031 215.32374572753906 255.5194854736328" stroke-width="12.0" fill="none" stroke="rgb(0, 0, 0)" stroke-opacity="0.088428035" stroke-linecap="round" stroke-linejoin="round"/>
    <path d="M 396.640380859375 457.5080261230469 C 389.92791748046875 453.78717041015625 417.4584655761719 383.00152587890625 422.1350402832031 407.3940734863281 C 479.94989013671875 418.84619140625 486.7425231933594 450.7080383300781 494.41400146484375 413.19384765625 C 420.8585205078125 404.5416564941406 397.1722106933594 423.8043212890625 422.12322998046875 421.886962890625 C 416.1007385253906 435.56976318359375 423.5102233886719 433.2886962890625 415.0201110839844 373.7877502441406" stroke-width="8.534126281738281" fill="none" stroke="rgb(0, 0, 0)" stroke-opacity="0.82757306" stroke-linecap="round" stroke-linejoin="round"/>
    <path d="M 545.013916015625 399.46002197265625 C 588.9078369140625 412.37005615234375 599.6072387695312 355.2088623046875 640.7993774414062 388.51611328125 C 631.4297485351562 394.191650390625 600.5989990234375 391.26947021484375 548.80322265625 379.0971374511719 C 561.0991821289062 410.9753723144531 616.7276611328125 407.43426513671875 635.2750244140625 367.1688537597656 C 621.7317504882812 313.07867431640625 617.0022583007812 321.63726806640625 637.5774536132812 348.4208679199219" stroke-width="12.0" fill="none" stroke="rgb(0, 0, 0)" stroke-opacity="0.87770647" stroke-linecap="round" stroke-linejoin="round"/>
    <path d="M 109.13885498046875 171.722900390625 C 171.8032989501953 177.47776794433594 162.22174072265625 193.16709899902344 143.87399291992188 219.2130126953125 C 154.53524780273438 241.53106689453125 162.55987548828125 278.40869140625 147.7248077392578 233.24574279785156 C 137.6519775390625 289.5318603515625 155.55099487304688 208.0619354248047 143.51470947265625 188.16958618164062 C 106.93418884277344 132.44094848632812 128.86253356933594 189.62673950195312 120.89563751220703 296.58514404296875" stroke-width="5.226767063140869" fill="none" stroke="rgb(0, 0, 0)" stroke-opacity="0.31481025" stroke-linecap="round" stroke-linejoin="round"/>
    <path d="M 111.39806365966797 460.2032470703125 C 88.10665893554688 521.2362670898438 85.84683227539062 507.3031921386719 104.01909637451172 525.8004150390625 C 90.7052001953125 501.1627502441406 124.3595199584961 487.0808410644531 129.20803833007812 559.356201171875 C 76.87725067138672 520.3292846679688 106.5035400390625 498.7806396484375 123.90786743164062 560.800537109375 C 93.15483093261719 558.99560546875 91.06916046142578 492.6063537597656 93.9898681640625 526.79736328125" stroke-width="2.333686113357544" fill="none" stroke="rgb(0, 0, 0)" stroke-opacity="0.83942175" stroke-linecap="round" stroke-linejoin="round"/>
    <path d="M 483.27435302734375 426.85711669921875 C 478.9823913574219 460.0273742675781 436.124267578125 471.9446105957031 442.476806640625 421.428466796875 C 474.83111572265625 455.97491455078125 472.6455993652344 421.23870849609375 478.89288330078125 399.5945739746094 C 461.5348815917969 429.5780944824219 478.68634033203125 433.20245361328125 482.32012939453125 408.4188537597656 C 465.7710876464844 451.89483642578125 486.3714904785156 431.8392333984375 496.18365478515625 407.3279724121094" stroke-width="11.79792308807373" fill="none" stroke="rgb(0, 0, 0)" stroke-opacity="0.61383766" stroke-linecap="round" stroke-linejoin="round"/>
    <path d="M 603.5596923828125 590.0368041992188 C 647.1369018554688 592.5150146484375 668.7473754882812 548.8588256835938 697.5057373046875 523.4424438476562 C 682.3403930664062 554.4224853515625 702.1011962890625 538.6162719726562 673.7720336914062 554.2528076171875 C 691.0133666992188 569.2057495117188 671.2775268554688 550.8082275390625 682.6748657226562 560.151123046875 C 709.7314453125 584.6953735351562 689.1637573242188 555.0488891601562 704.4501342773438 527.64208984375" stroke-width="2.0" fill="none" stroke="rgb(0, 0, 0)" stroke-opacity="0.553093" stroke-linecap="round" stroke-linejoin="round"/>
    <path d="M 268.26373291015625 274.6871643066406 C 281.91851806640625 341.64642333984375 252.7999267578125 398.40277099609375 276.1239013671875 357.69342041015625 C 326.9657897949219 384.3100891113281 288.5765380859375 418.7255859375 286.6370849609375 340.6763916015625 C 258.1351318359375 418.3872985839844 272.4259338378906 332.0328674316406 275.103271484375 331.9400939941406 C 318.69976806640625 374.8298645019531 303.2875671386719 437.7086486816406 302.5567321777344 335.8161315917969" stroke-width="8.18553638458252" fill="none" stroke="rgb(0, 0, 0)" stroke-opacity="0.3317861" stroke-linecap="round" stroke-linejoin="round"/>
    <path d="M 293.4418640136719 66.81871795654297 C 350.7374267578125 101.99064636230469 340.8915100097656 94.29095458984375 320.9866027832031 80.86719512939453 C 323.0556945800781 93.9966049194336 298.70233154296875 59.04233169555664 324.8885498046875 47.22980499267578 C 295.41827392578125 58.93406295776367 344.7740783691406 62.62556457519531 373.60858154296875 122.0382080078125 C 386.8886413574219 153.82884216308594 404.1496276855469 166.05235290527344 378.2016296386719 240.04730224609375" stroke-width="10.349717140197754" fill="none" stroke="rgb(0, 0, 0)" stroke-opacity="0.6683222" stroke-linecap="round" stroke-linejoin="round"/>
    <path d="M 137.54920959472656 557.5880126953125 C 128.64051818847656 570.5296020507812 166.27511596679688 586.5604858398438 179.18862915039062 572.0624389648438 C 122.73646545410156 589.2236328125 118.71403503417969 548.4346313476562 108.01666259765625 501.3138122558594 C 158.95970153808594 519.9925537109375 135.5347900390625 469.8062438964844 136.5443572998047 461.97552490234375 C 103.9297103881836 463.29962158203125 112.7988052368164 480.1791687011719 108.07744598388672 367.240234375" stroke-width="2.212608814239502" fill="none" stroke="rgb(0, 0, 0)" stroke-opacity="0.2911624" stroke-linecap="round" stroke-linejoin="round"/>
    <path d="M 176.36572265625 79.08334350585938 C 215.9546661376953 6.904941558837891 180.07821655273438 -20.756071090698242 169.34765625 -55.870323181152344 C 149.90855407714844 -16.894630432128906 151.0995635986328 -30.272878646850586 139.07284545898438 -34.787811279296875 C 137.5764923095703 -37.221405029296875 118.48783874511719 -17.264856338500977 122.38728332519531 -14.791501998901367 C 113.1787109375 6.978986740112305 109.72538757324219 -17.944501876831055 141.35092163085938 -45.194244384765625" stroke-width="2.057384729385376" fill="none" stroke="rgb(0, 0, 0)" stroke-opacity="0.5262289" stroke-linecap="round" stroke-linejoin="round"/>
    <path d="M 104.71858978271484 520.3721923828125 C 143.25955200195312 572.7662963867188 175.8192138671875 625.82421875 163.06326293945312 491.17596435546875 C 190.21023559570312 571.1646118164062 201.97079467773438 596.5194091796875 159.29762268066406 539.038818359375 C 190.4048614501953 523.1976928710938 223.73892211914062 519.0825805664062 169.01185607910156 498.8409118652344 C 204.16502380371094 538.0240478515625 188.9036102294922 583.1854858398438 186.89163208007812 505.20562744140625" stroke-width="11.246249198913574" fill="none" stroke="rgb(0, 0, 0)" stroke-opacity="0.536893" stroke-linecap="round" stroke-linejoin="round"/>
    <path d="M 365.978759765625 557.4572143554688 C 366.93695068359375 646.39697265625 371.686279296875 630.9849853515625 376.98345947265625 644.634521484375 C 367.29205322265625 590.1915893554688 350.4713439941406 595.7313842773438 372.38958740234375 639.3345336914062 C 377.92041015625 624.177978515625 391.4974670410156 608.4866943359375 354.8982238769531 574.803466796875 C 327.47265625 625.3845825195312 376.9167785644531 593.9521484375 366.33892822265625 550.7904663085938" stroke-width="6.8741302490234375" fill="none" stroke="rgb(0, 0, 0)" stroke-opacity="0.9986189" stroke-linecap="round" stroke-linejoin="round"/>
    <path d="M 213.63711547851562 520.9091186523438 C 195.8521270751953 596.5322875976562 190.14886474609375 574.7662963867188 141.8685302734375 584.4042358398438 C 144.9582061767578 632.5636596679688 144.87942504882812 688.795654296875 169.43673706054688 718.8938598632812 C 191.55410766601562 627.4039306640625 210.6156005859375 635.6611938476562 213.18869018554688 633.0260620117188 C 186.09373474121094 612.2266845703125 193.05374145507812 589.3897094726562 194.48028564453125 623.5493774414062" stroke-width="2.440492630004883" fill="none" stroke="rgb(0, 0, 0)" stroke-opacity="1.0" stroke-linecap="round" stroke-linejoin="round"/>
    <path d="M 302.8101501464844 214.2003173828125 C 309.3187255859375 261.4770812988281 328.4960632324219 262.1603698730469 271.5771789550781 261.5374450683594 C 268.9585266113281 291.1094055175781 282.71929931640625 238.80882263183594 244.88221740722656 166.70159912109375 C 238.1350860595703 232.35330200195312 252.7201690673828 286.6362609863281 254.56715393066406 296.7508544921875 C 252.88446044921875 245.4065399169922 268.1462707519531 223.70919799804688 213.2425994873047 252.3112335205078" stroke-width="2.109975576400757" fill="none" stroke="rgb(0, 0, 0)" stroke-opacity="0.07729973" stroke-linecap="round" stroke-linejoin="round"/>
    <path d="M 216.54209899902344 469.91009521484375 C 202.80499267578125 360.2278747558594 263.4358825683594 427.8693542480469 210.8925018310547 390.73138427734375 C 166.02871704101562 397.8833923339844 177.2658233642578 468.45111083984375 200.65121459960938 499.1866455078125 C 169.65309143066406 541.8882446289062 160.82516479492188 588.7471313476562 207.69882202148438 537.7661743164062 C 132.76272583007812 506.3623352050781 72.4262466430664 534.038330078125 113.36115264892578 517.8786010742188" stroke-width="8.068160057067871" fill="none" stroke="rgb(0, 0, 0)" stroke-opacity="0.19014753" stroke-linecap="round" stroke-linejoin="round"/>
    <path d="M -2.0063514709472656 352.3003845214844 C 2.5335536003112793 385.4385986328125 -21.020849227905273 426.9427795410156 41.535579681396484 467.2304992675781 C 40.3255729675293 526.5432739257812 54.34926223754883 520.2352905273438 58.77724075317383 488.4283142089844 C 71.57955169677734 482.9031982421875 125.74088287353516 475.1784973144531 109.17078399658203 500.19927978515625 C 100.10527801513672 499.2497253417969 137.3263397216797 497.0892028808594 186.6190643310547 488.4939880371094" stroke-width="2.0" fill="none" stroke="rgb(0, 0, 0)" stroke-opacity="0.09215114" stroke-linecap="round" stroke-linejoin="round"/>
    <path d="M 113.89889526367188 548.4610595703125 C 126.221435546875 475.0264587402344 102.49098205566406 489.7137451171875 127.82859802246094 507.9227294921875 C 100.43556213378906 539.5903930664062 94.87914276123047 538.5421142578125 121.9714126586914 507.9900817871094 C 116.11294555664062 479.8848571777344 104.5782241821289 492.19677734375 122.85235595703125 509.6562194824219 C 98.59375 526.9583129882812 99.14895629882812 524.0043334960938 104.38790893554688 507.175537109375" stroke-width="7.653210163116455" fill="none" stroke="rgb(0, 0, 0)" stroke-opacity="0.30497628" stroke-linecap="round" stroke-linejoin="round"/>
    <path d="M 376.4226989746094 48.642459869384766 C 411.7038269042969 75.18220520019531 417.4789733886719 103.41361999511719 437.3055419921875 99.66764068603516 C 371.9053649902344 64.19482421875 409.201416015625 64.00282287597656 426.26220703125 53.724876403808594 C 445.86444091796875 66.49983978271484 419.6897277832031 64.743408203125 377.3085021972656 55.891822814941406 C 331.0215759277344 48.44807052612305 349.0198059082031 60.51455307006836 404.8124694824219 51.80745315551758" stroke-width="2.5757057666778564" fill="none" stroke="rgb(0, 0, 0)" stroke-opacity="0.13750817" stroke-linecap="round" stroke-linejoin="round"/>
    <path d="M 491.90252685546875 548.8848876953125 C 485.43170166015625 532.1074829101562 506.69439697265625 558.8434448242188 446.72161865234375 544.4768676757812 C 437.7701721191406 574.789794921875 449.15826416015625 567.540771484375 444.1659240722656 562.7035522460938 C 460.4187927246094 589.972412109375 457.9056091308594 599.0925903320312 438.7449035644531 629.1730346679688 C 462.5648498535156 651.0603637695312 481.890380859375 650.6210327148438 474.53619384765625 603.8925170898438" stroke-width="2.00179386138916" fill="none" stroke="rgb(0, 0, 0)" stroke-opacity="0.9837323" stroke-linecap="round" stroke-linejoin="round"/>
    <path d="M 554.872802734375 159.57659912109375 C 544.4138793945312 127.82213592529297 561.6680297851562 122.22539520263672 523.5394287109375 73.48311614990234 C 471.09033203125 66.25457763671875 515.762451171875 48.17863845825195 495.510986328125 54.42582702636719 C 534.2567749023438 73.43258666992188 580.8130493164062 90.23463439941406 557.4606323242188 52.453853607177734 C 547.9598388671875 46.04580307006836 484.4445495605469 17.550106048583984 501.7230224609375 53.43067932128906" stroke-width="2.198727607727051" fill="none" stroke="rgb(0, 0, 0)" stroke-opacity="0.8758434" stroke-linecap="round" stroke-linejoin="round"/>
    <path d="M 593.8374633789062 207.37997436523438 C 599.6092529296875 247.71377563476562 587.3287353515625 223.10101318359375 582.3130493164062 196.81248474121094 C 599.5255126953125 265.1368103027344 582.525390625 258.80035400390625 574.5695190429688 227.70025634765625 C 618.6636962890625 229.74948120117188 590.001220703125 257.9901428222656 568.1375122070312 204.453857421875 C 576.739013671875 239.5640106201172 591.6727294921875 220.92784118652344 581.6303100585938 253.14125061035156" stroke-width="8.188931465148926" fill="none" stroke="rgb(0, 0, 0)" stroke-opacity="0.401663" stroke-linecap="round" stroke-linejoin="round"/>
    <path d="M 66.11540985107422 236.16278076171875 C 82.19112396240234 198.9299774169922 51.686119079589844 164.68264770507812 117.12264251708984 157.78858947753906 C 85.22454071044922 169.79664611816406 81.82918548583984 202.83828735351562 83.88133239746094 185.87876892089844 C 66.65245819091797 240.135009765625 83.23253631591797 211.7134552001953 106.27806091308594 155.14675903320312 C 187.78797912597656 157.40505981445312 192.10243225097656 166.71676635742188 84.02836608886719 157.14328002929688" stroke-width="11.99393367767334" fill="none" stroke="rgb(0, 0, 0)" stroke-opacity="0.36424723" stroke-linecap="round" stroke-linejoin="round"/>
    <path d="M 206.5232391357422 16.381362915039062 C 227.82887268066406 30.927087783813477 263.8819580078125 41.43300247192383 269.762451171875 8.90695858001709 C 376.1601257324219 32.79973220825195 340.5287780761719 -25.83765983581543 272.6515197753906 13.63707160949707 C 232.82699584960938 15.318083763122559 215.59169006347656 23.10772132873535 233.82125854492188 30.518735885620117 C 277.1767883300781 12.681391716003418 267.0556640625 7.308019638061523 307.39654541015625 22.465553283691406" stroke-width="6.733314514160156" fill="none" stroke="rgb(0, 0, 0)" stroke-opacity="0.35521176" stroke-linecap="round" stroke-linejoin="round"/>
    <path d="M 213.63711547851562 520.9091186523438 C 195.8521270751953 596.5322875976562 190.14886474609375 574.7662963867188 141.8685302734375 584.4042358398438 C 144.9582061767578 632.5636596679688 144.87942504882812 688.795654296875 169.43673706054688 718.8938598632812 C 191.55410766601562 627.4039306640625 210.6156005859375 635.6611938476562 213.18869018554688 633.0260620117188 C 186.09373474121094 612.2266845703125 193.05374145507812 589.3897094726562 194.48028564453125 623.5493774414062" stroke-width="2.440492630004883" fill="none" stroke="rgb(0, 0, 0)" stroke-opacity="1.0" stroke-linecap="round" stroke-linejoin="round"/>
    <path d="M 159.31723022460938 73.5845947265625 C 214.29818725585938 26.78337287902832 196.90989685058594 33.39862060546875 250.95111083984375 8.425084114074707 C 218.8878631591797 26.325538635253906 204.77598571777344 29.790054321289062 202.0084228515625 44.338836669921875 C 196.18817138671875 37.456275939941406 161.7168426513672 53.04634094238281 159.36448669433594 7.236814498901367 C 165.43710327148438 -52.23884201049805 167.1668701171875 -15.893634796142578 166.9903564453125 -26.052465438842773" stroke-width="2.2213134765625" fill="none" stroke="rgb(0, 0, 0)" stroke-opacity="0.18712628" stroke-linecap="round" stroke-linejoin="round"/>
    <path d="M 521.8636474609375 46.29859924316406 C 570.5177612304688 71.12518310546875 602.8095092773438 70.28175354003906 580.5267944335938 48.366661071777344 C 608.0324096679688 54.23944854736328 650.8558959960938 45.43600082397461 649.5274047851562 61.48545455932617 C 570.2935180664062 57.18362045288086 563.0829467773438 81.69390106201172 618.9380493164062 62.78837585449219 C 615.7523193359375 73.5170669555664 611.2334594726562 91.28117370605469 561.9744262695312 74.9312973022461" stroke-width="7.946076393127441" fill="none" stroke="rgb(0, 0, 0)" stroke-opacity="0.80821973" stroke-linecap="round" stroke-linejoin="round"/>
    <path d="M 481.6785583496094 412.26171875 C 501.5344543457031 375.5469970703125 509.95184326171875 413.605712890625 506.0250549316406 377.198486328125 C 501.35980224609375 410.5384216308594 487.5751647949219 425.0681457519531 498.2821044921875 396.6854248046875 C 477.6423034667969 439.5442810058594 484.3999938964844 495.46002197265625 427.960693359375 455.8275451660156 C 485.3916015625 415.7511901855469 553.9475708007812 455.5320129394531 545.1384887695312 336.0994873046875" stroke-width="11.012483596801758" fill="none" stroke="rgb(0, 0, 0)" stroke-opacity="0.32601094" stroke-linecap="round" stroke-linejoin="round"/>
    <path d="M 568.3955688476562 174.8549041748047 C 564.9782104492188 193.5380401611328 585.4049072265625 263.6633605957031 583.688232421875 261.98760986328125 C 627.0955810546875 225.7852325439453 605.0390625 221.42562866210938 565.6676635742188 295.416748046875 C 598.9747314453125 259.1983337402344 590.7161254882812 226.1123046875 587.046630859375 165.69674682617188 C 576.7449340820312 203.7714080810547 594.782470703125 200.50692749023438 578.8736572265625 136.5894317626953" stroke-width="12.0" fill="none" stroke="rgb(0, 0, 0)" stroke-opacity="0.8168655" stroke-linecap="round" stroke-linejoin="round"/>
    <path d="M 359.15325927734375 601.1655883789062 C 329.80108642578125 598.7730102539062 371.5165100097656 566.2597045898438 360.1773376464844 538.132080078125 C 378.3288269042969 562.0772705078125 363.8031005859375 562.184326171875 357.36956787109375 518.0313110351562 C 356.65655517578125 561.0874633789062 353.4010314941406 539.307861328125 364.35040283203125 509.00042724609375 C 355.8671875 563.8124389648438 367.6440734863281 571.9315185546875 370.4643249511719 550.8597412109375" stroke-width="2.0" fill="none" stroke="rgb(0, 0, 0)" stroke-opacity="0.31221128" stroke-linecap="round" stroke-linejoin="round"/>
    <path d="M 183.70156860351562 64.77448272705078 C 213.11370849609375 -50.30048370361328 212.0999298095703 39.272132873535156 235.73536682128906 59.54450225830078 C 212.96234130859375 28.64029884338379 239.76846313476562 81.53411865234375 228.50746154785156 68.84774017333984 C 222.15252685546875 41.3797721862793 223.68145751953125 24.30378532409668 228.89894104003906 69.81497955322266 C 175.62655639648438 168.72023010253906 226.16412353515625 154.78297424316406 231.42738342285156 78.25042724609375" stroke-width="4.328578472137451" fill="none" stroke="rgb(0, 0, 0)" stroke-opacity="0.73072964" stroke-linecap="round" stroke-linejoin="round"/>
    <path d="M 251.935302734375 375.4939270019531 C 205.57574462890625 501.1448974609375 211.08615112304688 503.5303955078125 217.5033416748047 513.552978515625 C 199.08096313476562 447.0367126464844 192.0540313720703 457.1517639160156 173.42771911621094 469.7981872558594 C 240.9887237548828 482.7516174316406 226.7463836669922 466.09033203125 175.50927734375 469.0888671875 C 190.4374542236328 494.27001953125 211.58294677734375 471.7156677246094 174.13027954101562 531.049560546875" stroke-width="8.748034477233887" fill="none" stroke="rgb(0, 0, 0)" stroke-opacity="0.4943771" stroke-linecap="round" stroke-linejoin="round"/>
    <path d="M 338.6134948730469 618.6415405273438 C 381.84881591796875 629.5910034179688 399.1113586425781 652.7935791015625 398.6866149902344 586.98486328125 C 367.47698974609375 577.698486328125 354.4133605957031 568.666259765625 376.1512756347656 518.6248779296875 C 348.93524169921875 472.9593505859375 368.29547119140625 511.5740966796875 339.0401611328125 499.12237548828125 C 384.009765625 519.4220581054688 376.0484924316406 572.29638671875 380.1618347167969 593.7291870117188" stroke-width="2.0" fill="none" stroke="rgb(0, 0, 0)" stroke-opacity="0.17386271" stroke-linecap="round" stroke-linejoin="round"/>
    <path d="M 609.1644897460938 393.8587951660156 C 606.0723266601562 387.1155090332031 619.5943603515625 412.6538391113281 629.08642578125 394.97564697265625 C 602.805908203125 383.1460876464844 601.6611938476562 398.06988525390625 730.6216430664062 283.31585693359375 C 689.435546875 300.4173889160156 645.3919067382812 329.30572509765625 553.3544311523438 324.1300354003906 C 541.5662841796875 352.2947082519531 560.659912109375 316.5233154296875 542.7941284179688 391.70513916015625" stroke-width="2.0" fill="none" stroke="rgb(0, 0, 0)" stroke-opacity="0.37188277" stroke-linecap="round" stroke-linejoin="round"/>
    <path d="M 67.16048431396484 90.07411193847656 C 102.9031982421875 143.10472106933594 132.5155487060547 149.4517364501953 143.5104522705078 141.2557373046875 C 172.29165649414062 89.2115478515625 202.61416625976562 64.52252960205078 142.7396697998047 80.70696258544922 C 160.02455139160156 120.58191680908203 204.64776611328125 183.98048400878906 180.9871826171875 166.16542053222656 C 144.04335021972656 137.93409729003906 190.93283081054688 149.06761169433594 208.50665283203125 86.4118423461914" stroke-width="11.474494934082031" fill="none" stroke="rgb(0, 0, 0)" stroke-opacity="0.5587987" stroke-linecap="round" stroke-linejoin="round"/>
    <path d="M 428.6807556152344 639.1298828125 C 414.05841064453125 587.7279663085938 428.1844177246094 513.4733276367188 423.3994445800781 473.3033142089844 C 480.19879150390625 520.6859130859375 439.639892578125 514.7322387695312 437.47857666015625 602.1665649414062 C 435.13287353515625 583.6703491210938 430.4147644042969 586.78173828125 354.49224853515625 571.8943481445312 C 371.2927551269531 613.1300048828125 369.9299011230469 612.3129272460938 375.5774841308594 648.7265014648438" stroke-width="10.737998008728027" fill="none" stroke="rgb(0, 0, 0)" stroke-opacity="0.1321219" stroke-linecap="round" stroke-linejoin="round"/>
    <path d="M 213.63711547851562 520.9091186523438 C 195.8521270751953 596.5322875976562 190.14886474609375 574.7662963867188 141.8685302734375 584.4042358398438 C 144.9582061767578 632.5636596679688 144.87942504882812 688.795654296875 169.43673706054688 718.8938598632812 C 191.55410766601562 627.4039306640625 210.6156005859375 635.6611938476562 213.18869018554688 633.0260620117188 C 186.09373474121094 612.2266845703125 193.05374145507812 589.3897094726562 194.48028564453125 623.5493774414062" stroke-width="2.440492630004883" fill="none" stroke="rgb(0, 0, 0)" stroke-opacity="1.0" stroke-linecap="round" stroke-linejoin="round"/>
    <path d="M 363.229736328125 615.6588134765625 C 362.3488464355469 547.9194946289062 365.6447448730469 521.4658203125 362.23748779296875 450.6479187011719 C 342.0557556152344 444.363037109375 368.45892333984375 520.7315673828125 372.80731201171875 561.5552978515625 C 357.9091491699219 512.1094970703125 317.91729736328125 463.53985595703125 331.0538024902344 424.86041259765625 C 344.097900390625 369.84228515625 382.1803283691406 442.24761962890625 368.401123046875 554.301513671875" stroke-width="8.032974243164062" fill="none" stroke="rgb(0, 0, 0)" stroke-opacity="0.93817943" stroke-linecap="round" stroke-linejoin="round"/>
    <path d="M 135.49008178710938 94.67119598388672 C 110.6043472290039 116.15199279785156 168.87159729003906 120.04949951171875 162.88427734375 74.26344299316406 C 112.04581451416016 42.98781204223633 144.39649963378906 42.5250244140625 196.31649780273438 31.0439510345459 C 194.33213806152344 -18.295896530151367 237.79164123535156 20.153104782104492 158.1309356689453 74.5566177368164 C 146.1505126953125 111.13589477539062 160.6718292236328 69.2402114868164 138.86000061035156 105.7411117553711" stroke-width="3.4298086166381836" fill="none" stroke="rgb(0, 0, 0)" stroke-opacity="0.4037939" stroke-linecap="round" stroke-linejoin="round"/>
    <path d="M 213.63711547851562 520.9091186523438 C 195.8521270751953 596.5322875976562 190.14886474609375 574.7662963867188 141.8685302734375 584.4042358398438 C 144.9582061767578 632.5636596679688 144.87942504882812 688.795654296875 169.43673706054688 718.8938598632812 C 191.55410766601562 627.4039306640625 210.6156005859375 635.6611938476562 213.18869018554688 633.0260620117188 C 186.09373474121094 612.2266845703125 193.05374145507812 589.3897094726562 194.48028564453125 623.5493774414062" stroke-width="2.440492630004883" fill="none" stroke="rgb(0, 0, 0)" stroke-opacity="1.0" stroke-linecap="round" stroke-linejoin="round"/>
    <path d="M 371.08154296875 463.737060546875 C 358.56732177734375 450.7549743652344 317.8458557128906 501.5545349121094 336.0936279296875 433.66815185546875 C 284.9261779785156 382.0357666015625 320.5796203613281 425.05694580078125 342.6949768066406 472.5963439941406 C 340.4131164550781 470.71148681640625 372.6873779296875 454.58245849609375 328.0517578125 413.022705078125 C 313.44244384765625 435.6268615722656 294.1532287597656 450.6773681640625 359.61566162109375 461.83074951171875" stroke-width="6.570803642272949" fill="none" stroke="rgb(0, 0, 0)" stroke-opacity="0.9776117" stroke-linecap="round" stroke-linejoin="round"/>
    <path d="M 340.062255859375 39.445030212402344 C 307.3458251953125 108.91856384277344 281.32489013671875 119.03814697265625 300.1884460449219 67.60655975341797 C 352.7309875488281 47.77065658569336 350.7531433105469 79.75691223144531 373.8063659667969 130.77650451660156 C 369.69268798828125 131.9062042236328 350.2905578613281 119.82789611816406 314.68182373046875 45.87190246582031 C 326.3844909667969 34.86903762817383 393.1119079589844 61.27872848510742 399.7746276855469 96.55440521240234" stroke-width="2.034047842025757" fill="none" stroke="rgb(0, 0, 0)" stroke-opacity="0.33563563" stroke-linecap="round" stroke-linejoin="round"/>
    <path d="M 367.8296203613281 81.54744720458984 C 353.65789794921875 56.84255599975586 378.56103515625 36.79636764526367 412.2994079589844 77.52068328857422 C 415.3106384277344 66.99705505371094 406.60931396484375 66.5565185546875 361.1578674316406 51.83213806152344 C 330.4056396484375 19.23651123046875 314.5783386230469 71.34537506103516 304.7352294921875 40.16220474243164 C 360.85186767578125 48.67183303833008 403.68646240234375 51.78365707397461 382.8884582519531 62.388484954833984" stroke-width="9.777796745300293" fill="none" stroke="rgb(0, 0, 0)" stroke-opacity="0.87660956" stroke-linecap="round" stroke-linejoin="round"/>
    <path d="M 166.13026428222656 85.49813079833984 C 133.2405548095703 59.85608673095703 134.89413452148438 99.62590026855469 150.91761779785156 66.86479949951172 C 148.22955322265625 78.33006286621094 126.7771987915039 90.90081787109375 167.0978546142578 83.14169311523438 C 137.99859619140625 92.18121337890625 100.23616790771484 172.2478790283203 79.22518157958984 120.63397216796875 C 111.06775665283203 112.52685546875 100.9135513305664 99.56159973144531 154.07052612304688 67.69766235351562" stroke-width="3.7572853565216064" fill="none" stroke="rgb(0, 0, 0)" stroke-opacity="0.49500176" stroke-linecap="round" stroke-linejoin="round"/>
    <path d="M 539.477783203125 91.89893341064453 C 582.1122436523438 150.5226287841797 557.9923095703125 173.6328582763672 562.184814453125 143.4373016357422 C 579.4598999023438 207.030517578125 549.95751953125 159.04774475097656 551.0775146484375 95.08218383789062 C 584.0005493164062 106.87910461425781 567.4259033203125 120.56664276123047 580.191650390625 149.57354736328125 C 577.0611572265625 152.786376953125 582.7244262695312 164.9143524169922 577.0353393554688 132.80032348632812" stroke-width="9.139389038085938" fill="none" stroke="rgb(0, 0, 0)" stroke-opacity="0.69140327" stroke-linecap="round" stroke-linejoin="round"/>
    <path d="M 241.42274475097656 260.14825439453125 C 229.61431884765625 280.4303283691406 257.3217468261719 285.1822814941406 212.76290893554688 285.4691467285156 C 225.11965942382812 333.5404052734375 216.02093505859375 313.197265625 222.8952178955078 257.97052001953125 C 254.62628173828125 234.1589813232422 242.46798706054688 252.3951416015625 251.8695068359375 307.3831481933594 C 235.5877227783203 219.07774353027344 279.2181396484375 228.77767944335938 252.6106719970703 172.4934539794922" stroke-width="7.241748809814453" fill="none" stroke="rgb(0, 0, 0)" stroke-opacity="0.8118736" stroke-linecap="round" stroke-linejoin="round"/>
    <path d="M 213.63711547851562 520.9091186523438 C 195.8521270751953 596.5322875976562 190.14886474609375 574.7662963867188 141.8685302734375 584.4042358398438 C 144.9582061767578 632.5636596679688 144.87942504882812 688.795654296875 169.43673706054688 718.8938598632812 C 191.55410766601562 627.4039306640625 210.6156005859375 635.6611938476562 213.18869018554688 633.0260620117188 C 186.09373474121094 612.2266845703125 193.05374145507812 589.3897094726562 194.48028564453125 623.5493774414062" stroke-width="2.440492630004883" fill="none" stroke="rgb(0, 0, 0)" stroke-opacity="1.0" stroke-linecap="round" stroke-linejoin="round"/>
    <path d="M -2.6262366771698 356.8564453125 C -19.721506118774414 362.64923095703125 -39.009910583496094 376.2610168457031 -10.347198486328125 380.8699951171875 C -19.19561767578125 391.5489196777344 -23.397441864013672 392.6891784667969 -34.65823745727539 319.3125305175781 C 37.84292221069336 275.61334228515625 84.07640838623047 269.61334228515625 81.01905059814453 316.3598327636719 C 114.61800384521484 367.0098571777344 119.2943115234375 378.5050964355469 131.2941436767578 473.54486083984375" stroke-width="2.0" fill="none" stroke="rgb(0, 0, 0)" stroke-opacity="0.7010148" stroke-linecap="round" stroke-linejoin="round"/>
    <path d="M 448.263427734375 36.115516662597656 C 486.15472412109375 33.62825393676758 502.1207275390625 52.072044372558594 474.21954345703125 46.312469482421875 C 470.2548828125 40.5853385925293 435.1719055175781 23.323476791381836 481.256591796875 44.23294448852539 C 514.2449340820312 12.75119686126709 501.00543212890625 30.75886344909668 480.7558288574219 44.09981155395508 C 462.2120361328125 40.07525634765625 423.8773498535156 32.14105224609375 439.8140869140625 34.19933319091797" stroke-width="6.803045749664307" fill="none" stroke="rgb(0, 0, 0)" stroke-opacity="0.30826744" stroke-linecap="round" stroke-linejoin="round"/>
    <path d="M 444.1460266113281 474.33538818359375 C 443.6382141113281 455.38714599609375 416.7647705078125 432.7366943359375 497.5513916015625 450.4504089355469 C 480.410400390625 512.6951904296875 452.92254638671875 539.8557739257812 460.4803771972656 490.69818115234375 C 457.2685852050781 483.60076904296875 443.68511962890625 476.12200927734375 452.4469299316406 502.2589111328125 C 489.993896484375 480.9648132324219 485.2279052734375 467.4850158691406 497.45916748046875 431.5209655761719" stroke-width="7.559698104858398" fill="none" stroke="rgb(0, 0, 0)" stroke-opacity="0.7721581" stroke-linecap="round" stroke-linejoin="round"/>
    <path d="M 115.18389129638672 51.60779571533203 C 127.26827239990234 93.60513305664062 157.5240478515625 150.9220428466797 177.8043975830078 71.51299285888672 C 75.25980377197266 29.908369064331055 101.80207061767578 33.37882614135742 77.80184173583984 65.28327941894531 C 32.0345344543457 57.24364471435547 41.983909606933594 80.26722717285156 26.02896499633789 56.85987091064453 C 16.97276496887207 104.61136627197266 55.220314025878906 147.88873291015625 23.472126007080078 84.0535659790039" stroke-width="2.0" fill="none" stroke="rgb(0, 0, 0)" stroke-opacity="0.14494945" stroke-linecap="round" stroke-linejoin="round"/>
    <path d="M 430.1463623046875 10.015998840332031 C 509.8849792480469 37.437679290771484 492.32861328125 33.3629264831543 471.1846618652344 22.03912353515625 C 485.09210205078125 35.232295989990234 423.5762939453125 34.09455490112305 329.7786865234375 11.500519752502441 C 372.21539306640625 -22.618398666381836 373.1556091308594 -35.14154815673828 395.3519592285156 -28.86675262451172 C 385.4217529296875 -17.451082229614258 363.7438659667969 -4.144885063171387 361.10662841796875 -21.062898635864258" stroke-width="9.958281517028809" fill="none" stroke="rgb(0, 0, 0)" stroke-opacity="0.20377454" stroke-linecap="round" stroke-linejoin="round"/>
    <path d="M 373.4366149902344 228.2118377685547 C 362.35662841796875 255.48939514160156 352.8912353515625 243.3123321533203 389.79901123046875 242.0541534423828 C 397.16748046875 289.7203369140625 406.7659912109375 224.9070281982422 408.60968017578125 181.86863708496094 C 423.4426574707031 205.3906707763672 412.8451232910156 247.27413940429688 396.9024963378906 220.7925567626953 C 417.0273742675781 208.35562133789062 404.08203125 155.87742614746094 417.1368408203125 190.84124755859375" stroke-width="11.042492866516113" fill="none" stroke="rgb(0, 0, 0)" stroke-opacity="0.29010248" stroke-linecap="round" stroke-linejoin="round"/>
    <path d="M 385.3821105957031 -4.524263858795166 C 366.9992980957031 -3.79978084564209 351.95166015625 -9.278596878051758 339.51483154296875 13.078402519226074 C 347.5666198730469 23.884593963623047 387.3580627441406 -5.902255535125732 397.72412109375 13.225472450256348 C 443.3601989746094 25.959070205688477 417.89178466796875 10.529509544372559 410.4194030761719 6.5572285652160645 C 411.0298767089844 16.68655776977539 394.47430419921875 15.93746566772461 363.2051086425781 11.810455322265625" stroke-width="9.742734909057617" fill="none" stroke="rgb(0, 0, 0)" stroke-opacity="0.41272202" stroke-linecap="round" stroke-linejoin="round"/>
    <path d="M 179.26055908203125 191.13169860839844 C 187.85763549804688 40.740970611572266 163.1370391845703 55.530174255371094 145.11419677734375 107.66703033447266 C 95.85186004638672 92.25576782226562 132.59046936035156 105.85630798339844 196.34291076660156 158.05908203125 C 217.3329315185547 232.62432861328125 192.37445068359375 169.87767028808594 175.8221435546875 143.16444396972656 C 178.65606689453125 147.34645080566406 212.7472381591797 184.1986846923828 251.11477661132812 199.37722778320312" stroke-width="7.7530198097229" fill="none" stroke="rgb(0, 0, 0)" stroke-opacity="0.85033613" stroke-linecap="round" stroke-linejoin="round"/>
    <path d="M 399.738037109375 370.1553039550781 C 474.5021057128906 368.4173278808594 448.96826171875 323.2979736328125 411.46356201171875 393.4184265136719 C 415.1882629394531 347.6916198730469 354.4501953125 346.82830810546875 355.3878479003906 398.86798095703125 C 386.7556457519531 335.2836608886719 392.4490661621094 376.4319763183594 389.6168212890625 319.5533752441406 C 382.7534484863281 322.36468505859375 393.8327941894531 411.8033447265625 326.50238037109375 354.3563232421875" stroke-width="10.435300827026367" fill="none" stroke="rgb(0, 0, 0)" stroke-opacity="0.98831236" stroke-linecap="round" stroke-linejoin="round"/>
    <path d="M 150.83551025390625 236.73458862304688 C 147.00665283203125 205.84413146972656 134.31419372558594 217.24630737304688 159.49368286132812 94.81896209716797 C 95.5019302368164 171.29661560058594 124.78460693359375 258.8545227050781 147.68971252441406 146.8785858154297 C 91.65808868408203 144.71324157714844 47.304725646972656 184.35113525390625 127.67340850830078 152.19215393066406 C 124.1661376953125 253.7611846923828 116.00383758544922 241.02099609375 129.1330108642578 234.43487548828125" stroke-width="11.449371337890625" fill="none" stroke="rgb(0, 0, 0)" stroke-opacity="0.6227843" stroke-linecap="round" stroke-linejoin="round"/>
    <path d="M 465.11505126953125 125.26688385009766 C 464.68194580078125 142.95619201660156 462.3367614746094 126.90807342529297 478.36224365234375 148.78741455078125 C 472.3620910644531 139.0207061767578 459.87689208984375 98.6494369506836 470.4757080078125 136.822509765625 C 452.318359375 113.19120025634766 429.1282653808594 93.9309310913086 453.3000183105469 106.79908752441406 C 462.9931640625 122.19920349121094 449.849365234375 107.1948013305664 412.57513427734375 76.7223892211914" stroke-width="9.088083267211914" fill="none" stroke="rgb(0, 0, 0)" stroke-opacity="0.93232894" stroke-linecap="round" stroke-linejoin="round"/>
    <path d="M 538.116943359375 59.93267822265625 C 545.9148559570312 71.56411743164062 567.0931396484375 82.23949432373047 567.9840698242188 64.06605529785156 C 522.50390625 49.040916442871094 505.4991760253906 37.21314239501953 488.4633483886719 29.36471176147461 C 532.0115356445312 53.316646575927734 570.3781127929688 67.18623352050781 537.9163208007812 67.72079467773438 C 508.364990234375 50.464237213134766 480.6839904785156 43.190982818603516 492.220947265625 47.42085266113281" stroke-width="6.976123809814453" fill="none" stroke="rgb(0, 0, 0)" stroke-opacity="0.44558632" stroke-linecap="round" stroke-linejoin="round"/>
    <path d="M 141.3266143798828 538.4174194335938 C 157.47923278808594 568.76123046875 135.57313537597656 608.7427978515625 122.60785675048828 675.6488647460938 C 133.49771118164062 668.9091796875 139.44921875 685.0159912109375 143.67166137695312 584.6869506835938 C 105.96781921386719 569.81298828125 126.43687438964844 532.4727172851562 137.59640502929688 558.02392578125 C 134.6332550048828 552.0665283203125 129.1338653564453 562.159912109375 140.14633178710938 573.8298950195312" stroke-width="2.4612224102020264" fill="none" stroke="rgb(0, 0, 0)" stroke-opacity="0.6987935" stroke-linecap="round" stroke-linejoin="round"/>
    <path d="M 114.6106948852539 544.595703125 C 95.13737487792969 495.1203918457031 107.8816909790039 530.3143920898438 146.24920654296875 527.8858032226562 C 134.1949920654297 572.3137817382812 138.59896850585938 572.2944946289062 149.96775817871094 557.3584594726562 C 108.31298065185547 554.6969604492188 141.00582885742188 522.1190795898438 207.09927368164062 515.218017578125 C 184.14620971679688 569.2858276367188 149.9339141845703 494.9134826660156 197.35421752929688 509.23455810546875" stroke-width="12.0" fill="none" stroke="rgb(0, 0, 0)" stroke-opacity="0.3896196" stroke-linecap="round" stroke-linejoin="round"/>
    <path d="M 109.68656158447266 415.0266418457031 C 117.84947967529297 371.0732727050781 89.48206329345703 357.578857421875 84.4052734375 302.456787109375 C 58.68251037597656 283.6434631347656 51.57183837890625 250.61119079589844 65.84037017822266 294.30206298828125 C 84.43254852294922 311.7354736328125 85.72560119628906 289.931396484375 53.0885009765625 280.6360778808594 C 60.26027297973633 264.7153625488281 78.39312744140625 280.3723449707031 107.07225036621094 353.71710205078125" stroke-width="9.563140869140625" fill="none" stroke="rgb(0, 0, 0)" stroke-opacity="0.66896266" stroke-linecap="round" stroke-linejoin="round"/>
    <path d="M 389.40338134765625 252.6580352783203 C 410.1741943359375 217.78675842285156 415.78582763671875 230.73855590820312 424.5067138671875 224.65707397460938 C 422.4502258300781 191.77105712890625 446.4362487792969 233.65931701660156 454.5519714355469 231.78005981445312 C 442.2998046875 227.1807861328125 442.5924987792969 225.5469512939453 446.09228515625 226.76121520996094 C 451.8974609375 232.00050354003906 452.29278564453125 225.3740234375 454.4305419921875 232.97181701660156" stroke-width="2.0" fill="none" stroke="rgb(0, 0, 0)" stroke-opacity="0.5528952" stroke-linecap="round" stroke-linejoin="round"/>
    <path d="M 475.1651916503906 648.98828125 C 441.44830322265625 631.27001953125 407.13018798828125 571.401611328125 446.8641052246094 584.78271484375 C 440.8905944824219 676.0437622070312 390.7181091308594 597.0703735351562 427.5601501464844 586.302001953125 C 427.4695129394531 603.0579223632812 409.5858154296875 612.286376953125 442.8954162597656 587.3594970703125 C 423.9344177246094 556.6592407226562 419.3785705566406 565.8753662109375 447.78662109375 462.4825744628906" stroke-width="11.413469314575195" fill="none" stroke="rgb(0, 0, 0)" stroke-opacity="0.81570905" stroke-linecap="round" stroke-linejoin="round"/>
    <path d="M 61.41092300415039 77.38848876953125 C 89.19557189941406 126.96746063232422 113.59329986572266 186.83004760742188 59.767887115478516 132.09237670898438 C 10.877018928527832 101.25643920898438 13.390326499938965 -3.9101927280426025 40.363494873046875 55.28960037231445 C 74.4046630859375 89.00122833251953 108.14883422851562 102.54475402832031 121.78522491455078 132.4022979736328 C 91.86785888671875 169.05252075195312 75.58587646484375 217.03846740722656 117.12118530273438 156.2563934326172" stroke-width="4.651804447174072" fill="none" stroke="rgb(0, 0, 0)" stroke-opacity="0.32202935" stroke-linecap="round" stroke-linejoin="round"/>
    <path d="M 339.7375183105469 390.59002685546875 C 349.77679443359375 475.23016357421875 342.5772399902344 502.0074462890625 359.3564147949219 449.6941223144531 C 310.9476013183594 404.94921875 280.0837707519531 397.5908203125 319.5879211425781 401.5196228027344 C 292.0452880859375 411.670654296875 278.1225891113281 366.9800720214844 302.7557373046875 341.69140625 C 322.688720703125 365.2647705078125 322.0966491699219 373.6695556640625 398.3902587890625 359.36444091796875" stroke-width="2.1343271732330322" fill="none" stroke="rgb(0, 0, 0)" stroke-opacity="0.614157" stroke-linecap="round" stroke-linejoin="round"/>
    <path d="M 407.90704345703125 174.1058807373047 C 395.2629089355469 128.280029296875 376.82220458984375 105.71533966064453 379.9620361328125 178.21646118164062 C 390.877685546875 168.1781463623047 381.25848388671875 174.5014190673828 378.38922119140625 221.38375854492188 C 390.5724182128906 160.29696655273438 413.0341491699219 199.88343811035156 398.2231140136719 171.26513671875 C 363.4309997558594 191.41122436523438 380.79559326171875 190.30264282226562 387.34027099609375 189.82070922851562" stroke-width="12.0" fill="none" stroke="rgb(0, 0, 0)" stroke-opacity="0.10041136" stroke-linecap="round" stroke-linejoin="round"/>
    <path d="M 559.9379272460938 -12.758489608764648 C 541.359130859375 -51.536556243896484 532.9857177734375 -40.96834182739258 526.277099609375 -35.685184478759766 C 508.20623779296875 -16.415916442871094 509.9978942871094 -9.650744438171387 487.6866149902344 -27.67513084411621 C 467.80767822265625 -43.627410888671875 458.205810546875 -51.6661262512207 477.5009765625 -63.45199203491211 C 465.2726745605469 -63.24458312988281 488.1164855957031 -44.11431884765625 497.6982116699219 -73.55213165283203" stroke-width="9.75949478149414" fill="none" stroke="rgb(0, 0, 0)" stroke-opacity="0.523146" stroke-linecap="round" stroke-linejoin="round"/>
    <path d="M 271.3455810546875 325.00640869140625 C 262.1634826660156 260.30328369140625 289.4338073730469 223.2040252685547 265.0063171386719 190.1495361328125 C 264.5809326171875 283.3887634277344 264.5960388183594 270.5361022949219 264.0543212890625 248.9654541015625 C 271.6131591796875 296.89727783203125 278.0771484375 273.9172668457031 275.9237976074219 179.5196533203125 C 281.73822021484375 211.30116271972656 287.1746520996094 227.06227111816406 307.03179931640625 310.8134460449219" stroke-width="5.324458122253418" fill="none" stroke="rgb(0, 0, 0)" stroke-opacity="0.384545" stroke-linecap="round" stroke-linejoin="round"/>
    <path d="M 287.4141540527344 214.7386016845703 C 305.32098388671875 272.6197509765625 315.0597839355469 251.00511169433594 331.945068359375 238.97610473632812 C 353.43499755859375 307.41119384765625 299.98974609375 262.8907470703125 312.57861328125 328.9500427246094 C 302.2286682128906 327.0744934082031 296.00775146484375 244.60414123535156 323.52874755859375 203.08702087402344 C 321.3372802734375 289.48907470703125 290.14697265625 361.46185302734375 289.22052001953125 346.92706298828125" stroke-width="12.0" fill="none" stroke="rgb(0, 0, 0)" stroke-opacity="0.1996831" stroke-linecap="round" stroke-linejoin="round"/>
    <path d="M 102.54267883300781 22.89332389831543 C 103.94249725341797 27.79974365234375 128.33724975585938 25.48233985900879 120.3627700805664 25.03509521484375 C 104.9567642211914 45.386505126953125 122.72865295410156 61.04395294189453 116.05819702148438 49.85588073730469 C 112.61575317382812 70.51504516601562 91.46194458007812 54.814697265625 92.00865173339844 71.50665283203125 C 86.8370590209961 66.89041900634766 95.97702026367188 69.37073516845703 90.21076965332031 72.1873779296875" stroke-width="2.0" fill="none" stroke="rgb(0, 0, 0)" stroke-opacity="0.6810177" stroke-linecap="round" stroke-linejoin="round"/>
    <path d="M 215.5911102294922 383.9267883300781 C 170.35202026367188 417.53692626953125 181.93789672851562 423.39129638671875 182.97019958496094 414.4069519042969 C 200.53652954101562 380.9028015136719 173.92620849609375 348.32086181640625 213.3108673095703 403.0417175292969 C 216.44920349121094 400.6371154785156 235.6692352294922 390.324951171875 255.76019287109375 283.9988708496094 C 263.3458251953125 250.5694122314453 191.46192932128906 305.0684814453125 238.25267028808594 262.4004821777344" stroke-width="11.22637939453125" fill="none" stroke="rgb(0, 0, 0)" stroke-opacity="0.7203684" stroke-linecap="round" stroke-linejoin="round"/>
    <path d="M 372.42901611328125 579.8167114257812 C 387.2353515625 619.4613647460938 395.9861145019531 627.349365234375 392.4464111328125 518.7694091796875 C 406.11016845703125 516.2870483398438 380.40887451171875 453.07061767578125 395.69158935546875 414.46392822265625 C 411.0010986328125 451.4022216796875 388.1534423828125 470.1886291503906 392.6407775878906 518.7171020507812 C 399.7249450683594 474.2071533203125 357.41864013671875 536.248291015625 371.12640380859375 490.29296875" stroke-width="6.650449275970459" fill="none" stroke="rgb(0, 0, 0)" stroke-opacity="0.35439715" stroke-linecap="round" stroke-linejoin="round"/>
    <path d="M 457.6734619140625 517.1867065429688 C 449.81787109375 579.7723999023438 425.2702941894531 563.4616088867188 436.09649658203125 577.9154663085938 C 377.2233581542969 583.3113403320312 401.27587890625 594.40673828125 446.0030822753906 582.7781982421875 C 446.4898986816406 500.7480773925781 462.018310546875 518.3782348632812 513.0623168945312 569.9520263671875 C 564.041748046875 551.5013427734375 522.159423828125 590.6699829101562 560.06396484375 566.6856689453125" stroke-width="2.0" fill="none" stroke="rgb(0, 0, 0)" stroke-opacity="0.28161716" stroke-linecap="round" stroke-linejoin="round"/>
    <path d="M 66.53795623779297 303.28802490234375 C 79.55536651611328 301.418212890625 78.75431823730469 299.98651123046875 61.52932357788086 294.3895568847656 C 65.07321166992188 283.72113037109375 65.52436065673828 280.2349853515625 62.069427490234375 272.8190002441406 C 96.08606719970703 299.0006103515625 70.67652893066406 299.83355712890625 51.84688949584961 267.7705078125 C 34.735618591308594 277.4420471191406 58.894737243652344 262.92132568359375 78.02984619140625 198.75839233398438" stroke-width="4.624155044555664" fill="none" stroke="rgb(0, 0, 0)" stroke-opacity="0.5735373" stroke-linecap="round" stroke-linejoin="round"/>
    <path d="M 75.72322845458984 606.268310546875 C 72.10047149658203 605.6533203125 77.66796875 613.1510009765625 88.85759735107422 664.0429077148438 C 70.30439758300781 657.8971557617188 60.52459716796875 597.2991943359375 60.73554229736328 603.2816772460938 C 64.47081756591797 602.467529296875 62.2830696105957 606.1521606445312 70.1707992553711 642.6716918945312 C 63.56221008300781 607.990966796875 70.85376739501953 633.0299682617188 83.62419891357422 654.568603515625" stroke-width="2.0" fill="none" stroke="rgb(0, 0, 0)" stroke-opacity="0.28486896" stroke-linecap="round" stroke-linejoin="round"/>
    <path d="M 213.63711547851562 520.9091186523438 C 195.8521270751953 596.5322875976562 190.14886474609375 574.7662963867188 141.8685302734375 584.4042358398438 C 144.9582061767578 632.5636596679688 144.87942504882812 688.795654296875 169.43673706054688 718.8938598632812 C 191.55410766601562 627.4039306640625 210.6156005859375 635.6611938476562 213.18869018554688 633.0260620117188 C 186.09373474121094 612.2266845703125 193.05374145507812 589.3897094726562 194.48028564453125 623.5493774414062" stroke-width="2.440492630004883" fill="none" stroke="rgb(0, 0, 0)" stroke-opacity="0.34533218" stroke-linecap="round" stroke-linejoin="round"/>
  </g>
</svg>
