<?xml version="1.0" ?>
<svg xmlns="http://www.w3.org/2000/svg" version="1.1" width="600" height="600">
  <defs/>
  <g>
    <path d="M 579.9406127929688 354.83648681640625 C 563.4631958007812 398.4823303222656 551.8885498046875 365.33441162109375 559.4051513671875 381.0052185058594 C 558.5003051757812 306.8984680175781 562.48974609375 304.9306640625 550.7193603515625 324.0761413574219 C 487.5828857421875 359.8537902832031 494.6190185546875 350.79345703125 518.036865234375 402.1907043457031 C 499.8438720703125 392.53973388671875 519.0772094726562 363.11444091796875 503.03216552734375 453.5608215332031" stroke-width="4.3161115646362305" fill="none" stroke="rgb(0, 0, 0)" stroke-opacity="0.6289876" stroke-linecap="round" stroke-linejoin="round"/>
    <path d="M 21.63062286376953 234.88864135742188 C 0.26391109824180603 260.9634094238281 14.240583419799805 210.28060913085938 0.6239349246025085 220.3001708984375 C 5.067131519317627 227.97103881835938 7.9087724685668945 211.29136657714844 10.94216251373291 190.0845947265625 C 28.8963680267334 162.0714569091797 40.14521408081055 158.1781005859375 38.05565643310547 139.3630828857422 C -8.770943641662598 126.36750030517578 -46.821258544921875 156.0388946533203 -78.1350326538086 122.48003387451172" stroke-width="6.627908229827881" fill="none" stroke="rgb(0, 0, 0)" stroke-opacity="0.349356" stroke-linecap="round" stroke-linejoin="round"/>
    <path d="M 584.0809936523438 108.82154846191406 C 533.140380859375 127.6038589477539 562.0899047851562 97.83557891845703 562.4353637695312 93.1859130859375 C 594.5256958007812 96.5992660522461 567.9823608398438 128.56118774414062 565.2778930664062 94.59307861328125 C 620.0248413085938 51.397727966308594 586.7395629882812 28.093843460083008 592.3591918945312 129.45458984375 C 565.8213500976562 161.71371459960938 501.8881530761719 126.18341064453125 478.427734375 93.51667785644531" stroke-width="2.3207545280456543" fill="none" stroke="rgb(0, 0, 0)" stroke-opacity="0.28480965" stroke-linecap="round" stroke-linejoin="round"/>
    <path d="M 117.54759979248047 407.20367431640625 C 117.83900451660156 388.0670166015625 133.99502563476562 391.0226135253906 112.81781005859375 414.9333801269531 C 70.7496109008789 448.2134094238281 10.800137519836426 454.61407470703125 -10.893881797790527 483.3967590332031 C -25.641529083251953 468.048583984375 -33.939334869384766 493.49725341796875 -26.077213287353516 512.443603515625 C -22.382980346679688 534.9325561523438 -1.6467589139938354 566.2929077148438 -6.061034679412842 548.40185546875" stroke-width="2.051079511642456" fill="none" stroke="rgb(0, 0, 0)" stroke-opacity="0.97819185" stroke-linecap="round" stroke-linejoin="round"/>
    <path d="M 152.9716796875 471.3425598144531 C 93.49742126464844 433.31500244140625 121.65009307861328 396.1575012207031 132.65135192871094 333.4585876464844 C 119.79249572753906 394.3323059082031 111.34355926513672 444.2664794921875 120.96770477294922 444.0472412109375 C 97.56327819824219 446.1612854003906 107.83711242675781 429.4194030761719 126.04532623291016 432.6334228515625 C 196.6431121826172 454.5780944824219 167.48976135253906 436.9451904296875 135.19580078125 441.04901123046875" stroke-width="4.068007946014404" fill="none" stroke="rgb(0, 0, 0)" stroke-opacity="0.5916102" stroke-linecap="round" stroke-linejoin="round"/>
    <path d="M 292.2737121582031 523.0478515625 C 289.4951477050781 456.576171875 285.46539306640625 447.2414855957031 287.8827209472656 483.45867919921875 C 286.3572998046875 446.4368896484375 285.6875305175781 462.2168884277344 290.1476135253906 461.4188232421875 C 316.951904296875 450.315673828125 282.3620910644531 454.0824279785156 264.1822204589844 452.6174621582031 C 262.70489501953125 458.34173583984375 263.11053466796875 449.2832336425781 257.16705322265625 415.9237060546875" stroke-width="3.563577651977539" fill="none" stroke="rgb(0, 0, 0)" stroke-opacity="0.37030348" stroke-linecap="round" stroke-linejoin="round"/>
    <path d="M 555.2320556640625 397.5535583496094 C 549.5386962890625 442.0982971191406 640.5516357421875 438.58636474609375 578.2423095703125 386.6811218261719 C 503.5318298339844 385.40301513671875 535.7408447265625 362.370849609375 528.2317504882812 346.7442932128906 C 518.9508666992188 437.71612548828125 513.6718139648438 482.7900390625 497.2287292480469 485.5753479003906 C 522.906982421875 454.5842590332031 516.9169921875 443.26776123046875 483.23443603515625 518.3406372070312" stroke-width="2.9488396644592285" fill="none" stroke="rgb(0, 0, 0)" stroke-opacity="0.23176025" stroke-linecap="round" stroke-linejoin="round"/>
    <path d="M 542.6189575195312 490.4466857910156 C 555.2672119140625 535.0252685546875 552.1362915039062 545.6193237304688 534.0543823242188 432.9334411621094 C 533.3878173828125 442.8905029296875 558.2515258789062 432.3519592285156 582.9898681640625 458.5482177734375 C 593.0075073242188 458.52557373046875 645.7500610351562 441.52862548828125 585.25048828125 524.5309448242188 C 573.0897827148438 466.81201171875 578.7908325195312 408.9908142089844 564.0061645507812 412.5480651855469" stroke-width="4.586511611938477" fill="none" stroke="rgb(0, 0, 0)" stroke-opacity="0.28322732" stroke-linecap="round" stroke-linejoin="round"/>
    <path d="M 505.1724548339844 296.9091491699219 C 543.1046142578125 289.4666442871094 565.47607421875 231.61192321777344 579.5448608398438 238.52359008789062 C 577.5537719726562 333.69317626953125 577.0405883789062 397.22906494140625 571.2174682617188 328.38006591796875 C 573.8678588867188 242.98609924316406 575.5106201171875 233.991455078125 607.1851196289062 205.6707000732422 C 655.0369873046875 245.03564453125 620.5885009765625 273.9342346191406 618.3092041015625 256.4367980957031" stroke-width="5.513736724853516" fill="none" stroke="rgb(0, 0, 0)" stroke-opacity="0.3724029" stroke-linecap="round" stroke-linejoin="round"/>
    <path d="M 184.38900756835938 151.13758850097656 C 195.81295776367188 151.6206817626953 224.8399200439453 123.00531768798828 211.00523376464844 116.7995376586914 C 235.4866180419922 181.97354125976562 223.34835815429688 163.9724578857422 194.85110473632812 75.45417785644531 C 213.30963134765625 82.79915618896484 199.34718322753906 87.79554748535156 203.1839141845703 94.62158203125 C 190.0460205078125 61.2537727355957 255.40538024902344 109.13997650146484 243.7246856689453 151.4713592529297" stroke-width="6.221903324127197" fill="none" stroke="rgb(0, 0, 0)" stroke-opacity="0.5148047" stroke-linecap="round" stroke-linejoin="round"/>
    <path d="M 82.32662200927734 91.59453582763672 C 95.318115234375 70.29146575927734 123.84298706054688 51.42506408691406 152.93235778808594 -5.673718452453613 C 187.62725830078125 -73.9760513305664 206.41253662109375 -108.44532775878906 218.52842712402344 -38.943599700927734 C 183.6162567138672 -18.374454498291016 199.75637817382812 -3.9823622703552246 197.1295166015625 -14.322693824768066 C 165.7000274658203 -22.125694274902344 152.10362243652344 -20.242883682250977 126.13082122802734 -42.28801727294922" stroke-width="5.53038215637207" fill="none" stroke="rgb(0, 0, 0)" stroke-opacity="0.30248764" stroke-linecap="round" stroke-linejoin="round"/>
    <path d="M -7.460689544677734 34.526187896728516 C -10.687771797180176 27.382539749145508 -7.118247985839844 26.712886810302734 5.239323139190674 22.33991050720215 C 7.165773868560791 5.150881767272949 2.9213812351226807 24.980838775634766 8.968685150146484 31.513221740722656 C 25.731212615966797 59.07380294799805 42.407352447509766 73.336669921875 34.97330093383789 158.90185546875 C 56.148311614990234 175.69862365722656 52.71800994873047 165.0791778564453 49.77607345581055 144.21975708007812" stroke-width="2.0" fill="none" stroke="rgb(0, 0, 0)" stroke-opacity="0.49797213" stroke-linecap="round" stroke-linejoin="round"/>
    <path d="M 373.0085754394531 79.78083801269531 C 353.188720703125 71.7125473022461 367.4646301269531 71.6951675415039 401.52862548828125 103.57860565185547 C 386.2563781738281 50.456520080566406 367.8861999511719 95.19331359863281 365.2182312011719 97.79421997070312 C 323.4765930175781 71.99176788330078 342.9794006347656 70.54923248291016 372.2030944824219 101.49563598632812 C 428.6838684082031 110.31009674072266 448.4295959472656 98.48912048339844 480.42828369140625 115.83134460449219" stroke-width="5.001451015472412" fill="none" stroke="rgb(0, 0, 0)" stroke-opacity="0.2779334" stroke-linecap="round" stroke-linejoin="round"/>
    <path d="M 203.8525390625 178.8350830078125 C 152.32456970214844 250.5093536376953 152.62156677246094 232.37176513671875 161.42501831054688 216.09844970703125 C 198.0867156982422 194.2327117919922 147.93045043945312 137.33326721191406 167.62265014648438 203.75274658203125 C 181.0933074951172 159.27218627929688 171.00918579101562 127.24842834472656 176.1958465576172 196.57431030273438 C 220.05979919433594 166.13754272460938 147.9097442626953 171.1827392578125 253.2609405517578 182.10177612304688" stroke-width="10.675421714782715" fill="none" stroke="rgb(0, 0, 0)" stroke-opacity="0.37861624" stroke-linecap="round" stroke-linejoin="round"/>
    <path d="M 523.0027465820312 405.3859558105469 C 553.6512451171875 472.71112060546875 527.6024169921875 457.51519775390625 532.6077270507812 415.75042724609375 C 587.6796875 448.26251220703125 606.4053955078125 464.609619140625 609.158447265625 408.8946838378906 C 596.34326171875 409.4027099609375 566.4949340820312 383.8907470703125 562.023681640625 344.75518798828125 C 553.7501220703125 414.5513000488281 560.2075805664062 415.8948974609375 575.5822143554688 431.2889709472656" stroke-width="6.353309154510498" fill="none" stroke="rgb(0, 0, 0)" stroke-opacity="0.9538747" stroke-linecap="round" stroke-linejoin="round"/>
    <path d="M 586.0199584960938 554.2595825195312 C 582.9087524414062 402.5089416503906 569.5193481445312 405.2342529296875 605.7994384765625 454.17816162109375 C 569.654541015625 427.742919921875 585.4270629882812 411.0318298339844 587.673828125 418.341796875 C 632.4475708007812 432.1416320800781 618.3787231445312 439.4484558105469 611.5438842773438 466.1060485839844 C 601.181884765625 461.7707824707031 597.66845703125 474.1378479003906 600.301025390625 613.1437377929688" stroke-width="11.987994194030762" fill="none" stroke="rgb(0, 0, 0)" stroke-opacity="0.82263505" stroke-linecap="round" stroke-linejoin="round"/>
    <path d="M 104.30599212646484 67.7895736694336 C 74.66800689697266 94.55892944335938 84.9466552734375 89.65020751953125 91.85213470458984 109.05220031738281 C 83.35077667236328 78.77970123291016 86.70824432373047 93.66187286376953 52.68975067138672 131.303466796875 C 58.05306625366211 158.48080444335938 54.966102600097656 152.7904052734375 48.24258041381836 141.46206665039062 C 35.39314270019531 144.7354278564453 39.976844787597656 141.069091796875 50.22334671020508 131.22634887695312" stroke-width="4.744258880615234" fill="none" stroke="rgb(0, 0, 0)" stroke-opacity="0.6660866" stroke-linecap="round" stroke-linejoin="round"/>
    <path d="M 159.03907775878906 436.01190185546875 C 181.61904907226562 494.009765625 214.99911499023438 476.783203125 201.7004852294922 404.48626708984375 C 158.20794677734375 463.929931640625 180.25827026367188 436.599609375 230.79026794433594 406.6741943359375 C 199.46768188476562 431.56695556640625 214.88343811035156 416.96966552734375 228.1234130859375 461.175537109375 C 157.6453399658203 460.1651916503906 115.25567626953125 496.9300842285156 227.38818359375 469.890625" stroke-width="12.0" fill="none" stroke="rgb(0, 0, 0)" stroke-opacity="0.41913164" stroke-linecap="round" stroke-linejoin="round"/>
    <path d="M 484.41943359375 89.37696075439453 C 495.22174072265625 109.68347930908203 521.8862915039062 111.9959487915039 538.326904296875 122.26300811767578 C 535.6897583007812 125.66731262207031 482.8498229980469 114.43785095214844 481.8768005371094 113.80972290039062 C 546.9072265625 117.66535949707031 549.2989501953125 130.76889038085938 522.321533203125 112.97929382324219 C 535.0836791992188 120.75096893310547 525.3265380859375 117.5121841430664 500.68359375 90.37992095947266" stroke-width="5.249013900756836" fill="none" stroke="rgb(0, 0, 0)" stroke-opacity="0.6247986" stroke-linecap="round" stroke-linejoin="round"/>
    <path d="M 278.8245544433594 -50.95359802246094 C 257.4479064941406 -8.895905494689941 250.06936645507812 10.133052825927734 250.3647918701172 10.122364044189453 C 222.9556121826172 81.11277770996094 237.9481658935547 41.074581146240234 229.1229705810547 75.49365234375 C 222.26065063476562 108.21634674072266 213.42483520507812 85.72128295898438 212.25379943847656 83.9263916015625 C 162.3968048095703 120.69422149658203 226.23117065429688 150.09378051757812 148.86892700195312 103.1217269897461" stroke-width="3.2149364948272705" fill="none" stroke="rgb(0, 0, 0)" stroke-opacity="0.6421258" stroke-linecap="round" stroke-linejoin="round"/>
    <path d="M 543.913330078125 229.93641662597656 C 549.1707153320312 228.33070373535156 524.0607299804688 248.57962036132812 513.0811767578125 258.81451416015625 C 488.0730285644531 300.2245178222656 476.5076599121094 339.975830078125 486.66851806640625 317.2775573730469 C 518.716796875 258.2938537597656 484.28277587890625 272.27142333984375 507.3641357421875 375.8148193359375 C 512.8648071289062 413.53765869140625 488.5594482421875 357.6024475097656 459.4581604003906 307.8823547363281" stroke-width="5.794508457183838" fill="none" stroke="rgb(0, 0, 0)" stroke-opacity="0.6250685" stroke-linecap="round" stroke-linejoin="round"/>
    <path d="M 586.9498291015625 492.14813232421875 C 577.8440551757812 522.345703125 577.711669921875 535.8567504882812 548.7278442382812 520.0940551757812 C 561.8853759765625 594.428466796875 572.075439453125 610.1341552734375 532.154296875 571.6793212890625 C 542.437255859375 569.6136474609375 545.6288452148438 630.005615234375 550.8903198242188 641.0110473632812 C 467.4307861328125 640.9993896484375 474.11712646484375 623.3201293945312 451.16314697265625 612.5044555664062" stroke-width="3.6495001316070557" fill="none" stroke="rgb(0, 0, 0)" stroke-opacity="0.97695804" stroke-linecap="round" stroke-linejoin="round"/>
    <path d="M 424.6300964355469 326.0970153808594 C 434.81597900390625 299.3713073730469 421.2020263671875 305.5997314453125 437.94775390625 283.49481201171875 C 424.9925842285156 294.8013916015625 403.72088623046875 256.7364196777344 343.3088684082031 258.9519348144531 C 401.1768798828125 258.2972717285156 366.37945556640625 252.1199951171875 334.5822448730469 267.84197998046875 C 341.4493713378906 307.83868408203125 312.4726257324219 354.7587585449219 333.85333251953125 304.9044189453125" stroke-width="7.236246109008789" fill="none" stroke="rgb(0, 0, 0)" stroke-opacity="0.5592543" stroke-linecap="round" stroke-linejoin="round"/>
    <path d="M 49.238487243652344 168.99960327148438 C 55.776268005371094 177.90245056152344 51.757850646972656 173.08551025390625 50.6570930480957 199.62974548339844 C 37.88092041015625 148.50048828125 23.401891708374023 161.98353576660156 52.98577880859375 136.82005310058594 C 53.22256088256836 127.28014373779297 55.46699142456055 167.6068572998047 50.15019607543945 158.71034240722656 C 45.89881896972656 194.97470092773438 51.48044204711914 184.63417053222656 42.26313781738281 170.33023071289062" stroke-width="2.8274545669555664" fill="none" stroke="rgb(0, 0, 0)" stroke-opacity="0.24339187" stroke-linecap="round" stroke-linejoin="round"/>
    <path d="M 619.8162841796875 352.6517028808594 C 609.9913940429688 425.1695251464844 587.9940795898438 450.8394470214844 555.4593505859375 549.4212646484375 C 557.79345703125 509.21978759765625 537.42333984375 490.4216613769531 542.434814453125 425.9576416015625 C 576.7378540039062 453.31988525390625 571.6299438476562 558.8341064453125 569.58251953125 512.928466796875 C 555.2261352539062 451.78466796875 560.7523193359375 441.7200622558594 535.7380981445312 418.0057067871094" stroke-width="9.901565551757812" fill="none" stroke="rgb(0, 0, 0)" stroke-opacity="0.50286347" stroke-linecap="round" stroke-linejoin="round"/>
    <path d="M 513.8468017578125 264.47760009765625 C 473.6139831542969 348.76568603515625 481.32647705078125 310.25634765625 509.4180603027344 261.8958435058594 C 535.311279296875 232.27206420898438 564.3110961914062 224.28147888183594 572.6422729492188 200.89700317382812 C 616.8286743164062 167.17518615722656 604.4094848632812 159.4139404296875 630.3526000976562 147.44883728027344 C 606.2481079101562 169.11080932617188 563.8084106445312 234.3570098876953 554.7360229492188 331.3688049316406" stroke-width="3.671072244644165" fill="none" stroke="rgb(0, 0, 0)" stroke-opacity="0.8393011" stroke-linecap="round" stroke-linejoin="round"/>
    <path d="M 191.30027770996094 174.3358612060547 C 156.27130126953125 225.36375427246094 195.8251190185547 168.1613311767578 217.12191772460938 143.52798461914062 C 206.96249389648438 84.74068450927734 186.16563415527344 84.0950698852539 209.05650329589844 133.36602783203125 C 160.09532165527344 163.8482208251953 172.8607635498047 160.3539581298828 182.86923217773438 156.06788635253906 C 142.49014282226562 134.6529083251953 154.00985717773438 116.51695251464844 142.42213439941406 96.9935073852539" stroke-width="12.0" fill="none" stroke="rgb(0, 0, 0)" stroke-opacity="0.7664054" stroke-linecap="round" stroke-linejoin="round"/>
    <path d="M 400.2243347167969 168.1090087890625 C 378.7017517089844 107.10526275634766 426.29736328125 131.2574005126953 426.07415771484375 102.19361114501953 C 438.26422119140625 101.50796508789062 527.8126220703125 120.4471206665039 442.9266662597656 84.86544799804688 C 418.062255859375 71.97019958496094 459.36981201171875 109.8638687133789 527.8966674804688 124.98001861572266 C 470.82061767578125 106.01110076904297 438.65252685546875 112.35009765625 463.6208190917969 106.46916198730469" stroke-width="9.791561126708984" fill="none" stroke="rgb(0, 0, 0)" stroke-opacity="0.85315406" stroke-linecap="round" stroke-linejoin="round"/>
    <path d="M 100.28589630126953 312.1748046875 C 80.9754409790039 286.7843017578125 88.57084655761719 274.07818603515625 102.94194793701172 300.8898620605469 C 119.25410461425781 300.278076171875 84.7005615234375 294.5603332519531 66.20614624023438 269.65618896484375 C 31.343088150024414 246.94444274902344 46.807586669921875 242.00767517089844 79.98738861083984 236.2103271484375 C 53.18570327758789 208.06591796875 24.06279754638672 232.265869140625 50.48221969604492 201.17532348632812" stroke-width="2.6275954246520996" fill="none" stroke="rgb(0, 0, 0)" stroke-opacity="0.056107663" stroke-linecap="round" stroke-linejoin="round"/>
    <path d="M 146.54637145996094 450.31689453125 C 138.30902099609375 402.5142822265625 133.8354034423828 445.7209777832031 135.74600219726562 434.8079833984375 C 162.2654266357422 479.54949951171875 156.2753143310547 453.1824035644531 145.6068572998047 429.62847900390625 C 190.5913848876953 446.72454833984375 150.89295959472656 486.7666931152344 167.54067993164062 458.7199401855469 C 165.84445190429688 523.770751953125 195.4193115234375 427.7945251464844 206.71202087402344 426.9870910644531" stroke-width="8.62108325958252" fill="none" stroke="rgb(0, 0, 0)" stroke-opacity="0.9760194" stroke-linecap="round" stroke-linejoin="round"/>
    <path d="M 231.9667510986328 159.6125030517578 C 244.48046875 78.105224609375 242.7172088623047 141.0215606689453 290.3404541015625 131.13743591308594 C 365.210693359375 134.81483459472656 393.4485168457031 167.68861389160156 395.69464111328125 107.46703338623047 C 390.05364990234375 73.95455932617188 338.29742431640625 68.09728240966797 235.73526000976562 106.34637451171875 C 194.58448791503906 61.83076477050781 227.62831115722656 142.25668334960938 163.3453369140625 134.03785705566406" stroke-width="8.908353805541992" fill="none" stroke="rgb(0, 0, 0)" stroke-opacity="0.14802969" stroke-linecap="round" stroke-linejoin="round"/>
    <path d="M 154.6197052001953 262.71331787109375 C 191.6091766357422 185.10671997070312 176.04148864746094 234.8070831298828 154.78347778320312 307.1754455566406 C 164.88880920410156 266.3614807128906 158.03590393066406 320.4454040527344 125.64363861083984 369.1296081542969 C 136.09474182128906 321.09124755859375 152.08151245117188 288.4675598144531 150.43226623535156 276.091064453125 C 146.63064575195312 289.3869323730469 141.82444763183594 306.9880065917969 150.03195190429688 283.9299621582031" stroke-width="2.0" fill="none" stroke="rgb(0, 0, 0)" stroke-opacity="0.6460789" stroke-linecap="round" stroke-linejoin="round"/>
    <path d="M 359.1646423339844 -8.494714736938477 C 355.0710754394531 -15.736583709716797 372.687255859375 -23.84265899658203 406.75701904296875 -11.318007469177246 C 399.807373046875 -5.500250816345215 393.617919921875 -3.3308956623077393 399.4451904296875 -8.532867431640625 C 423.9100036621094 -10.228615760803223 455.3750915527344 -31.13194465637207 464.79254150390625 -17.517353057861328 C 425.5026550292969 -19.25045394897461 424.7391052246094 -12.982062339782715 399.7438659667969 -17.773136138916016" stroke-width="2.0" fill="none" stroke="rgb(0, 0, 0)" stroke-opacity="0.40338618" stroke-linecap="round" stroke-linejoin="round"/>
    <path d="M 341.5971984863281 159.84107971191406 C 367.20751953125 135.588134765625 369.72003173828125 115.76335144042969 384.9548645019531 116.81731414794922 C 345.91162109375 159.9542236328125 385.4822998046875 144.50738525390625 261.54901123046875 132.4417724609375 C 237.6999969482422 212.64808654785156 318.9919738769531 220.52113342285156 397.8045349121094 223.40884399414062 C 395.3707580566406 183.55252075195312 386.9327697753906 188.00782775878906 328.05194091796875 163.1149139404297" stroke-width="2.0" fill="none" stroke="rgb(0, 0, 0)" stroke-opacity="0.26541638" stroke-linecap="round" stroke-linejoin="round"/>
    <path d="M 89.99378967285156 285.5426940917969 C 78.76163482666016 266.7567443847656 73.97931671142578 238.9811553955078 68.99861907958984 237.10899353027344 C 60.15999221801758 215.0552978515625 55.135189056396484 213.1574249267578 52.54499053955078 194.1621856689453 C 56.177574157714844 207.5467987060547 31.758237838745117 205.00502014160156 34.73503112792969 224.0462188720703 C 22.3272705078125 229.34165954589844 28.143020629882812 221.20986938476562 32.117889404296875 229.8228759765625" stroke-width="3.4460878372192383" fill="none" stroke="rgb(0, 0, 0)" stroke-opacity="1.0" stroke-linecap="round" stroke-linejoin="round"/>
    <path d="M 218.34530639648438 405.9178466796875 C 206.75514221191406 413.8985595703125 205.42837524414062 461.32958984375 189.5705108642578 486.8816833496094 C 255.93882751464844 467.989501953125 227.9315643310547 453.07220458984375 227.87184143066406 427.788818359375 C 276.71136474609375 378.7813720703125 288.68719482421875 350.6903381347656 293.86279296875 354.11614990234375 C 327.57452392578125 322.2870788574219 289.22088623046875 369.067626953125 254.8086700439453 339.93408203125" stroke-width="8.38615608215332" fill="none" stroke="rgb(0, 0, 0)" stroke-opacity="0.8847943" stroke-linecap="round" stroke-linejoin="round"/>
    <path d="M 169.1334991455078 147.79832458496094 C 241.58441162109375 86.7660903930664 199.6120147705078 198.4413299560547 183.65191650390625 226.9454803466797 C 165.5736846923828 182.4923095703125 119.88874816894531 206.11048889160156 170.70387268066406 187.43077087402344 C 142.06719970703125 229.51512145996094 91.97483825683594 194.9309539794922 94.6676025390625 193.6131591796875 C 141.98382568359375 200.90090942382812 171.08038330078125 155.18609619140625 197.9844512939453 153.00369262695312" stroke-width="2.554638147354126" fill="none" stroke="rgb(0, 0, 0)" stroke-opacity="0.53636783" stroke-linecap="round" stroke-linejoin="round"/>
    <path d="M 469.8843078613281 300.5007019042969 C 489.60589599609375 363.3541564941406 506.4663391113281 353.46270751953125 496.1768493652344 357.0444030761719 C 450.750732421875 309.2450256347656 463.4921569824219 299.4963073730469 450.673095703125 289.1382141113281 C 421.7581787109375 259.0749816894531 393.3644104003906 237.4707794189453 423.8337097167969 267.2097473144531 C 413.306396484375 289.9101867675781 399.57025146484375 289.9717712402344 399.9894104003906 177.2572479248047" stroke-width="8.608365058898926" fill="none" stroke="rgb(0, 0, 0)" stroke-opacity="0.41537526" stroke-linecap="round" stroke-linejoin="round"/>
    <path d="M 545.8829956054688 360.57940673828125 C 587.2416381835938 389.2167663574219 554.931640625 396.4365234375 545.6235961914062 420.1675720214844 C 544.9768676757812 410.84735107421875 570.8406982421875 357.9941101074219 578.279296875 315.52593994140625 C 633.1073608398438 277.6833801269531 589.6673583984375 285.20318603515625 603.666015625 322.0678405761719 C 611.2189331054688 370.4930725097656 579.8403930664062 384.5914001464844 522.212646484375 398.7160339355469" stroke-width="2.0624077320098877" fill="none" stroke="rgb(0, 0, 0)" stroke-opacity="0.07840864" stroke-linecap="round" stroke-linejoin="round"/>
    <path d="M 280.750244140625 478.2154541015625 C 266.1022644042969 435.4253845214844 223.066650390625 425.79046630859375 232.87677001953125 456.7496643066406 C 231.55116271972656 489.5909729003906 227.83819580078125 392.1343688964844 239.04364013671875 415.5603332519531 C 232.68699645996094 396.80340576171875 214.90328979492188 428.88250732421875 236.816650390625 397.66455078125 C 273.257568359375 352.794677734375 291.55316162109375 323.6492919921875 283.5620422363281 399.9789733886719" stroke-width="2.0" fill="none" stroke="rgb(0, 0, 0)" stroke-opacity="0.6602324" stroke-linecap="round" stroke-linejoin="round"/>
    <path d="M 89.99378967285156 285.5426940917969 C 78.76163482666016 266.7567443847656 73.97931671142578 238.9811553955078 68.99861907958984 237.10899353027344 C 60.15999221801758 215.0552978515625 55.135189056396484 213.1574249267578 52.54499053955078 194.1621856689453 C 56.177574157714844 207.5467987060547 31.758237838745117 205.00502014160156 34.73503112792969 224.0462188720703 C 22.3272705078125 229.34165954589844 28.143020629882812 221.20986938476562 32.117889404296875 229.8228759765625" stroke-width="3.4460878372192383" fill="none" stroke="rgb(0, 0, 0)" stroke-opacity="1.0" stroke-linecap="round" stroke-linejoin="round"/>
    <path d="M 62.571815490722656 127.90446472167969 C 60.34766387939453 144.4229736328125 67.70396423339844 130.67794799804688 59.138526916503906 137.6824951171875 C 40.37335968017578 175.153076171875 71.8754653930664 180.7555389404297 3.1989152431488037 133.1595001220703 C -43.041954040527344 157.26548767089844 -29.116212844848633 184.4236602783203 -34.40509033203125 170.85177612304688 C -8.476666450500488 145.91677856445312 -12.534334182739258 173.3179473876953 -22.983854293823242 190.76475524902344" stroke-width="2.0" fill="none" stroke="rgb(0, 0, 0)" stroke-opacity="0.67672735" stroke-linecap="round" stroke-linejoin="round"/>
    <path d="M 466.66070556640625 546.5350952148438 C 479.9313659667969 567.3212280273438 469.13909912109375 550.0806274414062 494.7451171875 491.9505920410156 C 488.9668884277344 501.56256103515625 495.7304992675781 496.0899658203125 522.6117553710938 501.61785888671875 C 503.02923583984375 511.63409423828125 527.6407470703125 487.2010192871094 500.5230712890625 472.5293884277344 C 505.2450256347656 407.46990966796875 502.206787109375 432.9797668457031 505.29730224609375 472.5613098144531" stroke-width="3.771179676055908" fill="none" stroke="rgb(0, 0, 0)" stroke-opacity="0.68644685" stroke-linecap="round" stroke-linejoin="round"/>
    <path d="M 389.433349609375 67.78943634033203 C 434.2135925292969 103.76152801513672 450.4737854003906 96.34676361083984 425.3055114746094 97.40083312988281 C 493.1663513183594 101.5030517578125 479.2796325683594 94.16749572753906 461.4419250488281 79.5163345336914 C 470.1668701171875 55.98746109008789 464.8747863769531 69.87155151367188 467.0931396484375 58.67804718017578 C 449.15338134765625 69.05171203613281 441.6872863769531 101.84954071044922 408.3688049316406 69.30976867675781" stroke-width="2.0" fill="none" stroke="rgb(0, 0, 0)" stroke-opacity="0.61819744" stroke-linecap="round" stroke-linejoin="round"/>
    <path d="M -34.76093292236328 530.96826171875 C -13.621683120727539 496.0193176269531 -18.467811584472656 508.0594787597656 -7.284682273864746 531.1456909179688 C 19.870750427246094 498.01129150390625 41.923336029052734 481.9953308105469 56.72163009643555 449.7426452636719 C 54.41912841796875 453.7851257324219 62.16804122924805 425.78448486328125 98.89341735839844 443.0998840332031 C 111.87010955810547 445.1101379394531 107.83007049560547 456.0287170410156 217.66558837890625 473.6044921875" stroke-width="3.1613597869873047" fill="none" stroke="rgb(0, 0, 0)" stroke-opacity="0.52738345" stroke-linecap="round" stroke-linejoin="round"/>
    <path d="M 568.2503051757812 372.1554260253906 C 566.4722290039062 356.65631103515625 557.4476928710938 316.1253662109375 557.4417724609375 394.9537658691406 C 534.2844848632812 427.3335266113281 546.2290649414062 410.1109619140625 561.1651611328125 390.32049560546875 C 593.9840087890625 456.9457702636719 612.3897094726562 467.8243103027344 603.2617797851562 497.59881591796875 C 623.978515625 503.3143310546875 649.8671875 490.1184387207031 639.1470947265625 475.75775146484375" stroke-width="2.0" fill="none" stroke="rgb(0, 0, 0)" stroke-opacity="0.6444476" stroke-linecap="round" stroke-linejoin="round"/>
    <path d="M 287.7799987792969 460.1543884277344 C 288.4767761230469 413.3077697753906 283.9635009765625 421.49212646484375 285.8320617675781 405.419677734375 C 285.04571533203125 374.1264343261719 301.54718017578125 396.7684631347656 269.1261291503906 401.6137390136719 C 273.323974609375 394.7825012207031 297.5377502441406 406.55078125 264.67559814453125 386.0182800292969 C 240.13458251953125 397.2002868652344 282.48846435546875 328.66693115234375 262.8874816894531 388.76190185546875" stroke-width="2.0" fill="none" stroke="rgb(0, 0, 0)" stroke-opacity="0.53444767" stroke-linecap="round" stroke-linejoin="round"/>
    <path d="M 452.0476989746094 616.6373901367188 C 477.53564453125 575.6302490234375 483.246826171875 536.8844604492188 489.908447265625 509.1979675292969 C 490.06915283203125 529.6654052734375 515.0718383789062 558.57958984375 550.7581176757812 564.5427856445312 C 524.5948486328125 547.6495971679688 496.6139831542969 570.662841796875 493.9732971191406 572.9757080078125 C 503.58660888671875 563.681884765625 457.066650390625 594.177490234375 436.61920166015625 599.8701171875" stroke-width="2.418012857437134" fill="none" stroke="rgb(0, 0, 0)" stroke-opacity="0.7291164" stroke-linecap="round" stroke-linejoin="round"/>
    <path d="M 298.9865417480469 616.3094482421875 C 294.2076110839844 590.5867919921875 299.90118408203125 611.3182373046875 294.7084655761719 653.6115112304688 C 237.4925537109375 635.04736328125 257.25030517578125 614.4025268554688 295.05023193359375 669.1246948242188 C 291.1745300292969 599.6782836914062 300.5853271484375 590.5475463867188 292.7628173828125 567.9009399414062 C 294.6915588378906 510.3307800292969 287.5823974609375 516.9566040039062 287.9243469238281 520.004150390625" stroke-width="9.89281940460205" fill="none" stroke="rgb(0, 0, 0)" stroke-opacity="0.56751573" stroke-linecap="round" stroke-linejoin="round"/>
    <path d="M 582.8988647460938 528.72998046875 C 563.3123779296875 564.3582153320312 555.7565307617188 589.3092041015625 534.6259765625 442.8951721191406 C 511.3836975097656 416.29876708984375 505.6774597167969 478.4534606933594 531.7313232421875 542.2800903320312 C 545.2755737304688 577.8043823242188 510.3939208984375 566.525390625 546.4480590820312 554.7996826171875 C 551.168701171875 548.3901977539062 582.7492065429688 545.7070922851562 611.41259765625 510.5108947753906" stroke-width="2.434199333190918" fill="none" stroke="rgb(0, 0, 0)" stroke-opacity="0.83027023" stroke-linecap="round" stroke-linejoin="round"/>
    <path d="M 321.4018249511719 552.1150512695312 C 327.03363037109375 538.5665283203125 310.85638427734375 547.22119140625 332.7474670410156 547.3140258789062 C 310.0665283203125 574.3839721679688 331.9831237792969 616.7656860351562 329.9714050292969 643.66748046875 C 249.42625427246094 607.9718017578125 228.19696044921875 624.125732421875 219.004150390625 628.0836791992188 C 232.5980682373047 623.4282836914062 234.71885681152344 646.4935302734375 225.7633514404297 627.0221557617188" stroke-width="2.052020788192749" fill="none" stroke="rgb(0, 0, 0)" stroke-opacity="0.09254605" stroke-linecap="round" stroke-linejoin="round"/>
    <path d="M 515.8754272460938 120.85284423828125 C 541.3113403320312 127.23392486572266 613.69921875 149.30882263183594 619.3641967773438 136.99935913085938 C 520.3330078125 119.63247680664062 551.5320434570312 106.74614715576172 636.3197021484375 129.33673095703125 C 583.5032958984375 169.4860382080078 615.7308959960938 155.82594299316406 675.5990600585938 160.11520385742188 C 641.127197265625 144.0366973876953 623.849365234375 171.457763671875 625.2244873046875 198.785400390625" stroke-width="12.0" fill="none" stroke="rgb(0, 0, 0)" stroke-opacity="0.9640289" stroke-linecap="round" stroke-linejoin="round"/>
    <path d="M 164.11785888671875 9.346184730529785 C 206.59115600585938 8.346830368041992 161.38475036621094 19.36429214477539 115.87957763671875 16.415693283081055 C 109.82560729980469 8.902517318725586 101.63552856445312 13.90683364868164 129.31686401367188 0.5982347130775452 C 103.02393341064453 -18.679466247558594 101.01276397705078 36.14448928833008 101.9791259765625 65.67443084716797 C 103.33792877197266 27.805444717407227 121.93934631347656 26.044166564941406 116.09523010253906 55.041202545166016" stroke-width="2.0" fill="none" stroke="rgb(0, 0, 0)" stroke-opacity="0.09255902" stroke-linecap="round" stroke-linejoin="round"/>
    <path d="M 157.48129272460938 383.3265380859375 C 114.4378890991211 436.34588623046875 124.55352783203125 493.3805847167969 186.54531860351562 478.2290954589844 C 251.10704040527344 446.86724853515625 182.66143798828125 370.2380676269531 213.61146545410156 390.1030578613281 C 258.44805908203125 358.55828857421875 266.8544006347656 330.395751953125 231.92172241210938 328.2962341308594 C 194.0122833251953 331.74835205078125 153.05230712890625 379.2845153808594 213.26754760742188 318.2890625" stroke-width="10.600214004516602" fill="none" stroke="rgb(0, 0, 0)" stroke-opacity="0.47844186" stroke-linecap="round" stroke-linejoin="round"/>
    <path d="M 7.368021488189697 233.3396453857422 C -3.6256625652313232 324.37506103515625 -11.98116683959961 318.9571838378906 0.8617870211601257 313.32147216796875 C -31.736886978149414 338.86505126953125 16.7319393157959 320.47589111328125 70.6329574584961 335.0851745605469 C 53.61296081542969 329.5806884765625 79.45034790039062 332.5719299316406 60.64030838012695 331.6874694824219 C 71.56021118164062 329.9185791015625 58.19572448730469 336.3948059082031 79.55714416503906 333.91156005859375" stroke-width="4.015125274658203" fill="none" stroke="rgb(0, 0, 0)" stroke-opacity="0.15615769" stroke-linecap="round" stroke-linejoin="round"/>
    <path d="M 360.3443603515625 311.0599670410156 C 338.3370666503906 324.50067138671875 342.1462707519531 306.0111083984375 346.042236328125 339.9549255371094 C 371.49444580078125 320.27203369140625 382.4752197265625 303.1363525390625 409.6824035644531 281.1767272949219 C 437.41326904296875 233.95298767089844 431.7282409667969 318.2443542480469 418.16656494140625 365.3658752441406 C 405.1863098144531 343.8073425292969 410.921630859375 349.5511169433594 414.72509765625 389.2090759277344" stroke-width="2.0" fill="none" stroke="rgb(0, 0, 0)" stroke-opacity="0.1331575" stroke-linecap="round" stroke-linejoin="round"/>
    <path d="M 187.0157928466797 366.40771484375 C 137.1719512939453 419.60955810546875 127.1644058227539 464.87969970703125 131.96755981445312 434.8448181152344 C 157.4248809814453 422.3831481933594 138.688232421875 391.6158142089844 141.48507690429688 384.2737731933594 C 145.3510284423828 430.368408203125 186.6753692626953 447.0848388671875 223.96664428710938 468.1581115722656 C 146.69032287597656 501.36297607421875 190.96336364746094 396.6408996582031 229.11976623535156 442.0520324707031" stroke-width="10.326026916503906" fill="none" stroke="rgb(0, 0, 0)" stroke-opacity="0.09143466" stroke-linecap="round" stroke-linejoin="round"/>
    <path d="M 548.7796630859375 538.193603515625 C 597.3255615234375 500.5473327636719 606.7680053710938 484.7508850097656 598.695068359375 564.1814575195312 C 672.4854125976562 573.2118530273438 637.44384765625 531.2697143554688 616.6533203125 531.2161254882812 C 599.4300537109375 497.3835754394531 611.1217651367188 492.8376159667969 620.07470703125 471.2317810058594 C 650.552978515625 495.9139099121094 631.1544189453125 511.7919921875 652.7014770507812 503.9422302246094" stroke-width="2.2225022315979004" fill="none" stroke="rgb(0, 0, 0)" stroke-opacity="0.508571" stroke-linecap="round" stroke-linejoin="round"/>
    <path d="M 423.86962890625 354.7921447753906 C 422.1748962402344 385.77276611328125 411.68878173828125 362.1258544921875 423.84454345703125 347.06561279296875 C 416.2159729003906 417.7316589355469 416.8099365234375 403.18212890625 428.8042907714844 420.2145080566406 C 409.9558410644531 427.6016845703125 407.4684753417969 418.95196533203125 422.9117736816406 409.6531982421875 C 406.6127014160156 439.8935241699219 395.5288391113281 450.70831298828125 375.9524230957031 489.3387145996094" stroke-width="2.0011394023895264" fill="none" stroke="rgb(0, 0, 0)" stroke-opacity="0.8493079" stroke-linecap="round" stroke-linejoin="round"/>
    <path d="M 553.0882568359375 613.47509765625 C 565.65673828125 589.00634765625 621.2158813476562 541.2262573242188 599.1165161132812 599.8094482421875 C 533.1236572265625 601.3670043945312 525.2666015625 616.4607543945312 536.6799926757812 601.8436889648438 C 523.2223510742188 646.2532348632812 539.12158203125 615.3792114257812 564.3307495117188 640.9649047851562 C 577.296875 635.4962158203125 577.5468139648438 656.060791015625 568.0433349609375 635.485595703125" stroke-width="12.0" fill="none" stroke="rgb(0, 0, 0)" stroke-opacity="0.26321507" stroke-linecap="round" stroke-linejoin="round"/>
    <path d="M 419.30072021484375 268.2336120605469 C 364.3610534667969 218.58737182617188 303.2125244140625 204.51756286621094 320.1452331542969 262.3157043457031 C 381.961181640625 247.27906799316406 405.5943603515625 288.2879638671875 410.5418395996094 252.06497192382812 C 371.62506103515625 231.4757080078125 316.9255065917969 184.8984375 318.7294006347656 251.8260955810547 C 318.1610412597656 265.3005065917969 308.6257019042969 233.05078125 253.60142517089844 198.88095092773438" stroke-width="8.327356338500977" fill="none" stroke="rgb(0, 0, 0)" stroke-opacity="0.48714417" stroke-linecap="round" stroke-linejoin="round"/>
    <path d="M 92.55950164794922 328.0977478027344 C 94.26512145996094 335.99334716796875 93.21509552001953 342.60003662109375 84.38500213623047 329.7569580078125 C 108.91783905029297 320.6050720214844 138.5989227294922 382.2607421875 106.95454406738281 384.9793701171875 C 110.35797119140625 394.8505859375 117.75518798828125 408.68511962890625 113.47847747802734 408.8542785644531 C 119.50247955322266 391.3233337402344 116.50171661376953 402.8711242675781 110.27627563476562 401.5048522949219" stroke-width="7.629673480987549" fill="none" stroke="rgb(0, 0, 0)" stroke-opacity="0.3937751" stroke-linecap="round" stroke-linejoin="round"/>
    <path d="M -10.064464569091797 113.15314483642578 C -8.416232109069824 114.46382904052734 -42.692413330078125 99.01338958740234 -24.23836326599121 99.31147003173828 C -15.649491310119629 123.0047607421875 2.5005693435668945 113.78428649902344 -12.573742866516113 112.95158386230469 C -7.16986083984375 124.62470245361328 -4.829253196716309 105.657470703125 -17.873647689819336 118.10735321044922 C -10.418062210083008 82.71573638916016 -15.855433464050293 64.31903839111328 -42.65028762817383 88.23426818847656" stroke-width="4.571779251098633" fill="none" stroke="rgb(0, 0, 0)" stroke-opacity="0.8834062" stroke-linecap="round" stroke-linejoin="round"/>
    <path d="M 84.54913330078125 80.07640838623047 C 104.52161407470703 -38.50223159790039 89.55471801757812 -17.004661560058594 78.80345916748047 -44.965328216552734 C 56.1102409362793 -18.20225715637207 33.33841323852539 -51.759193420410156 45.41124725341797 -82.62276458740234 C 123.34073638916016 -3.3311471939086914 143.90023803710938 -31.476943969726562 146.2084197998047 -11.790950775146484 C 144.36036682128906 8.011500358581543 145.03079223632812 -9.4095458984375 155.22793579101562 -46.552696228027344" stroke-width="4.108738422393799" fill="none" stroke="rgb(0, 0, 0)" stroke-opacity="0.9002823" stroke-linecap="round" stroke-linejoin="round"/>
    <path d="M 454.7884826660156 117.52681732177734 C 395.9647216796875 147.43515014648438 444.06317138671875 158.5214080810547 423.9325866699219 151.94949340820312 C 433.58746337890625 253.76565551757812 415.5587463378906 196.0885772705078 423.07525634765625 263.6575927734375 C 413.5234375 222.26312255859375 424.3515625 224.78273010253906 419.4559020996094 283.2753601074219 C 467.6164245605469 307.3795471191406 461.39251708984375 352.2077331542969 458.2989501953125 248.42425537109375" stroke-width="7.698090076446533" fill="none" stroke="rgb(0, 0, 0)" stroke-opacity="0.9676146" stroke-linecap="round" stroke-linejoin="round"/>
    <path d="M 71.7452163696289 588.0069580078125 C 78.02539825439453 558.8009033203125 84.02739715576172 586.7672119140625 94.30130004882812 535.4884033203125 C 92.08503723144531 554.2411499023438 91.140869140625 545.8124389648438 106.24655151367188 524.5472412109375 C 95.2719955444336 534.6099853515625 103.33223724365234 535.037353515625 102.81402587890625 528.37939453125 C 139.12295532226562 531.3482666015625 128.86563110351562 539.130615234375 104.78694915771484 552.3121337890625" stroke-width="2.030590772628784" fill="none" stroke="rgb(0, 0, 0)" stroke-opacity="0.142958" stroke-linecap="round" stroke-linejoin="round"/>
    <path d="M 328.19647216796875 317.89617919921875 C 345.5825500488281 246.49330139160156 320.1455078125 272.2248840332031 368.8026428222656 255.1067352294922 C 377.5688171386719 242.75099182128906 327.3557434082031 251.800048828125 330.66748046875 243.93865966796875 C 339.3467712402344 262.9191589355469 331.75616455078125 283.2890930175781 326.5538635253906 259.93414306640625 C 358.20361328125 239.97650146484375 400.82464599609375 277.9071044921875 400.0441589355469 264.0332946777344" stroke-width="9.530191421508789" fill="none" stroke="rgb(0, 0, 0)" stroke-opacity="0.32664824" stroke-linecap="round" stroke-linejoin="round"/>
    <path d="M 130.752197265625 104.49565124511719 C 98.84783172607422 166.94515991210938 95.2753677368164 182.2456512451172 110.30042266845703 170.3195343017578 C 92.53993225097656 130.78622436523438 95.13057708740234 119.72802734375 95.87174224853516 119.56962585449219 C 131.20217895507812 162.00621032714844 129.32212829589844 203.06410217285156 191.69375610351562 161.42404174804688 C 157.66360473632812 231.98036193847656 108.2603759765625 225.8830108642578 110.12354278564453 178.30946350097656" stroke-width="2.0" fill="none" stroke="rgb(0, 0, 0)" stroke-opacity="0.5945382" stroke-linecap="round" stroke-linejoin="round"/>
    <path d="M 215.2066192626953 243.09014892578125 C 234.92333984375 262.500732421875 166.0652313232422 247.1576690673828 190.5793914794922 248.77932739257812 C 180.66885375976562 246.22103881835938 190.77813720703125 210.66336059570312 230.59397888183594 236.30526733398438 C 145.16665649414062 241.33035278320312 199.08856201171875 248.4418487548828 221.6929931640625 245.7825164794922 C 240.4819793701172 199.82640075683594 245.3318634033203 219.7862091064453 225.75833129882812 223.654296875" stroke-width="6.668612003326416" fill="none" stroke="rgb(0, 0, 0)" stroke-opacity="0.8534197" stroke-linecap="round" stroke-linejoin="round"/>
    <path d="M 592.0654296875 617.4085693359375 C 581.9492797851562 483.76190185546875 576.920166015625 527.3048706054688 551.1939086914062 536.047119140625 C 551.8966674804688 619.9906005859375 552.796142578125 678.0924072265625 539.47802734375 709.3410034179688 C 511.96710205078125 624.3985595703125 496.3985595703125 645.7061767578125 510.663330078125 674.75537109375 C 490.46185302734375 666.3828125 478.3986511230469 667.521240234375 463.54833984375 696.8402709960938" stroke-width="5.579843044281006" fill="none" stroke="rgb(0, 0, 0)" stroke-opacity="0.9259992" stroke-linecap="round" stroke-linejoin="round"/>
    <path d="M 427.9293518066406 512.234619140625 C 466.56011962890625 474.4471740722656 466.5101623535156 492.05816650390625 486.55694580078125 467.68499755859375 C 495.0908203125 477.7457275390625 490.6073913574219 437.3405456542969 518.8679809570312 442.48828125 C 548.5322875976562 417.3647766113281 496.2631530761719 452.3368225097656 490.559814453125 506.07794189453125 C 507.09332275390625 459.6826477050781 504.45928955078125 470.2862243652344 497.0114440917969 468.8082580566406" stroke-width="2.0" fill="none" stroke="rgb(0, 0, 0)" stroke-opacity="0.58002424" stroke-linecap="round" stroke-linejoin="round"/>
    <path d="M 243.1239471435547 107.09264373779297 C 375.0335693359375 109.85139465332031 373.5958557128906 86.98410034179688 374.9398193359375 101.86225891113281 C 320.8476257324219 91.1059341430664 314.4645080566406 74.46728515625 302.8744812011719 88.64492797851562 C 346.0555114746094 107.96053314208984 386.45709228515625 104.28010559082031 437.67510986328125 104.04358673095703 C 438.5693359375 105.99366760253906 447.2829284667969 111.87053680419922 378.565673828125 79.11796569824219" stroke-width="12.0" fill="none" stroke="rgb(0, 0, 0)" stroke-opacity="0.2839027" stroke-linecap="round" stroke-linejoin="round"/>
    <path d="M 58.0404167175293 149.54092407226562 C 53.04602813720703 115.23711395263672 49.706809997558594 135.01744079589844 53.68240737915039 171.92259216308594 C 39.68663024902344 165.708984375 76.82572937011719 181.55369567871094 100.3053970336914 193.3011474609375 C 122.22620391845703 199.73638916015625 113.81599426269531 195.53163146972656 121.63997650146484 216.95684814453125 C 149.51690673828125 291.2014465332031 142.36837768554688 308.8103942871094 163.87461853027344 205.35948181152344" stroke-width="5.110570430755615" fill="none" stroke="rgb(0, 0, 0)" stroke-opacity="0.56288135" stroke-linecap="round" stroke-linejoin="round"/>
    <path d="M 89.99378967285156 285.5426940917969 C 78.76163482666016 266.7567443847656 73.97931671142578 238.9811553955078 68.99861907958984 237.10899353027344 C 60.15999221801758 215.0552978515625 55.135189056396484 213.1574249267578 52.54499053955078 194.1621856689453 C 56.177574157714844 207.5467987060547 31.758237838745117 205.00502014160156 34.73503112792969 224.0462188720703 C 22.3272705078125 229.34165954589844 28.143020629882812 221.20986938476562 32.117889404296875 229.8228759765625" stroke-width="3.4460878372192383" fill="none" stroke="rgb(0, 0, 0)" stroke-opacity="1.0" stroke-linecap="round" stroke-linejoin="round"/>
    <path d="M 91.6574478149414 288.7142639160156 C 112.8170394897461 318.1353454589844 94.27915954589844 367.2846984863281 138.88851928710938 286.8882141113281 C 170.31553649902344 307.5798645019531 172.64230346679688 277.3656921386719 163.66845703125 319.6285095214844 C 167.55227661132812 312.5780029296875 171.12933349609375 309.1301574707031 141.86434936523438 310.8660583496094 C 165.05516052246094 220.27874755859375 152.42538452148438 294.9512023925781 142.5811004638672 271.15777587890625" stroke-width="2.0" fill="none" stroke="rgb(0, 0, 0)" stroke-opacity="0.83753794" stroke-linecap="round" stroke-linejoin="round"/>
    <path d="M 218.43824768066406 -30.992704391479492 C 233.9794464111328 -19.744781494140625 231.0178985595703 -13.41208267211914 248.94480895996094 -1.9306349754333496 C 259.65240478515625 7.508503437042236 239.75006103515625 28.25425910949707 258.2462463378906 27.727540969848633 C 284.8038024902344 6.39650297164917 264.24505615234375 36.643028259277344 334.9171142578125 -11.56369686126709 C 335.2857971191406 31.617965698242188 286.6298522949219 87.15589141845703 334.4952392578125 91.58098602294922" stroke-width="4.380654335021973" fill="none" stroke="rgb(0, 0, 0)" stroke-opacity="0.5037595" stroke-linecap="round" stroke-linejoin="round"/>
    <path d="M 198.42718505859375 539.8541870117188 C 201.33551025390625 555.741455078125 206.99046325683594 530.1083984375 199.83575439453125 543.0438842773438 C 198.6872100830078 538.0130615234375 209.57164001464844 541.7556762695312 204.8871612548828 503.3961181640625 C 207.89712524414062 545.5348510742188 202.67454528808594 560.6240844726562 203.47988891601562 540.6455078125 C 202.75425720214844 523.077392578125 205.99009704589844 542.17529296875 190.2371063232422 531.4598999023438" stroke-width="2.0" fill="none" stroke="rgb(0, 0, 0)" stroke-opacity="0.6442289" stroke-linecap="round" stroke-linejoin="round"/>
    <path d="M 457.78643798828125 313.1538391113281 C 452.025146484375 123.48287963867188 481.2748718261719 123.35424041748047 465.4219055175781 158.5669708251953 C 451.4004211425781 127.87911224365234 513.3347778320312 134.564697265625 524.0941162109375 103.33618927001953 C 476.0002746582031 109.74494934082031 544.9605102539062 109.94902801513672 531.1740112304688 125.39131927490234 C 578.2565307617188 143.39450073242188 574.1343383789062 121.69551086425781 543.6246337890625 103.96411895751953" stroke-width="9.15282154083252" fill="none" stroke="rgb(0, 0, 0)" stroke-opacity="0.9790958" stroke-linecap="round" stroke-linejoin="round"/>
    <path d="M 89.99378967285156 285.5426940917969 C 78.76163482666016 266.7567443847656 73.97931671142578 238.9811553955078 68.99861907958984 237.10899353027344 C 60.15999221801758 215.0552978515625 55.135189056396484 213.1574249267578 52.54499053955078 194.1621856689453 C 56.177574157714844 207.5467987060547 31.758237838745117 205.00502014160156 34.73503112792969 224.0462188720703 C 22.3272705078125 229.34165954589844 28.143020629882812 221.20986938476562 32.117889404296875 229.8228759765625" stroke-width="3.4460878372192383" fill="none" stroke="rgb(0, 0, 0)" stroke-opacity="1.0" stroke-linecap="round" stroke-linejoin="round"/>
    <path d="M 199.56385803222656 601.3390502929688 C 196.19654846191406 582.6544799804688 213.1773223876953 581.838134765625 206.50645446777344 637.344482421875 C 201.09161376953125 597.083984375 206.09571838378906 594.2521362304688 207.00868225097656 534.9927368164062 C 205.02151489257812 540.2115478515625 201.78477478027344 549.46435546875 208.27926635742188 522.18896484375 C 206.10873413085938 494.5655822753906 205.89764404296875 519.6556396484375 206.21817016601562 494.8948974609375" stroke-width="6.024521350860596" fill="none" stroke="rgb(0, 0, 0)" stroke-opacity="0.59334886" stroke-linecap="round" stroke-linejoin="round"/>
    <path d="M 199.6192626953125 367.68438720703125 C 221.36837768554688 309.6239929199219 223.5786590576172 344.2705993652344 301.9618835449219 341.0960388183594 C 339.0870361328125 288.92645263671875 335.9115295410156 312.7118225097656 313.29620361328125 337.37811279296875 C 336.4662780761719 314.02069091796875 282.1849365234375 341.6235046386719 267.78369140625 365.4273681640625 C 249.09170532226562 310.6343688964844 276.1188659667969 362.037109375 290.2862548828125 342.8421325683594" stroke-width="9.702890396118164" fill="none" stroke="rgb(0, 0, 0)" stroke-opacity="0.25952974" stroke-linecap="round" stroke-linejoin="round"/>
    <path d="M 94.38152313232422 282.096923828125 C 119.34032440185547 301.2362060546875 148.3693389892578 312.7079162597656 148.38026428222656 273.8284912109375 C 162.9615020751953 273.0315246582031 178.67689514160156 273.4194641113281 166.86097717285156 294.4403076171875 C 199.04583740234375 294.99560546875 244.48822021484375 282.35748291015625 191.24942016601562 338.19091796875 C 181.15699768066406 291.3978271484375 146.03578186035156 262.6637268066406 228.88609313964844 242.92813110351562" stroke-width="4.130080699920654" fill="none" stroke="rgb(0, 0, 0)" stroke-opacity="0.14287685" stroke-linecap="round" stroke-linejoin="round"/>
    <path d="M 228.8430633544922 469.9147033691406 C 230.13809204101562 430.8139343261719 204.2152099609375 415.7414245605469 243.4592742919922 392.0788879394531 C 245.6571044921875 401.5169372558594 218.9267120361328 425.0081787109375 224.71829223632812 469.3497619628906 C 212.92855834960938 484.20697021484375 241.72528076171875 440.5848388671875 204.38946533203125 486.5111389160156 C 211.1681671142578 437.0760192871094 196.3131103515625 418.57244873046875 230.96844482421875 445.4256896972656" stroke-width="10.81948471069336" fill="none" stroke="rgb(0, 0, 0)" stroke-opacity="0.58062124" stroke-linecap="round" stroke-linejoin="round"/>
    <path d="M 89.99378967285156 285.5426940917969 C 78.76163482666016 266.7567443847656 73.97931671142578 238.9811553955078 68.99861907958984 237.10899353027344 C 60.15999221801758 215.0552978515625 55.135189056396484 213.1574249267578 52.54499053955078 194.1621856689453 C 56.177574157714844 207.5467987060547 31.758237838745117 205.00502014160156 34.73503112792969 224.0462188720703 C 22.3272705078125 229.34165954589844 28.143020629882812 221.20986938476562 32.117889404296875 229.8228759765625" stroke-width="3.4460878372192383" fill="none" stroke="rgb(0, 0, 0)" stroke-opacity="0.42921537" stroke-linecap="round" stroke-linejoin="round"/>
  </g>
</svg>
