<?xml version="1.0" ?>
<svg xmlns="http://www.w3.org/2000/svg" version="1.1" width="600" height="600">
  <defs/>
  <g>
    <path d="M 278.0979919433594 97.4937515258789 C 193.3260040283203 79.0157241821289 199.04090881347656 165.1880340576172 154.4833526611328 167.06932067871094 C 193.18605041503906 159.7279510498047 140.2845916748047 167.7991180419922 152.67726135253906 109.89933013916016 C 187.6226043701172 120.97655487060547 218.1967010498047 132.8800506591797 193.18930053710938 98.43523406982422 C 201.73907470703125 106.31095886230469 199.44903564453125 134.7013397216797 249.0868377685547 74.57081604003906" stroke-width="2.0" fill="none" stroke="rgb(0, 0, 0)" stroke-opacity="0.9028828" stroke-linecap="round" stroke-linejoin="round"/>
    <path d="M 319.8403625488281 529.3936767578125 C 294.6726989746094 517.25244140625 312.1824645996094 531.6049194335938 313.455810546875 528.7771606445312 C 272.04461669921875 523.51220703125 262.2145080566406 550.993408203125 294.9186096191406 573.1107788085938 C 316.59136962890625 643.2269287109375 285.45880126953125 643.4661865234375 282.9783630371094 675.9737548828125 C 270.6776123046875 605.443115234375 260.7865905761719 627.6173095703125 244.6913604736328 651.9989624023438" stroke-width="3.9087677001953125" fill="none" stroke="rgb(0, 0, 0)" stroke-opacity="0.3227988" stroke-linecap="round" stroke-linejoin="round"/>
    <path d="M 520.5787353515625 500.20257568359375 C 505.6539611816406 487.5291442871094 522.8468627929688 446.78057861328125 502.13153076171875 457.151611328125 C 444.0840759277344 382.8749084472656 514.9051513671875 425.4087829589844 522.6975708007812 476.53631591796875 C 505.6507568359375 555.6376342773438 517.1258544921875 556.2159423828125 489.9004821777344 536.826904296875 C 533.1564331054688 559.328857421875 507.4538269042969 500.61932373046875 494.25091552734375 510.2408447265625" stroke-width="2.8439338207244873" fill="none" stroke="rgb(0, 0, 0)" stroke-opacity="0.7426791" stroke-linecap="round" stroke-linejoin="round"/>
    <path d="M 453.4179992675781 404.0155944824219 C 454.1221923828125 401.0279846191406 516.0878295898438 389.5765380859375 562.526123046875 354.4687194824219 C 553.8170166015625 296.0082092285156 562.1527099609375 332.88238525390625 555.1922607421875 343.8852844238281 C 545.4105834960938 336.3736877441406 558.7518310546875 313.6190185546875 581.6199340820312 305.8340148925781 C 578.614990234375 303.06243896484375 590.3749389648438 297.66326904296875 615.7708129882812 301.0060119628906" stroke-width="2.0" fill="none" stroke="rgb(0, 0, 0)" stroke-opacity="0.508648" stroke-linecap="round" stroke-linejoin="round"/>
    <path d="M 578.6738891601562 547.75439453125 C 633.3980712890625 544.0723876953125 609.068359375 501.903564453125 604.656494140625 476.5068664550781 C 633.0173950195312 541.6920166015625 657.0490112304688 511.50299072265625 671.8968505859375 518.5634155273438 C 699.00439453125 513.911376953125 689.0699462890625 512.37646484375 680.1314697265625 524.01513671875 C 652.6871948242188 494.7027282714844 632.91943359375 500.2618408203125 641.0106201171875 493.341552734375" stroke-width="4.771818161010742" fill="none" stroke="rgb(0, 0, 0)" stroke-opacity="0.4242406" stroke-linecap="round" stroke-linejoin="round"/>
    <path d="M 488.4985656738281 169.41610717773438 C 444.06396484375 182.40811157226562 473.7508239746094 164.8433837890625 467.2185363769531 141.09237670898438 C 468.3822937011719 160.93931579589844 461.5112609863281 96.82222747802734 532.284423828125 120.3833999633789 C 441.2470703125 134.25706481933594 484.05975341796875 118.9359359741211 510.6217956542969 134.55943298339844 C 535.6364135742188 200.282958984375 538.8682861328125 156.84605407714844 477.0453796386719 176.03134155273438" stroke-width="6.089577674865723" fill="none" stroke="rgb(0, 0, 0)" stroke-opacity="0.45690912" stroke-linecap="round" stroke-linejoin="round"/>
    <path d="M 329.8424987792969 546.4035034179688 C 378.8869323730469 531.4801025390625 353.080322265625 517.7654418945312 349.7795715332031 528.69482421875 C 360.6736145019531 544.84423828125 374.8913269042969 560.4140625 374.128173828125 562.6366577148438 C 326.4019775390625 571.1181030273438 374.2132873535156 537.5342407226562 393.9773254394531 550.3421020507812 C 395.0679626464844 558.897216796875 370.97125244140625 548.552001953125 396.66119384765625 555.695068359375" stroke-width="2.0" fill="none" stroke="rgb(0, 0, 0)" stroke-opacity="0.12150875" stroke-linecap="round" stroke-linejoin="round"/>
    <path d="M -7.2060394287109375 264.2143859863281 C -3.6379587650299072 236.619873046875 -6.9485249519348145 243.0026397705078 -5.576006889343262 230.0914764404297 C -21.76945686340332 259.3937072753906 -2.9274494647979736 326.6614074707031 -4.378960609436035 338.2542724609375 C -49.75058364868164 225.36056518554688 -68.01628875732422 238.8018798828125 -81.91898345947266 275.4494934082031 C -112.70038604736328 306.9242248535156 -112.60957336425781 285.447265625 -133.0029296875 289.1683044433594" stroke-width="2.0" fill="none" stroke="rgb(0, 0, 0)" stroke-opacity="0.6377171" stroke-linecap="round" stroke-linejoin="round"/>
    <path d="M 70.87374114990234 382.3985290527344 C 93.6444091796875 372.27001953125 109.05741119384766 370.31695556640625 121.90773010253906 322.7474060058594 C 64.06365203857422 268.07220458984375 153.98281860351562 205.3303680419922 121.00775146484375 204.13340759277344 C 60.94510269165039 300.0888671875 86.0261001586914 358.0908508300781 120.26173400878906 311.33447265625 C 152.33871459960938 362.7017517089844 270.59161376953125 360.8838806152344 242.84750366210938 335.4137268066406" stroke-width="4.852370262145996" fill="none" stroke="rgb(0, 0, 0)" stroke-opacity="0.6367041" stroke-linecap="round" stroke-linejoin="round"/>
    <path d="M 232.97872924804688 513.17724609375 C 217.3218231201172 483.734375 250.04437255859375 499.1484069824219 226.4178009033203 462.7081298828125 C 224.18836975097656 503.0718688964844 227.298828125 511.8350830078125 217.82801818847656 473.28558349609375 C 209.6618194580078 468.5535888671875 204.16627502441406 474.5936279296875 219.92616271972656 461.3651123046875 C 238.73126220703125 470.0063171386719 255.8126678466797 419.4874267578125 220.328857421875 462.59307861328125" stroke-width="2.0" fill="none" stroke="rgb(0, 0, 0)" stroke-opacity="0.30883867" stroke-linecap="round" stroke-linejoin="round"/>
    <path d="M 71.02081298828125 421.8196105957031 C 47.59771728515625 403.66314697265625 89.54012298583984 397.5472717285156 105.80695343017578 369.5302429199219 C 127.4038314819336 353.9983825683594 145.82131958007812 326.78009033203125 106.06981658935547 357.19549560546875 C 90.4902572631836 304.0162048339844 46.157108306884766 335.2025146484375 100.97161865234375 235.25869750976562 C 154.54261779785156 290.22552490234375 155.77554321289062 319.62890625 175.2014923095703 292.4132080078125" stroke-width="4.486363410949707" fill="none" stroke="rgb(0, 0, 0)" stroke-opacity="0.72780436" stroke-linecap="round" stroke-linejoin="round"/>
    <path d="M 5.190728187561035 180.7138671875 C 125.19862365722656 178.6904296875 71.62860870361328 152.87672424316406 70.44043731689453 180.46450805664062 C 4.186934471130371 199.78103637695312 -11.685632705688477 212.89820861816406 50.144439697265625 183.29039001464844 C 57.46432113647461 99.06023406982422 -2.046781063079834 103.16316223144531 1.4796851873397827 164.90762329101562 C -15.396788597106934 178.71961975097656 -71.67354583740234 159.45059204101562 -115.05565643310547 140.89804077148438" stroke-width="2.1110575199127197" fill="none" stroke="rgb(0, 0, 0)" stroke-opacity="0.954389" stroke-linecap="round" stroke-linejoin="round"/>
    <path d="M 228.0477294921875 155.13943481445312 C 273.043701171875 110.64297485351562 273.20086669921875 153.2171173095703 266.0329895019531 176.34999084472656 C 250.6920166015625 108.65335845947266 195.49136352539062 113.07630157470703 212.45773315429688 151.0370635986328 C 179.269287109375 159.35577392578125 181.25245666503906 112.39907836914062 233.11854553222656 117.96797943115234 C 213.19522094726562 173.54734802246094 163.2148895263672 164.610107421875 68.9585189819336 161.37460327148438" stroke-width="2.0" fill="none" stroke="rgb(0, 0, 0)" stroke-opacity="0.34577507" stroke-linecap="round" stroke-linejoin="round"/>
    <path d="M 416.91815185546875 442.2076721191406 C 418.3335876464844 439.8710021972656 399.8194580078125 445.544921875 429.91009521484375 438.9355773925781 C 399.4451599121094 445.83599853515625 415.59075927734375 416.9877624511719 413.89678955078125 442.4495544433594 C 441.66064453125 443.9215087890625 419.3275451660156 422.7643127441406 369.81219482421875 405.9560241699219 C 381.5291748046875 417.5502624511719 386.34771728515625 422.8818664550781 384.5875549316406 419.670166015625" stroke-width="2.0" fill="none" stroke="rgb(0, 0, 0)" stroke-opacity="0.101243734" stroke-linecap="round" stroke-linejoin="round"/>
    <path d="M 544.7820434570312 -49.32541275024414 C 542.4160766601562 -62.942596435546875 551.2715454101562 -26.41561508178711 502.3424072265625 -26.65276336669922 C 484.49066162109375 47.76023483276367 537.4137573242188 74.82593536376953 582.01513671875 49.29188537597656 C 605.0604858398438 52.89851760864258 609.8597412109375 58.83314895629883 664.7469482421875 36.64743423461914 C 641.411865234375 4.184473037719727 638.800537109375 25.973413467407227 611.7520751953125 44.84246826171875" stroke-width="2.0" fill="none" stroke="rgb(0, 0, 0)" stroke-opacity="0.26770106" stroke-linecap="round" stroke-linejoin="round"/>
    <path d="M -2.0249836444854736 440.5011291503906 C -38.9031982421875 428.8965148925781 -5.089807987213135 440.5683288574219 -2.100358009338379 446.75225830078125 C -12.958839416503906 425.68768310546875 -12.776281356811523 454.6620178222656 -18.034852981567383 439.9952392578125 C -45.60756301879883 400.70855712890625 -45.554508209228516 400.9875183105469 -56.71832275390625 422.137451171875 C -54.69553756713867 401.1770935058594 -49.33930206298828 378.4521179199219 -40.00008773803711 389.91064453125" stroke-width="2.0" fill="none" stroke="rgb(0, 0, 0)" stroke-opacity="0.3248268" stroke-linecap="round" stroke-linejoin="round"/>
    <path d="M 224.39834594726562 146.22268676757812 C 229.15615844726562 152.4031219482422 249.873291015625 113.9825668334961 337.1878662109375 144.104248046875 C 289.306396484375 206.08827209472656 263.93939208984375 178.7984619140625 240.09124755859375 147.222900390625 C 188.8087158203125 182.87330627441406 257.3219299316406 154.17144775390625 342.9622497558594 119.77549743652344 C 302.8655090332031 31.089393615722656 300.2862243652344 70.52291870117188 308.5751037597656 72.01812744140625" stroke-width="12.0" fill="none" stroke="rgb(0, 0, 0)" stroke-opacity="0.06037341" stroke-linecap="round" stroke-linejoin="round"/>
    <path d="M 607.231201171875 94.44322967529297 C 647.0117797851562 89.780029296875 661.9924926757812 58.7740478515625 613.9493408203125 121.49669647216797 C 618.4938354492188 88.06948852539062 609.5012817382812 90.61196899414062 659.0054321289062 73.75658416748047 C 633.8345336914062 83.08861541748047 626.1045532226562 86.57178497314453 585.93603515625 82.68092346191406 C 540.8489990234375 82.7633056640625 540.8421020507812 71.38159942626953 538.2596435546875 57.073822021484375" stroke-width="4.8836236000061035" fill="none" stroke="rgb(0, 0, 0)" stroke-opacity="0.14114578" stroke-linecap="round" stroke-linejoin="round"/>
    <path d="M 195.3320770263672 504.24908447265625 C 218.65631103515625 541.984619140625 212.8376922607422 544.729248046875 236.16749572753906 515.82763671875 C 226.9689483642578 525.6221923828125 228.89808654785156 519.5985107421875 225.9457550048828 456.9402160644531 C 250.0914306640625 434.2915954589844 236.58627319335938 410.106689453125 248.56385803222656 441.91192626953125 C 253.69363403320312 436.3041076660156 288.0928649902344 377.0311279296875 247.6290283203125 426.7270202636719" stroke-width="2.1800284385681152" fill="none" stroke="rgb(0, 0, 0)" stroke-opacity="0.4053946" stroke-linecap="round" stroke-linejoin="round"/>
    <path d="M 537.1499633789062 550.9283447265625 C 530.724365234375 549.406982421875 485.9593505859375 557.8073120117188 506.2127685546875 554.8982543945312 C 532.65625 551.9314575195312 535.9281616210938 548.4143676757812 515.4198608398438 553.3759155273438 C 548.2720947265625 546.4312744140625 554.5465087890625 552.2317504882812 555.712158203125 550.197998046875 C 529.533447265625 552.9376831054688 540.753173828125 549.5425415039062 522.005615234375 551.8426513671875" stroke-width="2.0" fill="none" stroke="rgb(0, 0, 0)" stroke-opacity="0.44067585" stroke-linecap="round" stroke-linejoin="round"/>
    <path d="M 554.4027709960938 309.7546691894531 C 554.6013793945312 333.2735290527344 533.5679321289062 313.8541259765625 567.1658325195312 297.43109130859375 C 638.0040893554688 292.2451171875 646.7017822265625 258.3060607910156 651.8641967773438 309.0174255371094 C 669.1698608398438 370.9269104003906 680.23681640625 366.15557861328125 658.7245483398438 363.8946838378906 C 635.5371704101562 352.13739013671875 658.115234375 375.31500244140625 642.3690185546875 396.1959228515625" stroke-width="2.9863946437835693" fill="none" stroke="rgb(0, 0, 0)" stroke-opacity="0.069342785" stroke-linecap="round" stroke-linejoin="round"/>
    <path d="M 109.21961212158203 -5.710468292236328 C 124.40758514404297 -11.582616806030273 138.58834838867188 -9.838410377502441 129.37557983398438 -17.9510555267334 C 82.94593811035156 -22.457490921020508 53.08134460449219 -23.701961517333984 38.691619873046875 -12.244833946228027 C 53.52695083618164 9.102697372436523 43.842166900634766 -21.686426162719727 37.01314163208008 -46.230140686035156 C 19.923301696777344 -33.540428161621094 -0.22611863911151886 -29.174501419067383 17.908828735351562 -44.988346099853516" stroke-width="2.0" fill="none" stroke="rgb(0, 0, 0)" stroke-opacity="0.4400807" stroke-linecap="round" stroke-linejoin="round"/>
    <path d="M 351.42120361328125 395.1075744628906 C 415.7331237792969 382.2393493652344 454.5260925292969 385.2745666503906 452.87091064453125 399.87786865234375 C 424.0599060058594 346.45782470703125 389.55877685546875 386.4710998535156 405.13592529296875 369.263671875 C 430.2366027832031 385.47576904296875 393.73822021484375 381.9972229003906 459.21795654296875 391.7254333496094 C 477.3095397949219 360.1820373535156 463.5218811035156 377.07049560546875 471.4393310546875 376.5667724609375" stroke-width="2.204989194869995" fill="none" stroke="rgb(0, 0, 0)" stroke-opacity="0.06981526" stroke-linecap="round" stroke-linejoin="round"/>
    <path d="M 438.5355224609375 385.8824157714844 C 471.8192443847656 430.7455749511719 478.6381530761719 381.4020080566406 509.8459777832031 337.06005859375 C 509.4158020019531 323.711669921875 529.5718994140625 326.7103271484375 508.2298889160156 327.13177490234375 C 557.1243286132812 311.277587890625 553.6747436523438 298.5072326660156 579.0150146484375 277.6756591796875 C 621.2281494140625 289.28509521484375 622.2047119140625 268.95550537109375 648.4102783203125 235.2010040283203" stroke-width="2.0" fill="none" stroke="rgb(0, 0, 0)" stroke-opacity="0.9888848" stroke-linecap="round" stroke-linejoin="round"/>
    <path d="M 378.93963623046875 366.7792053222656 C 393.1467590332031 360.8843688964844 411.1636047363281 388.4923095703125 377.8539733886719 392.0720520019531 C 349.3065490722656 391.3387756347656 373.053955078125 401.33251953125 344.0892333984375 405.5902404785156 C 347.697021484375 403.7330017089844 362.3330078125 409.82708740234375 324.3009033203125 394.32220458984375 C 314.8127746582031 394.5623779296875 305.4269104003906 388.8815002441406 338.6980285644531 405.07012939453125" stroke-width="2.0" fill="none" stroke="rgb(0, 0, 0)" stroke-opacity="0.5657301" stroke-linecap="round" stroke-linejoin="round"/>
    <path d="M 226.9256134033203 507.5274658203125 C 201.7290802001953 541.1130981445312 176.41842651367188 555.0496215820312 189.93826293945312 575.4984741210938 C 211.4818115234375 511.7738342285156 187.1083526611328 490.72711181640625 189.0264434814453 471.25482177734375 C 131.88035583496094 467.4289855957031 143.4141845703125 486.4702453613281 132.31976318359375 422.0466613769531 C 77.52449035644531 420.87091064453125 96.09593200683594 474.09515380859375 46.2369499206543 445.0547180175781" stroke-width="2.0" fill="none" stroke="rgb(0, 0, 0)" stroke-opacity="0.6527612" stroke-linecap="round" stroke-linejoin="round"/>
    <path d="M 344.0428161621094 317.7686767578125 C 286.2357177734375 196.41748046875 237.11354064941406 197.5604248046875 278.2219543457031 124.4697036743164 C 294.27471923828125 89.34681701660156 194.764892578125 99.5597152709961 272.36798095703125 148.07443237304688 C 237.7899169921875 150.40823364257812 215.9500732421875 151.6952362060547 163.39389038085938 196.88929748535156 C 202.9051513671875 224.87109375 246.07635498046875 172.97140502929688 305.55548095703125 144.3431396484375" stroke-width="2.3389127254486084" fill="none" stroke="rgb(0, 0, 0)" stroke-opacity="0.6666148" stroke-linecap="round" stroke-linejoin="round"/>
    <path d="M 263.64312744140625 142.08316040039062 C 371.277587890625 143.67051696777344 347.1057434082031 93.64055633544922 307.3289794921875 95.06118774414062 C 289.8933410644531 141.39956665039062 367.1130065917969 119.104736328125 322.6728210449219 149.08255004882812 C 317.36285400390625 209.41177368164062 278.32318115234375 186.64540100097656 345.8653259277344 148.81985473632812 C 286.5777893066406 142.67376708984375 330.5415954589844 137.41648864746094 240.54470825195312 163.87657165527344" stroke-width="9.699514389038086" fill="none" stroke="rgb(0, 0, 0)" stroke-opacity="0.2629616" stroke-linecap="round" stroke-linejoin="round"/>
    <path d="M 466.2411804199219 380.69769287109375 C 488.92486572265625 390.9186096191406 509.5584716796875 385.6871032714844 520.2448120117188 355.2463073730469 C 513.638427734375 366.2384338378906 509.69464111328125 375.3889465332031 523.0651245117188 309.7771301269531 C 559.720458984375 298.4523620605469 567.4003295898438 312.64801025390625 544.7667846679688 347.74786376953125 C 534.2820434570312 374.1661682128906 521.1837768554688 367.49371337890625 491.9549560546875 377.4737243652344" stroke-width="2.0" fill="none" stroke="rgb(0, 0, 0)" stroke-opacity="0.79757375" stroke-linecap="round" stroke-linejoin="round"/>
    <path d="M 47.28164291381836 523.6397705078125 C 47.692684173583984 529.5656127929688 24.76887321472168 530.6902465820312 89.66978454589844 541.2162475585938 C 70.27472686767578 531.4085083007812 58.8195915222168 534.4696655273438 -55.464107513427734 524.8916015625 C -9.775355339050293 579.260498046875 5.060624599456787 625.4808349609375 14.263509750366211 628.2661743164062 C 23.585311889648438 559.6950073242188 -29.051956176757812 591.45166015625 14.343582153320312 570.2518920898438" stroke-width="4.3066725730896" fill="none" stroke="rgb(0, 0, 0)" stroke-opacity="0.082832314" stroke-linecap="round" stroke-linejoin="round"/>
    <path d="M 290.6194763183594 419.7498474121094 C 281.650390625 445.9404602050781 312.3208312988281 434.1497802734375 301.2288818359375 427.25347900390625 C 277.7738952636719 449.15765380859375 257.15228271484375 430.4254455566406 284.02099609375 418.45062255859375 C 270.0336608886719 479.6140441894531 273.22021484375 451.9284362792969 301.9228820800781 433.1998596191406 C 302.6925964355469 432.7913513183594 297.0926818847656 450.503662109375 329.5722351074219 456.0187683105469" stroke-width="4.242461681365967" fill="none" stroke="rgb(0, 0, 0)" stroke-opacity="0.21557195" stroke-linecap="round" stroke-linejoin="round"/>
    <path d="M 607.6820068359375 181.02642822265625 C 601.8760375976562 180.79537963867188 609.1319580078125 196.44761657714844 691.8935546875 135.64468383789062 C 644.572998046875 125.5281982421875 648.103759765625 119.58203125 583.466064453125 71.19526672363281 C 525.6220703125 139.29620361328125 534.6441040039062 113.398681640625 529.3058471679688 100.58540344238281 C 489.8260803222656 122.11474609375 520.155029296875 135.63551330566406 480.00634765625 152.28009033203125" stroke-width="2.0" fill="none" stroke="rgb(0, 0, 0)" stroke-opacity="0.6087767" stroke-linecap="round" stroke-linejoin="round"/>
    <path d="M 448.82275390625 372.2212829589844 C 464.5414123535156 375.1092224121094 464.1877746582031 372.11383056640625 499.0722351074219 357.2663879394531 C 514.7244262695312 338.2678527832031 507.275390625 330.84375 501.171630859375 356.6409606933594 C 502.6036071777344 346.0230712890625 514.5379028320312 342.2912292480469 520.8424072265625 331.03082275390625 C 517.40478515625 332.2116394042969 514.3802490234375 344.88580322265625 507.8905029296875 342.13446044921875" stroke-width="2.0" fill="none" stroke="rgb(0, 0, 0)" stroke-opacity="0.35987553" stroke-linecap="round" stroke-linejoin="round"/>
    <path d="M 46.10416030883789 423.1944580078125 C 37.5888557434082 466.05218505859375 18.717029571533203 499.2631530761719 -47.60540008544922 490.7188720703125 C -11.065530776977539 469.59661865234375 -0.7161171436309814 492.5186767578125 -77.97210693359375 549.43212890625 C -25.48572540283203 540.6123046875 3.176222324371338 570.953857421875 14.261726379394531 582.3924560546875 C -79.5228042602539 488.58843994140625 -98.95952606201172 492.5257873535156 -107.783203125 463.8720703125" stroke-width="2.0" fill="none" stroke="rgb(0, 0, 0)" stroke-opacity="0.26963592" stroke-linecap="round" stroke-linejoin="round"/>
    <path d="M 38.95799255371094 116.05115509033203 C 52.8621711730957 91.92477416992188 43.67789840698242 108.43267822265625 48.87803268432617 110.25288391113281 C 55.45029830932617 120.1207275390625 35.13365936279297 155.7823486328125 80.94607543945312 134.1109161376953 C 107.39641571044922 124.38736724853516 52.913665771484375 140.7928466796875 108.45222473144531 117.73164367675781 C 118.0229263305664 125.54281616210938 155.47622680664062 95.14921569824219 151.4173126220703 116.71762084960938" stroke-width="2.0" fill="none" stroke="rgb(0, 0, 0)" stroke-opacity="0.86873937" stroke-linecap="round" stroke-linejoin="round"/>
    <path d="M 412.3628845214844 352.4953918457031 C 470.5125427246094 386.0912170410156 409.5519714355469 333.56805419921875 389.88604736328125 353.1980285644531 C 359.34210205078125 380.04302978515625 350.07720947265625 341.7209167480469 331.73388671875 364.265869140625 C 308.1759948730469 382.6509094238281 326.43841552734375 364.2668762207031 310.4202880859375 337.6711730957031 C 306.2022399902344 400.6718444824219 335.636962890625 393.9208068847656 353.2227478027344 300.01507568359375" stroke-width="9.642704010009766" fill="none" stroke="rgb(0, 0, 0)" stroke-opacity="0.37965783" stroke-linecap="round" stroke-linejoin="round"/>
    <path d="M 207.13421630859375 360.160888671875 C 138.9108123779297 345.1979675292969 160.66070556640625 363.0960998535156 229.6413116455078 370.90966796875 C 269.8909912109375 384.5756530761719 235.83474731445312 380.08856201171875 168.6378173828125 358.5439453125 C 171.13638305664062 337.1666259765625 192.05641174316406 380.44622802734375 166.21165466308594 345.09088134765625 C 185.1062469482422 359.4194030761719 187.03018188476562 369.9559326171875 99.55368041992188 310.56658935546875" stroke-width="9.379783630371094" fill="none" stroke="rgb(0, 0, 0)" stroke-opacity="0.87643605" stroke-linecap="round" stroke-linejoin="round"/>
    <path d="M 289.1269836425781 158.45106506347656 C 327.507568359375 146.65965270996094 370.7459716796875 105.15556335449219 408.3658752441406 102.19791412353516 C 307.7408447265625 115.47884368896484 336.74456787109375 94.21368408203125 308.53192138671875 99.10132598876953 C 277.86041259765625 74.64013671875 279.124267578125 57.649715423583984 255.69552612304688 75.10350799560547 C 288.1590881347656 61.909576416015625 290.04119873046875 78.81640625 337.0323486328125 120.56765747070312" stroke-width="11.211285591125488" fill="none" stroke="rgb(0, 0, 0)" stroke-opacity="0.49004096" stroke-linecap="round" stroke-linejoin="round"/>
    <path d="M 286.6156921386719 383.7780456542969 C 268.5086975097656 454.17529296875 306.2735595703125 454.8465881347656 285.27178955078125 488.3906555175781 C 246.32594299316406 478.95562744140625 287.5310974121094 443.43914794921875 275.142333984375 418.6097717285156 C 268.64453125 504.3367004394531 273.1770935058594 505.5015869140625 254.45132446289062 536.56201171875 C 273.14501953125 556.9457397460938 289.4981994628906 552.0697631835938 272.1638488769531 540.514404296875" stroke-width="5.049682140350342" fill="none" stroke="rgb(0, 0, 0)" stroke-opacity="1.0" stroke-linecap="round" stroke-linejoin="round"/>
    <path d="M 308.12066650390625 76.68649291992188 C 388.21771240234375 150.38165283203125 334.9539794921875 146.00787353515625 289.52935791015625 100.20243835449219 C 288.57513427734375 139.22903442382812 336.80108642578125 115.7712631225586 296.88922119140625 161.2080078125 C 351.6431884765625 139.8425750732422 262.1065979003906 82.44078826904297 274.91143798828125 90.78573608398438 C 304.9735107421875 143.43519592285156 273.87994384765625 145.4814910888672 389.9206848144531 107.71424865722656" stroke-width="3.351879596710205" fill="none" stroke="rgb(0, 0, 0)" stroke-opacity="0.6915846" stroke-linecap="round" stroke-linejoin="round"/>
    <path d="M 608.2237548828125 246.6527862548828 C 614.463134765625 181.7703094482422 603.8279418945312 217.0973358154297 610.0429077148438 271.96331787109375 C 599.3457641601562 257.0355529785156 635.7819213867188 248.21109008789062 656.2364501953125 257.95660400390625 C 629.8240966796875 266.59405517578125 621.5276489257812 255.46490478515625 618.9265747070312 255.2985382080078 C 605.7395629882812 275.96044921875 601.2770385742188 299.32861328125 610.98876953125 264.8740539550781" stroke-width="6.680525302886963" fill="none" stroke="rgb(0, 0, 0)" stroke-opacity="0.74502814" stroke-linecap="round" stroke-linejoin="round"/>
    <path d="M 317.36199951171875 366.536376953125 C 396.4270935058594 368.91644287109375 429.3586120605469 321.1767578125 352.0259094238281 367.0223693847656 C 372.728759765625 298.3262634277344 398.3007507324219 207.9038543701172 399.6352844238281 330.3167419433594 C 320.3259582519531 418.9102478027344 342.5062255859375 311.82574462890625 388.6043395996094 274.3085632324219 C 403.23193359375 335.3001708984375 370.16357421875 244.5664825439453 427.1746826171875 178.8433837890625" stroke-width="12.0" fill="none" stroke="rgb(0, 0, 0)" stroke-opacity="0.9391661" stroke-linecap="round" stroke-linejoin="round"/>
    <path d="M 140.5854034423828 432.8295593261719 C 153.82196044921875 451.92742919921875 150.37747192382812 473.28411865234375 125.67318725585938 437.3692321777344 C 115.83173370361328 435.60009765625 91.53050231933594 449.6100769042969 108.86003875732422 445.1121520996094 C 124.50299835205078 496.3961486816406 130.0233612060547 487.7331848144531 120.24085998535156 485.055419921875 C 185.77682495117188 481.9216613769531 195.9495849609375 499.4073486328125 184.1926727294922 516.5311889648438" stroke-width="9.71151351928711" fill="none" stroke="rgb(0, 0, 0)" stroke-opacity="0.19614093" stroke-linecap="round" stroke-linejoin="round"/>
    <path d="M 151.1785888671875 177.18760681152344 C 131.88328552246094 158.91119384765625 106.38370513916016 151.10406494140625 125.15478515625 169.39627075195312 C 146.2414093017578 197.529296875 153.0214080810547 173.74270629882812 92.1953353881836 174.7107391357422 C 38.38222885131836 162.55548095703125 32.106719970703125 143.75347900390625 28.1739501953125 188.8517303466797 C 121.9100112915039 179.8885040283203 138.60829162597656 149.9731903076172 86.46685791015625 165.88735961914062" stroke-width="7.766383171081543" fill="none" stroke="rgb(0, 0, 0)" stroke-opacity="0.7336478" stroke-linecap="round" stroke-linejoin="round"/>
    <path d="M 277.1729736328125 440.80487060546875 C 262.3363037109375 438.01385498046875 285.26776123046875 432.6688537597656 298.57525634765625 418.0216369628906 C 326.7735290527344 447.977294921875 323.9394836425781 432.07952880859375 298.85638427734375 422.3302917480469 C 285.3194274902344 502.8183898925781 265.8558349609375 519.5914306640625 272.3541564941406 519.1728515625 C 272.9963073730469 438.9855041503906 278.89471435546875 444.8309326171875 275.1354064941406 550.6619262695312" stroke-width="3.775263547897339" fill="none" stroke="rgb(0, 0, 0)" stroke-opacity="0.4648476" stroke-linecap="round" stroke-linejoin="round"/>
    <path d="M 398.3984069824219 342.8008728027344 C 411.5724792480469 310.3406066894531 420.60601806640625 310.2703857421875 393.0976867675781 247.108642578125 C 364.912353515625 304.5212097167969 328.7483215332031 341.293212890625 398.72406005859375 293.588134765625 C 380.30657958984375 250.2300567626953 373.2586669921875 315.37548828125 409.19476318359375 348.91693115234375 C 333.1435546875 361.0643005371094 305.9114990234375 350.3037414550781 289.88427734375 450.7626647949219" stroke-width="11.430933952331543" fill="none" stroke="rgb(0, 0, 0)" stroke-opacity="0.7688896" stroke-linecap="round" stroke-linejoin="round"/>
    <path d="M 456.0650634765625 286.53021240234375 C 444.3857421875 279.7359313964844 438.8202819824219 345.2814025878906 354.1322937011719 277.2436828613281 C 396.62213134765625 167.85235595703125 387.7247009277344 171.11131286621094 445.1029052734375 250.74493408203125 C 489.9092712402344 281.96820068359375 476.8415222167969 246.23619079589844 450.4976806640625 209.58192443847656 C 474.88232421875 172.94003295898438 472.2451171875 100.0506362915039 422.28204345703125 164.62818908691406" stroke-width="2.2605273723602295" fill="none" stroke="rgb(0, 0, 0)" stroke-opacity="0.051843703" stroke-linecap="round" stroke-linejoin="round"/>
    <path d="M 328.3360290527344 120.32998657226562 C 388.22259521484375 36.97245788574219 391.92364501953125 36.43330001831055 446.4181823730469 99.45379638671875 C 482.8489990234375 105.76107025146484 469.66925048828125 50.404090881347656 458.8422546386719 95.61714935302734 C 444.36444091796875 71.878662109375 446.6607666015625 80.08185577392578 460.4164123535156 105.4505615234375 C 453.7056579589844 79.20526123046875 475.2562561035156 58.7020263671875 467.99517822265625 115.52399444580078" stroke-width="3.071460723876953" fill="none" stroke="rgb(0, 0, 0)" stroke-opacity="0.64412576" stroke-linecap="round" stroke-linejoin="round"/>
    <path d="M 523.5953369140625 170.10684204101562 C 527.5986938476562 122.55884552001953 472.620849609375 84.97168731689453 499.02099609375 121.69923400878906 C 468.7723693847656 137.4453887939453 470.33538818359375 119.96788787841797 472.5019836425781 82.0059585571289 C 436.2728271484375 76.56330108642578 408.53009033203125 51.62089157104492 442.86419677734375 -37.827144622802734 C 463.85626220703125 -11.7902250289917 493.5055236816406 3.163167953491211 490.3534851074219 -8.76342487335205" stroke-width="8.142535209655762" fill="none" stroke="rgb(0, 0, 0)" stroke-opacity="0.43221048" stroke-linecap="round" stroke-linejoin="round"/>
    <path d="M 513.348388671875 505.1629333496094 C 519.0824584960938 494.93927001953125 525.3203735351562 459.28448486328125 493.9710693359375 461.4941101074219 C 508.065185546875 482.3511657714844 501.36181640625 466.7131042480469 521.1334228515625 488.324951171875 C 507.6623229980469 502.0821533203125 526.794189453125 527.7596435546875 497.85003662109375 507.7834777832031 C 478.8214416503906 487.5579528808594 492.8932189941406 505.3663635253906 515.982421875 518.0531616210938" stroke-width="5.505187511444092" fill="none" stroke="rgb(0, 0, 0)" stroke-opacity="0.3025257" stroke-linecap="round" stroke-linejoin="round"/>
    <path d="M 268.3821105957031 174.5734405517578 C 163.89501953125 235.90576171875 109.30987548828125 196.62777709960938 249.8866424560547 134.236328125 C 242.30044555664062 162.40121459960938 168.2525177001953 189.31910705566406 212.0901641845703 134.38748168945312 C 249.50936889648438 111.71727752685547 274.3878173828125 107.97936248779297 283.50909423828125 145.4741668701172 C 300.9453430175781 155.94192504882812 251.30670166015625 150.23948669433594 197.41160583496094 183.93106079101562" stroke-width="2.0" fill="none" stroke="rgb(0, 0, 0)" stroke-opacity="0.86558974" stroke-linecap="round" stroke-linejoin="round"/>
    <path d="M 128.07318115234375 199.1261749267578 C 178.22256469726562 185.21066284179688 212.22073364257812 162.35597229003906 231.1525115966797 151.81716918945312 C 232.23464965820312 192.1807403564453 169.00411987304688 182.34588623046875 200.5729217529297 180.9246826171875 C 204.67144775390625 214.3865203857422 218.74783325195312 159.0291748046875 300.2795104980469 158.0383758544922 C 285.6427307128906 169.9336700439453 242.54559326171875 179.69479370117188 195.1437530517578 198.77890014648438" stroke-width="3.9179766178131104" fill="none" stroke="rgb(0, 0, 0)" stroke-opacity="0.9237943" stroke-linecap="round" stroke-linejoin="round"/>
    <path d="M 215.32357788085938 292.4391784667969 C 211.90370178222656 293.2034606933594 208.1163787841797 296.78228759765625 185.74966430664062 304.79766845703125 C 182.14724731445312 298.01959228515625 157.33079528808594 326.4744567871094 215.84417724609375 358.9361877441406 C 202.83740234375 373.9836120605469 241.24609375 382.89544677734375 293.7486572265625 351.9949645996094 C 315.3084411621094 341.736328125 246.70294189453125 339.7843017578125 274.90765380859375 394.7209167480469" stroke-width="3.540530204772949" fill="none" stroke="rgb(0, 0, 0)" stroke-opacity="0.27814385" stroke-linecap="round" stroke-linejoin="round"/>
    <path d="M 198.30860900878906 537.0936279296875 C 204.1265411376953 532.3728637695312 211.075439453125 524.8976440429688 194.33908081054688 537.356201171875 C 167.2984619140625 566.3181762695312 198.11749267578125 597.5765380859375 232.02734375 563.1920166015625 C 257.9486389160156 549.993408203125 241.67691040039062 579.6344604492188 286.5277404785156 569.4918823242188 C 279.4720458984375 551.7264404296875 271.7580261230469 563.9634399414062 280.6322021484375 471.2454528808594" stroke-width="4.167761325836182" fill="none" stroke="rgb(0, 0, 0)" stroke-opacity="0.5287222" stroke-linecap="round" stroke-linejoin="round"/>
    <path d="M 143.0665283203125 431.61956787109375 C 147.43215942382812 453.2572021484375 139.78469848632812 473.8795166015625 126.34135437011719 440.0410461425781 C 109.64979553222656 420.7188720703125 119.90072631835938 426.3149719238281 134.14707946777344 419.74664306640625 C 142.9741668701172 428.0095520019531 168.7138671875 479.7820739746094 145.3441925048828 459.80511474609375 C 125.92205047607422 422.1692199707031 103.09111022949219 454.3321838378906 58.139522552490234 465.1648864746094" stroke-width="4.6800007820129395" fill="none" stroke="rgb(0, 0, 0)" stroke-opacity="0.30607706" stroke-linecap="round" stroke-linejoin="round"/>
    <path d="M 106.71670532226562 310.5943603515625 C 50.63435363769531 327.6812744140625 53.43050003051758 327.7769775390625 26.905681610107422 354.8542785644531 C 48.320411682128906 335.221923828125 72.97112274169922 320.3398742675781 66.70765686035156 316.1982727050781 C 76.62448120117188 295.35797119140625 98.83301544189453 259.5583190917969 77.74362182617188 313.6916809082031 C 138.1675567626953 334.26702880859375 104.26081085205078 369.6611633300781 77.905029296875 300.1727294921875" stroke-width="11.486913681030273" fill="none" stroke="rgb(0, 0, 0)" stroke-opacity="0.9605628" stroke-linecap="round" stroke-linejoin="round"/>
    <path d="M 407.68890380859375 436.475341796875 C 406.86236572265625 426.96734619140625 426.8208923339844 448.05340576171875 417.63421630859375 437.8461608886719 C 426.0400390625 452.5266418457031 448.80438232421875 416.2113037109375 453.4613037109375 472.4222106933594 C 492.59417724609375 452.6190490722656 507.3004150390625 454.837890625 488.1663818359375 431.0106201171875 C 472.177978515625 413.0330505371094 448.4130859375 383.9918518066406 407.5419616699219 382.58624267578125" stroke-width="2.205479383468628" fill="none" stroke="rgb(0, 0, 0)" stroke-opacity="0.35050777" stroke-linecap="round" stroke-linejoin="round"/>
    <path d="M 44.26768493652344 326.6841125488281 C 10.476879119873047 376.20074462890625 18.016727447509766 340.3175354003906 62.93502426147461 319.09466552734375 C 57.502071380615234 323.5386657714844 54.60652542114258 330.7844543457031 -8.37868881225586 374.83160400390625 C 16.38172721862793 280.83355712890625 11.348969459533691 244.85546875 4.420774459838867 260.6112060546875 C -35.86709213256836 277.7175598144531 -35.95484924316406 298.4566955566406 -38.266273498535156 300.774658203125" stroke-width="9.90993595123291" fill="none" stroke="rgb(0, 0, 0)" stroke-opacity="0.24771234" stroke-linecap="round" stroke-linejoin="round"/>
    <path d="M 468.15509033203125 222.6559600830078 C 402.6602783203125 193.63238525390625 445.4838562011719 131.476318359375 471.20037841796875 141.260986328125 C 451.7928161621094 192.19923400878906 505.3891906738281 158.49461364746094 520.79345703125 178.14466857910156 C 542.6971435546875 166.07205200195312 494.74786376953125 115.10913848876953 506.35296630859375 215.84791564941406 C 499.85260009765625 250.93679809570312 532.1229858398438 288.7436828613281 487.9300537109375 265.3782958984375" stroke-width="3.973755121231079" fill="none" stroke="rgb(0, 0, 0)" stroke-opacity="0.38320655" stroke-linecap="round" stroke-linejoin="round"/>
    <path d="M 250.3558807373047 356.1351623535156 C 216.6870880126953 357.4142761230469 254.7976531982422 354.2799377441406 259.18841552734375 339.51190185546875 C 239.350341796875 358.9581298828125 264.66973876953125 309.6395263671875 250.83535766601562 321.01898193359375 C 256.1198425292969 380.350830078125 241.43795776367188 369.06268310546875 257.7901916503906 299.84698486328125 C 261.6151428222656 350.2778625488281 242.9309539794922 389.1778869628906 307.2660827636719 340.2492980957031" stroke-width="6.553055286407471" fill="none" stroke="rgb(0, 0, 0)" stroke-opacity="0.2670499" stroke-linecap="round" stroke-linejoin="round"/>
    <path d="M 481.0513916015625 282.238037109375 C 448.5479431152344 148.8497314453125 462.14825439453125 142.08688354492188 498.2177734375 135.0851287841797 C 468.3120422363281 85.41300201416016 503.0834655761719 92.17987060546875 508.3307800292969 155.3099822998047 C 508.3177795410156 112.40474700927734 522.8496704101562 129.6392059326172 523.497802734375 128.1942138671875 C 497.6409912109375 126.83537292480469 535.3860473632812 125.9049072265625 533.4788818359375 95.7416763305664" stroke-width="6.308369159698486" fill="none" stroke="rgb(0, 0, 0)" stroke-opacity="0.6533179" stroke-linecap="round" stroke-linejoin="round"/>
    <path d="M 403.4446716308594 278.180419921875 C 389.5922546386719 222.57054138183594 359.2547912597656 227.2821807861328 387.0078430175781 300.38665771484375 C 367.798583984375 201.548095703125 428.5389709472656 202.92950439453125 421.7626647949219 167.4386444091797 C 382.08319091796875 205.6683349609375 373.87200927734375 260.64312744140625 409.1257629394531 283.3759765625 C 355.4722595214844 283.4532470703125 397.5301513671875 291.27325439453125 365.2092590332031 289.51971435546875" stroke-width="12.0" fill="none" stroke="rgb(0, 0, 0)" stroke-opacity="0.54010725" stroke-linecap="round" stroke-linejoin="round"/>
    <path d="M 128.9187774658203 613.0013427734375 C 114.44448852539062 628.60400390625 98.55852508544922 626.46533203125 79.58905029296875 620.63623046875 C 79.7971420288086 599.5284423828125 103.38871765136719 619.6359252929688 89.07656860351562 666.8175659179688 C 70.90413665771484 649.0963745117188 66.52152252197266 626.8092651367188 93.73196411132812 607.7842407226562 C 68.62425231933594 606.1546020507812 45.45620346069336 632.769287109375 30.11894416809082 640.9769897460938" stroke-width="4.966885566711426" fill="none" stroke="rgb(0, 0, 0)" stroke-opacity="0.11593913" stroke-linecap="round" stroke-linejoin="round"/>
    <path d="M 427.0325927734375 359.7220764160156 C 384.9396667480469 313.8069763183594 381.54144287109375 346.8913879394531 387.9541320800781 347.860595703125 C 342.3172302246094 364.430908203125 384.3843994140625 374.6003723144531 435.5943603515625 384.2547607421875 C 424.051025390625 370.79132080078125 421.2824401855469 373.0552978515625 381.15911865234375 362.8132019042969 C 391.2098083496094 337.6318359375 429.46905517578125 337.7611999511719 370.35943603515625 360.7853088378906" stroke-width="12.0" fill="none" stroke="rgb(0, 0, 0)" stroke-opacity="0.83757484" stroke-linecap="round" stroke-linejoin="round"/>
    <path d="M 347.99822998046875 476.7800598144531 C 322.02044677734375 547.1141967773438 319.86480712890625 573.4945068359375 361.9327392578125 556.5108642578125 C 376.31890869140625 564.1436767578125 377.3580322265625 557.9533081054688 415.23248291015625 540.2247924804688 C 392.0865173339844 547.5708618164062 393.68511962890625 561.9986572265625 375.67181396484375 547.9732055664062 C 415.13653564453125 554.1192626953125 429.24993896484375 540.197509765625 436.6809997558594 538.3482666015625" stroke-width="2.0" fill="none" stroke="rgb(0, 0, 0)" stroke-opacity="0.40874785" stroke-linecap="round" stroke-linejoin="round"/>
    <path d="M -7.346992492675781 338.9146423339844 C 3.9866247177124023 357.1273193359375 0.24299587309360504 388.38043212890625 -12.315244674682617 416.1624755859375 C 0.6580559611320496 360.5258483886719 7.403559684753418 372.1407165527344 10.244270324707031 365.98394775390625 C -19.92323112487793 369.1900634765625 -16.19064712524414 388.5249938964844 -15.683253288269043 342.46466064453125 C 14.029732704162598 386.1524658203125 -2.191035032272339 386.81219482421875 -39.965370178222656 370.7270812988281" stroke-width="4.684817314147949" fill="none" stroke="rgb(0, 0, 0)" stroke-opacity="0.80978936" stroke-linecap="round" stroke-linejoin="round"/>
    <path d="M 607.8346557617188 220.1122283935547 C 623.3975830078125 224.1633758544922 606.2003784179688 194.25144958496094 627.746826171875 186.91552734375 C 628.7857055664062 160.8989715576172 647.6786499023438 136.44009399414062 637.5458374023438 137.19996643066406 C 654.3984985351562 132.2130126953125 657.4788818359375 128.55735778808594 684.5584716796875 150.32998657226562 C 660.0119018554688 120.564453125 689.7960815429688 124.26107788085938 693.5991821289062 132.02188110351562" stroke-width="5.6572394371032715" fill="none" stroke="rgb(0, 0, 0)" stroke-opacity="0.9392423" stroke-linecap="round" stroke-linejoin="round"/>
    <path d="M 286.6156921386719 383.7780456542969 C 268.5086975097656 454.17529296875 306.2735595703125 454.8465881347656 285.27178955078125 488.3906555175781 C 246.32594299316406 478.95562744140625 287.5310974121094 443.43914794921875 275.142333984375 418.6097717285156 C 268.64453125 504.3367004394531 273.1770935058594 505.5015869140625 254.45132446289062 536.56201171875 C 273.14501953125 556.9457397460938 289.4981994628906 552.0697631835938 272.1638488769531 540.514404296875" stroke-width="5.049682140350342" fill="none" stroke="rgb(0, 0, 0)" stroke-opacity="1.0" stroke-linecap="round" stroke-linejoin="round"/>
    <path d="M 190.93423461914062 555.5883178710938 C 188.49771118164062 556.8167114257812 184.55191040039062 577.597412109375 247.43997192382812 557.9600219726562 C 291.29296875 540.1058959960938 255.3288116455078 547.728515625 256.4020690917969 594.6069946289062 C 311.1214904785156 599.5302124023438 310.36773681640625 585.51904296875 300.39013671875 645.8125 C 278.95269775390625 601.1026611328125 249.93838500976562 622.7783813476562 225.29299926757812 619.0614013671875" stroke-width="2.0" fill="none" stroke="rgb(0, 0, 0)" stroke-opacity="0.59353846" stroke-linecap="round" stroke-linejoin="round"/>
    <path d="M 401.29779052734375 334.59136962890625 C 401.0710754394531 290.27685546875 425.7009582519531 317.7268371582031 451.187255859375 294.2979736328125 C 436.5230712890625 308.3459167480469 443.9445495605469 297.4794006347656 447.0224304199219 298.4709777832031 C 448.05938720703125 271.2748718261719 448.92303466796875 281.6087341308594 458.7999572753906 279.615966796875 C 499.91253662109375 270.3426513671875 503.4803161621094 302.10528564453125 492.2288513183594 261.240234375" stroke-width="6.695982933044434" fill="none" stroke="rgb(0, 0, 0)" stroke-opacity="0.19916895" stroke-linecap="round" stroke-linejoin="round"/>
    <path d="M 329.65826416015625 91.87782287597656 C 367.5879821777344 82.83416748046875 384.7557373046875 100.46460723876953 433.7515869140625 96.4629898071289 C 339.09075927734375 24.52924919128418 312.0537414550781 97.8856430053711 359.712890625 130.64076232910156 C 337.5724182128906 142.24185180664062 330.9815368652344 174.70797729492188 298.92510986328125 95.89584350585938 C 250.7954864501953 48.92918014526367 343.30462646484375 54.10267639160156 406.7047424316406 50.60472106933594" stroke-width="3.8419322967529297" fill="none" stroke="rgb(0, 0, 0)" stroke-opacity="0.11630725" stroke-linecap="round" stroke-linejoin="round"/>
    <path d="M 393.4667663574219 322.5982971191406 C 372.24371337890625 368.5286560058594 390.22430419921875 326.5367126464844 408.6245422363281 339.8631286621094 C 371.6321716308594 356.3055114746094 343.76116943359375 368.7824401855469 358.1577453613281 350.2851257324219 C 420.17852783203125 355.1330261230469 462.6028747558594 355.12506103515625 484.3969421386719 404.49505615234375 C 419.1379699707031 384.7596740722656 470.39129638671875 378.3089599609375 499.3575439453125 433.18670654296875" stroke-width="3.625220537185669" fill="none" stroke="rgb(0, 0, 0)" stroke-opacity="0.6216162" stroke-linecap="round" stroke-linejoin="round"/>
    <path d="M 502.86309814453125 277.29168701171875 C 513.6654663085938 255.67022705078125 514.4465942382812 163.6617889404297 526.2003173828125 142.1498260498047 C 478.0549621582031 190.89862060546875 476.5386657714844 193.13328552246094 472.8430480957031 165.6708526611328 C 520.732177734375 143.1727752685547 533.23779296875 130.08340454101562 481.9393615722656 110.5129623413086 C 517.5672607421875 117.20222473144531 532.1336059570312 97.62454986572266 531.6498413085938 103.81681060791016" stroke-width="5.85494327545166" fill="none" stroke="rgb(0, 0, 0)" stroke-opacity="0.29433012" stroke-linecap="round" stroke-linejoin="round"/>
    <path d="M 152.4788360595703 173.4661102294922 C 200.62771606445312 200.99371337890625 148.5191192626953 189.147216796875 89.93599700927734 170.62745666503906 C 156.64730834960938 191.97866821289062 230.94534301757812 204.7537384033203 243.01589965820312 180.08070373535156 C 205.55517578125 203.04916381835938 155.55520629882812 182.9423370361328 186.14634704589844 184.79107666015625 C 143.30157470703125 177.61648559570312 98.44561767578125 193.274169921875 195.00152587890625 189.57327270507812" stroke-width="4.599916934967041" fill="none" stroke="rgb(0, 0, 0)" stroke-opacity="0.7948944" stroke-linecap="round" stroke-linejoin="round"/>
    <path d="M 349.70379638671875 81.69916534423828 C 371.52923583984375 58.36870193481445 433.6894836425781 115.49932861328125 407.5673522949219 72.07857513427734 C 402.7664794921875 47.24436569213867 462.49871826171875 72.0576171875 423.55511474609375 96.79459381103516 C 338.5972595214844 123.14405822753906 307.1409912109375 104.2936019897461 400.0830993652344 97.69014739990234 C 467.5509948730469 92.03408813476562 528.4876098632812 99.38322448730469 412.1358642578125 87.23434448242188" stroke-width="8.636805534362793" fill="none" stroke="rgb(0, 0, 0)" stroke-opacity="0.49762094" stroke-linecap="round" stroke-linejoin="round"/>
    <path d="M 183.8707275390625 291.39990234375 C 207.68350219726562 258.3448181152344 191.15843200683594 245.85157775878906 212.6395263671875 232.55201721191406 C 183.50167846679688 204.0980224609375 217.46206665039062 155.8113555908203 281.27984619140625 197.90975952148438 C 241.80262756347656 260.6780090332031 216.6555938720703 238.78610229492188 228.49156188964844 246.61697387695312 C 218.997802734375 271.3871765136719 247.93783569335938 288.6888427734375 211.37840270996094 292.6439514160156" stroke-width="3.3722095489501953" fill="none" stroke="rgb(0, 0, 0)" stroke-opacity="0.39257136" stroke-linecap="round" stroke-linejoin="round"/>
    <path d="M 251.2764892578125 330.95184326171875 C 243.47193908691406 376.4731140136719 303.30511474609375 374.1990051269531 243.75909423828125 378.249755859375 C 281.27911376953125 373.9801940917969 287.86737060546875 376.8453063964844 278.9789733886719 435.19781494140625 C 279.9004211425781 346.75775146484375 264.80126953125 321.64007568359375 272.6546936035156 453.6365966796875 C 309.8039245605469 378.7266540527344 261.2865905761719 406.6785583496094 232.9539337158203 287.917236328125" stroke-width="2.9240314960479736" fill="none" stroke="rgb(0, 0, 0)" stroke-opacity="0.93320537" stroke-linecap="round" stroke-linejoin="round"/>
    <path d="M 105.89498901367188 417.17095947265625 C 121.08696746826172 418.742919921875 98.6107177734375 420.4690246582031 88.77286529541016 397.474365234375 C 98.39381408691406 357.6557312011719 104.71349334716797 361.9136657714844 79.92089080810547 365.1081237792969 C 105.9212646484375 348.4457702636719 140.43467712402344 337.4179992675781 119.38699340820312 321.7511901855469 C 83.9520492553711 352.2873840332031 86.47468566894531 364.39013671875 100.54631805419922 352.9276123046875" stroke-width="11.574533462524414" fill="none" stroke="rgb(0, 0, 0)" stroke-opacity="0.4061335" stroke-linecap="round" stroke-linejoin="round"/>
    <path d="M 189.13951110839844 524.7499389648438 C 194.26109313964844 589.4946899414062 163.07427978515625 557.1754760742188 136.56752014160156 614.4828491210938 C 125.54315185546875 682.6436157226562 114.38644409179688 640.160888671875 167.44964599609375 637.3427124023438 C 173.10740661621094 613.4154663085938 188.53114318847656 631.5529174804688 171.62457275390625 611.7561645507812 C 148.2327117919922 635.460693359375 119.32086944580078 635.4942016601562 144.8509063720703 622.6566772460938" stroke-width="2.0" fill="none" stroke="rgb(0, 0, 0)" stroke-opacity="0.43890178" stroke-linecap="round" stroke-linejoin="round"/>
    <path d="M -55.31134033203125 174.2872314453125 C -35.12940979003906 169.68099975585938 2.1242189407348633 177.83392333984375 80.91437530517578 168.06533813476562 C 74.12102508544922 183.0642852783203 40.1641731262207 205.6018829345703 32.67131805419922 211.10549926757812 C 44.20845031738281 195.6942596435547 17.23566246032715 230.22531127929688 26.246461868286133 219.1326446533203 C -0.11293928325176239 264.3403625488281 7.340356826782227 269.7176818847656 5.142706871032715 306.0999755859375" stroke-width="3.585300922393799" fill="none" stroke="rgb(0, 0, 0)" stroke-opacity="0.64956164" stroke-linecap="round" stroke-linejoin="round"/>
    <path d="M 467.6918640136719 90.16133880615234 C 528.8130493164062 58.11038589477539 515.9427490234375 5.763367652893066 565.7022705078125 54.3419303894043 C 601.7298583984375 33.16343688964844 608.7150268554688 69.89671325683594 657.198974609375 83.4261245727539 C 605.0651245117188 158.20388793945312 622.6046142578125 146.45948791503906 629.3145751953125 135.54913330078125 C 607.6591796875 96.42687225341797 611.375 72.27281951904297 615.0582885742188 77.39917755126953" stroke-width="2.0" fill="none" stroke="rgb(0, 0, 0)" stroke-opacity="0.714722" stroke-linecap="round" stroke-linejoin="round"/>
    <path d="M 483.0213317871094 526.10546875 C 481.13629150390625 488.93499755859375 517.1106567382812 514.27880859375 504.1677551269531 472.9678955078125 C 526.1983642578125 465.58343505859375 530.9461059570312 460.7237548828125 512.712890625 484.2958984375 C 524.0115356445312 540.7420654296875 511.6104431152344 528.541748046875 490.1409912109375 503.50018310546875 C 488.2191162109375 511.757568359375 528.1034545898438 531.6433715820312 515.307373046875 507.71234130859375" stroke-width="5.620203495025635" fill="none" stroke="rgb(0, 0, 0)" stroke-opacity="0.9868364" stroke-linecap="round" stroke-linejoin="round"/>
    <path d="M 412.53741455078125 387.88397216796875 C 354.8910827636719 412.7873840332031 299.4535217285156 401.6900329589844 301.947998046875 416.4339294433594 C 287.1952819824219 441.2155456542969 358.44476318359375 417.7254333496094 362.72705078125 475.3760986328125 C 370.02838134765625 525.1946411132812 376.2050476074219 546.150146484375 386.11578369140625 549.3655395507812 C 411.05242919921875 558.1888427734375 436.64752197265625 526.708984375 504.0274963378906 555.9449462890625" stroke-width="2.0" fill="none" stroke="rgb(0, 0, 0)" stroke-opacity="0.4560821" stroke-linecap="round" stroke-linejoin="round"/>
    <path d="M 286.6156921386719 383.7780456542969 C 268.5086975097656 454.17529296875 306.2735595703125 454.8465881347656 285.27178955078125 488.3906555175781 C 246.32594299316406 478.95562744140625 287.5310974121094 443.43914794921875 275.142333984375 418.6097717285156 C 268.64453125 504.3367004394531 273.1770935058594 505.5015869140625 254.45132446289062 536.56201171875 C 273.14501953125 556.9457397460938 289.4981994628906 552.0697631835938 272.1638488769531 540.514404296875" stroke-width="5.049682140350342" fill="none" stroke="rgb(0, 0, 0)" stroke-opacity="0.70861506" stroke-linecap="round" stroke-linejoin="round"/>
  </g>
</svg>
