<?xml version="1.0" ?>
<svg xmlns="http://www.w3.org/2000/svg" version="1.1" width="600" height="600">
  <defs/>
  <g>
    <path d="M 281.0751037597656 60.49355697631836 C 280.5302429199219 59.68927764892578 295.4647216796875 52.176170349121094 277.9496765136719 60.91252517700195 C 277.04058837890625 50.280033111572266 269.6128845214844 51.34542465209961 280.316162109375 65.34402465820312 C 258.0186462402344 56.44795608520508 246.77798461914062 43.88111114501953 228.41880798339844 20.797985076904297 C 211.44424438476562 11.719195365905762 215.5424346923828 -2.3850932121276855 180.9408416748047 17.98624610900879" stroke-width="2.015357732772827" fill="none" stroke="rgb(0, 0, 0)" stroke-opacity="0.2727622" stroke-linecap="round" stroke-linejoin="round"/>
    <path d="M 135.6931915283203 491.39996337890625 C 147.14508056640625 429.5154113769531 164.76409912109375 434.416259765625 114.47891235351562 441.1858825683594 C 163.39598083496094 540.5335083007812 119.23910522460938 605.0967407226562 209.4961395263672 493.8298034667969 C 204.9173126220703 578.19580078125 125.12252807617188 529.0025024414062 163.77349853515625 516.8229370117188 C 192.63087463378906 602.375 175.23020935058594 554.7771606445312 213.75210571289062 519.6937255859375" stroke-width="12.0" fill="none" stroke="rgb(0, 0, 0)" stroke-opacity="0.899279" stroke-linecap="round" stroke-linejoin="round"/>
    <path d="M 269.3138732910156 283.2229919433594 C 229.79466247558594 239.91128540039062 205.7892608642578 245.12339782714844 201.10089111328125 250.8040771484375 C 175.2828826904297 267.7716064453125 199.4676971435547 281.22808837890625 134.67857360839844 280.6086120605469 C 154.73324584960938 214.55787658691406 181.0945587158203 150.20448303222656 180.71372985839844 242.0338592529297 C 221.9289093017578 278.2790832519531 158.528076171875 222.0919952392578 179.06478881835938 168.5976104736328" stroke-width="11.158512115478516" fill="none" stroke="rgb(0, 0, 0)" stroke-opacity="0.21536939" stroke-linecap="round" stroke-linejoin="round"/>
    <path d="M 200.91583251953125 129.79603576660156 C 178.67103576660156 107.36497497558594 153.18136596679688 100.20729064941406 120.65776824951172 108.40355682373047 C 89.76688385009766 115.00098419189453 61.3261604309082 158.08111572265625 47.2170524597168 152.1356964111328 C 70.93620300292969 111.75636291503906 118.12692260742188 116.53995513916016 188.09129333496094 135.6107177734375 C 152.46485900878906 102.73789978027344 198.7452850341797 139.8158416748047 153.52963256835938 161.75999450683594" stroke-width="2.7329185009002686" fill="none" stroke="rgb(0, 0, 0)" stroke-opacity="0.42230302" stroke-linecap="round" stroke-linejoin="round"/>
    <path d="M 38.86341857910156 252.0479736328125 C 56.51510238647461 270.83294677734375 57.16643524169922 277.4507751464844 112.04796600341797 288.86328125 C 123.48515319824219 185.5552520751953 157.55160522460938 181.82220458984375 66.0683364868164 253.2360382080078 C 22.119596481323242 259.3021545410156 74.18965911865234 277.2875061035156 79.13668060302734 268.9324035644531 C 31.111160278320312 267.52825927734375 50.244972229003906 258.32659912109375 -1.8658922910690308 207.99293518066406" stroke-width="6.447443962097168" fill="none" stroke="rgb(0, 0, 0)" stroke-opacity="0.50596184" stroke-linecap="round" stroke-linejoin="round"/>
    <path d="M 276.5538635253906 422.41351318359375 C 280.0123596191406 354.92816162109375 283.2701721191406 363.387451171875 291.88946533203125 387.3570251464844 C 280.25091552734375 359.84765625 300.1719665527344 405.23785400390625 278.9184875488281 424.0451354980469 C 275.0162048339844 443.864013671875 275.5603942871094 476.2837219238281 241.52952575683594 461.52789306640625 C 251.4940948486328 471.9062194824219 317.50982666015625 475.7983703613281 278.83709716796875 457.14556884765625" stroke-width="11.312333106994629" fill="none" stroke="rgb(0, 0, 0)" stroke-opacity="0.32974854" stroke-linecap="round" stroke-linejoin="round"/>
    <path d="M -7.025860786437988 50.17903518676758 C -14.883746147155762 50.06502151489258 -24.952552795410156 71.01805877685547 -40.08991241455078 58.11057662963867 C -33.511444091796875 106.80916595458984 -28.208555221557617 84.44769287109375 -0.26524287462234497 23.07893180847168 C 44.157737731933594 45.33298873901367 0.972348153591156 34.41550827026367 42.50933837890625 43.79956817626953 C 66.56954956054688 53.48368453979492 39.484031677246094 38.1722412109375 61.53742980957031 44.313880920410156" stroke-width="7.652774810791016" fill="none" stroke="rgb(0, 0, 0)" stroke-opacity="0.9671661" stroke-linecap="round" stroke-linejoin="round"/>
    <path d="M 590.3212890625 347.02911376953125 C 574.7210693359375 271.709716796875 551.5637817382812 296.9266052246094 557.7236938476562 363.6492614746094 C 539.201171875 364.66827392578125 560.5369873046875 360.4082946777344 597.4828491210938 315.2623596191406 C 636.9630737304688 315.75225830078125 619.6788330078125 319.44244384765625 633.463134765625 283.15643310546875 C 599.7584228515625 288.0758056640625 607.9061889648438 306.4762268066406 618.4847412109375 313.46612548828125" stroke-width="2.9919002056121826" fill="none" stroke="rgb(0, 0, 0)" stroke-opacity="0.13322152" stroke-linecap="round" stroke-linejoin="round"/>
    <path d="M 137.1476593017578 386.66583251953125 C 146.97315979003906 468.1976623535156 138.1519317626953 435.2691345214844 148.23617553710938 509.3153076171875 C 186.23507690429688 587.6060180664062 235.70741271972656 542.0581665039062 160.18948364257812 492.08502197265625 C 126.46797943115234 452.0152893066406 142.1501922607422 439.4051818847656 188.685302734375 443.5958251953125 C 256.18365478515625 430.8938903808594 269.76519775390625 455.6967468261719 207.7439727783203 460.76123046875" stroke-width="7.821059703826904" fill="none" stroke="rgb(0, 0, 0)" stroke-opacity="0.4677135" stroke-linecap="round" stroke-linejoin="round"/>
    <path d="M 485.33251953125 496.2796325683594 C 442.85577392578125 450.94403076171875 454.9654541015625 415.5676574707031 552.5679321289062 409.0003662109375 C 461.40557861328125 407.501953125 466.46942138671875 356.6914367675781 461.2828063964844 371.4447021484375 C 494.74591064453125 471.29742431640625 448.4504699707031 436.61669921875 474.9826965332031 370.09271240234375 C 467.7597961425781 374.5189208984375 464.9613342285156 358.0436096191406 446.3946533203125 350.82965087890625" stroke-width="8.320907592773438" fill="none" stroke="rgb(0, 0, 0)" stroke-opacity="0.87028205" stroke-linecap="round" stroke-linejoin="round"/>
    <path d="M 443.56353759765625 225.2166748046875 C 475.3081359863281 256.2209167480469 467.02020263671875 225.6501922607422 501.9396667480469 269.5714416503906 C 579.4881591796875 241.92872619628906 565.4315795898438 238.75433349609375 540.0963745117188 260.46917724609375 C 475.28875732421875 251.2126922607422 498.2093200683594 254.20053100585938 495.115234375 268.9925842285156 C 493.7604675292969 248.6505889892578 491.2144775390625 271.8663024902344 500.4222717285156 262.76409912109375" stroke-width="2.0" fill="none" stroke="rgb(0, 0, 0)" stroke-opacity="0.98717" stroke-linecap="round" stroke-linejoin="round"/>
    <path d="M 222.3884735107422 422.37225341796875 C 250.29481506347656 458.0892639160156 214.85372924804688 484.3575439453125 211.01876831054688 441.9857482910156 C 223.6737060546875 426.36090087890625 241.10365295410156 422.6993713378906 244.4702911376953 448.0928039550781 C 212.43255615234375 460.6251525878906 235.42611694335938 475.6971740722656 263.51275634765625 462.71026611328125 C 212.03317260742188 462.2379455566406 239.07518005371094 452.344482421875 221.2951202392578 458.011474609375" stroke-width="2.5502071380615234" fill="none" stroke="rgb(0, 0, 0)" stroke-opacity="0.2878267" stroke-linecap="round" stroke-linejoin="round"/>
    <path d="M 597.1651611328125 131.3572540283203 C 577.55712890625 110.713623046875 575.1318969726562 123.86416625976562 548.1212158203125 140.17738342285156 C 513.9217529296875 158.4971160888672 472.00469970703125 150.58978271484375 464.171875 150.17152404785156 C 480.9920349121094 145.5137481689453 471.1222839355469 155.71286010742188 462.91864013671875 152.0380096435547 C 464.9869079589844 149.61293029785156 488.1514892578125 155.38063049316406 483.77667236328125 148.9992218017578" stroke-width="2.0" fill="none" stroke="rgb(0, 0, 0)" stroke-opacity="0.07159767" stroke-linecap="round" stroke-linejoin="round"/>
    <path d="M 100.58918762207031 415.2236328125 C 82.62181091308594 371.07049560546875 110.7439956665039 363.2378234863281 68.80646514892578 366.5904541015625 C 75.12799072265625 375.5461120605469 73.1539077758789 362.6182861328125 59.9150505065918 365.6686096191406 C 43.092525482177734 355.7684631347656 17.44865608215332 363.7927551269531 -3.335658550262451 398.49334716796875 C 3.544619083404541 381.30615234375 -24.414270401000977 383.7704162597656 -49.841678619384766 393.98126220703125" stroke-width="5.8295159339904785" fill="none" stroke="rgb(0, 0, 0)" stroke-opacity="0.35170722" stroke-linecap="round" stroke-linejoin="round"/>
    <path d="M 225.21827697753906 233.88023376464844 C 206.1776885986328 177.87721252441406 190.51219177246094 186.04055786132812 238.18202209472656 188.14637756347656 C 162.3963165283203 164.83493041992188 195.20840454101562 152.21278381347656 227.62921142578125 134.2445831298828 C 135.2063751220703 133.9846954345703 179.5919189453125 120.13677978515625 246.0139923095703 135.4869842529297 C 261.9742431640625 99.0011978149414 262.3034362792969 130.90306091308594 260.6116638183594 114.34960174560547" stroke-width="9.275074005126953" fill="none" stroke="rgb(0, 0, 0)" stroke-opacity="0.79483217" stroke-linecap="round" stroke-linejoin="round"/>
    <path d="M 481.5970458984375 55.903831481933594 C 468.1903381347656 48.59931182861328 514.9068603515625 48.438106536865234 484.832763671875 76.7828369140625 C 454.29571533203125 91.41494750976562 468.8139343261719 115.02928924560547 449.7783203125 116.50160217285156 C 438.0500183105469 126.09391784667969 442.7303771972656 129.27882385253906 453.9853820800781 117.32884216308594 C 456.3347473144531 108.96505737304688 469.6159973144531 102.6634521484375 450.6964416503906 120.11420440673828" stroke-width="3.4774184226989746" fill="none" stroke="rgb(0, 0, 0)" stroke-opacity="0.91362375" stroke-linecap="round" stroke-linejoin="round"/>
    <path d="M 200.85427856445312 143.66360473632812 C 211.84738159179688 120.149658203125 229.97650146484375 62.96183776855469 216.7065887451172 150.23736572265625 C 155.15447998046875 185.05723571777344 220.17259216308594 140.5153045654297 227.33848571777344 126.0529556274414 C 265.83148193359375 159.73204040527344 245.6967010498047 167.25701904296875 247.33041381835938 137.2157745361328 C 232.17071533203125 166.3621368408203 264.68255615234375 137.1615447998047 262.2110290527344 104.86547088623047" stroke-width="5.3289265632629395" fill="none" stroke="rgb(0, 0, 0)" stroke-opacity="0.8149775" stroke-linecap="round" stroke-linejoin="round"/>
    <path d="M 268.8180847167969 460.6280517578125 C 274.8453674316406 374.7976989746094 266.0223388671875 393.5829162597656 271.0743408203125 461.9708557128906 C 227.29786682128906 496.8359069824219 165.2341766357422 419.6795654296875 130.20396423339844 473.61370849609375 C 84.09197235107422 438.7398376464844 122.52607727050781 420.0432434082031 197.7407684326172 417.41168212890625 C 156.3887176513672 407.2776184082031 193.6221923828125 431.8620300292969 156.19442749023438 395.988525390625" stroke-width="6.104293346405029" fill="none" stroke="rgb(0, 0, 0)" stroke-opacity="1.0" stroke-linecap="round" stroke-linejoin="round"/>
    <path d="M 528.6492309570312 482.98614501953125 C 603.9143676757812 473.0567932128906 565.0845336914062 480.58636474609375 510.7173767089844 489.2210693359375 C 548.6195068359375 519.9295654296875 528.2197875976562 501.7124328613281 538.3187866210938 492.61651611328125 C 549.5946044921875 489.3489685058594 559.2420654296875 489.0722351074219 550.5368041992188 495.91326904296875 C 563.9849853515625 496.1977844238281 549.5636596679688 498.7156677246094 474.6534118652344 481.40850830078125" stroke-width="2.0974597930908203" fill="none" stroke="rgb(0, 0, 0)" stroke-opacity="0.39781374" stroke-linecap="round" stroke-linejoin="round"/>
    <path d="M 444.33160400390625 360.24420166015625 C 478.09295654296875 425.24664306640625 448.36328125 446.90704345703125 453.7777099609375 446.4234619140625 C 444.4066162109375 472.25445556640625 450.2204284667969 510.2138671875 409.34381103515625 470.43121337890625 C 424.9927978515625 474.98114013671875 399.42938232421875 458.23529052734375 365.5240478515625 431.6495666503906 C 400.28436279296875 445.0904541015625 400.1595458984375 417.0301513671875 422.2226867675781 373.2955017089844" stroke-width="11.859501838684082" fill="none" stroke="rgb(0, 0, 0)" stroke-opacity="0.14914636" stroke-linecap="round" stroke-linejoin="round"/>
    <path d="M 422.1960754394531 555.6972045898438 C 445.87103271484375 549.6480712890625 468.24822998046875 532.8674926757812 484.8135986328125 523.406982421875 C 474.5390625 547.7882080078125 466.1217346191406 524.1746826171875 489.7220153808594 492.3338317871094 C 519.173583984375 501.19049072265625 528.34423828125 478.23101806640625 449.1733093261719 505.4351501464844 C 475.24322509765625 480.6888427734375 497.8857421875 516.2731323242188 411.89031982421875 472.75604248046875" stroke-width="5.386244297027588" fill="none" stroke="rgb(0, 0, 0)" stroke-opacity="0.124019735" stroke-linecap="round" stroke-linejoin="round"/>
    <path d="M 399.5108947753906 466.9408264160156 C 333.7850646972656 492.56109619140625 348.49786376953125 447.2993469238281 354.0130920410156 460.3982238769531 C 352.0975036621094 462.6062927246094 369.68145751953125 432.62432861328125 397.6585998535156 463.69842529296875 C 291.97760009765625 456.2769470214844 309.6340637207031 483.9790954589844 355.0664978027344 531.1318359375 C 355.6472473144531 531.1159057617188 361.360595703125 551.5714721679688 326.0552673339844 473.41278076171875" stroke-width="12.0" fill="none" stroke="rgb(0, 0, 0)" stroke-opacity="0.7756937" stroke-linecap="round" stroke-linejoin="round"/>
    <path d="M 285.6174011230469 61.31329345703125 C 264.682373046875 53.71229553222656 308.5059814453125 73.98309326171875 311.9918518066406 69.17243957519531 C 315.25457763671875 63.82724380493164 327.76202392578125 61.522911071777344 323.2135925292969 76.73562622070312 C 376.58740234375 134.18405151367188 329.12347412109375 113.43504333496094 364.7124938964844 127.71560668945312 C 395.6680603027344 73.66648864746094 378.1945495605469 123.63735961914062 348.3304443359375 110.83099365234375" stroke-width="2.0" fill="none" stroke="rgb(0, 0, 0)" stroke-opacity="0.44222888" stroke-linecap="round" stroke-linejoin="round"/>
    <path d="M 60.69768142700195 110.8773193359375 C 100.5638198852539 130.62620544433594 105.12403869628906 77.19976043701172 157.08139038085938 114.1056137084961 C 223.11277770996094 117.00753784179688 249.83724975585938 120.20016479492188 205.99435424804688 122.56437683105469 C 186.40232849121094 160.7094268798828 199.49237060546875 144.55245971679688 181.0706329345703 206.57994079589844 C 168.63986206054688 265.6888732910156 230.380615234375 231.7017059326172 253.2223358154297 279.36236572265625" stroke-width="6.118313312530518" fill="none" stroke="rgb(0, 0, 0)" stroke-opacity="0.48538345" stroke-linecap="round" stroke-linejoin="round"/>
    <path d="M 439.0970458984375 127.3605728149414 C 423.86187744140625 144.89373779296875 367.47393798828125 146.3879852294922 363.1372985839844 158.3579559326172 C 390.00335693359375 143.45510864257812 382.90716552734375 154.96192932128906 358.8320617675781 183.82568359375 C 350.725830078125 202.1472625732422 368.8878479003906 128.45867919921875 374.9151916503906 158.5585174560547 C 370.4629821777344 137.26353454589844 372.8241271972656 163.29080200195312 361.9356994628906 175.52320861816406" stroke-width="6.606534481048584" fill="none" stroke="rgb(0, 0, 0)" stroke-opacity="0.44333053" stroke-linecap="round" stroke-linejoin="round"/>
    <path d="M 204.7967529296875 390.55682373046875 C 207.8345184326172 395.4482116699219 187.63577270507812 425.9286804199219 123.66264343261719 429.16046142578125 C 143.05438232421875 465.6829833984375 157.3511199951172 458.75921630859375 132.4726104736328 445.7281799316406 C 130.76080322265625 443.07135009765625 157.1462860107422 443.88702392578125 117.17723083496094 442.5198669433594 C 157.89724731445312 442.5894470214844 163.413330078125 457.9759521484375 129.3120574951172 443.58843994140625" stroke-width="7.886794090270996" fill="none" stroke="rgb(0, 0, 0)" stroke-opacity="0.12370873" stroke-linecap="round" stroke-linejoin="round"/>
    <path d="M 422.7652282714844 118.41554260253906 C 427.17596435546875 118.6273422241211 416.8869323730469 119.30596160888672 426.1360168457031 117.4596939086914 C 434.335693359375 118.05516815185547 447.7603454589844 120.15843963623047 427.9827880859375 135.5269775390625 C 436.3541564941406 120.95514678955078 413.842529296875 156.61972045898438 378.5234680175781 153.53326416015625 C 379.7705993652344 183.1407012939453 406.3802795410156 201.97125244140625 397.4174499511719 217.2071075439453" stroke-width="2.0" fill="none" stroke="rgb(0, 0, 0)" stroke-opacity="0.60696256" stroke-linecap="round" stroke-linejoin="round"/>
    <path d="M 346.8553466796875 72.6092300415039 C 343.3538513183594 97.13065338134766 362.6814270019531 65.61964416503906 283.3013610839844 89.1759033203125 C 227.8201904296875 71.44842529296875 237.91262817382812 80.70075988769531 263.4870910644531 201.93504333496094 C 279.92120361328125 171.6859130859375 251.9064178466797 165.0624237060547 209.46885681152344 121.63951873779297 C 237.9077911376953 79.233154296875 245.05575561523438 86.89629364013672 196.8113555908203 72.0781478881836" stroke-width="3.6075899600982666" fill="none" stroke="rgb(0, 0, 0)" stroke-opacity="0.32938227" stroke-linecap="round" stroke-linejoin="round"/>
    <path d="M 267.0056457519531 356.56591796875 C 256.47882080078125 391.5661926269531 245.39825439453125 413.7276306152344 273.8097229003906 359.8996276855469 C 269.77178955078125 393.72747802734375 294.0653381347656 459.1831970214844 278.05596923828125 439.9844970703125 C 271.0114440917969 313.927978515625 184.55609130859375 286.9984130859375 254.06455993652344 310.0399475097656 C 329.83392333984375 325.6661376953125 362.1977844238281 296.94622802734375 391.2554626464844 317.5953063964844" stroke-width="10.586746215820312" fill="none" stroke="rgb(0, 0, 0)" stroke-opacity="0.35307977" stroke-linecap="round" stroke-linejoin="round"/>
    <path d="M 13.30803108215332 293.8704528808594 C 74.61356353759766 274.05224609375 50.519744873046875 333.1297302246094 101.01334381103516 342.4142150878906 C 99.48843383789062 379.3911437988281 58.684967041015625 379.0003662109375 57.850406646728516 377.9300537109375 C 60.44219207763672 368.07696533203125 45.73200607299805 361.3616027832031 22.28590202331543 359.5646057128906 C 11.823954582214355 405.1625671386719 -35.480098724365234 404.7699890136719 -63.68462371826172 381.7292785644531" stroke-width="2.7388365268707275" fill="none" stroke="rgb(0, 0, 0)" stroke-opacity="0.07453469" stroke-linecap="round" stroke-linejoin="round"/>
    <path d="M 407.9023132324219 400.74591064453125 C 384.7354431152344 372.50823974609375 397.0714111328125 439.8193664550781 394.28277587890625 371.5779724121094 C 394.4464416503906 342.5172424316406 354.9996337890625 343.98455810546875 404.9775390625 351.8392333984375 C 420.8509826660156 387.1039123535156 410.3214111328125 405.7840576171875 407.188232421875 375.45513916015625 C 383.185302734375 415.2576599121094 386.97723388671875 440.6712341308594 345.0420227050781 454.1785888671875" stroke-width="4.958178997039795" fill="none" stroke="rgb(0, 0, 0)" stroke-opacity="0.5565508" stroke-linecap="round" stroke-linejoin="round"/>
    <path d="M 388.34246826171875 463.11151123046875 C 226.89524841308594 477.42913818359375 264.577880859375 485.58843994140625 278.7978515625 417.9693908691406 C 292.9729919433594 415.60107421875 275.12420654296875 368.2830505371094 270.94708251953125 432.7251281738281 C 345.4167175292969 433.4479675292969 371.6601867675781 429.4433288574219 326.4347229003906 414.09759521484375 C 351.34814453125 433.780517578125 313.36993408203125 399.1296081542969 278.27001953125 451.0519104003906" stroke-width="11.755735397338867" fill="none" stroke="rgb(0, 0, 0)" stroke-opacity="0.3920381" stroke-linecap="round" stroke-linejoin="round"/>
    <path d="M 268.8180847167969 460.6280517578125 C 274.8453674316406 374.7976989746094 266.0223388671875 393.5829162597656 271.0743408203125 461.9708557128906 C 227.29786682128906 496.8359069824219 165.2341766357422 419.6795654296875 130.20396423339844 473.61370849609375 C 84.09197235107422 438.7398376464844 122.52607727050781 420.0432434082031 197.7407684326172 417.41168212890625 C 156.3887176513672 407.2776184082031 193.6221923828125 431.8620300292969 156.19442749023438 395.988525390625" stroke-width="6.104293346405029" fill="none" stroke="rgb(0, 0, 0)" stroke-opacity="1.0" stroke-linecap="round" stroke-linejoin="round"/>
    <path d="M 170.7050018310547 132.71343994140625 C 134.37339782714844 118.72071838378906 87.83840942382812 91.53419494628906 148.98435974121094 81.7090072631836 C 144.69908142089844 91.95146179199219 126.38378143310547 91.83091735839844 185.10838317871094 107.77574157714844 C 120.04365539550781 136.0073699951172 84.21258544921875 190.17330932617188 80.43326568603516 163.51490783691406 C 109.13286590576172 163.234375 84.55365753173828 160.5372314453125 34.062198638916016 118.61557006835938" stroke-width="2.512866973876953" fill="none" stroke="rgb(0, 0, 0)" stroke-opacity="0.2982322" stroke-linecap="round" stroke-linejoin="round"/>
    <path d="M 93.91544342041016 360.4377136230469 C 93.76925659179688 392.9948425292969 94.23069763183594 398.13238525390625 95.5333480834961 346.01983642578125 C 94.40477752685547 414.564453125 90.90458679199219 417.43975830078125 101.24551391601562 423.86456298828125 C 101.94941711425781 418.6848449707031 90.99663543701172 382.2532043457031 100.02466583251953 421.0239562988281 C 84.75285339355469 500.0908508300781 80.43411254882812 465.327392578125 82.8617172241211 469.6992492675781" stroke-width="4.351527214050293" fill="none" stroke="rgb(0, 0, 0)" stroke-opacity="0.17389664" stroke-linecap="round" stroke-linejoin="round"/>
    <path d="M 27.74116325378418 175.16957092285156 C 56.26121520996094 192.42662048339844 36.42407989501953 199.020751953125 70.76423645019531 195.23159790039062 C 127.52256774902344 163.313232421875 171.25482177734375 223.96253967285156 61.14600372314453 253.31947326660156 C 92.35562133789062 180.2337188720703 135.6961669921875 190.46481323242188 66.39137268066406 193.45968627929688 C 29.372940063476562 172.43215942382812 13.543619155883789 170.44613647460938 -2.470489740371704 132.35528564453125" stroke-width="8.122905731201172" fill="none" stroke="rgb(0, 0, 0)" stroke-opacity="0.49380893" stroke-linecap="round" stroke-linejoin="round"/>
    <path d="M 310.2160339355469 319.26593017578125 C 332.835205078125 312.7351989746094 330.1598815917969 260.18896484375 265.8045959472656 295.2602844238281 C 222.21371459960938 267.8612060546875 295.62591552734375 248.52975463867188 262.2634582519531 280.3509216308594 C 207.72967529296875 242.2441864013672 203.3944549560547 210.75828552246094 257.9847106933594 246.3651123046875 C 288.50909423828125 225.7886505126953 231.65292358398438 274.7389221191406 265.546875 244.58929443359375" stroke-width="4.101324558258057" fill="none" stroke="rgb(0, 0, 0)" stroke-opacity="0.15429242" stroke-linecap="round" stroke-linejoin="round"/>
    <path d="M 465.49713134765625 149.3766326904297 C 469.90179443359375 152.48606872558594 469.0986328125 149.0568084716797 422.3192138671875 135.47994995117188 C 380.6690673828125 144.26145935058594 383.0969543457031 160.59693908691406 389.9638366699219 154.5115203857422 C 379.12860107421875 179.64691162109375 381.1187744140625 171.7195281982422 381.14715576171875 168.88673400878906 C 366.9708251953125 178.09881591796875 393.34674072265625 136.0113983154297 368.1669006347656 149.4226837158203" stroke-width="2.0" fill="none" stroke="rgb(0, 0, 0)" stroke-opacity="0.4033772" stroke-linecap="round" stroke-linejoin="round"/>
    <path d="M 364.5016174316406 197.85289001464844 C 362.74072265625 184.93463134765625 347.78839111328125 218.98489379882812 356.5505676269531 182.86941528320312 C 350.4571533203125 200.60833740234375 330.2396545410156 208.39205932617188 362.53863525390625 194.7257080078125 C 366.772216796875 193.77685546875 339.9804992675781 199.86196899414062 342.6439514160156 210.2342987060547 C 289.6525573730469 222.60873413085938 316.0284423828125 217.5137176513672 357.3022766113281 238.25775146484375" stroke-width="2.62027645111084" fill="none" stroke="rgb(0, 0, 0)" stroke-opacity="0.6141576" stroke-linecap="round" stroke-linejoin="round"/>
    <path d="M 514.8602905273438 379.91107177734375 C 443.5007629394531 465.5037536621094 467.4710998535156 450.31976318359375 522.0537109375 466.96551513671875 C 506.284912109375 485.1690368652344 478.8197326660156 477.6690368652344 477.9162292480469 437.3739929199219 C 499.0018615722656 408.2978515625 469.13861083984375 454.83349609375 415.1034851074219 476.7991027832031 C 418.24554443359375 499.152099609375 477.67376708984375 493.5861511230469 494.6679382324219 536.91015625" stroke-width="5.446634769439697" fill="none" stroke="rgb(0, 0, 0)" stroke-opacity="0.4120264" stroke-linecap="round" stroke-linejoin="round"/>
    <path d="M 92.57176208496094 394.9578552246094 C 81.25962829589844 328.8129577636719 121.590576171875 365.3379821777344 111.0645523071289 271.7569580078125 C 21.239133834838867 291.1938171386719 42.17985916137695 236.45843505859375 86.573486328125 203.22525024414062 C 33.924476623535156 209.64797973632812 8.41469669342041 182.48512268066406 21.024742126464844 176.12835693359375 C -14.719038963317871 141.15521240234375 -4.413355350494385 147.75946044921875 -9.779592514038086 162.93409729003906" stroke-width="3.230285406112671" fill="none" stroke="rgb(0, 0, 0)" stroke-opacity="0.9215947" stroke-linecap="round" stroke-linejoin="round"/>
    <path d="M 503.8728942871094 613.2674560546875 C 502.5176696777344 572.4395751953125 525.37646484375 540.4552001953125 529.6339721679688 527.7534790039062 C 491.2377014160156 535.53759765625 481.6961364746094 482.6650085449219 493.64996337890625 487.5439758300781 C 534.2655029296875 507.0620422363281 583.1185913085938 504.8660583496094 571.5643310546875 474.72723388671875 C 497.692138671875 468.9844055175781 465.995361328125 402.44000244140625 473.4241943359375 459.924560546875" stroke-width="2.0" fill="none" stroke="rgb(0, 0, 0)" stroke-opacity="0.51236236" stroke-linecap="round" stroke-linejoin="round"/>
    <path d="M 579.5474853515625 42.05522918701172 C 536.337646484375 57.27726364135742 546.336669921875 32.489505767822266 573.2135620117188 49.03177261352539 C 549.800537109375 55.06993865966797 540.1970825195312 31.05075454711914 506.8952331542969 56.32594680786133 C 494.031494140625 41.78817367553711 483.802001953125 67.2959976196289 462.9126892089844 104.36688995361328 C 495.6299743652344 72.18242645263672 461.89117431640625 99.61558532714844 467.7012939453125 103.8425064086914" stroke-width="9.845251083374023" fill="none" stroke="rgb(0, 0, 0)" stroke-opacity="0.80907506" stroke-linecap="round" stroke-linejoin="round"/>
    <path d="M 268.8180847167969 460.6280517578125 C 274.8453674316406 374.7976989746094 266.0223388671875 393.5829162597656 271.0743408203125 461.9708557128906 C 227.29786682128906 496.8359069824219 165.2341766357422 419.6795654296875 130.20396423339844 473.61370849609375 C 84.09197235107422 438.7398376464844 122.52607727050781 420.0432434082031 197.7407684326172 417.41168212890625 C 156.3887176513672 407.2776184082031 193.6221923828125 431.8620300292969 156.19442749023438 395.988525390625" stroke-width="6.104293346405029" fill="none" stroke="rgb(0, 0, 0)" stroke-opacity="1.0" stroke-linecap="round" stroke-linejoin="round"/>
    <path d="M 452.7467041015625 542.4755249023438 C 450.1371765136719 540.98681640625 454.4256591796875 541.0517578125 450.5751953125 542.6331176757812 C 470.6407165527344 542.0527954101562 479.0308532714844 505.70208740234375 455.0585021972656 498.621337890625 C 437.2587585449219 508.3706359863281 463.13604736328125 495.72406005859375 477.9985656738281 535.398193359375 C 503.1910400390625 477.2308654785156 502.3796081542969 536.1124267578125 482.1004943847656 521.1727905273438" stroke-width="5.211223602294922" fill="none" stroke="rgb(0, 0, 0)" stroke-opacity="0.98110163" stroke-linecap="round" stroke-linejoin="round"/>
    <path d="M 234.1756591796875 240.86328125 C 293.64300537109375 280.8482360839844 270.11572265625 225.4779815673828 261.3204040527344 295.10174560546875 C 296.4269104003906 294.0964660644531 299.88958740234375 240.0828857421875 245.22918701171875 239.97610473632812 C 281.00640869140625 177.5481719970703 289.468505859375 277.1451416015625 258.4713439941406 296.1745300292969 C 233.5672607421875 221.59532165527344 254.26182556152344 198.17782592773438 255.234375 280.7807312011719" stroke-width="9.167523384094238" fill="none" stroke="rgb(0, 0, 0)" stroke-opacity="0.6819219" stroke-linecap="round" stroke-linejoin="round"/>
    <path d="M 619.0375366210938 274.323486328125 C 568.6558837890625 249.75723266601562 577.0369873046875 300.3808288574219 571.7680053710938 345.3541564941406 C 551.8263549804688 236.7041778564453 543.2837524414062 287.24566650390625 558.536865234375 320.7206726074219 C 573.8272094726562 368.99688720703125 559.5 360.7377014160156 544.1129150390625 380.5749816894531 C 519.3568115234375 424.0323181152344 458.3872985839844 383.153564453125 462.3627624511719 354.1584777832031" stroke-width="3.3488705158233643" fill="none" stroke="rgb(0, 0, 0)" stroke-opacity="0.7060157" stroke-linecap="round" stroke-linejoin="round"/>
    <path d="M 412.0972900390625 320.92059326171875 C 397.7908935546875 314.3707275390625 403.024658203125 325.3789367675781 345.9954833984375 323.2391052246094 C 330.75311279296875 295.2313537597656 372.6147766113281 308.18017578125 377.3584289550781 308.3828125 C 421.5632629394531 324.2390441894531 395.8450012207031 313.6925048828125 430.42279052734375 336.0623474121094 C 468.4283752441406 371.7724609375 466.626220703125 406.10504150390625 449.9825744628906 350.80682373046875" stroke-width="2.024358034133911" fill="none" stroke="rgb(0, 0, 0)" stroke-opacity="0.62931305" stroke-linecap="round" stroke-linejoin="round"/>
    <path d="M 268.8180847167969 460.6280517578125 C 274.8453674316406 374.7976989746094 266.0223388671875 393.5829162597656 271.0743408203125 461.9708557128906 C 227.29786682128906 496.8359069824219 165.2341766357422 419.6795654296875 130.20396423339844 473.61370849609375 C 84.09197235107422 438.7398376464844 122.52607727050781 420.0432434082031 197.7407684326172 417.41168212890625 C 156.3887176513672 407.2776184082031 193.6221923828125 431.8620300292969 156.19442749023438 395.988525390625" stroke-width="6.104293346405029" fill="none" stroke="rgb(0, 0, 0)" stroke-opacity="1.0" stroke-linecap="round" stroke-linejoin="round"/>
    <path d="M 452.4198303222656 1.5609239339828491 C 469.06671142578125 -12.542444229125977 512.8606567382812 2.297091484069824 471.5171203613281 0.8852506279945374 C 410.0550842285156 17.282791137695312 421.96600341796875 27.159255981445312 392.8163146972656 50.805416107177734 C 381.6007080078125 71.81536102294922 356.93048095703125 66.31986236572266 338.93780517578125 62.926273345947266 C 382.01971435546875 72.31098175048828 365.37030029296875 73.30762481689453 323.6551513671875 78.16356658935547" stroke-width="3.314785957336426" fill="none" stroke="rgb(0, 0, 0)" stroke-opacity="0.690705" stroke-linecap="round" stroke-linejoin="round"/>
    <path d="M 499.89666748046875 581.42578125 C 483.0347900390625 447.8863525390625 482.5392150878906 484.9682922363281 526.608642578125 507.12933349609375 C 590.1483764648438 514.0682983398438 548.25390625 500.2126159667969 500.5997619628906 494.63836669921875 C 517.3684692382812 475.6136779785156 521.4365844726562 452.52105712890625 554.5237426757812 445.8677673339844 C 559.6737060546875 483.91351318359375 533.8463745117188 463.6643371582031 507.9225769042969 486.6650695800781" stroke-width="2.0" fill="none" stroke="rgb(0, 0, 0)" stroke-opacity="0.40376267" stroke-linecap="round" stroke-linejoin="round"/>
    <path d="M 393.55621337890625 98.43283081054688 C 434.89422607421875 65.0730972290039 452.5226135253906 51.10283279418945 487.5870056152344 64.42061614990234 C 448.6418762207031 102.50769805908203 484.25518798828125 97.17002868652344 456.6983947753906 115.3636245727539 C 478.7721862792969 76.47449493408203 496.9970397949219 52.130882263183594 496.63165283203125 51.40729904174805 C 507.88177490234375 93.46643829345703 521.0923461914062 84.25946807861328 480.5623474121094 49.34862518310547" stroke-width="4.416012763977051" fill="none" stroke="rgb(0, 0, 0)" stroke-opacity="0.2018388" stroke-linecap="round" stroke-linejoin="round"/>
    <path d="M 6.751394271850586 370.2419738769531 C 13.055439949035645 444.89794921875 8.889967918395996 439.80572509765625 5.0336761474609375 412.870361328125 C -7.044165134429932 315.08270263671875 -28.59217071533203 317.6263427734375 -40.65763854980469 349.1973571777344 C 6.160774230957031 324.4697570800781 -9.63503646850586 334.86334228515625 -14.848760604858398 328.2166748046875 C -0.103975810110569 351.57110595703125 -41.579349517822266 328.45416259765625 -25.742616653442383 296.9667053222656" stroke-width="11.743997573852539" fill="none" stroke="rgb(0, 0, 0)" stroke-opacity="0.55403274" stroke-linecap="round" stroke-linejoin="round"/>
    <path d="M 544.8023681640625 90.25523376464844 C 560.6995239257812 92.9169921875 542.4679565429688 105.80098724365234 542.4320068359375 77.6219482421875 C 542.420654296875 73.71587371826172 530.7979125976562 84.10005950927734 537.537109375 79.2854995727539 C 535.1749877929688 73.20574188232422 538.7489013671875 100.862060546875 538.7086791992188 53.281349182128906 C 531.6009521484375 37.727577209472656 513.8157348632812 48.39380645751953 497.0331726074219 81.0895767211914" stroke-width="2.0187442302703857" fill="none" stroke="rgb(0, 0, 0)" stroke-opacity="0.4469944" stroke-linecap="round" stroke-linejoin="round"/>
    <path d="M 442.8897705078125 346.389892578125 C 486.8453063964844 427.1941223144531 426.62933349609375 312.5898132324219 476.9396057128906 374.1573181152344 C 507.2330627441406 408.881591796875 535.3642578125 387.51654052734375 531.6094970703125 374.02642822265625 C 520.51123046875 371.49560546875 561.9090576171875 411.4879455566406 578.1649780273438 332.36590576171875 C 587.721435546875 339.2544250488281 574.7731323242188 389.54010009765625 544.1722412109375 407.9142150878906" stroke-width="5.149077892303467" fill="none" stroke="rgb(0, 0, 0)" stroke-opacity="0.98817235" stroke-linecap="round" stroke-linejoin="round"/>
    <path d="M 57.69476318359375 117.7297134399414 C 164.61361694335938 113.93698120117188 201.13751220703125 135.2796173095703 200.15296936035156 131.33523559570312 C 176.8492431640625 107.40782928466797 154.0648193359375 99.50243377685547 181.357666015625 127.29304504394531 C 163.23692321777344 106.04285430908203 151.10987854003906 102.58277130126953 185.70167541503906 139.484619140625 C 145.78794860839844 117.35673522949219 110.81603240966797 120.68001556396484 170.90191650390625 135.18017578125" stroke-width="3.0892586708068848" fill="none" stroke="rgb(0, 0, 0)" stroke-opacity="0.787004" stroke-linecap="round" stroke-linejoin="round"/>
    <path d="M 179.85877990722656 698.5391235351562 C 155.359130859375 674.7584838867188 161.8413848876953 599.11572265625 156.96678161621094 609.8968505859375 C 160.6490936279297 597.0640869140625 185.6511688232422 633.6376953125 156.90628051757812 604.4559326171875 C 146.80088806152344 592.6098022460938 197.69992065429688 599.2411499023438 230.32540893554688 580.0418701171875 C 262.4659118652344 589.9088745117188 231.8488006591797 574.4904174804688 236.16148376464844 583.8818359375" stroke-width="2.505857229232788" fill="none" stroke="rgb(0, 0, 0)" stroke-opacity="0.359706" stroke-linecap="round" stroke-linejoin="round"/>
    <path d="M 533.5770874023438 354.5116271972656 C 499.09637451171875 414.8053283691406 563.952392578125 367.2704162597656 552.1275634765625 320.2113037109375 C 520.5128173828125 268.5491638183594 599.5120849609375 236.0490264892578 635.4644775390625 258.20111083984375 C 607.9463500976562 309.7950134277344 611.1172485351562 307.9034729003906 620.0523071289062 312.5152587890625 C 605.2736206054688 304.6721496582031 638.8818969726562 309.9990234375 637.9993896484375 286.71710205078125" stroke-width="2.1491477489471436" fill="none" stroke="rgb(0, 0, 0)" stroke-opacity="0.63333535" stroke-linecap="round" stroke-linejoin="round"/>
    <path d="M 491.7591857910156 67.4206771850586 C 506.2209167480469 79.87964630126953 469.7752685546875 66.17882537841797 470.3316955566406 62.79167175292969 C 491.3424072265625 45.69187927246094 490.3111267089844 68.8406753540039 489.95465087890625 66.47269439697266 C 490.3268127441406 98.11296844482422 470.5633544921875 89.11829376220703 472.68994140625 83.33201599121094 C 464.4530334472656 94.82393646240234 479.2648010253906 85.97398376464844 506.99493408203125 69.74633026123047" stroke-width="8.072710990905762" fill="none" stroke="rgb(0, 0, 0)" stroke-opacity="0.65086806" stroke-linecap="round" stroke-linejoin="round"/>
    <path d="M 526.8032836914062 -8.587250709533691 C 526.6297607421875 2.458073854446411 533.0303955078125 -18.00166130065918 503.7330017089844 -11.692529678344727 C 489.07989501953125 3.25138521194458 510.4412536621094 -28.819456100463867 517.7496948242188 -55.42810821533203 C 567.9783325195312 -17.038631439208984 570.8330078125 -18.72313117980957 632.9954223632812 15.70657730102539 C 597.6268310546875 46.334861755371094 601.5376586914062 28.331035614013672 578.16064453125 48.8717041015625" stroke-width="3.28178071975708" fill="none" stroke="rgb(0, 0, 0)" stroke-opacity="0.97575235" stroke-linecap="round" stroke-linejoin="round"/>
    <path d="M 345.25994873046875 500.9762268066406 C 414.1173400878906 485.75775146484375 383.53228759765625 423.335205078125 383.8046875 464.2123718261719 C 353.9356994628906 494.785888671875 350.39874267578125 507.4390563964844 317.3518371582031 456.1296691894531 C 339.4103088378906 478.5059509277344 304.2837219238281 481.2395324707031 355.9810791015625 450.8522033691406 C 335.94891357421875 446.5260009765625 302.03594970703125 484.2135314941406 237.18756103515625 463.4883728027344" stroke-width="12.0" fill="none" stroke="rgb(0, 0, 0)" stroke-opacity="0.42093432" stroke-linecap="round" stroke-linejoin="round"/>
    <path d="M 205.14810180664062 130.54991149902344 C 141.7325897216797 165.24586486816406 85.47798919677734 144.25247192382812 134.17141723632812 196.0043487548828 C 146.03819274902344 151.11106872558594 179.52194213867188 140.76956176757812 192.82176208496094 130.87315368652344 C 101.9808578491211 169.09127807617188 110.22443389892578 155.18870544433594 164.91368103027344 153.49415588378906 C 157.0527801513672 114.86865234375 118.64180755615234 173.6342010498047 85.33985900878906 144.03933715820312" stroke-width="6.260058879852295" fill="none" stroke="rgb(0, 0, 0)" stroke-opacity="0.9795473" stroke-linecap="round" stroke-linejoin="round"/>
    <path d="M 56.914005279541016 334.87823486328125 C 23.4014892578125 378.0753479003906 17.958112716674805 357.0835266113281 28.826194763183594 364.1672668457031 C 13.704082489013672 358.17156982421875 22.63296127319336 380.6156921386719 -18.451997756958008 385.52655029296875 C -20.922462463378906 363.46063232421875 -35.197505950927734 356.45159912109375 -5.2511701583862305 369.57733154296875 C -35.4029655456543 377.20513916015625 -12.601737976074219 373.58221435546875 -30.725059509277344 393.4476013183594" stroke-width="3.0815038681030273" fill="none" stroke="rgb(0, 0, 0)" stroke-opacity="0.22440195" stroke-linecap="round" stroke-linejoin="round"/>
    <path d="M 300.28314208984375 428.71527099609375 C 365.0964660644531 428.6435546875 403.30047607421875 424.8870544433594 386.3789978027344 399.8941345214844 C 375.4654235839844 436.0479736328125 379.1252746582031 429.2904968261719 347.12286376953125 454.2850341796875 C 398.6098327636719 459.76434326171875 381.05767822265625 366.845703125 397.00006103515625 379.6832275390625 C 398.0671691894531 403.8096008300781 358.0040283203125 401.1737365722656 404.6061096191406 399.1024169921875" stroke-width="9.063461303710938" fill="none" stroke="rgb(0, 0, 0)" stroke-opacity="0.4385181" stroke-linecap="round" stroke-linejoin="round"/>
    <path d="M 263.1890563964844 333.35107421875 C 243.6898193359375 307.7045593261719 237.13589477539062 316.54412841796875 207.65406799316406 291.22943115234375 C 192.36636352539062 283.9257507324219 182.7278289794922 219.41038513183594 177.91749572753906 277.02276611328125 C 210.50315856933594 274.27691650390625 195.03265380859375 293.2872314453125 200.0081787109375 253.53598022460938 C 152.24891662597656 231.46224975585938 206.60235595703125 223.423583984375 207.98806762695312 321.03717041015625" stroke-width="12.0" fill="none" stroke="rgb(0, 0, 0)" stroke-opacity="0.7012999" stroke-linecap="round" stroke-linejoin="round"/>
    <path d="M 575.8329467773438 341.4756774902344 C 563.4178466796875 418.5328063964844 536.7175903320312 445.5900573730469 481.9453430175781 421.16162109375 C 490.6412658691406 474.60089111328125 516.0383911132812 465.76458740234375 518.4174194335938 490.66802978515625 C 464.36248779296875 452.59429931640625 491.8404235839844 453.8115539550781 481.4131164550781 370.5796203613281 C 472.7323303222656 403.490478515625 489.9412536621094 518.974365234375 467.7808837890625 418.19342041015625" stroke-width="10.798276901245117" fill="none" stroke="rgb(0, 0, 0)" stroke-opacity="0.5925163" stroke-linecap="round" stroke-linejoin="round"/>
    <path d="M 322.4962463378906 453.5831604003906 C 296.5909729003906 463.22113037109375 282.87677001953125 468.16583251953125 347.4198303222656 475.6848449707031 C 345.2857971191406 517.0283813476562 388.534423828125 544.3967895507812 349.8869323730469 598.144775390625 C 356.7188415527344 581.8701782226562 401.7840270996094 567.4667358398438 399.9888000488281 549.689697265625 C 356.3243103027344 503.72528076171875 398.4916076660156 435.1592102050781 346.0409240722656 461.5237731933594" stroke-width="11.83492374420166" fill="none" stroke="rgb(0, 0, 0)" stroke-opacity="0.54945964" stroke-linecap="round" stroke-linejoin="round"/>
    <path d="M 273.3221130371094 404.7669372558594 C 246.0971221923828 406.1429748535156 249.44461059570312 396.07666015625 255.28726196289062 353.9471740722656 C 247.73162841796875 390.2628479003906 266.28564453125 414.60833740234375 269.844970703125 428.9560241699219 C 283.6387023925781 474.8795166015625 286.6028747558594 484.6234130859375 228.54322814941406 466.0470886230469 C 217.3183135986328 449.4236145019531 233.6488800048828 460.17962646484375 171.80862426757812 456.9130554199219" stroke-width="2.0901429653167725" fill="none" stroke="rgb(0, 0, 0)" stroke-opacity="0.2351475" stroke-linecap="round" stroke-linejoin="round"/>
    <path d="M 387.0276184082031 556.3264770507812 C 374.47760009765625 579.1744995117188 328.9436950683594 606.6971435546875 267.9664001464844 595.84033203125 C 358.3955993652344 615.22314453125 336.3705749511719 589.5117797851562 350.8477478027344 594.4762573242188 C 324.0628356933594 642.36083984375 295.61236572265625 627.2180786132812 324.7033996582031 618.42919921875 C 352.74786376953125 626.6763305664062 345.8926086425781 655.8504028320312 370.50726318359375 634.72216796875" stroke-width="12.0" fill="none" stroke="rgb(0, 0, 0)" stroke-opacity="0.5668898" stroke-linecap="round" stroke-linejoin="round"/>
    <path d="M 169.41549682617188 285.15496826171875 C 139.52914428710938 353.282470703125 146.91961669921875 366.0057067871094 175.0436553955078 323.22161865234375 C 195.12127685546875 244.30224609375 212.8599090576172 294.93359375 146.6234130859375 357.0026550292969 C 145.63760375976562 400.19482421875 132.6788330078125 379.6492614746094 152.31541442871094 295.60113525390625 C 205.17648315429688 286.8483581542969 161.55178833007812 316.4042663574219 162.45428466796875 339.7457275390625" stroke-width="5.548168659210205" fill="none" stroke="rgb(0, 0, 0)" stroke-opacity="0.7032248" stroke-linecap="round" stroke-linejoin="round"/>
    <path d="M -5.131514549255371 255.32962036132812 C 61.07706832885742 240.8926544189453 108.7415542602539 247.15847778320312 120.75955963134766 175.9725341796875 C 13.580998420715332 216.81236267089844 32.65412521362305 269.667724609375 29.479623794555664 255.429931640625 C 105.87738037109375 232.14389038085938 140.8767547607422 189.41925048828125 144.4342041015625 160.29800415039062 C 102.16952514648438 171.98782348632812 89.43756103515625 181.17529296875 64.46240997314453 162.35374450683594" stroke-width="3.6980721950531006" fill="none" stroke="rgb(0, 0, 0)" stroke-opacity="0.93564606" stroke-linecap="round" stroke-linejoin="round"/>
    <path d="M 93.83780670166016 370.12359619140625 C 93.79702758789062 379.2164306640625 85.38007354736328 402.02630615234375 137.14077758789062 427.2678527832031 C 104.7995834350586 364.87451171875 102.6876220703125 413.1448974609375 89.91718292236328 475.7038269042969 C 88.12696075439453 501.96514892578125 133.11077880859375 490.4186706542969 154.4641876220703 553.4227905273438 C 164.41189575195312 516.5906372070312 136.69314575195312 474.4459533691406 171.0549774169922 540.6072387695312" stroke-width="11.70777416229248" fill="none" stroke="rgb(0, 0, 0)" stroke-opacity="0.43569255" stroke-linecap="round" stroke-linejoin="round"/>
    <path d="M 416.4710998535156 609.2032470703125 C 359.01300048828125 623.5968017578125 372.6988220214844 593.6766357421875 354.1412353515625 485.11041259765625 C 330.0626525878906 520.5886840820312 347.12322998046875 584.924560546875 318.2804260253906 613.8538818359375 C 338.26177978515625 537.2971801757812 331.5429382324219 542.0557861328125 284.2237243652344 549.0169067382812 C 224.04132080078125 487.77496337890625 189.30795288085938 504.31341552734375 140.3525390625 519.9656982421875" stroke-width="2.2281248569488525" fill="none" stroke="rgb(0, 0, 0)" stroke-opacity="0.06032689" stroke-linecap="round" stroke-linejoin="round"/>
    <path d="M 474.736328125 661.2916259765625 C 487.2149963378906 646.514892578125 492.10150146484375 606.3367919921875 492.0884704589844 490.416748046875 C 470.3017272949219 517.1363525390625 492.4422912597656 577.1021118164062 520.27099609375 628.2222290039062 C 504.4781494140625 568.7234497070312 497.67413330078125 582.004638671875 497.9625549316406 642.624755859375 C 477.1415100097656 596.2875366210938 472.67816162109375 620.932861328125 502.0017395019531 646.8362426757812" stroke-width="12.0" fill="none" stroke="rgb(0, 0, 0)" stroke-opacity="0.7384316" stroke-linecap="round" stroke-linejoin="round"/>
    <path d="M 411.57476806640625 217.5243377685547 C 394.55670166015625 213.4365234375 402.3298645019531 203.6221466064453 393.7878723144531 246.9144744873047 C 358.66278076171875 259.1587829589844 370.8512878417969 218.9430694580078 351.0771179199219 232.2041015625 C 361.3735656738281 225.013671875 357.96173095703125 241.29920959472656 354.6183776855469 254.18296813964844 C 373.06390380859375 212.7267303466797 409.4898986816406 199.86061096191406 452.0108642578125 232.8230743408203" stroke-width="2.0" fill="none" stroke="rgb(0, 0, 0)" stroke-opacity="0.55167913" stroke-linecap="round" stroke-linejoin="round"/>
    <path d="M 559.6234741210938 241.97508239746094 C 610.3496704101562 214.6407012939453 599.3196411132812 218.45245361328125 604.73681640625 148.9597625732422 C 588.72119140625 161.89219665527344 579.0084228515625 164.49790954589844 572.5978393554688 174.57688903808594 C 512.9638061523438 235.6851806640625 499.4503479003906 251.48007202148438 515.7319946289062 227.31326293945312 C 506.1513671875 292.2510986328125 536.1712646484375 267.9234924316406 550.9784545898438 328.5103454589844" stroke-width="2.3215787410736084" fill="none" stroke="rgb(0, 0, 0)" stroke-opacity="0.07955763" stroke-linecap="round" stroke-linejoin="round"/>
    <path d="M 268.8180847167969 460.6280517578125 C 274.8453674316406 374.7976989746094 266.0223388671875 393.5829162597656 271.0743408203125 461.9708557128906 C 227.29786682128906 496.8359069824219 165.2341766357422 419.6795654296875 130.20396423339844 473.61370849609375 C 84.09197235107422 438.7398376464844 122.52607727050781 420.0432434082031 197.7407684326172 417.41168212890625 C 156.3887176513672 407.2776184082031 193.6221923828125 431.8620300292969 156.19442749023438 395.988525390625" stroke-width="6.104293346405029" fill="none" stroke="rgb(0, 0, 0)" stroke-opacity="1.0" stroke-linecap="round" stroke-linejoin="round"/>
    <path d="M 537.8438110351562 486.2809753417969 C 440.82635498046875 449.36492919921875 484.7933044433594 448.47003173828125 521.1679077148438 458.93695068359375 C 462.82049560546875 422.57208251953125 446.1024475097656 419.0965881347656 514.4906005859375 453.975341796875 C 599.3365478515625 389.502197265625 654.2463989257812 325.0977783203125 553.8427734375 390.2826843261719 C 512.37646484375 420.2212829589844 529.9443359375 392.830322265625 469.07525634765625 361.2752990722656" stroke-width="2.5367298126220703" fill="none" stroke="rgb(0, 0, 0)" stroke-opacity="0.70717627" stroke-linecap="round" stroke-linejoin="round"/>
    <path d="M 176.35507202148438 221.1360626220703 C 206.00123596191406 281.0068359375 195.8744354248047 274.29083251953125 230.02212524414062 323.8779602050781 C 209.32870483398438 354.9650573730469 247.90599060058594 350.8233642578125 212.58346557617188 403.727783203125 C 215.37509155273438 369.3202209472656 229.37893676757812 337.5191650390625 200.97735595703125 408.5009765625 C 224.6642608642578 396.7680969238281 246.14378356933594 410.5484924316406 260.37860107421875 470.1213073730469" stroke-width="10.915436744689941" fill="none" stroke="rgb(0, 0, 0)" stroke-opacity="0.31644943" stroke-linecap="round" stroke-linejoin="round"/>
    <path d="M 190.69862365722656 130.3650360107422 C 93.98429870605469 179.60992431640625 150.32933044433594 149.0439910888672 190.47023010253906 130.8902130126953 C 151.92626953125 145.1129913330078 150.0189971923828 162.30287170410156 104.46993255615234 167.7984161376953 C 160.18978881835938 151.6854248046875 137.0485076904297 165.13858032226562 79.92127227783203 213.65774536132812 C 95.50057220458984 235.04037475585938 122.04391479492188 189.2206268310547 160.3397674560547 150.0843963623047" stroke-width="10.764665603637695" fill="none" stroke="rgb(0, 0, 0)" stroke-opacity="0.6501008" stroke-linecap="round" stroke-linejoin="round"/>
    <path d="M 158.68765258789062 13.714705467224121 C 97.90343475341797 45.80625534057617 76.75970458984375 37.89982604980469 119.03360748291016 32.80009078979492 C 60.084449768066406 33.779903411865234 104.02203369140625 41.75520706176758 38.82053756713867 38.44438171386719 C 62.64369583129883 42.029903411865234 65.6781234741211 34.17205810546875 80.56352233886719 64.35688781738281 C 79.94839477539062 65.32411193847656 75.29898834228516 55.026039123535156 105.33528137207031 79.99711608886719" stroke-width="3.0578432083129883" fill="none" stroke="rgb(0, 0, 0)" stroke-opacity="0.6955424" stroke-linecap="round" stroke-linejoin="round"/>
    <path d="M 116.21286010742188 231.06996154785156 C 102.96235656738281 265.4549560546875 60.25659942626953 270.26458740234375 15.616838455200195 258.48797607421875 C -41.623050689697266 219.6317138671875 -46.17423629760742 223.1301727294922 -14.141867637634277 210.9237518310547 C -8.632567405700684 225.25607299804688 -27.272624969482422 227.20034790039062 -25.22947120666504 261.7325134277344 C -49.722782135009766 239.89907836914062 -42.697147369384766 246.9507293701172 -32.57853317260742 261.51678466796875" stroke-width="2.732022762298584" fill="none" stroke="rgb(0, 0, 0)" stroke-opacity="0.07943558" stroke-linecap="round" stroke-linejoin="round"/>
    <path d="M 372.2229919433594 593.9759521484375 C 375.7018737792969 594.256591796875 384.6512451171875 575.5181884765625 368.88372802734375 608.157958984375 C 377.8384094238281 621.039794921875 372.1700439453125 621.1785278320312 329.7706298828125 631.077880859375 C 347.7616882324219 623.7852783203125 361.7889709472656 602.5360717773438 347.4531555175781 627.6643676757812 C 330.16180419921875 617.0537719726562 336.7691955566406 620.2288208007812 322.4420471191406 630.2644653320312" stroke-width="2.0" fill="none" stroke="rgb(0, 0, 0)" stroke-opacity="0.456589" stroke-linecap="round" stroke-linejoin="round"/>
    <path d="M 268.8180847167969 460.6280517578125 C 274.8453674316406 374.7976989746094 266.0223388671875 393.5829162597656 271.0743408203125 461.9708557128906 C 227.29786682128906 496.8359069824219 165.2341766357422 419.6795654296875 130.20396423339844 473.61370849609375 C 84.09197235107422 438.7398376464844 122.52607727050781 420.0432434082031 197.7407684326172 417.41168212890625 C 156.3887176513672 407.2776184082031 193.6221923828125 431.8620300292969 156.19442749023438 395.988525390625" stroke-width="6.104293346405029" fill="none" stroke="rgb(0, 0, 0)" stroke-opacity="0.62720394" stroke-linecap="round" stroke-linejoin="round"/>
  </g>
</svg>
